<?xml version="1.0" encoding="UTF-8"?>
<svg xmlns="http://www.w3.org/2000/svg" width="512" height="512" viewBox="0 0 128 128"><g><path d="M21.687,109.874v8.373a1.75,1.75,0,0,0,1.75,1.75h81.125a1.749,1.749,0,0,0,1.75-1.75v-8.373a1.749,1.749,0,0,0-1.75-1.75H23.437A1.75,1.75,0,0,0,21.687,109.874Zm3.5,1.75h77.625V116.5H25.187Z"/><path d="M113.781,20.553a1.746,1.746,0,0,0,.531-1.256V9.747A9.761,9.761,0,0,0,104.562,0H23.437a9.761,9.761,0,0,0-9.75,9.75V19.3a1.747,1.747,0,0,0,.532,1.256L24,30.045v70.079H15.437a1.75,1.75,0,0,0-1.75,1.75v24.373a1.75,1.75,0,0,0,1.75,1.75h97.125a1.749,1.749,0,0,0,1.75-1.75V101.874a1.749,1.749,0,0,0-1.75-1.75H104V30.045ZM17.187,9.747a6.257,6.257,0,0,1,6.25-6.25h81.125a6.257,6.257,0,0,1,6.25,6.25v8.81l-9.272,9H26.459l-9.272-9ZM47.512,77a5.18,5.18,0,1,1,5.179-5.18A5.186,5.186,0,0,1,47.512,77Zm1.75,3.323a8.68,8.68,0,1,0-3.5,0v3.8H35.5V31.055h57V84.124H49.262ZM27.5,31.055H32V85.874a1.75,1.75,0,0,0,1.75,1.75H45.762v4.507H36.75A4.756,4.756,0,0,0,32,96.881v3.243H27.5Zm32.023,69.069H35.5V96.881a1.25,1.25,0,0,1,1.25-1.25H58.273a1.25,1.25,0,0,1,1.25,1.25ZM110.812,124.5H17.187V103.624h93.625Zm-26.3-27.616a1.25,1.25,0,0,1,1.25-1.25H91.25a1.251,1.251,0,0,1,1.25,1.25v3.243H84.516Zm-3.5,3.243H73.031V96.881a1.251,1.251,0,0,1,1.25-1.25h5.485a1.251,1.251,0,0,1,1.25,1.25Zm14.984,0V96.881a4.756,4.756,0,0,0-4.75-4.75H85.766a4.7,4.7,0,0,0-3,1.1,4.7,4.7,0,0,0-3-1.1H74.281a4.756,4.756,0,0,0-4.75,4.75v3.243H63.023V96.881a4.755,4.755,0,0,0-4.75-4.75H49.262V87.624H94.25A1.749,1.749,0,0,0,96,85.874V31.055h4.5v69.069Z"/><path d="M28.994,23.055H99.007a1.752,1.752,0,0,0,1.219-.5l5.555-5.391a1.746,1.746,0,0,0,.531-1.256V9.747A1.749,1.749,0,0,0,104.562,8H23.437a1.75,1.75,0,0,0-1.75,1.75v6.166a1.747,1.747,0,0,0,.532,1.256l5.556,5.391A1.747,1.747,0,0,0,28.994,23.055ZM25.187,11.5h77.625v3.676L98.3,19.555H29.7l-4.516-4.382Z"/></g></svg>
