<svg height="512" viewBox="0 0 128 128" width="512" xmlns="http://www.w3.org/2000/svg"><g><path d="m64 0a64 64 0 1 0 64 64 64.072 64.072 0 0 0 -64-64zm0 124.5a60.5 60.5 0 1 1 60.5-60.5 60.569 60.569 0 0 1 -60.5 60.5z"/><path d="m64 8a56 56 0 1 0 56 56 56.063 56.063 0 0 0 -56-56zm0 108.5a52.5 52.5 0 1 1 52.5-52.5 52.56 52.56 0 0 1 -52.5 52.5z"/><path d="m67.989 37.5a1.754 1.754 0 0 0 -1.648-.153l-23.341 9.863h-11.963a5.756 5.756 0 0 0 -5.75 5.75v22.08a5.756 5.756 0 0 0 5.75 5.75h11.963l23.338 9.862a1.762 1.762 0 0 0 2.431-1.612v-50.08a1.75 1.75 0 0 0 -.78-1.46zm-39.202 37.54v-22.08a2.253 2.253 0 0 1 2.25-2.25h10.572v26.58h-10.572a2.253 2.253 0 0 1 -2.25-2.25zm36.485 11.36-20.163-8.52v-27.76l20.163-8.52z"/><path d="m80.879 45.683-6.725 3.08a1.749 1.749 0 0 0 -.862 2.319 31.141 31.141 0 0 1 0 25.837 1.749 1.749 0 0 0 .862 2.319l6.725 3.08a1.727 1.727 0 0 0 .727.16 1.75 1.75 0 0 0 1.594-1.022 42.022 42.022 0 0 0 0-34.911 1.747 1.747 0 0 0 -2.321-.862zm-.169 32.709-3.548-1.625a34.671 34.671 0 0 0 0-25.533l3.547-1.625a38.57 38.57 0 0 1 0 28.783z"/><path d="m97.809 40.719a1.75 1.75 0 0 0 -2.309-.893l-6.763 2.994a1.751 1.751 0 0 0 -.892 2.309 46.826 46.826 0 0 1 0 37.74 1.748 1.748 0 0 0 .89 2.309l6.763 3a1.76 1.76 0 0 0 2.309-.891 57.718 57.718 0 0 0 0-46.566zm-2.517 43.537-3.565-1.581a50.381 50.381 0 0 0 0-37.35l3.564-1.578a54.268 54.268 0 0 1 0 40.509z"/></g></svg>