<?xml version="1.0" encoding="UTF-8"?>
<svg xmlns="http://www.w3.org/2000/svg" width="512" height="512" viewBox="0 0 128 128"><g><path d="M107.747,43.747A43.747,43.747,0,1,0,39.014,79.625v46.622a1.751,1.751,0,0,0,2.442,1.608L64,118.145l22.544,9.71a1.751,1.751,0,0,0,2.442-1.608V79.625A43.718,43.718,0,0,0,107.747,43.747ZM85.486,123.588l-20.794-8.956a1.743,1.743,0,0,0-1.384,0l-20.794,8.956V81.831a43.592,43.592,0,0,0,42.972,0ZM64,83.994a40.247,40.247,0,1,1,40.247-40.247A40.293,40.293,0,0,1,64,83.994Z"/><path d="M64,8A35.747,35.747,0,1,0,99.747,43.747,35.787,35.787,0,0,0,64,8Zm0,67.994A32.247,32.247,0,1,1,96.247,43.747,32.284,32.284,0,0,1,64,75.994Z"/><path d="M71.4,39.331a1.75,1.75,0,0,0,.684-1.717l-1.088-6.067,4.382-4.335a1.75,1.75,0,0,0-.992-2.978l-6.107-.84-2.768-5.507a1.749,1.749,0,0,0-1.564-.964h-.012a1.751,1.751,0,0,0-1.563.987l-2.686,5.548-6.094.932a1.749,1.749,0,0,0-.947,2.992l4.446,4.269-1,6.082a1.75,1.75,0,0,0,2.552,1.827l5.434-2.91,5.478,2.828A1.753,1.753,0,0,0,71.4,39.331Zm-6.531-6.213a1.757,1.757,0,0,0-1.629.012L60.12,34.8l.571-3.491a1.745,1.745,0,0,0-.514-1.545l-2.552-2.45,3.5-.536a1.75,1.75,0,0,0,1.311-.967l1.542-3.184,1.588,3.161a1.75,1.75,0,0,0,1.326.947l3.505.483-2.515,2.488a1.748,1.748,0,0,0-.492,1.553l.624,3.482Z"/><path d="M90.009,50.214a1.748,1.748,0,0,0-1.422-1.18l-6.106-.841-2.769-5.507a1.75,1.75,0,0,0-1.564-.964h-.012a1.753,1.753,0,0,0-1.563.987l-2.686,5.548-6.094.932a1.75,1.75,0,0,0-.947,2.992l4.446,4.269-1,6.083a1.75,1.75,0,0,0,2.553,1.826l5.433-2.909,5.478,2.827a1.75,1.75,0,0,0,2.525-1.863L85.2,56.346l4.382-4.335A1.748,1.748,0,0,0,90.009,50.214Zm-7.927,4.291a1.749,1.749,0,0,0-.492,1.553l.624,3.483L79.07,57.917a1.757,1.757,0,0,0-1.629.013L74.323,59.6l.571-3.492a1.746,1.746,0,0,0-.514-1.545l-2.552-2.45,3.5-.535a1.753,1.753,0,0,0,1.311-.968l1.542-3.184,1.59,3.161a1.744,1.744,0,0,0,1.325.947l3.5.483Z"/><path d="M60.181,49.033l-6.107-.841-2.769-5.506a1.75,1.75,0,0,0-3.139.023L45.48,48.257l-6.093.932a1.75,1.75,0,0,0-.948,2.992l4.446,4.269-.995,6.083a1.75,1.75,0,0,0,2.552,1.826l5.434-2.909,5.477,2.827a1.75,1.75,0,0,0,2.526-1.863l-1.088-6.068,4.382-4.335a1.751,1.751,0,0,0-.992-2.978Zm-6.5,5.472a1.749,1.749,0,0,0-.492,1.553l.624,3.483-3.144-1.624a1.757,1.757,0,0,0-1.629.013L45.916,59.6l.571-3.492a1.746,1.746,0,0,0-.514-1.545l-2.552-2.45,3.5-.535a1.752,1.752,0,0,0,1.31-.968l1.541-3.184,1.59,3.161a1.747,1.747,0,0,0,1.325.947l3.5.483Z"/><path d="M49.3,89.708a1.749,1.749,0,0,0-2.283,1.667v22.716a1.749,1.749,0,0,0,2.442,1.607L64,109.434,78.544,115.7a1.749,1.749,0,0,0,2.442-1.607V91.375A1.749,1.749,0,0,0,78.7,89.708,48.654,48.654,0,0,1,49.3,89.708Zm28.189,21.724-12.794-5.511a1.757,1.757,0,0,0-1.384,0l-12.794,5.511V93.714a52.176,52.176,0,0,0,26.972,0Z"/></g></svg>
