<svg id="Layer_1" enable-background="new 0 0 128 128" height="512" viewBox="0 0 128 128" width="512" xmlns="http://www.w3.org/2000/svg"><g><path d="m45.8 77h-2.1v-2.1c0-2.6-2.1-4.6-4.6-4.6s-4.6 2.1-4.6 4.6v2.1h-2.1c-2.6 0-4.6 2.1-4.6 4.6s2.1 4.6 4.6 4.6h2.1v2.1c0 2.6 2.1 4.6 4.6 4.6 2.6 0 4.6-2.1 4.6-4.6v-2.1h2.1c2.6 0 4.6-2.1 4.6-4.6s-2-4.6-4.6-4.6zm0 5.7h-3.8c-1 0-1.7.8-1.7 1.7v3.8c0 .6-.5 1.1-1.1 1.1s-1.2-.4-1.2-1v-3.9c0-1-.8-1.7-1.7-1.7h-3.8c-.6 0-1.1-.5-1.1-1.1s.5-1.1 1.1-1.1h3.8c1 0 1.7-.8 1.7-1.7v-3.8c0-.6.5-1.1 1.1-1.1s1.1.5 1.1 1.1v3.8c0 1 .8 1.7 1.7 1.7h3.8c.6 0 1.1.5 1.1 1.1.2.6-.3 1.1-1 1.1z"/><path d="m95.6 77h-2.1v-2.1c0-2.6-2.1-4.6-4.6-4.6s-4.6 2.1-4.6 4.6v2.1h-2.1c-2.6 0-4.6 2.1-4.6 4.6s2.1 4.6 4.6 4.6h2.1v2.1c0 2.6 2.1 4.6 4.6 4.6s4.6-2.1 4.6-4.6v-2.1h2.1c2.6 0 4.6-2.1 4.6-4.6s-2-4.6-4.6-4.6zm0 5.7h-3.8c-1 0-1.7.8-1.7 1.7v3.8c0 .6-.5 1.1-1.1 1.1s-1.1-.5-1.1-1.1v-3.9c0-1-.8-1.7-1.7-1.7h-3.8c-.6 0-1.1-.5-1.1-1.1s.5-1.1 1.1-1.1h3.6c1 0 1.7-.8 1.7-1.7v-3.8c0-.6.5-1.1 1.1-1.1s1.1.5 1.1 1.1v3.8c0 1 .8 1.7 1.7 1.7h3.8c.6 0 1.1.5 1.1 1.1.2.7-.3 1.2-.9 1.2z"/><path d="m68.8 77h-9.6c-2.6 0-4.6 2.1-4.6 4.6s2.1 4.6 4.6 4.6h9.6c2.6 0 4.6-2.1 4.6-4.6s-2.1-4.6-4.6-4.6zm0 5.7h-9.6c-.6 0-1.1-.5-1.1-1.1s.5-1.1 1.1-1.1h9.6c.6 0 1.1.5 1.1 1.1s-.5 1.1-1.1 1.1z"/><path d="m105.4 33.1c1.2.9 2.8.1 2.8-1.4v-21.9c0-1-.8-1.7-1.7-1.7h-28.3c-1.7 0-2.4 2.1-1.1 3.1zm-.6-21.5v16.6l-21.5-16.6z"/><path d="m126.2 7.1h-9.9v-5.3c0-1-.8-1.7-1.7-1.7h-59.8c-1.7 0-2.4 2.1-1.1 3.1l5.1 3.9h-37.7v-5.3c0-1-.8-1.7-1.7-1.7h-8.9c-5.8 0-10.4 4.6-10.4 10.3v48.2c0 5.7 4.6 10.4 10.3 10.4h12.7c-.1.4-.2.7-.2 1.1-.2 1.3-5.4 32.3-5.4 39.8-.1 9.5 7.2 17.4 16.6 18.1 9.4.6 17.3-6.1 18.6-15l1-6.3c3.6-.2 6.6-2.8 7.3-6.3h5.6c.8 3.5 3.8 6 7.3 6.3l.9 5.9c1.2 8.5 8.3 14.9 16.8 15.3 10.1.4 18.5-7.6 18.5-17.7 0-.1.2-7-5.4-40.1-.1-.4-.1-.7-.2-1.1h21.4c1 0 1.7-.8 1.7-1.7v-58.4c.3-1-.4-1.8-1.4-1.8zm-13.4-3.5v40.8l-52.9-40.8zm-41.1 26.4 9.8 6.8-9.8 6.8h-2.6v-13.6zm-50.6 13.6v-5.1h44.6v5.1zm44.6-8.5h-44.6v-5.1h44.6zm-55.3-31.5h7.2v44.7h-7.2c-2.5 0-5 .9-6.9 2.6v-40.5c.1-3.8 3.1-6.8 6.9-6.8zm42.9 99.6c-2.7 0-4.9-2.5-4.4-5.3.4-2.5 2.7-4.1 5.2-3.7s4.1 2.7 3.7 5.2c-.3 2.2-2.3 3.8-4.5 3.8zm16.8-4.6c0-2.5 2-4.6 4.5-4.6s4.6 2 4.6 4.5c0 2.1-1.4 4-3.9 4.5-2.7.5-5.2-1.6-5.2-4.4zm36.8 11.6c0 8.1-6.7 14.6-14.8 14.2-6.9-.4-12.5-5.6-13.5-12.4l-.9-5.9c4.1-1.6 6.2-6.3 4.6-10.4s-6.3-6.2-10.4-4.6c-2.5 1-4.3 3.1-4.9 5.7h-5.6c-1-4.3-5.3-7.1-9.6-6.1s-7.1 5.3-6.1 9.6c.6 2.6 2.4 4.8 4.9 5.8l-1 6.3c-1.1 7.3-7.6 12.5-14.9 12-7.6-.6-13.4-7-13.4-14.6 0-7.2 5.3-38.9 5.3-39.2.9-6.2 6.2-10.7 12.5-10.7h6v.2c0 4.9 4 8.9 8.9 8.9h20.4c4.9 0 8.9-4 8.9-8.9v-.2h6c6.2 0 11.6 4.6 12.5 10.7 4.9 28.9 5.1 39.5 5.1 39.6zm-58.5-50.3h31.2v.2c0 3-2.4 5.4-5.4 5.4h-20.4c-3 0-5.4-2.4-5.4-5.4zm76 5.6h-20.8c-2.7-5.6-8.3-9.1-14.5-9.1h-50.2c-6.2 0-11.8 3.5-14.5 9.1h-14c-3.8 0-6.8-3.2-6.8-6.9s3.1-6.7 6.8-6.8h8.9c1 0 1.7-.8 1.7-1.7v-2.9h51.2c.4 0 .7-.1 1-.3l12.4-8.6c1-.7 1-2.2 0-2.9l-12.4-8.6c-.3-.2-.6-.3-1-.3h-51.1v-15.9h42.2l50.1 38.7c1.2.9 2.8 0 2.8-1.4v-37.3h8.2z"/></g></svg>