<svg height="512" viewBox="0 0 128 128" width="512" xmlns="http://www.w3.org/2000/svg"><g><path d="m80.319 109.078a1.748 1.748 0 0 0 1.173-.452 44.088 44.088 0 0 0 14.508-32.626 1.75 1.75 0 0 0 -3.5 0 40.581 40.581 0 0 1 -13.356 30.03 1.75 1.75 0 0 0 1.175 3.048z"/><path d="m127.03 19.627-10.286-5.122 5.181-12.067a1.751 1.751 0 0 0 -2.65-2.1l-6.079 4.5a65.253 65.253 0 0 0 -14.342 14.605h-4.549a7.98 7.98 0 0 1 -7.971-7.971 11.483 11.483 0 0 0 -11.471-11.472h-13.142a11.483 11.483 0 0 0 -11.471 11.472v1.228h-8.95a5.756 5.756 0 0 0 -5.75 5.75v8.23a52 52 0 1 0 32.905 0v-8.233a5.756 5.756 0 0 0 -5.755-5.747h-8.95v-1.228a7.979 7.979 0 0 1 7.971-7.972h13.142a7.979 7.979 0 0 1 7.971 7.97 11.484 11.484 0 0 0 11.471 11.473h4.549a65.244 65.244 0 0 0 14.346 14.606l6.081 4.5a1.75 1.75 0 0 0 2.649-2.1l-5.186-12.069 10.286-5.121a1.749 1.749 0 0 0 0-3.132zm-26.53 56.373a48.5 48.5 0 1 1 -48.5-48.5 48.556 48.556 0 0 1 48.5 48.5zm-35.547-57.553v7.184a52.184 52.184 0 0 0 -25.9 0v-7.184a2.253 2.253 0 0 1 2.247-2.247h21.4a2.253 2.253 0 0 1 2.253 2.247zm48.75 7.037a1.751 1.751 0 0 0 -.828 2.257l3.282 7.645-.882-.652a61.724 61.724 0 0 1 -13.384-13.541 61.715 61.715 0 0 1 13.386-13.542l.88-.651-3.282 7.644a1.751 1.751 0 0 0 .825 2.256l8.62 4.292z"/></g></svg>