<?xml version="1.0" encoding="UTF-8"?>
<svg xmlns="http://www.w3.org/2000/svg" width="512" height="512" viewBox="0 0 128 128"><g><path d="M64,26a38,38,0,1,0,38,38A38.043,38.043,0,0,0,64,26Zm0,72.5A34.5,34.5,0,1,1,98.5,64,34.54,34.54,0,0,1,64,98.5Z"/><path d="M71.917,52.724,64.7,38.37a1.752,1.752,0,0,0-1.564-.964h-.013a1.751,1.751,0,0,0-1.562.988l-7,14.459-15.883,2.43a1.749,1.749,0,0,0-.947,2.992L49.317,69.4l-2.6,15.856a1.762,1.762,0,0,0,2.553,1.826L63.437,79.5l14.277,7.37a1.749,1.749,0,0,0,2.525-1.863L77.405,69.193l11.421-11.3a1.75,1.75,0,0,0-.993-2.978Zm2.372,14.629a1.752,1.752,0,0,0-.492,1.552l2.371,13.231L64.225,75.971a1.746,1.746,0,0,0-1.628.011l-11.85,6.344,2.172-13.265a1.746,1.746,0,0,0-.515-1.545l-9.695-9.31L56,56.174a1.748,1.748,0,0,0,1.31-.967l5.858-12.1L69.2,55.118a1.746,1.746,0,0,0,1.324.947L83.843,57.9Z"/><path d="M125.66,46.859A64,64,0,0,0,46.859,2.34C19.73,9.494-.385,35.949,0,64c-.715,34.311,29.691,64.714,64,64,34.311.715,64.714-29.69,64-64A64.129,64.129,0,0,0,125.66,46.859ZM114.939,75.618h0a4.128,4.128,0,0,1-3.065-3.638V56.02a4.128,4.128,0,0,1,3.066-3.638l7.823-2.77a60.424,60.424,0,0,1,0,28.776Zm.781-42.993L108.234,36.2a4.129,4.129,0,0,1-4.74-.4L92.208,24.506a4.129,4.129,0,0,1-.4-4.74l3.572-7.486A60.724,60.724,0,0,1,115.72,32.625ZM78.387,5.238,75.618,13.06a5.88,5.88,0,0,1-.282.667,3.91,3.91,0,0,1-3.356,2.4H56.019a3.909,3.909,0,0,1-3.355-2.4,5.88,5.88,0,0,1-.282-.667L49.613,5.238A60.653,60.653,0,0,1,78.387,5.238ZM32.624,12.28,36.2,19.766a4.129,4.129,0,0,1-.4,4.74L24.506,35.792a4.131,4.131,0,0,1-4.741.4L12.28,32.625A60.715,60.715,0,0,1,32.624,12.28ZM5.238,78.388a60.424,60.424,0,0,1,0-28.776l7.823,2.77a4.128,4.128,0,0,1,3.066,3.638V71.98a4.128,4.128,0,0,1-3.066,3.638ZM12.28,95.375,19.766,91.8a4.128,4.128,0,0,1,4.74.4l11.286,11.286a4.129,4.129,0,0,1,.4,4.74l-3.572,7.486A60.715,60.715,0,0,1,12.28,95.375Zm37.333,27.387,2.769-7.822a5.88,5.88,0,0,1,.282-.667,3.909,3.909,0,0,1,3.355-2.4H71.98a3.91,3.91,0,0,1,3.356,2.4,5.88,5.88,0,0,1,.282.667l2.769,7.822A60.653,60.653,0,0,1,49.613,122.762Zm45.763-7.042L91.8,108.234a4.129,4.129,0,0,1,.4-4.74l11.286-11.286a4.222,4.222,0,0,1,4.741-.4l7.485,3.571A60.724,60.724,0,0,1,95.376,115.72Zm22.079-23.4-7.713-3.678a7.558,7.558,0,0,0-8.723,1.087L89.733,101.02a7.559,7.559,0,0,0-1.088,8.722l3.68,7.712a60.171,60.171,0,0,1-10.554,4.376l-2.853-8.058a7.56,7.56,0,0,0-6.938-5.4H56.019a7.56,7.56,0,0,0-6.937,5.4l-2.853,8.058a60.171,60.171,0,0,1-10.554-4.376l3.68-7.712a8.828,8.828,0,0,0,.883-3.57,6.936,6.936,0,0,0-1.97-5.152h0L26.98,89.733a7.556,7.556,0,0,0-8.722-1.087l-7.713,3.678A60.265,60.265,0,0,1,6.17,81.771l8.058-2.854a7.556,7.556,0,0,0,5.4-6.937V56.02a7.556,7.556,0,0,0-5.4-6.937L6.17,46.229a60.265,60.265,0,0,1,4.375-10.553l7.713,3.678c2.8,1.367,6.458,1.209,8.722-1.087L38.267,26.98a7.559,7.559,0,0,0,1.088-8.722l-3.68-7.712A60.171,60.171,0,0,1,46.229,6.17l2.853,8.058a7.56,7.56,0,0,0,6.937,5.4H71.98a7.56,7.56,0,0,0,6.938-5.4L81.771,6.17a60.171,60.171,0,0,1,10.554,4.376l-3.68,7.712a8.828,8.828,0,0,0-.883,3.57,6.932,6.932,0,0,0,1.97,5.152h0l11.286,11.287c2.265,2.3,5.921,2.454,8.723,1.087l7.713-3.678a60.265,60.265,0,0,1,4.375,10.553l-8.059,2.854a7.556,7.556,0,0,0-5.4,6.937V71.98a6.659,6.659,0,0,0,.843,3.232,8.269,8.269,0,0,0,4.555,3.7l2.548.9,5.511,1.952A60.265,60.265,0,0,1,117.455,92.324Z"/></g></svg>
