<svg height="512" viewBox="0 0 128 128" width="512" xmlns="http://www.w3.org/2000/svg"><g><path d="m32.281 31.034h10.519a1.749 1.749 0 0 0 1.75-1.75v-8.316a1.75 1.75 0 0 0 -1.75-1.75h-4.262a1.75 1.75 0 0 0 0 3.5h2.507v4.816h-7.014v-13.134h8.769a1.75 1.75 0 0 0 0-3.5h-10.519a1.751 1.751 0 0 0 -1.75 1.75v16.634a1.75 1.75 0 0 0 1.75 1.75z"/><path d="m49.113 30.912a1.747 1.747 0 0 0 2.27-.985l1.417-3.586h7.06l1.417 3.586a1.75 1.75 0 1 0 3.255-1.286l-6.574-16.633a1.765 1.765 0 0 0 -3.255 0l-6.575 16.633a1.751 1.751 0 0 0 .985 2.271zm5.071-8.071 2.146-5.429 2.146 5.429z"/><path d="m69.865 31.034a1.75 1.75 0 0 0 1.75-1.75v-10.295l3.1 5.193a1.75 1.75 0 0 0 3 0l3.105-5.193v10.295a1.75 1.75 0 0 0 3.5 0v-16.633a1.75 1.75 0 0 0 -3.252-.9l-4.855 8.12-4.854-8.12a1.75 1.75 0 0 0 -3.252.9v16.633a1.749 1.749 0 0 0 1.758 1.75z"/><path d="m90.36 31.034h7.247a1.75 1.75 0 0 0 0-3.5h-5.5v-4.816h5.5a1.75 1.75 0 0 0 0-3.5h-5.5v-4.818h5.5a1.75 1.75 0 0 0 0-3.5h-7.247a1.751 1.751 0 0 0 -1.75 1.75v16.634a1.75 1.75 0 0 0 1.75 1.75z"/><path d="m118.544 18.809h-11.4v-17.062a1.751 1.751 0 0 0 -1.744-1.747h-80.9a1.75 1.75 0 0 0 -1.75 1.75v17.059h-13.294a3.754 3.754 0 0 0 -3.75 3.75v72.659a3.754 3.754 0 0 0 3.75 3.75h40.722l-1.548 11.985h-9.643a5.783 5.783 0 0 0 -5.688 4.909l-1.5 10.129a1.75 1.75 0 0 0 1.736 2.009h60.93a1.75 1.75 0 0 0 1.732-2.006l-1.5-10.128a5.783 5.783 0 0 0 -5.688-4.91h-9.639l-1.548-11.988h40.722a3.754 3.754 0 0 0 3.75-3.75v-72.659a3.754 3.754 0 0 0 -3.75-3.75zm-14.898-15.309v34.938h-77.4v-34.938zm-94.19 18.809h13.286v17.879a1.75 1.75 0 0 0 1.75 1.75h80.9a1.751 1.751 0 0 0 1.75-1.75v-17.879h11.4a.25.25 0 0 1 .25.25v62.374h-109.586v-62.374a.25.25 0 0 1 .25-.25zm81.782 94.065 1.2 8.123h-56.876l1.2-8.124a2.261 2.261 0 0 1 2.225-1.92h50.026a2.261 2.261 0 0 1 2.225 1.921zm-15.4-5.421h-23.679l1.548-11.985h20.586zm42.7-15.485h-109.082a.251.251 0 0 1 -.25-.25v-6.785h109.588v6.785a.251.251 0 0 1 -.25.25z"/></g></svg>