<svg height="512" viewBox="0 0 128 128" width="512" xmlns="http://www.w3.org/2000/svg"><g><path d="m64 0a64 64 0 1 0 64 64 64.072 64.072 0 0 0 -64-64zm0 124.5a60.5 60.5 0 1 1 60.5-60.5 60.568 60.568 0 0 1 -60.5 60.5z"/><path d="m64 8a56 56 0 1 0 56 56 56.064 56.064 0 0 0 -56-56zm0 108.5a52.5 52.5 0 1 1 52.5-52.5 52.559 52.559 0 0 1 -52.5 52.5z"/><path d="m95.555 44.083a1.805 1.805 0 0 0 -1.206-1.283l-29.849-8.878a1.748 1.748 0 0 0 -1 0l-29.849 8.878a1.782 1.782 0 0 0 -1.251 1.676v39.048a1.75 1.75 0 0 0 1.251 1.676l29.849 8.878a1.748 1.748 0 0 0 1 0l29.849-8.878a1.75 1.75 0 0 0 1.251-1.676v-39.048a2.124 2.124 0 0 0 -.045-.393zm-31.555-6.658 22.992 6.837-22.992 5.304-22.992-5.3zm-28.1 9.251 26.35 6.078v37.3l-26.35-7.835zm29.85 43.379v-37.3l26.35-6.079v35.543z"/></g></svg>