<?xml version="1.0" encoding="UTF-8"?>
<svg xmlns="http://www.w3.org/2000/svg" width="512" height="512" viewBox="0 0 128 128"><g><path d="M126.25,52.25h-9.626a53.291,53.291,0,0,0-7.1-17.155l6.8-6.8a1.749,1.749,0,0,0,0-2.475L102.184,11.674a1.751,1.751,0,0,0-2.475,0l-6.8,6.8a53.3,53.3,0,0,0-17.155-7.1V1.75A1.75,1.75,0,0,0,74,0H54a1.751,1.751,0,0,0-1.75,1.75v9.627a53.3,53.3,0,0,0-17.156,7.1l-6.8-6.8a1.751,1.751,0,0,0-2.475,0L11.674,25.816a1.751,1.751,0,0,0,0,2.475l6.8,6.8a53.326,53.326,0,0,0-7.1,17.156H1.75A1.751,1.751,0,0,0,0,54V74a1.751,1.751,0,0,0,1.75,1.75h9.626a53.326,53.326,0,0,0,7.1,17.156l-6.8,6.8a1.751,1.751,0,0,0,0,2.475l14.142,14.142a1.751,1.751,0,0,0,2.475,0l6.8-6.8a53.3,53.3,0,0,0,17.156,7.1v9.627A1.751,1.751,0,0,0,54,128H74a1.75,1.75,0,0,0,1.75-1.75v-9.627a53.3,53.3,0,0,0,17.155-7.1l6.8,6.8a1.751,1.751,0,0,0,2.475,0l14.142-14.142a1.749,1.749,0,0,0,0-2.475l-6.8-6.8a53.291,53.291,0,0,0,7.1-17.155h9.626A1.75,1.75,0,0,0,128,74V54A1.75,1.75,0,0,0,126.25,52.25Zm-1.75,20h-9.3a1.75,1.75,0,0,0-1.718,1.417,49.886,49.886,0,0,1-7.655,18.491,1.75,1.75,0,0,0,.214,2.216l6.573,6.572-11.668,11.668-6.572-6.572a1.747,1.747,0,0,0-2.216-.214,49.882,49.882,0,0,1-18.492,7.654A1.75,1.75,0,0,0,72.25,115.2v9.3H55.75v-9.3a1.75,1.75,0,0,0-1.417-1.718,49.894,49.894,0,0,1-18.491-7.654,1.749,1.749,0,0,0-2.216.214l-6.572,6.571L15.387,100.946l6.571-6.572a1.749,1.749,0,0,0,.214-2.216,49.894,49.894,0,0,1-7.654-18.491A1.75,1.75,0,0,0,12.8,72.25H3.5V55.75h9.3a1.75,1.75,0,0,0,1.718-1.417,49.894,49.894,0,0,1,7.654-18.491,1.749,1.749,0,0,0-.214-2.216l-6.571-6.572L27.054,15.387l6.572,6.571a1.747,1.747,0,0,0,2.216.214,49.894,49.894,0,0,1,18.491-7.654A1.75,1.75,0,0,0,55.75,12.8V3.5h16.5v9.3a1.75,1.75,0,0,0,1.416,1.718,49.882,49.882,0,0,1,18.492,7.654,1.75,1.75,0,0,0,2.216-.214l6.572-6.572,11.668,11.668-6.573,6.572a1.75,1.75,0,0,0-.214,2.216,49.886,49.886,0,0,1,7.655,18.491A1.75,1.75,0,0,0,115.2,55.75h9.3Z"/><path d="M64,24.57A39.429,39.429,0,1,0,103.42,64,39.47,39.47,0,0,0,64,24.57Zm-1.75,75.3a35.916,35.916,0,0,1-5.06-.607V56.315h5.06Zm3.5-43.551h5.06V99.259a35.916,35.916,0,0,1-5.06.607Zm5.06-3.5H57.19V49.86L64,40.314l6.81,9.546Zm3.5,45.6V49.3a1.744,1.744,0,0,0-.326-1.016l-8.559-12a1.815,1.815,0,0,0-2.85,0l-8.56,12A1.75,1.75,0,0,0,53.69,49.3V98.41a35.92,35.92,0,1,1,20.62,0Z"/></g></svg>
