<?xml version="1.0" encoding="UTF-8"?>
<svg xmlns="http://www.w3.org/2000/svg" width="512" height="512" viewBox="0 0 128 128"><g><path d="M92.743,23H35.257a1.75,1.75,0,0,0-1.75,1.75v7.127a1.75,1.75,0,0,0,1.75,1.75H92.743a1.75,1.75,0,0,0,1.75-1.75V24.754A1.75,1.75,0,0,0,92.743,23Zm-1.75,7.127H37.007V26.5H90.993Z"/><path d="M120.25,15h-3.125V11.752A6.758,6.758,0,0,0,110.375,5H105.75A6.758,6.758,0,0,0,99,11.752V15H29V11.752A6.758,6.758,0,0,0,22.25,5H17.625a6.758,6.758,0,0,0-6.75,6.751V15H7.75A7.759,7.759,0,0,0,0,22.754v92.494A7.759,7.759,0,0,0,7.75,123h112.5a7.759,7.759,0,0,0,7.75-7.75V22.754A7.759,7.759,0,0,0,120.25,15ZM102.5,11.752A3.254,3.254,0,0,1,105.75,8.5h4.625a3.254,3.254,0,0,1,3.25,3.251V30.131H102.5V11.752Zm-88.125,0A3.254,3.254,0,0,1,17.625,8.5H22.25a3.254,3.254,0,0,1,3.25,3.251V30.131H14.375V11.752ZM3.5,22.754A4.255,4.255,0,0,1,7.75,18.5h3.125V31.881a1.75,1.75,0,0,0,1.75,1.75H27.25A1.75,1.75,0,0,0,29,31.881V18.5H99V31.881a1.75,1.75,0,0,0,1.75,1.75h14.625a1.75,1.75,0,0,0,1.75-1.75V18.5h3.125a4.255,4.255,0,0,1,4.25,4.25V38.131H3.5Zm121,92.494a4.254,4.254,0,0,1-4.25,4.25H7.75a4.254,4.254,0,0,1-4.25-4.25V41.631h121Z"/><path d="M9.75,97.9h8a1.75,1.75,0,0,0,1.75-1.75V77.3l5.722,4.559a1.748,1.748,0,0,0,2.181,0L33.125,77.3V96.145a1.75,1.75,0,0,0,1.75,1.75h8a1.75,1.75,0,0,0,1.75-1.75v-28.7a6.75,6.75,0,0,0-10.956-5.279l-7.357,5.86-7.357-5.861A6.75,6.75,0,0,0,8,67.446v28.7A1.75,1.75,0,0,0,9.75,97.9ZM11.5,67.446A3.25,3.25,0,0,1,16.774,64.9l8.448,6.729a1.748,1.748,0,0,0,2.181,0L35.851,64.9a3.249,3.249,0,0,1,5.274,2.542V94.4h-4.5V73.672A1.75,1.75,0,0,0,33.784,72.3l-7.472,5.953L18.841,72.3A1.75,1.75,0,0,0,16,73.672V94.4H11.5Z"/><path d="M50.463,97.9H77.537a1.75,1.75,0,0,0,1.75-1.75V62.44a1.75,1.75,0,0,0-1.75-1.75H50.463a1.75,1.75,0,0,0-1.75,1.75V96.145A1.75,1.75,0,0,0,50.463,97.9Zm1.75-33.7H75.787V94.4H52.213Z"/><path d="M69.537,68.69H58.463a1.75,1.75,0,0,0-1.75,1.75v17.7a1.75,1.75,0,0,0,1.75,1.75H69.537a1.75,1.75,0,0,0,1.75-1.75V70.44A1.75,1.75,0,0,0,69.537,68.69Zm-1.75,17.7H60.213V72.19h7.574Z"/><path d="M85.125,97.9h8a1.75,1.75,0,0,0,1.75-1.75V80.205l13.27,15.351A6.751,6.751,0,0,0,120,91.139V62.44a1.75,1.75,0,0,0-1.75-1.75h-8a1.75,1.75,0,0,0-1.75,1.75V78.381L95.229,63.03a6.75,6.75,0,0,0-11.854,4.417v28.7A1.75,1.75,0,0,0,85.125,97.9Zm1.75-30.448a3.25,3.25,0,0,1,5.707-2.127l16.344,18.906A1.75,1.75,0,0,0,112,83.082V64.19h4.5V91.139a3.222,3.222,0,0,1-2.115,3.045,3.26,3.26,0,0,1-3.592-.918L94.449,74.36A1.75,1.75,0,0,0,91.375,75.5V94.4h-4.5Z"/></g></svg>
