<?xml version="1.0" encoding="UTF-8"?>
<svg xmlns="http://www.w3.org/2000/svg" width="512" height="512" viewBox="0 0 128 128"><g><path d="M43.657,71.373H41.1v-2.56a4.963,4.963,0,0,0-9.926,0v2.56h-2.56a4.963,4.963,0,1,0,0,9.926h2.56v2.56a4.963,4.963,0,0,0,9.926,0V81.3h2.56a4.963,4.963,0,0,0,0-9.926Zm0,6.426h-4.31a1.751,1.751,0,0,0-1.75,1.75v4.31a1.463,1.463,0,0,1-2.926,0v-4.31a1.75,1.75,0,0,0-1.75-1.75h-4.31a1.463,1.463,0,1,1,0-2.926h4.31a1.75,1.75,0,0,0,1.75-1.75v-4.31a1.463,1.463,0,1,1,2.926,0v4.31a1.751,1.751,0,0,0,1.75,1.75h4.31a1.463,1.463,0,1,1,0,2.926Z"/><path d="M99.389,71.373h-2.56v-2.56a4.963,4.963,0,1,0-9.926,0v2.56h-2.56a4.963,4.963,0,0,0,0,9.926H86.9v2.56a4.963,4.963,0,0,0,9.926,0V81.3h2.56a4.963,4.963,0,1,0,0-9.926Zm0,6.426h-4.31a1.75,1.75,0,0,0-1.75,1.75v4.31a1.463,1.463,0,0,1-2.926,0v-4.31a1.751,1.751,0,0,0-1.75-1.75h-4.31a1.463,1.463,0,0,1,0-2.926h4.31a1.751,1.751,0,0,0,1.75-1.75v-4.31a1.463,1.463,0,1,1,2.926,0v4.31a1.75,1.75,0,0,0,1.75,1.75h4.31a1.463,1.463,0,1,1,0,2.926Z"/><path d="M69.367,71.373H58.633a4.963,4.963,0,1,0,0,9.926H69.367a4.963,4.963,0,0,0,0-9.926Zm0,6.426H58.633a1.463,1.463,0,1,1,0-2.926H69.367a1.463,1.463,0,0,1,0,2.926Z"/><path d="M109.754,63.439A17.707,17.707,0,0,0,92.141,48.29h-12.2l4.641-9.348a1.752,1.752,0,0,0,.09-1.34L72.327,1.186A1.753,1.753,0,0,0,70.669,0H57.274a1.75,1.75,0,0,0-1.652,1.173L42.9,37.587a1.754,1.754,0,0,0,.108,1.4l4.956,9.3H35.859A17.7,17.7,0,0,0,18.248,63.425c-.245,1.471-6,36.11-6,44.519A19.886,19.886,0,0,0,30.7,127.965q.615.037,1.222.037a19.575,19.575,0,0,0,19.4-16.623l1.126-7.213a8.822,8.822,0,0,0,8.238-7.042h6.632a8.822,8.822,0,0,0,8.238,7.042l1.062,6.806a19.943,19.943,0,0,0,18.667,17.013,19.654,19.654,0,0,0,20.467-19.636v-.405C115.75,99.558,110.028,65.086,109.754,63.439ZM64,27.644a4.042,4.042,0,1,1-4.042,4.042A4.046,4.046,0,0,1,64,27.644ZM46.46,38.018,58.517,3.5H62.25V24.357a7.542,7.542,0,1,0,3.5,0V3.5h3.665L81.124,38.037,76.034,48.29h-24.1ZM81.694,51.79v.45a6.257,6.257,0,0,1-6.25,6.25H52.556a6.257,6.257,0,0,1-6.25-6.25v-.45Zm-29.647,48.9a5.384,5.384,0,0,1-.77-.059c-.017,0-.032-.01-.05-.013a5.263,5.263,0,1,1,.82.072Zm18.594-5.312a5.312,5.312,0,1,1,6.132,5.24c-.018,0-.033.01-.05.013a5.384,5.384,0,0,1-.77.059A5.317,5.317,0,0,1,70.641,95.374Zm41.609,12.975a16.153,16.153,0,0,1-16.826,16.139,16.436,16.436,0,0,1-15.35-14.056l-1.061-6.8a8.811,8.811,0,1,0-11.7-10.011h-6.63a8.812,8.812,0,1,0-11.7,10.011l-1.125,7.2a16.107,16.107,0,0,1-16.955,13.633A16.383,16.383,0,0,1,15.75,107.944c0-8.122,5.891-43.587,5.955-43.971A14.227,14.227,0,0,1,35.859,51.79h6.947v.45a9.761,9.761,0,0,0,9.75,9.75H75.444a9.761,9.761,0,0,0,9.75-9.75v-.45h6.947A14.227,14.227,0,0,1,106.3,63.973l0,.028c.059.356,5.95,35.821,5.95,43.943Z"/></g></svg>
