<?xml version="1.0" encoding="UTF-8"?>
<svg xmlns="http://www.w3.org/2000/svg" width="512" height="512" viewBox="0 0 128 128"><g><path d="M57.861,52.913H59.83a1.75,1.75,0,0,0,0-3.5l-1.912.066.715-4.717a1.75,1.75,0,0,0-3.461-.524l-.714,4.717a3.442,3.442,0,0,0,3.4,3.958Z"/><path d="M68.681,44.038A4.183,4.183,0,1,0,64.5,39.855,4.187,4.187,0,0,0,68.681,44.038Z"/><path d="M49.651,57.251a1.749,1.749,0,0,0-.238,2.463,10.428,10.428,0,0,0,8.07,3.363,10.43,10.43,0,0,0,8.07-3.362,1.75,1.75,0,1,0-2.7-2.225,7.045,7.045,0,0,1-5.369,2.087,7.038,7.038,0,0,1-5.368-2.088A1.752,1.752,0,0,0,49.651,57.251Z"/><circle cx="46.538" cy="39.855" r="4.183" transform="translate(6.627 86.346) rotate(-89.931)"/><path d="M98.2,68.405A29.778,29.778,0,0,0,73.718,81.252a4.53,4.53,0,0,1-.186-.806l-.973-7.606a23.771,23.771,0,0,0,7.107-9.562,46.78,46.78,0,0,0,2.27-8.592c.049-.247.1-.488.15-.735a8.3,8.3,0,0,0,1.39.125,8.612,8.612,0,0,0,8.6-8.6V25.747A25.779,25.779,0,0,0,66.329,0H48.638a25.779,25.779,0,0,0-25.75,25.75V45.473a8.613,8.613,0,0,0,8.6,8.6,8.474,8.474,0,0,0,1.632-.164c.052.259.106.512.158.772a46.942,46.942,0,0,0,2.272,8.6,23.769,23.769,0,0,0,7.106,9.56l-.96,7.505a6.715,6.715,0,0,1-2.523,3.876c-2.834,1.693-6.842,1.045-10.093,1.53A56.684,56.684,0,0,0,17.9,87.282,24.366,24.366,0,0,0,0,110.728v15.516a1.75,1.75,0,0,0,1.75,1.75s18.535,0,18.561,0H98.088c.039,0,.077,0,.116,0a29.8,29.8,0,1,0,0-59.592ZM83.476,50.576a4.816,4.816,0,0,1-.665-.066L84,45.081a24.182,24.182,0,0,0,.531-4.6,5.1,5.1,0,0,1-1.055,10.094ZM48.638,3.5H66.329a22.275,22.275,0,0,1,22.25,22.25V38.562a8.537,8.537,0,0,0-4.036-1.619V28.625a1.749,1.749,0,0,0-1.75-1.75h-8.61a10.2,10.2,0,0,1-9.151-5.632L63.3,17.806a1.75,1.75,0,0,0-3.27.4l-.8,3.567a10.193,10.193,0,0,1-10,8h-16.8a1.751,1.751,0,0,0-1.75,1.75V36.91a8.543,8.543,0,0,0-4.287,1.653V25.747A22.275,22.275,0,0,1,48.638,3.5ZM26.388,45.473a5.1,5.1,0,0,1,4.3-5.023,24.248,24.248,0,0,0,.532,4.638L32.4,50.479a4.947,4.947,0,0,1-.909.1A5.109,5.109,0,0,1,26.388,45.473ZM38.8,61.964c-1.933-5.226-2.762-12.142-4.156-17.619a20.609,20.609,0,0,1-.465-4.335V33.281h15.05a13.665,13.665,0,0,0,13.126-9.649,13.673,13.673,0,0,0,11.832,6.743h6.86v9.633a20.645,20.645,0,0,1-.463,4.331c-1.4,5.49-2.222,12.384-4.156,17.622a20.323,20.323,0,0,1-37.628,0Zm6.328,19.114c.015-.061.026-.125.035-.188l.747-5.844a23.945,23.945,0,0,0,23.407,0l.747,5.844a8.451,8.451,0,0,0,.908,2.839,5.578,5.578,0,0,0,.6,1.144,29.633,29.633,0,0,0-1.835,4.539,11.082,11.082,0,0,1-6.5,2.09H51.984a11.283,11.283,0,0,1-9.6-5.411A10.663,10.663,0,0,0,45.124,81.078Zm-9.513,7.668A10.139,10.139,0,0,0,39.455,88a14.787,14.787,0,0,0,12.529,7h11.25a14.61,14.61,0,0,0,5.484-1.067,29.864,29.864,0,0,0-.31,4.266c0,.189.01.376.014.564a18.965,18.965,0,0,1-5.188.737H51.984A19.288,19.288,0,0,1,34.778,88.826ZM21.983,124.494V113.75a1.75,1.75,0,0,0-3.5,0v10.744H3.5V110.728a20.856,20.856,0,0,1,15.319-20.07A52.184,52.184,0,0,1,29.3,89.245c.591-.035,1.181-.081,1.772-.123A22.789,22.789,0,0,0,51.984,103h11.25a22.518,22.518,0,0,0,5.465-.685,29.858,29.858,0,0,0,15.506,22.177Zm77.971-23.915h5.06V123.6a26.157,26.157,0,0,1-5.06.834Zm5.06-3.5H91.394V94.125l6.81-9.547,6.81,9.547Zm-13.62,3.5h5.06v23.853a26.131,26.131,0,0,1-5.06-.834Zm17.12,21.81V93.565a1.749,1.749,0,0,0-.326-1.017l-8.559-12a1.752,1.752,0,0,0-2.85,0l-8.56,12a1.756,1.756,0,0,0-.325,1.017v28.824a26.3,26.3,0,1,1,20.62,0Z"/></g></svg>
