<svg height="512" viewBox="0 0 128 128" width="512" xmlns="http://www.w3.org/2000/svg"><g><path d="m43.657 71.372h-2.557v-2.561a4.963 4.963 0 0 0 -9.926 0v2.561h-2.56a4.963 4.963 0 1 0 0 9.925h2.56v2.56a4.963 4.963 0 0 0 9.926 0v-2.557h2.56a4.963 4.963 0 1 0 0-9.925zm0 6.425h-4.31a1.75 1.75 0 0 0 -1.75 1.75v4.31a1.463 1.463 0 1 1 -2.926 0v-4.31a1.75 1.75 0 0 0 -1.75-1.75h-4.31a1.463 1.463 0 1 1 0-2.925h4.31a1.75 1.75 0 0 0 1.75-1.75v-4.311a1.463 1.463 0 0 1 2.926 0v4.311a1.75 1.75 0 0 0 1.75 1.75h4.31a1.463 1.463 0 1 1 0 2.925z"/><path d="m99.389 71.372h-2.56v-2.561a4.963 4.963 0 0 0 -9.926 0v2.561h-2.56a4.963 4.963 0 1 0 0 9.925h2.557v2.56a4.963 4.963 0 0 0 9.926 0v-2.557h2.56a4.963 4.963 0 1 0 0-9.925zm0 6.425h-4.31a1.75 1.75 0 0 0 -1.75 1.75v4.31a1.463 1.463 0 0 1 -2.926 0v-4.31a1.75 1.75 0 0 0 -1.75-1.75h-4.31a1.463 1.463 0 1 1 0-2.925h4.31a1.75 1.75 0 0 0 1.75-1.75v-4.311a1.463 1.463 0 0 1 2.926 0v4.311a1.75 1.75 0 0 0 1.75 1.75h4.31a1.463 1.463 0 1 1 0 2.925z"/><path d="m69.367 71.372h-10.734a4.963 4.963 0 1 0 0 9.925h10.734a4.963 4.963 0 1 0 0-9.925zm0 6.425h-10.734a1.463 1.463 0 1 1 0-2.925h10.734a1.463 1.463 0 1 1 0 2.925z"/><path d="m109.754 63.436a17.692 17.692 0 0 0 -16.138-15.082v-42.604a5.757 5.757 0 0 0 -5.75-5.75h-47.732a5.757 5.757 0 0 0 -5.75 5.75v42.6a17.682 17.682 0 0 0 -16.136 15.07c-.244 1.471-6 36.109-6 44.519a19.886 19.886 0 0 0 18.452 20.024q.615.037 1.222.038a19.576 19.576 0 0 0 19.4-16.623l1.126-7.214a8.821 8.821 0 0 0 8.238-7.041h6.632a8.821 8.821 0 0 0 8.238 7.041l1.061 6.807a19.944 19.944 0 0 0 18.668 17.012 19.652 19.652 0 0 0 20.467-19.636v-.4c-.002-8.391-5.724-42.863-5.998-44.511zm-71.87-57.686a2.253 2.253 0 0 1 2.25-2.25h47.732a2.253 2.253 0 0 1 2.25 2.25v42.538h-52.232zm8.422 46.038h35.388v.45a6.256 6.256 0 0 1 -6.25 6.25h-22.888a6.256 6.256 0 0 1 -6.25-6.25zm5.741 48.9a5.313 5.313 0 1 1 5.312-5.312 5.316 5.316 0 0 1 -5.312 5.309zm18.594-5.312a5.312 5.312 0 1 1 6.131 5.24 5.318 5.318 0 0 1 -6.131-5.243zm41.609 12.974a16.153 16.153 0 0 1 -16.826 16.139 16.435 16.435 0 0 1 -15.35-14.055l-1.06-6.8a8.812 8.812 0 1 0 -11.7-10.011h-6.63a8.812 8.812 0 1 0 -11.7 10.011l-1.125 7.2a16.117 16.117 0 0 1 -16.952 13.636 16.383 16.383 0 0 1 -15.157-16.527c0-8.123 5.892-43.587 5.955-43.971a14.228 14.228 0 0 1 14.154-12.184h6.947v.45a9.761 9.761 0 0 0 9.75 9.75h22.888a9.761 9.761 0 0 0 9.75-9.75v-.45h6.947a14.228 14.228 0 0 1 14.159 12.184v.027c.059.357 5.951 35.821 5.951 43.944z"/><path d="m55.9 35.533a1.75 1.75 0 0 0 2.475-2.475l-7.165-7.164 7.29-7.294a1.75 1.75 0 0 0 -2.475-2.474l-8.525 8.531a1.748 1.748 0 0 0 0 2.474z"/><path d="m76.79 25.894-7.164 7.164a1.75 1.75 0 0 0 2.474 2.475l8.4-8.4a1.748 1.748 0 0 0 0-2.474l-8.529-8.529a1.75 1.75 0 0 0 -2.471 2.47z"/><path d="m61.774 43.016a1.965 1.965 0 0 0 .226.014 1.749 1.749 0 0 0 1.733-1.524l4-30.773a1.75 1.75 0 0 0 -3.47-.451l-4 30.773a1.75 1.75 0 0 0 1.511 1.961z"/></g></svg>