<svg height="512" viewBox="0 0 128 128" width="512" xmlns="http://www.w3.org/2000/svg"><g><path d="m64 0a64 64 0 1 0 64 64 64.072 64.072 0 0 0 -64-64zm0 124.5a60.5 60.5 0 1 1 60.5-60.5 60.568 60.568 0 0 1 -60.5 60.5z"/><path d="m64 8a56 56 0 1 0 56 56 56.064 56.064 0 0 0 -56-56zm0 108.5a52.5 52.5 0 1 1 52.5-52.5 52.559 52.559 0 0 1 -52.5 52.5z"/><path d="m103.088 50.767a1.761 1.761 0 0 0 -.263-1.509l-11.842-16.2a1.816 1.816 0 0 0 -1.413-.717h-51.14a1.811 1.811 0 0 0 -1.413.717l-11.842 16.2a1.784 1.784 0 0 0 0 2.059l37.408 51.623a1.775 1.775 0 0 0 2.834 0l37.412-51.623a1.888 1.888 0 0 0 .259-.55zm-64.675-13.685 8.187 11.459h-16.565zm15.413 11.459 10.174-11.771 10.174 11.771zm21.886 3.5-11.712 43.186-11.712-43.186zm-7.886-16.2h18.344l-8.3 11.619zm-17.695 11.622-8.3-11.619h18.343zm-1.47 4.578 11.149 41.109-29.793-41.109zm30.678 0h18.643l-29.792 41.109zm2.062-3.5 8.186-11.459 8.378 11.459z"/></g></svg>