<svg height="512" viewBox="0 0 128 128" width="512" xmlns="http://www.w3.org/2000/svg"><g><path d="m57.888 0h-52.138a5.757 5.757 0 0 0 -5.75 5.749v52.139a5.757 5.757 0 0 0 5.75 5.75h52.138a5.756 5.756 0 0 0 5.75-5.75v-52.139a5.756 5.756 0 0 0 -5.75-5.749zm2.25 57.889a2.253 2.253 0 0 1 -2.25 2.25h-52.138a2.253 2.253 0 0 1 -2.25-2.25v-52.14a2.253 2.253 0 0 1 2.25-2.249h52.138a2.253 2.253 0 0 1 2.25 2.25z"/><path d="m122.25 64.362h-52.139a5.756 5.756 0 0 0 -5.75 5.75v52.139a5.756 5.756 0 0 0 5.75 5.75h52.139a5.756 5.756 0 0 0 5.75-5.75v-52.139a5.756 5.756 0 0 0 -5.75-5.75zm2.25 57.889a2.253 2.253 0 0 1 -2.25 2.25h-52.139a2.253 2.253 0 0 1 -2.25-2.25v-52.139a2.253 2.253 0 0 1 2.25-2.25h52.139a2.253 2.253 0 0 1 2.25 2.25z"/><path d="m84.181 89.6a6.586 6.586 0 1 0 6.586 6.586 6.593 6.593 0 0 0 -6.586-6.586zm0 9.672a3.086 3.086 0 1 1 3.086-3.086 3.09 3.09 0 0 1 -3.086 3.082z"/><path d="m108.181 89.6a6.586 6.586 0 1 0 6.586 6.586 6.593 6.593 0 0 0 -6.586-6.586zm0 9.672a3.086 3.086 0 1 1 3.086-3.086 3.09 3.09 0 0 1 -3.086 3.082z"/><path d="m31.819 25.232a6.586 6.586 0 1 0 6.586 6.586 6.593 6.593 0 0 0 -6.586-6.586zm0 9.672a3.086 3.086 0 1 1 3.086-3.086 3.09 3.09 0 0 1 -3.086 3.082z"/><path d="m16.409 9.822a6.586 6.586 0 1 0 6.591 6.586 6.594 6.594 0 0 0 -6.591-6.586zm0 9.672a3.086 3.086 0 1 1 3.091-3.086 3.09 3.09 0 0 1 -3.091 3.086z"/><path d="m47.229 40.643a6.586 6.586 0 1 0 6.586 6.585 6.593 6.593 0 0 0 -6.586-6.585zm0 9.672a3.086 3.086 0 1 1 3.086-3.087 3.09 3.09 0 0 1 -3.086 3.087z"/><path d="m72.58 33.568h.279a21.6 21.6 0 0 1 21.17 17.474 1.746 1.746 0 0 0 -2.395 2.539l3.306 3.308a1.752 1.752 0 0 0 2.475 0l3.652-3.653a1.749 1.749 0 1 0 -2.474-2.474l-.908.908a25.107 25.107 0 0 0 -24.826-21.6h-.279a1.75 1.75 0 0 0 0 3.5z"/><path d="m55.42 94.43h-.279a21.6 21.6 0 0 1 -21.17-17.475 1.746 1.746 0 0 0 2.4-2.539l-3.311-3.307a1.8 1.8 0 0 0 -2.475 0l-3.651 3.653a1.749 1.749 0 1 0 2.474 2.474l.907-.907a25.107 25.107 0 0 0 24.826 21.6h.279a1.75 1.75 0 1 0 0-3.5z"/></g></svg>