<svg height="512" viewBox="0 0 128 128" width="512" xmlns="http://www.w3.org/2000/svg"><g><path d="m56.037 24.572a6.64 6.64 0 0 0 4.7-11.336 6.641 6.641 0 1 0 -4.7 11.337zm-2.22-8.862a3.142 3.142 0 0 1 4.441 0 3.14 3.14 0 0 1 0 4.441 3.216 3.216 0 0 1 -4.442 0 3.14 3.14 0 0 1 0-4.442z"/><path d="m76.658 29.161a6.639 6.639 0 1 0 1.946 4.7 6.6 6.6 0 0 0 -1.946-4.695zm-2.475 6.917a3.214 3.214 0 0 1 -4.441 0 3.14 3.14 0 1 1 4.441-4.441 3.14 3.14 0 0 1 0 4.442z"/><path d="m51.482 38.412a1.752 1.752 0 0 0 2.475 0l22.561-22.561a1.75 1.75 0 0 0 -2.475-2.474l-22.561 22.56a1.751 1.751 0 0 0 0 2.475z"/><path d="m43.657 71.372h-2.557v-2.561a4.963 4.963 0 0 0 -9.926 0v2.561h-2.56a4.963 4.963 0 1 0 0 9.925h2.56v2.56a4.963 4.963 0 0 0 9.926 0v-2.557h2.56a4.963 4.963 0 1 0 0-9.925zm0 6.425h-4.31a1.751 1.751 0 0 0 -1.75 1.75v4.31a1.463 1.463 0 1 1 -2.926 0v-4.31a1.75 1.75 0 0 0 -1.75-1.75h-4.31a1.463 1.463 0 1 1 0-2.925h4.31a1.75 1.75 0 0 0 1.75-1.75v-4.311a1.463 1.463 0 0 1 2.926 0v4.311a1.751 1.751 0 0 0 1.75 1.75h4.31a1.463 1.463 0 1 1 0 2.925z"/><path d="m99.389 71.372h-2.56v-2.561a4.963 4.963 0 0 0 -9.926 0v2.561h-2.56a4.963 4.963 0 1 0 0 9.925h2.557v2.56a4.963 4.963 0 0 0 9.926 0v-2.557h2.56a4.963 4.963 0 1 0 0-9.925zm0 6.425h-4.31a1.75 1.75 0 0 0 -1.75 1.75v4.31a1.463 1.463 0 0 1 -2.926 0v-4.31a1.751 1.751 0 0 0 -1.75-1.75h-4.31a1.463 1.463 0 1 1 0-2.925h4.31a1.751 1.751 0 0 0 1.75-1.75v-4.311a1.463 1.463 0 0 1 2.926 0v4.311a1.75 1.75 0 0 0 1.75 1.75h4.31a1.463 1.463 0 1 1 0 2.925z"/><path d="m69.367 71.372h-10.734a4.963 4.963 0 1 0 0 9.925h10.734a4.963 4.963 0 1 0 0-9.925zm0 6.425h-10.734a1.463 1.463 0 1 1 0-2.925h10.734a1.463 1.463 0 1 1 0 2.925z"/><path d="m109.754 63.437a17.692 17.692 0 0 0 -16.138-15.083v-42.604a5.757 5.757 0 0 0 -5.75-5.75h-47.732a5.757 5.757 0 0 0 -5.75 5.75v42.6a17.681 17.681 0 0 0 -16.136 15.07c-.245 1.471-6 36.109-6 44.519a19.886 19.886 0 0 0 18.452 20.024q.615.037 1.222.038a19.576 19.576 0 0 0 19.4-16.623l1.126-7.214a8.821 8.821 0 0 0 8.238-7.041h6.584a8.687 8.687 0 0 0 8.286 7.042l1.062 6.806a19.941 19.941 0 0 0 18.667 17.012 19.652 19.652 0 0 0 20.467-19.636v-.4c-.002-8.39-5.723-42.859-5.998-44.51zm-71.87-57.687a2.253 2.253 0 0 1 2.25-2.25h47.732a2.253 2.253 0 0 1 2.25 2.25v42.538h-52.232zm8.422 46.038h35.388v.45a6.256 6.256 0 0 1 -6.25 6.25h-22.888a6.256 6.256 0 0 1 -6.25-6.25zm5.741 48.9a5.313 5.313 0 1 1 5.312-5.312 5.316 5.316 0 0 1 -5.312 5.309zm18.594-4.938a5.318 5.318 0 1 1 10.624-.377 5.277 5.277 0 0 1 -4.492 5.24c-3.113.534-6.173-1.87-6.132-4.863zm41.609 12.6a16.153 16.153 0 0 1 -16.826 16.139 16.434 16.434 0 0 1 -15.35-14.055l-1.061-6.8a8.812 8.812 0 1 0 -11.7-10.011h-6.63a8.812 8.812 0 1 0 -11.7 10.011l-1.125 7.2a16.11 16.11 0 0 1 -16.951 13.636 16.383 16.383 0 0 1 -15.157-16.527c0-8.123 5.891-43.587 5.955-43.971a14.227 14.227 0 0 1 14.154-12.184h6.947v.45a9.761 9.761 0 0 0 9.75 9.75h22.888a9.761 9.761 0 0 0 9.75-9.75v-.45h6.947a14.227 14.227 0 0 1 14.159 12.184v.027c.059.357 5.95 35.821 5.95 43.944z"/></g></svg>