<svg height="512" viewBox="0 0 128 128" width="512" xmlns="http://www.w3.org/2000/svg"><path d="m121.765 57.778a6.242 6.242 0 0 0 -5.98 4.485h-12.654a39.005 39.005 0 0 0 -10.231-24.67l8.96-8.961a6.235 6.235 0 0 0 7.4-1.06 6.235 6.235 0 1 0 -9.875-1.417l-8.963 8.963a39.013 39.013 0 0 0 -24.658-10.233v-12.67a6.236 6.236 0 1 0 -3.5 0v12.67a39.009 39.009 0 0 0 -24.664 10.227l-8.976-8.976a6.232 6.232 0 1 0 -2.474 2.475l8.975 8.975a39.012 39.012 0 0 0 -10.225 24.651h-12.685a6.235 6.235 0 1 0 0 3.5h12.679a39.018 39.018 0 0 0 10.215 24.663l-8.973 8.973a6.234 6.234 0 1 0 2.475 2.474l8.972-8.972a39.009 39.009 0 0 0 24.654 10.245v12.665a6.236 6.236 0 1 0 3.5 0v-12.664a39.008 39.008 0 0 0 24.673-10.221l8.96 8.961a6.244 6.244 0 0 0 1.058 7.4 6.235 6.235 0 1 0 1.414-9.878l-8.956-8.958a39.007 39.007 0 0 0 10.244-24.662h12.655a6.233 6.233 0 1 0 5.98-7.985zm-39.913 4.475a80.158 80.158 0 0 0 -1.745-15.5 39.05 39.05 0 0 0 10.26-6.753 35.523 35.523 0 0 1 9.263 22.25zm-17.891 37.409c-4.514-.046-9.225-6.151-11.957-16.3a35.968 35.968 0 0 1 24.018 0c-2.739 10.17-7.466 16.282-11.99 16.3-.015 0-.03 0-.045 0s-.017 0-.026 0zm.052-21.862a39.2 39.2 0 0 0 -12.82 2.145 77.606 77.606 0 0 1 -1.52-14.192h28.68a77.6 77.6 0 0 1 -1.521 14.192 39.2 39.2 0 0 0 -12.819-2.145zm-14.34-15.547a77.459 77.459 0 0 1 1.522-14.2 39.38 39.38 0 0 0 25.636 0 77.656 77.656 0 0 1 1.522 14.2zm29.577-18.953c-1.644-5.892-3.982-10.706-6.783-13.939a35.606 35.606 0 0 1 15.415 8.171 35.556 35.556 0 0 1 -8.632 5.768zm-3.23 1.336a35.973 35.973 0 0 1 -24.014 0c2.742-10.182 7.478-16.3 12.007-16.3s9.265 6.119 12.007 16.301zm-27.244-1.336a35.561 35.561 0 0 1 -8.633-5.768 35.606 35.606 0 0 1 15.415-8.171c-2.801 3.239-5.138 8.048-6.782 13.939zm-.857 3.45a80.233 80.233 0 0 0 -1.746 15.5h-17.773a35.521 35.521 0 0 1 9.259-22.25 39.017 39.017 0 0 0 10.26 6.751zm-1.746 19a80.181 80.181 0 0 0 1.745 15.5 39.044 39.044 0 0 0 -10.263 6.75 35.525 35.525 0 0 1 -9.255-22.247zm2.6 18.946c1.644 5.894 3.982 10.71 6.784 13.945a35.611 35.611 0 0 1 -15.417-8.171 35.579 35.579 0 0 1 8.634-5.77zm30.477 0a35.58 35.58 0 0 1 8.635 5.77 35.609 35.609 0 0 1 -15.419 8.174c2.803-3.23 5.141-8.046 6.785-13.94zm.857-3.451a80.184 80.184 0 0 0 1.744-15.5h17.779a35.525 35.525 0 0 1 -9.26 22.255 39.039 39.039 0 0 0 -10.262-6.751zm22.814-60.015a2.735 2.735 0 1 1 3.868 3.867 2.8 2.8 0 0 1 -3.868 0 2.738 2.738 0 0 1 0-3.867zm-41.643-14.995a2.735 2.735 0 1 1 2.735 2.735 2.738 2.738 0 0 1 -2.735-2.735zm-40.049 18.844a2.735 2.735 0 1 1 3.868 0 2.74 2.74 0 0 1 -3.868 0zm-14.994 41.643a2.735 2.735 0 1 1 2.735-2.735 2.738 2.738 0 0 1 -2.735 2.735zm18.844 40.049a2.734 2.734 0 1 1 0-3.868 2.74 2.74 0 0 1 0 3.868zm41.643 14.994a2.735 2.735 0 1 1 -2.735-2.735 2.738 2.738 0 0 1 2.735 2.735zm40.048-18.843a2.735 2.735 0 0 1 0 3.868 2.8 2.8 0 0 1 -3.868 0 2.741 2.741 0 0 1 0-3.868 2.8 2.8 0 0 1 3.868 0zm15-36.174a2.735 2.735 0 1 1 2.735-2.735 2.738 2.738 0 0 1 -2.74 2.735z"/></svg>