<svg height="512" viewBox="0 0 128 128" width="512" xmlns="http://www.w3.org/2000/svg"><g><path d="m64 0a64 64 0 1 0 64 64 64.072 64.072 0 0 0 -64-64zm0 124.5a60.5 60.5 0 1 1 60.5-60.5 60.57 60.57 0 0 1 -60.5 60.5z"/><path d="m64 8a56 56 0 1 0 56 56 56.063 56.063 0 0 0 -56-56zm0 108.5a52.5 52.5 0 1 1 52.5-52.5 52.56 52.56 0 0 1 -52.5 52.5z"/><path d="m96.471 29.632-8.777.779a1.751 1.751 0 0 0 -1.083.506l-27.411 27.41-.457-.162a1.753 1.753 0 0 0 -1.822.412l-1.755 1.755c-2.546-4.55-2.214-7.48-2.216-7.48a1.749 1.749 0 0 0 -1.394-2.038l-5.268-1.046a1.751 1.751 0 0 0 -2.07 1.357c-.186.9-1.345 7.956 5.663 17.387l-11.22 11.221-.385-.384a5.316 5.316 0 0 0 -7.518 7.518l10.375 10.375a5.316 5.316 0 0 0 7.518-7.518l-.384-.385 11.222-11.222c6.741 5.008 12.272 5.85 15.2 5.85a11.1 11.1 0 0 0 2.182-.186 1.75 1.75 0 0 0 1.361-2.054l-1.052-5.3a1.77 1.77 0 0 0 -1.974-1.39c-.037 0-2.979.347-7.542-2.206l1.755-1.755a1.75 1.75 0 0 0 .412-1.822l-.162-.457 27.41-27.41a1.751 1.751 0 0 0 .506-1.083l.779-8.777a1.751 1.751 0 0 0 -1.9-1.9zm-50.294 65.136a1.818 1.818 0 0 1 -2.57 0l-10.375-10.375a1.817 1.817 0 0 1 2.57-2.57c2.2 2.206 8.169 8.17 10.375 10.375a1.82 1.82 0 0 1 0 2.57zm-.385-7.9-4.657-4.657 2.086-2.086 4.657 4.657zm4.56-4.56-4.652-4.66 1.957-1.957 4.656 4.657zm4.431-4.432-4.656-4.656 1.973-1.972c.686.787 1.463 1.6 2.251 2.4.78.781 1.589 1.519 2.406 2.249zm19.248.651.38 1.914c-2.585-.088-7.812-1.034-14.191-6.2a44.206 44.206 0 0 1 -6.458-6.459c-5.154-6.363-6.108-11.581-6.2-14.173l1.915.376a20.935 20.935 0 0 0 3.913 10.126 1.749 1.749 0 0 0 2.688.259l2.537-2.537.457.162 5.118 1.815 1.815 5.118.162.457-2.537 2.537a1.749 1.749 0 0 0 .259 2.688 20.928 20.928 0 0 0 10.142 3.914zm20.128-39.164-25.782 25.781-.8-2.249 24.2-24.2a1.749 1.749 0 1 0 -2.477-2.47l-24.2 24.2-2.249-.8 25.786-25.784 6.063-.541z"/></g></svg>