<svg height="512" viewBox="0 0 128 128" width="512" xmlns="http://www.w3.org/2000/svg"><g><path d="m64 26.03a37.97 37.97 0 1 0 37.97 37.97 38.013 38.013 0 0 0 -37.97-37.97zm31.152 52.71-14.761 2.207-5.913-5.771 4.656-14.329 7.666-3.227 11.546 9.18a34.2 34.2 0 0 1 -3.194 11.94zm-47.532 2.207-14.765-2.193a34.183 34.183 0 0 1 -3.2-11.952l11.55-9.182 7.661 3.227 4.657 14.331zm-11.027-37.82 2.407 11.773-9.429 7.5a34.28 34.28 0 0 1 7.022-19.273zm20.2 30.793-4.452-13.707 11.659-8.471 11.659 8.471-4.453 13.707zm32.207-19.02 2.405-11.774a34.281 34.281 0 0 1 7.024 19.274zm-.486-15.1-2.973 14.551-7.594 3.2-12.2-8.862v-8.261l12.629-7.743a34.612 34.612 0 0 1 10.138 7.115zm-14.239-8.7-10.275 6.3-10.275-6.3a34.513 34.513 0 0 1 20.55 0zm-24.654 1.59 12.629 7.738v8.259l-12.2 8.862-7.594-3.2-2.97-14.549a34.6 34.6 0 0 1 10.135-7.115zm-14.61 49.924 11.889 1.765 3.813 11.421a34.672 34.672 0 0 1 -15.702-13.186zm19.871 14.623-4.655-13.943 6.009-5.874h15.529l6.018 5.871-4.647 13.94a34.316 34.316 0 0 1 -18.254.006zm22.418-1.437 3.8-11.418 11.9-1.782a34.669 34.669 0 0 1 -15.7 13.2z"/><path d="m64 0a64 64 0 1 0 64 64 64.072 64.072 0 0 0 -64-64zm0 124.5a60.5 60.5 0 1 1 60.5-60.5 60.57 60.57 0 0 1 -60.5 60.5z"/><path d="m64 8a56 56 0 1 0 56 56 56.063 56.063 0 0 0 -56-56zm0 108.5a52.5 52.5 0 1 1 52.5-52.5 52.56 52.56 0 0 1 -52.5 52.5z"/></g></svg>