<svg height="512" viewBox="0 0 128 128" width="512" xmlns="http://www.w3.org/2000/svg"><g><path d="m43.657 71.371h-2.557v-2.56a4.963 4.963 0 0 0 -9.926 0v2.56h-2.56a4.963 4.963 0 0 0 0 9.926h2.56v2.56a4.963 4.963 0 0 0 9.926 0v-2.557h2.56a4.963 4.963 0 0 0 0-9.926zm0 6.426h-4.31a1.749 1.749 0 0 0 -1.75 1.75v4.31a1.463 1.463 0 1 1 -2.926 0v-4.31a1.749 1.749 0 0 0 -1.75-1.75h-4.31a1.463 1.463 0 0 1 0-2.926h4.31a1.749 1.749 0 0 0 1.75-1.75v-4.31a1.463 1.463 0 0 1 2.926 0v4.31a1.749 1.749 0 0 0 1.75 1.75h4.31a1.463 1.463 0 0 1 0 2.926z"/><path d="m99.389 71.371h-2.56v-2.56a4.963 4.963 0 0 0 -9.926 0v2.56h-2.56a4.963 4.963 0 0 0 0 9.926h2.557v2.56a4.963 4.963 0 0 0 9.926 0v-2.557h2.56a4.963 4.963 0 0 0 0-9.926zm0 6.426h-4.31a1.749 1.749 0 0 0 -1.75 1.75v4.31a1.463 1.463 0 0 1 -2.926 0v-4.31a1.749 1.749 0 0 0 -1.75-1.75h-4.31a1.463 1.463 0 0 1 0-2.926h4.31a1.749 1.749 0 0 0 1.75-1.75v-4.31a1.463 1.463 0 0 1 2.926 0v4.31a1.749 1.749 0 0 0 1.75 1.75h4.31a1.463 1.463 0 0 1 0 2.926z"/><path d="m69.367 71.371h-10.734a4.963 4.963 0 1 0 0 9.926h10.734a4.963 4.963 0 0 0 0-9.926zm0 6.426h-10.734a1.463 1.463 0 0 1 0-2.926h10.734a1.463 1.463 0 0 1 0 2.926z"/><path d="m109.754 63.436a17.707 17.707 0 0 0 -17.613-15.148h-12.641l-.531-5.135a3.6 3.6 0 0 0 -3.54-3.053h-3.57l-.459-3.578h17.522a2.667 2.667 0 0 0 2.664-2.664v-31.197a2.667 2.667 0 0 0 -2.664-2.661h-49.844a2.667 2.667 0 0 0 -2.664 2.664v31.2a2.667 2.667 0 0 0 2.664 2.664h17.522l-.459 3.572h-3.57a3.615 3.615 0 0 0 -3.549 3.13l-.521 5.06h-12.642a17.7 17.7 0 0 0 -17.611 15.134c-.244 1.47-6 36.109-6 44.518a19.886 19.886 0 0 0 18.452 20.022 19.577 19.577 0 0 0 20.62-16.586l1.126-7.214a8.821 8.821 0 0 0 8.238-7.041h6.632a8.821 8.821 0 0 0 8.238 7.041l1.061 6.806a19.947 19.947 0 0 0 18.668 17.014q.413.017.822.017a19.654 19.654 0 0 0 19.645-19.653v-.406c0-8.385-5.721-42.85-5.996-44.506zm-69.84-59.936h48.172v20.706h-48.172zm0 29.525v-5.319h48.172v5.316zm28.416 7.075h-8.66l.462-3.576h7.736zm-15.83 3.563a.077.077 0 0 1 .076-.065h22.853c.038 0 .071.028.066-.01l.485 4.7h-23.961zm-6.189 8.125h35.383v.45a6.256 6.256 0 0 1 -6.25 6.25h-22.888a6.256 6.256 0 0 1 -6.25-6.25zm5.741 48.9a5.384 5.384 0 0 1 -.766-.059c-.018 0-.035-.011-.054-.014a5.258 5.258 0 1 1 .82.073zm24.672-.059a5.384 5.384 0 0 1 -.766.059 5.379 5.379 0 1 1 .819-.073c-.023 0-.04.008-.058.011zm35.531 7.722a16.153 16.153 0 0 1 -16.825 16.138 16.436 16.436 0 0 1 -15.351-14.055l-1.06-6.8a8.811 8.811 0 1 0 -11.7-10.01h-6.63a8.812 8.812 0 1 0 -11.7 10.01l-1.125 7.206a16.1 16.1 0 0 1 -16.957 13.63 16.383 16.383 0 0 1 -15.157-16.528c0-8.122 5.892-43.587 5.955-43.97a14.228 14.228 0 0 1 14.154-12.184h6.947v.45a9.761 9.761 0 0 0 9.75 9.75h22.888a9.761 9.761 0 0 0 9.75-9.75v-.45h6.947a14.228 14.228 0 0 1 14.159 12.184v.026c.059.357 5.951 35.821 5.951 43.944z"/></g></svg>