<svg id="Layer_1" enable-background="new 0 0 128 128" height="512" viewBox="0 0 128 128" width="512" xmlns="http://www.w3.org/2000/svg"><g><path d="m67.2 38h11.4c1 0 1.7-.8 1.7-1.7v-5.7c0-1-.8-1.7-1.7-1.7h-11.4c-1 0-1.7.8-1.7 1.7v5.7c0 .9.8 1.7 1.7 1.7zm1.8-5.7h7.9v2.2h-7.9z"/><path d="m43.7 71.4h-2.6v-2.6c0-2.7-2.2-5-5-5-2.7 0-5 2.2-5 5v2.6h-2.6c-2.7 0-5 2.2-5 5s2.2 5 5 5h2.6v2.6c0 2.7 2.2 5 5 5 2.7 0 5-2.2 5-5v-2.6h2.6c2.7 0 5-2.2 5-5s-2.3-5-5-5zm0 6.4h-4.3c-1 0-1.7.8-1.7 1.7v4.3c0 .8-.7 1.5-1.5 1.5s-1.5-.7-1.5-1.5v-4.3c0-1-.8-1.7-1.7-1.7h-4.3c-.8 0-1.5-.7-1.5-1.5s.7-1.5 1.5-1.5h4.3c1 0 1.7-.8 1.7-1.7v-4.3c0-.8.7-1.5 1.5-1.5s1.5.7 1.5 1.5v4.3c0 1 .8 1.7 1.7 1.7h4.3c.8 0 1.5.7 1.5 1.5-.1.8-.7 1.5-1.5 1.5z"/><path d="m99.3 71.4h-2.6v-2.6c0-2.7-2.2-5-5-5-2.7 0-5 2.2-5 5v2.6h-2.6c-2.7 0-5 2.2-5 5s2.2 5 5 5h2.6v2.6c0 2.7 2.2 5 5 5 2.7 0 5-2.2 5-5v-2.6h2.6c2.7 0 5-2.2 5-5s-2.2-5-5-5zm0 6.4h-4.3c-1 0-1.7.8-1.7 1.7v4.3c0 .8-.7 1.5-1.5 1.5s-1.5-.7-1.5-1.5v-4.3c0-1-.8-1.7-1.7-1.7h-4.3c-.8 0-1.5-.7-1.5-1.5s.7-1.5 1.5-1.5h4.3c1 0 1.7-.8 1.7-1.7v-4.3c0-.8.7-1.5 1.5-1.5s1.5.7 1.5 1.5v4.3c0 1 .8 1.7 1.7 1.7h4.3c.8 0 1.5.7 1.5 1.5s-.6 1.5-1.5 1.5z"/><path d="m69.4 71.4h-10.8c-2.7 0-5 2.2-5 5s2.2 5 5 5h10.7c2.7 0 5-2.2 5-5s-2.2-5-4.9-5zm0 6.4h-10.8c-.8 0-1.5-.7-1.5-1.5s.7-1.5 1.5-1.5h10.7c.8 0 1.5.7 1.5 1.5s-.6 1.5-1.4 1.5z"/><path d="m109.7 63.4c-1.3-8.7-8.8-15.2-17.6-15.1h-1.3v-5.5c0-1-.8-1.7-1.7-1.7h-2.4v-15.3c2.4-.6 4.2-2.7 4.2-5.2v-3.6c0-.3-.1-.6-.2-.8l-8.1-15.2c-.3-.6-.9-.9-1.5-.9-34.8.3-34.7-.9-35.7.9l-8.1 15.2c-.1.3-.2.5-.2.8v3.6c0 2.5 1.7 4.7 4.2 5.2v15.3h-2.4c-1 0-1.7.8-1.7 1.7v5.5h-1.3c-8.8 0-16.3 6.4-17.6 15.1-.2 1.5-6 36.1-6 44.5-.1 10.5 8 19.2 18.4 20 10.1.6 19.1-6.5 20.6-16.6l1.1-7.2c4-.2 7.4-3.1 8.2-7h6.6c.8 4 4.2 6.8 8.2 7l1.1 6.8c1.5 9.9 10 17 19.5 17 10.8 0 19.6-8.8 19.6-19.6.1-.1.2-8-5.9-44.9zm-22.4-42.8c0 1-.8 1.9-1.9 1.9h-1.1c-1 0-1.9-.8-1.9-1.9v-1.8h4.9zm-8.3 0c0 1-.8 1.9-1.9 1.9h-1.1c-1 0-1.9-.8-1.9-1.9v-1.8h4.9zm-8.4 0c0 1-.8 1.9-1.9 1.9h-1.1c-1 0-1.9-.8-1.9-1.9v-1.8h4.9zm-8.3 0c0 1-.8 1.9-1.9 1.9h-1.1c-1 0-1.9-.8-1.9-1.9v-1.8h4.9zm-8.4 0c0 1-.8 1.9-1.9 1.9h-1.1c-1 0-1.9-.8-1.9-1.9v-1.8h4.9zm-5.9-17h32l6.2 11.7h-44.4zm-7.3 17v-1.8h4.9v1.8c0 1-.8 1.9-1.9 1.9h-1.1c-1.1-.1-1.9-.9-1.9-1.9zm4.1 5.2c.9-.2 1.8-.7 2.4-1.3 1 .9 2.3 1.4 3.6 1.4h1.2c1.3 0 2.6-.5 3.6-1.4 1 .9 2.3 1.4 3.6 1.4h1.1c1.3 0 2.6-.5 3.6-1.4 1 .9 2.3 1.4 3.6 1.4h1.1c1.3 0 2.6-.5 3.6-1.4 1 .9 2.3 1.4 3.6 1.4h1.1c1.3 0 2.6-.5 3.6-1.4.7.6 1.5 1.1 2.4 1.3v15.3h-19.9v-10.6c0-1-.8-1.7-1.7-1.7h-10.6c-1 0-1.7.8-1.7 1.7v10.5h-4.1zm14.7 15.3h-7v-8.8h7zm-18.8 3.5h46.7v3.7h-46.7zm5.6 7.2h35.3v.4c0 3.4-2.8 6.2-6.2 6.2h-22.8c-3.4 0-6.2-2.8-6.2-6.2zm5.8 48.8c-3.2 0-5.7-2.9-5.1-6.1.5-2.9 3.2-4.8 6.1-4.3s4.8 3.2 4.3 6.1c-.5 2.5-2.8 4.4-5.3 4.3zm18.5-5.3c0-2.9 2.4-5.3 5.3-5.3s5.3 2.4 5.3 5.3-2.4 5.3-5.3 5.3-5.3-2.3-5.3-5.3zm41.6 13c0 8.9-7.2 16.1-16.1 16.1-7.7 0-14.8-5.9-16-14.1l-1.1-6.8c4.6-1.7 6.9-6.8 5.2-11.3-1.7-4.6-6.8-6.9-11.3-5.2-2.9 1.1-5 3.5-5.6 6.5h-6.6c-1-4.8-5.6-7.8-10.4-6.9-4.8 1-7.8 5.6-6.9 10.4.6 3 2.7 5.4 5.6 6.5l-1.1 7.2c-1.3 8.2-8.6 14.2-16.9 13.6-8.6-.6-15.2-7.9-15.1-16.5 0-8.1 5.9-43.5 5.9-43.9 1-7 7-12.2 14.1-12.2h6.9v.4c0 5.4 4.4 9.7 9.7 9.7h22.9c5.4 0 9.7-4.4 9.7-9.7v-.4h6.9c7.1 0 13.1 5.2 14.1 12.2 6.9 40.9 6 43.9 6.1 44.4z"/></g></svg>