<svg height="512" viewBox="0 0 128 128" width="512" xmlns="http://www.w3.org/2000/svg"><g><path d="m64 0a64 64 0 1 0 64 64 64.072 64.072 0 0 0 -64-64zm0 124.5a60.5 60.5 0 1 1 60.5-60.5 60.569 60.569 0 0 1 -60.5 60.5z"/><path d="m64 8a56 56 0 1 0 56 56 56.063 56.063 0 0 0 -56-56zm0 108.5a52.5 52.5 0 1 1 52.5-52.5 52.56 52.56 0 0 1 -52.5 52.5z"/><path d="m79.5 31.05a23.484 23.484 0 0 0 -15.5 5.778 23.667 23.667 0 0 0 -39.162 17.887c0 25.329 36.716 47.087 38.279 48a1.751 1.751 0 0 0 1.763 0c1.563-.91 38.282-22.568 38.282-48a23.692 23.692 0 0 0 -23.662-23.665zm-15.5 68.107c-5.58-3.471-35.664-23.175-35.664-44.442a20.166 20.166 0 0 1 34.427-14.259 1.748 1.748 0 0 0 2.474 0 20.166 20.166 0 0 1 34.425 14.259c0 21.358-30.078 40.985-35.662 44.442z"/></g></svg>