<?xml version="1.0" encoding="UTF-8"?>
<svg xmlns="http://www.w3.org/2000/svg" width="512" height="512" viewBox="0 0 128 128"><g><path d="M117,111h-5.43v-3.562a8.759,8.759,0,0,0-8.75-8.75H100V95.625a5.756,5.756,0,0,0-5.75-5.75H83.875a5.756,5.756,0,0,0-5.75,5.75v3.063H70.75V50.4a25.656,25.656,0,1,0-13.5,0V98.688H25.18a8.758,8.758,0,0,0-8.75,8.75V111H11a1.749,1.749,0,0,0-1.75,1.75v13.5A1.749,1.749,0,0,0,11,128H117a1.749,1.749,0,0,0,1.75-1.75v-13.5A1.749,1.749,0,0,0,117,111ZM81.625,95.625a2.253,2.253,0,0,1,2.25-2.25H94.25a2.253,2.253,0,0,1,2.25,2.25v3.063H81.625ZM41.844,25.653A22.156,22.156,0,1,1,64,47.81,22.181,22.181,0,0,1,41.844,25.653ZM60.75,51.1a24.786,24.786,0,0,0,6.5,0V98.688h-6.5ZM19.93,107.438a5.256,5.256,0,0,1,5.25-5.25h77.64a5.256,5.256,0,0,1,5.25,5.25V111H19.93ZM115.25,124.5H12.75v-10h102.5Z"/><path d="M78.156,25.653a1.75,1.75,0,0,0,3.5,0A17.677,17.677,0,0,0,64,8a1.75,1.75,0,0,0,0,3.5A14.172,14.172,0,0,1,78.156,25.653Z"/></g></svg>
