<svg height="512" viewBox="0 0 128 128" width="512" xmlns="http://www.w3.org/2000/svg"><g><path d="m122.25 52.848h-37.313v-3.326a6.758 6.758 0 0 0 -6.75-6.75h-8.282v-5.063a3.128 3.128 0 0 1 3.124-3.125h28.471a14.625 14.625 0 1 0 0-29.249h-99.75a1.749 1.749 0 0 0 -1.75 1.75v8a1.749 1.749 0 0 0 1.75 1.75h99.75a3.125 3.125 0 1 1 0 6.249h-28.471a14.642 14.642 0 0 0 -14.624 14.625v5.063h-8.283a6.758 6.758 0 0 0 -6.75 6.75v3.326h-37.622a5.756 5.756 0 0 0 -5.75 5.752v54.317a5.756 5.756 0 0 0 5.75 5.75h116.5a5.756 5.756 0 0 0 5.75-5.75v-54.317a5.756 5.756 0 0 0 -5.75-5.752zm-60.345-15.139a11.137 11.137 0 0 1 11.124-11.125h28.471a6.625 6.625 0 1 0 0-13.249h-98v-4.5h98a11.125 11.125 0 1 1 0 22.249h-28.471a6.632 6.632 0 0 0 -6.624 6.625v5.063h-4.5zm-15.033 11.813a3.253 3.253 0 0 1 3.25-3.25h28.065a3.253 3.253 0 0 1 3.25 3.25v3.326h-34.565zm77.628 63.393a2.253 2.253 0 0 1 -2.25 2.25h-116.5a2.253 2.253 0 0 1 -2.25-2.25v-54.315a2.253 2.253 0 0 1 2.25-2.25h116.5a2.253 2.253 0 0 1 2.25 2.25z"/><path d="m100.323 96.571h-72.646a1.749 1.749 0 0 0 -1.75 1.75v8a1.749 1.749 0 0 0 1.75 1.75h72.646a1.749 1.749 0 0 0 1.75-1.75v-8a1.749 1.749 0 0 0 -1.75-1.75zm-1.75 8h-69.146v-4.5h69.146z"/><path d="m117.388 96.571h-9.914a1.749 1.749 0 0 0 -1.75 1.75v8a1.749 1.749 0 0 0 1.75 1.75h9.914a1.75 1.75 0 0 0 1.75-1.75v-8a1.75 1.75 0 0 0 -1.75-1.75zm-1.75 8h-6.414v-4.5h6.414z"/><path d="m117.388 80.007h-17.065a1.749 1.749 0 0 0 -1.75 1.75v8a1.749 1.749 0 0 0 1.75 1.75h17.065a1.75 1.75 0 0 0 1.75-1.75v-8a1.75 1.75 0 0 0 -1.75-1.75zm-1.75 8h-13.565v-4.5h13.565z"/><path d="m20.526 96.571h-9.914a1.749 1.749 0 0 0 -1.75 1.75v8a1.749 1.749 0 0 0 1.75 1.75h9.914a1.749 1.749 0 0 0 1.75-1.75v-8a1.749 1.749 0 0 0 -1.75-1.75zm-1.75 8h-6.414v-4.5h6.414z"/><path d="m33.67 80.007a1.749 1.749 0 0 0 -1.75 1.75v8a1.749 1.749 0 0 0 1.75 1.75h9.914a1.749 1.749 0 0 0 1.75-1.75v-8a1.749 1.749 0 0 0 -1.75-1.75zm8.164 8h-6.414v-4.5h6.414z"/><path d="m50.355 80.007a1.75 1.75 0 0 0 -1.75 1.75v8a1.75 1.75 0 0 0 1.75 1.75h9.914a1.749 1.749 0 0 0 1.75-1.75v-8a1.749 1.749 0 0 0 -1.75-1.75zm8.164 8h-6.414v-4.5h6.414z"/><path d="m68.041 80.007a1.749 1.749 0 0 0 -1.75 1.75v8a1.749 1.749 0 0 0 1.75 1.75h9.913a1.749 1.749 0 0 0 1.75-1.75v-8a1.749 1.749 0 0 0 -1.75-1.75zm8.163 8h-6.413v-4.5h6.409z"/><path d="m84.727 80.007a1.749 1.749 0 0 0 -1.75 1.75v8a1.749 1.749 0 0 0 1.75 1.75h9.913a1.75 1.75 0 0 0 1.75-1.75v-8a1.75 1.75 0 0 0 -1.75-1.75zm8.163 8h-6.413v-4.5h6.413z"/><path d="m26.515 74.942h9.914a1.75 1.75 0 0 0 1.75-1.75v-8a1.751 1.751 0 0 0 -1.75-1.75h-9.914a1.75 1.75 0 0 0 -1.75 1.75v8a1.749 1.749 0 0 0 1.75 1.75zm1.75-8h6.414v4.5h-6.414z"/><path d="m43.2 74.942h9.914a1.749 1.749 0 0 0 1.75-1.75v-8a1.75 1.75 0 0 0 -1.75-1.75h-9.914a1.75 1.75 0 0 0 -1.75 1.75v8a1.749 1.749 0 0 0 1.75 1.75zm1.75-8h6.414v4.5h-6.414z"/><path d="m74.886 74.942h9.914a1.749 1.749 0 0 0 1.75-1.75v-8a1.75 1.75 0 0 0 -1.75-1.75h-9.914a1.75 1.75 0 0 0 -1.75 1.75v8a1.749 1.749 0 0 0 1.75 1.75zm1.75-8h6.414v4.5h-6.414z"/><path d="m59.2 74.942h9.914a1.749 1.749 0 0 0 1.75-1.75v-8a1.75 1.75 0 0 0 -1.75-1.75h-9.914a1.75 1.75 0 0 0 -1.75 1.75v8a1.749 1.749 0 0 0 1.75 1.75zm1.75-8h6.414v4.5h-6.416z"/><path d="m91.571 74.942h9.914a1.749 1.749 0 0 0 1.75-1.75v-8a1.75 1.75 0 0 0 -1.75-1.75h-9.914a1.75 1.75 0 0 0 -1.75 1.75v8a1.749 1.749 0 0 0 1.75 1.75zm1.75-8h6.414v4.5h-6.414z"/><path d="m117.388 63.442h-9.914a1.75 1.75 0 0 0 -1.75 1.75v8a1.749 1.749 0 0 0 1.75 1.75h9.914a1.75 1.75 0 0 0 1.75-1.75v-8a1.751 1.751 0 0 0 -1.75-1.75zm-1.75 8h-6.414v-4.5h6.414z"/><path d="m10.656 74.942h9.914a1.749 1.749 0 0 0 1.75-1.75v-8a1.75 1.75 0 0 0 -1.75-1.75h-9.914a1.75 1.75 0 0 0 -1.75 1.75v8a1.749 1.749 0 0 0 1.75 1.75zm1.75-8h6.414v4.5h-6.414z"/><path d="m10.612 91.507h17.065a1.749 1.749 0 0 0 1.75-1.75v-8a1.749 1.749 0 0 0 -1.75-1.75h-17.065a1.749 1.749 0 0 0 -1.75 1.75v8a1.749 1.749 0 0 0 1.75 1.75zm1.75-8h13.565v4.5h-13.565z"/></g></svg>