<?xml version="1.0" encoding="UTF-8"?>
<svg xmlns="http://www.w3.org/2000/svg" width="512" height="512" viewBox="0 0 128 128"><g><path d="M64,31.075A14.621,14.621,0,1,0,78.621,45.7,14.637,14.637,0,0,0,64,31.075Zm0,25.741A11.121,11.121,0,1,1,75.121,45.7,11.133,11.133,0,0,1,64,56.816Z"/><path d="M64,65.251a8.172,8.172,0,1,0,8.172,8.172A8.181,8.181,0,0,0,64,65.251ZM64,78.1a4.672,4.672,0,1,1,4.672-4.672A4.677,4.677,0,0,1,64,78.1Z"/><path d="M110.745,59.8,90.469,50.264v-.925A54.66,54.66,0,0,0,76.052,12.3L65.289.566a1.8,1.8,0,0,0-2.578,0L51.947,12.3A54.664,54.664,0,0,0,37.531,49.339v.925L17.255,59.8a1.752,1.752,0,0,0-1,1.584V78.625A1.749,1.749,0,0,0,18,80.375H37.531v3.269A7.754,7.754,0,0,0,44.81,91.37l2.566,11.415a1.75,1.75,0,0,0,1.707,1.366h3.8l-.325.579a13.826,13.826,0,0,0,3.576,17.62l6.8,5.252a1.751,1.751,0,0,0,2.14,0l6.8-5.252a13.826,13.826,0,0,0,3.576-17.62l-.325-.579h3.471a1.75,1.75,0,0,0,1.707-1.366l2.562-11.4a7.756,7.756,0,0,0,7.612-7.743V80.375H110a1.749,1.749,0,0,0,1.75-1.75V61.383A1.752,1.752,0,0,0,110.745,59.8ZM19.75,76.875V62.494l17.781-8.362V76.875Zm48.335,28.188a5.065,5.065,0,0,1-1.311,6.457L64,113.663l-2.774-2.143a5.067,5.067,0,0,1-1.311-6.459l.512-.91h7.146Zm1.641,14.517L64,124.005l-5.726-4.425a10.307,10.307,0,0,1-2.666-13.135l.344-.611a8.592,8.592,0,0,0,3.133,8.455l3.845,2.971a1.751,1.751,0,0,0,2.14,0l3.845-2.971a8.591,8.591,0,0,0,3.132-8.456l.345.612A10.307,10.307,0,0,1,69.726,119.58Zm7.461-18.929h-26.7L48.4,91.394H79.269Zm9.782-17.007a4.255,4.255,0,0,1-4.25,4.25H45.281a4.255,4.255,0,0,1-4.25-4.25V49.339a51.175,51.175,0,0,1,13.5-34.677L64,4.338l9.473,10.324a51.171,51.171,0,0,1,13.5,34.677Zm21.281-6.769H90.469V54.132l17.781,8.362Z"/><path d="M95.719,73.375H103a1.749,1.749,0,0,0,1.75-1.75v-5.8a1.752,1.752,0,0,0-1-1.584l-7.281-3.424a1.751,1.751,0,0,0-2.5,1.584v9.223A1.749,1.749,0,0,0,95.719,73.375Zm1.75-8.216,3.781,1.779v2.937H97.469Z"/><path d="M33.219,60.925a1.748,1.748,0,0,0-1.683-.107l-7.281,3.424a1.752,1.752,0,0,0-1,1.584v5.8A1.749,1.749,0,0,0,25,73.375h7.281a1.749,1.749,0,0,0,1.75-1.75V62.4A1.75,1.75,0,0,0,33.219,60.925Zm-2.688,8.95H26.75V66.938l3.781-1.779Z"/></g></svg>
