<svg height="512" viewBox="0 0 128 128" width="512" xmlns="http://www.w3.org/2000/svg"><g><path d="m108.4 34.4a19.445 19.445 0 0 0 -12.616 4.6 19.588 19.588 0 0 0 -30.754 7.594h-56.28a8.76 8.76 0 0 0 -8.75 8.75v17.312a8.76 8.76 0 0 0 8.75 8.75h70.229a101.125 101.125 0 0 0 15.921 11.957 1.751 1.751 0 0 0 1.763 0c1.28-.743 31.337-18.471 31.337-39.369a19.619 19.619 0 0 0 -19.6-19.594zm-104.9 38.256v-17.312a5.256 5.256 0 0 1 5.25-5.25h55.21a19.66 19.66 0 0 0 -.392 3.9c0 8.884 5.481 17.216 11.858 23.912h-66.676a5.256 5.256 0 0 1 -5.25-5.25zm92.286 17.144c-4.92-3.08-28.718-18.861-28.718-35.807a16.1 16.1 0 0 1 27.479-11.381 1.748 1.748 0 0 0 2.474 0 15.989 15.989 0 0 1 11.379-4.712 16.115 16.115 0 0 1 16.1 16.1c0 17.013-23.792 32.733-28.714 35.8z"/><path d="m108.4 42.4a11.518 11.518 0 0 0 -8.2 3.4l-4.42 4.42-4.42-4.42a11.6 11.6 0 0 0 -19.8 8.2c0 12.72 17.779 26.016 23.228 29.789a1.749 1.749 0 0 0 1.99 0c5.453-3.763 23.222-17.017 23.222-29.795a11.61 11.61 0 0 0 -11.6-11.594zm-12.606 37.807c-10.2-7.255-20.726-17.733-20.726-26.213a8.1 8.1 0 0 1 13.822-5.725l5.657 5.657a1.75 1.75 0 0 0 2.474 0l5.658-5.657a8.1 8.1 0 0 1 13.821 5.725c0 8.521-10.514 18.986-20.706 26.213z"/><path d="m64.219 70.755a33.929 33.929 0 0 1 -5.054-14.555 1.75 1.75 0 0 0 -1.744-1.6h-47.671a1.75 1.75 0 0 0 -1.75 1.744v15.312a1.75 1.75 0 0 0 1.75 1.75h52.969a1.75 1.75 0 0 0 1.5-2.651zm-52.719-.849v-11.812h44.355a36.652 36.652 0 0 0 3.883 11.812z"/></g></svg>