<svg id="Layer_1" enable-background="new 0 0 128 128" height="512" viewBox="0 0 128 128" width="512" xmlns="http://www.w3.org/2000/svg"><g><path d="m45.8 77h-2.1v-2.1c0-2.6-2.1-4.6-4.6-4.6s-4.6 2.1-4.6 4.6v2.1h-2.1c-2.6 0-4.6 2.1-4.6 4.6 0 2.6 2.1 4.6 4.6 4.6h2.1v2.1c0 2.6 2.1 4.6 4.6 4.6s4.6-2.1 4.6-4.6v-2.1h2.1c2.6 0 4.6-2.1 4.6-4.6s-2-4.6-4.6-4.6zm0 5.7h-3.8c-1 0-1.7.8-1.7 1.7v3.9c0 .6-.5 1.1-1.1 1.1s-1.1-.5-1.1-1.1v-3.9c0-1-.8-1.7-1.7-1.7h-3.9c-.6 0-1.1-.5-1.1-1.1s.5-1.1 1.1-1.1h3.9c1 0 1.7-.8 1.7-1.7v-3.8c0-.6.5-1.1 1.1-1.1s1.1.5 1.1 1.1v3.9c0 1 .8 1.7 1.7 1.7h3.8c.6 0 1.1.5 1.1 1.1.1.5-.5 1-1.1 1z"/><path d="m95.6 77h-2.1v-2.1c0-2.6-2.1-4.6-4.6-4.6-2.6 0-4.6 2.1-4.6 4.6v2.1h-2.1c-2.6 0-4.6 2.1-4.6 4.6 0 2.6 2.1 4.6 4.6 4.6h2.1v2.1c0 2.6 2.1 4.6 4.6 4.6 2.6 0 4.6-2.1 4.6-4.6v-2.1h2.1c2.6 0 4.6-2.1 4.6-4.6s-2-4.6-4.6-4.6zm0 5.7h-3.9c-1 0-1.7.8-1.7 1.7v3.9c0 .6-.5 1.1-1.1 1.1s-1.1-.5-1.1-1.1v-3.9c0-1-.8-1.7-1.7-1.7h-3.8c-.6 0-1.1-.5-1.1-1.1s.5-1.1 1.1-1.1h3.7c1 0 1.7-.8 1.7-1.7v-3.8c0-.6.5-1.1 1.1-1.1s1.1.5 1.1 1.1v3.9c0 1 .8 1.7 1.7 1.7h3.9c.6 0 1.1.5 1.1 1.1.1.5-.4 1-1 1z"/><path d="m68.8 77h-9.6c-2.6 0-4.6 2.1-4.6 4.6 0 2.6 2.1 4.6 4.6 4.6h9.6c2.6 0 4.6-2.1 4.6-4.6s-2.1-4.6-4.6-4.6zm0 5.7h-9.6c-.6 0-1.1-.5-1.1-1.1s.5-1.1 1.1-1.1h9.6c.6 0 1.1.5 1.1 1.1s-.5 1.1-1.1 1.1z"/><path d="m128 10.4c0-5.7-4.6-10.4-10.4-10.4h-8.9c-1 0-1.7.8-1.7 1.7v5.3h-85.9v-5.2c0-1-.8-1.7-1.7-1.7h-8.9c-5.8 0-10.4 4.6-10.5 10.3v48.2c.1 5.7 4.7 10.4 10.4 10.4h12.7c-.1.4-.2.7-.2 1.1-.2 1.3-5.4 32.3-5.4 39.8-.1 10.1 8.1 18.1 17.7 18.1 8.7 0 16.2-6.4 17.5-15l1-6.3c3.6-.2 6.6-2.8 7.3-6.3h5.6c.8 3.5 3.8 6 7.3 6.3l.9 5.9c1.2 8.5 8.3 14.9 16.8 15.4 9.8.4 18.1-7.2 18.5-17 0-.2 0-.5 0-.7v-.4c0-7.5-5.1-38.5-5.4-39.8-.1-.4-.1-.7-.2-1.1h12.7c5.7 0 10.4-4.6 10.4-10.4v-48.2zm-17.6-6.9h7.2c3.8 0 6.9 3.1 6.9 6.9v40.4c-1.9-1.7-4.3-2.6-6.9-2.6h-7.2zm-106.9 6.9c0-3.8 3.1-6.9 6.9-6.9h7.2v44.7h-7.2c-2.5 0-5 .9-6.9 2.6zm49.8 92.8c-2.5 0-4.6-2-4.6-4.6 0-2.5 2-4.6 4.6-4.6 2.5 0 4.6 2 4.6 4.6 0 2.5-2.1 4.6-4.6 4.6zm16.8-4.6c0-2.5 2-4.6 4.6-4.6s4.6 2 4.6 4.6c0 2.5-2 4.6-4.6 4.6-2.5 0-4.6-2.1-4.6-4.6zm36.8 11.2v.4c0 7.9-6.4 14.2-14.2 14.2-6.8 0-13.1-5.2-14.1-12.4l-.9-5.9c4.1-1.6 6.2-6.3 4.6-10.4s-6.3-6.2-10.4-4.6c-2.5 1-4.3 3.1-4.9 5.8h-5.6c-1-4.3-5.3-7.1-9.6-6.1s-7.1 5.3-6.1 9.6c.6 2.6 2.4 4.8 4.9 5.8l-1 6.3c-1.1 7.3-7.6 12.5-14.9 12-7.6-.6-13.5-7-13.4-14.6 0-7.2 5.3-38.9 5.3-39.2 1-6.3 6.3-10.8 12.5-10.7h6v.2c0 4.9 4 8.9 8.9 8.9h20.4c4.9 0 8.9-4 8.9-8.9v-.2h6c6.2 0 11.5 4.5 12.5 10.8-.1.1 5.1 31.8 5.1 39zm-58.5-49.9h31.2v.2c0 3-2.4 5.4-5.4 5.4h-20.4c-3 0-5.4-2.4-5.4-5.4zm69.2 5.6h-13.9c-2.7-5.6-8.3-9.1-14.5-9.1h-50.3c-6.2 0-11.8 3.5-14.5 9.1h-14c-3.8 0-6.8-3.2-6.8-6.9s3.1-6.7 6.8-6.8h8.9c1 0 1.7-.8 1.7-1.7v-39.5h85.8v39.4c0 1 .8 1.7 1.7 1.7h8.9c3.8 0 6.8 3.2 6.8 6.9.1 3.8-2.9 6.8-6.6 6.9z"/><path d="m50.3 23.9-5.7-5.7c-.7-.7-1.8-.7-2.5 0l-4 4-4-4c-.7-.7-1.8-.7-2.5 0l-5.6 5.7c-.7.7-.7 1.8 0 2.5l4 4-4 4c-.7.7-.7 1.8 0 2.5l5.7 5.7c.7.7 1.8.7 2.5 0l4-4 4 4c.7.7 1.8.7 2.5 0l5.7-5.7c.7-.7.7-1.8 0-2.5l-4-4 4-4c.6-.7.6-1.8-.1-2.5zm-7.7 5.2c-.7.7-.7 1.8 0 2.5l4 4-3.2 3.2-4-4c-.7-.7-1.8-.7-2.5 0l-4 4-3.2-3.2 4-4c.7-.7.7-1.8 0-2.5l-4-4 3.2-3.2 4 4c.7.7 1.8.7 2.5 0l4-4 3.2 3.2z"/><path d="m92.4 20.5c-5.6 0-10.1 4.5-10.1 10.1s4.5 10.1 10.1 10.1 10.1-4.5 10.1-10.1c0-5.5-4.5-10.1-10.1-10.1zm0 16.8c-3.7 0-6.6-3-6.6-6.6s3-6.6 6.6-6.6c3.7 0 6.6 3 6.6 6.6 0 3.6-2.9 6.6-6.6 6.6z"/><path d="m57.2 28.6h-2.2c-1 0-1.7.8-1.7 1.7s.8 1.7 1.7 1.7h2.2c1 0 1.7-.8 1.7-1.7s-.8-1.7-1.7-1.7z"/><path d="m67.1 28.6h-2.2c-1 0-1.7.8-1.7 1.7s.8 1.7 1.7 1.7h2.2c1 0 1.7-.8 1.7-1.7.1-.9-.7-1.7-1.7-1.7z"/><path d="m77.1 28.6h-2.2c-1 0-1.7.8-1.7 1.7s.8 1.7 1.7 1.7h2.2c1 0 1.7-.8 1.7-1.7s-.7-1.7-1.7-1.7z"/></g></svg>