<svg height="512" viewBox="0 0 128 128" width="512" xmlns="http://www.w3.org/2000/svg"><path d="m122.25 107.787h-4.794v-90a17.787 17.787 0 0 0 -17.75-17.787h-71.412a17.787 17.787 0 0 0 -17.75 17.783v90h-4.794a5.757 5.757 0 0 0 -5.75 5.754v12.713a1.75 1.75 0 0 0 1.75 1.75h29.089a1.75 1.75 0 0 0 1.75-1.75v-12.713a5.757 5.757 0 0 0 -5.75-5.75h-4.795v-90a6.265 6.265 0 0 1 6.25-6.266h6.292v65.77a8.665 8.665 0 1 0 8.666 13.688 8.633 8.633 0 0 0 13.832 0 8.66 8.66 0 1 0 8.666-13.692v-65.77h14.464l10.3 65.727a8.663 8.663 0 1 0 3.458-.542l-10.215-65.185h15.949a6.265 6.265 0 0 1 6.25 6.266v90h-4.8a5.757 5.757 0 0 0 -5.75 5.75v12.717a1.75 1.75 0 0 0 1.75 1.75h29.094a1.75 1.75 0 0 0 1.75-1.75v-12.713a5.757 5.757 0 0 0 -5.75-5.75zm-23.588-23.228a5.166 5.166 0 1 1 -5.9-4.3 5.3 5.3 0 0 1 .811-.064 5.173 5.173 0 0 1 5.093 4.368zm-69.573 28.978v10.963h-25.589v-10.963a2.253 2.253 0 0 1 2.25-2.25h21.089a2.253 2.253 0 0 1 2.25 2.25zm19.329-102.02v65.77a8.681 8.681 0 0 0 -5.166 3.288 8.675 8.675 0 0 0 -5.166-3.288v-65.77zm-12.082 79.424a5.166 5.166 0 1 1 5.164-5.166 5.171 5.171 0 0 1 -5.164 5.166zm13.832 0a5.166 5.166 0 1 1 5.166-5.166 5.172 5.172 0 0 1 -5.166 5.166zm19-5.166a5.166 5.166 0 1 1 -5.168-5.166 5.171 5.171 0 0 1 5.166 5.166zm-6.918-8.488a8.675 8.675 0 0 0 -5.166 3.288 8.675 8.675 0 0 0 -5.166-3.288v-65.77h10.332zm37.456-69.27h-71.412a9.769 9.769 0 0 0 -9.75 9.766v90h-4.5v-90a14.283 14.283 0 0 1 14.25-14.283h71.412a14.283 14.283 0 0 1 14.25 14.283v90h-4.5v-90a9.769 9.769 0 0 0 -9.75-9.766zm24.794 116.483h-25.589v-10.963a2.253 2.253 0 0 1 2.25-2.25h21.089a2.253 2.253 0 0 1 2.25 2.25z"/></svg>