<?xml version="1.0" encoding="UTF-8"?>
<svg xmlns="http://www.w3.org/2000/svg" width="512" height="512" viewBox="0 0 128 128"><g><path d="M126.25,62.25H96.875V5.007a1.75,1.75,0,0,0-1.75-1.75H32.875a1.75,1.75,0,0,0-1.75,1.75V62.25H1.75A1.75,1.75,0,0,0,0,64v58.993a1.75,1.75,0,0,0,1.75,1.75h124.5a1.75,1.75,0,0,0,1.75-1.75V64A1.75,1.75,0,0,0,126.25,62.25Zm-42.334,3.5h22.418V94.479L96.111,87.508a1.746,1.746,0,0,0-1.972,0L83.916,94.479ZM75.209,6.757V35.486L64.986,28.515a1.746,1.746,0,0,0-1.972,0L52.791,35.486V6.757Zm-40.584,0H49.291V38.8a1.75,1.75,0,0,0,2.735,1.446L64,32.078l11.974,8.166A1.762,1.762,0,0,0,78.709,38.8V6.757H93.375V62.25H34.625ZM44.084,65.75V94.479L33.861,87.508a1.746,1.746,0,0,0-1.972,0L21.666,94.479V65.75ZM3.5,65.75H18.166V97.791A1.75,1.75,0,0,0,20.9,99.237l11.974-8.166,11.974,8.166a1.762,1.762,0,0,0,2.735-1.446V65.75H62.25v55.493H3.5Zm121,55.493H65.75V65.75H80.416V97.791a1.75,1.75,0,0,0,2.735,1.446l11.974-8.166L107.1,99.237a1.762,1.762,0,0,0,2.735-1.446V65.75H124.5Z"/><path d="M27.1,84.2a1.748,1.748,0,0,0,1.8-.1l3.973-2.71,3.973,2.71a1.762,1.762,0,0,0,2.736-1.446V72a1.749,1.749,0,0,0-1.75-1.75H27.916A1.749,1.749,0,0,0,26.166,72V82.652A1.747,1.747,0,0,0,27.1,84.2ZM29.666,73.75h6.418v5.591l-2.223-1.517a1.751,1.751,0,0,0-1.972,0l-2.223,1.517Z"/><path d="M99.1,84.1a1.762,1.762,0,0,0,2.736-1.446V72a1.749,1.749,0,0,0-1.75-1.75H90.166A1.749,1.749,0,0,0,88.416,72V82.652A1.75,1.75,0,0,0,91.152,84.1l3.973-2.71Zm-7.182-4.757V73.75h6.418v5.591l-2.223-1.517a1.751,1.751,0,0,0-1.972,0Z"/><path d="M58.223,25.206a1.743,1.743,0,0,0,1.8-.1L64,22.4,67.973,25.1a1.761,1.761,0,0,0,2.736-1.445V13.007a1.749,1.749,0,0,0-1.75-1.75H59.041a1.749,1.749,0,0,0-1.75,1.75V23.659A1.748,1.748,0,0,0,58.223,25.206Zm2.568-10.449h6.418v5.591l-2.223-1.517a1.746,1.746,0,0,0-1.972,0l-2.223,1.517Z"/></g></svg>
