<svg height="512" viewBox="0 0 128 128" width="512" xmlns="http://www.w3.org/2000/svg"><g><path d="m64 0a64 64 0 1 0 64 64 64.072 64.072 0 0 0 -64-64zm0 124.5a60.5 60.5 0 1 1 60.5-60.5 60.569 60.569 0 0 1 -60.5 60.5z"/><path d="m64 8a56 56 0 1 0 56 56 56.063 56.063 0 0 0 -56-56zm0 108.5a52.5 52.5 0 1 1 52.5-52.5 52.56 52.56 0 0 1 -52.5 52.5z"/><path d="m79 23.933a9.761 9.761 0 0 0 -9.75 9.75v60.634a9.75 9.75 0 1 0 19.5 0v-60.634a9.761 9.761 0 0 0 -9.75-9.75zm6.25 70.384a6.25 6.25 0 1 1 -12.5 0v-60.634a6.25 6.25 0 1 1 12.5 0z"/><path d="m49 23.933a9.761 9.761 0 0 0 -9.75 9.75v60.634a9.75 9.75 0 1 0 19.5 0v-60.634a9.761 9.761 0 0 0 -9.75-9.75zm6.25 70.384a6.25 6.25 0 1 1 -12.5 0v-60.634a6.25 6.25 0 1 1 12.5 0z"/></g></svg>