<svg height="512" viewBox="0 0 128 128" width="512" xmlns="http://www.w3.org/2000/svg"><g><path d="m64 0a64 64 0 1 0 64 64 64.072 64.072 0 0 0 -64-64zm0 124.5a60.5 60.5 0 1 1 60.5-60.5 60.569 60.569 0 0 1 -60.5 60.5z"/><path d="m64 8a56 56 0 1 0 56 56 56.063 56.063 0 0 0 -56-56zm0 108.5a52.5 52.5 0 1 1 52.5-52.5 52.56 52.56 0 0 1 -52.5 52.5z"/><path d="m97.164 58.856-49.175-24.586a5.751 5.751 0 0 0 -8.322 5.143v49.174a5.741 5.741 0 0 0 8.322 5.143l49.175-24.586a5.752 5.752 0 0 0 0-10.288zm-1.564 7.157-49.176 24.587a2.251 2.251 0 0 1 -3.257-2.013v-49.174a2.207 2.207 0 0 1 1.068-1.913 2.2 2.2 0 0 1 2.189-.1l49.176 24.587a2.251 2.251 0 0 1 0 4.026z"/></g></svg>