<svg height="512" viewBox="0 0 128 128" width="512" xmlns="http://www.w3.org/2000/svg"><g><path d="m100.973 81.8-16.393-16.82a15.17 15.17 0 0 1 -4.328-10.644v-14.9h3.248a5.756 5.756 0 0 0 5.75-5.75v-5.126a5.757 5.757 0 0 0 -5.75-5.75h-3.587l2.311-9.53a10.751 10.751 0 0 0 -10.448-13.28h-15.552a10.751 10.751 0 0 0 -10.448 13.28l2.311 9.53h-3.587a5.757 5.757 0 0 0 -5.75 5.75v5.126a5.756 5.756 0 0 0 5.75 5.75h3.248v14.9a15.17 15.17 0 0 1 -4.328 10.644l-16.393 16.82a18.648 18.648 0 0 0 -3.013 22.1l12.713 23.188a1.75 1.75 0 0 0 1.535.909h51.476a1.747 1.747 0 0 0 1.534-.909l12.714-23.188a18.648 18.648 0 0 0 -3.013-22.1zm-51.794-69.344a7.25 7.25 0 0 1 7.045-8.956h15.552a7.25 7.25 0 0 1 7.045 8.959l-2.51 10.351h-24.623zm-6.929 21.23v-5.126a2.253 2.253 0 0 1 2.25-2.25h39a2.253 2.253 0 0 1 2.25 2.25v5.126a2.253 2.253 0 0 1 -2.25 2.25h-39a2.253 2.253 0 0 1 -2.25-2.25zm58.668 68.532-12.218 22.282h-49.4l-12.218-22.282a15.171 15.171 0 0 1 2.451-17.975l16.393-16.821a18.647 18.647 0 0 0 5.322-13.086v-14.9h25.5v14.9a18.647 18.647 0 0 0 5.322 13.086l16.397 16.821a15.171 15.171 0 0 1 2.451 17.975z"/><path d="m84.055 75.9a1.747 1.747 0 0 0 -1.253-.529h-37.602a1.747 1.747 0 0 0 -1.253.529l-11.19 11.483a10.693 10.693 0 0 0 -1.729 12.671l10.437 19.034a1.747 1.747 0 0 0 1.535.912h42a1.748 1.748 0 0 0 1.534-.909l10.437-19.034a10.693 10.693 0 0 0 -1.729-12.67zm9.845 22.472-9.935 18.128h-39.93l-9.935-18.128a7.212 7.212 0 0 1 1.166-8.546l10.67-10.951h36.127l10.674 10.951a7.211 7.211 0 0 1 1.163 8.546z"/></g></svg>