<svg height="512" viewBox="0 0 128 128" width="512" xmlns="http://www.w3.org/2000/svg"><g><path d="m124.048 4.074h-120.096a3.956 3.956 0 0 0 -3.952 3.951v79.991a3.956 3.956 0 0 0 3.952 3.952h45.032l-1.75 13.547h-10.771a6.189 6.189 0 0 0 -6.087 5.255l-1.647 11.15a1.75 1.75 0 0 0 1.731 2.006h67.08a1.75 1.75 0 0 0 1.731-2.006l-1.647-11.15a6.189 6.189 0 0 0 -6.087-5.255h-10.771l-1.75-13.547h45.032a3.957 3.957 0 0 0 3.952-3.952v-79.991a3.956 3.956 0 0 0 -3.952-3.951zm-120.548 3.951a.452.452 0 0 1 .452-.451h120.1a.452.452 0 0 1 .452.451v68.845h-121.004zm90.661 103.256 1.351 9.145h-63.024l1.351-9.145a2.668 2.668 0 0 1 2.624-2.266h55.074a2.668 2.668 0 0 1 2.624 2.266zm-16.924-5.766h-26.474l1.75-13.547h22.974zm47.263-17.5a.453.453 0 0 1 -.452.452h-120.096a.453.453 0 0 1 -.452-.452v-7.645h121z"/><path d="m51.835 36.585a1.749 1.749 0 0 0 -.512-1.237l-5.657-5.658a1.8 1.8 0 0 0 -2.475 0l-11.358 11.358a1.752 1.752 0 0 0 0 2.475l11.231 11.23a1.749 1.749 0 0 0 2.475 0l5.661-5.653a1.751 1.751 0 0 0 0-2.475l-4.336-4.335 4.464-4.464a1.749 1.749 0 0 0 .507-1.241zm-8.688 4.463a1.749 1.749 0 0 0 0 2.475l4.336 4.335-3.183 3.183-8.755-8.755 8.883-8.886 3.182 3.182z"/><path d="m84.809 29.69a1.8 1.8 0 0 0 -2.475 0l-5.657 5.658a1.75 1.75 0 0 0 0 2.474l4.464 4.464-4.336 4.335a1.751 1.751 0 0 0 0 2.475l5.656 5.657a1.749 1.749 0 0 0 2.475 0l11.231-11.23a1.752 1.752 0 0 0 0-2.475zm-1.109 21.351-3.182-3.183 4.336-4.335a1.749 1.749 0 0 0 0-2.475l-4.464-4.463 3.182-3.185 8.882 8.883z"/><path d="m70.192 25.616-7.933-1.032a1.75 1.75 0 0 0 -1.961 1.51l-4 30.773a1.749 1.749 0 0 0 1.51 1.961l7.933 1.031a1.755 1.755 0 0 0 1.961-1.51l4-30.772a1.749 1.749 0 0 0 -1.51-1.961zm-5.735 30.547-4.463-.58 3.549-27.3 4.463.58z"/></g></svg>