<?xml version="1.0" encoding="UTF-8"?>
<svg xmlns="http://www.w3.org/2000/svg" width="512" height="512" viewBox="0 0 128 128"><g><path d="M117.079,0H10.921a1.75,1.75,0,0,0-1.75,1.75V126.253a1.75,1.75,0,0,0,1.75,1.75H117.079a1.75,1.75,0,0,0,1.75-1.75V1.747A1.75,1.75,0,0,0,117.079,0ZM12.671,3.5h7.146V124.5H12.671ZM65.75,124.5V106.271a1.75,1.75,0,0,0-3.5,0V124.5H23.317V3.5H62.25V22.211a1.75,1.75,0,0,0,3.5,0V3.5h38.933V124.5Zm49.579,0h-7.146V3.5h7.146Z"/><path d="M64,33.66a1.75,1.75,0,0,0-1.75,1.75V55.868a1.75,1.75,0,0,0,3.5,0V35.41A1.75,1.75,0,0,0,64,33.66Z"/><path d="M64,67.318a1.751,1.751,0,0,0-1.75,1.75V89.526a1.75,1.75,0,1,0,3.5,0V69.068A1.751,1.751,0,0,0,64,67.318Z"/><path d="M50.173,27.3A1.75,1.75,0,0,0,48.49,26.03H34.451A1.749,1.749,0,0,0,32.768,27.3l-4,14.052a1.746,1.746,0,0,0-.054.7l2,16.053a1.751,1.751,0,0,0,1.737,1.533H50.49A1.751,1.751,0,0,0,52.227,58.1l2-16.053a1.746,1.746,0,0,0-.054-.7ZM48.945,56.136H34L32.231,41.97l3.541-12.44h11.4l3.54,12.44Z"/><path d="M45.756,35.543H37.184a1.75,1.75,0,0,0-1.75,1.75V48.374a1.75,1.75,0,0,0,1.75,1.75h8.572a1.749,1.749,0,0,0,1.75-1.75V37.293A1.749,1.749,0,0,0,45.756,35.543Zm-1.75,11.081H38.934V39.043h5.072Z"/><path d="M95.232,69.635a1.749,1.749,0,0,0-1.683-1.271H79.51a1.748,1.748,0,0,0-1.683,1.271l-4,14.053a1.74,1.74,0,0,0-.054.7l2,16.052a1.75,1.75,0,0,0,1.737,1.534H95.549a1.75,1.75,0,0,0,1.737-1.534l2-16.052a1.74,1.74,0,0,0-.054-.7ZM94,98.47H79.055L77.29,84.3l3.541-12.44h11.4L95.769,84.3Z"/><path d="M90.816,77.876H82.244a1.749,1.749,0,0,0-1.75,1.75V90.707a1.749,1.749,0,0,0,1.75,1.75h8.572a1.75,1.75,0,0,0,1.75-1.75V79.626A1.75,1.75,0,0,0,90.816,77.876Zm-1.75,11.081H83.994V81.376h5.072Z"/></g></svg>
