<?xml version="1.0" encoding="UTF-8"?>
<svg xmlns="http://www.w3.org/2000/svg" width="512" height="512" viewBox="0 0 128 128"><g><path d="M43.657,71.371H41.1v-2.56a4.963,4.963,0,0,0-9.926,0v2.56h-2.56a4.963,4.963,0,0,0,0,9.926h2.56v2.56a4.963,4.963,0,0,0,9.926,0V81.3h2.56a4.963,4.963,0,0,0,0-9.926Zm0,6.426h-4.31a1.75,1.75,0,0,0-1.75,1.75v4.31a1.463,1.463,0,1,1-2.926,0v-4.31a1.749,1.749,0,0,0-1.75-1.75h-4.31a1.463,1.463,0,0,1,0-2.926h4.31a1.749,1.749,0,0,0,1.75-1.75v-4.31a1.463,1.463,0,0,1,2.926,0v4.31a1.75,1.75,0,0,0,1.75,1.75h4.31a1.463,1.463,0,0,1,0,2.926Z"/><path d="M99.389,71.371h-2.56v-2.56a4.963,4.963,0,0,0-9.926,0v2.56h-2.56a4.963,4.963,0,0,0,0,9.926H86.9v2.56a4.963,4.963,0,0,0,9.926,0V81.3h2.56a4.963,4.963,0,0,0,0-9.926Zm0,6.426h-4.31a1.749,1.749,0,0,0-1.75,1.75v4.31a1.463,1.463,0,0,1-2.926,0v-4.31a1.75,1.75,0,0,0-1.75-1.75h-4.31a1.463,1.463,0,0,1,0-2.926h4.31a1.75,1.75,0,0,0,1.75-1.75v-4.31a1.463,1.463,0,0,1,2.926,0v4.31a1.749,1.749,0,0,0,1.75,1.75h4.31a1.463,1.463,0,0,1,0,2.926Z"/><path d="M69.367,71.371H58.633a4.963,4.963,0,1,0,0,9.926H69.367a4.963,4.963,0,0,0,0-9.926Zm0,6.426H58.633a1.463,1.463,0,0,1,0-2.926H69.367a1.463,1.463,0,0,1,0,2.926Z"/><path d="M109.754,63.436A17.707,17.707,0,0,0,92.141,48.288H35.859A17.7,17.7,0,0,0,18.248,63.424c-.245,1.47-6,36.109-6,44.518A19.886,19.886,0,0,0,30.7,127.964,19.594,19.594,0,0,0,51.32,111.378l1.126-7.214a8.821,8.821,0,0,0,8.238-7.041h6.632a8.821,8.821,0,0,0,8.238,7.041l1.062,6.806a19.945,19.945,0,0,0,18.667,17.014q.413.017.822.017a19.656,19.656,0,0,0,19.645-19.653v-.406C115.75,99.557,110.03,65.093,109.754,63.436ZM81.694,51.788v.45a6.256,6.256,0,0,1-6.25,6.25H52.556a6.256,6.256,0,0,1-6.25-6.25v-.45Zm-29.647,48.9a5.384,5.384,0,0,1-.766-.059c-.019,0-.035-.011-.054-.014a5.258,5.258,0,1,1,.82.073Zm18.594-5.312a5.312,5.312,0,1,1,6.131,5.239c-.018,0-.035.011-.053.014a5.384,5.384,0,0,1-.766.059A5.317,5.317,0,0,1,70.641,95.373Zm41.609,12.975a16.152,16.152,0,0,1-16.826,16.138,16.435,16.435,0,0,1-15.35-14.055l-1.061-6.8a8.811,8.811,0,1,0-11.7-10.01h-6.63a8.812,8.812,0,1,0-11.7,10.01l-1.125,7.206A16.086,16.086,0,0,1,30.907,124.47,16.383,16.383,0,0,1,15.75,107.942c0-8.122,5.891-43.587,5.955-43.97A14.227,14.227,0,0,1,35.859,51.788h6.947v.45a9.761,9.761,0,0,0,9.75,9.75H75.444a9.761,9.761,0,0,0,9.75-9.75v-.45h6.947A14.227,14.227,0,0,1,106.3,63.972l0,.026c.059.357,5.95,35.821,5.95,43.944Z"/><path d="M41.485,44.548h45.03a1.75,1.75,0,0,0,1.75-1.75V11.755a1.749,1.749,0,0,0-.521-1.245L77.6.5A1.75,1.75,0,0,0,76.375,0H41.485a1.75,1.75,0,0,0-1.75,1.75V42.8A1.75,1.75,0,0,0,41.485,44.548Zm9.75-3.5V26.625h25.53V41.048ZM69.469,3.5V11H51.235V3.5Zm-26.234,0h4.5v9.252a1.75,1.75,0,0,0,1.75,1.75H71.219a1.75,1.75,0,0,0,1.75-1.75V3.5h2.688l9.108,8.989V41.048h-4.5V24.875a1.75,1.75,0,0,0-1.75-1.75H49.485a1.75,1.75,0,0,0-1.75,1.75V41.048h-4.5Z"/><path d="M71.3,32.086H56.7a1.75,1.75,0,0,0,0,3.5H71.3a1.75,1.75,0,0,0,0-3.5Z"/></g></svg>
