<svg height="512" viewBox="0 0 128 128" width="512" xmlns="http://www.w3.org/2000/svg"><g><path d="m117.074 22.83-20-22.25a1.751 1.751 0 0 0 -1.3-.58h-63.547a1.751 1.751 0 0 0 -1.3.58l-20 22.25a1.749 1.749 0 0 0 -.426 1.448l.827 5.146a175.049 175.049 0 0 0 51.463 98.09 1.749 1.749 0 0 0 2.42 0 175.05 175.05 0 0 0 51.463-98.089l.827-5.147a1.749 1.749 0 0 0 -.427-1.448zm-3.856 6.04a171.564 171.564 0 0 1 -49.218 94.945 171.564 171.564 0 0 1 -49.218-94.946l-.694-4.321 18.92-21.048h61.984l18.92 21.048z"/><path d="m92.207 8h-56.414a1.753 1.753 0 0 0 -1.3.58l-15.062 16.755a1.749 1.749 0 0 0 -.426 1.448l.221 1.372a167.9 167.9 0 0 0 43.5 87.957 1.749 1.749 0 0 0 2.541 0 167.894 167.894 0 0 0 43.5-87.957l.233-1.372a1.75 1.75 0 0 0 -.426-1.448l-15.065-16.755a1.753 1.753 0 0 0 -1.302-.58zm13.112 19.6a164.419 164.419 0 0 1 -41.319 84.748 164.419 164.419 0 0 1 -41.319-84.748l-.088-.547 13.98-15.553h54.854l13.98 15.553z"/><path d="m80.886 44.706h-9.136v-9.137a1.75 1.75 0 0 0 -1.75-1.75h-12a1.75 1.75 0 0 0 -1.75 1.75v9.137h-9.136a1.749 1.749 0 0 0 -1.75 1.75v12a1.75 1.75 0 0 0 1.75 1.75h9.136v9.135a1.749 1.749 0 0 0 1.75 1.75h12a1.749 1.749 0 0 0 1.75-1.75v-9.135h9.136a1.751 1.751 0 0 0 1.75-1.75v-12a1.75 1.75 0 0 0 -1.75-1.75zm-1.75 12h-9.136a1.749 1.749 0 0 0 -1.75 1.75v9.135h-8.5v-9.135a1.749 1.749 0 0 0 -1.75-1.75h-9.136v-8.5h9.136a1.75 1.75 0 0 0 1.75-1.75v-9.137h8.5v9.137a1.75 1.75 0 0 0 1.75 1.75h9.136z"/></g></svg>