<svg height="512" viewBox="0 0 128 128" width="512" xmlns="http://www.w3.org/2000/svg"><g><path d="m64 0a64 64 0 1 0 64 64 64.072 64.072 0 0 0 -64-64zm0 124.5a60.5 60.5 0 1 1 60.5-60.5 60.568 60.568 0 0 1 -60.5 60.5z"/><path d="m64 8a56 56 0 1 0 56 56 56.064 56.064 0 0 0 -56-56zm0 108.5a52.5 52.5 0 1 1 52.5-52.5 52.559 52.559 0 0 1 -52.5 52.5z"/><path d="m103.072 50.678a1.752 1.752 0 0 0 -1.422-1.178l-24.966-3.44-11.325-22.517a1.75 1.75 0 0 0 -3.138.024l-10.984 22.683-24.914 3.81a1.75 1.75 0 0 0 -.947 2.993l18.179 17.457-4.075 24.871a1.75 1.75 0 0 0 2.553 1.826l22.22-11.894 22.395 11.56a1.75 1.75 0 0 0 2.526-1.863l-4.447-24.81 17.916-17.726a1.75 1.75 0 0 0 .429-1.796zm-21.46 17.682a1.752 1.752 0 0 0 -.492 1.553l3.98 22.224-20.059-10.357a1.752 1.752 0 0 0 -1.628.012l-19.906 10.656 3.651-22.281a1.749 1.749 0 0 0 -.515-1.544l-16.286-15.639 22.319-3.413a1.753 1.753 0 0 0 1.31-.967l9.84-20.32 10.144 20.17a1.749 1.749 0 0 0 1.33.946l22.366 3.079z"/></g></svg>