<svg height="512" viewBox="0 0 128 128" width="512" xmlns="http://www.w3.org/2000/svg"><path d="m127.487.513a1.751 1.751 0 0 0 -1.387-.506l-16.643 1.478a1.748 1.748 0 0 0 -1.083.506l-52.661 52.662-1.8-.638a1.743 1.743 0 0 0 -1.823.412l-4.758 4.758c-6.306-10.223-5.42-16.985-5.414-17.033a1.749 1.749 0 0 0 -1.4-2.011l-5-.948-5.011-1.043a1.751 1.751 0 0 0 -2.07 1.357c-.137.662-2.762 14.462 11.285 32.777l-23.356 23.356-1.837-1.84a8.511 8.511 0 1 0 -12.036 12.039l19.667 19.668a8.511 8.511 0 1 0 12.04-12.036l-1.837-1.837 15.802-15.805 7.546-7.546c13.089 10.032 23.874 11.562 29.204 11.562a18.84 18.84 0 0 0 3.578-.282 1.75 1.75 0 0 0 1.359-2.055l-2-10.043a1.761 1.761 0 0 0 -1.983-1.388c-.073.01-6.834.9-17.058-5.41l4.758-4.758a1.75 1.75 0 0 0 .412-1.823l-.638-1.8 52.662-52.661a1.748 1.748 0 0 0 .506-1.083l1.478-16.638a1.747 1.747 0 0 0 -.502-1.391zm-95.765 122.519a5.011 5.011 0 0 1 -7.087 0l-19.667-19.667a5.011 5.011 0 0 1 7.086-7.087l3.074 3.074 13.52 13.52 3.074 3.074a5.016 5.016 0 0 1 0 7.086zm6.808-22.517-11.045-11.045 5.926-5.926 11.045 11.045zm-13.52-8.57 11.045 11.045-6.17 6.169-11.044-11.044zm21.92.169-11.045-11.044 6.043-6.043c1.581 1.882 3.329 3.8 5.285 5.76s3.876 3.706 5.758 5.287zm17.879-12.39a1.75 1.75 0 0 0 .258 2.688c9.439 6.368 16.546 7.221 19.653 7.225l1.331 6.7c-4.793.288-18.967-.629-36.364-18.024-11.587-9.341-20.127-32.339-18.025-36.348l3.175.661 3.526.668c.007 3.115.867 10.214 7.225 19.639a1.75 1.75 0 0 0 2.688.258l5.509-5.508 1.8.637 10.407 3.689 3.688 10.407.637 1.8zm58.276-62.124-51.033 51.033-2.672-7.533 46.567-46.568a1.749 1.749 0 1 0 -2.474-2.474l-46.568 46.562-7.538-2.672 51.033-51.033 13.922-1.237z"/></svg>