<svg height="512" viewBox="0 0 128 128" width="512" xmlns="http://www.w3.org/2000/svg"><g><path d="m104.336 0h-80.672a7.759 7.759 0 0 0 -7.75 7.75v112.5a7.759 7.759 0 0 0 7.75 7.75h80.672a7.759 7.759 0 0 0 7.75-7.75v-112.5a7.759 7.759 0 0 0 -7.75-7.75zm4.25 120.25a4.254 4.254 0 0 1 -4.25 4.25h-80.672a4.254 4.254 0 0 1 -4.25-4.25v-112.5a4.254 4.254 0 0 1 4.25-4.25h80.672a4.254 4.254 0 0 1 4.25 4.25z"/><path d="m104.336 6h-80.672a1.749 1.749 0 0 0 -1.75 1.75v58.365a1.749 1.749 0 0 0 1.75 1.75h80.672a1.749 1.749 0 0 0 1.75-1.75v-58.365a1.749 1.749 0 0 0 -1.75-1.75zm-37.912 37.365v12.917h-17.6v-4.5h11.35a1.749 1.749 0 0 0 1.75-1.75v-11.349h4.5zm0 16.5v4.5h-27.6v-4.5zm3.5 4.5v-19.25h19.251v19.25zm32.662 0h-9.911v-21a1.75 1.75 0 0 0 -1.75-1.75h-21v-4.682a1.749 1.749 0 0 0 -1.75-1.75h-8a1.75 1.75 0 0 0 -1.75 1.75v11.349h-11.35a1.75 1.75 0 0 0 -1.75 1.75v6.333h-8.25a1.75 1.75 0 0 0 -1.75 1.75v6.25h-9.911v-54.865h77.172z"/><path d="m48.344 98.965h-3.616v-3.616a5.75 5.75 0 0 0 -11.5 0v3.616h-3.616a5.75 5.75 0 1 0 0 11.5h3.616v3.616a5.75 5.75 0 0 0 11.5 0v-3.616h3.616a5.75 5.75 0 0 0 0-11.5zm0 8h-5.366a1.75 1.75 0 0 0 -1.75 1.75v5.366a2.25 2.25 0 0 1 -4.5 0v-5.366a1.75 1.75 0 0 0 -1.75-1.75h-5.366a2.25 2.25 0 1 1 0-4.5h5.366a1.75 1.75 0 0 0 1.75-1.75v-5.366a2.25 2.25 0 0 1 4.5 0v5.366a1.75 1.75 0 0 0 1.75 1.75h5.366a2.25 2.25 0 0 1 0 4.5z"/><path d="m98.5 98.965h-3.617v-3.616a5.75 5.75 0 0 0 -11.5 0v3.616h-3.616a5.75 5.75 0 0 0 0 11.5h3.616v3.616a5.75 5.75 0 0 0 11.5 0v-3.616h3.617a5.75 5.75 0 0 0 0-11.5zm0 8h-5.367a1.749 1.749 0 0 0 -1.75 1.75v5.366a2.25 2.25 0 0 1 -4.5 0v-5.366a1.75 1.75 0 0 0 -1.75-1.75h-5.366a2.25 2.25 0 0 1 0-4.5h5.366a1.75 1.75 0 0 0 1.75-1.75v-5.366a2.25 2.25 0 0 1 4.5 0v5.366a1.749 1.749 0 0 0 1.75 1.75h5.367a2.25 2.25 0 0 1 0 4.5z"/><path d="m50.491 83.379v-8a1.75 1.75 0 0 0 -1.75-1.75h-25.077a1.749 1.749 0 0 0 -1.75 1.75v8a1.749 1.749 0 0 0 1.75 1.75h25.077a1.75 1.75 0 0 0 1.75-1.75zm-3.5-1.75h-21.577v-4.5h21.577z"/><path d="m104.336 73.629h-25.077a1.75 1.75 0 0 0 -1.75 1.75v8a1.75 1.75 0 0 0 1.75 1.75h25.077a1.749 1.749 0 0 0 1.75-1.75v-8a1.749 1.749 0 0 0 -1.75-1.75zm-1.75 8h-21.577v-4.5h21.577z"/><path d="m71.3 73.629h-14.6a1.75 1.75 0 0 0 -1.75 1.75v8a1.75 1.75 0 0 0 1.75 1.75h14.6a1.75 1.75 0 0 0 1.75-1.75v-8a1.75 1.75 0 0 0 -1.75-1.75zm-1.75 8h-11.097v-4.5h11.094z"/><path d="m48.45 26.037h31.1a1.75 1.75 0 0 0 1.75-1.75v-8a1.75 1.75 0 0 0 -1.75-1.75h-31.1a1.75 1.75 0 0 0 -1.75 1.75v8a1.75 1.75 0 0 0 1.75 1.75zm1.75-8h27.6v4.5h-27.6z"/></g></svg>