<?xml version="1.0" encoding="UTF-8"?>
<svg xmlns="http://www.w3.org/2000/svg" width="512" height="512" viewBox="0 0 128 128"><g><path d="M126.25,52.25h-9.627a53.281,53.281,0,0,0-7.1-17.156l6.8-6.8a1.751,1.751,0,0,0,0-2.475L102.184,11.674a1.751,1.751,0,0,0-2.475,0l-6.8,6.8a53.3,53.3,0,0,0-17.156-7.1V1.75A1.751,1.751,0,0,0,74,0H54a1.751,1.751,0,0,0-1.75,1.75v9.627a53.3,53.3,0,0,0-17.156,7.1l-6.8-6.8a1.751,1.751,0,0,0-2.475,0L11.674,25.816a1.751,1.751,0,0,0,0,2.475l6.8,6.8a53.3,53.3,0,0,0-7.1,17.156H1.75A1.751,1.751,0,0,0,0,54V74a1.751,1.751,0,0,0,1.75,1.75h9.627a53.3,53.3,0,0,0,7.1,17.156l-6.8,6.8a1.751,1.751,0,0,0,0,2.475l14.142,14.142a1.751,1.751,0,0,0,2.475,0l6.8-6.8a53.3,53.3,0,0,0,17.156,7.1v9.627A1.751,1.751,0,0,0,54,128H74a1.751,1.751,0,0,0,1.75-1.75v-9.627a53.3,53.3,0,0,0,17.156-7.1l6.8,6.8a1.751,1.751,0,0,0,2.475,0l14.142-14.142a1.751,1.751,0,0,0,0-2.475l-6.8-6.8a53.281,53.281,0,0,0,7.1-17.156h9.627A1.751,1.751,0,0,0,128,74V54A1.751,1.751,0,0,0,126.25,52.25Zm-1.75,20h-9.3a1.75,1.75,0,0,0-1.718,1.417,49.894,49.894,0,0,1-7.654,18.491,1.75,1.75,0,0,0,.213,2.216l6.572,6.572-11.667,11.667-6.572-6.571a1.751,1.751,0,0,0-2.216-.214,49.894,49.894,0,0,1-18.491,7.654A1.75,1.75,0,0,0,72.25,115.2v9.3H55.75v-9.3a1.75,1.75,0,0,0-1.417-1.718,49.894,49.894,0,0,1-18.491-7.654,1.75,1.75,0,0,0-2.216.214l-6.572,6.571L15.387,100.946l6.571-6.572a1.749,1.749,0,0,0,.214-2.216,49.894,49.894,0,0,1-7.654-18.491A1.75,1.75,0,0,0,12.8,72.25H3.5V55.75h9.3a1.75,1.75,0,0,0,1.718-1.417,49.894,49.894,0,0,1,7.654-18.491,1.749,1.749,0,0,0-.214-2.216l-6.571-6.572L27.054,15.387l6.572,6.571a1.747,1.747,0,0,0,2.216.214,49.894,49.894,0,0,1,18.491-7.654A1.75,1.75,0,0,0,55.75,12.8V3.5h16.5v9.3a1.75,1.75,0,0,0,1.417,1.718,49.894,49.894,0,0,1,18.491,7.654,1.749,1.749,0,0,0,2.216-.214l6.572-6.571,11.667,11.667-6.572,6.572a1.75,1.75,0,0,0-.213,2.216,49.894,49.894,0,0,1,7.654,18.491A1.75,1.75,0,0,0,115.2,55.75h9.3Z"/><path d="M64,24.57a39.425,39.425,0,0,0-9.1,77.784c.047.016.1.029.144.041a39.648,39.648,0,0,0,17.914,0l.135-.038.018,0A39.425,39.425,0,0,0,64,24.57Zm-5.448,55.8a17.265,17.265,0,1,1,10.9,0,1.748,1.748,0,0,0-1.2,1.66V90.25h-2.5v-19.5h4.908a5.47,5.47,0,1,0-5.085-3.5H62.427a5.449,5.449,0,1,0-5.085,3.5H62.25v19.5h-2.5V82.028A1.748,1.748,0,0,0,58.552,80.368ZM55.389,65.3a1.953,1.953,0,1,1,1.953,1.953A1.955,1.955,0,0,1,55.389,65.3Zm13.317,0a1.953,1.953,0,1,1,1.952,1.953A1.955,1.955,0,0,1,68.706,65.3ZM57.09,99.239V93.75h.895l.015,0H70l.015,0h.895v5.489A36.361,36.361,0,0,1,57.09,99.239Zm17.32-.864V92a1.75,1.75,0,0,0-1.75-1.75h-.91v-7a20.765,20.765,0,1,0-15.5,0v7h-.91A1.75,1.75,0,0,0,53.59,92v6.375a35.92,35.92,0,1,1,20.82,0Z"/></g></svg>
