<svg height="512" viewBox="0 0 128 128" width="512" xmlns="http://www.w3.org/2000/svg"><g><path d="m43.657 71.371h-2.557v-2.56a4.963 4.963 0 0 0 -9.926 0v2.56h-2.56a4.963 4.963 0 0 0 0 9.926h2.56v2.56a4.963 4.963 0 0 0 9.926 0v-2.557h2.56a4.963 4.963 0 0 0 0-9.926zm0 6.426h-4.31a1.75 1.75 0 0 0 -1.75 1.75v4.31a1.463 1.463 0 1 1 -2.926 0v-4.31a1.749 1.749 0 0 0 -1.75-1.75h-4.31a1.463 1.463 0 0 1 0-2.926h4.31a1.749 1.749 0 0 0 1.75-1.75v-4.31a1.463 1.463 0 0 1 2.926 0v4.31a1.75 1.75 0 0 0 1.75 1.75h4.31a1.463 1.463 0 0 1 0 2.926z"/><path d="m99.389 71.371h-2.56v-2.56a4.963 4.963 0 0 0 -9.926 0v2.56h-2.56a4.963 4.963 0 0 0 0 9.926h2.557v2.56a4.963 4.963 0 0 0 9.926 0v-2.557h2.56a4.963 4.963 0 0 0 0-9.926zm0 6.426h-4.31a1.749 1.749 0 0 0 -1.75 1.75v4.31a1.463 1.463 0 0 1 -2.926 0v-4.31a1.749 1.749 0 0 0 -1.75-1.75h-4.31a1.463 1.463 0 0 1 0-2.926h4.31a1.749 1.749 0 0 0 1.75-1.75v-4.31a1.463 1.463 0 0 1 2.926 0v4.31a1.749 1.749 0 0 0 1.75 1.75h4.31a1.463 1.463 0 0 1 0 2.926z"/><path d="m69.367 71.371h-10.734a4.963 4.963 0 1 0 0 9.926h10.734a4.963 4.963 0 0 0 0-9.926zm0 6.426h-10.734a1.463 1.463 0 0 1 0-2.926h10.734a1.463 1.463 0 0 1 0 2.926z"/><path d="m109.754 63.436a17.692 17.692 0 0 0 -16.138-15.082v-42.604a5.756 5.756 0 0 0 -5.75-5.75h-47.732a5.757 5.757 0 0 0 -5.75 5.75v42.6a17.682 17.682 0 0 0 -16.136 15.07c-.245 1.47-6 36.109-6 44.518a19.886 19.886 0 0 0 18.452 20.026 19.585 19.585 0 0 0 20.62-16.586l1.126-7.214a8.821 8.821 0 0 0 8.238-7.041h6.632a8.821 8.821 0 0 0 8.238 7.041l1.061 6.806a19.947 19.947 0 0 0 18.668 17.014q.413.017.822.017a19.654 19.654 0 0 0 19.645-19.653v-.406c0-8.385-5.721-42.85-5.996-44.506zm-71.87-57.686a2.253 2.253 0 0 1 2.25-2.25h47.732a2.253 2.253 0 0 1 2.25 2.25v42.538h-52.232zm8.422 46.038h35.388v.45a6.256 6.256 0 0 1 -6.25 6.25h-22.888a6.256 6.256 0 0 1 -6.25-6.25zm5.741 48.9a5.384 5.384 0 0 1 -.766-.059c-.019 0-.035-.011-.054-.014a5.258 5.258 0 1 1 .82.073zm18.594-5.312a5.312 5.312 0 1 1 6.131 5.239c-.018 0-.035.011-.053.014a5.384 5.384 0 0 1 -.766.059 5.317 5.317 0 0 1 -5.312-5.315zm41.609 12.975a16.153 16.153 0 0 1 -16.825 16.138 16.436 16.436 0 0 1 -15.351-14.055l-1.06-6.8a8.811 8.811 0 1 0 -11.7-10.01h-6.63a8.812 8.812 0 1 0 -11.7 10.01l-1.125 7.206a16.088 16.088 0 0 1 -16.952 13.63 16.383 16.383 0 0 1 -15.157-16.528c0-8.122 5.891-43.587 5.955-43.97a14.227 14.227 0 0 1 14.154-12.184h6.947v.45a9.761 9.761 0 0 0 9.75 9.75h22.888a9.761 9.761 0 0 0 9.75-9.75v-.45h6.947a14.228 14.228 0 0 1 14.159 12.184v.026c.059.357 5.951 35.821 5.951 43.944z"/><path d="m49.87 41.235a3.705 3.705 0 0 0 3.63.165l24.336-12.17a3.73 3.73 0 0 0 0-6.672l-24.336-12.169a3.729 3.729 0 0 0 -5.4 3.337v24.337a3.707 3.707 0 0 0 1.77 3.172zm1.73-27.509a.216.216 0 0 1 .109-.2.232.232 0 0 1 .12-.036.219.219 0 0 1 .1.027l24.342 12.172a.2.2 0 0 1 .127.206.207.207 0 0 1 -.127.205l-24.336 12.169a.23.23 0 0 1 -.333-.206z"/></g></svg>