<?xml version="1.0" encoding="UTF-8"?>
<svg xmlns="http://www.w3.org/2000/svg" width="512" height="512" viewBox="0 0 128 128"><g><path d="M60.12,66.353a1.751,1.751,0,0,0-2.239,1.054l-3.526,9.8-3.526-9.8a1.75,1.75,0,1,0-3.293,1.186l5.173,14.373a1.75,1.75,0,0,0,3.293,0l5.172-14.373A1.751,1.751,0,0,0,60.12,66.353Z"/><path d="M75.5,66.25H68.473A1.749,1.749,0,0,0,66.723,68V82.373a1.75,1.75,0,0,0,3.5,0V76.936h1.964a4.886,4.886,0,0,1,4.88,4.88v.557a1.75,1.75,0,0,0,3.5,0v-.557a8.338,8.338,0,0,0-2.276-5.723,5.063,5.063,0,0,0,2.276-4.222v-.556A5.071,5.071,0,0,0,75.5,66.25Zm-5.279,7.186V69.75H75.5a1.567,1.567,0,0,1,1.565,1.565v.556A1.567,1.567,0,0,1,75.5,73.436H70.223Z"/><path d="M33.474,57.341a5.618,5.618,0,1,0,5.617,5.618A5.625,5.625,0,0,0,33.474,57.341Zm0,7.735a2.118,2.118,0,1,1,2.117-2.117A2.121,2.121,0,0,1,33.474,65.076Z"/><path d="M94.526,57.341a5.618,5.618,0,1,0,5.618,5.618A5.624,5.624,0,0,0,94.526,57.341Zm0,7.735a2.118,2.118,0,1,1,2.118-2.117A2.12,2.12,0,0,1,94.526,65.076Z"/><path d="M33.474,86.743a5.618,5.618,0,1,0,5.617,5.617A5.625,5.625,0,0,0,33.474,86.743Zm0,7.735a2.118,2.118,0,1,1,2.117-2.118A2.121,2.121,0,0,1,33.474,94.478Z"/><path d="M94.526,86.743a5.618,5.618,0,1,0,5.618,5.617A5.624,5.624,0,0,0,94.526,86.743Zm0,7.735a2.118,2.118,0,1,1,2.118-2.118A2.12,2.12,0,0,1,94.526,94.478Z"/><path d="M126.25,60.2H108.984V60.2A11.708,11.708,0,0,0,97.289,48.5H92.91v-1.67a7.283,7.283,0,0,0-7.275-7.275H80.567V26.931a5.756,5.756,0,0,0-5.75-5.75H53.183a5.756,5.756,0,0,0-5.75,5.75V39.556H42.365a7.283,7.283,0,0,0-7.275,7.275V48.5H30.711A11.708,11.708,0,0,0,19.016,60.2V60.2H1.75A1.749,1.749,0,0,0,0,61.953V92.516a1.75,1.75,0,0,0,1.75,1.75H19.016v.858a11.708,11.708,0,0,0,11.7,11.7H52.94a1.751,1.751,0,0,0,1.238-.512L64,96.484l9.822,9.823a1.751,1.751,0,0,0,1.238.512H97.289a11.708,11.708,0,0,0,11.695-11.7v-.858H126.25a1.75,1.75,0,0,0,1.75-1.75V61.953A1.749,1.749,0,0,0,126.25,60.2ZM50.933,26.931a2.252,2.252,0,0,1,2.25-2.25H74.817a2.252,2.252,0,0,1,2.25,2.25V39.556H50.933ZM38.59,46.831a3.779,3.779,0,0,1,3.775-3.775h43.27a3.779,3.779,0,0,1,3.775,3.775V48.5H38.59ZM3.5,71.7h7.516V82.766H3.5Zm0,19.063v-4.5h9.266a1.751,1.751,0,0,0,1.75-1.75V69.953a1.75,1.75,0,0,0-1.75-1.75H3.5V63.7H19.016V90.766Zm101.984,4.358a8.2,8.2,0,0,1-8.195,8.2h-21.5L65.237,92.772a1.75,1.75,0,0,0-2.474,0L52.216,103.319H30.711a8.2,8.2,0,0,1-8.195-8.2V60.2A8.2,8.2,0,0,1,30.711,52H97.289a8.2,8.2,0,0,1,8.195,8.2Zm3.5-4.358V63.7H124.5v4.5h-9.266a1.75,1.75,0,0,0-1.75,1.75V84.516a1.751,1.751,0,0,0,1.75,1.75H124.5v4.5Zm15.516-8h-7.516V71.7H124.5Z"/></g></svg>
