<svg id="Layer_1" enable-background="new 0 0 128 128" height="512" viewBox="0 0 128 128" width="512" xmlns="http://www.w3.org/2000/svg"><g><path d="m126.1 103.8c-2.5-2.5-6.5-2.5-8.9 0l-.8.8-15-15c9.3-12.4 7.5-21.7 7.4-22.2-.2-.9-1.1-1.5-2.1-1.4l-6.8 1.3c-.9.2-1.5 1.1-1.4 2 0 0 .5 4.2-3.2 10.5l-2.7-2.7c-.5-.5-1.2-.6-1.8-.4l-.9.3-13.2-13 22.2-22.2c.3-.3.5-.7.5-1.1l1-11.2c.1-1.1-.8-2-1.9-1.9l-11.2 1c-.4 0-.8.2-1.1.5l-22.2 22.2-22.2-22.3c-.3-.3-.7-.5-1.1-.5l-11.2-1c-1.1-.1-2 .8-1.9 1.9l1 11.2c0 .4.2.8.5 1.1l22.2 22.3-13.2 13.2-.9-.3c-.6-.2-1.3-.1-1.8.4l-2.7 2.7c-3.7-6.3-3.2-10.5-3.2-10.5.2-.9-.5-1.8-1.4-2-.1 0-7.2-1.4-6.8-1.3-.9-.2-1.9.4-2.1 1.4-.1.5-1.9 9.8 7.4 22.2l-15 15-.8-.8c-2.5-2.5-6.5-2.5-8.9 0-2.5 2.5-2.5 6.5 0 8.9l13.3 13.3c2.4 2.5 6.4 2.5 8.9.1 2.5-2.5 2.5-6.5 0-9l-.8-.8 15-15c6 4.5 14.9 8.7 22.2 7.4.9-.2 1.5-1.1 1.4-2.1l-1.3-6.8c-.2-.9-1.1-1.5-2-1.4 0 0-4.2.5-10.5-3.2l2.7-2.7c.5-.5.6-1.2.4-1.8l-.3-.9 13.1-13.3 13.2 13.2-.3.9c-.2.6-.1 1.3.4 1.8l2.7 2.7c-6.3 3.7-10.5 3.2-10.5 3.2-.9-.2-1.8.5-2 1.4l-.6 3.4-.7 3.4c-.2.9.4 1.9 1.4 2.1 7.3 1.3 16.2-2.9 22.2-7.4l15 15-.8.8c-2.5 2.5-2.5 6.5 0 8.9 2.5 2.5 6.5 2.5 8.9 0l13.3-13.3c2.3-2.5 2.3-6.5-.1-9zm-28 1 6.7-6.7 3.2 3.2-6.7 6.7zm-11.9-26.4-3.9 1.4-10.7-10.7 2.6-2.6zm-54.2-38.7-.8-8.5 8.5.8 21.8 21.8-2.6 2.6-20.6-20.6c-.7-.7-1.8-.7-2.5 0s-.7 1.8 0 2.5l20.6 20.6-2.6 2.6zm56.3-7.7 8.5-.8-.8 8.5-46.5 46.5-1.4-3.9 44-44c.7-.7.7-1.8 0-2.5s-1.8-.7-2.5 0l-44 44-3.9-1.4zm-61.6 76-6.7-6.7 3.2-3.2 6.7 6.7zm-5 15.6c-1.1 1.1-2.9 1.1-4 0l-13.3-13.3c-1.1-1.1-1.1-2.9 0-4s2.9-1.1 4 0l2.1 2.1 9.1 9.1 2.1 2.1c1.1 1.1 1.1 2.9 0 4zm-7.5-16.4 3.4-3.4 6.7 6.7-3.4 3.4zm21.4-8.1-3.2 3.2-6.7-6.7 3.2-3.2c2.1 2.4 4.3 4.6 6.7 6.7zm21.8 2.9.7 3.4c-8.7.1-17.3-5.9-23.5-12-6.1-6.2-12.2-14.8-12-23.5l3.4.7c.1 2.4.9 7.1 5 13.1.6.9 1.9 1 2.7.3l3.5-3.5 7.7 2.7 2.7 7.7-3.6 3.4c-.8.8-.7 2.1.3 2.7 6 4.1 10.7 4.9 13.1 5zm9.1-27.8 2.6-2.6 10.7 10.7-1.4 3.9zm3.4 31.2.7-3.4c2.4-.1 7.1-.9 13.1-5 .9-.6 1-1.9.3-2.7l-3.5-3.5 2.7-7.7 7.7-2.7 3.5 3.5c.8.8 2.1.7 2.7-.3 4.1-6 4.9-10.7 5-13.1l3.4-.7c.1 8.6-5.9 17.3-12 23.5-6 6-14.7 12-23.2 12zm22.5-6.4c2.4-2 4.6-4.3 6.6-6.6l3.2 3.2-6.7 6.7zm11.4 11.5 6.7-6.7 3.4 3.4-6.7 6.7zm19.8-.2-13.3 13.3c-1.1 1.1-2.9 1.1-4 0s-1.1-2.9 0-4l13.3-13.3c1.1-1.1 2.9-1.1 4 0s1.1 2.9 0 4z"/><path d="m50.8 23.1c.6 1.5 2.7 1.5 3.3 0l7.5-20.7c.3-.9-.1-1.9-1.1-2.2-.9-.3-1.9.1-2.2 1.1l-5.8 16.2-5.8-16.3c-.3-.9-1.3-1.4-2.2-1.1s-1.5 1.4-1.1 2.3z"/><path d="m78 20.8h-9.9c-1 0-1.7.8-1.7 1.7 0 1 .8 1.7 1.7 1.7h9.9c3.7 0 6.7-3 6.7-6.7v-5.4c0-1-.8-1.7-1.7-1.7h-13.2v-3.6c0-1.8 1.5-3.2 3.2-3.2h10c1 0 1.7-.8 1.7-1.7s-.8-1.8-1.7-1.8h-9.9c-3.7 0-6.7 3-6.7 6.7v5.4c0 1 .8 1.7 1.7 1.7h13.2v3.6c-.1 1.8-1.5 3.3-3.3 3.3z"/></g></svg>