<?xml version="1.0" encoding="UTF-8"?>
<svg xmlns="http://www.w3.org/2000/svg" width="512" height="512" viewBox="0 0 128 128"><g><path d="M124,92.253H85.75V57.376A1.75,1.75,0,0,0,84,55.626H78.859a19.167,19.167,0,0,1-5.265-12.584l5.118-1.509a11.005,11.005,0,0,0,7.85-10.5v-.673l10.289-2.022a8.471,8.471,0,0,0,7.051-8.368V16.6A8.5,8.5,0,0,0,95.41,8.106H86.562V1.75A1.75,1.75,0,0,0,84.812,0H43.188a1.75,1.75,0,0,0-1.75,1.75V8.106H32.59A8.5,8.5,0,0,0,24.1,16.6v3.374a8.459,8.459,0,0,0,7.01,8.36l10.33,2.03v.673a11.005,11.005,0,0,0,7.85,10.5l5.118,1.509a19.167,19.167,0,0,1-5.265,12.584H44a1.75,1.75,0,0,0-1.75,1.75V82.253H4A1.75,1.75,0,0,0,2.25,84V126.25A1.75,1.75,0,0,0,4,128H124a1.75,1.75,0,0,0,1.75-1.75V94A1.75,1.75,0,0,0,124,92.253ZM95.41,11.606A5,5,0,0,1,100.4,16.6v3.374A4.991,4.991,0,0,1,96.217,24.9l-9.655,1.9V11.606ZM31.742,24.892A4.98,4.98,0,0,1,27.6,19.973V16.6a5,5,0,0,1,4.992-4.993h8.848V26.8Zm13.2,6.144c.01-.592-.006-26.022,0-27.536H83.062c0,1.693-.01,26.773,0,27.536a7.485,7.485,0,0,1-5.339,7.14l-6.4,1.886h0L64,42.221l-7.32-2.158h-.005l-6.4-1.886A7.485,7.485,0,0,1,44.938,31.036ZM57.877,44.065l5.628,1.659a1.755,1.755,0,0,0,.99,0l5.628-1.659A22.75,22.75,0,0,0,74.3,55.626H53.7A22.75,22.75,0,0,0,57.877,44.065ZM45.75,59.126h36.5v3.127H45.75Zm-40,26.627h36.5V124.5H5.75Zm40-20h36.5V124.5H45.75Zm76.5,58.747H85.75V95.753h36.5Z"/><path d="M68.52,102.56H66.571V85.942a1.749,1.749,0,0,0-2.987-1.237l-5.342,5.342a1.75,1.75,0,1,0,2.475,2.475l2.354-2.355V102.56H61.122a1.75,1.75,0,0,0,0,3.5h7.4a1.75,1.75,0,0,0,0-3.5Z"/><path d="M28.36,94.192H19.64a1.75,1.75,0,0,0,0,3.5h6.97v5.684H19.64a1.749,1.749,0,0,0-1.75,1.75v9.184a1.749,1.749,0,0,0,1.75,1.75h8.72a1.75,1.75,0,1,0,0-3.5H21.39v-5.684h6.97a1.749,1.749,0,0,0,1.75-1.75V95.942A1.75,1.75,0,0,0,28.36,94.192Z"/><path d="M99.215,117.56a1.75,1.75,0,0,0,0,3.5h9.57a1.75,1.75,0,0,0,1.75-1.75V100.942a1.751,1.751,0,0,0-1.75-1.75h-9.57a1.75,1.75,0,0,0,0,3.5h7.82v5.682l-5.826,0a1.75,1.75,0,0,0,0,3.5h0l5.825,0v5.686Z"/><path d="M56.8,30.652a1.755,1.755,0,0,0,1.844.12l5.434-2.91,5.478,2.828a1.75,1.75,0,0,0,2.525-1.864l-1.088-6.067,4.382-4.335a1.75,1.75,0,0,0-.992-2.978l-6.107-.841L65.508,9.1a1.671,1.671,0,0,0-1.576-.964,1.749,1.749,0,0,0-1.562.987L59.684,14.67,53.59,15.6a1.749,1.749,0,0,0-.947,2.991l4.446,4.27-1,6.082A1.751,1.751,0,0,0,56.8,30.652ZM61.122,17.99a1.75,1.75,0,0,0,1.311-.967l1.542-3.184L65.564,17a1.747,1.747,0,0,0,1.325.947l3.505.483-2.516,2.488a1.75,1.75,0,0,0-.491,1.553l.624,3.482-3.144-1.622a1.746,1.746,0,0,0-1.628.012l-3.119,1.67.571-3.491a1.747,1.747,0,0,0-.514-1.545l-2.553-2.452Z"/></g></svg>
