<?xml version="1.0" encoding="UTF-8"?>
<svg xmlns="http://www.w3.org/2000/svg" width="512" height="512" viewBox="0 0 128 128"><g><path d="M117,21.75H101.75V8.5A1.75,1.75,0,0,0,100,6.75H32a5.757,5.757,0,0,0-5.75,5.75v9.25H11A5.757,5.757,0,0,0,5.25,27.5v74A5.757,5.757,0,0,0,11,107.25H50.25v10.5H40.063a1.75,1.75,0,1,0,0,3.5H87.936a1.75,1.75,0,0,0,0-3.5H77.75v-10.5H117a5.757,5.757,0,0,0,5.75-5.75v-74A5.757,5.757,0,0,0,117,21.75ZM28,46.25H57.918l4.517,9.033a1.75,1.75,0,0,0,3.13,0l4.517-9.033H96a5.757,5.757,0,0,0,5.75-5.75V31.25h11.5v58.5H14.75V31.25h11.5V44.5A1.751,1.751,0,0,0,28,46.25ZM29.75,12.5A2.252,2.252,0,0,1,32,10.25H98.25V40.5A2.253,2.253,0,0,1,96,42.75H69a1.748,1.748,0,0,0-1.565.967L64,50.587l-3.435-6.87A1.748,1.748,0,0,0,59,42.75H29.75Zm44.5,105.25H53.75v-10.5h20.5Zm45-16.25a2.253,2.253,0,0,1-2.25,2.25H11a2.252,2.252,0,0,1-2.25-2.25v-74A2.252,2.252,0,0,1,11,25.25H26.25v2.5H13a1.751,1.751,0,0,0-1.75,1.75v62A1.751,1.751,0,0,0,13,93.25H115a1.75,1.75,0,0,0,1.75-1.75v-62A1.75,1.75,0,0,0,115,27.75H101.75v-2.5H117a2.253,2.253,0,0,1,2.25,2.25Z"/><path d="M82.5,30.75h-6a1.75,1.75,0,0,0,0,3.5h6a4.75,4.75,0,0,0,0-9.5h-3a1.25,1.25,0,0,1,0-2.5h6a1.75,1.75,0,0,0,0-3.5h-6a4.75,4.75,0,0,0,0,9.5h3a1.25,1.25,0,0,1,0,2.5Z"/><path d="M48.5,18.75h-3a4.756,4.756,0,0,0-4.75,4.75v9a1.75,1.75,0,0,0,3.5,0V28.25h5.5V32.5a1.75,1.75,0,0,0,3.5,0v-9A4.756,4.756,0,0,0,48.5,18.75Zm-4.25,6V23.5a1.25,1.25,0,0,1,1.25-1.25h3a1.251,1.251,0,0,1,1.25,1.25v1.25Z"/><path d="M64,34.25A6.257,6.257,0,0,0,70.25,28V25A6.257,6.257,0,0,0,64,18.75H59.5a1.751,1.751,0,0,0-1.75,1.75v12a1.751,1.751,0,0,0,1.75,1.75Zm-2.75-12H64A2.752,2.752,0,0,1,66.75,25v3A2.752,2.752,0,0,1,64,30.75H61.25Z"/><path d="M76,74.75H28a1.75,1.75,0,0,0,0,3.5H76a1.75,1.75,0,0,0,0-3.5Z"/><path d="M28,67.25h72a1.75,1.75,0,0,0,0-3.5H28a1.75,1.75,0,0,0,0,3.5Z"/><path d="M100,74.75H88a1.75,1.75,0,0,0,0,3.5h12a1.75,1.75,0,0,0,0-3.5Z"/></g></svg>
