<?xml version="1.0" encoding="UTF-8"?>
<svg xmlns="http://www.w3.org/2000/svg" width="512" height="512" viewBox="0 0 128 128"><g><path d="M75.75,32A11.75,11.75,0,1,0,64,43.75,11.763,11.763,0,0,0,75.75,32Zm-20,0A8.25,8.25,0,1,1,64,40.25,8.259,8.259,0,0,1,55.75,32Z"/><path d="M118,69.25H94A4.756,4.756,0,0,0,89.25,74v4.25h-8.5V74A4.756,4.756,0,0,0,76,69.25H65.75V58.75h1.759a1.75,1.75,0,0,0,1.737-1.54l.6-4.991a20.893,20.893,0,0,0,4.3-1.779l3.928,3.123A1.752,1.752,0,0,0,80.4,53.43l5-5a1.75,1.75,0,0,0,.14-2.317l-3.1-3.957a20.854,20.854,0,0,0,1.782-4.295L89.2,37.3a1.75,1.75,0,0,0,1.551-1.739V28.491a1.75,1.75,0,0,0-1.54-1.737l-4.991-.6a20.893,20.893,0,0,0-1.779-4.3l3.123-3.928A1.75,1.75,0,0,0,85.43,15.6l-5-5a1.751,1.751,0,0,0-2.317-.14l-3.957,3.1a20.854,20.854,0,0,0-4.3-1.782L69.3,6.8A1.75,1.75,0,0,0,67.556,5.25H60.491a1.75,1.75,0,0,0-1.737,1.54l-.6,4.991a20.893,20.893,0,0,0-4.3,1.779l-3.928-3.122a1.749,1.749,0,0,0-2.326.132l-5,5a1.75,1.75,0,0,0-.14,2.317l3.1,3.957a20.854,20.854,0,0,0-1.782,4.3l-4.985.57a1.75,1.75,0,0,0-1.551,1.739v7.065a1.75,1.75,0,0,0,1.54,1.737l4.991.6a20.893,20.893,0,0,0,1.779,4.3l-3.122,3.928A1.749,1.749,0,0,0,42.57,48.4l5,5a1.748,1.748,0,0,0,2.317.14l3.957-3.1a20.854,20.854,0,0,0,4.295,1.782l.57,4.985a1.75,1.75,0,0,0,1.739,1.551H62.25v10.5H52A4.756,4.756,0,0,0,47.25,74v4.25h-8.5V74A4.756,4.756,0,0,0,34,69.25H10A4.756,4.756,0,0,0,5.25,74V86A4.756,4.756,0,0,0,10,90.75H20.25V112A1.751,1.751,0,0,0,22,113.75H47.25V118A4.756,4.756,0,0,0,52,122.75H76A4.756,4.756,0,0,0,80.75,118v-4.25H106a1.751,1.751,0,0,0,1.75-1.75V90.75H118A4.756,4.756,0,0,0,122.75,86V74A4.756,4.756,0,0,0,118,69.25ZM61.476,50.621a1.748,1.748,0,0,0-1.354-1.508,17.4,17.4,0,0,1-5.485-2.275,1.752,1.752,0,0,0-2.016.1l-3.677,2.884-2.8-2.794,2.9-3.649a1.75,1.75,0,0,0,.109-2.024,17.4,17.4,0,0,1-2.273-5.486,1.748,1.748,0,0,0-1.5-1.353l-4.638-.56V30.005l4.629-.529a1.748,1.748,0,0,0,1.508-1.354,17.4,17.4,0,0,1,2.275-5.485,1.75,1.75,0,0,0-.1-2.016l-2.884-3.677,2.794-2.795,3.649,2.9a1.747,1.747,0,0,0,2.024.109,17.4,17.4,0,0,1,5.486-2.273,1.748,1.748,0,0,0,1.353-1.5l.56-4.638H66l.529,4.629a1.748,1.748,0,0,0,1.354,1.508,17.4,17.4,0,0,1,5.485,2.275,1.749,1.749,0,0,0,2.016-.1l3.677-2.884,2.8,2.794-2.9,3.649a1.75,1.75,0,0,0-.109,2.024,17.4,17.4,0,0,1,2.273,5.486,1.748,1.748,0,0,0,1.5,1.353l4.638.56v3.953l-4.629.529a1.748,1.748,0,0,0-1.508,1.354,17.4,17.4,0,0,1-2.275,5.485,1.75,1.75,0,0,0,.1,2.016l2.884,3.677-2.794,2.8-3.649-2.9a1.751,1.751,0,0,0-2.024-.109,17.4,17.4,0,0,1-5.486,2.273,1.748,1.748,0,0,0-1.353,1.5l-.56,4.638H62.005ZM50.75,74A1.25,1.25,0,0,1,52,72.75H76A1.25,1.25,0,0,1,77.25,74V86A1.25,1.25,0,0,1,76,87.25H52A1.25,1.25,0,0,1,50.75,86Zm-42,12V74A1.251,1.251,0,0,1,10,72.75H34A1.25,1.25,0,0,1,35.25,74V86A1.25,1.25,0,0,1,34,87.25H10A1.251,1.251,0,0,1,8.75,86Zm15,24.25V90.75H34A4.756,4.756,0,0,0,38.75,86V81.75h8.5V86A4.756,4.756,0,0,0,52,90.75H62.25v10.5H52A4.756,4.756,0,0,0,47.25,106v4.25ZM77.25,118A1.25,1.25,0,0,1,76,119.25H52A1.25,1.25,0,0,1,50.75,118V106A1.25,1.25,0,0,1,52,104.75H76A1.25,1.25,0,0,1,77.25,106Zm27-7.75H80.75V106A4.756,4.756,0,0,0,76,101.25H65.75V90.75H76A4.756,4.756,0,0,0,80.75,86V81.75h8.5V86A4.756,4.756,0,0,0,94,90.75h10.25Zm15-24.25A1.251,1.251,0,0,1,118,87.25H94A1.25,1.25,0,0,1,92.75,86V74A1.25,1.25,0,0,1,94,72.75h24A1.251,1.251,0,0,1,119.25,74Z"/></g></svg>
