<?xml version="1.0" encoding="UTF-8"?>
<svg xmlns="http://www.w3.org/2000/svg" width="512" height="512" viewBox="0 0 128 128"><g><path d="M117,20.75H92.75V9.5A1.749,1.749,0,0,0,91,7.75H37A1.749,1.749,0,0,0,35.25,9.5V20.75H11A5.756,5.756,0,0,0,5.25,26.5v74A5.756,5.756,0,0,0,11,106.25H50.25v10.5H40.063a1.75,1.75,0,1,0,0,3.5H87.936a1.75,1.75,0,0,0,0-3.5H77.75v-10.5H117a5.756,5.756,0,0,0,5.75-5.75v-74A5.756,5.756,0,0,0,117,20.75ZM37,43.25H48.75v8.5H37a1.749,1.749,0,0,0-1.75,1.75V63.988a6.75,6.75,0,1,0,3.5,0V55.25H50.5a1.749,1.749,0,0,0,1.75-1.75V43.25h10V63.988a6.75,6.75,0,1,0,3.5,0V43.25h10V53.5a1.749,1.749,0,0,0,1.75,1.75H89.25v8.738a6.75,6.75,0,1,0,3.5,0V53.5A1.749,1.749,0,0,0,91,51.75H79.25v-8.5H91a1.749,1.749,0,0,0,1.75-1.75V30.25h20.5v58.5H14.75V30.25h20.5V41.5A1.749,1.749,0,0,0,37,43.25Zm0,24a3.25,3.25,0,1,1-3.25,3.25A3.254,3.254,0,0,1,37,67.25Zm27,0a3.25,3.25,0,1,1-3.25,3.25A3.254,3.254,0,0,1,64,67.25Zm27,0a3.25,3.25,0,1,1-3.25,3.25A3.254,3.254,0,0,1,91,67.25Zm-52.25-56h50.5v28.5H38.75Zm35.5,105.5H53.75v-10.5h20.5Zm45-16.25a2.253,2.253,0,0,1-2.25,2.25H11a2.253,2.253,0,0,1-2.25-2.25v-74A2.253,2.253,0,0,1,11,24.25H35.25v2.5H13a1.749,1.749,0,0,0-1.75,1.75v62A1.749,1.749,0,0,0,13,92.25H115a1.749,1.749,0,0,0,1.75-1.75v-62A1.749,1.749,0,0,0,115,26.75H92.75v-2.5H117a2.253,2.253,0,0,1,2.25,2.25Z"/><path d="M47.75,33.25A1.749,1.749,0,0,0,49.5,31.5V27.25H55V31.5a1.75,1.75,0,0,0,3.5,0v-9a4.756,4.756,0,0,0-4.75-4.75h-3A4.756,4.756,0,0,0,46,22.5v9A1.749,1.749,0,0,0,47.75,33.25Zm3-12h3A1.251,1.251,0,0,1,55,22.5v1.25H49.5V22.5A1.25,1.25,0,0,1,50.75,21.25Z"/><path d="M80.25,33.25A1.749,1.749,0,0,0,82,31.5v-12a1.75,1.75,0,0,0-3.5,0v12A1.749,1.749,0,0,0,80.25,33.25Z"/><path d="M64.75,33.25A1.749,1.749,0,0,0,66.5,31.5V27.25h2.75a4.75,4.75,0,0,0,0-9.5h-4.5A1.749,1.749,0,0,0,63,19.5v12A1.749,1.749,0,0,0,64.75,33.25Zm1.75-12h2.75a1.25,1.25,0,0,1,0,2.5H66.5Z"/></g></svg>
