<?xml version="1.0" encoding="UTF-8"?>
<svg xmlns="http://www.w3.org/2000/svg" width="512" height="512" viewBox="0 0 128 128"><g><path d="M117,14.25H11A5.757,5.757,0,0,0,5.25,20V94A5.757,5.757,0,0,0,11,99.75H50.25v10.5H40.063a1.75,1.75,0,1,0,0,3.5H87.936a1.75,1.75,0,0,0,0-3.5H77.75V99.75H117A5.757,5.757,0,0,0,122.75,94V20A5.757,5.757,0,0,0,117,14.25Zm-42.75,96H53.75V99.75h20.5Zm45-16.25A2.253,2.253,0,0,1,117,96.25H11A2.253,2.253,0,0,1,8.75,94V20A2.253,2.253,0,0,1,11,17.75H117A2.253,2.253,0,0,1,119.25,20Z"/><path d="M115,20.25H13A1.75,1.75,0,0,0,11.25,22V84A1.75,1.75,0,0,0,13,85.75H115A1.75,1.75,0,0,0,116.75,84V22A1.75,1.75,0,0,0,115,20.25Zm-1.75,62H14.75V23.75h98.5Z"/><path d="M63.79,57.544,67.555,58A17.041,17.041,0,0,0,68.83,61.08l-2.354,2.962a1.75,1.75,0,0,0,.133,2.326l4,4a1.749,1.749,0,0,0,2.318.14l2.984-2.341a16.972,16.972,0,0,0,3.08,1.278l.429,3.757a1.75,1.75,0,0,0,1.739,1.552h5.652a1.75,1.75,0,0,0,1.737-1.54L89,69.445a17.05,17.05,0,0,0,3.082-1.275l2.96,2.354a1.751,1.751,0,0,0,2.327-.132l4-4a1.751,1.751,0,0,0,.14-2.318l-2.341-2.984a17.013,17.013,0,0,0,1.278-3.08l3.758-.43a1.75,1.75,0,0,0,1.551-1.738V50.193a1.751,1.751,0,0,0-1.54-1.737L100.445,48A17.041,17.041,0,0,0,99.17,44.92l2.354-2.962a1.75,1.75,0,0,0-.133-2.326l-4-4a1.749,1.749,0,0,0-2.317-.14l-2.984,2.341a16.972,16.972,0,0,0-3.08-1.278L88.584,32.8a1.75,1.75,0,0,0-1.739-1.552H81.193a1.749,1.749,0,0,0-1.737,1.54L79,36.555a17.071,17.071,0,0,0-3.081,1.275l-2.961-2.354a1.747,1.747,0,0,0-2.326.132l-4,4a1.751,1.751,0,0,0-.14,2.318l2.341,2.984a16.942,16.942,0,0,0-1.278,3.08l-3.758.43a1.749,1.749,0,0,0-1.551,1.738v5.652A1.75,1.75,0,0,0,63.79,57.544Zm1.96-5.827,3.393-.389a1.749,1.749,0,0,0,1.508-1.352,13.567,13.567,0,0,1,1.774-4.28,1.749,1.749,0,0,0-.1-2.015l-2.116-2.7L72,39.188l2.674,2.126a1.752,1.752,0,0,0,2.024.109,13.557,13.557,0,0,1,4.279-1.774,1.749,1.749,0,0,0,1.353-1.5l.411-3.4h2.54l.387,3.393a1.749,1.749,0,0,0,1.355,1.508A13.546,13.546,0,0,1,91.3,41.426a1.752,1.752,0,0,0,2.015-.1l2.7-2.116,1.8,1.8-2.125,2.674a1.748,1.748,0,0,0-.109,2.023,13.636,13.636,0,0,1,1.773,4.28,1.75,1.75,0,0,0,1.5,1.353l3.4.411v2.539l-3.393.389a1.749,1.749,0,0,0-1.508,1.352,13.567,13.567,0,0,1-1.774,4.28,1.749,1.749,0,0,0,.1,2.015l2.115,2.7-1.8,1.8-2.674-2.127a1.758,1.758,0,0,0-2.024-.109,13.567,13.567,0,0,1-4.279,1.774,1.749,1.749,0,0,0-1.353,1.5l-.411,3.4h-2.54l-.387-3.393a1.749,1.749,0,0,0-1.355-1.508A13.546,13.546,0,0,1,76.7,64.574a1.751,1.751,0,0,0-2.015.1l-2.7,2.116-1.8-1.8,2.126-2.674a1.748,1.748,0,0,0,.109-2.023,13.636,13.636,0,0,1-1.773-4.28,1.75,1.75,0,0,0-1.5-1.353l-3.4-.411Z"/><path d="M84,62.75A9.75,9.75,0,1,0,74.25,53,9.761,9.761,0,0,0,84,62.75Zm0-16A6.25,6.25,0,1,1,77.75,53,6.257,6.257,0,0,1,84,46.75Z"/><path d="M24,42.75h8A1.75,1.75,0,0,0,33.75,41V33A1.75,1.75,0,0,0,32,31.25H24A1.75,1.75,0,0,0,22.25,33v8A1.75,1.75,0,0,0,24,42.75Zm1.75-8h4.5v4.5h-4.5Z"/><path d="M24,74.75h8A1.75,1.75,0,0,0,33.75,73V65A1.75,1.75,0,0,0,32,63.25H24A1.75,1.75,0,0,0,22.25,65v8A1.75,1.75,0,0,0,24,74.75Zm1.75-8h4.5v4.5h-4.5Z"/><path d="M24,58.75h8A1.75,1.75,0,0,0,33.75,57V49A1.75,1.75,0,0,0,32,47.25H24A1.75,1.75,0,0,0,22.25,49v8A1.75,1.75,0,0,0,24,58.75Zm1.75-8h4.5v4.5h-4.5Z"/><path d="M40,42.75h8A1.75,1.75,0,0,0,49.75,41V33A1.75,1.75,0,0,0,48,31.25H40A1.75,1.75,0,0,0,38.25,33v8A1.75,1.75,0,0,0,40,42.75Zm1.75-8h4.5v4.5h-4.5Z"/><path d="M40,74.75h8A1.75,1.75,0,0,0,49.75,73V65A1.75,1.75,0,0,0,48,63.25H40A1.75,1.75,0,0,0,38.25,65v8A1.75,1.75,0,0,0,40,74.75Zm1.75-8h4.5v4.5h-4.5Z"/><path d="M40,58.75h8A1.75,1.75,0,0,0,49.75,57V49A1.75,1.75,0,0,0,48,47.25H40A1.75,1.75,0,0,0,38.25,49v8A1.75,1.75,0,0,0,40,58.75Zm1.75-8h4.5v4.5h-4.5Z"/></g></svg>
