<?xml version="1.0" encoding="UTF-8"?>
<svg xmlns="http://www.w3.org/2000/svg" width="512" height="512" viewBox="0 0 128 128"><g><path d="M89.21,58.754l-4.991-.6a20.893,20.893,0,0,0-1.779-4.3l3.123-3.928A1.75,1.75,0,0,0,85.43,47.6l-5-5a1.75,1.75,0,0,0-2.317-.14l-3.957,3.1a20.854,20.854,0,0,0-4.3-1.782L69.3,38.8a1.75,1.75,0,0,0-1.739-1.551H60.491a1.75,1.75,0,0,0-1.737,1.54l-.6,4.991a20.893,20.893,0,0,0-4.3,1.779l-3.928-3.122a1.749,1.749,0,0,0-2.326.132l-5,5a1.75,1.75,0,0,0-.14,2.317l3.1,3.957a20.854,20.854,0,0,0-1.782,4.295l-4.985.57a1.75,1.75,0,0,0-1.551,1.739v7.065a1.75,1.75,0,0,0,1.54,1.737l4.991.6a20.893,20.893,0,0,0,1.779,4.3l-3.122,3.928A1.749,1.749,0,0,0,42.57,80.4l5,5a1.748,1.748,0,0,0,2.317.14l3.957-3.1a20.854,20.854,0,0,0,4.295,1.782l.57,4.985a1.75,1.75,0,0,0,1.739,1.551h7.065a1.75,1.75,0,0,0,1.737-1.54l.6-4.991a20.893,20.893,0,0,0,4.3-1.779l3.928,3.123A1.752,1.752,0,0,0,80.4,85.43l5-5a1.75,1.75,0,0,0,.14-2.317l-3.1-3.957a20.854,20.854,0,0,0,1.782-4.3L89.2,69.3a1.75,1.75,0,0,0,1.551-1.739V60.491A1.75,1.75,0,0,0,89.21,58.754ZM87.25,66l-4.629.529a1.748,1.748,0,0,0-1.508,1.354,17.4,17.4,0,0,1-2.275,5.485,1.75,1.75,0,0,0,.1,2.016l2.884,3.677-2.794,2.8-3.649-2.9a1.75,1.75,0,0,0-2.024-.109,17.4,17.4,0,0,1-5.486,2.273,1.748,1.748,0,0,0-1.353,1.5l-.56,4.638H62.005l-.529-4.629a1.748,1.748,0,0,0-1.354-1.508,17.4,17.4,0,0,1-5.485-2.275,1.752,1.752,0,0,0-2.016.1l-3.677,2.884-2.8-2.794,2.9-3.649a1.75,1.75,0,0,0,.109-2.024,17.4,17.4,0,0,1-2.273-5.486,1.748,1.748,0,0,0-1.5-1.353l-4.638-.56V62.005l4.629-.529a1.748,1.748,0,0,0,1.508-1.354,17.4,17.4,0,0,1,2.275-5.485,1.75,1.75,0,0,0-.1-2.016l-2.884-3.677,2.794-2.8,3.649,2.9a1.748,1.748,0,0,0,2.024.109,17.4,17.4,0,0,1,5.486-2.273,1.748,1.748,0,0,0,1.353-1.5l.56-4.638H66l.529,4.629a1.748,1.748,0,0,0,1.354,1.508,17.4,17.4,0,0,1,5.485,2.275,1.75,1.75,0,0,0,2.016-.1l3.677-2.884,2.8,2.794-2.9,3.649a1.75,1.75,0,0,0-.109,2.024,17.4,17.4,0,0,1,2.273,5.486,1.748,1.748,0,0,0,1.5,1.353l4.638.56Z"/><path d="M93,5.25H35A5.757,5.757,0,0,0,29.25,11V117A5.757,5.757,0,0,0,35,122.75H93A5.757,5.757,0,0,0,98.75,117V11A5.757,5.757,0,0,0,93,5.25ZM76.066,8.75l-.649,6.5H52.583l-.649-6.5ZM95.25,117A2.252,2.252,0,0,1,93,119.25H35A2.252,2.252,0,0,1,32.75,117V11A2.252,2.252,0,0,1,35,8.75H48.416l.843,8.424A1.749,1.749,0,0,0,51,18.75H77a1.749,1.749,0,0,0,1.741-1.576l.843-8.424H93A2.252,2.252,0,0,1,95.25,11Z"/><path d="M69.676,109.25H58.324a1.75,1.75,0,0,0,0,3.5H69.676a1.75,1.75,0,0,0,0-3.5Z"/><path d="M64,52.25A11.75,11.75,0,1,0,75.75,64,11.763,11.763,0,0,0,64,52.25Zm0,20A8.25,8.25,0,1,1,72.25,64,8.259,8.259,0,0,1,64,72.25Z"/></g></svg>
