<?xml version="1.0" encoding="UTF-8"?>
<svg xmlns="http://www.w3.org/2000/svg" width="512" height="512" viewBox="0 0 128 128"><g><path d="M100,101.25a7.757,7.757,0,0,0-7.543,6H80.75V88.75H91A4.756,4.756,0,0,0,95.75,84V70a4.749,4.749,0,0,0-3-4.406V58.406a4.749,4.749,0,0,0,3-4.406V40a4.749,4.749,0,0,0-3-4.406V28.406a4.749,4.749,0,0,0,3-4.406V10A4.756,4.756,0,0,0,91,5.25H37A4.756,4.756,0,0,0,32.25,10V24a4.749,4.749,0,0,0,3,4.406v7.188a4.749,4.749,0,0,0-3,4.406V54a4.749,4.749,0,0,0,3,4.406v7.188a4.749,4.749,0,0,0-3,4.406V84A4.756,4.756,0,0,0,37,88.75H47.25v18.5H35.543a7.75,7.75,0,1,0,0,3.5H49A1.75,1.75,0,0,0,50.75,109V88.75h11.5v18.707a7.75,7.75,0,1,0,3.5,0V88.75h11.5V109A1.75,1.75,0,0,0,79,110.75H92.457a7.747,7.747,0,1,0,7.543-9.5Zm-72,12A4.25,4.25,0,1,1,32.25,109,4.255,4.255,0,0,1,28,113.25ZM68.25,115A4.25,4.25,0,1,1,64,110.75,4.255,4.255,0,0,1,68.25,115ZM35.75,40A1.25,1.25,0,0,1,37,38.75H91A1.251,1.251,0,0,1,92.25,40V54A1.251,1.251,0,0,1,91,55.25H37A1.25,1.25,0,0,1,35.75,54Zm53.5-11.25v6.5H38.75v-6.5Zm0,30v6.5H38.75v-6.5ZM35.75,10A1.251,1.251,0,0,1,37,8.75H91A1.252,1.252,0,0,1,92.25,10V24A1.251,1.251,0,0,1,91,25.25H37A1.25,1.25,0,0,1,35.75,24Zm0,74V70A1.25,1.25,0,0,1,37,68.75H91A1.251,1.251,0,0,1,92.25,70V84A1.251,1.251,0,0,1,91,85.25H37A1.25,1.25,0,0,1,35.75,84ZM100,113.25a4.25,4.25,0,1,1,4.25-4.25A4.255,4.255,0,0,1,100,113.25Z"/><path d="M46,18.75h6a1.75,1.75,0,0,0,0-3.5H46a1.75,1.75,0,0,0,0,3.5Z"/><path d="M46,48.75h6a1.75,1.75,0,0,0,0-3.5H46a1.75,1.75,0,0,0,0,3.5Z"/><path d="M52,75.25H46a1.75,1.75,0,0,0,0,3.5h6a1.75,1.75,0,0,0,0-3.5Z"/></g></svg>
