<?xml version="1.0" encoding="UTF-8"?>
<svg xmlns="http://www.w3.org/2000/svg" width="512" height="512" viewBox="0 0 128 128"><g><path d="M117,10.25H11A5.756,5.756,0,0,0,5.25,16v96A5.756,5.756,0,0,0,11,117.75H117a5.756,5.756,0,0,0,5.75-5.75V16A5.756,5.756,0,0,0,117,10.25ZM11,13.75H117A2.253,2.253,0,0,1,119.25,16V32.25H8.75V16A2.253,2.253,0,0,1,11,13.75Zm106,100.5H11A2.253,2.253,0,0,1,8.75,112V35.75h110.5V112A2.253,2.253,0,0,1,117,114.25Z"/><circle cx="18" cy="23" r="2.5"/><circle cx="28" cy="23" r="2.5"/><circle cx="38" cy="23" r="2.5"/><path d="M38.25,50.75H39.5V61A1.75,1.75,0,0,0,43,61V49a1.749,1.749,0,0,0-1.75-1.75h-3a1.75,1.75,0,0,0,0,3.5Z"/><path d="M32,51.25a4,4,0,0,0-4-4H25a4,4,0,0,0-4,4v7.5a4,4,0,0,0,4,4h3a4,4,0,0,0,4-4Zm-3.5,7.5a.5.5,0,0,1-.5.5H25a.5.5,0,0,1-.5-.5v-7.5a.5.5,0,0,1,.5-.5h3a.5.5,0,0,1,.5.5Z"/><path d="M64.75,50.75H66V61a1.75,1.75,0,0,0,3.5,0V49a1.749,1.749,0,0,0-1.75-1.75h-3a1.75,1.75,0,0,0,0,3.5Z"/><path d="M58.5,51.25a4,4,0,0,0-4-4h-3a4,4,0,0,0-4,4v7.5a4,4,0,0,0,4,4h3a4,4,0,0,0,4-4ZM55,58.75a.5.5,0,0,1-.5.5h-3a.5.5,0,0,1-.5-.5v-7.5a.5.5,0,0,1,.5-.5h3a.5.5,0,0,1,.5.5Z"/><path d="M91.25,50.75H92.5V61A1.75,1.75,0,0,0,96,61V49a1.749,1.749,0,0,0-1.75-1.75h-3a1.75,1.75,0,0,0,0,3.5Z"/><path d="M105.25,47.25h-3a1.75,1.75,0,0,0,0,3.5h1.25V61a1.75,1.75,0,0,0,3.5,0V49A1.749,1.749,0,0,0,105.25,47.25Z"/><path d="M85,51.25a4,4,0,0,0-4-4H78a4,4,0,0,0-4,4v7.5a4,4,0,0,0,4,4h3a4,4,0,0,0,4-4Zm-3.5,7.5a.5.5,0,0,1-.5.5H78a.5.5,0,0,1-.5-.5v-7.5a.5.5,0,0,1,.5-.5h3a.5.5,0,0,1,.5.5Z"/><path d="M25.75,87.25h-3a1.75,1.75,0,0,0,0,3.5H24V101a1.75,1.75,0,0,0,3.5,0V89A1.749,1.749,0,0,0,25.75,87.25Z"/><path d="M36.75,87.25h-3a1.75,1.75,0,0,0,0,3.5H35V101a1.75,1.75,0,0,0,3.5,0V89A1.749,1.749,0,0,0,36.75,87.25Z"/><path d="M63.25,87.25h-3a1.75,1.75,0,0,0,0,3.5H61.5V101a1.75,1.75,0,0,0,3.5,0V89A1.749,1.749,0,0,0,63.25,87.25Z"/><path d="M50,87.25H47a4,4,0,0,0-4,4v7.5a4,4,0,0,0,4,4h3a4,4,0,0,0,4-4v-7.5A4,4,0,0,0,50,87.25Zm.5,11.5a.5.5,0,0,1-.5.5H47a.5.5,0,0,1-.5-.5v-7.5a.5.5,0,0,1,.5-.5h3a.5.5,0,0,1,.5.5Z"/><path d="M89.75,87.25h-3a1.75,1.75,0,0,0,0,3.5H88V101a1.75,1.75,0,0,0,3.5,0V89A1.749,1.749,0,0,0,89.75,87.25Z"/><path d="M76.5,87.25h-3a4,4,0,0,0-4,4v7.5a4,4,0,0,0,4,4h3a4,4,0,0,0,4-4v-7.5A4,4,0,0,0,76.5,87.25Zm.5,11.5a.5.5,0,0,1-.5.5h-3a.5.5,0,0,1-.5-.5v-7.5a.5.5,0,0,1,.5-.5h3a.5.5,0,0,1,.5.5Z"/><path d="M103,87.25h-3a4,4,0,0,0-4,4v7.5a4,4,0,0,0,4,4h3a4,4,0,0,0,4-4v-7.5A4,4,0,0,0,103,87.25Zm.5,11.5a.5.5,0,0,1-.5.5h-3a.5.5,0,0,1-.5-.5v-7.5a.5.5,0,0,1,.5-.5h3a.5.5,0,0,1,.5.5Z"/><path d="M43,71.25a4,4,0,0,0-4-4H36a4,4,0,0,0-4,4v7.5a4,4,0,0,0,4,4h3a4,4,0,0,0,4-4Zm-3.5,7.5a.5.5,0,0,1-.5.5H36a.5.5,0,0,1-.5-.5v-7.5a.5.5,0,0,1,.5-.5h3a.5.5,0,0,1,.5.5Z"/><path d="M25.75,67.25h-3a1.75,1.75,0,0,0,0,3.5H24V81a1.75,1.75,0,0,0,3.5,0V69A1.749,1.749,0,0,0,25.75,67.25Z"/><path d="M69.5,71.25a4,4,0,0,0-4-4h-3a4,4,0,0,0-4,4v7.5a4,4,0,0,0,4,4h3a4,4,0,0,0,4-4ZM66,78.75a.5.5,0,0,1-.5.5h-3a.5.5,0,0,1-.5-.5v-7.5a.5.5,0,0,1,.5-.5h3a.5.5,0,0,1,.5.5Z"/><path d="M52.25,67.25h-3a1.75,1.75,0,0,0,0,3.5H50.5V81A1.75,1.75,0,0,0,54,81V69A1.749,1.749,0,0,0,52.25,67.25Z"/><path d="M96,71.25a4,4,0,0,0-4-4H89a4,4,0,0,0-4,4v7.5a4,4,0,0,0,4,4h3a4,4,0,0,0,4-4Zm-3.5,7.5a.5.5,0,0,1-.5.5H89a.5.5,0,0,1-.5-.5v-7.5a.5.5,0,0,1,.5-.5h3a.5.5,0,0,1,.5.5Z"/><path d="M78.75,67.25h-3a1.75,1.75,0,0,0,0,3.5H77V81a1.75,1.75,0,0,0,3.5,0V69A1.749,1.749,0,0,0,78.75,67.25Z"/><path d="M105.25,67.25h-3a1.75,1.75,0,0,0,0,3.5h1.25V81a1.75,1.75,0,0,0,3.5,0V69A1.749,1.749,0,0,0,105.25,67.25Z"/></g></svg>
