<?xml version="1.0" encoding="UTF-8"?>
<svg xmlns="http://www.w3.org/2000/svg" width="512" height="512" viewBox="0 0 128 128"><g><path d="M117,10.25H11A5.757,5.757,0,0,0,5.25,16v96A5.757,5.757,0,0,0,11,117.75H117a5.757,5.757,0,0,0,5.75-5.75V16A5.757,5.757,0,0,0,117,10.25ZM11,13.75H117A2.252,2.252,0,0,1,119.25,16V32.25H8.75V16A2.252,2.252,0,0,1,11,13.75Zm106,100.5H11A2.252,2.252,0,0,1,8.75,112V35.75h110.5V112A2.252,2.252,0,0,1,117,114.25Z"/><circle cx="18" cy="23" r="2.5"/><circle cx="28" cy="23" r="2.5"/><circle cx="38" cy="23" r="2.5"/><path d="M79.75,85.75H89a1.75,1.75,0,0,0,0-3.5H79.75V80a15.763,15.763,0,0,0-.343-3.259l5.763-.813a1.75,1.75,0,0,0,1.153-.678L90.4,69.855a1.75,1.75,0,1,0-2.793-2.11l-3.638,4.819-5.7.8a15.817,15.817,0,0,0-4.937-6.028,10.711,10.711,0,0,0-2.13-13.3l3.274-5.093a1.75,1.75,0,0,0-2.944-1.892l-3.267,5.081a10.7,10.7,0,0,0-8.522,0l-3.267-5.081a1.75,1.75,0,0,0-2.944,1.892L56.8,54.039a10.711,10.711,0,0,0-2.13,13.3,15.817,15.817,0,0,0-4.937,6.028l-5.7-.8L40.4,67.745a1.75,1.75,0,1,0-2.793,2.11l4.074,5.395a1.75,1.75,0,0,0,1.153.678l5.763.813A15.763,15.763,0,0,0,48.25,80v2.25H39a1.75,1.75,0,0,0,0,3.5h9.25V88a15.763,15.763,0,0,0,.343,3.259l-5.763.813a1.75,1.75,0,0,0-1.153.678L37.6,98.145a1.75,1.75,0,0,0,2.793,2.11l3.639-4.819,5.7-.8a15.718,15.718,0,0,0,28.53,0l5.7.8,3.638,4.819a1.75,1.75,0,1,0,2.793-2.11L86.323,92.75a1.75,1.75,0,0,0-1.153-.678l-5.763-.813A15.763,15.763,0,0,0,79.75,88ZM56.75,62A7.25,7.25,0,1,1,70.3,65.576a15.648,15.648,0,0,0-12.608,0A7.262,7.262,0,0,1,56.75,62Zm-5,26V80a12.257,12.257,0,0,1,10.5-12.11v32.22A12.257,12.257,0,0,1,51.75,88Zm14,12.11V67.89A12.257,12.257,0,0,1,76.25,80v8A12.257,12.257,0,0,1,65.75,100.11Z"/></g></svg>
