<?xml version="1.0" encoding="UTF-8"?>
<svg xmlns="http://www.w3.org/2000/svg" width="512" height="512" viewBox="0 0 128 128"><g><path d="M121,8.25H27A5.757,5.757,0,0,0,21.25,14V24.25H11A5.757,5.757,0,0,0,5.25,30V96A1.75,1.75,0,0,0,7,97.75H21.25V118a1.75,1.75,0,0,0,2.933,1.29l23.5-21.54H101A5.757,5.757,0,0,0,106.75,92V81.75H117A5.757,5.757,0,0,0,122.75,76V10A1.75,1.75,0,0,0,121,8.25ZM103.25,92A2.253,2.253,0,0,1,101,94.25H47a1.753,1.753,0,0,0-1.183.46L24.75,114.022V96A1.75,1.75,0,0,0,23,94.25H8.75V30A2.253,2.253,0,0,1,11,27.75h92.25Zm16-16A2.253,2.253,0,0,1,117,78.25H106.75V26A1.75,1.75,0,0,0,105,24.25H24.75V14A2.253,2.253,0,0,1,27,11.75h92.25Z"/><path d="M22.61,68.706l7.976,1.821A20.76,20.76,0,0,0,49,81.75H63A20.757,20.757,0,0,0,81.413,70.527l7.977-1.821A1.751,1.751,0,0,0,90.75,67V55a1.751,1.751,0,0,0-1.36-1.706l-2.14-.488V42a1.75,1.75,0,0,0-3.5,0V52.007l-2.337-.534A20.757,20.757,0,0,0,63,40.25H49A20.76,20.76,0,0,0,30.586,51.473l-2.336.534V42a1.75,1.75,0,0,0-3.5,0V52.806l-2.14.488A1.75,1.75,0,0,0,21.25,55V67A1.75,1.75,0,0,0,22.61,68.706ZM87.25,56.4v9.21l-4.285.978a20.246,20.246,0,0,0,0-11.166ZM49,43.75H63a17.25,17.25,0,0,1,0,34.5H49a17.25,17.25,0,0,1,0-34.5ZM24.75,56.4l4.285-.978a20.246,20.246,0,0,0,0,11.166l-4.285-.978Z"/><path d="M49,69.75h3a1.748,1.748,0,0,0,1.7-1.326l.669-2.674h3.268l.669,2.674A1.748,1.748,0,0,0,60,69.75h3a8.75,8.75,0,0,0,0-17.5H49a8.75,8.75,0,0,0,0,17.5Zm0-14H63a5.25,5.25,0,0,1,0,10.5H61.366L60.7,63.576A1.748,1.748,0,0,0,59,62.25H53a1.748,1.748,0,0,0-1.7,1.326l-.669,2.674H49a5.25,5.25,0,0,1,0-10.5Z"/></g></svg>
