<?xml version="1.0" encoding="UTF-8"?>
<svg xmlns="http://www.w3.org/2000/svg" width="512" height="512" viewBox="0 0 128 128"><g><path d="M117,10.25H11A5.757,5.757,0,0,0,5.25,16v96A5.757,5.757,0,0,0,11,117.75H117a5.757,5.757,0,0,0,5.75-5.75V16A5.757,5.757,0,0,0,117,10.25ZM119.25,112a2.253,2.253,0,0,1-2.25,2.25H11A2.253,2.253,0,0,1,8.75,112V35.75h110.5Zm0-79.75H8.75V16A2.253,2.253,0,0,1,11,13.75H117A2.253,2.253,0,0,1,119.25,16Z"/><circle cx="18" cy="23" r="2.5"/><circle cx="28" cy="23" r="2.5"/><circle cx="38" cy="23" r="2.5"/><path d="M29.349,63.065a1.748,1.748,0,0,0,2.474,0l5.657-5.656a1.75,1.75,0,1,0-2.475-2.474l-4.419,4.418L29,57.763a1.75,1.75,0,0,0-2.475,2.474Z"/><path d="M32,71.75A12.75,12.75,0,1,0,19.25,59,12.765,12.765,0,0,0,32,71.75Zm0-22A9.25,9.25,0,1,1,22.75,59,9.26,9.26,0,0,1,32,49.75Z"/><path d="M29.349,95.065a1.748,1.748,0,0,0,2.474,0l5.657-5.656a1.75,1.75,0,1,0-2.475-2.474l-4.419,4.418L29,89.763a1.75,1.75,0,0,0-2.475,2.474Z"/><path d="M32,103.75A12.75,12.75,0,1,0,19.25,91,12.765,12.765,0,0,0,32,103.75Zm0-22A9.25,9.25,0,1,1,22.75,91,9.26,9.26,0,0,1,32,81.75Z"/><path d="M53,55.75h54a1.75,1.75,0,0,0,0-3.5H53a1.75,1.75,0,0,0,0,3.5Z"/><path d="M53,65.75H80a1.75,1.75,0,0,0,0-3.5H53a1.75,1.75,0,0,0,0,3.5Z"/><path d="M53,87.75h54a1.75,1.75,0,0,0,0-3.5H53a1.75,1.75,0,0,0,0,3.5Z"/><path d="M53,97.75H80a1.75,1.75,0,0,0,0-3.5H53a1.75,1.75,0,0,0,0,3.5Z"/></g></svg>
