<?xml version="1.0" encoding="UTF-8"?>
<svg xmlns="http://www.w3.org/2000/svg" width="512" height="512" viewBox="0 0 128 128"><path d="M87.75,81.75H98a24.75,24.75,0,0,0,.469-49.5,36.75,36.75,0,0,0-68.938,0A24.75,24.75,0,0,0,30,81.75H40.25v16.5H33.543a7.75,7.75,0,1,0,0,3.5H42A1.75,1.75,0,0,0,43.75,100V81.75h18.5v22.707a7.75,7.75,0,1,0,3.5,0V81.75h18.5V100A1.75,1.75,0,0,0,86,101.75h8.457a7.75,7.75,0,1,0,0-3.5H87.75ZM26,104.25A4.25,4.25,0,1,1,30.25,100,4.255,4.255,0,0,1,26,104.25ZM68.25,112A4.25,4.25,0,1,1,64,107.75,4.255,4.255,0,0,1,68.25,112Zm-2.5-33.75V64.543a7.75,7.75,0,1,0-3.5,0V78.25H43.75V64.543a7.75,7.75,0,1,0-3.5,0V78.25H30a21.25,21.25,0,0,1,0-42.5c.183,0,.365.007.547.013l.164.006a1.753,1.753,0,0,0,1.719-1.2,33.248,33.248,0,0,1,63.14,0,1.781,1.781,0,0,0,1.719,1.2l.164-.006c.182-.006.364-.013.547-.013a21.25,21.25,0,0,1,0,42.5H87.75V64.543a7.75,7.75,0,1,0-3.5,0V78.25ZM64,61.25A4.25,4.25,0,1,1,68.25,57,4.255,4.255,0,0,1,64,61.25Zm-22,0A4.25,4.25,0,1,1,46.25,57,4.255,4.255,0,0,1,42,61.25Zm44,0A4.25,4.25,0,1,1,90.25,57,4.255,4.255,0,0,1,86,61.25Zm16,34.5A4.25,4.25,0,1,1,97.75,100,4.255,4.255,0,0,1,102,95.75Z"/></svg>
