<svg height="512" viewBox="0 0 128 128" width="512" xmlns="http://www.w3.org/2000/svg"><g><path d="m117 10.25h-106a5.757 5.757 0 0 0 -5.75 5.75v96a5.757 5.757 0 0 0 5.75 5.75h106a5.757 5.757 0 0 0 5.75-5.75v-96a5.757 5.757 0 0 0 -5.75-5.75zm-106 3.5h106a2.253 2.253 0 0 1 2.25 2.25v16.25h-110.5v-16.25a2.252 2.252 0 0 1 2.25-2.25zm106 100.5h-106a2.252 2.252 0 0 1 -2.25-2.25v-76.25h110.5v76.25a2.253 2.253 0 0 1 -2.25 2.25z"/><circle cx="18" cy="23" r="2.5"/><circle cx="28" cy="23" r="2.5"/><circle cx="38" cy="23" r="2.5"/><path d="m108.081 73.624-14-11a1.75 1.75 0 1 0 -2.162 2.752l12.248 9.624-12.248 9.624a1.75 1.75 0 1 0 2.162 2.752l14-11a1.75 1.75 0 0 0 0-2.752z"/><path d="m36.376 62.919a1.748 1.748 0 0 0 -2.457-.295l-14 11a1.75 1.75 0 0 0 0 2.752l14 11a1.75 1.75 0 0 0 2.162-2.752l-12.249-9.624 12.249-9.624a1.75 1.75 0 0 0 .295-2.457z"/><path d="m69.589 59.352a1.747 1.747 0 0 0 -2.237 1.06l-10 28a1.749 1.749 0 0 0 1.06 2.236 1.731 1.731 0 0 0 .588.1 1.75 1.75 0 0 0 1.648-1.163l10-28a1.749 1.749 0 0 0 -1.059-2.233z"/><path d="m54 73.25h-14a1.75 1.75 0 0 0 0 3.5h14a1.75 1.75 0 0 0 0-3.5z"/><path d="m88 73.25h-14a1.75 1.75 0 0 0 0 3.5h14a1.75 1.75 0 0 0 0-3.5z"/></g></svg>