<svg height="512" viewBox="0 0 128 128" width="512" xmlns="http://www.w3.org/2000/svg"><g><path d="m117 14.25h-106a5.756 5.756 0 0 0 -5.75 5.75v74a5.756 5.756 0 0 0 5.75 5.75h39.25v10.5h-10.187a1.75 1.75 0 1 0 0 3.5h47.873a1.75 1.75 0 0 0 0-3.5h-10.186v-10.5h39.25a5.756 5.756 0 0 0 5.75-5.75v-74a5.756 5.756 0 0 0 -5.75-5.75zm-42.75 96h-20.5v-10.5h20.5zm45-16.25a2.253 2.253 0 0 1 -2.25 2.25h-106a2.253 2.253 0 0 1 -2.25-2.25v-74a2.253 2.253 0 0 1 2.25-2.25h106a2.253 2.253 0 0 1 2.25 2.25z"/><path d="m115 20.25h-102a1.749 1.749 0 0 0 -1.75 1.75v62a1.749 1.749 0 0 0 1.75 1.75h102a1.749 1.749 0 0 0 1.75-1.75v-62a1.749 1.749 0 0 0 -1.75-1.75zm-1.75 62h-98.5v-58.5h98.5z"/></g></svg>