<?xml version="1.0" encoding="UTF-8"?>
<svg xmlns="http://www.w3.org/2000/svg" width="512" height="512" viewBox="0 0 128 128"><g><path d="M117,23.25H105.75V7A1.75,1.75,0,0,0,104,5.25H24A1.751,1.751,0,0,0,22.25,7V23.25H11A5.757,5.757,0,0,0,5.25,29v74A5.757,5.757,0,0,0,11,108.75H50.25v10.5H40.063a1.75,1.75,0,1,0,0,3.5H87.936a1.75,1.75,0,0,0,0-3.5H77.75v-10.5H117a5.757,5.757,0,0,0,5.75-5.75V29A5.757,5.757,0,0,0,117,23.25Zm-11.25,9.5h7.5v58.5h-7.5Zm-3.5-24v82.5H25.75V8.75Zm-87.5,82.5V32.75h7.5v58.5Zm59.5,28H53.75v-10.5h20.5Zm45-16.25a2.253,2.253,0,0,1-2.25,2.25H11A2.252,2.252,0,0,1,8.75,103V29A2.252,2.252,0,0,1,11,26.75H22.25v2.5H13A1.751,1.751,0,0,0,11.25,31V93A1.751,1.751,0,0,0,13,94.75H115A1.75,1.75,0,0,0,116.75,93V31A1.75,1.75,0,0,0,115,29.25h-9.25v-2.5H117A2.253,2.253,0,0,1,119.25,29Z"/><path d="M34,46.75H64A1.751,1.751,0,0,0,65.75,45V17A1.751,1.751,0,0,0,64,15.25H34A1.751,1.751,0,0,0,32.25,17V45A1.751,1.751,0,0,0,34,46.75Zm1.75-3.5V35.475l5.75-5.75,6.263,6.262a1.748,1.748,0,0,0,2.474,0L56.5,29.725l5.75,5.75V43.25Zm26.5-24.5V30.525l-4.513-4.512a1.748,1.748,0,0,0-2.474,0L49,32.275l-6.263-6.262a1.748,1.748,0,0,0-2.474,0L35.75,30.525V18.75Z"/><path d="M94,53.25H64A1.751,1.751,0,0,0,62.25,55V83A1.751,1.751,0,0,0,64,84.75H94A1.75,1.75,0,0,0,95.75,83V55A1.75,1.75,0,0,0,94,53.25Zm-1.75,3.5V68.525l-4.513-4.512a1.748,1.748,0,0,0-2.474,0L79,70.275l-6.263-6.262a1.748,1.748,0,0,0-2.474,0L65.75,68.525V56.75Zm-26.5,24.5V73.475l5.75-5.75,6.263,6.262a1.748,1.748,0,0,0,2.474,0L86.5,67.725l5.75,5.75V81.25Z"/><path d="M74,18.75H94a1.75,1.75,0,0,0,0-3.5H74a1.75,1.75,0,0,0,0,3.5Z"/><path d="M74,28.083H84a1.75,1.75,0,0,0,0-3.5H74a1.75,1.75,0,0,0,0,3.5Z"/><path d="M74,46.75H84a1.75,1.75,0,0,0,0-3.5H74a1.75,1.75,0,0,0,0,3.5Z"/><path d="M74,37.417H94a1.75,1.75,0,0,0,0-3.5H74a1.75,1.75,0,0,0,0,3.5Z"/><path d="M34,56.75H54a1.75,1.75,0,0,0,0-3.5H34a1.75,1.75,0,0,0,0,3.5Z"/><path d="M34,66.083H44a1.75,1.75,0,0,0,0-3.5H34a1.75,1.75,0,0,0,0,3.5Z"/><path d="M34,84.75H44a1.75,1.75,0,0,0,0-3.5H34a1.75,1.75,0,0,0,0,3.5Z"/><path d="M34,75.417H54a1.75,1.75,0,0,0,0-3.5H34a1.75,1.75,0,0,0,0,3.5Z"/></g></svg>
