<svg height="512" viewBox="0 0 128 128" width="512" xmlns="http://www.w3.org/2000/svg"><g><path d="m104.894 21.419-13.313-13.313a9.686 9.686 0 0 0 -6.895-2.856h-62.686a1.751 1.751 0 0 0 -1.75 1.75v114a1.751 1.751 0 0 0 1.75 1.75h84a1.751 1.751 0 0 0 1.75-1.75v-92.686a9.686 9.686 0 0 0 -2.856-6.895zm-3.119 1.831h-12.025v-12.025zm-78.025 96v-36.5h80.5v36.5zm80.5-40h-80.5v-70.5h60.25a2.252 2.252 0 0 1 2.25 2.25v14a1.751 1.751 0 0 0 1.75 1.75h14a2.252 2.252 0 0 1 2.25 2.25z"/><path d="m43.75 95.75h7a1.75 1.75 0 0 0 0-3.5h-7a5.256 5.256 0 0 0 -5.25 5.25v7a5.256 5.256 0 0 0 5.25 5.25h7a1.75 1.75 0 0 0 0-3.5h-7a1.752 1.752 0 0 1 -1.75-1.75v-7a1.752 1.752 0 0 1 1.75-1.75z"/><path d="m80.75 95.75h7a1.75 1.75 0 0 0 0-3.5h-7a5.25 5.25 0 0 0 0 10.5h3.5a1.75 1.75 0 0 1 0 3.5h-7a1.75 1.75 0 0 0 0 3.5h7a5.25 5.25 0 0 0 0-10.5h-3.5a1.75 1.75 0 0 1 0-3.5z"/><path d="m62.25 95.75h7a1.75 1.75 0 0 0 0-3.5h-7a5.25 5.25 0 0 0 0 10.5h3.5a1.75 1.75 0 0 1 0 3.5h-7a1.75 1.75 0 0 0 0 3.5h7a5.25 5.25 0 0 0 0-10.5h-3.5a1.75 1.75 0 0 1 0-3.5z"/><path d="m68.874 39.352a1.749 1.749 0 0 0 -2.236 1.06l-8.572 24a1.75 1.75 0 0 0 1.06 2.236 1.731 1.731 0 0 0 .588.1 1.75 1.75 0 0 0 1.648-1.163l8.572-24a1.75 1.75 0 0 0 -1.06-2.233z"/><path d="m47.862 48.5.006-4.838a.919.919 0 0 1 .917-.916h2.67a1.75 1.75 0 0 0 0-3.5h-2.67a4.423 4.423 0 0 0 -4.417 4.412l-.005 4.027-4.7 3.974a1.752 1.752 0 0 0 0 2.674l4.7 3.974.005 4.027a4.423 4.423 0 0 0 4.417 4.412h2.67a1.75 1.75 0 0 0 0-3.5h-2.67a.919.919 0 0 1 -.917-.916l-.006-4.83a1.747 1.747 0 0 0 -.62-1.335l-3.742-3.165 3.743-3.161a1.747 1.747 0 0 0 .619-1.339z"/><path d="m83.637 47.689v-4.027a4.423 4.423 0 0 0 -4.417-4.412h-2.67a1.75 1.75 0 0 0 0 3.5h2.67a.919.919 0 0 1 .917.916l.006 4.838a1.747 1.747 0 0 0 .62 1.335l3.737 3.161-3.743 3.161a1.747 1.747 0 0 0 -.62 1.335l-.006 4.838a.919.919 0 0 1 -.917.916h-2.67a1.75 1.75 0 0 0 0 3.5h2.67a4.423 4.423 0 0 0 4.417-4.412v-4.027l4.7-3.974a1.752 1.752 0 0 0 0-2.674z"/></g></svg>