<?xml version="1.0" encoding="UTF-8"?>
<svg xmlns="http://www.w3.org/2000/svg" width="512" height="512" viewBox="0 0 128 128"><g><path d="M45.927,75.75A11.75,11.75,0,1,0,34.177,64,11.765,11.765,0,0,0,45.927,75.75Zm0-20A8.25,8.25,0,1,1,37.677,64,8.259,8.259,0,0,1,45.927,55.75Z"/><path d="M92.75,65.75h14.707a7.75,7.75,0,1,0,0-3.5H92.75V37.75h8.707a7.75,7.75,0,1,0,0-3.5H92.75V28.314a9.682,9.682,0,0,0-2.856-6.894L76.58,8.105A9.685,9.685,0,0,0,69.686,5.25H7A1.749,1.749,0,0,0,5.25,7V121A1.749,1.749,0,0,0,7,122.75H91A1.749,1.749,0,0,0,92.75,121V93.75h8.707a7.75,7.75,0,1,0,0-3.5H92.75Zm22.25-6A4.25,4.25,0,1,1,110.75,64,4.254,4.254,0,0,1,115,59.75Zm-6-28A4.25,4.25,0,1,1,104.75,36,4.254,4.254,0,0,1,109,31.75Zm0,56A4.25,4.25,0,1,1,104.75,92,4.254,4.254,0,0,1,109,87.75Zm-19.75,2.5h-14.6l-8.572-8.572,1.244-1.244a1.751,1.751,0,0,0,.14-2.318l-3.1-3.957a20.928,20.928,0,0,0,1.783-4.294l4.983-.57a1.749,1.749,0,0,0,1.552-1.738V65.75H89.25ZM31.085,73.358a17.409,17.409,0,0,1-2.273-5.487,1.746,1.746,0,0,0-1.5-1.353l-4.638-.561V62.005l4.628-.529a1.749,1.749,0,0,0,1.508-1.353,17.4,17.4,0,0,1,2.276-5.486,1.752,1.752,0,0,0-.1-2.016L28.1,48.944l2.795-2.8,3.648,2.9a1.75,1.75,0,0,0,2.023.109,17.388,17.388,0,0,1,5.488-2.272,1.75,1.75,0,0,0,1.353-1.5l.561-4.639h3.952l.529,4.628a1.749,1.749,0,0,0,1.354,1.509,17.4,17.4,0,0,1,5.485,2.275,1.749,1.749,0,0,0,2.016-.1l3.676-2.885,2.8,2.8-2.9,3.647a1.75,1.75,0,0,0-.109,2.024,17.406,17.406,0,0,1,2.272,5.487,1.747,1.747,0,0,0,1.5,1.353l4.639.561V66l-4.628.529a1.749,1.749,0,0,0-1.509,1.354,17.4,17.4,0,0,1-2.275,5.485,1.75,1.75,0,0,0,.1,2.016l2.885,3.677-2.8,2.8-3.647-2.9a1.753,1.753,0,0,0-2.024-.109A17.383,17.383,0,0,1,49.8,81.114a1.749,1.749,0,0,0-1.354,1.5l-.56,4.639H43.932l-.53-4.628a1.749,1.749,0,0,0-1.353-1.509,17.413,17.413,0,0,1-5.486-2.275,1.752,1.752,0,0,0-2.015.1l-3.677,2.885-2.795-2.8,2.9-3.647A1.753,1.753,0,0,0,31.085,73.358ZM89.25,62.25H72.677V60.491a1.749,1.749,0,0,0-1.54-1.737l-4.992-.6a20.888,20.888,0,0,0-1.778-4.3l3.122-3.927a1.749,1.749,0,0,0-.133-2.326l-1.277-1.278,8.572-8.572h14.6Zm-2.475-39H74.75V11.225Zm2.475,96H8.75V8.75H69A2.253,2.253,0,0,1,71.25,11V25A1.749,1.749,0,0,0,73,26.75H87A2.253,2.253,0,0,1,89.25,29v5.25H73.927a1.754,1.754,0,0,0-1.238.513L63.6,43.848,62.36,42.6a1.751,1.751,0,0,0-2.317-.139l-3.957,3.1a20.98,20.98,0,0,0-4.294-1.782l-.57-4.983a1.75,1.75,0,0,0-1.739-1.552H42.418a1.749,1.749,0,0,0-1.737,1.54l-.6,4.991a20.924,20.924,0,0,0-4.3,1.779l-3.928-3.122a1.748,1.748,0,0,0-2.326.132l-5,5a1.751,1.751,0,0,0-.139,2.318l3.1,3.956a20.906,20.906,0,0,0-1.781,4.295l-4.985.57a1.749,1.749,0,0,0-1.551,1.738v7.066a1.749,1.749,0,0,0,1.54,1.737l4.991.6a20.944,20.944,0,0,0,1.778,4.3l-3.122,3.927A1.749,1.749,0,0,0,24.5,80.4l5,5a1.749,1.749,0,0,0,2.317.139l3.958-3.1a20.972,20.972,0,0,0,4.293,1.782l.571,4.983A1.748,1.748,0,0,0,42.37,90.75h7.065a1.751,1.751,0,0,0,1.738-1.54l.6-4.991a20.924,20.924,0,0,0,4.3-1.779L60,85.563a1.749,1.749,0,0,0,2.326-.133L63.6,84.152l9.085,9.085a1.754,1.754,0,0,0,1.238.513H89.25Z"/></g></svg>
