<?xml version="1.0" encoding="UTF-8"?>
<svg xmlns="http://www.w3.org/2000/svg" width="512" height="512" viewBox="0 0 128 128"><g><path d="M117,10.25H11A5.757,5.757,0,0,0,5.25,16v96A5.757,5.757,0,0,0,11,117.75H117a5.757,5.757,0,0,0,5.75-5.75V16A5.757,5.757,0,0,0,117,10.25ZM11,13.75H117A2.253,2.253,0,0,1,119.25,16V32.25H8.75V16A2.253,2.253,0,0,1,11,13.75Zm106,100.5H11A2.253,2.253,0,0,1,8.75,112V35.75h110.5V112A2.253,2.253,0,0,1,117,114.25Z"/><circle cx="18" cy="23" r="2.5"/><circle cx="28" cy="23" r="2.5"/><circle cx="38" cy="23" r="2.5"/><path d="M29.25,91.75h4.5a1.75,1.75,0,0,0,0-3.5h-4.5A4.756,4.756,0,0,0,24.5,93v6a4.756,4.756,0,0,0,4.75,4.75h4.5a1.75,1.75,0,0,0,0-3.5h-4.5A1.25,1.25,0,0,1,28,99V97.75h5.75a1.75,1.75,0,0,0,0-3.5H28V93A1.25,1.25,0,0,1,29.25,91.75Z"/><path d="M81.75,88.25h-3A4.756,4.756,0,0,0,74,93v6a4.756,4.756,0,0,0,4.75,4.75h3A4.756,4.756,0,0,0,86.5,99V93A4.756,4.756,0,0,0,81.75,88.25ZM83,99a1.251,1.251,0,0,1-1.25,1.25h-3A1.25,1.25,0,0,1,77.5,99V93a1.25,1.25,0,0,1,1.25-1.25h3A1.251,1.251,0,0,1,83,93Z"/><path d="M52.5,93a4.756,4.756,0,0,0-4.75-4.75h-6A1.75,1.75,0,0,0,40,90v12a1.75,1.75,0,0,0,3.5,0V97.75h3.168l2.517,5.033a1.75,1.75,0,0,0,3.13-1.566l-2.091-4.182A4.734,4.734,0,0,0,52.5,93Zm-9-1.25h4.25a1.25,1.25,0,0,1,0,2.5H43.5Z"/><path d="M69.5,93a4.756,4.756,0,0,0-4.75-4.75h-6A1.75,1.75,0,0,0,57,90v12a1.75,1.75,0,0,0,3.5,0V97.75h3.168l2.517,5.033a1.75,1.75,0,0,0,3.13-1.566l-2.091-4.182A4.734,4.734,0,0,0,69.5,93Zm-9-1.25h4.25a1.25,1.25,0,0,1,0,2.5H60.5Z"/><path d="M103.5,93a4.756,4.756,0,0,0-4.75-4.75h-6A1.75,1.75,0,0,0,91,90v12a1.75,1.75,0,0,0,3.5,0V97.75h3.168l2.517,5.033a1.75,1.75,0,0,0,3.13-1.566l-2.091-4.182A4.734,4.734,0,0,0,103.5,93Zm-9-1.25h4.25a1.25,1.25,0,0,1,0,2.5H94.5Z"/><path d="M64,81.75A17.75,17.75,0,1,0,46.25,64,17.77,17.77,0,0,0,64,81.75Zm0-32A14.25,14.25,0,1,1,49.75,64,14.267,14.267,0,0,1,64,49.75Z"/><path d="M57.105,70.894a1.749,1.749,0,0,0,2.475,0L64,66.475l4.42,4.419a1.75,1.75,0,1,0,2.474-2.475L66.475,64l4.419-4.419a1.75,1.75,0,1,0-2.474-2.475L64,61.525l-4.42-4.419a1.75,1.75,0,0,0-2.475,2.475L61.525,64l-4.42,4.419A1.751,1.751,0,0,0,57.105,70.894Z"/></g></svg>
