<svg height="512" viewBox="0 0 128 128" width="512" xmlns="http://www.w3.org/2000/svg"><g><path d="m106.163 20.274-12.34-12.339a9.1 9.1 0 0 0 -6.479-2.685h-58.1a1.749 1.749 0 0 0 -1.75 1.75v6.592h-6.594a1.749 1.749 0 0 0 -1.75 1.75v105.658a1.749 1.749 0 0 0 1.75 1.75h77.856a1.749 1.749 0 0 0 1.75-1.75v-6.592h6.594a1.75 1.75 0 0 0 1.75-1.75v-85.9a9.223 9.223 0 0 0 -2.687-6.484zm-3.292 1.659h-10.706v-10.707zm-5.865 97.317h-74.354v-102.158h4.842v95.566a1.749 1.749 0 0 0 1.75 1.75h67.762zm8.342-8.342h-74.354v-102.158h55.713a1.96 1.96 0 0 1 1.958 1.957v12.976a1.75 1.75 0 0 0 1.75 1.75h12.976a1.959 1.959 0 0 1 1.957 1.958z"/><path d="m92.171 58.079h-48a1.75 1.75 0 0 0 0 3.5h48a1.75 1.75 0 0 0 0-3.5z"/><path d="m92.171 46.03h-48a1.75 1.75 0 1 0 0 3.5h48a1.75 1.75 0 1 0 0-3.5z"/><path d="m44.171 37.481h24a1.75 1.75 0 0 0 0-3.5h-24a1.75 1.75 0 0 0 0 3.5z"/><path d="m92.171 82.177h-48a1.75 1.75 0 0 0 0 3.5h48a1.75 1.75 0 0 0 0-3.5z"/><path d="m92.171 70.128h-48a1.75 1.75 0 0 0 0 3.5h48a1.75 1.75 0 0 0 0-3.5z"/></g></svg>