<svg height="512" viewBox="0 0 128 128" width="512" xmlns="http://www.w3.org/2000/svg"><g><path d="m106.163 20.274-12.34-12.339a9.1 9.1 0 0 0 -6.479-2.685h-58.1a1.75 1.75 0 0 0 -1.75 1.75v6.591h-6.594a1.751 1.751 0 0 0 -1.75 1.75v105.659a1.751 1.751 0 0 0 1.75 1.75h77.856a1.75 1.75 0 0 0 1.75-1.75v-6.591h6.594a1.751 1.751 0 0 0 1.75-1.75v-85.9a9.106 9.106 0 0 0 -2.687-6.485zm-3.29 1.659h-10.708v-10.707zm-5.867 97.317h-74.354v-102.159h4.842v95.568a1.75 1.75 0 0 0 1.75 1.75h67.762zm8.342-8.341h-74.354v-102.159h55.713a1.96 1.96 0 0 1 1.958 1.958v12.975a1.75 1.75 0 0 0 1.75 1.75h12.976a1.959 1.959 0 0 1 1.957 1.957z"/><path d="m88.629 38.785-20-5.428a1.757 1.757 0 0 0 -.916 0l-20 5.428a1.75 1.75 0 0 0 -1.291 1.689v17.756a27.818 27.818 0 0 0 14.543 24.458l6.37 3.461a1.747 1.747 0 0 0 1.672 0l6.37-3.461a27.819 27.819 0 0 0 14.544-24.458v-17.756a1.75 1.75 0 0 0 -1.292-1.689zm-2.208 19.445a24.318 24.318 0 0 1 -12.716 21.382l-5.534 3.008-5.535-3.008a24.318 24.318 0 0 1 -12.715-21.382v-16.417l18.25-4.953 18.25 4.953z"/><path d="m67.713 40.439-13.168 3.572a1.75 1.75 0 0 0 -1.291 1.689v12.53a20.989 20.989 0 0 0 10.973 18.454l3.108 1.689a1.754 1.754 0 0 0 1.672 0l3.106-1.689a20.987 20.987 0 0 0 10.975-18.454v-12.53a1.75 1.75 0 0 0 -1.288-1.689l-13.171-3.572a1.736 1.736 0 0 0 -.916 0zm11.875 6.6v11.191a17.488 17.488 0 0 1 -9.147 15.378l-2.27 1.235-2.271-1.235a17.49 17.49 0 0 1 -9.146-15.378v-11.191l11.417-3.1z"/><path d="m65.18 57.259a1.75 1.75 0 1 0 -2.475 2.474l2.818 2.819a1.749 1.749 0 0 0 2.475 0l5.639-5.638a1.75 1.75 0 0 0 -2.475-2.474l-4.4 4.4z"/></g></svg>