<svg height="512" viewBox="0 0 128 128" width="512" xmlns="http://www.w3.org/2000/svg"><g><path d="m106.163 20.274-12.339-12.339a9.1 9.1 0 0 0 -6.481-2.685h-58.1a1.751 1.751 0 0 0 -1.749 1.75v6.591h-6.594a1.751 1.751 0 0 0 -1.75 1.75v105.659a1.751 1.751 0 0 0 1.75 1.75h77.856a1.751 1.751 0 0 0 1.75-1.75v-6.591h6.594a1.751 1.751 0 0 0 1.75-1.75v-85.9a9.106 9.106 0 0 0 -2.687-6.485zm-3.29 1.659h-10.708v-10.708zm-5.867 97.317h-74.354v-102.159h4.842v95.568a1.751 1.751 0 0 0 1.75 1.75h67.762zm8.342-8.341h-74.354v-102.159h55.714a1.96 1.96 0 0 1 1.957 1.958v12.975a1.75 1.75 0 0 0 1.75 1.75h12.975a1.96 1.96 0 0 1 1.958 1.957z"/><path d="m81.408 43.092a1.749 1.749 0 0 0 -2.987 1.237v2.75h-14.25a1.751 1.751 0 0 0 -1.75 1.75v7a1.751 1.751 0 0 0 1.75 1.75h14.25v2.75a1.749 1.749 0 0 0 2.987 1.237l8-8a1.748 1.748 0 0 0 0-2.474zm.513 13.008v-.275a1.751 1.751 0 0 0 -1.75-1.75h-14.25v-3.5h14.25a1.751 1.751 0 0 0 1.75-1.75v-.275l3.779 3.779z"/><path d="m72.171 62.079h-14.25v-2.75a1.749 1.749 0 0 0 -2.987-1.237l-8 8a1.748 1.748 0 0 0 0 2.474l8 8a1.749 1.749 0 0 0 2.987-1.237v-2.75h14.25a1.751 1.751 0 0 0 1.75-1.75v-7a1.751 1.751 0 0 0 -1.75-1.75zm-1.75 7h-14.25a1.751 1.751 0 0 0 -1.75 1.75v.271l-3.775-3.775 3.775-3.775v.275a1.751 1.751 0 0 0 1.75 1.75h14.25z"/></g></svg>