<?xml version="1.0" encoding="UTF-8"?>
<svg xmlns="http://www.w3.org/2000/svg" width="512" height="512" viewBox="0 0 128 128"><g><path d="M97,106.25H91.75A1.752,1.752,0,0,1,90,104.5V94a1.75,1.75,0,0,0-3.5,0v10.5a5.256,5.256,0,0,0,5.25,5.25H97a1.75,1.75,0,0,0,0-3.5Z"/><path d="M60,92.25H49.5a1.75,1.75,0,0,0,0,3.5H53V108a1.75,1.75,0,0,0,3.5,0V95.75H60a1.75,1.75,0,0,0,0-3.5Z"/><path d="M41.5,92.25A1.75,1.75,0,0,0,39.75,94v5.25h-7V94a1.75,1.75,0,0,0-3.5,0v14a1.75,1.75,0,0,0,3.5,0v-5.25h7V108a1.75,1.75,0,0,0,3.5,0V94A1.75,1.75,0,0,0,41.5,92.25Z"/><path d="M80.706,92.31a1.751,1.751,0,0,0-1.968.808l-4.613,7.909-4.613-7.909A1.75,1.75,0,0,0,66.25,94v14a1.75,1.75,0,0,0,3.5,0v-7.527l2.863,4.909a1.751,1.751,0,0,0,3.024,0l2.863-4.909V108a1.75,1.75,0,0,0,3.5,0V94A1.751,1.751,0,0,0,80.706,92.31Z"/><path d="M58.831,42.919a1.75,1.75,0,0,0-2.458-.295l-11.454,9a1.75,1.75,0,0,0,0,2.752l11.454,9a1.75,1.75,0,1,0,2.163-2.752L48.832,53l9.7-7.624A1.75,1.75,0,0,0,58.831,42.919Z"/><path d="M83.081,51.624l-11.455-9a1.75,1.75,0,1,0-2.162,2.752L79.167,53l-9.7,7.624a1.75,1.75,0,1,0,2.162,2.752l11.455-9a1.75,1.75,0,0,0,0-2.752Z"/><path d="M104.894,21.42,91.581,8.105A9.691,9.691,0,0,0,84.686,5.25H22A1.75,1.75,0,0,0,20.25,7V121A1.75,1.75,0,0,0,22,122.75h84a1.75,1.75,0,0,0,1.75-1.75V28.314A9.682,9.682,0,0,0,104.894,21.42Zm-3.119,1.83H89.75V11.224Zm-78.025,96V82.75h80.5v36.5Zm80.5-40H23.75V8.75H84A2.253,2.253,0,0,1,86.25,11V25A1.75,1.75,0,0,0,88,26.75h14A2.253,2.253,0,0,1,104.25,29Z"/></g></svg>
