<svg height="512" viewBox="0 0 128 128" width="512" xmlns="http://www.w3.org/2000/svg"><g><path d="m52.83 42.919a1.751 1.751 0 0 0 -2.457-.295l-11.454 9a1.75 1.75 0 0 0 0 2.752l11.454 9a1.75 1.75 0 0 0 2.162-2.752l-9.703-7.624 9.7-7.624a1.749 1.749 0 0 0 .298-2.457z"/><path d="m89.081 51.624-11.454-9a1.75 1.75 0 0 0 -2.162 2.752l9.703 7.624-9.7 7.624a1.75 1.75 0 1 0 2.162 2.752l11.454-9a1.75 1.75 0 0 0 0-2.752z"/><path d="m68.875 39.352a1.752 1.752 0 0 0 -2.237 1.059l-8.573 24a1.751 1.751 0 1 0 3.3 1.178l8.573-24a1.751 1.751 0 0 0 -1.063-2.237z"/><path d="m104.894 21.419-13.314-13.313a9.682 9.682 0 0 0 -6.894-2.856h-62.686a1.75 1.75 0 0 0 -1.75 1.75v114a1.75 1.75 0 0 0 1.75 1.75h84a1.75 1.75 0 0 0 1.75-1.75v-92.686a9.686 9.686 0 0 0 -2.856-6.895zm-3.118 1.831h-12.026v-12.025zm-78.026 96v-36.5h80.5v36.5zm80.5-40h-80.5v-70.5h60.25a2.253 2.253 0 0 1 2.25 2.25v14a1.75 1.75 0 0 0 1.75 1.75h14a2.253 2.253 0 0 1 2.25 2.25z"/><path d="m70.625 95.75h7a1.75 1.75 0 0 0 0-3.5h-7a5.25 5.25 0 0 0 0 10.5h3.5a1.75 1.75 0 0 1 0 3.5h-7a1.75 1.75 0 0 0 0 3.5h7a5.25 5.25 0 0 0 0-10.5h-3.5a1.75 1.75 0 0 1 0-3.5z"/><path d="m59.125 92.25a1.75 1.75 0 0 0 -1.75 1.75v10.5a1.752 1.752 0 0 1 -1.75 1.75h-2.625a.877.877 0 0 1 -.875-.875v-.875a1.75 1.75 0 0 0 -3.5 0v.875a4.38 4.38 0 0 0 4.375 4.375h2.625a5.256 5.256 0 0 0 5.25-5.25v-10.5a1.75 1.75 0 0 0 -1.75-1.75z"/></g></svg>