<?xml version="1.0" encoding="UTF-8"?>
<svg xmlns="http://www.w3.org/2000/svg" width="512" height="512" viewBox="0 0 128 128"><g><path d="M117,57.25H106.932l-3.184-7.9a1.75,1.75,0,0,0-1.623-1.1H65.75V43A3.254,3.254,0,0,1,69,39.75h3a6.75,6.75,0,0,0,0-13.5H56A3.254,3.254,0,0,1,52.75,23V16a1.75,1.75,0,0,0-3.5,0v7A6.758,6.758,0,0,0,56,29.75H72a3.25,3.25,0,0,1,0,6.5H69A6.758,6.758,0,0,0,62.25,43v5.25H25.875a1.75,1.75,0,0,0-1.623,1.1l-3.184,7.9H11A5.757,5.757,0,0,0,5.25,63v45A5.757,5.757,0,0,0,11,113.75H117a5.756,5.756,0,0,0,5.75-5.75V63A5.756,5.756,0,0,0,117,57.25Zm-89.943-5.5h73.886l2.216,5.5H24.841ZM119.25,108a2.253,2.253,0,0,1-2.25,2.25H11A2.253,2.253,0,0,1,8.75,108V63A2.253,2.253,0,0,1,11,60.75H117A2.253,2.253,0,0,1,119.25,63Z"/><path d="M37.5,79.75H14.25A1.75,1.75,0,0,0,12.5,81.5v8a1.75,1.75,0,0,0,1.75,1.75H37.5a1.75,1.75,0,0,0,1.75-1.75v-8A1.75,1.75,0,0,0,37.5,79.75Zm-1.75,8H16v-4.5H35.75Z"/><path d="M113.75,79.75H90.5a1.749,1.749,0,0,0-1.75,1.75v8a1.749,1.749,0,0,0,1.75,1.75h23.25a1.749,1.749,0,0,0,1.75-1.75v-8A1.749,1.749,0,0,0,113.75,79.75Zm-1.75,8H92.25v-4.5H112Z"/><path d="M37.5,64.5h-8a1.75,1.75,0,0,0-1.75,1.75v8A1.75,1.75,0,0,0,29.5,76h8a1.75,1.75,0,0,0,1.75-1.75v-8A1.75,1.75,0,0,0,37.5,64.5Zm-1.75,8h-4.5V68h4.5Z"/><path d="M14.25,76h8A1.75,1.75,0,0,0,24,74.25v-8a1.75,1.75,0,0,0-1.75-1.75h-8a1.75,1.75,0,0,0-1.75,1.75v8A1.75,1.75,0,0,0,14.25,76ZM16,68h4.5v4.5H16Z"/><path d="M60,76h8a1.749,1.749,0,0,0,1.75-1.75v-8A1.749,1.749,0,0,0,68,64.5H60a1.75,1.75,0,0,0-1.75,1.75v8A1.75,1.75,0,0,0,60,76Zm1.75-8h4.5v4.5h-4.5Z"/><path d="M44.75,76h8a1.75,1.75,0,0,0,1.75-1.75v-8a1.75,1.75,0,0,0-1.75-1.75h-8A1.75,1.75,0,0,0,43,66.25v8A1.75,1.75,0,0,0,44.75,76Zm1.75-8H51v4.5H46.5Z"/><path d="M90.5,76h8a1.749,1.749,0,0,0,1.75-1.75v-8A1.749,1.749,0,0,0,98.5,64.5h-8a1.749,1.749,0,0,0-1.75,1.75v8A1.749,1.749,0,0,0,90.5,76Zm1.75-8h4.5v4.5h-4.5Z"/><path d="M83.25,64.5h-8a1.749,1.749,0,0,0-1.75,1.75v8A1.749,1.749,0,0,0,75.25,76h8A1.749,1.749,0,0,0,85,74.25v-8A1.749,1.749,0,0,0,83.25,64.5Zm-1.75,8H77V68h4.5Z"/><path d="M113.75,64.5h-8A1.749,1.749,0,0,0,104,66.25v8A1.749,1.749,0,0,0,105.75,76h8a1.749,1.749,0,0,0,1.75-1.75v-8A1.749,1.749,0,0,0,113.75,64.5Zm-1.75,8h-4.5V68H112Z"/><path d="M60,91.25h8a1.749,1.749,0,0,0,1.75-1.75v-8A1.749,1.749,0,0,0,68,79.75H60a1.75,1.75,0,0,0-1.75,1.75v8A1.75,1.75,0,0,0,60,91.25Zm1.75-8h4.5v4.5h-4.5Z"/><path d="M44.75,91.25h8A1.75,1.75,0,0,0,54.5,89.5v-8a1.75,1.75,0,0,0-1.75-1.75h-8A1.75,1.75,0,0,0,43,81.5v8A1.75,1.75,0,0,0,44.75,91.25Zm1.75-8H51v4.5H46.5Z"/><path d="M83.25,79.75h-8A1.749,1.749,0,0,0,73.5,81.5v8a1.749,1.749,0,0,0,1.75,1.75h8A1.749,1.749,0,0,0,85,89.5v-8A1.749,1.749,0,0,0,83.25,79.75Zm-1.75,8H77v-4.5h4.5Z"/><path d="M37.5,95h-8a1.75,1.75,0,0,0-1.75,1.75v8a1.75,1.75,0,0,0,1.75,1.75h8a1.75,1.75,0,0,0,1.75-1.75v-8A1.75,1.75,0,0,0,37.5,95Zm-1.75,8h-4.5V98.5h4.5Z"/><path d="M22.25,95h-8a1.75,1.75,0,0,0-1.75,1.75v8a1.75,1.75,0,0,0,1.75,1.75h8A1.75,1.75,0,0,0,24,104.75v-8A1.75,1.75,0,0,0,22.25,95Zm-1.75,8H16V98.5h4.5Z"/><path d="M83.25,95H44.75A1.75,1.75,0,0,0,43,96.75v8a1.75,1.75,0,0,0,1.75,1.75h38.5A1.749,1.749,0,0,0,85,104.75v-8A1.749,1.749,0,0,0,83.25,95Zm-1.75,8h-35V98.5h35Z"/><path d="M98.5,95h-8a1.749,1.749,0,0,0-1.75,1.75v8a1.749,1.749,0,0,0,1.75,1.75h8a1.749,1.749,0,0,0,1.75-1.75v-8A1.749,1.749,0,0,0,98.5,95Zm-1.75,8h-4.5V98.5h4.5Z"/><path d="M113.75,95h-8A1.749,1.749,0,0,0,104,96.75v8a1.749,1.749,0,0,0,1.75,1.75h8a1.749,1.749,0,0,0,1.75-1.75v-8A1.749,1.749,0,0,0,113.75,95ZM112,103h-4.5V98.5H112Z"/></g></svg>
