<?xml version="1.0" encoding="UTF-8"?>
<svg xmlns="http://www.w3.org/2000/svg" width="512" height="512" viewBox="0 0 128 128"><g><path d="M94,63.25H69a1.75,1.75,0,0,0,0,3.5H94a1.75,1.75,0,0,0,0-3.5Z"/><path d="M94,72.583H69a1.75,1.75,0,0,0,0,3.5H94a1.75,1.75,0,0,0,0-3.5Z"/><path d="M94,81.917H90a1.75,1.75,0,0,0,0,3.5h4a1.75,1.75,0,0,0,0-3.5Z"/><path d="M81,81.917H69a1.75,1.75,0,0,0,0,3.5H81a1.75,1.75,0,0,0,0-3.5Z"/><path d="M117,23.25H105.75V7A1.749,1.749,0,0,0,104,5.25H24A1.749,1.749,0,0,0,22.25,7V23.25H11A5.756,5.756,0,0,0,5.25,29v74A5.756,5.756,0,0,0,11,108.75H50.25v10.5H40.063a1.75,1.75,0,1,0,0,3.5H87.936a1.75,1.75,0,0,0,0-3.5H77.75v-10.5H117a5.756,5.756,0,0,0,5.75-5.75V29A5.756,5.756,0,0,0,117,23.25Zm-59.75,68H35.75V66.75h21.5Zm1.75-28H34A1.749,1.749,0,0,0,32.25,65V91.25h-6.5V22.75h76.5v68.5H60.75V65A1.749,1.749,0,0,0,59,63.25Zm-36.75,28h-7.5V32.75h7.5Zm83.5-58.5h7.5v58.5h-7.5Zm-3.5-24v10.5H25.75V8.75Zm-28,110.5H53.75v-10.5h20.5Zm45-16.25a2.253,2.253,0,0,1-2.25,2.25H11A2.253,2.253,0,0,1,8.75,103V29A2.253,2.253,0,0,1,11,26.75H22.25v2.5H13A1.749,1.749,0,0,0,11.25,31V93A1.749,1.749,0,0,0,13,94.75H115A1.749,1.749,0,0,0,116.75,93V31A1.749,1.749,0,0,0,115,29.25h-9.25v-2.5H117A2.253,2.253,0,0,1,119.25,29Z"/><path d="M95.75,55V31A1.749,1.749,0,0,0,94,29.25H34A1.749,1.749,0,0,0,32.25,31V55A1.749,1.749,0,0,0,34,56.75H94A1.749,1.749,0,0,0,95.75,55Zm-3.5-1.75H35.75V32.75h56.5Z"/></g></svg>
