<?xml version="1.0" encoding="UTF-8"?>
<svg xmlns="http://www.w3.org/2000/svg" width="512" height="512" viewBox="0 0 128 128"><g><path d="M117,10.25H11A5.757,5.757,0,0,0,5.25,16v96A5.757,5.757,0,0,0,11,117.75H117a5.757,5.757,0,0,0,5.75-5.75V16A5.757,5.757,0,0,0,117,10.25ZM11,13.75H117A2.253,2.253,0,0,1,119.25,16V32.25H8.75V16A2.253,2.253,0,0,1,11,13.75Zm106,100.5H11A2.253,2.253,0,0,1,8.75,112V35.75h110.5V112A2.253,2.253,0,0,1,117,114.25Z"/><circle cx="18" cy="23" r="2.5"/><circle cx="28" cy="23" r="2.5"/><circle cx="38" cy="23" r="2.5"/><path d="M21,54.75A1.75,1.75,0,0,0,22.75,53V49.75H26a1.75,1.75,0,0,0,0-3.5H21A1.75,1.75,0,0,0,19.25,48v5A1.75,1.75,0,0,0,21,54.75Z"/><path d="M107,95.25A1.75,1.75,0,0,0,105.25,97v3.25H102a1.75,1.75,0,0,0,0,3.5h5a1.75,1.75,0,0,0,1.75-1.75V97A1.75,1.75,0,0,0,107,95.25Z"/><path d="M107,46.25h-5a1.75,1.75,0,0,0,0,3.5h3.25V53a1.75,1.75,0,0,0,3.5,0V48A1.75,1.75,0,0,0,107,46.25Z"/><path d="M26,100.25H22.75V97a1.75,1.75,0,0,0-3.5,0v5A1.75,1.75,0,0,0,21,103.75h5a1.75,1.75,0,0,0,0-3.5Z"/><path d="M60,52.25H27A1.75,1.75,0,0,0,25.25,54V96A1.75,1.75,0,0,0,27,97.75H60A1.75,1.75,0,0,0,61.75,96V54A1.75,1.75,0,0,0,60,52.25Zm-1.75,42H28.75V55.75h29.5Z"/><path d="M68,73.75h33A1.75,1.75,0,0,0,102.75,72V54A1.75,1.75,0,0,0,101,52.25H68A1.75,1.75,0,0,0,66.25,54V72A1.75,1.75,0,0,0,68,73.75Zm1.75-18h29.5v14.5H69.75Z"/><path d="M101,78.25H80a1.75,1.75,0,0,0,0,3.5h21a1.75,1.75,0,0,0,0-3.5Z"/><path d="M68,81.75h4a1.75,1.75,0,0,0,0-3.5H68a1.75,1.75,0,0,0,0,3.5Z"/><path d="M102.75,96A1.75,1.75,0,0,0,101,94.25H97a1.75,1.75,0,0,0,0,3.5h4A1.75,1.75,0,0,0,102.75,96Z"/><path d="M68,89.75h33a1.75,1.75,0,0,0,0-3.5H68a1.75,1.75,0,0,0,0,3.5Z"/><path d="M89,94.25H68a1.75,1.75,0,0,0,0,3.5H89a1.75,1.75,0,0,0,0-3.5Z"/></g></svg>
