<?xml version="1.0" encoding="UTF-8"?>
<svg xmlns="http://www.w3.org/2000/svg" width="512" height="512" viewBox="0 0 128 128"><g><path d="M117,10.25H11A5.757,5.757,0,0,0,5.25,16v96A5.757,5.757,0,0,0,11,117.75H117a5.757,5.757,0,0,0,5.75-5.75V16A5.757,5.757,0,0,0,117,10.25ZM11,13.75H117A2.252,2.252,0,0,1,119.25,16V32.25H8.75V16A2.252,2.252,0,0,1,11,13.75Zm106,100.5H11A2.252,2.252,0,0,1,8.75,112V35.75h110.5V112A2.252,2.252,0,0,1,117,114.25Z"/><circle cx="18" cy="23" r="2.5"/><circle cx="28" cy="23" r="2.5"/><circle cx="38" cy="23" r="2.5"/><path d="M95,83.25H33a7.75,7.75,0,0,0,0,15.5H95a7.75,7.75,0,0,0,0-15.5Zm-36.65,3.5h11.3v8.5H58.35Zm-3.5,8.5H43.55v-8.5h11.3ZM28.75,91A4.255,4.255,0,0,1,33,86.75h7.05v8.5H33A4.255,4.255,0,0,1,28.75,91ZM95,95.25H73.15v-8.5H95a4.25,4.25,0,0,1,0,8.5Z"/><path d="M64,57.75A1.751,1.751,0,0,0,65.75,56V53a1.75,1.75,0,0,0-3.5,0v3A1.751,1.751,0,0,0,64,57.75Z"/><path d="M64,76.75A1.751,1.751,0,0,0,65.75,75V72a1.75,1.75,0,0,0-3.5,0v3A1.751,1.751,0,0,0,64,76.75Z"/><path d="M72,65.75h3a1.75,1.75,0,0,0,0-3.5H72a1.75,1.75,0,0,0,0,3.5Z"/><path d="M53,65.75h3a1.75,1.75,0,0,0,0-3.5H53a1.75,1.75,0,0,0,0,3.5Z"/><path d="M57.106,68.419l-2.122,2.122a1.75,1.75,0,0,0,2.475,2.475l2.122-2.122a1.75,1.75,0,1,0-2.475-2.475Z"/><path d="M70.541,73.016a1.75,1.75,0,1,0,2.475-2.475l-2.122-2.122a1.75,1.75,0,1,0-2.475,2.475Z"/><path d="M57.106,59.581a1.75,1.75,0,1,0,2.475-2.475l-2.122-2.122a1.75,1.75,0,0,0-2.475,2.475Z"/></g></svg>
