<?xml version="1.0" encoding="UTF-8"?>
<svg xmlns="http://www.w3.org/2000/svg" width="512" height="512" viewBox="0 0 128 128"><g><path d="M117,10.25H11A5.757,5.757,0,0,0,5.25,16v96A5.757,5.757,0,0,0,11,117.75H117a5.757,5.757,0,0,0,5.75-5.75V16A5.757,5.757,0,0,0,117,10.25ZM11,13.75H117A2.252,2.252,0,0,1,119.25,16V32.25H8.75V16A2.252,2.252,0,0,1,11,13.75Zm106,100.5H11A2.252,2.252,0,0,1,8.75,112V35.75h110.5V112A2.252,2.252,0,0,1,117,114.25Z"/><circle cx="18" cy="23" r="2.5"/><circle cx="28" cy="23" r="2.5"/><circle cx="38" cy="23" r="2.5"/><path d="M64,87.75A20.75,20.75,0,1,0,43.25,67,20.774,20.774,0,0,0,64,87.75Zm-9.5-6.366V79.336a4.937,4.937,0,0,1,3.921-4.815l2.737-.566a8.972,8.972,0,0,0,5.684,0l2.737.566a4.936,4.936,0,0,1,3.92,4.815v2.048a17.176,17.176,0,0,1-19,0ZM64,70.917a5.584,5.584,0,1,1,5.583-5.584A5.59,5.59,0,0,1,64,70.917ZM64,49.75A17.222,17.222,0,0,1,76.937,78.372a8.453,8.453,0,0,0-6.055-7.127,9.084,9.084,0,1,0-13.764,0,8.453,8.453,0,0,0-6.055,7.127A17.222,17.222,0,0,1,64,49.75Z"/><path d="M84,92.25H44A1.751,1.751,0,0,0,42.25,94v8A1.751,1.751,0,0,0,44,103.75H84A1.751,1.751,0,0,0,85.75,102V94A1.751,1.751,0,0,0,84,92.25Zm-1.75,8H45.75v-4.5h36.5Z"/></g></svg>
