<?xml version="1.0" encoding="UTF-8"?>
<svg xmlns="http://www.w3.org/2000/svg" width="512" height="512" viewBox="0 0 128 128"><g><path d="M93,5.25H35A5.757,5.757,0,0,0,29.25,11V117A5.757,5.757,0,0,0,35,122.75H93A5.757,5.757,0,0,0,98.75,117V11A5.757,5.757,0,0,0,93,5.25ZM76.066,8.75l-.65,6.5H52.584l-.65-6.5ZM95.25,117A2.253,2.253,0,0,1,93,119.25H35A2.253,2.253,0,0,1,32.75,117V11A2.253,2.253,0,0,1,35,8.75H48.416l.843,8.424A1.75,1.75,0,0,0,51,18.75H77a1.75,1.75,0,0,0,1.741-1.576l.843-8.424H93A2.253,2.253,0,0,1,95.25,11Z"/><path d="M69.676,109.25H58.324a1.75,1.75,0,0,0,0,3.5H69.676a1.75,1.75,0,0,0,0-3.5Z"/><path d="M88,57.25H78A1.75,1.75,0,0,0,76.25,59V69A1.75,1.75,0,0,0,78,70.75H88A1.75,1.75,0,0,0,89.75,69V59A1.75,1.75,0,0,0,88,57.25Zm-1.75,10h-6.5v-6.5h6.5Z"/><path d="M50,57.25H40A1.75,1.75,0,0,0,38.25,59V69A1.75,1.75,0,0,0,40,70.75H50A1.75,1.75,0,0,0,51.75,69V59A1.75,1.75,0,0,0,50,57.25Zm-1.75,10h-6.5v-6.5h6.5Z"/><path d="M59,70.75H69A1.75,1.75,0,0,0,70.75,69V59A1.75,1.75,0,0,0,69,57.25H59A1.75,1.75,0,0,0,57.25,59V69A1.75,1.75,0,0,0,59,70.75Zm1.75-10h6.5v6.5h-6.5Z"/><path d="M88,38.25H78A1.75,1.75,0,0,0,76.25,40V50A1.75,1.75,0,0,0,78,51.75H88A1.75,1.75,0,0,0,89.75,50V40A1.75,1.75,0,0,0,88,38.25Zm-1.75,10h-6.5v-6.5h6.5Z"/><path d="M50,38.25H40A1.75,1.75,0,0,0,38.25,40V50A1.75,1.75,0,0,0,40,51.75H50A1.75,1.75,0,0,0,51.75,50V40A1.75,1.75,0,0,0,50,38.25Zm-1.75,10h-6.5v-6.5h6.5Z"/><path d="M59,51.75H69A1.75,1.75,0,0,0,70.75,50V40A1.75,1.75,0,0,0,69,38.25H59A1.75,1.75,0,0,0,57.25,40V50A1.75,1.75,0,0,0,59,51.75Zm1.75-10h6.5v6.5h-6.5Z"/><path d="M88,76.25H78A1.75,1.75,0,0,0,76.25,78V88A1.75,1.75,0,0,0,78,89.75H88A1.75,1.75,0,0,0,89.75,88V78A1.75,1.75,0,0,0,88,76.25Zm-1.75,10h-6.5v-6.5h6.5Z"/><path d="M50,76.25H40A1.75,1.75,0,0,0,38.25,78V88A1.75,1.75,0,0,0,40,89.75H50A1.75,1.75,0,0,0,51.75,88V78A1.75,1.75,0,0,0,50,76.25Zm-1.75,10h-6.5v-6.5h6.5Z"/><path d="M59,89.75H69A1.75,1.75,0,0,0,70.75,88V78A1.75,1.75,0,0,0,69,76.25H59A1.75,1.75,0,0,0,57.25,78V88A1.75,1.75,0,0,0,59,89.75Zm1.75-10h6.5v6.5h-6.5Z"/></g></svg>
