<?xml version="1.0" encoding="UTF-8"?>
<svg xmlns="http://www.w3.org/2000/svg" width="512" height="512" viewBox="0 0 128 128"><g><path d="M117,14.25H11A5.756,5.756,0,0,0,5.25,20V94A5.756,5.756,0,0,0,11,99.75H50.25v10.5H40.063a1.75,1.75,0,1,0,0,3.5H87.936a1.75,1.75,0,0,0,0-3.5H77.75V99.75H117A5.756,5.756,0,0,0,122.75,94V20A5.756,5.756,0,0,0,117,14.25Zm-42.75,96H53.75V99.75h20.5Zm45-16.25A2.253,2.253,0,0,1,117,96.25H11A2.253,2.253,0,0,1,8.75,94V20A2.253,2.253,0,0,1,11,17.75H117A2.253,2.253,0,0,1,119.25,20Z"/><path d="M115,20.25H13A1.749,1.749,0,0,0,11.25,22V84A1.749,1.749,0,0,0,13,85.75H115A1.749,1.749,0,0,0,116.75,84V22A1.749,1.749,0,0,0,115,20.25Zm-1.75,62H14.75V23.75h98.5Z"/><path d="M101.75,69V37A1.749,1.749,0,0,0,100,35.25H28A1.749,1.749,0,0,0,26.25,37V69A1.749,1.749,0,0,0,28,70.75h72A1.749,1.749,0,0,0,101.75,69ZM59.69,53,29.75,66.307V39.693ZM36.248,38.75h55.5L64,51.085ZM64,54.915,91.752,67.25h-55.5ZM68.31,53,98.25,39.693V66.307Z"/><path d="M22,37.75A1.749,1.749,0,0,0,23.75,36V32.75H27a1.75,1.75,0,0,0,0-3.5H22A1.749,1.749,0,0,0,20.25,31v5A1.749,1.749,0,0,0,22,37.75Z"/><path d="M106,68.25A1.749,1.749,0,0,0,104.25,70v3.25H101a1.75,1.75,0,0,0,0,3.5h5A1.749,1.749,0,0,0,107.75,75V70A1.749,1.749,0,0,0,106,68.25Z"/><path d="M22,76.75h5a1.75,1.75,0,0,0,0-3.5H23.75V70a1.75,1.75,0,0,0-3.5,0v5A1.749,1.749,0,0,0,22,76.75Z"/><path d="M101,32.75h3.25V36a1.75,1.75,0,0,0,3.5,0V31A1.749,1.749,0,0,0,106,29.25h-5a1.75,1.75,0,0,0,0,3.5Z"/></g></svg>
