<?xml version="1.0" encoding="UTF-8"?>
<svg xmlns="http://www.w3.org/2000/svg" width="512" height="512" viewBox="0 0 128 128"><g><path d="M52.831,42.919a1.75,1.75,0,0,0-2.458-.295l-11.454,9a1.75,1.75,0,0,0,0,2.752l11.454,9a1.75,1.75,0,1,0,2.163-2.752L42.833,53l9.7-7.624A1.75,1.75,0,0,0,52.831,42.919Z"/><path d="M89.081,51.624l-11.454-9a1.75,1.75,0,1,0-2.163,2.752L85.167,53l-9.7,7.624a1.75,1.75,0,0,0,2.163,2.752l11.454-9a1.75,1.75,0,0,0,0-2.752Z"/><path d="M104.894,21.42,91.581,8.105A9.689,9.689,0,0,0,84.686,5.25H22A1.75,1.75,0,0,0,20.25,7V121A1.75,1.75,0,0,0,22,122.75h84a1.75,1.75,0,0,0,1.75-1.75V28.314A9.682,9.682,0,0,0,104.894,21.42Zm-3.119,1.83H89.75V11.224Zm-78.025,96V82.75h80.5v36.5Zm80.5-40H23.75V8.75H84A2.253,2.253,0,0,1,86.25,11V25A1.75,1.75,0,0,0,88,26.75h14A2.253,2.253,0,0,1,104.25,29Z"/><path d="M47.25,92.25H42A1.751,1.751,0,0,0,40.25,94v14a1.75,1.75,0,0,0,3.5,0v-5.25h3.5a5.25,5.25,0,0,0,0-10.5Zm0,7h-3.5v-3.5h3.5a1.75,1.75,0,0,1,0,3.5Z"/><path d="M82.5,92.25H77.25A1.751,1.751,0,0,0,75.5,94v14a1.75,1.75,0,0,0,3.5,0v-5.25h3.5a5.25,5.25,0,0,0,0-10.5Zm0,7H79v-3.5h3.5a1.75,1.75,0,0,1,0,3.5Z"/><path d="M69.25,92.25A1.75,1.75,0,0,0,67.5,94v5.25h-7V94A1.75,1.75,0,0,0,57,94v14a1.75,1.75,0,0,0,3.5,0v-5.25h7V108a1.75,1.75,0,0,0,3.5,0V94A1.75,1.75,0,0,0,69.25,92.25Z"/><path d="M64.11,40.319a7.751,7.751,0,0,0-7.86,7.749,1.75,1.75,0,0,0,3.5,0,4.223,4.223,0,0,1,1.266-3.026,4.284,4.284,0,0,1,3.045-1.223,4.33,4.33,0,0,1,4.188,4.188,4.229,4.229,0,0,1-2.317,3.848,6.57,6.57,0,0,0-3.682,5.827A1.738,1.738,0,0,0,64,59.417a1.763,1.763,0,0,0,1.75-1.765,3.08,3.08,0,0,1,1.777-2.681,7.709,7.709,0,0,0,4.222-7.013A7.8,7.8,0,0,0,64.11,40.319Z"/><circle cx="64" cy="63.682" r="2"/></g></svg>
