<?xml version="1.0" encoding="UTF-8"?>
<svg xmlns="http://www.w3.org/2000/svg" width="512" height="512" viewBox="0 0 128 128"><g><path d="M117,10.25H11A5.757,5.757,0,0,0,5.25,16v96A5.757,5.757,0,0,0,11,117.75H117a5.756,5.756,0,0,0,5.75-5.75V16A5.756,5.756,0,0,0,117,10.25ZM11,13.75H117A2.253,2.253,0,0,1,119.25,16V32.25H8.75V16A2.253,2.253,0,0,1,11,13.75Zm106,100.5H11A2.253,2.253,0,0,1,8.75,112V35.75h110.5V112A2.253,2.253,0,0,1,117,114.25Z"/><circle cx="18" cy="23" r="2.5"/><circle cx="28" cy="23" r="2.5"/><circle cx="38" cy="23" r="2.5"/><path d="M36,65.75H64a1.75,1.75,0,0,0,0-3.5H36a1.75,1.75,0,0,0,0,3.5Z"/><path d="M92,72.25H36a1.75,1.75,0,0,0,0,3.5H92a1.75,1.75,0,0,0,0-3.5Z"/><path d="M92,82.25H82a1.75,1.75,0,0,0,0,3.5H92a1.75,1.75,0,0,0,0-3.5Z"/><path d="M72,82.25H36a1.75,1.75,0,0,0,0,3.5H72a1.75,1.75,0,0,0,0-3.5Z"/><path d="M107.737,48.263a1.748,1.748,0,0,0-2.474,0L104,49.525l-1.263-1.262a1.749,1.749,0,0,0-2.474,2.474L101.525,52l-1.262,1.263a1.749,1.749,0,1,0,2.474,2.474L104,54.475l1.263,1.262a1.749,1.749,0,1,0,2.474-2.474L106.475,52l1.262-1.263A1.748,1.748,0,0,0,107.737,48.263Z"/><path d="M104,41.25a10.758,10.758,0,0,0-10.595,9H24A1.75,1.75,0,0,0,22.25,52V96A1.75,1.75,0,0,0,24,97.75H57.918l4.517,9.032a1.749,1.749,0,0,0,3.13,0l4.517-9.032H104A1.749,1.749,0,0,0,105.75,96V62.594A10.743,10.743,0,0,0,104,41.25Zm-35,53a1.748,1.748,0,0,0-1.565.968L64,102.087l-3.435-6.869A1.748,1.748,0,0,0,59,94.25H25.75V53.75H93.405a10.758,10.758,0,0,0,8.845,8.844V94.25Zm35-35A7.25,7.25,0,1,1,111.25,52,7.258,7.258,0,0,1,104,59.25Z"/></g></svg>
