<?xml version="1.0" encoding="UTF-8"?>
<svg xmlns="http://www.w3.org/2000/svg" width="512" height="512" viewBox="0 0 128 128"><g><path d="M117,14.25H11A5.757,5.757,0,0,0,5.25,20V94A5.757,5.757,0,0,0,11,99.75H50.25v10.5H40.064a1.75,1.75,0,1,0,0,3.5H103a4.756,4.756,0,0,0,4.75-4.75V99.75H117A5.757,5.757,0,0,0,122.75,94V20A5.757,5.757,0,0,0,117,14.25ZM53.75,99.75h20.5V109a4.7,4.7,0,0,0,.188,1.25H53.75Zm11.5-17.5H28.75V61.932h36.5ZM67,58.432H27a1.75,1.75,0,0,0-1.75,1.75V82.25H14.75V23.75h98.5v58.5h-5.5V63.182a4.756,4.756,0,0,0-4.75-4.75H79a4.756,4.756,0,0,0-4.75,4.75V82.25h-5.5V60.182A1.75,1.75,0,0,0,67,58.432Zm28.456,3.5-.152,1.75H86.7l-.152-1.75ZM104.25,109a1.251,1.251,0,0,1-1.25,1.25H79A1.25,1.25,0,0,1,77.75,109V63.182A1.25,1.25,0,0,1,79,61.932h4.031l.316,3.651a1.751,1.751,0,0,0,1.744,1.6H96.909a1.751,1.751,0,0,0,1.744-1.6l.316-3.651H103a1.251,1.251,0,0,1,1.25,1.25Zm15-15A2.253,2.253,0,0,1,117,96.25h-9.25V85.75H115A1.75,1.75,0,0,0,116.75,84V22A1.75,1.75,0,0,0,115,20.25H13A1.75,1.75,0,0,0,11.25,22V84A1.75,1.75,0,0,0,13,85.75H74.25v10.5H11A2.253,2.253,0,0,1,8.75,94V20A2.253,2.253,0,0,1,11,17.75H117A2.253,2.253,0,0,1,119.25,20Z"/><path d="M93.58,104.75H88.42a1.75,1.75,0,0,0,0,3.5h5.16a1.75,1.75,0,0,0,0-3.5Z"/><path d="M102.75,51.182V36A1.75,1.75,0,0,0,101,34.25H27A1.75,1.75,0,0,0,25.25,36V51.182A1.751,1.751,0,0,0,27,52.932h74A1.751,1.751,0,0,0,102.75,51.182Zm-3.5-1.75H28.75V37.75h70.5Z"/><path d="M99.5,70.182h-17a1.75,1.75,0,0,0-1.75,1.75v8a1.751,1.751,0,0,0,1.75,1.75h17a1.751,1.751,0,0,0,1.75-1.75v-8A1.75,1.75,0,0,0,99.5,70.182Zm-1.75,8H84.25v-4.5h13.5Z"/><path d="M99.5,84.682h-17a1.75,1.75,0,0,0-1.75,1.75V100a1.75,1.75,0,0,0,1.75,1.75h17a1.75,1.75,0,0,0,1.75-1.75V86.432A1.75,1.75,0,0,0,99.5,84.682ZM97.75,98.25H84.25V88.182h13.5Z"/></g></svg>
