<svg height="512" viewBox="0 0 128 128" width="512" xmlns="http://www.w3.org/2000/svg"><g><path d="m51 14.75a36.25 36.25 0 1 0 36.25 36.25 36.291 36.291 0 0 0 -36.25-36.25zm0 69a32.75 32.75 0 1 1 32.75-32.75 32.786 32.786 0 0 1 -32.75 32.75z"/><path d="m119.727 106.36-31.315-29.076a45.821 45.821 0 1 0 -11.128 11.128l29.076 31.315a9.376 9.376 0 0 0 6.756 3.021h.181a9.459 9.459 0 0 0 6.43-16.39zm-110.977-55.36a42.25 42.25 0 1 1 42.25 42.25 42.3 42.3 0 0 1 -42.25-42.25zm108.755 66.505a5.96 5.96 0 0 1 -8.581-.159l-28.837-31.058a46.046 46.046 0 0 0 6.2-6.2l31.059 28.837a5.96 5.96 0 0 1 .159 8.581z"/><path d="m39.831 40.919a1.75 1.75 0 0 0 -2.458-.295l-11.454 9a1.75 1.75 0 0 0 0 2.752l11.454 9a1.75 1.75 0 1 0 2.163-2.752l-9.704-7.624 9.7-7.624a1.75 1.75 0 0 0 .299-2.457z"/><path d="m76.081 49.624-11.455-9a1.75 1.75 0 1 0 -2.162 2.752l9.703 7.624-9.7 7.624a1.75 1.75 0 1 0 2.162 2.752l11.455-9a1.75 1.75 0 0 0 0-2.752z"/><path d="m55.874 37.352a1.749 1.749 0 0 0 -2.236 1.06l-8.572 24a1.75 1.75 0 0 0 1.06 2.236 1.731 1.731 0 0 0 .588.1 1.75 1.75 0 0 0 1.648-1.163l8.572-24a1.75 1.75 0 0 0 -1.06-2.233z"/></g></svg>