<?xml version="1.0" encoding="UTF-8"?>
<svg xmlns="http://www.w3.org/2000/svg" width="512" height="512" viewBox="0 0 128 128"><g><path d="M63.541,35.427l-22,5.969a1.751,1.751,0,0,0-1.291,1.689V63.6A32.856,32.856,0,0,0,57.429,92.489l5.735,3.117a1.745,1.745,0,0,0,1.671,0L70.57,92.49A32.858,32.858,0,0,0,87.75,63.6V43.085A1.751,1.751,0,0,0,86.458,41.4l-22-5.969A1.761,1.761,0,0,0,63.541,35.427Zm20.709,9V63.6A29.358,29.358,0,0,1,68.9,89.415L64,92.077l-4.9-2.663A29.357,29.357,0,0,1,43.75,63.6V44.424L64,38.929Z"/><path d="M49.206,64A14.794,14.794,0,1,0,64,49.207,14.81,14.81,0,0,0,49.206,64Zm26.088,0A11.294,11.294,0,1,1,64,52.707,11.307,11.307,0,0,1,75.294,64Z"/><path d="M115,56.25a7.757,7.757,0,0,0-7.543,6H95.75V36.967a1.75,1.75,0,0,0-1.292-1.689L80.75,31.558V14.75H95.457a7.75,7.75,0,1,0,0-3.5H79A1.75,1.75,0,0,0,77.25,13V30.609L64.458,27.137a1.761,1.761,0,0,0-.917,0L50.75,30.609V13A1.751,1.751,0,0,0,49,11.25H32.543a7.75,7.75,0,1,0,0,3.5H47.25V31.558l-13.709,3.72a1.75,1.75,0,0,0-1.291,1.689V62.25H20.543a7.75,7.75,0,1,0,0,3.5h11.78A40.821,40.821,0,0,0,47.25,95.227V113.25H32.543a7.75,7.75,0,1,0,0,3.5H49A1.751,1.751,0,0,0,50.75,115V97.793c.928.607,1.875,1.19,2.86,1.726l9.555,5.192a1.743,1.743,0,0,0,1.67,0l9.556-5.192c.984-.535,1.931-1.119,2.859-1.726V115A1.75,1.75,0,0,0,79,116.75H95.457a7.75,7.75,0,1,0,0-3.5H80.75V95.227A40.819,40.819,0,0,0,95.677,65.75h11.78A7.747,7.747,0,1,0,115,56.25ZM103,8.75A4.25,4.25,0,1,1,98.75,13,4.255,4.255,0,0,1,103,8.75Zm-78,8.5A4.25,4.25,0,1,1,29.25,13,4.255,4.255,0,0,1,25,17.25Zm-12,51A4.25,4.25,0,1,1,17.25,64,4.255,4.255,0,0,1,13,68.25Zm12,51A4.25,4.25,0,1,1,29.25,115,4.255,4.255,0,0,1,25,119.25Zm78-8.5A4.25,4.25,0,1,1,98.75,115,4.255,4.255,0,0,1,103,110.75ZM92.25,63.6A37.351,37.351,0,0,1,72.719,96.443L64,101.182l-8.719-4.739A37.353,37.353,0,0,1,35.75,63.6V38.306L64,30.64l28.25,7.666ZM115,68.25A4.25,4.25,0,1,1,119.25,64,4.255,4.255,0,0,1,115,68.25Z"/><path d="M61,62.763a1.75,1.75,0,0,0-2.475,2.474l2.829,2.829a1.748,1.748,0,0,0,2.474,0l5.656-5.657a1.75,1.75,0,0,0-2.474-2.475l-4.419,4.42Z"/></g></svg>
