<?xml version="1.0" encoding="UTF-8"?>
<svg xmlns="http://www.w3.org/2000/svg" width="512" height="512" viewBox="0 0 128 128"><g><path d="M121.21,54.263l-12.879-1.557a45.352,45.352,0,0,0-4.987-12.044l8.065-10.144a1.752,1.752,0,0,0-.133-2.327L99.886,16.8a1.751,1.751,0,0,0-2.318-.14L87.359,24.669a45.3,45.3,0,0,0-12.041-4.994L73.847,6.8A1.75,1.75,0,0,0,72.108,5.25H56a1.75,1.75,0,0,0-1.737,1.54L52.706,19.669a45.307,45.307,0,0,0-12.043,4.986L30.518,16.591a1.748,1.748,0,0,0-2.327.133L16.8,28.114a1.751,1.751,0,0,0-.14,2.318l8.007,10.209a45.36,45.36,0,0,0-4.993,12.041L6.8,54.153A1.75,1.75,0,0,0,5.25,55.892V72a1.749,1.749,0,0,0,1.54,1.737l12.878,1.557a45.387,45.387,0,0,0,4.988,12.044L16.591,97.482a1.752,1.752,0,0,0,.133,2.327l11.39,11.39a1.749,1.749,0,0,0,2.318.14l10.209-8.008a45.335,45.335,0,0,0,12.041,4.994L54.153,121.2a1.75,1.75,0,0,0,1.739,1.552H72a1.75,1.75,0,0,0,1.737-1.54l1.556-12.879a45.3,45.3,0,0,0,12.044-4.986l10.146,8.064a1.749,1.749,0,0,0,2.326-.133l11.39-11.39a1.751,1.751,0,0,0,.14-2.318l-8.008-10.209a45.329,45.329,0,0,0,4.994-12.041L121.2,73.847a1.75,1.75,0,0,0,1.551-1.739V56A1.749,1.749,0,0,0,121.21,54.263Zm-1.96,16.284L106.711,71.98a1.749,1.749,0,0,0-1.508,1.354,41.9,41.9,0,0,1-5.479,13.212,1.749,1.749,0,0,0,.1,2.015l7.8,9.947L98.438,107.7l-9.882-7.855a1.755,1.755,0,0,0-2.024-.11,41.866,41.866,0,0,1-13.214,5.474,1.748,1.748,0,0,0-1.353,1.5L70.449,119.25h-13L56.02,106.712a1.75,1.75,0,0,0-1.354-1.509,41.911,41.911,0,0,1-13.212-5.478,1.751,1.751,0,0,0-2.016.1l-9.946,7.8L20.3,98.439l7.855-9.882a1.752,1.752,0,0,0,.11-2.024,41.908,41.908,0,0,1-5.475-13.216,1.75,1.75,0,0,0-1.5-1.352L8.75,70.449v-13L21.289,56.02A1.749,1.749,0,0,0,22.8,54.666a41.9,41.9,0,0,1,5.479-13.212,1.749,1.749,0,0,0-.1-2.015l-7.8-9.947L29.562,20.3l9.882,7.855a1.752,1.752,0,0,0,2.024.11,41.856,41.856,0,0,1,13.214-5.474,1.748,1.748,0,0,0,1.353-1.5L57.551,8.75h13L71.98,21.288A1.749,1.749,0,0,0,73.333,22.8a41.9,41.9,0,0,1,13.213,5.479,1.75,1.75,0,0,0,2.016-.1l9.946-7.8,9.189,9.189-7.855,9.882a1.752,1.752,0,0,0-.11,2.024,41.882,41.882,0,0,1,5.474,13.216,1.752,1.752,0,0,0,1.5,1.352l12.546,1.516Z"/><path d="M64,29.25A34.75,34.75,0,1,0,98.75,64,34.79,34.79,0,0,0,64,29.25Zm0,66A31.25,31.25,0,1,1,95.25,64,31.286,31.286,0,0,1,64,95.25Z"/><path d="M52.831,53.919a1.751,1.751,0,0,0-2.458-.295l-11.454,9a1.75,1.75,0,0,0,0,2.752l11.454,9a1.75,1.75,0,1,0,2.163-2.752L42.832,64l9.7-7.624A1.75,1.75,0,0,0,52.831,53.919Z"/><path d="M75.169,53.919a1.75,1.75,0,0,0,.3,2.457L85.167,64l-9.7,7.624a1.75,1.75,0,1,0,2.162,2.752l11.455-9a1.75,1.75,0,0,0,0-2.752l-11.455-9A1.75,1.75,0,0,0,75.169,53.919Z"/><path d="M68.874,50.352a1.748,1.748,0,0,0-2.236,1.059l-8.572,24a1.751,1.751,0,0,0,1.06,2.237,1.73,1.73,0,0,0,.588.1,1.749,1.749,0,0,0,1.648-1.161l8.572-24A1.751,1.751,0,0,0,68.874,50.352Z"/></g></svg>
