<svg height="512" viewBox="0 0 128 128" width="512" xmlns="http://www.w3.org/2000/svg"><g><path d="m93 5.25h-58a5.757 5.757 0 0 0 -5.75 5.75v106a5.757 5.757 0 0 0 5.75 5.75h58a5.757 5.757 0 0 0 5.75-5.75v-106a5.757 5.757 0 0 0 -5.75-5.75zm-16.934 3.5-.649 6.5h-22.834l-.649-6.5zm19.184 108.25a2.253 2.253 0 0 1 -2.25 2.25h-58a2.253 2.253 0 0 1 -2.25-2.25v-106a2.253 2.253 0 0 1 2.25-2.25h13.416l.843 8.424a1.75 1.75 0 0 0 1.741 1.576h26a1.75 1.75 0 0 0 1.741-1.576l.843-8.424h13.416a2.253 2.253 0 0 1 2.25 2.25z"/><path d="m69.676 109.25h-11.352a1.75 1.75 0 0 0 0 3.5h11.352a1.75 1.75 0 0 0 0-3.5z"/></g></svg>