<?xml version="1.0" encoding="UTF-8"?>
<svg xmlns="http://www.w3.org/2000/svg" width="512" height="512" viewBox="0 0 128 128"><g><path d="M117,23.256H87.75v-4.75a6.75,6.75,0,1,0-3.5,0v4.75H65.75v-4.75a6.75,6.75,0,1,0-3.5,0v4.75H43.75v-4.75a6.75,6.75,0,1,0-3.5,0v4.75H11a5.756,5.756,0,0,0-5.75,5.75v74a5.756,5.756,0,0,0,5.75,5.75H50.25v10.5H40.063a1.75,1.75,0,0,0,0,3.5H87.936a1.75,1.75,0,0,0,0-3.5H77.75v-10.5H117a5.756,5.756,0,0,0,5.75-5.75v-74A5.756,5.756,0,0,0,117,23.256ZM82.75,11.994A3.25,3.25,0,1,1,86,15.244,3.254,3.254,0,0,1,82.75,11.994Zm-22,0A3.25,3.25,0,1,1,64,15.244,3.254,3.254,0,0,1,60.75,11.994Zm-22,0A3.25,3.25,0,1,1,42,15.244,3.254,3.254,0,0,1,38.75,11.994Zm45.5,14.762v2.5H65.75v-2.5ZM77.812,50.009l-2.126,2.674a1.753,1.753,0,0,0-.109,2.024,13.548,13.548,0,0,1,1.774,4.278,1.748,1.748,0,0,0,1.5,1.354l3.4.411v2.539l-3.394.389a1.748,1.748,0,0,0-1.507,1.353,13.553,13.553,0,0,1-1.774,4.279,1.749,1.749,0,0,0,.1,2.015l2.116,2.7-1.8,1.8-2.674-2.126a1.75,1.75,0,0,0-2.024-.109,13.56,13.56,0,0,1-4.28,1.773,1.751,1.751,0,0,0-1.352,1.5l-.411,3.4H62.717l-.389-3.394a1.75,1.75,0,0,0-1.352-1.508,13.578,13.578,0,0,1-4.28-1.773,1.749,1.749,0,0,0-2.015.1l-2.7,2.116-1.8-1.8,2.126-2.674a1.752,1.752,0,0,0,.11-2.024,13.586,13.586,0,0,1-1.774-4.28,1.749,1.749,0,0,0-1.5-1.352l-3.4-.411V60.723l3.394-.389a1.748,1.748,0,0,0,1.507-1.354A13.548,13.548,0,0,1,52.425,54.7a1.75,1.75,0,0,0-.1-2.016l-2.116-2.7,1.8-1.8,2.674,2.126a1.753,1.753,0,0,0,2.024.11,13.581,13.581,0,0,1,4.279-1.774,1.749,1.749,0,0,0,1.353-1.5l.411-3.4h2.539l.389,3.393a1.748,1.748,0,0,0,1.353,1.508A13.553,13.553,0,0,1,71.3,50.431a1.745,1.745,0,0,0,2.015-.1l2.7-2.116ZM61.193,40.256a1.75,1.75,0,0,0-1.737,1.54L59,45.56a17.015,17.015,0,0,0-3.081,1.276l-2.961-2.355a1.75,1.75,0,0,0-2.326.133l-.775.775L43.75,39.281V32.756h18.5v7.5Zm-20.43.987,6.62,6.621-.747.747a1.751,1.751,0,0,0-.14,2.318l2.341,2.984a16.972,16.972,0,0,0-1.278,3.08l-3.758.43a1.749,1.749,0,0,0-1.551,1.738v1.095H34.512a6.75,6.75,0,1,0,0,3.5H42.25v1.057a1.751,1.751,0,0,0,1.54,1.737l3.765.455a17.011,17.011,0,0,0,1.275,3.081l-2.354,2.961a1.749,1.749,0,0,0,.132,2.326l4,4a1.75,1.75,0,0,0,2.318.14l2.984-2.341a17.01,17.01,0,0,0,3.08,1.277l.43,3.759a1.749,1.749,0,0,0,1.738,1.551h5.652a1.751,1.751,0,0,0,1.737-1.54L69,78.451a17.011,17.011,0,0,0,3.081-1.275l2.962,2.354a1.747,1.747,0,0,0,2.326-.133l4-4a1.75,1.75,0,0,0,.14-2.317L79.163,70.1a17.043,17.043,0,0,0,1.278-3.08l3.758-.43a1.749,1.749,0,0,0,1.551-1.738V63.756h7.738a6.75,6.75,0,1,0,0-3.5H85.75V59.2a1.75,1.75,0,0,0-1.54-1.737l-3.765-.454a17.011,17.011,0,0,0-1.275-3.081l2.354-2.962a1.75,1.75,0,0,0-.132-2.326l-.775-.775,6.62-6.62a1.75,1.75,0,0,0,.513-1.237v-7.25h25.5v58.5H14.75v-58.5h25.5v7.25A1.75,1.75,0,0,0,40.763,41.243ZM31.25,62.006A3.25,3.25,0,1,1,28,58.756,3.254,3.254,0,0,1,31.25,62.006Zm65.5,0a3.25,3.25,0,1,1,3.25,3.25A3.254,3.254,0,0,1,96.75,62.006ZM84.25,39.281l-6.108,6.108-.748-.747a1.749,1.749,0,0,0-2.317-.14l-2.984,2.341a16.972,16.972,0,0,0-3.08-1.278l-.43-3.758a1.749,1.749,0,0,0-1.738-1.551H65.75v-7.5h18.5Zm-22-12.525v2.5H43.75v-2.5Zm12,92.5H53.75v-10.5h20.5Zm45-16.25a2.253,2.253,0,0,1-2.25,2.25H11a2.253,2.253,0,0,1-2.25-2.25v-74A2.253,2.253,0,0,1,11,26.756H40.25v2.5H13a1.749,1.749,0,0,0-1.75,1.75v62A1.749,1.749,0,0,0,13,94.756H115a1.749,1.749,0,0,0,1.75-1.75v-62a1.749,1.749,0,0,0-1.75-1.75H87.75v-2.5H117a2.253,2.253,0,0,1,2.25,2.25Z"/><path d="M64,52.256a9.75,9.75,0,1,0,9.75,9.75A9.761,9.761,0,0,0,64,52.256Zm0,16a6.25,6.25,0,1,1,6.25-6.25A6.257,6.257,0,0,1,64,68.256Z"/></g></svg>
