<svg height="512" viewBox="0 0 128 128" width="512" xmlns="http://www.w3.org/2000/svg"><g><path d="m86.875 66.183h-5.25a1.752 1.752 0 0 1 -1.75-1.75v-10.5a1.75 1.75 0 1 0 -3.5 0v10.5a5.256 5.256 0 0 0 5.25 5.25h5.25a1.75 1.75 0 0 0 0-3.5z"/><path d="m63.125 55.683h7a1.75 1.75 0 0 0 0-3.5h-7a5.25 5.25 0 0 0 0 10.5h3.5a1.75 1.75 0 0 1 0 3.5h-7a1.75 1.75 0 0 0 0 3.5h7a5.25 5.25 0 0 0 0-10.5h-3.5a1.75 1.75 0 0 1 0-3.5z"/><path d="m44.625 55.683h7a1.75 1.75 0 0 0 0-3.5h-7a5.25 5.25 0 0 0 0 10.5h3.5a1.75 1.75 0 0 1 0 3.5h-7a1.75 1.75 0 0 0 0 3.5h7a5.25 5.25 0 0 0 0-10.5h-3.5a1.75 1.75 0 0 1 0-3.5z"/><path d="m110.458 17.794-46-12.483a1.761 1.761 0 0 0 -.917 0l-46 12.483a1.751 1.751 0 0 0 -1.291 1.689v40.837a61.7 61.7 0 0 0 32.264 54.255l14.651 7.963a1.75 1.75 0 0 0 1.67 0l14.651-7.963a61.7 61.7 0 0 0 32.264-54.255v-40.837a1.751 1.751 0 0 0 -1.292-1.689zm-2.208 42.526a58.208 58.208 0 0 1 -30.435 51.18l-13.815 7.508-13.815-7.508a58.208 58.208 0 0 1 -30.435-51.18v-39.5l44.25-12.006 44.25 12.008z"/><path d="m63.541 17.745-34 9.227a1.75 1.75 0 0 0 -1.291 1.689v31.659a49.713 49.713 0 0 0 25.994 43.712l8.921 4.848a1.75 1.75 0 0 0 1.67 0l8.921-4.848a49.713 49.713 0 0 0 25.994-43.712v-31.659a1.75 1.75 0 0 0 -1.292-1.689l-34-9.227a1.761 1.761 0 0 0 -.917 0zm8.544 83.212-8.085 4.394-8.085-4.394a46.183 46.183 0 0 1 -19.895-21.274h55.96a46.188 46.188 0 0 1 -19.895 21.274zm21.348-24.774h-58.866a46.212 46.212 0 0 1 -2.817-15.863v-14.637h64.5v14.637a46.212 46.212 0 0 1 -2.817 15.863zm2.817-46.183v12.183h-64.5v-12.183l32.25-8.752z"/></g></svg>