<?xml version="1.0" encoding="UTF-8"?>
<svg xmlns="http://www.w3.org/2000/svg" width="512" height="512" viewBox="0 0 128 128"><g><path d="M118,91.25h-9.25V64A1.749,1.749,0,0,0,107,62.25H79.647a15.773,15.773,0,0,0-13.9-13.9V36.75H75A4.756,4.756,0,0,0,79.75,32V10A4.756,4.756,0,0,0,75,5.25H53A4.756,4.756,0,0,0,48.25,10V32A4.756,4.756,0,0,0,53,36.75h9.25v11.6a15.773,15.773,0,0,0-13.9,13.9H21A1.749,1.749,0,0,0,19.25,64V91.25H10A4.756,4.756,0,0,0,5.25,96v22A4.756,4.756,0,0,0,10,122.75H32A4.756,4.756,0,0,0,36.75,118V96A4.756,4.756,0,0,0,32,91.25H22.75V65.75h25.6a15.773,15.773,0,0,0,13.9,13.9v11.6H53A4.756,4.756,0,0,0,48.25,96v22A4.756,4.756,0,0,0,53,122.75H75A4.756,4.756,0,0,0,79.75,118V96A4.756,4.756,0,0,0,75,91.25H65.75v-11.6a15.773,15.773,0,0,0,13.9-13.9h25.6v25.5H96A4.756,4.756,0,0,0,91.25,96v22A4.756,4.756,0,0,0,96,122.75h22a4.756,4.756,0,0,0,4.75-4.75V96A4.756,4.756,0,0,0,118,91.25ZM51.75,32V10A1.25,1.25,0,0,1,53,8.75H75A1.251,1.251,0,0,1,76.25,10V32A1.251,1.251,0,0,1,75,33.25H53A1.25,1.25,0,0,1,51.75,32ZM33.25,96v22A1.251,1.251,0,0,1,32,119.25H10A1.25,1.25,0,0,1,8.75,118V96A1.25,1.25,0,0,1,10,94.75H32A1.251,1.251,0,0,1,33.25,96Zm43,0v22A1.251,1.251,0,0,1,75,119.25H53A1.25,1.25,0,0,1,51.75,118V96A1.25,1.25,0,0,1,53,94.75H75A1.251,1.251,0,0,1,76.25,96ZM64,76.25A12.25,12.25,0,1,1,76.25,64,12.263,12.263,0,0,1,64,76.25ZM119.25,118a1.251,1.251,0,0,1-1.25,1.25H96A1.25,1.25,0,0,1,94.75,118V96A1.25,1.25,0,0,1,96,94.75h22A1.251,1.251,0,0,1,119.25,96Z"/><path d="M67.316,59.727l-4.834,4.834-1.8-1.8a1.75,1.75,0,0,0-2.475,2.474l3.036,3.036a1.749,1.749,0,0,0,2.475,0L69.791,62.2a1.75,1.75,0,0,0-2.475-2.474Z"/></g></svg>
