<svg height="512" viewBox="0 0 128 128" width="512" xmlns="http://www.w3.org/2000/svg"><g><path d="m105 5.25h-82a5.757 5.757 0 0 0 -5.75 5.75v106a5.757 5.757 0 0 0 5.75 5.75h82a5.756 5.756 0 0 0 5.75-5.75v-106a5.756 5.756 0 0 0 -5.75-5.75zm2.25 111.75a2.253 2.253 0 0 1 -2.25 2.25h-82a2.253 2.253 0 0 1 -2.25-2.25v-106a2.253 2.253 0 0 1 2.25-2.25h82a2.253 2.253 0 0 1 2.25 2.25z"/><path d="m103 16.25h-78a1.75 1.75 0 0 0 -1.75 1.75v92a1.75 1.75 0 0 0 1.75 1.75h78a1.749 1.749 0 0 0 1.75-1.75v-92a1.749 1.749 0 0 0 -1.75-1.75zm-1.75 92h-74.5v-88.5h74.5z"/><path d="m60 14.25h8a1.75 1.75 0 0 0 0-3.5h-8a1.75 1.75 0 0 0 0 3.5z"/><path d="m95.4 88.25h-10a1.75 1.75 0 0 0 -1.75 1.75v10a1.75 1.75 0 0 0 1.75 1.75h10a1.749 1.749 0 0 0 1.75-1.75v-10a1.749 1.749 0 0 0 -1.75-1.75zm-1.75 10h-6.5v-6.5h6.5z"/><path d="m77.8 88.25h-10a1.749 1.749 0 0 0 -1.75 1.75v10a1.749 1.749 0 0 0 1.75 1.75h10a1.749 1.749 0 0 0 1.75-1.75v-10a1.749 1.749 0 0 0 -1.75-1.75zm-1.75 10h-6.5v-6.5h6.5z"/><path d="m60.2 88.25h-10a1.75 1.75 0 0 0 -1.75 1.75v10a1.75 1.75 0 0 0 1.75 1.75h10a1.75 1.75 0 0 0 1.75-1.75v-10a1.75 1.75 0 0 0 -1.75-1.75zm-1.75 10h-6.5v-6.5h6.5z"/><path d="m32.6 101.75h10a1.75 1.75 0 0 0 1.75-1.75v-10a1.75 1.75 0 0 0 -1.75-1.75h-10a1.75 1.75 0 0 0 -1.75 1.75v10a1.75 1.75 0 0 0 1.75 1.75zm1.75-10h6.5v6.5h-6.5z"/><path d="m36.6 81.75h54.8a5.75 5.75 0 0 0 0-11.5h-54.8a5.75 5.75 0 1 0 0 11.5zm0-8h54.8a2.25 2.25 0 0 1 0 4.5h-54.8a2.25 2.25 0 1 1 0-4.5z"/></g></svg>