<svg height="512" viewBox="0 0 128 128" width="512" xmlns="http://www.w3.org/2000/svg"><path d="m64 5.25a58.75 58.75 0 1 0 58.75 58.75 58.816 58.816 0 0 0 -58.75-58.75zm32 103.75a55.061 55.061 0 0 1 -64 0v-13.992a18.32 18.32 0 0 1 14.555-17.871l9.136-1.89a23.719 23.719 0 0 0 16.618 0l9.136 1.89a18.32 18.32 0 0 1 14.555 17.871zm-52.25-56a20.25 20.25 0 1 1 20.25 20.25 20.273 20.273 0 0 1 -20.25-20.25zm55.75 53.294v-11.286a21.834 21.834 0 0 0 -17.344-21.3l-4.9-1.013a23.75 23.75 0 1 0 -26.516 0l-4.9 1.013a21.834 21.834 0 0 0 -17.34 21.3v11.286a55.25 55.25 0 1 1 71 0z"/></svg>