<?xml version="1.0" encoding="UTF-8"?>
<svg xmlns="http://www.w3.org/2000/svg" width="512" height="512" viewBox="0 0 128 128"><g><path d="M117,10.25H11A5.757,5.757,0,0,0,5.25,16v96A5.757,5.757,0,0,0,11,117.75H117a5.757,5.757,0,0,0,5.75-5.75V16A5.757,5.757,0,0,0,117,10.25ZM11,13.75H117A2.253,2.253,0,0,1,119.25,16V32.25H8.75V16A2.253,2.253,0,0,1,11,13.75Zm106,100.5H11A2.253,2.253,0,0,1,8.75,112V35.75h110.5V112A2.253,2.253,0,0,1,117,114.25Z"/><circle cx="18" cy="23" r="2.5"/><circle cx="28" cy="23" r="2.5"/><circle cx="38" cy="23" r="2.5"/><path d="M71,46.25H21A1.75,1.75,0,0,0,19.25,48v54A1.75,1.75,0,0,0,21,103.75H71A1.75,1.75,0,0,0,72.75,102V48A1.75,1.75,0,0,0,71,46.25ZM43.615,75,22.75,97.534V52.466ZM25.005,49.75H67L46,72.424ZM46,77.576,67,100.25H25.005ZM48.385,75,69.25,52.466V97.534Z"/><path d="M107,100.25H81a1.75,1.75,0,0,0,0,3.5h26a1.75,1.75,0,0,0,0-3.5Z"/><path d="M81,93.75H95a1.75,1.75,0,0,0,0-3.5H81a1.75,1.75,0,0,0,0,3.5Z"/><path d="M107,90.25h-4a1.75,1.75,0,0,0,0,3.5h4a1.75,1.75,0,0,0,0-3.5Z"/><path d="M107,46.25H81A1.75,1.75,0,0,0,79.25,48V82A1.75,1.75,0,0,0,81,83.75h26A1.75,1.75,0,0,0,108.75,82V48A1.75,1.75,0,0,0,107,46.25ZM91.8,65,82.75,76.831V53.169ZM84.541,49.75h18.918L94,62.12ZM94,67.88l9.459,12.37H84.541ZM96.2,65l9.048-11.831V76.831Z"/></g></svg>
