<?xml version="1.0" encoding="UTF-8"?>
<svg xmlns="http://www.w3.org/2000/svg" width="512" height="512" viewBox="0 0 128 128"><g><path d="M38.79,80.246l4.991.6a20.893,20.893,0,0,0,1.779,4.3l-3.122,3.928A1.749,1.749,0,0,0,42.57,91.4l5,5a1.748,1.748,0,0,0,2.317.14l3.957-3.1a20.854,20.854,0,0,0,4.295,1.782l.57,4.985a1.75,1.75,0,0,0,1.739,1.551h7.065a1.75,1.75,0,0,0,1.737-1.54l.6-4.991a20.893,20.893,0,0,0,4.3-1.779l3.928,3.123A1.75,1.75,0,0,0,80.4,96.43l5-5a1.75,1.75,0,0,0,.14-2.317l-3.1-3.957a20.854,20.854,0,0,0,1.782-4.3L89.2,80.3a1.75,1.75,0,0,0,1.551-1.739V71.491a1.75,1.75,0,0,0-1.54-1.737l-4.991-.6a20.893,20.893,0,0,0-1.779-4.3l3.123-3.928A1.75,1.75,0,0,0,85.43,58.6l-5-5a1.751,1.751,0,0,0-2.317-.14l-3.957,3.1a20.854,20.854,0,0,0-4.3-1.782L69.3,49.8a1.75,1.75,0,0,0-1.739-1.551H60.491a1.75,1.75,0,0,0-1.737,1.54l-.6,4.991a20.893,20.893,0,0,0-4.3,1.779l-3.928-3.122a1.749,1.749,0,0,0-2.326.132l-5,5a1.75,1.75,0,0,0-.14,2.317l3.1,3.957a20.854,20.854,0,0,0-1.782,4.3l-4.985.57a1.75,1.75,0,0,0-1.551,1.739v7.065A1.75,1.75,0,0,0,38.79,80.246Zm1.96-7.241,4.629-.529a1.748,1.748,0,0,0,1.508-1.354,17.4,17.4,0,0,1,2.275-5.485,1.75,1.75,0,0,0-.1-2.016l-2.884-3.677,2.794-2.8,3.649,2.9a1.747,1.747,0,0,0,2.024.109,17.4,17.4,0,0,1,5.486-2.273,1.748,1.748,0,0,0,1.353-1.5l.56-4.638H66l.529,4.629a1.748,1.748,0,0,0,1.354,1.508,17.4,17.4,0,0,1,5.485,2.275,1.75,1.75,0,0,0,2.016-.1l3.677-2.884,2.8,2.794-2.9,3.649a1.75,1.75,0,0,0-.109,2.024,17.4,17.4,0,0,1,2.273,5.486,1.748,1.748,0,0,0,1.5,1.353l4.638.56V77l-4.629.529a1.748,1.748,0,0,0-1.508,1.354,17.4,17.4,0,0,1-2.275,5.485,1.75,1.75,0,0,0,.1,2.016l2.884,3.677-2.794,2.8-3.649-2.9a1.751,1.751,0,0,0-2.024-.109,17.4,17.4,0,0,1-5.486,2.273,1.748,1.748,0,0,0-1.353,1.5l-.56,4.638H62.005l-.529-4.629a1.748,1.748,0,0,0-1.354-1.508,17.4,17.4,0,0,1-5.485-2.275,1.751,1.751,0,0,0-2.016.1l-3.677,2.884-2.8-2.794,2.9-3.649a1.75,1.75,0,0,0,.109-2.024,17.4,17.4,0,0,1-2.273-5.486,1.748,1.748,0,0,0-1.5-1.353l-4.638-.56Z"/><path d="M117,10.25H11A5.757,5.757,0,0,0,5.25,16v96A5.757,5.757,0,0,0,11,117.75H117a5.757,5.757,0,0,0,5.75-5.75V16A5.757,5.757,0,0,0,117,10.25ZM119.25,112a2.252,2.252,0,0,1-2.25,2.25H11A2.252,2.252,0,0,1,8.75,112V35.75h110.5Zm0-79.75H8.75V16A2.252,2.252,0,0,1,11,13.75H117A2.252,2.252,0,0,1,119.25,16Z"/><circle cx="18" cy="23" r="2.5"/><circle cx="28" cy="23" r="2.5"/><circle cx="38" cy="23" r="2.5"/><path d="M64,86.75A11.75,11.75,0,1,0,52.25,75,11.763,11.763,0,0,0,64,86.75Zm0-20A8.25,8.25,0,1,1,55.75,75,8.259,8.259,0,0,1,64,66.75Z"/></g></svg>
