<?xml version="1.0" encoding="UTF-8"?>
<svg xmlns="http://www.w3.org/2000/svg" width="512" height="512" viewBox="0 0 128 128"><g><path d="M50.217,56.264a1.751,1.751,0,0,0-1.953,1.519l-.784,6.265-1.915-3.831a1.75,1.75,0,0,0-3.13,0l-1.916,3.831-.783-6.265a1.75,1.75,0,0,0-3.472.434l1.5,12a1.75,1.75,0,0,0,3.3.566L44,64.913l2.935,5.87a1.75,1.75,0,0,0,3.3-.566l1.5-12A1.749,1.749,0,0,0,50.217,56.264Z"/><path d="M70.217,56.264a1.747,1.747,0,0,0-1.953,1.519l-.784,6.265-1.915-3.831a1.75,1.75,0,0,0-3.13,0l-1.916,3.831-.783-6.265a1.75,1.75,0,0,0-3.472.434l1.5,12a1.75,1.75,0,0,0,3.3.566L64,64.913l2.935,5.87a1.75,1.75,0,0,0,3.3-.566l1.5-12A1.749,1.749,0,0,0,70.217,56.264Z"/><path d="M90.217,56.264a1.747,1.747,0,0,0-1.953,1.519l-.784,6.265-1.915-3.831a1.75,1.75,0,0,0-3.13,0l-1.916,3.831-.783-6.265a1.75,1.75,0,0,0-3.472.434l1.5,12a1.75,1.75,0,0,0,3.3.566L84,64.913l2.935,5.87a1.75,1.75,0,0,0,3.3-.566l1.5-12A1.749,1.749,0,0,0,90.217,56.264Z"/><path d="M64,5.25A58.75,58.75,0,1,0,122.75,64,58.816,58.816,0,0,0,64,5.25Zm0,114c-7.433,0-14.317-9.559-18.41-24.5H82.41C78.317,109.691,71.433,119.25,64,119.25Zm-19.294-28c-.7-2.994-1.286-6.167-1.752-9.5H85.045c-.465,3.333-1.055,6.506-1.751,9.5ZM8.794,65.75H24.25V76A5.757,5.757,0,0,0,30,81.75h9.425c.45,3.322,1.016,6.5,1.69,9.5H15.967A54.867,54.867,0,0,1,8.794,65.75ZM64,8.75c7.433,0,14.317,9.559,18.41,24.5H45.59C49.683,18.309,56.567,8.75,64,8.75Zm19.294,28c.7,2.994,1.286,6.167,1.751,9.5H42.954c.466-3.333,1.056-6.506,1.752-9.5ZM30,78.25A2.253,2.253,0,0,1,27.75,76V52A2.253,2.253,0,0,1,30,49.75H98A2.253,2.253,0,0,1,100.25,52V76A2.253,2.253,0,0,1,98,78.25Zm9.425-32H30A5.757,5.757,0,0,0,24.25,52V62.25H8.794a54.867,54.867,0,0,1,7.173-25.5H41.115C40.441,39.753,39.875,42.928,39.425,46.25Zm49.15,35.5H98A5.757,5.757,0,0,0,103.75,76V65.75h15.456a54.867,54.867,0,0,1-7.173,25.5H86.885C87.559,88.247,88.125,85.072,88.575,81.75Zm15.175-19.5V52A5.757,5.757,0,0,0,98,46.25H88.575c-.45-3.322-1.016-6.5-1.69-9.5h25.148a54.867,54.867,0,0,1,7.173,25.5Zm6.128-29H86.028C83.2,22.563,78.972,14.351,73.942,9.663A55.359,55.359,0,0,1,109.878,33.25ZM54.058,9.663c-5.03,4.688-9.262,12.9-12.086,23.587H18.122A55.359,55.359,0,0,1,54.058,9.663ZM18.122,94.75h23.85c2.824,10.687,7.056,18.9,12.086,23.587A55.359,55.359,0,0,1,18.122,94.75Zm55.82,23.587c5.03-4.688,9.262-12.9,12.086-23.587h23.85A55.359,55.359,0,0,1,73.942,118.337Z"/></g></svg>
