<?xml version="1.0" encoding="UTF-8"?>
<svg xmlns="http://www.w3.org/2000/svg" width="512" height="512" viewBox="0 0 128 128"><g><path d="M67.316,59.727l-4.834,4.834-1.8-1.8a1.75,1.75,0,0,0-2.475,2.474l3.036,3.036a1.749,1.749,0,0,0,2.475,0L69.791,62.2a1.75,1.75,0,0,0-2.475-2.475Z"/><path d="M116,62.25H79.647a15.744,15.744,0,0,0-31.294,0H13.75V22.75h12.5V32A4.756,4.756,0,0,0,31,36.75H53A4.756,4.756,0,0,0,57.75,32V22.75h12.5V32A4.756,4.756,0,0,0,75,36.75H97A4.756,4.756,0,0,0,101.75,32V10A4.756,4.756,0,0,0,97,5.25H75A4.756,4.756,0,0,0,70.25,10v9.25H57.75V10A4.756,4.756,0,0,0,53,5.25H31A4.756,4.756,0,0,0,26.25,10v9.25H12A1.75,1.75,0,0,0,10.25,21V64A1.75,1.75,0,0,0,12,65.75H48.353a15.744,15.744,0,0,0,31.294,0h34.6v39.5h-12.5V96A4.756,4.756,0,0,0,97,91.25H75A4.756,4.756,0,0,0,70.25,96v9.25H57.75V96A4.756,4.756,0,0,0,53,91.25H31A4.756,4.756,0,0,0,26.25,96v22A4.756,4.756,0,0,0,31,122.75H53A4.756,4.756,0,0,0,57.75,118v-9.25h12.5V118A4.756,4.756,0,0,0,75,122.75H97a4.756,4.756,0,0,0,4.75-4.75v-9.25H116a1.75,1.75,0,0,0,1.75-1.75V64A1.75,1.75,0,0,0,116,62.25ZM73.75,10A1.25,1.25,0,0,1,75,8.75H97A1.251,1.251,0,0,1,98.25,10V32A1.251,1.251,0,0,1,97,33.25H75A1.25,1.25,0,0,1,73.75,32Zm-44,0A1.25,1.25,0,0,1,31,8.75H53A1.251,1.251,0,0,1,54.25,10V32A1.251,1.251,0,0,1,53,33.25H31A1.25,1.25,0,0,1,29.75,32ZM64,76.25A12.25,12.25,0,1,1,76.25,64,12.263,12.263,0,0,1,64,76.25ZM54.25,118A1.251,1.251,0,0,1,53,119.25H31A1.25,1.25,0,0,1,29.75,118V96A1.25,1.25,0,0,1,31,94.75H53A1.251,1.251,0,0,1,54.25,96Zm44,0A1.251,1.251,0,0,1,97,119.25H75A1.25,1.25,0,0,1,73.75,118V96A1.25,1.25,0,0,1,75,94.75H97A1.251,1.251,0,0,1,98.25,96Z"/></g></svg>
