<svg height="512" viewBox="0 0 128 128" width="512" xmlns="http://www.w3.org/2000/svg"><g><path d="m15.25 64a48.75 48.75 0 1 0 48.75-48.75 48.805 48.805 0 0 0 -48.75 48.75zm61.9-30.6a7.767 7.767 0 0 0 -3.65 4.938h-24.251c3.326-11.794 8.814-19.588 14.751-19.588 4.843 0 9.7 5.45 13.149 14.65zm11.434 8.442h14.846a44.931 44.931 0 0 1 5.777 20.412h-23.707a106.534 106.534 0 0 0 -1.275-15.106 7.77 7.77 0 0 0 4.358-5.31zm0 44.324a7.77 7.77 0 0 0 -4.355-5.306 106.534 106.534 0 0 0 1.271-15.11h23.7a44.931 44.931 0 0 1 -5.777 20.412zm-24.584 23.084c-5.937 0-11.424-7.794-14.751-19.588h24.251a7.765 7.765 0 0 0 3.649 4.938c-3.449 9.2-8.304 14.65-13.149 14.65zm-45.206-43.5h17.874a7.766 7.766 0 0 0 6.051 5.85 99.023 99.023 0 0 0 2.022 14.559h-20.17a44.931 44.931 0 0 1 -5.777-20.409zm54.706-23.912a7.752 7.752 0 0 0 7.3 5.987 103.139 103.139 0 0 1 1.2 14.425h-30.246a7.766 7.766 0 0 0 -5.537-5.727 94.314 94.314 0 0 1 2.136-14.685zm-29.289 26.412a4.25 4.25 0 1 1 4.25-4.25 4.255 4.255 0 0 1 -4.25 4.25zm-1.492-11.85a7.766 7.766 0 0 0 -6.051 5.853h-17.874a44.931 44.931 0 0 1 5.777-20.412h20.17a99.023 99.023 0 0 0 -2.022 14.559zm3.5 15.08a7.766 7.766 0 0 0 5.537-5.727h30.244a103.139 103.139 0 0 1 -1.211 14.425 7.752 7.752 0 0 0 -7.3 5.987h-25.136a94.314 94.314 0 0 1 -2.136-14.688zm30.571 16.432a4.25 4.25 0 1 1 4.25 4.25 4.255 4.255 0 0 1 -4.25-4.25zm4.25-43.574a4.25 4.25 0 1 1 4.25-4.25 4.255 4.255 0 0 1 -4.25 4.25zm-26.157-24.665c-3.866 3.982-7.1 10.464-9.291 18.665h-18.833a45.349 45.349 0 0 1 28.124-18.665zm-28.124 69.989h18.833c2.2 8.2 5.425 14.683 9.291 18.665a45.349 45.349 0 0 1 -28.124-18.665zm46.348 18.667c2.833-2.915 5.354-7.21 7.388-12.694.181.012.361.027.545.027a7.757 7.757 0 0 0 7.543-6h12.658a45.348 45.348 0 0 1 -28.134 18.667zm28.134-69.991h-12.658a7.757 7.757 0 0 0 -7.543-6c-.184 0-.364.015-.545.027-2.034-5.484-4.555-9.779-7.389-12.694a45.346 45.346 0 0 1 28.135 18.667z"/><path d="m121 62.25a1.75 1.75 0 0 0 -1.75 1.75 55.25 55.25 0 1 1 -55.25-55.25 1.75 1.75 0 0 0 0-3.5 58.75 58.75 0 1 0 58.75 58.75 1.75 1.75 0 0 0 -1.75-1.75z"/><path d="m74.339 9.713c1.355.257 2.713.568 4.036.924a1.732 1.732 0 0 0 .517.06 1.75 1.75 0 0 0 .394-3.439c-1.408-.38-2.854-.71-4.3-.983a1.75 1.75 0 1 0 -.651 3.438z"/><path d="m103.176 25.039a1.75 1.75 0 0 0 2.483-2.468c-1.029-1.034-2.113-2.045-3.222-3.005a1.75 1.75 0 0 0 -2.291 2.647c1.044.903 2.063 1.854 3.03 2.826z"/><path d="m88.068 14.255c1.233.6 2.463 1.252 3.659 1.947a1.75 1.75 0 0 0 1.758-3.027c-1.271-.738-2.58-1.434-3.89-2.069a1.75 1.75 0 0 0 -1.527 3.149z"/></g></svg>