<svg height="512" viewBox="0 0 128 128" width="512" xmlns="http://www.w3.org/2000/svg"><g><path d="m64 17.105a46.9 46.9 0 1 0 46.9 46.895 46.949 46.949 0 0 0 -46.9-46.895zm0 90.29a43.4 43.4 0 1 1 43.4-43.395 43.443 43.443 0 0 1 -43.4 43.4z"/><path d="m81.79 57.25h-11.04v-11.04a6.75 6.75 0 0 0 -13.5 0v11.04h-11.04a6.75 6.75 0 0 0 0 13.5h11.04v11.04a6.75 6.75 0 1 0 13.5 0v-11.04h11.04a6.75 6.75 0 1 0 0-13.5zm0 10h-12.79a1.749 1.749 0 0 0 -1.75 1.75v12.79a3.25 3.25 0 1 1 -6.5 0v-12.79a1.75 1.75 0 0 0 -1.75-1.75h-12.79a3.25 3.25 0 0 1 0-6.5h12.79a1.75 1.75 0 0 0 1.75-1.75v-12.79a3.25 3.25 0 0 1 6.5 0v12.79a1.749 1.749 0 0 0 1.75 1.75h12.79a3.25 3.25 0 1 1 0 6.5z"/></g></svg>
