<svg enable-background="new 0 0 48 48" height="512" viewBox="0 0 48 48" width="512" xmlns="http://www.w3.org/2000/svg"><g id="Line"><path d="m24 2c-12.13 0-22 9.87-22 22s9.87 22 22 22 22-9.87 22-22-9.87-22-22-22zm0 42c-11.03 0-20-8.97-20-20s8.97-20 20-20 20 8.97 20 20-8.97 20-20 20z"/><path d="m32.16 15.21c-.85.03-1.65.41-2.2 1.04l-8.41 9.41-3.62-3.3c-1.86-1.95-5.39-.46-5.31 2.22 0 .83.32 1.62.93 2.23l5.16 4.9c1.55 1.53 4.27 1.44 5.7-.2 0 0 10.17-11.11 10.17-11.11 1.84-1.89.23-5.36-2.42-5.19zm.95 3.83-10.17 11.11c-.37.4-.86.63-1.4.65s-1.05-.18-1.45-.55l-5.14-4.88c-.21-.21-.33-.49-.33-.79-.03-.99 1.29-1.51 1.95-.76 0 0 4.38 4 4.38 4 .39.37 1.07.34 1.42-.07 0 0 9.09-10.17 9.09-10.17.91-1.07 2.6.39 1.65 1.46z"/></g></svg>
