<?xml version="1.0" encoding="UTF-8"?>
<svg xmlns="http://www.w3.org/2000/svg" viewBox="0 0 64 64" width="512" height="512"><g id="arrow-refresh-infographic-element-diagram"><path d="M32,62A30,30,0,0,1,32,2,29.731,29.731,0,0,1,49.186,7.4l3.107-3.107A1,1,0,0,1,54,5V21a1,1,0,0,1-1,1H37a1,1,0,0,1-.707-1.707l2.683-2.683A15.994,15.994,0,1,0,48,32a15.715,15.715,0,0,0-.582-4.277,1,1,0,0,1,.591-1.2l11.179-4.47a1,1,0,0,1,1.321.615A29.642,29.642,0,0,1,62,32,30.034,30.034,0,0,1,32,62ZM32,4A28,28,0,1,0,60,32a27.729,27.729,0,0,0-1.075-7.689l-9.361,3.742A17.823,17.823,0,0,1,50,32a18.037,18.037,0,1,1-8.857-15.489,1,1,0,0,1,.194,1.566L39.414,20H52V7.414l-2,2a1,1,0,0,1-1.3.1A27.735,27.735,0,0,0,32,4Z"/></g></svg>
