<svg id="O" height="512" viewBox="0 0 128 128" width="512" xmlns="http://www.w3.org/2000/svg"><path d="m64.12 17.25a46.75 46.75 0 1 0 46.75 46.75 46.8 46.8 0 0 0 -46.75-46.75zm0 90a43.25 43.25 0 1 1 43.25-43.25 43.3 43.3 0 0 1 -43.25 43.25z"/><path d="m83.14 44.86a6.79 6.79 0 0 0 -9.6 0l-9.54 9.54-9.54-9.54a6.79 6.79 0 1 0 -9.6 9.6l9.54 9.54-9.54 9.54a6.79 6.79 0 1 0 9.6 9.6l9.54-9.54 9.54 9.54a6.79 6.79 0 0 0 9.6-9.6l-9.54-9.54 9.54-9.54a6.79 6.79 0 0 0 0-9.6zm-2.47 7.14-10.78 10.76a1.74 1.74 0 0 0 0 2.48l10.78 10.76a3.3 3.3 0 0 1 0 4.65 3.37 3.37 0 0 1 -4.65 0l-10.78-10.76a1.74 1.74 0 0 0 -2.48 0l-10.76 10.78a3.37 3.37 0 0 1 -4.65 0 3.3 3.3 0 0 1 0-4.65l10.76-10.78a1.74 1.74 0 0 0 0-2.48l-10.78-10.76a3.3 3.3 0 0 1 0-4.65 3.37 3.37 0 0 1 4.65 0l10.78 10.76a1.74 1.74 0 0 0 2.48 0l10.76-10.78a3.37 3.37 0 0 1 4.65 0 3.3 3.3 0 0 1 .02 4.67z"/></svg>