<?xml version="1.0" encoding="UTF-8"?>
<svg xmlns="http://www.w3.org/2000/svg" width="512" height="512" viewBox="0 0 128 128"><g><path d="M103,48.514H82.348a26.337,26.337,0,0,0,1.025-2.6l3.767-1.208a6.728,6.728,0,0,0,4.687-6.427v-1.5a5.758,5.758,0,0,0-4-5.475V19A13.765,13.765,0,0,0,74.077,5.25H53.923A13.766,13.766,0,0,0,40.173,19V31.3a5.758,5.758,0,0,0-4,5.475v1.5a6.728,6.728,0,0,0,4.688,6.427l3.766,1.209a26.418,26.418,0,0,0,1.025,2.6H25a4.756,4.756,0,0,0-4.75,4.75v54.421a4.756,4.756,0,0,0,4.75,4.75h3.25V121a1.75,1.75,0,0,0,3.5,0v-8.565H53.408v6.815H46.363a1.75,1.75,0,0,0,0,3.5H81.638a1.75,1.75,0,0,0,0-3.5H74.592v-6.815H96.25V121a1.75,1.75,0,0,0,3.5,0v-8.565H103a4.756,4.756,0,0,0,4.75-4.75V53.264A4.756,4.756,0,0,0,103,48.514ZM88.327,38.278a3.24,3.24,0,0,1-2.257,3.095l-1.706.548a26.626,26.626,0,0,0,.386-4.428V34.525h1.327a2.253,2.253,0,0,1,2.25,2.25ZM53.923,8.75H74.077A10.261,10.261,0,0,1,84.327,19V31.025h-.452l-6.754-9.017a1.745,1.745,0,0,0-2.164-.526A95.755,95.755,0,0,1,64,25.862a95.9,95.9,0,0,1-10.958-4.38,1.748,1.748,0,0,0-2.164.526l-6.754,9.017h-.451V19A10.261,10.261,0,0,1,53.923,8.75ZM41.93,41.373a3.241,3.241,0,0,1-2.257-3.095v-1.5a2.253,2.253,0,0,1,2.25-2.25H43.25v2.968a26.6,26.6,0,0,0,.386,4.427Zm4.82-3.88V33.358l6.077-8.114a95.075,95.075,0,0,0,10.654,4.125,1.766,1.766,0,0,0,1.038,0,95.232,95.232,0,0,0,10.654-4.125l6.077,8.114v4.135a23.137,23.137,0,0,1-2.808,11.021H49.557A23.144,23.144,0,0,1,46.75,37.493ZM56.908,119.25V96.023H71.092V119.25Zm47.342-11.565a1.252,1.252,0,0,1-1.25,1.25H74.592V94.273a1.75,1.75,0,0,0-1.75-1.75H55.158a1.75,1.75,0,0,0-1.75,1.75v14.662H25a1.251,1.251,0,0,1-1.25-1.25V53.264A1.25,1.25,0,0,1,25,52.014h78a1.251,1.251,0,0,1,1.25,1.25Z"/><path d="M64,64.519a7.75,7.75,0,1,0,7.75,7.75A7.759,7.759,0,0,0,64,64.519Zm0,12a4.25,4.25,0,1,1,4.25-4.25A4.255,4.255,0,0,1,64,76.519Z"/></g></svg>
