<svg id="O" height="512" viewBox="0 0 128 128" width="512" xmlns="http://www.w3.org/2000/svg"><path d="m79.17 58.77-8.84 8.84v-22.51a6.33 6.33 0 1 0 -12.66 0v22.51l-8.84-8.84a6.33 6.33 0 0 0 -9 8.95l19.69 19.65a6.33 6.33 0 0 0 9 0l19.61-19.65a6.33 6.33 0 1 0 -9-8.95zm6.48 6.48-19.65 19.65a2.89 2.89 0 0 1 -4 0l-19.65-19.65a2.84 2.84 0 0 1 0-4 2.82 2.82 0 0 1 4 0l11.83 11.82a1.75 1.75 0 0 0 3-1.23v-26.74a2.83 2.83 0 1 1 5.66 0v26.74a1.75 1.75 0 0 0 3 1.23l11.81-11.82a2.83 2.83 0 0 1 4 4z"/><path d="m64 17.25a46.75 46.75 0 1 0 46.75 46.75 46.8 46.8 0 0 0 -46.75-46.75zm0 90a43.25 43.25 0 1 1 43.25-43.25 43.3 43.3 0 0 1 -43.25 43.25z"/></svg>