<svg height="512" viewBox="0 0 128 128" width="512" xmlns="http://www.w3.org/2000/svg"><g><path d="m38.673 43.547h-3.616v-3.616a5.75 5.75 0 0 0 -11.5 0v3.616h-3.616a5.75 5.75 0 1 0 0 11.5h3.616v3.616a5.75 5.75 0 0 0 11.5 0v-3.616h3.616a5.75 5.75 0 0 0 0-11.5zm0 8h-5.366a1.751 1.751 0 0 0 -1.75 1.75v5.366a2.25 2.25 0 0 1 -4.5 0v-5.363a1.751 1.751 0 0 0 -1.75-1.75h-5.366a2.25 2.25 0 0 1 0-4.5h5.366a1.751 1.751 0 0 0 1.75-1.75v-5.369a2.25 2.25 0 0 1 4.5 0v5.369a1.751 1.751 0 0 0 1.75 1.75h5.366a2.25 2.25 0 0 1 0 4.5z"/><path d="m108.059 43.547h-3.616v-3.616a5.75 5.75 0 0 0 -11.5 0v3.616h-3.616a5.75 5.75 0 0 0 0 11.5h3.616v3.616a5.75 5.75 0 0 0 11.5 0v-3.616h3.616a5.75 5.75 0 0 0 0-11.5zm0 8h-5.366a1.751 1.751 0 0 0 -1.75 1.75v5.366a2.25 2.25 0 0 1 -4.5 0v-5.363a1.751 1.751 0 0 0 -1.75-1.75h-5.366a2.25 2.25 0 0 1 0-4.5h5.366a1.751 1.751 0 0 0 1.75-1.75v-5.369a2.25 2.25 0 0 1 4.5 0v5.369a1.751 1.751 0 0 0 1.75 1.75h5.366a2.25 2.25 0 0 1 0 4.5z"/><path d="m70.682 43.547h-13.364a5.75 5.75 0 0 0 0 11.5h13.364a5.75 5.75 0 0 0 0-11.5zm0 8h-13.364a2.25 2.25 0 0 1 0-4.5h13.364a2.25 2.25 0 0 1 0 4.5z"/><path d="m120.542 33.321a21.619 21.619 0 0 0 -21.507-18.513h-70.07a21.612 21.612 0 0 0 -21.5 18.486c-.308 1.829-7.465 44.92-7.465 55.355 0 12.974 9.911 23.735 22.562 24.5q.751.045 1.5.045a23.944 23.944 0 0 0 23.728-20.334l1.456-9.325a10.546 10.546 0 0 0 10.254-8.786h9a10.548 10.548 0 0 0 10.258 8.786l1.377 8.818a24.4 24.4 0 0 0 22.833 20.819 24.041 24.041 0 0 0 25.032-24.019v-.5c0-10.439-7.157-53.53-7.458-55.332zm-34.084-15.013v2.949a6.257 6.257 0 0 1 -6.25 6.25h-32.416a6.257 6.257 0 0 1 -6.25-6.25v-2.949zm-37.339 61.734a7.042 7.042 0 1 1 7.042-7.042 7.051 7.051 0 0 1 -7.042 7.042zm22.72-7.042a7.042 7.042 0 1 1 7.042 7.043 7.05 7.05 0 0 1 -7.042-7.043zm52.661 16.153a20.541 20.541 0 0 1 -21.394 20.522 20.891 20.891 0 0 1 -19.517-17.862l-1.377-8.819a10.537 10.537 0 1 0 -13.712-11.745h-9a10.536 10.536 0 1 0 -13.712 11.745l-1.456 9.326a20.482 20.482 0 0 1 -21.559 17.334 20.825 20.825 0 0 1 -19.273-21c0-10.147 7.34-54.334 7.418-54.807a18.141 18.141 0 0 1 18.047-15.539h9.077v2.949a9.761 9.761 0 0 0 9.75 9.75h32.416a9.761 9.761 0 0 0 9.75-9.75v-2.949h9.077a18.148 18.148 0 0 1 18.051 15.561c.074.445 7.414 44.632 7.414 54.78z"/></g></svg>