<svg id="Layer_1" enable-background="new 0 0 128 128" height="512" viewBox="0 0 128 128" width="512" xmlns="http://www.w3.org/2000/svg"><g><path d="m43.7 71.4h-2.6v-2.6c0-2.7-2.2-5-5-5-2.7 0-5 2.2-5 5v2.6h-2.6c-2.7 0-5 2.2-5 5 0 2.7 2.2 5 5 5h2.6v2.6c0 2.7 2.2 5 5 5 2.7 0 5-2.2 5-5v-2.6h2.6c2.7 0 5-2.2 5-5-.1-2.8-2.3-5-5-5zm0 6.4h-4.3c-1 0-1.7.8-1.7 1.7v4.3c0 .8-.7 1.5-1.5 1.5s-1.5-.7-1.5-1.5v-4.3c0-1-.8-1.7-1.7-1.7h-4.3c-.8 0-1.5-.7-1.5-1.5s.7-1.5 1.5-1.5h4.3c1 0 1.7-.8 1.7-1.7v-4.3c0-.8.7-1.5 1.5-1.5s1.5.7 1.5 1.5v4.3c0 1 .8 1.7 1.7 1.7h4.3c.8 0 1.5.7 1.5 1.5-.1.8-.7 1.5-1.5 1.5z"/><path d="m99.4 71.4h-2.6v-2.6c0-2.7-2.2-5-5-5-2.7 0-5 2.2-5 5v2.6h-2.6c-2.7 0-5 2.2-5 5 0 2.7 2.2 5 5 5h2.6v2.6c0 2.7 2.2 5 5 5s5-2.2 5-5v-2.6h2.6c2.7 0 5-2.2 5-5-.1-2.8-2.3-5-5-5zm0 6.4h-4.3c-1 0-1.7.8-1.7 1.7v4.3c0 .8-.7 1.5-1.5 1.5s-1.5-.7-1.5-1.5v-4.3c0-1-.8-1.7-1.7-1.7h-4.3c-.8 0-1.5-.7-1.5-1.5s.7-1.5 1.5-1.5h4.3c1 0 1.7-.8 1.7-1.7v-4.3c0-.8.7-1.5 1.5-1.5s1.5.7 1.5 1.5v4.3c0 1 .8 1.7 1.7 1.7h4.3c.8 0 1.5.7 1.5 1.5-.1.8-.7 1.5-1.5 1.5z"/><path d="m69.4 71.4h-10.8c-2.7 0-5 2.2-5 5 0 2.7 2.2 5 5 5h10.7c2.7 0 5-2.2 5-5s-2.2-5-4.9-5zm0 6.4h-10.8c-.8 0-1.5-.7-1.5-1.5s.7-1.5 1.5-1.5h10.7c.8 0 1.5.7 1.5 1.5s-.6 1.5-1.4 1.5z"/><path d="m109.7 63.4c-1.3-8.7-8.8-15.2-17.6-15.1h-56.2c-8.8 0-16.3 6.4-17.6 15.1-.2 1.5-6 36.1-6 44.5-.1 10.5 8 19.3 18.4 20 10.1.7 19.1-6.5 20.6-16.6l1.1-7.2c4-.2 7.4-3.1 8.2-7h6.6c.8 4 4.2 6.9 8.2 7l1.1 6.8c1.5 9.9 10 17 19.5 17 10.8 0 19.6-8.8 19.6-19.6.1-.1.3-7.4-5.9-44.9zm-28-11.6v.4c0 3.4-2.8 6.2-6.2 6.2h-22.9c-3.4 0-6.2-2.8-6.2-6.2v-.4zm-29.6 48.9c-3.2 0-5.7-2.9-5.1-6.1.5-2.9 3.2-4.8 6.1-4.3s4.8 3.2 4.3 6.1c-.5 2.4-2.8 4.3-5.3 4.3zm18.5-5.3c0-2.9 2.4-5.3 5.3-5.3s5.3 2.4 5.3 5.3c0 3-2.4 5.3-5.3 5.3s-5.3-2.4-5.3-5.3zm41.6 12.9c0 8.9-7.2 16.1-16.1 16.1-7.7 0-14.8-5.9-16-14.1l-1.1-6.8c4.6-1.7 6.9-6.8 5.2-11.3-1.7-4.6-6.8-6.9-11.3-5.2-2.9 1.1-5 3.5-5.6 6.5h-6.6c-1-4.8-5.6-7.8-10.4-6.9-4.8 1-7.8 5.6-6.9 10.4.6 3 2.7 5.5 5.6 6.5l-1.1 7.2c-1.3 8.2-8.6 14.2-16.9 13.6-8.6-.6-15.2-7.9-15.1-16.5 0-8.1 5.9-43.6 6-43.9 1-7 7.1-12.2 14.1-12.2h6.9v.4c0 5.4 4.4 9.7 9.7 9.7h22.9c5.4 0 9.7-4.4 9.7-9.7v-.4h6.9c7.1 0 13.1 5.2 14.1 12.2 6.8 40.9 5.9 43.9 6 44.4z"/><path d="m75.7 34.2c-7.3-3.7-16-3.7-23.4 0-.9.4-1.2 1.5-.8 2.3l3.3 6.6c.4.9 1.5 1.2 2.3.8 4.3-2.1 9.4-2.1 13.7 0 .9.4 1.9.1 2.3-.8l3.3-6.6c.5-.8.2-1.9-.7-2.3zm-4.9 5.9c-4.4-1.7-9.2-1.7-13.6 0l-1.7-3.5c5.3-2.2 11.5-2.3 17.1 0z"/><path d="m79.2 28.6 3.1-6.7c.4-.9 0-1.9-.9-2.3-11.1-5.1-23.8-5.1-34.9 0-.9.4-1.3 1.4-.9 2.3l3.1 6.7c.4.9 1.4 1.3 2.3.9 8.2-3.7 17.6-3.7 25.8 0 1 .3 2 0 2.4-.9zm-28-3-1.6-3.6c9.2-3.7 19.5-3.7 28.8 0l-1.6 3.5c-8.1-3.1-17.3-3.2-25.6.1z"/><path d="m42.8 14c.4.9 1.4 1.3 2.3.9 12-5.3 25.7-5.3 37.7 0 .9.4 1.9 0 2.3-.9l3-6.8c.4-.9 0-1.9-.9-2.3-14.8-6.5-31.7-6.5-46.5 0-.9.4-1.3 1.4-.9 2.3zm21.2-10.5c6.9 0 13.8 1.3 20.2 3.9l-1.5 3.6c-12-4.8-25.3-4.8-37.3 0l-1.6-3.6c6.4-2.5 13.3-3.9 20.2-3.9z"/></g></svg>