<?xml version="1.0" encoding="UTF-8"?>
<svg xmlns="http://www.w3.org/2000/svg" width="512" height="512" viewBox="0 0 128 128"><g><path d="M117,7.25H11A5.757,5.757,0,0,0,5.25,13V87A5.757,5.757,0,0,0,11,92.75H36.994l-3.14,17.269a9.1,9.1,0,0,0,17.22,5.445l3.217-6.966H73.709l3.217,6.966a9.1,9.1,0,0,0,17.219-5.445L91.006,92.75H117A5.757,5.757,0,0,0,122.75,87V13A5.757,5.757,0,0,0,117,7.25ZM11,10.75H117A2.253,2.253,0,0,1,119.25,13V75.25H8.75V13A2.253,2.253,0,0,1,11,10.75ZM89.491,115.237A5.6,5.6,0,0,1,80.1,114l-3.686-7.983A1.749,1.749,0,0,0,74.828,105H53.172a1.749,1.749,0,0,0-1.589,1.016L47.9,114a5.6,5.6,0,0,1-10.6-3.352l3.229-17.763a6.247,6.247,0,0,1,6.15-5.132H81.323a6.247,6.247,0,0,1,6.15,5.132L90.7,110.645A5.587,5.587,0,0,1,89.491,115.237ZM117,89.25H89.832a9.741,9.741,0,0,0-8.509-5H46.677a9.741,9.741,0,0,0-8.509,5H11A2.253,2.253,0,0,1,8.75,87V78.75h110.5V87A2.253,2.253,0,0,1,117,89.25Z"/><circle cx="77.754" cy="92.374" r="2"/><circle cx="77.754" cy="100.374" r="2"/><circle cx="81.754" cy="96.374" r="2"/><circle cx="73.754" cy="96.374" r="2"/><circle cx="50.246" cy="92.374" r="2"/><circle cx="50.246" cy="100.374" r="2"/><circle cx="54.246" cy="96.374" r="2"/><circle cx="46.246" cy="96.374" r="2"/><path d="M65.5,94.624h-3a1.75,1.75,0,0,0,0,3.5h3a1.75,1.75,0,0,0,0-3.5Z"/><path d="M38.79,48.246l4.991.6a20.916,20.916,0,0,0,1.779,4.3l-3.123,3.928A1.75,1.75,0,0,0,42.57,59.4l5,5a1.749,1.749,0,0,0,2.318.14l3.956-3.1a20.854,20.854,0,0,0,4.295,1.782l.57,4.985a1.749,1.749,0,0,0,1.738,1.551h7.066a1.75,1.75,0,0,0,1.737-1.54l.6-4.991a20.893,20.893,0,0,0,4.3-1.779l3.928,3.123A1.75,1.75,0,0,0,80.4,64.43l5-5a1.749,1.749,0,0,0,.14-2.317l-3.1-3.957a20.985,20.985,0,0,0,1.781-4.295L89.2,48.3a1.75,1.75,0,0,0,1.551-1.739V39.491a1.75,1.75,0,0,0-1.54-1.737l-4.991-.6a20.916,20.916,0,0,0-1.779-4.3l3.122-3.928A1.749,1.749,0,0,0,85.43,26.6l-5-5a1.751,1.751,0,0,0-2.318-.14l-3.956,3.1a20.854,20.854,0,0,0-4.3-1.782L69.3,17.8a1.749,1.749,0,0,0-1.738-1.551H60.491a1.749,1.749,0,0,0-1.737,1.54l-.6,4.991a20.924,20.924,0,0,0-4.3,1.779l-3.927-3.122a1.749,1.749,0,0,0-2.326.132l-5,5a1.749,1.749,0,0,0-.139,2.317l3.1,3.957a20.979,20.979,0,0,0-1.782,4.295l-4.984.57a1.75,1.75,0,0,0-1.551,1.739v7.065A1.75,1.75,0,0,0,38.79,48.246Zm1.96-7.241,4.629-.529a1.75,1.75,0,0,0,1.508-1.354,17.386,17.386,0,0,1,2.275-5.486,1.749,1.749,0,0,0-.1-2.015l-2.885-3.677,2.8-2.795,3.647,2.9a1.75,1.75,0,0,0,2.024.109,17.418,17.418,0,0,1,5.488-2.273,1.747,1.747,0,0,0,1.352-1.5l.561-4.638H66l.529,4.629a1.748,1.748,0,0,0,1.354,1.508,17.383,17.383,0,0,1,5.485,2.275,1.749,1.749,0,0,0,2.016-.1l3.677-2.884,2.8,2.794-2.9,3.648a1.75,1.75,0,0,0-.109,2.024,17.373,17.373,0,0,1,2.272,5.487,1.75,1.75,0,0,0,1.5,1.353l4.639.56V45l-4.629.529a1.749,1.749,0,0,0-1.508,1.353,17.436,17.436,0,0,1-2.275,5.487,1.749,1.749,0,0,0,.1,2.015l2.885,3.677-2.8,2.8-3.647-2.9a1.752,1.752,0,0,0-2.024-.109,17.418,17.418,0,0,1-5.488,2.273,1.747,1.747,0,0,0-1.352,1.5l-.561,4.638H62.005l-.529-4.629a1.748,1.748,0,0,0-1.354-1.508,17.383,17.383,0,0,1-5.485-2.275,1.752,1.752,0,0,0-2.016.1l-3.677,2.884-2.8-2.794,2.9-3.648a1.75,1.75,0,0,0,.109-2.024,17.373,17.373,0,0,1-2.272-5.487,1.75,1.75,0,0,0-1.5-1.353l-4.639-.56Z"/><path d="M64,54.75A11.75,11.75,0,1,0,52.25,43,11.764,11.764,0,0,0,64,54.75Zm0-20A8.25,8.25,0,1,1,55.75,43,8.259,8.259,0,0,1,64,34.75Z"/></g></svg>
