<svg id="Layer_1" height="" viewBox="0 0 24 24" width="" xmlns="http://www.w3.org/2000/svg" data-name="Layer 1"><path d="m12.5 20.5a7.939 7.939 0 0 1 -3.576-.845 8.026 8.026 0 0 0 3.576.845 8.18 8.18 0 0 0 2.087-.273 7.979 7.979 0 0 1 -2.087.273zm5.082-2.535.334.417zm-10.5.417.3-.375-.3.38zm11.235-.408a7.963 7.963 0 0 0 2.181-5.45 7.98 7.98 0 0 1 -2.417 5.7zm-11.4.251a7.98 7.98 0 0 1 -2.417-5.7 7.963 7.963 0 0 0 2.181 5.45zm4.573-2.72-.693-.448a3.481 3.481 0 0 0 1.7.443 6.471 6.471 0 0 0 -1.621.205zm2.63.2a6.514 6.514 0 0 0 -1.62-.2 3.481 3.481 0 0 0 1.7-.443l-.693.448zm6.38-3.181h-16l16-.006h-16l16-.008h-16l16-.009a8 8 0 0 0 -16 0 8 8 0 0 1 16 0zm-11.5-.503 7-.005h-7l7-.005h-7l7-.006h-7m7-.005a3.5 3.5 0 0 0 -7 0 3.5 3.5 0 0 1 7 0z" fill="#fff"/><path d="m12.5 4a8.5 8.5 0 1 0 8.5 8.5 8.51 8.51 0 0 0 -8.5-8.5zm-5.455 13.631a7.5 7.5 0 1 1 10.91 0 6.978 6.978 0 0 0 -3.292-2.276 4 4 0 1 0 -4.326 0 6.978 6.978 0 0 0 -3.292 2.276zm5.455-2.631a3 3 0 1 1 3-3 3 3 0 0 1 -3 3zm0 5a7.452 7.452 0 0 1 -4.727-1.675 5.972 5.972 0 0 1 9.454 0 7.44 7.44 0 0 1 -4.699 1.675z"/></svg>
