<svg enable-background="new 0 0 48 48" height="512" viewBox="0 0 48 48" width="512" xmlns="http://www.w3.org/2000/svg"><g id="Line"><path d="m24 2c-12.13 0-22 9.87-22 22s9.87 22 22 22 22-9.87 22-22-9.87-22-22-22zm0 42c-11.03 0-20-8.97-20-20s8.97-20 20-20 20 8.97 20 20-8.97 20-20 20z"/><path d="m32.49 28.24-4.25-4.24 4.24-4.24c2.72-2.87-1.37-6.97-4.24-4.24 0 0-4.24 4.24-4.24 4.24l-4.24-4.24c-1.17-1.17-3.07-1.17-4.24 0s-1.17 3.07 0 4.24l4.24 4.24-4.24 4.24c-2.72 2.87 1.37 6.97 4.24 4.24 0 0 4.24-4.24 4.24-4.24l4.24 4.24c2.87 2.73 6.97-1.36 4.25-4.24zm-1.42 2.83c-.39.39-1.02.39-1.41 0l-4.95-4.95c-.39-.39-1.02-.39-1.41 0l-4.95 4.95c-.93.92-2.34-.48-1.41-1.41 0 0 4.95-4.95 4.95-4.95.39-.39.39-1.02 0-1.41l-4.95-4.95c-.39-.39-.39-1.02 0-1.41s1.02-.39 1.41 0l4.95 4.95c.39.39 1.02.39 1.41 0l4.95-4.95c.92-.92 2.34.48 1.41 1.41 0 0-4.95 4.95-4.95 4.95-.39.39-.39 1.02 0 1.41l4.95 4.95c.39.39.39 1.02 0 1.41z"/></g></svg>
