<svg height="512" viewBox="0 0 64 64" width="512" xmlns="http://www.w3.org/2000/svg"><g id="arrow-infographic-element-right-diagram"><path d="m61 62h-33a26 26 0 0 1 0-52h14v-7a1 1 0 0 1 1.667-.745l18 16.1a1 1 0 0 1 -.005 1.5l-18 15.9a1 1 0 0 1 -1.662-.755v-7h-14a8 8 0 0 0 0 16h33a1 1 0 0 1 .848 1.53l-4.668 7.47 4.668 7.47a1 1 0 0 1 -.848 1.53zm-33-50a24 24 0 0 0 0 48h31.2l-4.043-6.47a1 1 0 0 1 0-1.06l4.043-6.47h-31.2a10 10 0 0 1 0-20h15a1 1 0 0 1 1 1v5.782l15.5-13.682-15.5-13.864v5.764a1 1 0 0 1 -1 1z"/><path d="m44 56h-8a1 1 0 0 1 0-2h8a1 1 0 0 1 0 2z"/><path d="m44 52h-8a1 1 0 0 1 0-2h8a1 1 0 0 1 0 2z"/><path d="m50 56h-2a1 1 0 0 1 0-2h2a1 1 0 0 1 0 2z"/><path d="m50 52h-2a1 1 0 0 1 0-2h2a1 1 0 0 1 0 2z"/></g></svg>
