<?xml version="1.0" encoding="UTF-8"?>
<svg xmlns="http://www.w3.org/2000/svg" width="512" height="512" viewBox="0 0 128 128"><g><path d="M122.25,44.358h-6.335a5.757,5.757,0,0,0-5.75,5.75V63.044h-4.32V1.747A1.751,1.751,0,0,0,104.1,0H23.905a1.751,1.751,0,0,0-1.75,1.75v53.3H17.834V50.108a5.757,5.757,0,0,0-5.75-5.75H5.75A5.757,5.757,0,0,0,0,50.108v56.936a5.757,5.757,0,0,0,5.75,5.75h6.334a5.757,5.757,0,0,0,5.75-5.75v-8.75H28.821l3.815,3.483a5.774,5.774,0,0,0,.385,7.881l16.815,16.125a5.781,5.781,0,0,0,8.046-.084l.455-.455.8.726a7.752,7.752,0,0,0,9.9.457l25.3-19.153a7.661,7.661,0,0,0,3.07-6.405,7.794,7.794,0,0,0-.518-2.575h13.275v8.75a5.757,5.757,0,0,0,5.75,5.75h6.335a5.757,5.757,0,0,0,5.75-5.75V50.108A5.757,5.757,0,0,0,122.25,44.358ZM25.655,3.5h76.69V63.044h-1.407l-2.744-3.252a13.34,13.34,0,0,0-10.217-4.748H77.75a1.745,1.745,0,0,0-.563.093L49.15,64.659l-13.927-9.32a1.753,1.753,0,0,0-.973-.3H25.655ZM14.334,107.044a2.252,2.252,0,0,1-2.25,2.25H5.75a2.252,2.252,0,0,1-2.25-2.25V50.108a2.252,2.252,0,0,1,2.25-2.25h6.334a2.252,2.252,0,0,1,2.25,2.25Zm37.925,16.213L35.444,107.132a2.26,2.26,0,0,1,.12-3.355l6.422-5.337a3.476,3.476,0,0,1,4.505.079l15.045,13.415a3.472,3.472,0,0,1,.144,5.018l-6.272,6.272A2.263,2.263,0,0,1,52.259,123.257Zm39.967-18.774-2.739,2.074-5.943-4.417a1.75,1.75,0,0,0-2.088,2.808l5.124,3.809-5.395,4.084-5.835-4.885a1.75,1.75,0,0,0-2.247,2.683l5.219,4.369-4.843,3.666-2.523-2.4a1.751,1.751,0,1,0-2.412,2.538l2.107,2-3.727,2.821a4.25,4.25,0,0,1-5.431-.251l-.678-.619,3.339-3.339a7,7,0,0,0-.289-10.106L48.82,95.906a6.911,6.911,0,0,0-9.071-.158l-4.463,3.709-4.606-4.2a1.75,1.75,0,0,0-1.18-.458H17.834V58.544H33.718l11.257,7.533-7.538,2.56a1.751,1.751,0,0,0-.915,2.594l5.25,8.282a1.743,1.743,0,0,0,1.635.8L63.541,78.5,92.025,97.563a4.248,4.248,0,0,1,.2,6.92Zm1.955-9.689-14.808-9.91A12.727,12.727,0,0,0,91.247,72.206V68.731a1.75,1.75,0,0,0-3.5,0v3.475a9.232,9.232,0,0,1-9.222,9.221H74.207l-9.234-6.179a1.75,1.75,0,0,0-1.13-.288L44.156,76.737l-3.487-5.5,37.37-12.692h9.938a9.848,9.848,0,0,1,7.542,3.5l3.269,3.874a1.748,1.748,0,0,0,1.337.622h10.04v28.25Zm30.319,12.25a2.252,2.252,0,0,1-2.25,2.25h-6.335a2.253,2.253,0,0,1-2.25-2.25V50.108a2.253,2.253,0,0,1,2.25-2.25h6.335a2.252,2.252,0,0,1,2.25,2.25Z"/><path d="M64,36.122A14.063,14.063,0,1,0,49.938,22.06,14.079,14.079,0,0,0,64,36.122ZM64,11.5A10.563,10.563,0,1,1,53.438,22.06,10.575,10.575,0,0,1,64,11.5Z"/><path d="M97.844,41.75A1.751,1.751,0,0,0,96.094,40H31.906a1.75,1.75,0,0,0,0,3.5H96.094A1.751,1.751,0,0,0,97.844,41.75Z"/><path d="M87.25,47.522H40.75a1.75,1.75,0,0,0,0,3.5h46.5a1.75,1.75,0,0,0,0-3.5Z"/><path d="M61.233,26.6a1.746,1.746,0,0,0,1.22.5H62.5a1.748,1.748,0,0,0,1.238-.559l6.469-6.969a1.75,1.75,0,1,0-2.566-2.38L62.39,22.84,60.3,20.805a1.75,1.75,0,0,0-2.44,2.509Z"/></g></svg>
