<?xml version="1.0" encoding="UTF-8"?>
<svg xmlns="http://www.w3.org/2000/svg" width="512" height="512" viewBox="0 0 128 128"><g><path d="M20.7,19.5h42.8a1.75,1.75,0,0,0,1.75-1.75v-8A1.75,1.75,0,0,0,63.493,8H20.7a1.75,1.75,0,0,0-1.75,1.75v8A1.75,1.75,0,0,0,20.7,19.5Zm1.75-8h39.3V16H22.448Z"/><path d="M20.7,28.188H80.464a1.75,1.75,0,0,0,0-3.5H20.7a1.75,1.75,0,0,0,0,3.5Z"/><path d="M24.349,33.251a1.75,1.75,0,1,0,0,3.5H76.813a1.75,1.75,0,0,0,0-3.5Z"/><path d="M20.7,45.315H80.464a1.75,1.75,0,0,0,0-3.5H20.7a1.75,1.75,0,0,0,0,3.5Z"/><path d="M24.349,50.378a1.75,1.75,0,0,0,0,3.5H76.813a1.75,1.75,0,0,0,0-3.5Z"/><path d="M20.7,62.441H80.464a1.75,1.75,0,0,0,0-3.5H20.7a1.75,1.75,0,0,0,0,3.5Z"/><path d="M76.813,67.505H24.349a1.75,1.75,0,0,0,0,3.5H76.813a1.75,1.75,0,0,0,0-3.5Z"/><path d="M20.7,79.568h42.97a1.75,1.75,0,1,0,0-3.5H20.7a1.75,1.75,0,1,0,0,3.5Z"/><path d="M55.68,84.632H24.349a1.75,1.75,0,0,0,0,3.5H55.68a1.75,1.75,0,1,0,0-3.5Z"/><path d="M52.606,93.2H20.7a1.75,1.75,0,0,0,0,3.5H52.606a1.75,1.75,0,0,0,0-3.5Z"/><path d="M90.213,71.413V17.747A1.81,1.81,0,0,0,89.7,16.51l-16-16A1.813,1.813,0,0,0,72.463,0H16.7a5.756,5.756,0,0,0-5.75,5.75v93.2a5.756,5.756,0,0,0,5.75,5.75H60.883a28.308,28.308,0,1,0,29.33-33.282ZM84.238,16H74.213V5.972ZM16.7,101.2a2.253,2.253,0,0,1-2.25-2.25V5.747A2.253,2.253,0,0,1,16.7,3.5H70.713v14.25a1.75,1.75,0,0,0,1.75,1.75h14.25V71.453c-15.176.913-27.232,14.691-26.242,29.742Zm72.043,23.3a24.842,24.842,0,0,1-24.62-21.788c-1.936-14.491,9.89-27.945,24.62-27.834a24.811,24.811,0,1,1,0,49.622Z"/><path d="M106.958,91.147,101.1,85.7a1.748,1.748,0,0,0-2.473.092L84.1,101.439l-5.446-5.3a1.735,1.735,0,0,0-1.244-.5,1.753,1.753,0,0,0-1.231.529L70.6,101.906a1.75,1.75,0,0,0,.034,2.475l12.6,12.261a1.761,1.761,0,0,0,2.5-.064L107.051,93.62A1.75,1.75,0,0,0,106.958,91.147ZM84.394,112.884l-10.063-9.791,3.138-3.226,5.476,5.329a1.752,1.752,0,0,0,2.5-.063L100,89.46l3.3,3.062Z"/></g></svg>
