<svg height="512" viewBox="0 0 128 128" width="512" xmlns="http://www.w3.org/2000/svg"><g><path d="m87.134 76.327a15.032 15.032 0 1 0 15.031 15.031 15.049 15.049 0 0 0 -15.031-15.031zm0 26.563a11.532 11.532 0 1 1 11.531-11.532 11.545 11.545 0 0 1 -11.531 11.532z"/><path d="m122.089 118.182-15.127-15.127a23.009 23.009 0 0 0 -16.985-34.546v-66.762a1.75 1.75 0 0 0 -1.75-1.747h-82.25a1.751 1.751 0 0 0 -1.75 1.75v99.066a1.751 1.751 0 0 0 1.75 1.75h61.045a23 23 0 0 0 31.808 8.624l15.127 15.127a5.75 5.75 0 0 0 8.132-8.132zm-114.362-19.119v-95.563h78.75v64.836c-12.1.118-22.609 10.919-22.375 23.022a23.3 23.3 0 0 0 1.33 7.7zm61.8.7a19.514 19.514 0 1 1 17.6 11.126 19.438 19.438 0 0 1 -17.596-11.125zm50.083 24.074a2.253 2.253 0 0 1 -3.182 0l-14.683-14.682a27.967 27.967 0 0 0 3.183-3.182l14.682 14.682a2.253 2.253 0 0 1 .004 3.183z"/><path d="m13.977 29.25a1.75 1.75 0 0 0 1.75-1.75v-6.25h5.411v6.25a1.75 1.75 0 0 0 3.5 0v-13.753a5.757 5.757 0 0 0 -5.75-5.747h-.911a5.757 5.757 0 0 0 -5.75 5.75v13.75a1.751 1.751 0 0 0 1.75 1.75zm4-17.753h.911a2.253 2.253 0 0 1 2.25 2.25v4h-5.411v-4a2.253 2.253 0 0 1 2.25-2.247z"/><path d="m32.312 29.25h.911a5.757 5.757 0 0 0 5.75-5.75v-13.753a1.75 1.75 0 0 0 -3.5 0v13.753a2.253 2.253 0 0 1 -2.25 2.25h-.911a2.253 2.253 0 0 1 -2.25-2.25v-13.753a1.75 1.75 0 1 0 -3.5 0v13.753a5.757 5.757 0 0 0 5.75 5.75z"/><path d="m42.646 29.25h4.912a5.757 5.757 0 0 0 5.75-5.75v-9.753a5.757 5.757 0 0 0 -5.75-5.747h-4.912a1.751 1.751 0 0 0 -1.75 1.75v17.75a1.751 1.751 0 0 0 1.75 1.75zm1.754-17.75h3.162a2.253 2.253 0 0 1 2.25 2.25v9.75a2.253 2.253 0 0 1 -2.25 2.25h-3.162z"/><path d="m56.981 25.75a1.75 1.75 0 1 0 0 3.5h8.912a1.75 1.75 0 0 0 0-3.5h-2.706v-14.25h2.706a1.75 1.75 0 0 0 0-3.5h-8.912a1.75 1.75 0 0 0 0 3.5h2.706v14.25z"/><path d="m71.316 11.5h2.7v16a1.75 1.75 0 0 0 3.5 0v-16h2.706a1.75 1.75 0 0 0 0-3.5h-8.906a1.75 1.75 0 0 0 0 3.5z"/><path d="m13.977 48.563h66.25a1.75 1.75 0 0 0 1.75-1.75v-11.313a1.75 1.75 0 0 0 -1.75-1.75h-66.25a1.751 1.751 0 0 0 -1.75 1.75v11.313a1.751 1.751 0 0 0 1.75 1.75zm1.75-11.313h62.75v7.813h-62.75z"/><path d="m13.977 55.875h66.25a1.75 1.75 0 0 0 0-3.5h-66.25a1.75 1.75 0 0 0 0 3.5z"/><path d="m13.977 63.612h66.25a1.75 1.75 0 0 0 0-3.5h-66.25a1.75 1.75 0 1 0 0 3.5z"/><path d="m13.977 71.35h53.25a1.75 1.75 0 0 0 0-3.5h-53.25a1.75 1.75 0 0 0 0 3.5z"/><path d="m61.352 75.587h-47.375a1.75 1.75 0 0 0 0 3.5h47.375a1.75 1.75 0 0 0 0-3.5z"/><path d="m58.612 83.325h-44.635a1.75 1.75 0 0 0 0 3.5h44.635a1.75 1.75 0 1 0 0-3.5z"/><path d="m55.915 91.063h-41.938a1.75 1.75 0 0 0 0 3.5h41.938a1.75 1.75 0 1 0 0-3.5z"/></g></svg>