<svg height="512" viewBox="0 0 128 128" width="512" xmlns="http://www.w3.org/2000/svg"><path d="m126.25 38.409h-11.063v-2.562a6.757 6.757 0 0 0 -6.75-6.75h-5v-7a15.767 15.767 0 0 0 -15.749-15.75h-47.375a15.767 15.767 0 0 0 -15.75 15.753v7h-5a6.757 6.757 0 0 0 -6.75 6.75v2.562h-11.063a1.75 1.75 0 0 0 -1.75 1.747v67.741a1.752 1.752 0 0 0 .513 1.238l8 8a1.749 1.749 0 0 0 1.237.512h108.5a1.749 1.749 0 0 0 1.237-.512l8-8a1.752 1.752 0 0 0 .513-1.238v-67.741a1.75 1.75 0 0 0 -1.75-1.75zm-14.563-2.562v2.562h-28v-2.562a3.253 3.253 0 0 1 3.25-3.25h21.5a3.254 3.254 0 0 1 3.25 3.25zm-63.874 2.562v-2.562a6.758 6.758 0 0 0 -6.75-6.75h-5v-7a4.254 4.254 0 0 1 4.25-4.25h47.375a4.255 4.255 0 0 1 4.25 4.25v7h-5a6.757 6.757 0 0 0 -6.75 6.75v2.562zm-19.75-16.309a12.263 12.263 0 0 1 12.25-12.25h47.375a12.264 12.264 0 0 1 12.25 12.25v7h-4.5v-7a7.759 7.759 0 0 0 -7.75-7.75h-47.375a7.758 7.758 0 0 0 -7.75 7.75v7h-4.5zm-11.75 13.75a3.253 3.253 0 0 1 3.25-3.25h21.5a3.254 3.254 0 0 1 3.25 3.25v2.562h-28zm-12.813 6.059h121v17.5a8.259 8.259 0 0 1 -8.25 8.25h-104.5a8.259 8.259 0 0 1 -8.25-8.25zm80.188 29.25h22.187v6.125a2.253 2.253 0 0 1 -2.25 2.25h-17.687a2.253 2.253 0 0 1 -2.25-2.25zm-61.563 0h22.188v6.125a2.253 2.253 0 0 1 -2.25 2.25h-17.688a2.253 2.253 0 0 1 -2.25-2.25zm95.4 42.994h-107.05l-6.975-6.974v-39.416a11.709 11.709 0 0 0 8.25 3.4h6.875v6.125a5.757 5.757 0 0 0 5.75 5.75h17.688a5.757 5.757 0 0 0 5.75-5.75v-6.129h32.375v6.125a5.756 5.756 0 0 0 5.75 5.75h17.687a5.757 5.757 0 0 0 5.75-5.75v-6.125h6.875a11.709 11.709 0 0 0 8.25-3.4v39.416z"/></svg>