<?xml version="1.0" encoding="UTF-8"?>
<svg xmlns="http://www.w3.org/2000/svg" width="512" height="512" viewBox="0 0 128 128"><g><path d="M126.25,28.938H120v-6.25a1.75,1.75,0,0,0-1.75-1.75H71a8.73,8.73,0,0,0-7,3.522,8.73,8.73,0,0,0-7-3.522H9.75A1.75,1.75,0,0,0,8,22.688v6.25H1.75A1.75,1.75,0,0,0,0,30.688v74.625a1.751,1.751,0,0,0,1.75,1.75h124.5a1.751,1.751,0,0,0,1.75-1.75V30.688A1.75,1.75,0,0,0,126.25,28.938ZM71,24.438h45.5V95.563H65.75V29.688A5.256,5.256,0,0,1,71,24.438Zm-59.5,0H57a5.256,5.256,0,0,1,5.25,5.25V95.563H11.5Zm113,79.125H3.5V32.438H8V97.313a1.751,1.751,0,0,0,1.75,1.75h108.5a1.751,1.751,0,0,0,1.75-1.75V32.438h4.5Z"/><path d="M21,32.438H52.75a1.75,1.75,0,1,0,0-3.5H21a1.75,1.75,0,1,0,0,3.5Z"/><path d="M17.75,40.813H56a1.75,1.75,0,0,0,0-3.5H17.75a1.75,1.75,0,0,0,0,3.5Z"/><path d="M21,45.688a1.75,1.75,0,0,0,0,3.5H52.75a1.75,1.75,0,0,0,0-3.5Z"/><path d="M17.75,57.563H56a1.75,1.75,0,0,0,0-3.5H17.75a1.75,1.75,0,0,0,0,3.5Z"/><path d="M21,62.438a1.75,1.75,0,0,0,0,3.5H52.75a1.75,1.75,0,0,0,0-3.5Z"/><path d="M17.75,74.313H56a1.75,1.75,0,0,0,0-3.5H17.75a1.75,1.75,0,0,0,0,3.5Z"/><path d="M21,79.188a1.75,1.75,0,0,0,0,3.5H52.75a1.75,1.75,0,0,0,0-3.5Z"/><path d="M17.75,91.063H56a1.75,1.75,0,0,0,0-3.5H17.75a1.75,1.75,0,0,0,0,3.5Z"/><path d="M75.25,32.438H107a1.75,1.75,0,0,0,0-3.5H75.25a1.75,1.75,0,1,0,0,3.5Z"/><path d="M72,40.813h38.25a1.75,1.75,0,0,0,0-3.5H72a1.75,1.75,0,0,0,0,3.5Z"/><path d="M75.25,45.688a1.75,1.75,0,0,0,0,3.5H107a1.75,1.75,0,0,0,0-3.5Z"/><path d="M72,57.563h38.25a1.75,1.75,0,0,0,0-3.5H72a1.75,1.75,0,0,0,0,3.5Z"/><path d="M75.25,62.438a1.75,1.75,0,0,0,0,3.5H107a1.75,1.75,0,0,0,0-3.5Z"/><path d="M72,74.313h38.25a1.75,1.75,0,0,0,0-3.5H72a1.75,1.75,0,0,0,0,3.5Z"/><path d="M75.25,79.188a1.75,1.75,0,0,0,0,3.5H107a1.75,1.75,0,0,0,0-3.5Z"/><path d="M72,91.063h38.25a1.75,1.75,0,0,0,0-3.5H72a1.75,1.75,0,0,0,0,3.5Z"/></g></svg>
