<?xml version="1.0" encoding="UTF-8"?>
<svg xmlns="http://www.w3.org/2000/svg" width="512" height="512" viewBox="0 0 128 128"><g><path d="M126.25,0H1.75A1.751,1.751,0,0,0,0,1.747v124.5A1.751,1.751,0,0,0,1.75,128h124.5a1.751,1.751,0,0,0,1.75-1.75V1.747A1.751,1.751,0,0,0,126.25,0ZM87.875,3.5V73.75h-9.41l-13.6-7.77a1.751,1.751,0,0,0-1.736,0l-13.6,7.77h-9.41V3.5Zm36.625,121H3.5V3.5H36.625v72a1.751,1.751,0,0,0,1.75,1.75H50a1.758,1.758,0,0,0,.868-.23L64,69.516l13.132,7.5a1.758,1.758,0,0,0,.868.23H89.625a1.751,1.751,0,0,0,1.75-1.75V3.5H124.5Z"/><path d="M46.375,69.25h1.5a1.764,1.764,0,0,0,.869-.23L64,60.3,79.256,69.02a1.76,1.76,0,0,0,.868.23h1.5a1.751,1.751,0,0,0,1.75-1.75V9.747A1.751,1.751,0,0,0,81.625,8H46.375a1.751,1.751,0,0,0-1.75,1.75V67.5A1.751,1.751,0,0,0,46.375,69.25ZM48.125,11.5h31.75V65.342L64.868,56.767a1.746,1.746,0,0,0-1.736,0L48.125,65.342Z"/><path d="M83.125,108.5a1.751,1.751,0,0,0-1.75,1.75v8a1.751,1.751,0,0,0,1.75,1.75H118.25a1.751,1.751,0,0,0,1.75-1.75v-8a1.751,1.751,0,0,0-1.75-1.75Zm33.375,8H84.875V112H116.5Z"/><path d="M73.125,108.5H62.5a1.751,1.751,0,0,0-1.75,1.75v8A1.751,1.751,0,0,0,62.5,120H73.125a1.751,1.751,0,0,0,1.75-1.75v-8A1.751,1.751,0,0,0,73.125,108.5Zm-1.75,8H64.25V112h7.125Z"/><path d="M52.5,108.5H41.875a1.751,1.751,0,0,0-1.75,1.75v8a1.751,1.751,0,0,0,1.75,1.75H52.5a1.751,1.751,0,0,0,1.75-1.75v-8A1.751,1.751,0,0,0,52.5,108.5Zm-1.75,8H43.625V112H50.75Z"/></g></svg>
