<svg height="512" viewBox="0 0 128 128" width="512" xmlns="http://www.w3.org/2000/svg"><g><path d="m20.636 21.625h48.485a1.75 1.75 0 0 0 1.75-1.75v-9.064a1.75 1.75 0 0 0 -1.75-1.75h-48.485a1.75 1.75 0 0 0 -1.75 1.75v9.064a1.75 1.75 0 0 0 1.75 1.75zm1.75-9.064h44.985v5.564h-44.985z"/><path d="m20.636 31.472h67.714a1.75 1.75 0 0 0 0-3.5h-67.714a1.75 1.75 0 0 0 0 3.5z"/><path d="m24.771 37.674a1.75 1.75 0 1 0 0 3.5h59.443a1.75 1.75 0 0 0 0-3.5z"/><path d="m20.636 50.877h67.714a1.75 1.75 0 0 0 0-3.5h-67.714a1.75 1.75 0 0 0 0 3.5z"/><path d="m24.771 57.079a1.75 1.75 0 1 0 0 3.5h59.443a1.75 1.75 0 0 0 0-3.5z"/><path d="m20.636 70.281h67.714a1.75 1.75 0 0 0 0-3.5h-67.714a1.75 1.75 0 1 0 0 3.5z"/><path d="m24.718 99.389h10.036a1.75 1.75 0 1 0 0-3.5h-10.036a1.75 1.75 0 0 0 0 3.5z"/><path d="m38.836 105.591h-18.2a1.75 1.75 0 1 0 0 3.5h18.2a1.75 1.75 0 0 0 0-3.5z"/><path d="m117.978 90-2.718-5.184-.847-5.793a1.746 1.746 0 0 0 -.957-1.316l-5.248-2.591-4.084-4.194a1.757 1.757 0 0 0 -1.551-.5l-3.409.578v-51.125a1.811 1.811 0 0 0 -.513-1.237l-18.129-18.128a1.811 1.811 0 0 0 -1.237-.51h-63.185a6.29 6.29 0 0 0 -6.279 6.279v105.594a6.29 6.29 0 0 0 6.282 6.282h67.591v8.092a1.763 1.763 0 0 0 2.568 1.547l10.538-5.568 10.542 5.568a1.762 1.762 0 0 0 2.567-1.547v-20.583l3.543-1.748a1.75 1.75 0 0 0 .957-1.317l.846-5.792 2.719-5.184a1.75 1.75 0 0 0 .004-1.623zm-36.943-84.028 12.154 12.153h-12.154zm-64.935 108.683a2.785 2.785 0 0 1 -2.782-2.782v-105.594a2.785 2.785 0 0 1 2.782-2.779h61.435v16.375a1.75 1.75 0 0 0 1.75 1.75h16.379v49.587l-4.629-.8a1.758 1.758 0 0 0 -1.552.5l-4.083 4.201-2.807 1.387c-.049 0-.1-.015-.147-.015h-57.675a1.75 1.75 0 0 0 0 3.5h54.283l-.7 4.829-2.725 5.186a1.75 1.75 0 0 0 0 1.626l2.238 4.266h-4.1a1.75 1.75 0 0 0 0 3.5h4.956l.468 3.21a1.752 1.752 0 0 0 .957 1.317l3.4 1.675h-13.86a1.75 1.75 0 0 0 0 3.5h14.006v5.564zm90.31 8.689-8.789-4.644a1.746 1.746 0 0 0 -1.635 0l-8.792 4.644v-14.995l2.289 2.351a1.755 1.755 0 0 0 1.551.5l5.77-.994 5.769.994a1.815 1.815 0 0 0 1.551-.5l2.289-2.351zm5.607-27.9a1.767 1.767 0 0 0 -.181.56l-.756 5.179-4.694 2.317a1.739 1.739 0 0 0 -.48.349l-3.65 3.748-5.156-.887a1.742 1.742 0 0 0 -.594 0l-5.158.888-3.648-3.749a1.731 1.731 0 0 0 -.479-.348l-4.695-2.317-.755-5.179a1.761 1.761 0 0 0 -.182-.56l-2.434-4.635 2.432-4.636a1.753 1.753 0 0 0 .182-.56l.756-5.179 4.694-2.317a1.751 1.751 0 0 0 .479-.348l3.651-3.749 5.158.888a3.667 3.667 0 0 0 1.2-.105l4.548-.783 3.651 3.749a1.739 1.739 0 0 0 .48.349l4.693 2.316.757 5.179a1.751 1.751 0 0 0 .181.56l2.431 4.636z"/><path d="m96.8 78.81a12 12 0 1 0 12 12 12.013 12.013 0 0 0 -12-12zm0 20.5a8.5 8.5 0 1 1 8.5-8.5 8.51 8.51 0 0 1 -8.5 8.5z"/></g></svg>