<?xml version="1.0" encoding="UTF-8"?>
<svg xmlns="http://www.w3.org/2000/svg" width="512" height="512" viewBox="0 0 128 128"><g><path d="M105.607,0H22.393a6.757,6.757,0,0,0-6.75,6.75V121.253a6.757,6.757,0,0,0,6.75,6.75h83.214a6.758,6.758,0,0,0,6.75-6.75V6.747A6.758,6.758,0,0,0,105.607,0Zm3.25,121.256a3.254,3.254,0,0,1-3.25,3.25H22.393a3.254,3.254,0,0,1-3.25-3.25V6.747a3.254,3.254,0,0,1,3.25-3.25h83.214a3.254,3.254,0,0,1,3.25,3.25Z"/><path d="M49,8H25.393a1.749,1.749,0,0,0-1.75,1.75V30.482a1.749,1.749,0,0,0,1.75,1.75H49a1.75,1.75,0,0,0,1.75-1.75V9.747A1.75,1.75,0,0,0,49,8ZM47.25,28.732H27.143V11.5H47.25Z"/><path d="M49,37.254H25.393A1.749,1.749,0,0,0,23.643,39V59.739a1.749,1.749,0,0,0,1.75,1.75H49a1.75,1.75,0,0,0,1.75-1.75V39A1.75,1.75,0,0,0,49,37.254ZM47.25,57.989H27.143V40.754H47.25Z"/><path d="M49,66.511H25.393a1.749,1.749,0,0,0-1.75,1.75V89a1.749,1.749,0,0,0,1.75,1.75H49A1.75,1.75,0,0,0,50.75,89V68.261A1.75,1.75,0,0,0,49,66.511ZM47.25,87.246H27.143V70.011H47.25Z"/><path d="M49,95.768H25.393a1.749,1.749,0,0,0-1.75,1.75v20.735a1.749,1.749,0,0,0,1.75,1.75H49a1.75,1.75,0,0,0,1.75-1.75V97.518A1.75,1.75,0,0,0,49,95.768ZM47.25,116.5H27.143V99.268H47.25Z"/><path d="M102.607,11.24H57a1.75,1.75,0,0,0,0,3.5h45.607a1.75,1.75,0,0,0,0-3.5Z"/><path d="M102.607,18.365H57a1.75,1.75,0,0,0,0,3.5h45.607a1.75,1.75,0,0,0,0-3.5Z"/><path d="M102.607,25.49H57a1.75,1.75,0,0,0,0,3.5h45.607a1.75,1.75,0,0,0,0-3.5Z"/><path d="M102.607,40.5H57A1.75,1.75,0,0,0,57,44h45.607a1.75,1.75,0,0,0,0-3.5Z"/><path d="M102.607,47.622H57a1.75,1.75,0,0,0,0,3.5h45.607a1.75,1.75,0,0,0,0-3.5Z"/><path d="M102.607,54.747H57a1.75,1.75,0,0,0,0,3.5h45.607a1.75,1.75,0,0,0,0-3.5Z"/><path d="M102.607,69.753H57a1.75,1.75,0,1,0,0,3.5h45.607a1.75,1.75,0,0,0,0-3.5Z"/><path d="M102.607,76.878H57a1.75,1.75,0,1,0,0,3.5h45.607a1.75,1.75,0,0,0,0-3.5Z"/><path d="M102.607,84H57a1.75,1.75,0,1,0,0,3.5h45.607a1.75,1.75,0,0,0,0-3.5Z"/><path d="M102.607,99.01H57a1.75,1.75,0,1,0,0,3.5h45.607a1.75,1.75,0,0,0,0-3.5Z"/><path d="M102.607,106.135H57a1.75,1.75,0,1,0,0,3.5h45.607a1.75,1.75,0,0,0,0-3.5Z"/><path d="M102.607,113.26H57a1.75,1.75,0,1,0,0,3.5h45.607a1.75,1.75,0,0,0,0-3.5Z"/><path d="M34.429,24.853a1.76,1.76,0,0,0,2.5-.063L43.4,17.821a1.75,1.75,0,0,0-2.566-2.381L35.586,21.1l-2.091-2.035a1.75,1.75,0,1,0-2.441,2.508Z"/><path d="M34.429,54.11a1.76,1.76,0,0,0,2.5-.063L43.4,47.078A1.75,1.75,0,0,0,40.835,44.7l-5.249,5.656-2.091-2.035a1.75,1.75,0,1,0-2.441,2.508Z"/><path d="M34.429,83.366a1.76,1.76,0,0,0,2.5-.063L43.4,76.334a1.75,1.75,0,0,0-2.566-2.381l-5.249,5.655-2.091-2.034a1.75,1.75,0,1,0-2.441,2.508Z"/><path d="M34.429,112.623a1.76,1.76,0,0,0,2.5-.063l6.469-6.969a1.75,1.75,0,0,0-2.566-2.381l-5.249,5.655-2.091-2.034a1.75,1.75,0,1,0-2.441,2.508Z"/></g></svg>
