<svg height="512" viewBox="0 0 128 128" width="512" xmlns="http://www.w3.org/2000/svg"><g><path d="m33.625 64.125h84.625a1.751 1.751 0 0 0 1.75-1.75v-9.375a1.751 1.751 0 0 0 -1.75-1.75h-84.625a1.751 1.751 0 0 0 -1.75 1.75v9.375a1.751 1.751 0 0 0 1.75 1.75zm1.75-9.375h81.125v5.875h-81.125z"/><path d="m126.25 31.875h-124.5a1.751 1.751 0 0 0 -1.75 1.75v60.75a1.751 1.751 0 0 0 1.75 1.75h124.5a1.751 1.751 0 0 0 1.75-1.75v-60.75a1.751 1.751 0 0 0 -1.75-1.75zm-122.75 3.5h121v7.875h-121zm121 57.25h-121v-45.875h121z"/><path d="m9.75 76.625a1.75 1.75 0 0 0 0 3.5h6.188v6.25a1.75 1.75 0 0 0 3.5 0v-6.25h2.187a1.75 1.75 0 0 0 1.237-.513l4-4a1.75 1.75 0 0 0 .513-1.237v-4.687a1.75 1.75 0 0 0 -1.75-1.75h-6.187v-5.188h6.187a1.75 1.75 0 0 0 0-3.5h-6.187v-6.25a1.75 1.75 0 0 0 -3.5 0v6.25h-2.188a1.75 1.75 0 0 0 -1.237.513l-4 4a1.75 1.75 0 0 0 -.513 1.237v4.688a1.751 1.751 0 0 0 1.75 1.75h6.188v5.187zm1.75-8.687v-2.213l2.975-2.975h1.463v5.188zm7.938 3.5h4.437v2.212l-2.975 2.975h-1.462z"/><path d="m33.625 72.25h84.625a1.75 1.75 0 0 0 0-3.5h-84.625a1.75 1.75 0 0 0 0 3.5z"/><path d="m33.625 80.375h84.625a1.75 1.75 0 0 0 0-3.5h-84.625a1.75 1.75 0 0 0 0 3.5z"/><path d="m118.25 85h-37.312a1.75 1.75 0 1 0 0 3.5h37.312a1.75 1.75 0 0 0 0-3.5z"/></g></svg>