<svg height="512" viewBox="0 0 128 128" width="512" xmlns="http://www.w3.org/2000/svg"><g><path d="m43.688 22.188h40.625a1.75 1.75 0 0 0 0-3.5h-40.625a1.75 1.75 0 0 0 0 3.5z"/><path d="m108.375 10.25h-22.75v-3.5a1.75 1.75 0 0 0 -.513-1.237l-5-5a1.75 1.75 0 0 0 -1.237-.513h-29.75a1.75 1.75 0 0 0 -1.237.51l-5 5a1.75 1.75 0 0 0 -.513 1.237v3.5h-22.75a6.758 6.758 0 0 0 -6.75 6.753v104.247a6.758 6.758 0 0 0 6.75 6.75h88.75a6.758 6.758 0 0 0 6.75-6.75v-104.247a6.758 6.758 0 0 0 -6.75-6.75zm-77.6 11.938a9.838 9.838 0 0 0 9.663 8.437h47.125a9.838 9.838 0 0 0 9.662-8.437h6.4v94.312h-79.25v-94.312zm13.35-8.438a1.751 1.751 0 0 0 1.75-1.75v-4.528l3.975-3.972h28.3l3.975 3.975v4.525a1.751 1.751 0 0 0 1.75 1.75h9.938v7.125a6.257 6.257 0 0 1 -6.25 6.25h-47.125a6.257 6.257 0 0 1 -6.25-6.25v-7.125zm67.5 107.5a3.254 3.254 0 0 1 -3.25 3.25h-88.75a3.254 3.254 0 0 1 -3.25-3.25v-104.25a3.254 3.254 0 0 1 3.25-3.25h11.063v4.938h-8.063a1.75 1.75 0 0 0 -1.75 1.75v97.809a1.751 1.751 0 0 0 1.75 1.75h82.75a1.751 1.751 0 0 0 1.75-1.75v-97.809a1.75 1.75 0 0 0 -1.75-1.75h-8.062v-4.938h11.062a3.254 3.254 0 0 1 3.25 3.25z"/></g></svg>