<svg height="512" viewBox="0 0 128 128" width="512" xmlns="http://www.w3.org/2000/svg"><g><path d="m93 72.907v-44.376a1.75 1.75 0 0 0 -1.75-1.75h-81.5a1.75 1.75 0 0 0 -1.75 1.75v44.376a1.75 1.75 0 0 0 1.75 1.75h81.5a1.75 1.75 0 0 0 1.75-1.75zm-3.5-1.75h-78v-40.876h78z"/><path d="m98 101.219h20.25a1.75 1.75 0 0 0 1.75-1.75v-6.625a1.75 1.75 0 0 0 -1.75-1.75h-20.25a1.75 1.75 0 0 0 -1.75 1.75v6.625a1.75 1.75 0 0 0 1.75 1.75zm1.75-6.625h16.75v3.125h-16.75z"/><path d="m126.25 18.781h-119.5a6.758 6.758 0 0 0 -6.75 6.75v50.376a6.758 6.758 0 0 0 6.75 6.75h32.062v13.875h-2.937a6.344 6.344 0 1 0 0 12.687h29.25a6.344 6.344 0 1 0 0-12.687h-2.938v-13.875h26.063v24.812a1.75 1.75 0 0 0 1.75 1.75h36.25a1.75 1.75 0 0 0 1.75-1.75v-86.938a1.75 1.75 0 0 0 -1.75-1.75zm-25.25 11.5h15.5v5.126h-15.5zm-97.5 45.626v-50.376a3.254 3.254 0 0 1 3.25-3.25h87.5a3.254 3.254 0 0 1 3.25 3.25v50.376a3.254 3.254 0 0 1 -3.25 3.25h-87.5a3.254 3.254 0 0 1 -3.25-3.25zm64.469 26.969a2.847 2.847 0 0 1 -2.844 2.843h-29.25a2.844 2.844 0 1 1 0-5.687h29.25a2.847 2.847 0 0 1 2.844 2.844zm-9.282-6.344h-16.375v-13.875h16.375zm35.563-13.875a6.758 6.758 0 0 0 6.75-6.75v-27.25h17.25a1.75 1.75 0 0 0 0-3.5h-17.25v-6.25h17.25a1.75 1.75 0 0 0 1.75-1.75v-8.626a1.75 1.75 0 0 0 -1.75-1.75h-17.25v-1.25a6.95 6.95 0 0 0 -.835-3.25h24.335v60.813h-32.75v-.437zm30.25 23.062h-32.75v-19.125h32.75z"/></g></svg>