<?xml version="1.0" encoding="UTF-8"?>
<svg xmlns="http://www.w3.org/2000/svg" width="512" height="512" viewBox="0 0 128 128"><g><path d="M27.237,23.183H79.885a1.75,1.75,0,0,0,1.75-1.749V11.592a1.75,1.75,0,0,0-1.75-1.75H27.237a1.749,1.749,0,0,0-1.75,1.75v9.842A1.749,1.749,0,0,0,27.237,23.183Zm1.749-9.841H78.135v6.342H28.986Z"/><path d="M31.67,107.623h10.9a1.75,1.75,0,0,0,0-3.5H31.67a1.75,1.75,0,0,0,0,3.5Z"/><path d="M47,114.658H27.237a1.75,1.75,0,0,0,0,3.5H47a1.75,1.75,0,1,0,0-3.5Z"/><path d="M100.263,114.658H80.5a1.75,1.75,0,0,0,0,3.5h19.763a1.75,1.75,0,0,0,0-3.5Z"/><path d="M111.843,20.2,92.159.513A1.818,1.818,0,0,0,90.922,0H22.315a6.678,6.678,0,0,0-6.67,6.671V121.329A6.678,6.678,0,0,0,22.315,128h83.37a6.678,6.678,0,0,0,6.67-6.671V21.434A1.82,1.82,0,0,0,111.843,20.2Zm-5.463-.512H92.672V5.974ZM105.685,124.5H22.315a3.174,3.174,0,0,1-3.17-3.171V6.671A3.174,3.174,0,0,1,22.315,3.5H89.172V21.434a1.749,1.749,0,0,0,1.75,1.749h17.933v98.146A3.174,3.174,0,0,1,105.685,124.5Z"/><path d="M103.248,104.123H99.123v-5a1.749,1.749,0,0,0-3.189-.994L92.571,103l.548-7.878a1.75,1.75,0,0,0-3.24-1.032l-4.966,8.16-.99-3.258a1.749,1.749,0,0,0-2.875-.764L74.3,104.6a1.75,1.75,0,0,0,2.4,2.545l4.7-4.435,1.3,4.3a1.75,1.75,0,0,0,3.169.4l3.259-5.355-.492,7.074a1.75,1.75,0,0,0,3.186,1.115l3.8-5.506v1.137a1.749,1.749,0,0,0,1.749,1.75h5.875a1.75,1.75,0,0,0,0-3.5Z"/><path d="M80.737,86.134A22.34,22.34,0,0,0,92.878,66.207V32.125A1.763,1.763,0,0,0,90.483,30.5l-14.4,5.711-11.3-5.65a1.754,1.754,0,0,0-1.566,0l-11.3,5.65L37.517,30.5a1.763,1.763,0,0,0-2.4,1.626V66.207A22.34,22.34,0,0,0,47.263,86.134L63.2,94.356a1.747,1.747,0,0,0,1.6,0l15.935-8.222ZM64,90.832,48.868,83.025A18.856,18.856,0,0,1,38.622,66.207V34.7l12.734,5.05a1.754,1.754,0,0,0,1.427-.061L64,34.082l11.217,5.609a1.753,1.753,0,0,0,1.427.061L89.378,34.7v31.5A18.856,18.856,0,0,1,79.132,83.025Z"/><path d="M84.878,43.9a1.763,1.763,0,0,0-2.395-1.627l-6.778,2.689L64.783,39.5a1.754,1.754,0,0,0-1.566,0L52.3,44.966l-6.778-2.689a1.763,1.763,0,0,0-2.4,1.627v22.3a14.372,14.372,0,0,0,7.809,12.818L63.2,85.355a1.751,1.751,0,0,0,1.606,0l12.265-6.33a14.371,14.371,0,0,0,7.81-12.818Zm-3.5,22.3a10.884,10.884,0,0,1-5.915,9.708L64,81.83,52.537,75.915a10.884,10.884,0,0,1-5.915-9.708V46.48l5.11,2.028a1.752,1.752,0,0,0,1.428-.062L64,43.026l10.84,5.42a1.76,1.76,0,0,0,1.428.062l5.11-2.028Z"/><path d="M64,49.288a8.245,8.245,0,0,0-4.8,14.953v6.4a4.8,4.8,0,0,0,9.594,0v-6.4A8.245,8.245,0,0,0,64,49.288Zm2.224,12.439a1.749,1.749,0,0,0-.927,1.545V70.64a1.3,1.3,0,0,1-2.594,0V63.272a1.749,1.749,0,0,0-.927-1.545,4.747,4.747,0,1,1,4.448,0Z"/></g></svg>
