<svg height="512" viewBox="0 0 128 128" width="512" xmlns="http://www.w3.org/2000/svg"><path d="m127.487 88.319-14-14a1.831 1.831 0 0 0 -1.237-.512h-21.883a3.755 3.755 0 0 0 -3.75 3.75v3.757l-14.117-5.441a8.562 8.562 0 0 0 -6.751-9.847v-11.833h15.192a3.754 3.754 0 0 0 3.75-3.75v-34.6a1.812 1.812 0 0 0 -.512-1.238l-14-14a1.833 1.833 0 0 0 -1.238-.511h-21.882a3.754 3.754 0 0 0 -3.75 3.75v46.6a3.754 3.754 0 0 0 3.75 3.75h15.191v11.832a8.562 8.562 0 0 0 -6.75 9.847l-19.544 7.533-9.086-9.087a1.831 1.831 0 0 0 -1.237-.512h-21.883a3.755 3.755 0 0 0 -3.75 3.75v46.6a3.755 3.755 0 0 0 3.75 3.75h33.883a3.755 3.755 0 0 0 3.75-3.75v-34.6a1.813 1.813 0 0 0 -.513-1.238l-2.206-2.206 18.094-6.974a8.6 8.6 0 0 0 14.484 0l15.375 5.926v39.091a3.755 3.755 0 0 0 3.75 3.75h33.883a3.755 3.755 0 0 0 3.75-3.75v-34.6a1.814 1.814 0 0 0 -.513-1.237zm-48.77-74.225h-8.026v-8.026zm-31.908 36.349v-46.599a.25.25 0 0 1 .25-.25h20.132v12.25a1.751 1.751 0 0 0 1.75 1.75h12.25v32.849a.25.25 0 0 1 -.25.25h-33.882a.25.25 0 0 1 -.25-.25zm-11.4 37.364h-8.026v-8.026zm2.225 36.6h-33.884a.25.25 0 0 1 -.25-.25v-46.6a.25.25 0 0 1 .25-.25h20.133v12.25a1.75 1.75 0 0 0 1.75 1.75h12.25v32.849a.251.251 0 0 1 -.25.25zm26.366-44.807a5.125 5.125 0 1 1 5.125-5.125 5.131 5.131 0 0 1 -5.125 5.125zm58.025 8.21h-8.025v-8.029zm2.225 36.6h-33.883a.25.25 0 0 1 -.25-.25v-46.6a.25.25 0 0 1 .25-.25h20.133v12.25a1.75 1.75 0 0 0 1.75 1.75h12.25v32.849a.25.25 0 0 1 -.25.247z"/></svg>