<svg height="512" viewBox="0 0 128 128" width="512" xmlns="http://www.w3.org/2000/svg"><g><path d="m27.235 23.182h52.651a1.751 1.751 0 0 0 1.75-1.75v-9.842a1.75 1.75 0 0 0 -1.75-1.75h-52.651a1.75 1.75 0 0 0 -1.75 1.75v9.842a1.751 1.751 0 0 0 1.75 1.75zm1.75-9.842h49.151v6.342h-49.151z"/><path d="m27.235 33.874h73.531a1.75 1.75 0 0 0 0-3.5h-73.531a1.75 1.75 0 1 0 0 3.5z"/><path d="m31.727 40.91a1.75 1.75 0 0 0 0 3.5h64.546a1.75 1.75 0 0 0 0-3.5z"/><path d="m27.235 54.946h73.531a1.75 1.75 0 0 0 0-3.5h-73.531a1.75 1.75 0 0 0 0 3.5z"/><path d="m31.727 61.981a1.75 1.75 0 0 0 0 3.5h64.546a1.75 1.75 0 1 0 0-3.5z"/><path d="m27.235 76.018h73.531a1.75 1.75 0 0 0 0-3.5h-73.531a1.75 1.75 0 0 0 0 3.5z"/><path d="m98.023 84.8a1.75 1.75 0 0 0 -1.75-1.75h-64.546a1.75 1.75 0 0 0 0 3.5h64.546a1.749 1.749 0 0 0 1.75-1.75z"/><path d="m31.668 104.125a1.75 1.75 0 0 0 0 3.5h10.9a1.75 1.75 0 0 0 0-3.5z"/><path d="m47 114.661h-19.765a1.75 1.75 0 0 0 0 3.5h19.765a1.75 1.75 0 0 0 0-3.5z"/><path d="m100.265 114.661h-19.765a1.75 1.75 0 0 0 0 3.5h19.764a1.75 1.75 0 0 0 0-3.5z"/><path d="m111.845 20.2-19.685-19.69a1.813 1.813 0 0 0 -1.237-.51h-68.61a6.678 6.678 0 0 0 -6.67 6.671v114.661a6.678 6.678 0 0 0 6.67 6.668h83.373a6.678 6.678 0 0 0 6.671-6.671v-99.9a1.814 1.814 0 0 0 -.512-1.229zm-19.172-14.228 13.709 13.71h-13.709zm13.013 118.528h-83.373a3.174 3.174 0 0 1 -3.17-3.171v-114.661a3.174 3.174 0 0 1 3.17-3.168h66.86v17.932a1.75 1.75 0 0 0 1.75 1.75h17.934v98.15a3.175 3.175 0 0 1 -3.171 3.168z"/><path d="m103.25 104.125h-4.125v-5a1.75 1.75 0 0 0 -3.19-1l-3.363 4.875.549-7.878a1.75 1.75 0 0 0 -3.241-1.032l-4.967 8.159-.988-3.257a1.751 1.751 0 0 0 -2.876-.765l-6.749 6.373a1.75 1.75 0 1 0 2.4 2.546l4.7-4.435 1.3 4.3a1.751 1.751 0 0 0 3.17.4l3.26-5.355-.493 7.073a1.748 1.748 0 0 0 1.168 1.773 1.726 1.726 0 0 0 .578.1 1.754 1.754 0 0 0 1.44-.755l3.8-5.506v1.136a1.75 1.75 0 0 0 1.75 1.75h5.875a1.75 1.75 0 0 0 0-3.5z"/></g></svg>