<?xml version="1.0" encoding="UTF-8"?>
<svg xmlns="http://www.w3.org/2000/svg" width="512" height="512" viewBox="0 0 128 128"><g><path d="M111.845,20.2,92.16.51A1.813,1.813,0,0,0,90.923,0H22.313a6.678,6.678,0,0,0-6.67,6.671V121.332A6.678,6.678,0,0,0,22.313,128h83.373a6.678,6.678,0,0,0,6.671-6.671v-99.9A1.814,1.814,0,0,0,111.845,20.2ZM92.673,5.972l13.709,13.71H92.673ZM105.686,124.5H22.313a3.174,3.174,0,0,1-3.17-3.171V6.668A3.174,3.174,0,0,1,22.313,3.5h66.86V21.432a1.75,1.75,0,0,0,1.75,1.75h17.934v98.15A3.175,3.175,0,0,1,105.686,124.5Z"/><path d="M35.02,44.41h41.5a1.75,1.75,0,0,0,1.75-1.75V36.625a1.748,1.748,0,0,0-1.079-1.616L64.619,29.791A13.573,13.573,0,0,0,66.08,23.64V18.307a10.31,10.31,0,1,0-20.619,0V23.64a13.573,13.573,0,0,0,1.461,6.151L34.35,35.009a1.748,1.748,0,0,0-1.08,1.616V42.66A1.751,1.751,0,0,0,35.02,44.41Zm1.75-6.617,13.377-5.552a1.75,1.75,0,0,0,.747-2.643,10.084,10.084,0,0,1-1.933-5.958V18.307a6.81,6.81,0,1,1,13.619,0V23.64A10.084,10.084,0,0,1,60.647,29.6a1.75,1.75,0,0,0,.747,2.643L74.77,37.793V40.91h-38Z"/><path d="M102.607,51.25H25.393A1.75,1.75,0,0,0,23.643,53V65a1.75,1.75,0,0,0,1.75,1.75h77.214a1.75,1.75,0,0,0,1.75-1.75V53A1.75,1.75,0,0,0,102.607,51.25Zm-1.75,12H27.143v-8.5h73.714Z"/><path d="M57.25,72.25H25.393a1.75,1.75,0,0,0,0,3.5H57.25a1.75,1.75,0,0,0,0-3.5Z"/><path d="M53.143,84.6a1.75,1.75,0,0,0,0-3.5H29.5a1.75,1.75,0,0,0,0,3.5Z"/><path d="M57.25,89.951H25.393a1.75,1.75,0,0,0,0,3.5H57.25a1.75,1.75,0,0,0,0-3.5Z"/><path d="M53.143,102.3a1.75,1.75,0,0,0,0-3.5H29.5a1.75,1.75,0,0,0,0,3.5Z"/><path d="M57.25,107.652H25.393a1.75,1.75,0,0,0,0,3.5H57.25a1.75,1.75,0,0,0,0-3.5Z"/><path d="M53.143,116.5H29.5a1.75,1.75,0,1,0,0,3.5H53.143a1.75,1.75,0,1,0,0-3.5Z"/><path d="M102.607,72.25H70.75a1.75,1.75,0,0,0,0,3.5h31.857a1.75,1.75,0,0,0,0-3.5Z"/><path d="M98.5,84.6a1.75,1.75,0,0,0,0-3.5H74.857a1.75,1.75,0,0,0,0,3.5Z"/><path d="M102.607,89.951H70.75a1.75,1.75,0,0,0,0,3.5h31.857a1.75,1.75,0,0,0,0-3.5Z"/><path d="M98.5,102.3a1.75,1.75,0,0,0,0-3.5H74.857a1.75,1.75,0,0,0,0,3.5Z"/><path d="M102.607,107.652H70.75a1.75,1.75,0,0,0,0,3.5h31.857a1.75,1.75,0,0,0,0-3.5Z"/><path d="M98.5,116.5H74.857a1.75,1.75,0,0,0,0,3.5H98.5a1.75,1.75,0,0,0,0-3.5Z"/></g></svg>
