<?xml version="1.0" encoding="UTF-8"?>
<svg xmlns="http://www.w3.org/2000/svg" width="512" height="512" viewBox="0 0 128 128"><g><path d="M120.7,43.866,118.511,42.6l4.11-7.119a1.75,1.75,0,0,0-.641-2.39l-.757-.438,2.39-4.14a4.773,4.773,0,0,0-1.739-6.489l-3.058-1.765A4.772,4.772,0,0,0,112.328,22l-2.391,4.141-.757-.438a1.75,1.75,0,0,0-2.391.641L96.75,43.73V7.75A7.759,7.759,0,0,0,89,0H11.5A7.759,7.759,0,0,0,3.75,7.75v112.5A7.759,7.759,0,0,0,11.5,128H89a7.759,7.759,0,0,0,7.75-7.75V80.293l20.011-34.661,2.192,1.265a2.949,2.949,0,0,1,1.075,4.013L101.685,82.683a1.75,1.75,0,0,0,3.031,1.75L123.06,52.66A6.468,6.468,0,0,0,120.7,43.866Zm-7.734-15.977,2.39-4.141a1.256,1.256,0,0,1,1.707-.457l3.058,1.766h0a1.256,1.256,0,0,1,.457,1.707l-2.391,4.14Zm-4.024,1.718,9.77,5.641-12.3,21.3-2.287-1.32a1.746,1.746,0,0,0-1.328-.175l-4.1,1.1a1.753,1.753,0,0,0-1.062.816L78.83,89.55,75.461,87.6ZM85.25,63.648,71.555,87.37a1.915,1.915,0,0,0-.233.8l-.537,12.93a1.742,1.742,0,0,0,.288,1.014l-.774.833L66.88,92.55a1.75,1.75,0,0,0-3.141-.39l-4.9,7.737-.314-1.452a1.75,1.75,0,0,0-3.092-.7L51.494,102.8a1.749,1.749,0,1,0,2.762,2.148l1.639-2.106.426,1.964a1.75,1.75,0,0,0,3.189.567l5.2-8.213,3.188,9.7a1.751,1.751,0,0,0,2.945.644l3.194-3.441a1.78,1.78,0,0,0,1.84-.022L85.25,98.1v18.4h-70V11.5h16.5l5.475,7.3a1.752,1.752,0,0,0,1.4.7h23.25a1.752,1.752,0,0,0,1.4-.7l5.475-7.3h16.5ZM81.861,91.3l18.45-31.956,2.7-.724,1.659.958L85.23,93.245Zm.631,4.406L74.9,100.521l-.574-.331.374-8.984ZM93.25,120.25A4.254,4.254,0,0,1,89,124.5H11.5a4.255,4.255,0,0,1-4.25-4.25V7.75A4.255,4.255,0,0,1,11.5,3.5H89a4.254,4.254,0,0,1,4.25,4.25V49.792l-4.5,7.794V9.75A1.749,1.749,0,0,0,87,8H67.875a1.752,1.752,0,0,0-1.4.7L61,16H39.5L34.025,8.7a1.752,1.752,0,0,0-1.4-.7H13.5a1.75,1.75,0,0,0-1.75,1.75v108.5A1.75,1.75,0,0,0,13.5,120H87a1.749,1.749,0,0,0,1.75-1.75v-24.1l4.5-7.794Z"/><path d="M19.75,28.19V41.128a1.75,1.75,0,0,0,1.75,1.75H79a1.749,1.749,0,0,0,1.75-1.75V28.19A1.75,1.75,0,0,0,79,26.44H21.5A1.751,1.751,0,0,0,19.75,28.19Zm3.5,1.75h54v9.438h-54Z"/><path d="M79,47.5H21.5a1.75,1.75,0,0,0,0,3.5H79a1.75,1.75,0,0,0,0-3.5Z"/><path d="M79,55.628H21.5a1.75,1.75,0,0,0,0,3.5H79a1.75,1.75,0,0,0,0-3.5Z"/><path d="M76.714,63.753H21.5a1.75,1.75,0,0,0,0,3.5H76.714a1.75,1.75,0,0,0,0-3.5Z"/><path d="M72.271,71.878H21.5a1.75,1.75,0,0,0,0,3.5H72.271a1.75,1.75,0,0,0,0-3.5Z"/><path d="M67.581,80H21.5a1.75,1.75,0,0,0,0,3.5H67.581a1.75,1.75,0,0,0,0-3.5Z"/></g></svg>
