<svg height="512" viewBox="0 0 128 128" width="512" xmlns="http://www.w3.org/2000/svg"><g><path d="m114.771 16.51-16-16a1.813 1.813 0 0 0 -1.237-.51h-55.766a5.757 5.757 0 0 0 -5.75 5.75v5.9h-5.9a5.757 5.757 0 0 0 -5.75 5.75v5.9h-5.9a5.757 5.757 0 0 0 -5.75 5.75v93.2a5.757 5.757 0 0 0 5.75 5.75h67.764a5.757 5.757 0 0 0 5.75-5.75v-5.9h5.9a5.757 5.757 0 0 0 5.75-5.75v-5.9h5.9a5.757 5.757 0 0 0 5.75-5.75v-81.2a1.819 1.819 0 0 0 -.511-1.24zm-5.462-.51h-10.025v-10.028zm-20.827 106.247a2.252 2.252 0 0 1 -2.25 2.25h-67.766a2.253 2.253 0 0 1 -2.25-2.25v-93.2a2.253 2.253 0 0 1 2.25-2.25h5.9v83.8a5.757 5.757 0 0 0 5.75 5.75h58.366zm11.651-11.647a2.253 2.253 0 0 1 -2.25 2.25h-67.766a2.252 2.252 0 0 1 -2.25-2.25v-93.2a2.252 2.252 0 0 1 2.25-2.25h5.9v83.8a5.757 5.757 0 0 0 5.75 5.75h58.365zm9.4-9.4h-67.765a2.253 2.253 0 0 1 -2.25-2.25v-93.203a2.252 2.252 0 0 1 2.25-2.25h54.016v14.25a1.75 1.75 0 0 0 1.75 1.75h14.25v79.449a2.253 2.253 0 0 1 -2.25 2.254z"/><path d="m45.768 19.5h42.794a1.75 1.75 0 0 0 1.75-1.75v-8a1.75 1.75 0 0 0 -1.75-1.75h-42.794a1.751 1.751 0 0 0 -1.75 1.75v8a1.751 1.751 0 0 0 1.75 1.75zm1.75-8h39.294v4.5h-39.294z"/><path d="m105.534 24.688h-59.766a1.75 1.75 0 0 0 0 3.5h59.766a1.75 1.75 0 0 0 0-3.5z"/><path d="m101.883 36.751a1.75 1.75 0 0 0 0-3.5h-52.464a1.75 1.75 0 0 0 0 3.5z"/><path d="m105.534 41.815h-59.766a1.75 1.75 0 0 0 0 3.5h59.766a1.75 1.75 0 0 0 0-3.5z"/><path d="m101.883 53.878a1.75 1.75 0 0 0 0-3.5h-52.464a1.75 1.75 0 0 0 0 3.5z"/><path d="m105.534 58.941h-59.766a1.75 1.75 0 0 0 0 3.5h59.766a1.75 1.75 0 1 0 0-3.5z"/><path d="m101.883 71.005a1.75 1.75 0 0 0 0-3.5h-52.464a1.75 1.75 0 0 0 0 3.5z"/><path d="m105.534 76.069h-59.766a1.75 1.75 0 0 0 0 3.5h59.766a1.75 1.75 0 0 0 0-3.5z"/><path d="m101.883 88.132a1.75 1.75 0 0 0 0-3.5h-52.464a1.75 1.75 0 1 0 0 3.5z"/><path d="m105.534 93.2h-59.766a1.75 1.75 0 0 0 0 3.5h59.766a1.75 1.75 0 1 0 0-3.5z"/></g></svg>