<svg height="512" viewBox="0 0 128 128" width="512" xmlns="http://www.w3.org/2000/svg"><g><path d="m128 60.375a1.982 1.982 0 0 0 -.363-1.068l-15.28-19.841v-32.719a6.758 6.758 0 0 0 -6.75-6.747h-83.214a6.757 6.757 0 0 0 -6.75 6.75v32.716l-15.28 19.841a1.982 1.982 0 0 0 -.363 1.068v65.872a1.8 1.8 0 0 0 1.75 1.753h124.5a1.8 1.8 0 0 0 1.75-1.75zm-124.5 2.604 44.98 18.339-44.98 40.968zm60.5 8.938 57.729 52.58h-115.459zm15.584 9.459-.063-.058 44.979-18.339v59.307zm43.878-21.754-11.105 4.527v-18.949zm-101.069-56.122h83.214a3.254 3.254 0 0 1 3.25 3.25v58.826l-32.2 13.131-11.478-10.451a1.751 1.751 0 0 0 -2.357 0l-11.475 10.451-32.2-13.13v-58.83a3.254 3.254 0 0 1 3.246-3.247zm-6.75 60.652-11.1-4.527 11.099-14.425z"/><path d="m27.235 23.182h73.531a1.751 1.751 0 0 0 1.75-1.75v-9.843a1.751 1.751 0 0 0 -1.75-1.75h-73.531a1.751 1.751 0 0 0 -1.75 1.75v9.843a1.751 1.751 0 0 0 1.75 1.75zm1.75-9.843h70.031v6.343h-70.031z"/><path d="m27.235 33.874h73.531a1.75 1.75 0 0 0 0-3.5h-73.531a1.75 1.75 0 1 0 0 3.5z"/><path d="m31.727 40.91a1.75 1.75 0 0 0 0 3.5h64.546a1.75 1.75 0 0 0 0-3.5z"/><path d="m27.235 54.946h73.531a1.75 1.75 0 0 0 0-3.5h-73.531a1.75 1.75 0 0 0 0 3.5z"/><path d="m96.273 61.981h-64.546a1.75 1.75 0 0 0 0 3.5h64.546a1.75 1.75 0 1 0 0-3.5z"/></g></svg>