<svg height="512" viewBox="0 0 128 128" width="512" xmlns="http://www.w3.org/2000/svg"><g><path d="m27.235 23.182h52.651a1.751 1.751 0 0 0 1.75-1.75v-9.842a1.75 1.75 0 0 0 -1.75-1.75h-52.651a1.75 1.75 0 0 0 -1.75 1.75v9.842a1.751 1.751 0 0 0 1.75 1.75zm1.75-9.842h49.151v6.342h-49.151z"/><path d="m100.766 30.374h-73.531a1.75 1.75 0 1 0 0 3.5h73.531a1.75 1.75 0 0 0 0-3.5z"/><path d="m96.273 44.41a1.75 1.75 0 0 0 0-3.5h-64.546a1.75 1.75 0 0 0 0 3.5z"/><path d="m100.766 51.445h-73.531a1.75 1.75 0 0 0 0 3.5h73.531a1.75 1.75 0 0 0 0-3.5z"/><path d="m96.273 61.981h-64.546a1.75 1.75 0 0 0 0 3.5h64.546a1.75 1.75 0 1 0 0-3.5z"/><path d="m115.262 72.518h-2.905v-51.086a1.812 1.812 0 0 0 -.512-1.238l-19.685-19.684a1.827 1.827 0 0 0 -1.237-.51h-68.61a6.678 6.678 0 0 0 -6.67 6.671v65.85h-2.905a1.749 1.749 0 0 0 -1.75 1.75v37.607a1.749 1.749 0 0 0 1.75 1.75h2.905v7.707a6.678 6.678 0 0 0 6.67 6.665h83.373a6.678 6.678 0 0 0 6.671-6.671v-7.707h2.905a1.75 1.75 0 0 0 1.75-1.75v-37.604a1.75 1.75 0 0 0 -1.75-1.75zm-8.879-52.836h-13.71v-13.71zm-87.24-13.014a3.174 3.174 0 0 1 3.17-3.168h66.86v17.932a1.75 1.75 0 0 0 1.75 1.75h17.934v49.336h-89.714zm89.714 114.664a3.175 3.175 0 0 1 -3.171 3.171h-83.373a3.174 3.174 0 0 1 -3.17-3.171v-7.707h89.714zm4.655-11.207h-99.024v-34.107h99.024z"/><path d="m35.506 84.018a1.75 1.75 0 0 0 0-3.5h-14.768a1.749 1.749 0 0 0 -1.75 1.75v21.607a1.75 1.75 0 0 0 3.5 0v-9.054h13.018a1.75 1.75 0 0 0 0-3.5h-13.018v-7.3z"/><path d="m59.425 84.018a1.75 1.75 0 0 0 0-3.5h-14.768a1.75 1.75 0 0 0 0 3.5h5.634v18.107h-5.634a1.75 1.75 0 1 0 0 3.5h14.768a1.75 1.75 0 1 0 0-3.5h-5.634v-18.107z"/><path d="m83.343 102.125h-13.018v-19.857a1.75 1.75 0 0 0 -3.5 0v21.607a1.749 1.749 0 0 0 1.75 1.75h14.768a1.75 1.75 0 1 0 0-3.5z"/><path d="m107.262 84.018a1.75 1.75 0 0 0 0-3.5h-14.768a1.749 1.749 0 0 0 -1.75 1.75v21.607a1.749 1.749 0 0 0 1.75 1.75h14.768a1.75 1.75 0 0 0 0-3.5h-13.018v-7.3h13.018a1.75 1.75 0 0 0 0-3.5h-13.018v-7.3z"/></g></svg>