<?xml version="1.0" encoding="UTF-8"?>
<svg xmlns="http://www.w3.org/2000/svg" width="512" height="512" viewBox="0 0 128 128"><g><path d="M126.25,40.75H115.284v-23a1.811,1.811,0,0,0-.513-1.237l-16-16A1.815,1.815,0,0,0,97.534,0H41.768a5.757,5.757,0,0,0-5.75,5.75V12H20A10.514,10.514,0,0,0,9.5,22.5V60.75H1.75A1.751,1.751,0,0,0,0,62.5v63.75A1.751,1.751,0,0,0,1.75,128h124.5a1.751,1.751,0,0,0,1.75-1.75V42.5A1.751,1.751,0,0,0,126.25,40.75ZM109.309,16H99.284V5.975ZM39.518,5.75a2.252,2.252,0,0,1,2.25-2.25H95.784V17.75a1.75,1.75,0,0,0,1.75,1.75h14.25V40.75H84a1.75,1.75,0,0,0-1.237.513L63.275,60.75H39.518ZM13,22.5a7.01,7.01,0,0,1,7-7H36.018v9.19H20.188a1.75,1.75,0,0,0,0,3.5h15.83v5.064H20.188a1.75,1.75,0,1,0,0,3.5h15.83v5.063H20.188a1.75,1.75,0,1,0,0,3.5h15.83v5.064H20.188a1.75,1.75,0,0,0,0,3.5h15.83V60.75H13Zm111.5,102H3.5V64.25H64a1.75,1.75,0,0,0,1.237-.513L84.725,44.25H124.5Z"/><path d="M71.875,107.438V118.25a1.751,1.751,0,0,0,1.75,1.75H118.25a1.751,1.751,0,0,0,1.75-1.75V107.438a1.75,1.75,0,0,0-1.75-1.75H73.625A1.75,1.75,0,0,0,71.875,107.438Zm3.5,1.75H116.5V116.5H75.375Z"/><path d="M45.768,19.5h42.8a1.751,1.751,0,0,0,1.75-1.75v-8A1.751,1.751,0,0,0,88.563,8H45.768a1.751,1.751,0,0,0-1.75,1.75v8A1.751,1.751,0,0,0,45.768,19.5Zm1.75-8h39.3V16H47.518Z"/><path d="M45.768,28.19h59.766a1.75,1.75,0,1,0,0-3.5H45.768a1.75,1.75,0,0,0,0,3.5Z"/><path d="M101.883,33.254H49.419a1.75,1.75,0,0,0,0,3.5h52.464a1.75,1.75,0,0,0,0-3.5Z"/><path d="M45.768,45.317H72.875a1.75,1.75,0,0,0,0-3.5H45.768a1.75,1.75,0,0,0,0,3.5Z"/><path d="M64.369,50.381H49.419a1.75,1.75,0,0,0,0,3.5h14.95a1.75,1.75,0,0,0,0-3.5Z"/></g></svg>
