<?xml version="1.0" encoding="UTF-8"?>
<svg xmlns="http://www.w3.org/2000/svg" width="512" height="512" viewBox="0 0 128 128"><g><path d="M54.743,96.638a1.75,1.75,0,0,0,0-3.5H48.555v-6.25a1.75,1.75,0,0,0-3.5,0v6.25H42.868a1.75,1.75,0,0,0-1.238.512l-4,4a1.751,1.751,0,0,0-.512,1.238v4.687a1.749,1.749,0,0,0,1.75,1.75h6.187v5.188H38.868a1.75,1.75,0,1,0,0,3.5h6.187v6.25a1.75,1.75,0,0,0,3.5,0v-6.25h2.188a1.75,1.75,0,0,0,1.237-.513l4-4a1.75,1.75,0,0,0,.513-1.237v-4.688a1.75,1.75,0,0,0-1.75-1.75H48.555V96.638Zm-1.75,8.687v2.213l-2.975,2.975H48.555v-5.188Zm-7.938-3.5H40.618V99.612l2.975-2.974h1.462Z"/><path d="M92.688,66.564a1.75,1.75,0,1,0,0-3.5H86.5v-6.25a1.75,1.75,0,1,0-3.5,0v6.25H80.813a1.75,1.75,0,0,0-1.238.512l-4,4a1.751,1.751,0,0,0-.512,1.238V73.5a1.749,1.749,0,0,0,1.75,1.75H83v5.188H76.813a1.75,1.75,0,0,0,0,3.5H83v6.25a1.75,1.75,0,0,0,3.5,0v-6.25h2.188a1.752,1.752,0,0,0,1.237-.513l4-4a1.752,1.752,0,0,0,.513-1.237V73.5a1.75,1.75,0,0,0-1.75-1.75H86.5V66.564Zm-1.75,8.687v2.213l-2.976,2.975H86.5V75.251ZM83,71.751H78.563V69.538l2.975-2.974H83Z"/><path d="M121.382,81.342,99.661,39.6a6.349,6.349,0,0,0-.568-12.672h-.8L109.843,4.3a1.75,1.75,0,0,0-2.075-2.468l-4.626,1.43A19.627,19.627,0,0,1,85.787.339a1.752,1.752,0,0,0-2.074,0A19.637,19.637,0,0,1,66.358,3.266l-4.626-1.43A1.75,1.75,0,0,0,59.657,4.3L71.211,26.925h-.8A6.349,6.349,0,0,0,69.839,39.6L49.311,79.049v-37.2a1.75,1.75,0,0,0-1.75-1.75H6.061a1.75,1.75,0,0,0-1.75,1.75V97.126a1.75,1.75,0,0,0,1.75,1.75H22.834a24.429,24.429,0,0,0,47.284,12h33.339A20.2,20.2,0,0,0,121.382,81.342ZM64.66,6.4A23.176,23.176,0,0,0,84.75,3.878,22.729,22.729,0,0,0,104.84,6.4L94.359,26.925H75.141Zm2.9,26.871a2.853,2.853,0,0,1,2.85-2.85H99.093a2.851,2.851,0,0,1,0,5.7H70.407A2.853,2.853,0,0,1,67.557,33.275ZM44,79.31a24.641,24.641,0,0,0-12.232,5.01H7.811V76.765h38v2.4C45.2,79.2,44.6,79.238,44,79.31ZM7.811,65.709h38v7.556h-38Zm38-3.5h-38V54.653h38ZM7.811,43.6h38v7.555h-38Zm15.98,51.778H7.811V87.82H28.13A25.408,25.408,0,0,0,23.791,95.376ZM46.805,124.5a20.952,20.952,0,0,1-20.928-20.929c-.207-11.271,9.7-21.1,20.928-20.928,11.23-.19,21.1,9.718,20.929,20.928A21.008,21.008,0,0,1,46.805,124.5Zm56.652-17.125H70.937a26.686,26.686,0,0,0,.3-3.8A24.553,24.553,0,0,0,52.817,79.893L73.77,39.626H95.73l22.548,43.331A16.707,16.707,0,0,1,103.457,107.376Z"/></g></svg>
