<svg height="512" viewBox="0 0 128 128" width="512" xmlns="http://www.w3.org/2000/svg"><g><path d="m122.25 35.837h-6.334a5.757 5.757 0 0 0 -5.75 5.75v12.936h-9.228l-2.745-3.253a13.343 13.343 0 0 0 -10.216-4.747h-10.227a1.767 1.767 0 0 0 -.563.093l-28.037 9.522-13.926-9.319a1.76 1.76 0 0 0 -.974-.3h-16.416v-4.932a5.757 5.757 0 0 0 -5.75-5.75h-6.334a5.757 5.757 0 0 0 -5.75 5.75v56.936a5.756 5.756 0 0 0 5.75 5.75h6.334a5.756 5.756 0 0 0 5.75-5.75v-8.75h10.987l3.815 3.484a5.771 5.771 0 0 0 .386 7.88l16.815 16.126a5.781 5.781 0 0 0 8.045-.085l.455-.455.8.727a7.752 7.752 0 0 0 9.9.456l25.3-19.152a7.727 7.727 0 0 0 2.551-8.981h13.276v8.75a5.756 5.756 0 0 0 5.75 5.75h6.334a5.756 5.756 0 0 0 5.75-5.75v-56.936a5.757 5.757 0 0 0 -5.748-5.75zm-107.916 62.686a2.253 2.253 0 0 1 -2.25 2.25h-6.334a2.253 2.253 0 0 1 -2.25-2.25v-56.936a2.253 2.253 0 0 1 2.25-2.25h6.334a2.253 2.253 0 0 1 2.25 2.25zm37.925 16.213-16.815-16.125a2.261 2.261 0 0 1 .119-3.355l6.424-5.337a3.474 3.474 0 0 1 4.5.079l15.046 13.415a3.471 3.471 0 0 1 .144 5.019l-6.27 6.268a2.262 2.262 0 0 1 -3.148.036zm39.967-18.773-2.74 2.074-5.942-4.418a1.75 1.75 0 0 0 -2.088 2.809l5.124 3.809-5.395 4.084-5.835-4.886a1.75 1.75 0 0 0 -2.247 2.684l5.219 4.369-4.843 3.665-2.523-2.4a1.75 1.75 0 1 0 -2.412 2.537l2.107 2-3.726 2.82a4.251 4.251 0 0 1 -5.432-.25l-.678-.619 3.339-3.34a7 7 0 0 0 -.288-10.105c-.1-.086-15.344-13.684-15.046-13.416a6.957 6.957 0 0 0 -9.07-.158l-4.465 3.709-4.6-4.205a1.75 1.75 0 0 0 -1.18-.458h-11.671v-36.245h15.885l11.256 7.533-7.538 2.56a1.763 1.763 0 0 0 -.916 2.594l5.25 8.282a1.741 1.741 0 0 0 1.636.806l20.134-1.818 28.483 19.062a4.247 4.247 0 0 1 .202 6.921zm1.955-9.69-.206-.137-14.6-9.769a12.728 12.728 0 0 0 11.871-12.682v-3.474a1.75 1.75 0 0 0 -3.5 0v3.474a9.232 9.232 0 0 1 -9.221 9.222h-4.318l-9.233-6.18a1.741 1.741 0 0 0 -1.131-.287l-19.687 1.776-3.487-5.5 37.37-12.692h9.938a9.849 9.849 0 0 1 7.542 3.5l3.268 3.876a1.751 1.751 0 0 0 1.338.621h10.041v28.25zm30.319 12.25a2.253 2.253 0 0 1 -2.25 2.25h-6.334a2.253 2.253 0 0 1 -2.25-2.25v-56.936a2.253 2.253 0 0 1 2.25-2.25h6.334a2.253 2.253 0 0 1 2.25 2.25z"/><path d="m64 33.961a5.757 5.757 0 0 0 5.75-5.75v-13.938a5.75 5.75 0 1 0 -11.5 0v13.938a5.757 5.757 0 0 0 5.75 5.75zm-2.25-19.688a2.25 2.25 0 1 1 4.5 0v13.938a2.25 2.25 0 0 1 -4.5 0z"/><path d="m78.245 37.373a5.774 5.774 0 0 0 8.036-1.246l3.436-4.7a5.75 5.75 0 1 0 -9.282-6.789l-3.435 4.7a5.775 5.775 0 0 0 1.245 8.035zm1.578-5.973 3.438-4.7a2.25 2.25 0 0 1 3.632 2.656l-3.437 4.7a2.25 2.25 0 0 1 -3.633-2.656z"/><path d="m51 29.338-3.437-4.7a5.75 5.75 0 1 0 -9.281 6.789l3.436 4.7a5.75 5.75 0 0 0 9.282-6.789zm-3.313 5.21a2.257 2.257 0 0 1 -3.143-.487l-3.437-4.7a2.25 2.25 0 0 1 3.632-2.656l3.438 4.7a2.26 2.26 0 0 1 -.489 3.143z"/></g></svg>