<svg height="512" viewBox="0 0 128 128" width="512" xmlns="http://www.w3.org/2000/svg"><g><path d="m126.25 87.578h-8.125v-58.514a10.762 10.762 0 0 0 -10.75-10.75h-86.75a10.762 10.762 0 0 0 -10.75 10.75v58.514h-8.125a1.749 1.749 0 0 0 -1.75 1.75v11.608a1.75 1.75 0 0 0 .513 1.237l7 7a1.746 1.746 0 0 0 1.237.513h110.5a1.746 1.746 0 0 0 1.237-.513l7-7a1.75 1.75 0 0 0 .513-1.237v-11.608a1.749 1.749 0 0 0 -1.75-1.75zm-112.875-58.514a7.258 7.258 0 0 1 7.25-7.25h86.75a7.258 7.258 0 0 1 7.25 7.25v58.514h-101.25zm9.875 62.014h81.5v4.022a2.253 2.253 0 0 1 -2.25 2.25h-77a2.253 2.253 0 0 1 -2.25-2.25zm101.25 9.133-5.975 5.975h-109.05l-5.975-5.975v-9.133h16.25v4.022a5.757 5.757 0 0 0 5.75 5.75h77a5.757 5.757 0 0 0 5.75-5.75v-4.022h16.25z"/><path d="m110.125 81.328v-52.264a2.753 2.753 0 0 0 -2.75-2.75h-86.75a2.753 2.753 0 0 0 -2.75 2.75v52.264a1.75 1.75 0 0 0 1.75 1.75h88.75a1.75 1.75 0 0 0 1.75-1.75zm-3.5-1.75h-85.25v-49.764h85.25z"/></g></svg>