<?xml version="1.0" encoding="UTF-8"?>
<svg xmlns="http://www.w3.org/2000/svg" width="512" height="512" viewBox="0 0 128 128"><g><path d="M80.631,86.553a1.75,1.75,0,0,0,0-3.5H16.084a1.75,1.75,0,0,0,0,3.5Z"/><path d="M85.123,93.589H11.593a1.75,1.75,0,0,0,0,3.5h73.53a1.75,1.75,0,0,0,0-3.5Z"/><path d="M80.631,107.625a1.75,1.75,0,0,0,0-3.5H16.084a1.75,1.75,0,0,0,0,3.5Z"/><path d="M85.123,114.66H11.593a1.75,1.75,0,1,0,0,3.5h73.53a1.75,1.75,0,1,0,0-3.5Z"/><path d="M89.965,0H6.75A6.758,6.758,0,0,0,0,6.747V121.253A6.758,6.758,0,0,0,6.75,128H89.965a6.758,6.758,0,0,0,6.75-6.75V6.747A6.758,6.758,0,0,0,89.965,0Zm3.25,121.256a3.254,3.254,0,0,1-3.25,3.25H6.75a3.254,3.254,0,0,1-3.25-3.25V6.747A3.254,3.254,0,0,1,6.75,3.5H89.965a3.254,3.254,0,0,1,3.25,3.25Z"/><path d="M121.562,26.017h-2.531V17.8a1.749,1.749,0,0,0-1.75-1.75h-.875V11.267a4.755,4.755,0,0,0-4.75-4.75h-3.531a4.755,4.755,0,0,0-4.75,4.75v4.781H102.5a1.749,1.749,0,0,0-1.75,1.75v90.469a1.928,1.928,0,0,0,.2.811l6,11.467a1.75,1.75,0,0,0,1.551.938h2.781a1.749,1.749,0,0,0,1.551-.938l6-11.467a1.928,1.928,0,0,0,.2-.811V29.517h2.531a2.94,2.94,0,0,1,2.938,2.937V69.142a1.75,1.75,0,0,0,3.5,0V32.454A6.444,6.444,0,0,0,121.562,26.017Zm-17.312,80.5V19.548h11.281V44.142h-2.64a1.751,1.751,0,0,0-1.238.512l-3,3a1.752,1.752,0,0,0-.512,1.239v57.625Zm7.391-56.9,1.974-1.974h1.916v58.875h-3.89Zm-4.766-38.349a1.25,1.25,0,0,1,1.25-1.25h3.531a1.25,1.25,0,0,1,1.25,1.25v4.781h-6.031Zm3.347,106.716h-.662l-4.169-7.966h9Z"/><path d="M85.123,35.75H81.81L76.7,23.125h4.53a1.75,1.75,0,0,0,0-3.5H54.107V13.747a5.75,5.75,0,0,0-11.5,0v5.878H15.482a1.75,1.75,0,0,0,0,3.5h4.531L14.9,35.75H11.593a1.749,1.749,0,0,0-1.75,1.75V40a10.762,10.762,0,0,0,10.75,10.75h4.032A10.762,10.762,0,0,0,35.375,40V37.5a1.749,1.749,0,0,0-1.75-1.75H30.312L25.2,23.125h17.4V64H32.2a5.756,5.756,0,0,0-5.75,5.75v4.518a1.75,1.75,0,0,0,1.75,1.75H68.514a1.751,1.751,0,0,0,1.75-1.75V69.75A5.756,5.756,0,0,0,64.514,64H54.107V23.125h17.4L66.4,35.75H63.091a1.749,1.749,0,0,0-1.75,1.75V40a10.762,10.762,0,0,0,10.75,10.75h4.032A10.762,10.762,0,0,0,86.873,40V37.5A1.749,1.749,0,0,0,85.123,35.75ZM31.875,40a7.258,7.258,0,0,1-7.25,7.25H20.593A7.258,7.258,0,0,1,13.343,40v-.75H31.875ZM18.68,35.75l3.928-9.71,3.929,9.71Zm48.084,34v2.768H29.951V69.75A2.253,2.253,0,0,1,32.2,67.5H64.514A2.253,2.253,0,0,1,66.764,69.75ZM46.107,64V13.747a2.25,2.25,0,0,1,4.5,0V64Zm28-37.96,3.929,9.71H70.178ZM83.373,40a7.258,7.258,0,0,1-7.25,7.25H72.091A7.258,7.258,0,0,1,64.841,40v-.75H83.373Z"/></g></svg>
