<?xml version="1.0" encoding="UTF-8"?>
<svg xmlns="http://www.w3.org/2000/svg" width="512" height="512" viewBox="0 0 128 128"><g><path d="M17.507,19.367H59.954a1.75,1.75,0,0,0,1.75-1.75V9.682a1.75,1.75,0,0,0-1.75-1.75H17.507a1.75,1.75,0,0,0-1.75,1.75v7.935A1.75,1.75,0,0,0,17.507,19.367Zm1.75-7.935H58.2v4.435H19.257Z"/><path d="M17.507,27.987h59.28a1.75,1.75,0,0,0,0-3.5H17.507a1.75,1.75,0,0,0,0,3.5Z"/><path d="M21.128,32.981a1.75,1.75,0,0,0,0,3.5H73.166a1.75,1.75,0,0,0,0-3.5Z"/><path d="M17.507,44.976h59.28a1.75,1.75,0,0,0,0-3.5H17.507a1.75,1.75,0,0,0,0,3.5Z"/><path d="M21.128,49.97a1.75,1.75,0,0,0,0,3.5H73.166a1.75,1.75,0,0,0,0-3.5Z"/><path d="M17.507,61.964h59.28a1.75,1.75,0,0,0,0-3.5H17.507a1.75,1.75,0,0,0,0,3.5Z"/><path d="M21.081,87.446h8.785a1.75,1.75,0,0,0,0-3.5H21.081a1.75,1.75,0,0,0,0,3.5Z"/><path d="M33.44,92.44H17.507a1.75,1.75,0,0,0,0,3.5H33.44a1.75,1.75,0,0,0,0-3.5Z"/><path d="M76.384,95.94a1.75,1.75,0,1,0,0-3.5H60.45a1.75,1.75,0,1,0,0,3.5Z"/><path d="M119.666,109.869,114.7,104.9a1.749,1.749,0,0,0-1.237-.512h-6.5v-2.1a5.728,5.728,0,0,0-5.722-5.721H96.6V83.4a7.023,7.023,0,0,1,3.633-6.15,6.937,6.937,0,0,0,1.731-10.8l-2.978-3.2a1.749,1.749,0,0,0-1.281-.558H86.473V17.617a1.813,1.813,0,0,0-.513-1.237L70.09.51A1.826,1.826,0,0,0,68.852,0H13.539A5.725,5.725,0,0,0,7.821,5.715V98.157a5.725,5.725,0,0,0,5.718,5.718H68.088v.517h-6.5a1.75,1.75,0,0,0-1.237.513l-4.964,4.964a1.75,1.75,0,0,0-.513,1.237v8.316a1.749,1.749,0,0,0,1.75,1.75h3.09v1.6A5.231,5.231,0,0,0,64.935,128h45.178a5.231,5.231,0,0,0,5.225-5.225v-1.6h3.091a1.75,1.75,0,0,0,1.75-1.75v-8.316A1.75,1.75,0,0,0,119.666,109.869ZM99.4,68.831a3.437,3.437,0,0,1-.857,5.352A10.521,10.521,0,0,0,93.1,83.4V96.573H81.951V83.4a10.522,10.522,0,0,0-5.443-9.215,3.436,3.436,0,0,1-.859-5.352l2.459-2.643H96.94ZM70.6,5.973,80.5,15.867H70.6ZM11.321,98.157V5.715A2.221,2.221,0,0,1,13.539,3.5H67.1v14.12a1.751,1.751,0,0,0,1.75,1.75H82.973V62.688H77.347a1.749,1.749,0,0,0-1.282.558l-2.978,3.2c-.152.163-.29.336-.424.511H21.128a1.75,1.75,0,0,0,0,3.5H71.272a6.976,6.976,0,0,0,.044,1.812,6.9,6.9,0,0,0,3.5,4.978,7.02,7.02,0,0,1,3.633,6.15v.548H75.8V80.254a1.75,1.75,0,0,0-3.191-.994l-2.007,2.907.357-5.117a1.75,1.75,0,0,0-3.241-1.031l-3.61,5.931-.577-1.9a1.75,1.75,0,0,0-2.876-.764l-5.442,5.139a1.75,1.75,0,1,0,2.4,2.545l3.388-3.2.891,2.938a1.751,1.751,0,0,0,3.17.4l1.9-3.127-.3,4.312a1.751,1.751,0,0,0,3.186,1.117l2.454-3.555a1.751,1.751,0,0,0,1.743,1.589h4.4v9.127H73.81a5.759,5.759,0,0,0-5.384,3.8H13.539A2.221,2.221,0,0,1,11.321,98.157Zm60.267,4.153a2.251,2.251,0,0,1,2.222-2.237h27.429a2.224,2.224,0,0,1,2.222,2.221v2.1H71.588Zm40.25,20.462a1.727,1.727,0,0,1-1.725,1.725H64.935a1.727,1.727,0,0,1-1.725-1.725v-1.6h48.628Zm4.841-5.1H58.37v-5.841l3.939-3.939h50.43l3.94,3.939Z"/><path d="M110.587,111.032H64.462a1.75,1.75,0,0,0,0,3.5h46.125a1.75,1.75,0,0,0,0-3.5Z"/></g></svg>
