<?xml version="1.0" encoding="UTF-8"?>
<svg xmlns="http://www.w3.org/2000/svg" width="512" height="512" viewBox="0 0 128 128"><g><path d="M89,51.142h4.594a1.75,1.75,0,0,0,0-3.5H89a1.75,1.75,0,0,0,0,3.5Z"/><path d="M39,47.642H34.406a1.75,1.75,0,0,0,0,3.5H39a1.75,1.75,0,0,0,0-3.5Z"/><path d="M64,66.017A11.2,11.2,0,0,0,75.187,54.829a1.75,1.75,0,1,0-3.5,0,7.688,7.688,0,1,1-15.375,0,1.75,1.75,0,1,0-3.5,0A11.2,11.2,0,0,0,64,66.017Z"/><path d="M90.687,84.19H76.719V75.4A28.534,28.534,0,0,0,91.473,57.878h3.291a8.486,8.486,0,1,0,0-16.972H92.656V28.656A28.688,28.688,0,0,0,64,0H28.75a1.749,1.749,0,0,0-1.691,2.2,15.028,15.028,0,0,0,6.365,8.453l-9.861,4.208a1.75,1.75,0,0,0-.62,2.774c.274.307,6.392,7.126,12.414,10.219-.008.278-.013,13.054-.013,13.054H33.236a8.486,8.486,0,1,0,0,16.972h3.291A28.534,28.534,0,0,0,51.281,75.4v8.79H37.312a27.782,27.782,0,0,0-27.75,27.75v14.31a1.75,1.75,0,0,0,1.75,1.75H116.687a1.749,1.749,0,0,0,1.75-1.75V111.94A27.781,27.781,0,0,0,90.687,84.19Zm-7.418,3.5-4.684,21-9.943-6.312a12.828,12.828,0,0,0,8.077-11.842V87.69ZM58.33,124.5l3.629-8.309h4.082L69.67,124.5Zm8.079-11.809H61.593l-4.344-4.827L64,103.576l6.752,4.286ZM37.862,25.169c-3.906-1.692-8.265-5.729-10.6-8.081L39,12.078a1.75,1.75,0,0,0-.47-3.346A9.481,9.481,0,0,1,31.361,3.5H64A25.185,25.185,0,0,1,89.156,28.656v12.25H86.937a2.253,2.253,0,0,1-2.25-2.25V30.781a5.756,5.756,0,0,0-5.75-5.75H49.062a5.757,5.757,0,0,0-5.75,5.75v7.875a2.252,2.252,0,0,1-2.25,2.25H38.844V28.656c0-.591.027-1.177.069-1.759A1.749,1.749,0,0,0,37.862,25.169Zm1.7,30.544a1.749,1.749,0,0,0-1.7-1.335H33.236a4.986,4.986,0,1,1,0-9.972h7.826a5.756,5.756,0,0,0,5.75-5.75V30.781a2.253,2.253,0,0,1,2.25-2.25H78.937a2.253,2.253,0,0,1,2.25,2.25v7.875a5.757,5.757,0,0,0,5.75,5.75h7.827a4.986,4.986,0,1,1,0,9.972H90.133a1.749,1.749,0,0,0-1.7,1.335A25.067,25.067,0,0,1,74.344,72.666a25.444,25.444,0,0,1-20.688,0A25.067,25.067,0,0,1,39.567,55.713ZM64,78.378a28.784,28.784,0,0,0,9.219-1.51V90.534a9.219,9.219,0,1,1-18.438,0V76.868A28.784,28.784,0,0,0,64,78.378ZM51.281,87.69v2.844a12.828,12.828,0,0,0,8.077,11.842l-9.943,6.312-4.685-21ZM13.062,111.94a24.278,24.278,0,0,1,24.25-24.25h3.832l5.4,24.191a1.765,1.765,0,0,0,2.645,1.1l5.065-3.215,4.507,5.008L54.51,124.5h-25.2V113.128a1.75,1.75,0,0,0-3.5,0V124.5H13.062ZM114.937,124.5h-12.75V113.128a1.75,1.75,0,0,0-3.5,0V124.5H73.49l-4.248-9.728,4.507-5.008,5.063,3.214a1.767,1.767,0,0,0,2.646-1.1l5.4-24.191h3.831a24.277,24.277,0,0,1,24.25,24.25Z"/></g></svg>
