<?xml version="1.0" encoding="UTF-8"?>
<svg xmlns="http://www.w3.org/2000/svg" width="512" height="512" viewBox="0 0 128 128"><g><path d="M126.25,22.878H1.75A1.749,1.749,0,0,0,0,24.628v78.744a1.749,1.749,0,0,0,1.75,1.75h124.5a1.749,1.749,0,0,0,1.75-1.75V24.628A1.749,1.749,0,0,0,126.25,22.878Zm-1.75,78.744H3.5V26.378h121Z"/><path d="M9.75,90.122A5.257,5.257,0,0,1,15,95.372a1.749,1.749,0,0,0,1.75,1.75h94.5a1.749,1.749,0,0,0,1.75-1.75,5.256,5.256,0,0,1,5.25-5.25,1.749,1.749,0,0,0,1.75-1.75V39.628a1.749,1.749,0,0,0-1.75-1.75,5.256,5.256,0,0,1-5.25-5.25,1.749,1.749,0,0,0-1.75-1.75H16.75A1.749,1.749,0,0,0,15,32.628a5.257,5.257,0,0,1-5.25,5.25A1.749,1.749,0,0,0,8,39.628V88.372A1.749,1.749,0,0,0,9.75,90.122ZM11.5,41.2a8.778,8.778,0,0,0,6.824-6.824h91.352A8.778,8.778,0,0,0,116.5,41.2V86.8a8.778,8.778,0,0,0-6.824,6.824H18.324A8.778,8.778,0,0,0,11.5,86.8Z"/><path d="M64,88.429A24.429,24.429,0,1,0,39.571,64,24.457,24.457,0,0,0,64,88.429Zm0-45.358A20.929,20.929,0,1,1,43.071,64,20.953,20.953,0,0,1,64,43.071Z"/><path d="M56.062,70.94a1.75,1.75,0,0,0,0,3.5H62.25v6.25a1.75,1.75,0,0,0,3.5,0V74.44h2.187a1.751,1.751,0,0,0,1.238-.512l4-4a1.751,1.751,0,0,0,.512-1.238V64a1.749,1.749,0,0,0-1.75-1.75H65.75V57.065h6.187a1.75,1.75,0,0,0,0-3.5H65.75v-6.25a1.75,1.75,0,0,0-3.5,0v6.25H60.062a1.752,1.752,0,0,0-1.237.513l-4,4a1.752,1.752,0,0,0-.513,1.237V64a1.75,1.75,0,0,0,1.75,1.75H62.25V70.94Zm1.75-8.687V60.04l2.975-2.975H62.25v5.188Zm7.938,3.5h4.437v2.213L67.213,70.94H65.75Z"/><path d="M17.75,80.747h19.5a1.75,1.75,0,0,0,1.525-2.608,28.824,28.824,0,0,1,0-28.278,1.75,1.75,0,0,0-1.525-2.608H17.75A1.749,1.749,0,0,0,16,49V79A1.749,1.749,0,0,0,17.75,80.747ZM19.5,50.753H34.411a32.315,32.315,0,0,0,0,26.494H19.5Z"/><path d="M89.237,79.88a1.75,1.75,0,0,0,1.511.867h19.5A1.749,1.749,0,0,0,112,79V49a1.749,1.749,0,0,0-1.75-1.75h-19.5a1.75,1.75,0,0,0-1.525,2.608,28.824,28.824,0,0,1,0,28.278A1.751,1.751,0,0,0,89.237,79.88Zm4.352-29.127H108.5V77.247H93.589a32.315,32.315,0,0,0,0-26.494Z"/></g></svg>
