<svg height="512" viewBox="0 0 128 128" width="512" xmlns="http://www.w3.org/2000/svg"><g><path d="m117.1 61.868a1.759 1.759 0 0 0 2.465-.214l8.03-9.554a1.762 1.762 0 0 0 -.214-2.466l-48.153-40.459a1.747 1.747 0 0 0 -1.126-.41h-28.202a1.749 1.749 0 0 0 -1.126.41l-48.15 40.459a1.751 1.751 0 0 0 -.213 2.466l8.027 9.554a1.76 1.76 0 0 0 2.466.214l5.849-4.915v46.5h-4.066a7.759 7.759 0 0 0 -7.75 7.75v6.278a1.75 1.75 0 0 0 1.75 1.75h114.625a1.749 1.749 0 0 0 1.75-1.75v-6.278a7.759 7.759 0 0 0 -7.75-7.75h-4.066v-46.5zm-107.1-3.8-5.784-6.88 46.319-38.923h26.93l46.319 38.923-5.777 6.875-43.325-36.41a1.757 1.757 0 0 0 -1.126-.41h-19.112a1.757 1.757 0 0 0 -1.126.41zm109.57 53.144v4.528h-111.133v-4.528a4.255 4.255 0 0 1 4.25-4.25h102.625a4.254 4.254 0 0 1 4.25 4.245zm-11.816-7.75h-28.793a33.822 33.822 0 1 0 -29.923 0h-28.785v-49.45l34.829-29.269h17.836l34.828 29.269zm-43.746 0a30.322 30.322 0 1 1 30.314-30.327 30.356 30.356 0 0 1 -30.322 30.322z"/><path d="m64 48.706a24.429 24.429 0 1 0 24.429 24.429 24.457 24.457 0 0 0 -24.429-24.429zm0 45.358a20.929 20.929 0 1 1 20.929-20.929 20.953 20.953 0 0 1 -20.929 20.929z"/><path d="m71.937 66.2a1.75 1.75 0 0 0 0-3.5h-6.187v-6.25a1.75 1.75 0 0 0 -3.5 0v6.25h-2.188a1.752 1.752 0 0 0 -1.237.513l-4 4a1.75 1.75 0 0 0 -.513 1.237v4.688a1.751 1.751 0 0 0 1.75 1.75h6.188v5.187h-6.188a1.75 1.75 0 0 0 0 3.5h6.188v6.25a1.75 1.75 0 0 0 3.5 0v-6.25h2.187a1.751 1.751 0 0 0 1.238-.512l4-4a1.757 1.757 0 0 0 .512-1.239v-4.686a1.749 1.749 0 0 0 -1.75-1.75h-6.187v-5.188zm-1.75 8.688v2.212l-2.974 2.974h-1.463v-5.186zm-7.937-3.5h-4.438v-2.213l2.976-2.975h1.462z"/></g></svg>