<?xml version="1.0" encoding="UTF-8"?>
<svg xmlns="http://www.w3.org/2000/svg" width="512" height="512" viewBox="0 0 128 128"><g><path d="M104.375,12.75H98.75v-6A6.758,6.758,0,0,0,92,0h-.5a6.758,6.758,0,0,0-6.75,6.75v6h-4.5v-6A6.758,6.758,0,0,0,73.5,0H73a6.758,6.758,0,0,0-6.75,6.75v6h-4.5v-6A6.758,6.758,0,0,0,55,0h-.5a6.758,6.758,0,0,0-6.75,6.75v6h-4.5v-6A6.758,6.758,0,0,0,36.5,0H36a6.758,6.758,0,0,0-6.75,6.75v6H23.625a1.749,1.749,0,0,0-1.75,1.75V126.25a1.749,1.749,0,0,0,1.75,1.75h80.75a1.749,1.749,0,0,0,1.75-1.75V14.5A1.749,1.749,0,0,0,104.375,12.75Zm-16.125-6A3.254,3.254,0,0,1,91.5,3.5H92a3.254,3.254,0,0,1,3.25,3.25v6h-7Zm-18.5,0A3.254,3.254,0,0,1,73,3.5h.5a3.254,3.254,0,0,1,3.25,3.25v6h-7Zm-18.5,0A3.254,3.254,0,0,1,54.5,3.5H55a3.254,3.254,0,0,1,3.25,3.25v6h-7Zm-18.5,0A3.254,3.254,0,0,1,36,3.5h.5a3.254,3.254,0,0,1,3.25,3.25v6h-7Zm-7.375,9.5H39.75v7.781a1.75,1.75,0,1,0,3.5,0V16.25h15v7.781a1.75,1.75,0,1,0,3.5,0V16.25h15v7.781a1.75,1.75,0,1,0,3.5,0V16.25h15v7.781a1.75,1.75,0,1,0,3.5,0V16.25h3.875V31.813H25.375Zm77.25,108.25H25.375V35.313h77.25Z"/><path d="M31.625,46h64.75a1.75,1.75,0,0,0,0-3.5H31.625a1.75,1.75,0,0,0,0,3.5Z"/><path d="M31.625,56.188h64.75a1.75,1.75,0,0,0,0-3.5H31.625a1.75,1.75,0,0,0,0,3.5Z"/><path d="M31.625,66.375h64.75a1.75,1.75,0,0,0,0-3.5H31.625a1.75,1.75,0,0,0,0,3.5Z"/><path d="M31.625,76.563h64.75a1.75,1.75,0,0,0,0-3.5H31.625a1.75,1.75,0,0,0,0,3.5Z"/><path d="M31.625,86.75h64.75a1.75,1.75,0,0,0,0-3.5H31.625a1.75,1.75,0,0,0,0,3.5Z"/><path d="M31.625,96.938h64.75a1.75,1.75,0,0,0,0-3.5H31.625a1.75,1.75,0,0,0,0,3.5Z"/><path d="M31.625,107.125h64.75a1.75,1.75,0,0,0,0-3.5H31.625a1.75,1.75,0,0,0,0,3.5Z"/><path d="M31.625,117.313h64.75a1.75,1.75,0,0,0,0-3.5H31.625a1.75,1.75,0,1,0,0,3.5Z"/></g></svg>
