<svg height="512" viewBox="0 0 128 128" width="512" xmlns="http://www.w3.org/2000/svg"><g><path d="m100.8 68.436a12 12 0 1 0 12 12 12.013 12.013 0 0 0 -12-12zm0 20.5a8.5 8.5 0 1 1 8.5-8.5 8.51 8.51 0 0 1 -8.5 8.5z"/><path d="m13.071 43.606v8.414a5.364 5.364 0 0 0 5.357 5.357h7.772a5.363 5.363 0 0 0 5.36-5.357v-8.414a14.17 14.17 0 0 0 5.072-10.914 14.316 14.316 0 0 0 -28.632 0 14.173 14.173 0 0 0 5.071 10.914zm14.989 8.414a1.859 1.859 0 0 1 -1.86 1.857h-7.772a1.86 1.86 0 0 1 -1.857-1.857v-3.772h11.489zm-5.745-15.626a2.371 2.371 0 1 1 2.371-2.371 2.373 2.373 0 0 1 -2.371 2.371zm0-14.517a10.8 10.8 0 0 1 6.45 19.482 1.747 1.747 0 0 0 -.705 1.4v1.986h-3.995v-5.118a5.87 5.87 0 1 0 -3.5 0v5.121h-3.994v-1.986a1.749 1.749 0 0 0 -.7-1.4 10.8 10.8 0 0 1 6.448-19.482z"/><path d="m43.437 32.814h74.813a1.75 1.75 0 0 0 1.75-1.75v-10.937a1.749 1.749 0 0 0 -1.75-1.75h-74.813a1.75 1.75 0 0 0 -1.75 1.75v10.937a1.751 1.751 0 0 0 1.75 1.75zm1.75-10.937h71.313v7.437h-71.313z"/><path d="m43.437 40.877h74.813a1.75 1.75 0 0 0 0-3.5h-74.813a1.75 1.75 0 0 0 0 3.5z"/><path d="m43.437 49.127h74.813a1.75 1.75 0 0 0 0-3.5h-74.813a1.75 1.75 0 0 0 0 3.5z"/><path d="m43.437 57.377h74.813a1.75 1.75 0 0 0 0-3.5h-74.813a1.75 1.75 0 0 0 0 3.5z"/><path d="m9.75 70.314h63.687a1.75 1.75 0 0 0 0-3.5h-63.687a1.75 1.75 0 0 0 0 3.5z"/><path d="m60.125 76.127h-37.063a1.75 1.75 0 1 0 0 3.5h37.063a1.75 1.75 0 1 0 0-3.5z"/><path d="m126.25 10.377h-124.5a1.749 1.749 0 0 0 -1.75 1.75v73.873a1.75 1.75 0 0 0 1.75 1.75h80.791l.653 4.474a1.75 1.75 0 0 0 .957 1.316l3.543 1.748v20.583a1.763 1.763 0 0 0 2.568 1.548l10.542-5.569 10.542 5.569a1.762 1.762 0 0 0 2.567-1.548v-20.58l3.543-1.749a1.748 1.748 0 0 0 .957-1.316l.653-4.474h7.184a1.75 1.75 0 0 0 1.75-1.752v-73.873a1.749 1.749 0 0 0 -1.75-1.75zm-15.837 102.593-8.792-4.644a1.751 1.751 0 0 0 -1.635 0l-8.792 4.644v-15l2.289 2.351a1.751 1.751 0 0 0 1.551.5l5.77-.993 5.769.993a1.809 1.809 0 0 0 1.551-.5l2.289-2.35zm-.024-19.843a1.76 1.76 0 0 0 -.48.349l-3.65 3.749-5.158-.889a1.742 1.742 0 0 0 -.594 0l-5.158.889-3.649-3.749a1.734 1.734 0 0 0 -.479-.349l-4.697-2.317-.755-5.179a1.769 1.769 0 0 0 -.182-.56l-2.432-4.635 2.432-4.636a1.745 1.745 0 0 0 .182-.56l.756-5.179 4.694-2.316a1.734 1.734 0 0 0 .481-.345l3.651-3.748 5.158.888a1.742 1.742 0 0 0 .594 0l5.158-.888 3.649 3.748a1.756 1.756 0 0 0 .48.348l4.693 2.317.757 5.179a1.759 1.759 0 0 0 .181.56l2.431 4.635-2.432 4.636a1.751 1.751 0 0 0 -.181.56v.006.014l-.753 5.158zm14.111-8.875h-4.1l1.575-3a1.75 1.75 0 0 0 0-1.626l-2.715-5.186-.847-5.794a1.748 1.748 0 0 0 -.957-1.316l-5.248-2.59-4.084-4.194a1.751 1.751 0 0 0 -1.551-.5l-5.769.993-5.769-.993a1.82 1.82 0 0 0 -1.552.5l-4.083 4.193-5.249 2.591a1.75 1.75 0 0 0 -.957 1.316l-.845 5.793-2.72 5.184a1.75 1.75 0 0 0 0 1.626l1.575 3h-77.704v-70.372h121z"/></g></svg>