<svg height="512" viewBox="0 0 128 128" width="512" xmlns="http://www.w3.org/2000/svg"><g><path d="m115.261 72.518h-2.9v-51.086a1.812 1.812 0 0 0 -.512-1.238l-19.689-19.684a1.827 1.827 0 0 0 -1.237-.51h-68.61a6.678 6.678 0 0 0 -6.67 6.671v65.85h-2.9a1.749 1.749 0 0 0 -1.75 1.75v37.607a1.749 1.749 0 0 0 1.75 1.75h2.9v7.707a6.678 6.678 0 0 0 6.67 6.665h83.373a6.678 6.678 0 0 0 6.671-6.671v-7.707h2.9a1.75 1.75 0 0 0 1.75-1.75v-37.604a1.75 1.75 0 0 0 -1.746-1.75zm-8.879-52.836h-13.709v-13.71zm-87.239-13.014a3.174 3.174 0 0 1 3.17-3.168h66.86v17.932a1.75 1.75 0 0 0 1.75 1.75h17.934v49.336h-89.714zm89.714 114.664a3.175 3.175 0 0 1 -3.171 3.171h-83.373a3.174 3.174 0 0 1 -3.17-3.171v-7.707h89.714zm4.654-11.207h-99.022v-34.107h99.022z"/><path d="m37.973 80.518h-17.234a1.749 1.749 0 0 0 -1.75 1.75v21.607a1.75 1.75 0 0 0 3.5 0v-9.054h15.484a7.152 7.152 0 1 0 0-14.3zm0 10.8h-15.484v-7.3h15.484a3.652 3.652 0 1 1 0 7.3z"/><path d="m68.318 80.518h-15.636a1.749 1.749 0 0 0 -1.75 1.75v21.607a1.749 1.749 0 0 0 1.75 1.75h15.636a8.76 8.76 0 0 0 8.75-8.75v-7.607a8.759 8.759 0 0 0 -8.75-8.75zm5.25 16.357a5.256 5.256 0 0 1 -5.25 5.25h-13.886v-18.107h13.886a5.256 5.256 0 0 1 5.25 5.25z"/><path d="m107.261 84.018a1.75 1.75 0 0 0 0-3.5h-22.636a1.75 1.75 0 0 0 -1.75 1.75v21.607a1.75 1.75 0 0 0 3.5 0v-9.054h20.886a1.75 1.75 0 0 0 0-3.5h-20.886v-7.3z"/><path d="m102.607 48.188h-77.214a1.749 1.749 0 0 0 -1.75 1.75v16.33a1.75 1.75 0 0 0 1.75 1.75h77.214a1.75 1.75 0 0 0 1.75-1.75v-16.33a1.749 1.749 0 0 0 -1.75-1.75zm-1.75 16.33h-73.714v-12.83h73.714z"/><path d="m102.607 39.75h-77.214a1.75 1.75 0 0 0 0 3.5h77.214a1.75 1.75 0 0 0 0-3.5z"/><path d="m34 34.813h60a1.75 1.75 0 0 0 0-3.5h-60a1.75 1.75 0 0 0 0 3.5z"/></g></svg>