<svg height="512" viewBox="0 0 128 128" width="512" xmlns="http://www.w3.org/2000/svg"><path d="m128 11.846a7.207 7.207 0 0 0 -2.127-5.133l-4.586-4.586a7.292 7.292 0 0 0 -10.267 0l-7.244 7.244-2.176-2.171a1.75 1.75 0 0 0 -2.474 0l-91.515 91.517a1.971 1.971 0 0 0 -.432.715l-7.099 22.683a1.75 1.75 0 0 0 .433 1.76l3.612 3.612a1.748 1.748 0 0 0 1.76.433l22.683-7.1a1.963 1.963 0 0 0 .715-.432l74.506-74.507 4.322 4.323a2.864 2.864 0 0 1 0 4.045l-28.52 28.522a1.748 1.748 0 0 0 0 2.474l5.656 5.655a1.749 1.749 0 0 0 2.475 0l28.52-28.52a14.44 14.44 0 0 0 0-20.307l-4.323-4.322 8.881-8.881a1.75 1.75 0 0 0 0-2.474l-2.172-2.172 7.244-7.245a7.208 7.208 0 0 0 2.128-5.133zm-11.058 40.382a10.784 10.784 0 0 1 -3.174 7.678l-27.284 27.284-3.184-3.182 27.283-27.283a6.371 6.371 0 0 0 0-9l-4.322-4.322 3.181-3.181 4.323 4.322a10.785 10.785 0 0 1 3.177 7.684zm-111.091 72.036-2.115-2.115 5.919-18.914 15.11 15.11zm22.2-7.587-7.124-7.124 49.382-49.387h6.342l3.949 3.952zm55.027-55.033-4.465-4.465a1.75 1.75 0 0 0 -1.237-.513h-7.792a1.75 1.75 0 0 0 -1.237.513l-49.9 49.9-7.124-7.124 89.044-89.043 16.722 16.722zm40.322-47.139-7.243 7.244-9.905-9.9 7.248-7.249a3.851 3.851 0 0 1 5.317 0l4.583 4.588a3.776 3.776 0 0 1 0 5.317z"/></svg>