<svg height="512" viewBox="0 0 128 128" width="512" xmlns="http://www.w3.org/2000/svg"><g><path d="m102.75 128h-77.5a7.759 7.759 0 0 1 -7.75-7.75v-112.5a7.759 7.759 0 0 1 7.75-7.75h77.5a7.759 7.759 0 0 1 7.75 7.75v112.5a7.759 7.759 0 0 1 -7.75 7.75zm-77.5-124.5a4.254 4.254 0 0 0 -4.25 4.25v112.5a4.254 4.254 0 0 0 4.25 4.25h77.5a4.254 4.254 0 0 0 4.25-4.25v-112.5a4.254 4.254 0 0 0 -4.25-4.25z"/><path d="m100.75 120h-73.5a1.749 1.749 0 0 1 -1.75-1.75v-108.5a1.749 1.749 0 0 1 1.75-1.75h19.125a1.752 1.752 0 0 1 1.4.7l5.475 7.3h21.5l5.475-7.3a1.752 1.752 0 0 1 1.4-.7h19.125a1.749 1.749 0 0 1 1.75 1.75v108.5a1.749 1.749 0 0 1 -1.75 1.75zm-71.75-3.5h70v-105h-16.5l-5.475 7.3a1.752 1.752 0 0 1 -1.4.7h-23.25a1.752 1.752 0 0 1 -1.4-.7l-5.475-7.3h-16.5z"/><path d="m92.75 42.878h-57.5a1.749 1.749 0 0 1 -1.75-1.75v-12.938a1.75 1.75 0 0 1 1.75-1.75h57.5a1.75 1.75 0 0 1 1.75 1.75v12.938a1.749 1.749 0 0 1 -1.75 1.75zm-55.75-3.5h54v-9.438h-54z"/><path d="m92.75 51h-57.5a1.75 1.75 0 0 1 0-3.5h57.5a1.75 1.75 0 0 1 0 3.5z"/><path d="m92.75 60.877h-57.5a1.75 1.75 0 0 1 0-3.5h57.5a1.75 1.75 0 0 1 0 3.5z"/><path d="m92.75 70.752h-57.5a1.75 1.75 0 0 1 0-3.5h57.5a1.75 1.75 0 0 1 0 3.5z"/><path d="m92.75 80.626h-57.5a1.75 1.75 0 0 1 0-3.5h57.5a1.75 1.75 0 0 1 0 3.5z"/><path d="m92.75 90.5h-57.5a1.75 1.75 0 0 1 0-3.5h57.5a1.75 1.75 0 0 1 0 3.5z"/><path d="m92.75 100.374h-57.5a1.75 1.75 0 0 1 0-3.5h57.5a1.75 1.75 0 0 1 0 3.5z"/></g></svg>