<svg height="512" viewBox="0 0 128 128" width="512" xmlns="http://www.w3.org/2000/svg"><g><path d="m89.656 43.75h-5.507l-3.514-25.25h5.676a9.252 9.252 0 1 0 0-18.5h-44.622a9.252 9.252 0 0 0 0 18.5h5.676l-3.514 25.25h-5.507a21.368 21.368 0 0 0 -21.344 21.344v16.406a1.75 1.75 0 0 0 1.75 1.75h35.785l7.742 43.305a1.75 1.75 0 0 0 3.446 0l7.742-43.305h35.785a1.75 1.75 0 0 0 1.75-1.75v-16.406a21.368 21.368 0 0 0 -21.344-21.344zm-53.718-34.501a5.758 5.758 0 0 1 5.751-5.749h44.622a5.752 5.752 0 1 1 0 11.5h-44.622a5.758 5.758 0 0 1 -5.751-5.751zm14.962 9.251h26.2l3.513 25.25h-33.228zm13.1 97.8-5.909-33.05h11.818zm-35.5-36.55v-6.15l5.975-5.975h59.05l5.975 5.975v6.15zm79 0h-4.5v-6.875a1.75 1.75 0 0 0 -.513-1.237l-7-7a1.75 1.75 0 0 0 -1.237-.513h-60.5a1.75 1.75 0 0 0 -1.237.513l-7 7a1.75 1.75 0 0 0 -.513 1.237v6.875h-4.5v-14.656a17.864 17.864 0 0 1 17.844-17.844h51.312a17.864 17.864 0 0 1 17.844 17.844z"/><path d="m89.563 53.5h-51.125a1.75 1.75 0 0 0 0 3.5h51.125a1.75 1.75 0 0 0 0-3.5z"/></g></svg>