<?xml version="1.0" encoding="UTF-8"?>
<svg xmlns="http://www.w3.org/2000/svg" width="512" height="512" viewBox="0 0 128 128"><g><path d="M9.75,47.873A1.75,1.75,0,0,0,8,49.623V52.5a1.753,1.753,0,0,0,.512,1.237l6,6a1.746,1.746,0,0,0,1.237.513h96.5a1.746,1.746,0,0,0,1.237-.513l6-6A1.75,1.75,0,0,0,120,52.5V49.623a1.749,1.749,0,0,0-1.75-1.75Zm106.75,3.9-4.975,4.975H16.475L11.5,51.773v-.4h105Z"/><path d="M126.25,37.873H120V29.748a1.753,1.753,0,0,0-1.035-1.6l-16.84-7.536V1.748A1.749,1.749,0,0,0,100.375,0H27.625a1.75,1.75,0,0,0-1.75,1.75V20.615L9.035,28.151A1.753,1.753,0,0,0,8,29.749v8.124H1.75A1.75,1.75,0,0,0,0,39.623v58.25a1.75,1.75,0,0,0,1.75,1.75H25.875v26.629a1.75,1.75,0,0,0,1.75,1.75h72.75a1.749,1.749,0,0,0,1.75-1.75V99.623H126.25a1.749,1.749,0,0,0,1.75-1.75V39.623A1.749,1.749,0,0,0,126.25,37.873Zm-9.75-6.991v6.991H102.125V24.448ZM29.375,3.5h69.25V37.873H29.375ZM11.5,30.883l14.375-6.434V37.873H11.5Zm0,45.865V70.5h105v6.25ZM98.625,124.5H29.375V80.248h69.25ZM124.5,96.123H102.125V80.248H118.25A1.749,1.749,0,0,0,120,78.5v-9.75A1.749,1.749,0,0,0,118.25,67H9.75A1.75,1.75,0,0,0,8,68.748V78.5a1.75,1.75,0,0,0,1.75,1.75H25.875V96.123H3.5V41.373h121Z"/><path d="M92.375,85.873H35.625a1.75,1.75,0,0,0,0,3.5h56.75a1.75,1.75,0,0,0,0-3.5Z"/><path d="M92.375,95.708H35.625a1.75,1.75,0,0,0,0,3.5h56.75a1.75,1.75,0,0,0,0-3.5Z"/><path d="M92.375,105.542H35.625a1.75,1.75,0,0,0,0,3.5h56.75a1.75,1.75,0,0,0,0-3.5Z"/><path d="M92.375,115.377H52.625a1.75,1.75,0,0,0,0,3.5h39.75a1.75,1.75,0,0,0,0-3.5Z"/></g></svg>
