<?xml version="1.0" encoding="UTF-8"?>
<svg xmlns="http://www.w3.org/2000/svg" width="512" height="512" viewBox="0 0 128 128"><g><path d="M64,0a64,64,0,1,0,64,64A64.072,64.072,0,0,0,64,0Zm0,124.5A60.5,60.5,0,1,1,124.5,64,60.569,60.569,0,0,1,64,124.5Z"/><path d="M64,8a56,56,0,1,0,56,56A56.063,56.063,0,0,0,64,8Zm0,108.5A52.5,52.5,0,1,1,116.5,64,52.56,52.56,0,0,1,64,116.5Z"/><path d="M102.764,91.408l-.16-1.051A24.427,24.427,0,0,0,78.321,69.5H49.679A24.427,24.427,0,0,0,25.4,90.357l-.16,1.051a1.75,1.75,0,0,0,.329,1.313,47.956,47.956,0,0,0,76.87,0A1.75,1.75,0,0,0,102.764,91.408ZM69.265,73l-3.2,4h-4.13l-3.2-4ZM62.3,80.5H65.7l5.785,15.046L64,102.057l-7.489-6.511Zm1.7,28A44.15,44.15,0,0,1,28.808,91.2,20.962,20.962,0,0,1,49.679,73h4.574L59.1,79.059,52.8,95.435a1.749,1.749,0,0,0,.486,1.948l9.562,8.312a1.748,1.748,0,0,0,2.3,0l9.562-8.312a1.749,1.749,0,0,0,.486-1.948L68.9,79.059,73.747,73h4.574A20.961,20.961,0,0,1,99.192,91.2,44.15,44.15,0,0,1,64,108.5Z"/><path d="M64,65.75c10.235,0,18.562-9.112,18.562-20.312S74.235,25.125,64,25.125,45.437,34.237,45.437,45.438,53.765,65.75,64,65.75Zm0-37.125c8.306,0,15.062,7.542,15.062,16.813S72.306,62.25,64,62.25,48.937,54.708,48.937,45.438,55.694,28.625,64,28.625Z"/></g></svg>
