<?xml version="1.0" encoding="UTF-8"?>
<svg xmlns="http://www.w3.org/2000/svg" width="512" height="512" viewBox="0 0 128 128"><g><path d="M32.387,8H19.533a1.75,1.75,0,0,0-1.75,1.75v8a1.75,1.75,0,0,0,1.75,1.75H32.387a1.751,1.751,0,0,0,1.75-1.75v-8A1.751,1.751,0,0,0,32.387,8Zm-1.75,8H21.283V11.5h9.354Z"/><path d="M32.387,24.247H19.533A1.75,1.75,0,0,0,17.783,26v8a1.75,1.75,0,0,0,1.75,1.75H32.387A1.751,1.751,0,0,0,34.137,34V26A1.751,1.751,0,0,0,32.387,24.247Zm-1.75,8H21.283v-4.5h9.354Z"/><path d="M32.387,40.5H19.533a1.75,1.75,0,0,0-1.75,1.75v8A1.75,1.75,0,0,0,19.533,52H32.387a1.751,1.751,0,0,0,1.75-1.75v-8A1.751,1.751,0,0,0,32.387,40.5Zm-1.75,8H21.283V44h9.354Z"/><path d="M32.387,56.747H19.533a1.75,1.75,0,0,0-1.75,1.75v8a1.75,1.75,0,0,0,1.75,1.75H32.387a1.751,1.751,0,0,0,1.75-1.75v-8A1.751,1.751,0,0,0,32.387,56.747Zm-1.75,8H21.283v-4.5h9.354Z"/><path d="M40.26,11.5H85.221a1.75,1.75,0,0,0,0-3.5H40.26a1.75,1.75,0,0,0,0,3.5Z"/><path d="M40.26,19.5h32.1a1.75,1.75,0,0,0,0-3.5H40.26a1.75,1.75,0,0,0,0,3.5Z"/><path d="M40.26,27.747H85.221a1.75,1.75,0,0,0,0-3.5H40.26a1.75,1.75,0,0,0,0,3.5Z"/><path d="M40.26,35.747h32.1a1.75,1.75,0,0,0,0-3.5H40.26a1.75,1.75,0,0,0,0,3.5Z"/><path d="M40.26,44H85.221a1.75,1.75,0,0,0,0-3.5H40.26a1.75,1.75,0,0,0,0,3.5Z"/><path d="M40.26,52h32.1a1.75,1.75,0,0,0,0-3.5H40.26a1.75,1.75,0,0,0,0,3.5Z"/><path d="M40.26,60.247H85.221a1.75,1.75,0,0,0,0-3.5H40.26a1.75,1.75,0,0,0,0,3.5Z"/><path d="M40.26,68.247h32.1a1.75,1.75,0,0,0,0-3.5H40.26a1.75,1.75,0,0,0,0,3.5Z"/><path d="M32.387,73H19.533a1.75,1.75,0,0,0-1.75,1.75v8a1.75,1.75,0,0,0,1.75,1.75H32.387a1.751,1.751,0,0,0,1.75-1.75v-8A1.751,1.751,0,0,0,32.387,73Zm-1.75,8H21.283V76.5h9.354Z"/><path d="M74.971,74.747A1.751,1.751,0,0,0,73.221,73H40.26a1.75,1.75,0,0,0,0,3.5H73.221A1.751,1.751,0,0,0,74.971,74.747Z"/><path d="M66.365,81H40.26a1.75,1.75,0,0,0,0,3.5h26.1a1.75,1.75,0,0,0,0-3.5Z"/><path d="M118.76,125.984l-6-39.5A1.751,1.751,0,0,0,111.029,85H107.6V76.439a14.314,14.314,0,0,0-12.625-14.2V1.747A1.751,1.751,0,0,0,93.221,0H10.97a1.751,1.751,0,0,0-1.75,1.75v99.066a1.751,1.751,0,0,0,1.75,1.75H71.361L67.8,125.984A1.75,1.75,0,0,0,69.533,128h47.5a1.751,1.751,0,0,0,1.731-2.013ZM104.1,76.439V89.75a1.25,1.25,0,1,1-2.5,0V76.666a8.316,8.316,0,1,0-16.629-.227V89.75a1.25,1.25,0,0,1-2.5,0V76.807c-.013-5.968,4.7-11.049,10.462-11.162A10.868,10.868,0,0,1,104.1,76.439Zm-15.629,0a4.823,4.823,0,0,1,3-4.433V85h-3Zm6.5-4.492A5.023,5.023,0,0,1,98.1,76.666V85H94.971ZM12.72,99.063V3.5H91.471V62.242a14.4,14.4,0,0,0-12.5,14.565V85H75.533a1.75,1.75,0,0,0-1.73,1.487L71.892,99.063ZM71.569,124.5l5.468-36h1.93v1.25a4.75,4.75,0,1,0,9.5,0V88.5H98.1v1.25a4.75,4.75,0,0,0,9.5,0V88.5h1.929l5.468,36Z"/></g></svg>
