<?xml version="1.0" encoding="UTF-8"?>
<svg xmlns="http://www.w3.org/2000/svg" width="512" height="512" viewBox="0 0 128 128"><g><path d="M126.25,23.272H96.472V14H102a1.75,1.75,0,0,0,1.75-1.75V1.75A1.75,1.75,0,0,0,102,0H26a1.75,1.75,0,0,0-1.75,1.75v10.5A1.75,1.75,0,0,0,26,14h5.528v9.269H1.75A1.75,1.75,0,0,0,0,25.022v10.5a1.75,1.75,0,0,0,1.75,1.75h5V98.5a1.75,1.75,0,0,0,1.75,1.75H39.8a24.429,24.429,0,1,0,48.394,0h31.3a1.75,1.75,0,0,0,1.75-1.75V37.274h5a1.75,1.75,0,0,0,1.75-1.75v-10.5A1.75,1.75,0,0,0,126.25,23.272ZM27.75,3.5h72.5v7H27.75ZM3.5,26.772H31.528v7H3.5Zm6.75,10.5H31.528V96.753H10.25ZM64,124.5a20.953,20.953,0,0,1-20.929-20.929C42.9,92.293,52.735,82.459,64,82.643c11.265-.184,21.1,9.651,20.929,20.928A20.953,20.953,0,0,1,64,124.5Zm0-45.357a24.474,24.474,0,0,0-23.458,17.61H35.028V14H92.972v82.75H87.458A24.444,24.444,0,0,0,64,79.143Zm53.75,17.61H96.472V37.274H117.75Zm6.75-62.979H96.472v-7H124.5Z"/><path d="M102.722,54.478H111.5a1.75,1.75,0,0,0,1.75-1.75v-9.2a1.751,1.751,0,0,0-1.75-1.75h-8.778a1.75,1.75,0,0,0-1.75,1.75v9.2A1.749,1.749,0,0,0,102.722,54.478Zm1.75-9.2h5.278v5.7h-5.278Z"/><path d="M102.722,73.365H111.5a1.75,1.75,0,0,0,1.75-1.75v-9.2a1.75,1.75,0,0,0-1.75-1.75h-8.778a1.749,1.749,0,0,0-1.75,1.75v9.2A1.749,1.749,0,0,0,102.722,73.365Zm1.75-9.2h5.278v5.7h-5.278Z"/><path d="M102.722,92.253H111.5a1.75,1.75,0,0,0,1.75-1.75V81.3a1.75,1.75,0,0,0-1.75-1.75h-8.778a1.749,1.749,0,0,0-1.75,1.75v9.2A1.749,1.749,0,0,0,102.722,92.253Zm1.75-9.2h5.278v5.7h-5.278Z"/><path d="M25.278,41.774H16.5a1.751,1.751,0,0,0-1.75,1.75v9.2a1.75,1.75,0,0,0,1.75,1.75h8.778a1.749,1.749,0,0,0,1.75-1.75v-9.2A1.75,1.75,0,0,0,25.278,41.774Zm-1.75,9.2H18.25v-5.7h5.278Z"/><path d="M25.278,60.662H16.5a1.75,1.75,0,0,0-1.75,1.75v9.2a1.75,1.75,0,0,0,1.75,1.75h8.778a1.749,1.749,0,0,0,1.75-1.75v-9.2A1.749,1.749,0,0,0,25.278,60.662Zm-1.75,9.2H18.25v-5.7h5.278Z"/><path d="M25.278,79.549H16.5a1.75,1.75,0,0,0-1.75,1.75v9.2a1.75,1.75,0,0,0,1.75,1.75h8.778a1.749,1.749,0,0,0,1.75-1.75V81.3A1.749,1.749,0,0,0,25.278,79.549Zm-1.75,9.2H18.25v-5.7h5.278Z"/><path d="M71.937,96.637a1.75,1.75,0,1,0,0-3.5H65.75v-6.25a1.75,1.75,0,0,0-3.5,0v6.25H60.062a1.749,1.749,0,0,0-1.237.512l-4,4a1.754,1.754,0,0,0-.513,1.238v4.687a1.75,1.75,0,0,0,1.75,1.75H62.25v5.188H56.062a1.75,1.75,0,0,0,0,3.5H62.25v6.25a1.75,1.75,0,0,0,3.5,0v-6.25h2.187a1.751,1.751,0,0,0,1.238-.513l4-4a1.749,1.749,0,0,0,.512-1.237v-4.688a1.749,1.749,0,0,0-1.75-1.75H65.75V96.637Zm-1.75,8.687v2.213l-2.975,2.975H65.75v-5.188Zm-7.937-3.5H57.812V99.611l2.976-2.974H62.25Z"/><path d="M60,18.5H41.278a1.75,1.75,0,0,0-1.75,1.75V32.2a1.75,1.75,0,0,0,1.75,1.75H60a1.75,1.75,0,0,0,1.75-1.75V20.253A1.75,1.75,0,0,0,60,18.5ZM58.25,30.451H43.028V22H58.25Z"/><path d="M68,33.951H86.722a1.75,1.75,0,0,0,1.75-1.75V20.253a1.75,1.75,0,0,0-1.75-1.75H68a1.75,1.75,0,0,0-1.75,1.75V32.2A1.75,1.75,0,0,0,68,33.951ZM69.75,22H84.972v8.448H69.75Z"/><path d="M60,38.849H41.278a1.75,1.75,0,0,0-1.75,1.75V52.547a1.75,1.75,0,0,0,1.75,1.75H60a1.75,1.75,0,0,0,1.75-1.75V40.6A1.75,1.75,0,0,0,60,38.849ZM58.25,50.8H43.028V42.349H58.25Z"/><path d="M68,54.3H86.722a1.75,1.75,0,0,0,1.75-1.75V40.6a1.75,1.75,0,0,0-1.75-1.75H68a1.75,1.75,0,0,0-1.75,1.75V52.547A1.75,1.75,0,0,0,68,54.3Zm1.75-11.948H84.972V50.8H69.75Z"/><path d="M60,59.194H41.278a1.751,1.751,0,0,0-1.75,1.75V72.893a1.751,1.751,0,0,0,1.75,1.75H60a1.751,1.751,0,0,0,1.75-1.75V60.944A1.751,1.751,0,0,0,60,59.194ZM58.25,71.143H43.028V62.694H58.25Z"/><path d="M88.472,72.893V60.944a1.751,1.751,0,0,0-1.75-1.75H68a1.751,1.751,0,0,0-1.75,1.75V72.893A1.751,1.751,0,0,0,68,74.643H86.722A1.751,1.751,0,0,0,88.472,72.893Zm-3.5-1.75H69.75V62.694H84.972Z"/></g></svg>
