<svg height="512" viewBox="0 0 128 128" width="512" xmlns="http://www.w3.org/2000/svg"><path d="m126.25 54.619h-6.5l-9.387-19.8h5.3a5.75 5.75 0 0 0 0-11.5h-43.141v-7.169a8.523 8.523 0 0 0 -17.045 0v7.166h-43.14a5.75 5.75 0 1 0 0 11.5h5.3l-9.387 19.8h-6.5a1.749 1.749 0 0 0 -1.75 1.753v4.231a17.008 17.008 0 0 0 16.988 16.99h6.828a17.008 17.008 0 0 0 16.989-16.99v-4.231a1.75 1.75 0 0 0 -1.75-1.75h-6.5l-9.388-19.8h32.31v59.632h-10.1a1.749 1.749 0 0 0 -1.237.512l-5 5a1.754 1.754 0 0 0 -.513 1.238v3.25h-1.983a8.532 8.532 0 0 0 -8.522 8.523v5.648a1.75 1.75 0 0 0 1.75 1.75h68.256a1.75 1.75 0 0 0 1.75-1.75v-5.648a8.532 8.532 0 0 0 -8.523-8.523h-1.98v-3.251a1.754 1.754 0 0 0 -.513-1.238l-5-5a1.749 1.749 0 0 0 -1.237-.512h-10.1v-59.634h32.31l-9.388 19.8h-6.5a1.749 1.749 0 0 0 -1.75 1.75v4.234a17.008 17.008 0 0 0 16.987 16.99h6.828a17.008 17.008 0 0 0 16.988-16.99v-4.231a1.749 1.749 0 0 0 -1.75-1.75zm-88.945 5.981a13.5 13.5 0 0 1 -13.489 13.49h-6.828a13.5 13.5 0 0 1 -13.488-13.49v-2.481h33.805zm-25.184-5.981 8.279-17.468 8.281 17.468zm.216-23.3a2.25 2.25 0 0 1 0-4.5h43.14v4.5zm84.041 81.658v3.9h-64.756v-3.9a5.028 5.028 0 0 1 5.022-5.023h54.711a5.028 5.028 0 0 1 5.023 5.02zm-10.5-11.048v2.525h-43.753v-2.525l3.975-3.978h35.8zm-26.9-7.475v-78.304a5.023 5.023 0 0 1 10.045 0v78.3zm13.544-67.638h43.14a2.25 2.25 0 0 1 0 4.5h-43.14zm35.078 10.335 8.28 17.468h-16.563zm16.9 23.449a13.5 13.5 0 0 1 -13.488 13.49h-6.828a13.5 13.5 0 0 1 -13.484-13.49v-2.481h33.8z"/></svg>