<?xml version="1.0" encoding="UTF-8"?>
<svg xmlns="http://www.w3.org/2000/svg" width="512" height="512" viewBox="0 0 128 128"><g><path d="M126.249,40.752H112.356V21.434a1.81,1.81,0,0,0-.512-1.237L92.16.513A1.821,1.821,0,0,0,90.922,0H22.314a6.678,6.678,0,0,0-6.67,6.671V60.752H1.751A1.75,1.75,0,0,0,0,62.5V126.25A1.75,1.75,0,0,0,1.751,128h124.5a1.75,1.75,0,0,0,1.75-1.75V42.5A1.75,1.75,0,0,0,126.249,40.752ZM106.381,19.684H92.672V5.975ZM19.144,6.671A3.174,3.174,0,0,1,22.314,3.5H89.172V21.434a1.75,1.75,0,0,0,1.75,1.75h17.934V40.752H84a1.751,1.751,0,0,0-1.238.513L63.275,60.752H19.144ZM124.5,124.5H3.5V64.251H64a1.749,1.749,0,0,0,1.237-.512L84.725,44.252H124.5Z"/><path d="M27.236,23.184H79.885a1.749,1.749,0,0,0,1.75-1.75V11.592a1.75,1.75,0,0,0-1.75-1.75H27.236a1.75,1.75,0,0,0-1.75,1.75v9.842A1.749,1.749,0,0,0,27.236,23.184Zm1.75-9.842H78.135v6.342H28.986Z"/><path d="M27.236,33.876h73.529a1.75,1.75,0,1,0,0-3.5H27.236a1.75,1.75,0,0,0,0,3.5Z"/><path d="M72,40.912H31.727a1.75,1.75,0,1,0,0,3.5H72a1.75,1.75,0,0,0,0-3.5Z"/><path d="M61.3,51.447H27.236a1.75,1.75,0,0,0,0,3.5H61.3a1.75,1.75,0,0,0,0-3.5Z"/><path d="M8,74.5V111a1.75,1.75,0,0,0,1.75,1.75h108.5A1.75,1.75,0,0,0,120,111V74.5a1.75,1.75,0,0,0-1.75-1.75H9.751A1.75,1.75,0,0,0,8,74.5Zm3.5,1.75h105v33H11.5Z"/><path d="M44.848,85.025a1.75,1.75,0,0,0,0-3.5H34.1a1.751,1.751,0,0,0-1.75,1.75v18.951a1.75,1.75,0,0,0,1.75,1.75H44.848a1.75,1.75,0,1,0,0-3.5h-9V94.5h9a1.75,1.75,0,0,0,0-3.5h-9V85.025Z"/><path d="M61.2,85.025a1.75,1.75,0,1,0,0-3.5H50.452a1.751,1.751,0,0,0-1.75,1.75v18.951a1.75,1.75,0,0,0,1.75,1.75H61.2a1.75,1.75,0,1,0,0-3.5h-9V85.025Z"/><path d="M79.3,88.014a6.5,6.5,0,0,0-6.487-6.489H66.8a1.751,1.751,0,0,0-1.75,1.75v18.951a1.75,1.75,0,0,0,3.5,0V94.5h4.259A2.99,2.99,0,0,1,75.8,97.488v4.738a1.75,1.75,0,0,0,3.5,0V97.488a6.463,6.463,0,0,0-2.07-4.737A6.464,6.464,0,0,0,79.3,88.014ZM68.552,91V85.025h4.259a2.988,2.988,0,0,1,0,5.976Z"/><path d="M110.249,81.525H99.5a1.75,1.75,0,0,0,0,3.5h3.623v17.2a1.75,1.75,0,0,0,3.5,0v-17.2h3.623a1.75,1.75,0,0,0,0-3.5Z"/><path d="M28.5,85.025a1.75,1.75,0,0,0,0-3.5H17.751A1.751,1.751,0,0,0,16,83.275v9.476a1.75,1.75,0,0,0,1.75,1.75h9v5.975h-9a1.75,1.75,0,0,0,0,3.5H28.5a1.749,1.749,0,0,0,1.75-1.75V92.751A1.749,1.749,0,0,0,28.5,91h-9V85.025Z"/><path d="M93.9,85.025a1.75,1.75,0,0,0,0-3.5H83.152a1.751,1.751,0,0,0-1.75,1.75v18.951a1.75,1.75,0,0,0,1.75,1.75H93.9a1.75,1.75,0,0,0,0-3.5h-9V94.5h9a1.75,1.75,0,0,0,0-3.5h-9V85.025Z"/></g></svg>
