<svg height="512" viewBox="0 0 128 128" width="512" xmlns="http://www.w3.org/2000/svg"><g><path d="m127.487 59.958-8-8a1.749 1.749 0 0 0 -1.237-.512h-5.893v-44.699a6.758 6.758 0 0 0 -6.75-6.747h-83.214a6.757 6.757 0 0 0 -6.75 6.75v44.7h-5.893a1.749 1.749 0 0 0 -1.237.512l-8 8a1.754 1.754 0 0 0 -.513 1.238v25.5a1.751 1.751 0 0 0 1.75 1.75h13.893v37.8a1.75 1.75 0 0 0 1.75 1.75h11.207a1.751 1.751 0 0 0 1.75-1.75v-37.8h5.8v25.8a1.751 1.751 0 0 0 1.75 1.75h11.2a1.751 1.751 0 0 0 1.75-1.75v-25.8h5.8v37.8a1.751 1.751 0 0 0 1.75 1.75h11.2a1.751 1.751 0 0 0 1.75-1.75v-37.8h5.8v25.8a1.75 1.75 0 0 0 1.75 1.75h11.2a1.75 1.75 0 0 0 1.75-1.75v-25.8h5.8v37.8a1.75 1.75 0 0 0 1.75 1.75h11.2a1.75 1.75 0 0 0 1.75-1.75v-37.8h13.9a1.75 1.75 0 0 0 1.75-1.75v-25.5a1.754 1.754 0 0 0 -.513-1.242zm-108.344-53.211a3.254 3.254 0 0 1 3.25-3.25h83.214a3.254 3.254 0 0 1 3.25 3.25v44.7h-89.714zm7.7 117.75h-7.7v-36.051h7.7zm20.5-12h-7.7v-24.051h7.7zm20.5 12h-7.7v-36.051h7.7zm20.5-12h-7.7v-24.051h7.7zm20.5 12h-7.7v-36.051h7.7zm15.657-39.551h-121v-23.025l6.975-6.975h107.05l6.975 6.975z"/><path d="m114.936 59.446h-101.873a1.749 1.749 0 0 0 -1.237.512l-3.313 3.314a1.75 1.75 0 0 0 -.513 1.237v6.191a1.751 1.751 0 0 0 1.75 1.75h15.359l7.491 7.483a1.75 1.75 0 0 0 1.237.513h60.33a1.75 1.75 0 0 0 1.237-.513l7.488-7.487h15.358a1.75 1.75 0 0 0 1.75-1.746v-6.191a1.75 1.75 0 0 0 -.513-1.237l-3.313-3.314a1.751 1.751 0 0 0 -1.238-.512zm-21.494 17.5h-58.883l-4.5-4.5h67.883zm23.058-8h-105v-3.712l2.289-2.288h100.423l2.288 2.288z"/><path d="m100.766 9.839h-73.531a1.751 1.751 0 0 0 -1.75 1.75v9.843a1.751 1.751 0 0 0 1.75 1.75h73.531a1.751 1.751 0 0 0 1.75-1.75v-9.843a1.751 1.751 0 0 0 -1.75-1.75zm-1.75 9.843h-70.031v-6.343h70.031z"/><path d="m100.766 30.374h-73.531a1.75 1.75 0 1 0 0 3.5h73.531a1.75 1.75 0 0 0 0-3.5z"/><path d="m96.273 40.91h-64.546a1.75 1.75 0 0 0 0 3.5h64.546a1.75 1.75 0 0 0 0-3.5z"/></g></svg>