<svg height="512" viewBox="0 0 128 128" width="512" xmlns="http://www.w3.org/2000/svg"><g><path d="m21.317 89.947 38.361-38.361 12.342-12.342 2.639 2.638c.085.025.086.331 0 .355l-19.881 19.881a1.76 1.76 0 0 0 0 2.475l5.657 5.657a1.76 1.76 0 0 0 2.475 0l19.88-19.88a11.806 11.806 0 0 0 0-16.619l-2.639-2.639 4.959-4.959a1.748 1.748 0 0 0 0-2.474l-1.138-1.139 4.676-4.676a5.6 5.6 0 0 0 0-7.906l-3.2-3.2a5.6 5.6 0 0 0 -7.906 0l-4.675 4.675-1.138-1.133a1.8 1.8 0 0 0 -2.474 0l-63.794 63.792a1.935 1.935 0 0 0 -.432.714l-4.949 15.812a1.75 1.75 0 0 0 .432 1.76l2.518 2.522a1.749 1.749 0 0 0 1.76.433l15.81-4.953a1.918 1.918 0 0 0 .717-.433zm61.415-47.887a8.2 8.2 0 0 1 -2.417 5.84l-18.643 18.638-3.182-3.183 18.644-18.643c1.559-2.1 1.559-3.2 0-5.3l-2.634-2.642 3.182-3.183 2.638 2.639a8.193 8.193 0 0 1 2.412 5.834zm-2.713-32.824a2.1 2.1 0 0 1 2.957 0l3.2 3.2a2.1 2.1 0 0 1 0 2.957l-4.676 4.672-6.153-6.153zm-59.939 77-4.216-4.216 33.9-33.9h3.981l2.225 2.225zm50.412-72.226 10.908 10.906-22.96 22.958-2.74-2.737a1.752 1.752 0 0 0 -1.238-.513h-5.427a1.751 1.751 0 0 0 -1.238.513l-34.408 34.408-4.215-4.216zm-65.736 77.662-1.02-1.02 3.769-12.041 9.295 9.289z"/><path d="m52.461 95.469h6.9a6.044 6.044 0 0 0 5.412-8.745 5.935 5.935 0 0 0 -5.412-3.348h-.784a6.063 6.063 0 0 0 -5.689 4l-2.075 5.754a1.751 1.751 0 0 0 1.647 2.343zm3.721-6.91a2.553 2.553 0 0 1 2.4-1.683h.784a2.47 2.47 0 0 1 2.28 1.41 2.543 2.543 0 0 1 -2.28 3.683h-4.41z"/><path d="m126.25 105.188h-14.861l.784-2.44a6.75 6.75 0 0 0 -10.742-7.248l-7.605 6.322.774-2.322a6.751 6.751 0 0 0 -11.185-6.9l-12.552 12.588h-20.678l.621-1.719h8.556a14.047 14.047 0 1 0 0-28.093h-.784a14.083 14.083 0 0 0 -13.214 9.281l-2.637 7.312h-14.127a1.75 1.75 0 0 0 -1.75 1.75v8a1.75 1.75 0 0 0 1.75 1.75h9.986l-.541 1.5a8.75 8.75 0 0 0 8.231 11.718h28.634a1.75 1.75 0 0 0 1.239-.514l1.264-1.267a6.773 6.773 0 0 0 6.647 7.969 6.767 6.767 0 0 0 4.312-1.57l7.9-6.568a1.751 1.751 0 0 0 1.739 1.95h28.239a1.75 1.75 0 0 0 1.75-1.75v-8a1.75 1.75 0 0 0 -1.75-1.749zm-1.75 8h-24.087l.986-3.067a1.75 1.75 0 0 0 -2.785-1.881l-12.48 10.375a3.256 3.256 0 0 1 -3.91.184 3.223 3.223 0 0 1 -1.252-3.709l2.007-6.025a1.75 1.75 0 0 0 -2.9-1.789l-5.9 5.912h-27.908a5.25 5.25 0 0 1 -4.939-7.031l1.387-3.844a1.751 1.751 0 0 0 -1.647-2.344h-10.727v-4.5h13.611a1.749 1.749 0 0 0 1.644-1.156l3.054-8.468a10.575 10.575 0 0 1 9.922-6.969h.784a10.547 10.547 0 1 1 0 21.093h-9.784a1.75 1.75 0 0 0 -1.646 1.157l-1.882 5.218a1.75 1.75 0 0 0 1.646 2.344h23.9a1.75 1.75 0 0 0 1.239-.514l13.062-13.1a3.25 3.25 0 0 1 5.381 3.326l-2.71 8.136a1.751 1.751 0 0 0 2.78 1.9l12.324-10.251a3.25 3.25 0 0 1 5.171 3.493l-1.519 4.724a1.75 1.75 0 0 0 1.666 2.286h15.512z"/></g></svg>