<?xml version="1.0" encoding="UTF-8"?>
<svg xmlns="http://www.w3.org/2000/svg" width="512" height="512" viewBox="0 0 128 128"><g><path d="M127.487,94.513l-10-10A1.75,1.75,0,0,0,116.25,84H101.375V78a9.761,9.761,0,0,0-9.75-9.75H80.5V39.938A15.919,15.919,0,0,1,88.736,26,12.2,12.2,0,0,0,91.781,7l-6-6.447A1.749,1.749,0,0,0,84.5,0h-41a1.749,1.749,0,0,0-1.281.558L36.219,7A12.2,12.2,0,0,0,39.263,26,15.918,15.918,0,0,1,47.5,39.938V68.25H36.375A9.761,9.761,0,0,0,26.625,78v6H11.75a1.75,1.75,0,0,0-1.237.513l-10,10A1.75,1.75,0,0,0,0,95.75V112.5a1.751,1.751,0,0,0,1.75,1.75h8v5A8.76,8.76,0,0,0,18.5,128h91a8.76,8.76,0,0,0,8.75-8.75v-5h8A1.751,1.751,0,0,0,128,112.5V95.75A1.75,1.75,0,0,0,127.487,94.513ZM40.952,22.931a8.7,8.7,0,0,1-2.17-13.545L44.262,3.5H83.738l5.48,5.889a8.7,8.7,0,0,1-2.17,13.545A19.417,19.417,0,0,0,77,39.938V68.25H51V39.938A19.417,19.417,0,0,0,40.952,22.931ZM30.125,78a6.257,6.257,0,0,1,6.25-6.25h55.25A6.257,6.257,0,0,1,97.875,78v6H30.125Zm84.625,41.247a5.256,5.256,0,0,1-5.25,5.25h-91a5.256,5.256,0,0,1-5.25-5.25v-5h101.5Zm9.75-8.5H3.5V96.475L12.475,87.5h103.05l8.975,8.975Z"/><path d="M112.936,92H15.064a1.751,1.751,0,0,0-1.238.513L8.513,97.826A1.751,1.751,0,0,0,8,99.064V104.5a1.751,1.751,0,0,0,1.75,1.75h108.5A1.751,1.751,0,0,0,120,104.5V99.064a1.751,1.751,0,0,0-.513-1.238l-5.313-5.313A1.751,1.751,0,0,0,112.936,92Zm3.564,10.75H11.5V99.789L15.789,95.5h96.422l4.289,4.289Z"/></g></svg>
