<svg height="512" viewBox="0 0 128 128" width="512" xmlns="http://www.w3.org/2000/svg"><g><path d="m126.034 81.957h-6.228v-8.221a1.744 1.744 0 0 0 -1.744-1.744h-87.321v-3.577l95.818-16.9a1.743 1.743 0 0 0 1.415-2.02l-2.549-14.457a11.7 11.7 0 0 0 -13.565-9.5l-100.235 17.68a14.057 14.057 0 0 0 -3.652 26.518v12.221h-6.007a1.744 1.744 0 0 0 -1.744 1.743v6.228a12.72 12.72 0 0 0 12.705 12.706h102.145a12.721 12.721 0 0 0 12.706-12.706v-6.228a1.744 1.744 0 0 0 -1.744-1.743zm-122.384-23.049a10.591 10.591 0 0 1 8.581-12.255l100.234-17.674a8.22 8.22 0 0 1 9.525 6.669l2.246 12.739-108.336 19.102a10.636 10.636 0 0 1 -12.25-8.581zm7.811 11.981a13.936 13.936 0 0 0 5.05.035l10.742-1.894v4.706a1.744 1.744 0 0 0 1.747 1.744h87.321v6.477h-104.86zm112.829 19.04a9.228 9.228 0 0 1 -9.218 9.218h-102.145a9.228 9.228 0 0 1 -9.217-9.218v-4.484h120.58z"/><path d="m10.573 62.061a6.1 6.1 0 0 0 9.5-6.048 6.1 6.1 0 0 0 -12 2.116 6.054 6.054 0 0 0 2.5 3.932zm1.362-6.484a2.6 2.6 0 1 1 -.433 1.946 2.6 2.6 0 0 1 .433-1.946z"/><path d="m34.358 57.872a1.755 1.755 0 0 0 2.028 1.42l81.123-14.3a1.761 1.761 0 0 0 1.42-2.027l-1.169-6.629a3.752 3.752 0 0 0 -4.344-3.042l-79.154 13.952a1.761 1.761 0 0 0 -1.42 2.027zm79.665-21.136a.25.25 0 0 1 .289.2l.866 4.905-77.678 13.7-.909-5.151z"/></g></svg>