<?xml version="1.0" encoding="UTF-8"?>
<svg xmlns="http://www.w3.org/2000/svg" width="512" height="512" viewBox="0 0 128 128"><g><path d="M38.319,18.735H71.44a1.75,1.75,0,0,0,0-3.5H38.319a1.75,1.75,0,0,0,0,3.5Z"/><path d="M30.009,35.6H79.75a1.75,1.75,0,0,0,0-3.5H30.009a1.75,1.75,0,0,0,0,3.5Z"/><path d="M30.009,46.526H79.75a1.75,1.75,0,0,0,0-3.5H30.009a1.75,1.75,0,1,0,0,3.5Z"/><path d="M30.009,57.45H79.75a1.75,1.75,0,0,0,0-3.5H30.009a1.75,1.75,0,0,0,0,3.5Z"/><path d="M30.009,68.375H79.75a1.75,1.75,0,0,0,0-3.5H30.009a1.75,1.75,0,0,0,0,3.5Z"/><path d="M79.75,75.8H62a1.75,1.75,0,0,0,0,3.5H79.75a1.75,1.75,0,0,0,0-3.5Z"/><path d="M96.884,80.132V14.183a5.833,5.833,0,0,0-5.826-5.827H72.833V5.824a1.753,1.753,0,0,0-.512-1.238L68.244.509A1.749,1.749,0,0,0,67.007,0H42.752a1.751,1.751,0,0,0-1.237.512L37.438,4.586a1.751,1.751,0,0,0-.512,1.238V8.356H18.7a5.833,5.833,0,0,0-5.826,5.827V99.174A5.833,5.833,0,0,0,18.7,105H70.4A24,24,0,1,0,96.884,80.132Zm-3.5-65.949V80.02a25.605,25.605,0,0,0-3.022.322V16.985a1.75,1.75,0,0,0-1.75-1.75h-6.25V11.856h8.7A2.329,2.329,0,0,1,93.384,14.183ZM27.515,18.735a8.345,8.345,0,0,0,8.154,6.879H74.09a8.346,8.346,0,0,0,8.155-6.879h4.617V81.186A24,24,0,0,0,72.121,94.977H22.9V18.735Zm11.161-6.879a1.751,1.751,0,0,0,1.75-1.75V6.548L43.477,3.5H66.282l3.051,3.052v3.557a1.751,1.751,0,0,0,1.75,1.75h7.779v5.486a4.778,4.778,0,0,1-4.772,4.772H35.669A4.778,4.778,0,0,1,30.9,17.342V11.856Zm-22.3,87.318V14.183A2.329,2.329,0,0,1,18.7,11.856h8.7v3.379h-6.25a1.751,1.751,0,0,0-1.75,1.75V96.727a1.75,1.75,0,0,0,1.75,1.75H71.023a23.6,23.6,0,0,0-.518,3.023H18.7A2.328,2.328,0,0,1,16.375,99.174Zm78,25.323a20.522,20.522,0,0,1-20.5-20.5c-.17-11,9.446-20.692,20.5-20.5a20.5,20.5,0,1,1,0,41Z"/><path d="M108.622,102.248h-1.761A12.63,12.63,0,0,0,96.123,91.511V89.75a1.75,1.75,0,0,0-3.5,0v1.761a12.63,12.63,0,0,0-10.737,10.737H80.125a1.75,1.75,0,0,0,0,3.5h1.761a12.63,12.63,0,0,0,10.737,10.738v1.761a1.75,1.75,0,0,0,3.5,0v-1.761a12.63,12.63,0,0,0,10.738-10.738h1.761a1.75,1.75,0,0,0,0-3.5Zm-12.5,10.7v-3.422a1.75,1.75,0,0,0-3.5,0v3.422a9.146,9.146,0,0,1-7.2-7.2h3.422a1.75,1.75,0,0,0,0-3.5H85.422a9.146,9.146,0,0,1,7.2-7.2v3.422a1.75,1.75,0,0,0,3.5,0V95.047a9.146,9.146,0,0,1,7.2,7.2H99.9a1.75,1.75,0,0,0,0,3.5h3.422A9.145,9.145,0,0,1,96.123,112.95Z"/></g></svg>
