<?xml version="1.0" encoding="UTF-8"?>
<svg xmlns="http://www.w3.org/2000/svg" width="512" height="512" viewBox="0 0 128 128"><g><path d="M10.814,26.549H59.3a1.75,1.75,0,0,0,1.75-1.75V15.735a1.75,1.75,0,0,0-1.75-1.75H10.814a1.751,1.751,0,0,0-1.75,1.75V24.8A1.751,1.751,0,0,0,10.814,26.549Zm1.75-9.064H57.55v5.564H12.564Z"/><path d="M10.814,36.4H78.529a1.75,1.75,0,0,0,0-3.5H10.814a1.75,1.75,0,0,0,0,3.5Z"/><path d="M14.951,42.6a1.75,1.75,0,0,0,0,3.5H74.392a1.75,1.75,0,0,0,0-3.5Z"/><path d="M10.814,55.8H78.529a1.75,1.75,0,0,0,0-3.5H10.814a1.75,1.75,0,0,0,0,3.5Z"/><path d="M14.951,62a1.75,1.75,0,0,0,0,3.5H74.392a1.75,1.75,0,0,0,0-3.5Z"/><path d="M10.814,75.205H78.529a1.75,1.75,0,0,0,0-3.5H10.814a1.75,1.75,0,0,0,0,3.5Z"/><path d="M74.392,81.408H14.951a1.75,1.75,0,0,0,0,3.5H74.392a1.75,1.75,0,0,0,0-3.5Z"/><path d="M14.9,100.813a1.75,1.75,0,0,0,0,3.5H24.932a1.75,1.75,0,1,0,0-3.5Z"/><path d="M29.015,110.515h-18.2a1.75,1.75,0,0,0,0,3.5h18.2a1.75,1.75,0,0,0,0-3.5Z"/><path d="M78.068,110.515h-18.2a1.75,1.75,0,0,0,0,3.5h18.2a1.75,1.75,0,0,0,0-3.5Z"/><path d="M124.454,43.863,122.262,42.6l4.109-7.118a1.75,1.75,0,0,0-.641-2.391l-.757-.437,2.39-4.141a4.755,4.755,0,0,0-1.739-6.488l-3.058-1.766A4.771,4.771,0,0,0,116.078,22l-2.391,4.14-.758-.437a1.749,1.749,0,0,0-2.39.64l-21.2,36.713V24.8a1.812,1.812,0,0,0-.512-1.238L70.7,5.434a1.813,1.813,0,0,0-1.238-.513H6.282A6.289,6.289,0,0,0,0,11.2V116.8a6.289,6.289,0,0,0,6.282,6.282H83.06a6.289,6.289,0,0,0,6.282-6.282V97.882l1.216-.771a2.322,2.322,0,0,0,.579-.6l29.375-50.879L122.7,46.9a2.951,2.951,0,0,1,1.075,4.012L105.435,82.679a1.75,1.75,0,1,0,3.031,1.75L126.81,52.657A6.468,6.468,0,0,0,124.454,43.863Zm-7.736-15.977,2.391-4.14a1.255,1.255,0,0,1,1.707-.458l3.058,1.766a1.251,1.251,0,0,1,.458,1.707L121.941,30.9ZM112.7,29.605l9.77,5.641-12.3,21.3-2.287-1.32a1.749,1.749,0,0,0-1.329-.175l-4.1,1.1a1.747,1.747,0,0,0-1.063.815L82.58,89.547,79.21,87.6ZM85.611,91.3,104.06,59.34l2.7-.723,1.659.958L88.98,93.242Zm-7.535,8.889.372-8.983,7.794,4.5-7.593,4.814Zm5.291-77.137H71.214V10.9ZM85.842,116.8a2.785,2.785,0,0,1-2.782,2.782H6.282A2.785,2.785,0,0,1,3.5,116.8V11.2A2.785,2.785,0,0,1,6.282,8.421H67.714V24.8a1.751,1.751,0,0,0,1.75,1.75H85.842V69.115L75.3,87.367a1.981,1.981,0,0,0-.233.8l-.537,12.93a1.741,1.741,0,0,0,.288,1.015l-.774.834-3.418-10.4a1.75,1.75,0,0,0-3.141-.39l-4.9,7.738-.314-1.453a1.75,1.75,0,0,0-3.092-.7L55.244,102.8a1.749,1.749,0,1,0,2.762,2.148l1.639-2.107.426,1.966a1.75,1.75,0,0,0,3.189.566l5.2-8.213,3.188,9.7a1.75,1.75,0,0,0,2.945.644l3.194-3.441a1.792,1.792,0,0,0,1.839-.021l6.214-3.94Z"/></g></svg>
