<?xml version="1.0" encoding="UTF-8"?>
<svg xmlns="http://www.w3.org/2000/svg" width="512" height="512" viewBox="0 0 128 128"><g><path d="M117,5.25H11A5.757,5.757,0,0,0,5.25,11V117A5.757,5.757,0,0,0,11,122.75H117a5.757,5.757,0,0,0,5.75-5.75V11A5.757,5.757,0,0,0,117,5.25ZM119.25,117a2.253,2.253,0,0,1-2.25,2.25H11A2.253,2.253,0,0,1,8.75,117V11A2.253,2.253,0,0,1,11,8.75H117A2.253,2.253,0,0,1,119.25,11Z"/><path d="M39.667,28.75h8A1.75,1.75,0,0,0,49.417,27V15a1.75,1.75,0,0,0-1.75-1.75h-8A1.75,1.75,0,0,0,37.917,15V27A1.75,1.75,0,0,0,39.667,28.75Zm1.75-12h4.5v8.5h-4.5Z"/><path d="M27.333,13.25h-8A1.75,1.75,0,0,0,17.583,15V27a1.75,1.75,0,0,0,1.75,1.75h8A1.75,1.75,0,0,0,29.083,27V15A1.75,1.75,0,0,0,27.333,13.25Zm-1.75,12h-4.5v-8.5h4.5Z"/><path d="M80.333,28.75h8A1.75,1.75,0,0,0,90.083,27V15a1.75,1.75,0,0,0-1.75-1.75h-8A1.75,1.75,0,0,0,78.583,15V27A1.75,1.75,0,0,0,80.333,28.75Zm1.75-12h4.5v8.5h-4.5Z"/><path d="M60,28.75h8A1.75,1.75,0,0,0,69.75,27V15A1.75,1.75,0,0,0,68,13.25H60A1.75,1.75,0,0,0,58.25,15V27A1.75,1.75,0,0,0,60,28.75Zm1.75-12h4.5v8.5h-4.5Z"/><path d="M108.667,13.25h-8A1.75,1.75,0,0,0,98.917,15V27a1.75,1.75,0,0,0,1.75,1.75h8a1.75,1.75,0,0,0,1.75-1.75V15A1.75,1.75,0,0,0,108.667,13.25Zm-1.75,12h-4.5v-8.5h4.5Z"/><path d="M47.667,99.25h-8a1.75,1.75,0,0,0-1.75,1.75v12a1.75,1.75,0,0,0,1.75,1.75h8a1.75,1.75,0,0,0,1.75-1.75V101A1.75,1.75,0,0,0,47.667,99.25Zm-1.75,12h-4.5v-8.5h4.5Z"/><path d="M27.333,99.25h-8a1.75,1.75,0,0,0-1.75,1.75v12a1.75,1.75,0,0,0,1.75,1.75h8a1.75,1.75,0,0,0,1.75-1.75V101A1.75,1.75,0,0,0,27.333,99.25Zm-1.75,12h-4.5v-8.5h4.5Z"/><path d="M88.333,99.25h-8a1.75,1.75,0,0,0-1.75,1.75v12a1.75,1.75,0,0,0,1.75,1.75h8a1.75,1.75,0,0,0,1.75-1.75V101A1.75,1.75,0,0,0,88.333,99.25Zm-1.75,12h-4.5v-8.5h4.5Z"/><path d="M68,99.25H60A1.75,1.75,0,0,0,58.25,101v12A1.75,1.75,0,0,0,60,114.75h8A1.75,1.75,0,0,0,69.75,113V101A1.75,1.75,0,0,0,68,99.25Zm-1.75,12h-4.5v-8.5h4.5Z"/><path d="M108.667,99.25h-8a1.75,1.75,0,0,0-1.75,1.75v12a1.75,1.75,0,0,0,1.75,1.75h8a1.75,1.75,0,0,0,1.75-1.75V101A1.75,1.75,0,0,0,108.667,99.25Zm-1.75,12h-4.5v-8.5h4.5Z"/><path d="M94,43.25H34A1.75,1.75,0,0,0,32.25,45V83A1.75,1.75,0,0,0,34,84.75H94A1.75,1.75,0,0,0,95.75,83V45A1.75,1.75,0,0,0,94,43.25Zm-1.75,38H35.75V46.75h56.5Z"/><path d="M48,73.75A1.75,1.75,0,0,0,49.75,72V65.75h8.5V72a1.75,1.75,0,0,0,3.5,0V60A5.757,5.757,0,0,0,56,54.25H52A5.757,5.757,0,0,0,46.25,60V72A1.75,1.75,0,0,0,48,73.75Zm4-16h4A2.253,2.253,0,0,1,58.25,60v2.25h-8.5V60A2.253,2.253,0,0,1,52,57.75Z"/><path d="M68,73.75h6A7.759,7.759,0,0,0,81.75,66V62A7.759,7.759,0,0,0,74,54.25H68A1.75,1.75,0,0,0,66.25,56V72A1.75,1.75,0,0,0,68,73.75Zm1.75-16H74A4.255,4.255,0,0,1,78.25,62v4A4.255,4.255,0,0,1,74,70.25H69.75Z"/></g></svg>
