<?xml version="1.0" encoding="UTF-8"?>
<svg xmlns="http://www.w3.org/2000/svg" width="512" height="512" viewBox="0 0 128 128"><g><path d="M121.065,107.984,90.309,77.227a1.8,1.8,0,0,0-2.475,0l-1.591,1.591-6.252-6.252q1.05-1.359,2-2.816H111A1.75,1.75,0,0,0,112.75,68V26A1.75,1.75,0,0,0,111,24.25H81.989A41.744,41.744,0,1,0,47,88.75a41.506,41.506,0,0,0,25.582-8.743l6.236,6.236-1.591,1.591a1.751,1.751,0,0,0,0,2.475l30.757,30.757a5.758,5.758,0,0,0,8.132,0l4.949-4.95a5.748,5.748,0,0,0,0-8.132ZM109.25,66.25H48.75V27.75h60.5ZM47,69.75H65.371a29.25,29.25,0,1,1,0-45.5H47A1.75,1.75,0,0,0,45.25,26V68A1.75,1.75,0,0,0,47,69.75ZM8.75,47A38.241,38.241,0,0,1,77.736,24.25H70.543a32.75,32.75,0,1,0,0,45.5h7.193A38.241,38.241,0,0,1,8.75,47ZM75.262,77.738c.855-.79,1.687-1.607,2.479-2.472l6.027,6.027-2.475,2.475Zm43.329,35.9-4.949,4.949a2.253,2.253,0,0,1-3.183,0l-29.52-29.52,8.132-8.131,29.52,29.519a2.251,2.251,0,0,1,0,3.183Z"/><path d="M60,60.75a5.735,5.735,0,0,0,5.38-7.762l11.7-9.224a5.73,5.73,0,0,0,7.478-.917l7.732,3.494a5.771,5.771,0,1,0,1.447-3.187L86.007,39.66a5.75,5.75,0,1,0-11.089,1.352l-11.7,9.224A5.749,5.749,0,1,0,60,60.75Zm38-16A2.25,2.25,0,1,1,95.75,47,2.253,2.253,0,0,1,98,44.75Zm-17.7-8A2.25,2.25,0,1,1,78.048,39,2.253,2.253,0,0,1,80.3,36.75ZM60,52.75A2.25,2.25,0,1,1,57.75,55,2.253,2.253,0,0,1,60,52.75Z"/></g></svg>
