<svg height="512" viewBox="0 0 128 128" width="512" xmlns="http://www.w3.org/2000/svg"><g><path d="m81.05 12.25a1.75 1.75 0 0 0 0 3.5 11.263 11.263 0 0 1 11.25 11.25 1.75 1.75 0 0 0 3.5 0 14.766 14.766 0 0 0 -14.75-14.75z"/><path d="m81.05 5.25a1.75 1.75 0 0 0 0 3.5 18.27 18.27 0 0 1 18.25 18.25 1.75 1.75 0 1 0 3.5 0 21.775 21.775 0 0 0 -21.75-21.75z"/><path d="m73.528 42.66 6.154-8.036a7.865 7.865 0 0 0 1.368.126 7.75 7.75 0 1 0 -7.75-7.75 7.845 7.845 0 0 0 .126 1.367l-8.036 6.155-21.39-21.387a1.8 1.8 0 0 0 -2.474 0 37.75 37.75 0 0 0 0 53.387 37.955 37.955 0 0 0 3.839 3.342l-3.022 35.386h-2.393a5.756 5.756 0 0 0 -5.75 5.75v8.25h-7.25a1.75 1.75 0 1 0 0 3.5h60a1.75 1.75 0 0 0 0-3.5h-7.25v-8.25a5.757 5.757 0 0 0 -5.75-5.75h-2.394l-2.369-27.712a37.615 37.615 0 0 0 25.728-11.016 1.749 1.749 0 0 0 0-2.475zm4.517-18.666a4.25 4.25 0 0 1 6.011 6.011 4.25 4.25 0 0 1 -6.01-6.011zm-3.172 7.674a7.1 7.1 0 0 0 1.509 1.509l-5.35 6.986-3.145-3.144zm1.327 79.332v8.25h-38.5v-8.25a2.253 2.253 0 0 1 2.25-2.25h34a2.253 2.253 0 0 1 2.25 2.25zm-30.344-5.75 2.831-33.123a37.682 37.682 0 0 0 16.981 5.338l2.376 27.785zm-1.856-41.203a34.253 34.253 0 0 1 -1.2-47.169l48.372 48.375a34.294 34.294 0 0 1 -47.172-1.206z"/></g></svg>