<?xml version="1.0" encoding="UTF-8"?>
<svg xmlns="http://www.w3.org/2000/svg" width="512" height="512" viewBox="0 0 128 128"><g><path d="M121,18.25H7A1.75,1.75,0,0,0,5.25,20V96A1.75,1.75,0,0,0,7,97.75H55.25v8.5H40a1.75,1.75,0,0,0,0,3.5H88a1.75,1.75,0,0,0,0-3.5H72.75v-8.5H121A1.75,1.75,0,0,0,122.75,96V20A1.75,1.75,0,0,0,121,18.25Zm-51.75,88H58.75v-8.5h10.5Zm50-12H8.75V21.75h110.5Z"/><path d="M14,90.75H114A1.75,1.75,0,0,0,115.75,89V27A1.75,1.75,0,0,0,114,25.25H14A1.75,1.75,0,0,0,12.25,27V89A1.75,1.75,0,0,0,14,90.75Zm1.75-62h96.5v58.5H15.75Z"/><path d="M80,48.917a1.749,1.749,0,0,0-1.75,1.75v6.666a1.75,1.75,0,0,0,3.5,0V50.667A1.749,1.749,0,0,0,80,48.917Z"/><path d="M86,44.25A1.75,1.75,0,0,0,84.25,46V62a1.75,1.75,0,0,0,3.5,0V46A1.75,1.75,0,0,0,86,44.25Z"/><path d="M92,48.917a1.749,1.749,0,0,0-1.75,1.75v6.666a1.75,1.75,0,0,0,3.5,0V50.667A1.749,1.749,0,0,0,92,48.917Z"/><path d="M36,48.917a1.749,1.749,0,0,0-1.75,1.75v6.666a1.75,1.75,0,0,0,3.5,0V50.667A1.749,1.749,0,0,0,36,48.917Z"/><path d="M42,44.25A1.75,1.75,0,0,0,40.25,46V62a1.75,1.75,0,0,0,3.5,0V46A1.75,1.75,0,0,0,42,44.25Z"/><path d="M48,48.917a1.749,1.749,0,0,0-1.75,1.75v6.666a1.75,1.75,0,0,0,3.5,0V50.667A1.749,1.749,0,0,0,48,48.917Z"/><path d="M68,40.25H60A5.757,5.757,0,0,0,54.25,46V62A5.757,5.757,0,0,0,60,67.75h2.25v4.5H60a1.75,1.75,0,0,0,0,3.5h8a1.75,1.75,0,0,0,0-3.5H65.75v-4.5H68A5.757,5.757,0,0,0,73.75,62V46A5.757,5.757,0,0,0,68,40.25Zm-8,3.5h8A2.253,2.253,0,0,1,70.25,46v6.25H57.75V46A2.253,2.253,0,0,1,60,43.75Zm8,20.5H60A2.253,2.253,0,0,1,57.75,62V55.75h12.5V62A2.253,2.253,0,0,1,68,64.25Z"/></g></svg>
