<?xml version="1.0" encoding="UTF-8"?>
<svg xmlns="http://www.w3.org/2000/svg" width="512" height="512" viewBox="0 0 128 128"><g><path d="M83.75,68A19.75,19.75,0,1,0,64,87.75,19.771,19.771,0,0,0,83.75,68Zm-36,0A16.25,16.25,0,1,1,64,84.25,16.269,16.269,0,0,1,47.75,68Z"/><path d="M106,61.25A6.75,6.75,0,1,0,112.75,68,6.758,6.758,0,0,0,106,61.25Zm0,10A3.25,3.25,0,1,1,109.25,68,3.254,3.254,0,0,1,106,71.25Z"/><path d="M121,29.25H104.75V25.5a4.254,4.254,0,0,0-4.25-4.25h-15a4.254,4.254,0,0,0-4.25,4.25v3.75h-6.5V28A4.756,4.756,0,0,0,70,23.25H69a1.75,1.75,0,0,0,0,3.5h1A1.251,1.251,0,0,1,71.25,28v1.25H56.75V28A1.25,1.25,0,0,1,58,26.75h1a1.75,1.75,0,0,0,0-3.5H58A4.756,4.756,0,0,0,53.25,28v1.25h-6.5V25.5a4.254,4.254,0,0,0-4.25-4.25h-15a4.254,4.254,0,0,0-4.25,4.25v3.75H7A1.749,1.749,0,0,0,5.25,31v70A5.756,5.756,0,0,0,11,106.75H117a5.756,5.756,0,0,0,5.75-5.75V31A1.749,1.749,0,0,0,121,29.25ZM84.75,25.5a.752.752,0,0,1,.75-.75h15a.752.752,0,0,1,.75.75v3.75H84.75Zm-58,0a.752.752,0,0,1,.75-.75h15a.752.752,0,0,1,.75.75v3.75H26.75Zm92.5,7.25v6.5H93a1.75,1.75,0,0,0-1.745,1.621L90.132,56.035a28.735,28.735,0,0,0-52.264,0L36.745,40.871A1.75,1.75,0,0,0,35,39.25H8.75v-6.5ZM46.759,90.991l-4.144,2.965-4.57-4.571,2.964-4.144A28.979,28.979,0,0,0,46.759,90.991ZM38.75,68A25.25,25.25,0,1,1,64,93.25,25.278,25.278,0,0,1,38.75,68ZM117,103.25H11A2.253,2.253,0,0,1,8.75,101V42.75H33.375L35.252,68.1a28.567,28.567,0,0,0,3.7,14l-4.621,6.462a1.749,1.749,0,0,0,.186,2.254l6.668,6.669a1.751,1.751,0,0,0,2.256.187l6.462-4.622A28.727,28.727,0,0,0,92.748,68.1L94.625,42.75H119.25V101A2.253,2.253,0,0,1,117,103.25Z"/></g></svg>
