<svg height="512" viewBox="0 0 128 128" width="512" xmlns="http://www.w3.org/2000/svg"><g><path d="m78.943 83.484-21.131-12.2a1.75 1.75 0 0 0 -2.625 1.516v24.4a1.749 1.749 0 0 0 2.625 1.515l21.131-12.2a1.751 1.751 0 0 0 0-3.032zm-20.256 10.684v-18.336l15.881 9.168z"/><path d="m97 35.25a25.693 25.693 0 0 0 -3.058.185 31.752 31.752 0 0 0 -59.884 0 25.749 25.749 0 1 0 -3.058 51.315h4.308a28.745 28.745 0 0 0 57.384 0h4.308a25.75 25.75 0 0 0 0-51.5zm-33 75a25.25 25.25 0 1 1 25.25-25.25 25.278 25.278 0 0 1 -25.25 25.25zm33-27h-4.308a28.745 28.745 0 0 0 -57.384 0h-4.308a22.25 22.25 0 1 1 3.953-44.143 1.752 1.752 0 0 0 1.985-1.22 28.252 28.252 0 0 1 54.123 0 1.749 1.749 0 0 0 1.986 1.22 22.249 22.249 0 1 1 3.953 44.143z"/></g></svg>