<svg height="512" viewBox="0 0 128 128" width="512" xmlns="http://www.w3.org/2000/svg"><g><path d="m122.139 102.83-16.23-13.911v-41.76a6.939 6.939 0 0 0 -6.932-6.931h-11.2v-11.206a6.939 6.939 0 0 0 -6.931-6.931h-73.846a1.75 1.75 0 0 0 -1.139 3.079l16.23 13.911v41.76a6.939 6.939 0 0 0 6.931 6.931h11.2v11.206a6.939 6.939 0 0 0 6.932 6.931h73.846a1.75 1.75 0 0 0 1.139-3.079zm-96.548-21.989v-42.565a1.753 1.753 0 0 0 -.612-1.329l-13.249-11.356h69.111a3.435 3.435 0 0 1 3.431 3.431v51.819a3.435 3.435 0 0 1 -3.431 3.431h-51.819a3.435 3.435 0 0 1 -3.431-3.431zm21.568 21.568a3.436 3.436 0 0 1 -3.432-3.431v-11.206h37.114a6.939 6.939 0 0 0 6.931-6.931v-37.113h11.2a3.435 3.435 0 0 1 3.432 3.431v42.565a1.756 1.756 0 0 0 .611 1.329l13.249 11.356z"/><path d="m71.772 40.228h-33.681a1.75 1.75 0 0 0 0 3.5h33.681a1.75 1.75 0 0 0 0-3.5z"/><path d="m54.932 66.137h-16.841a1.75 1.75 0 0 0 0 3.5h16.841a1.75 1.75 0 0 0 0-3.5z"/><path d="m71.772 53.182h-33.681a1.75 1.75 0 1 0 0 3.5h33.681a1.75 1.75 0 0 0 0-3.5z"/></g></svg>