<?xml version="1.0" encoding="UTF-8"?>
<svg xmlns="http://www.w3.org/2000/svg" width="512" height="512" viewBox="0 0 128 128"><g><path d="M65.75,42V40.408a5.079,5.079,0,0,0-.083-10.158H62.333a1.584,1.584,0,0,1,0-3.167H69a1.75,1.75,0,0,0,0-3.5H65.75V22a1.75,1.75,0,0,0-3.5,0v1.592a5.079,5.079,0,0,0,.083,10.158h3.334a1.584,1.584,0,0,1,0,3.167H59a1.75,1.75,0,0,0,0,3.5h3.25V42a1.75,1.75,0,0,0,3.5,0Z"/><path d="M112,47.25H85.981a26.76,26.76,0,1,0-43.946,0H16A1.75,1.75,0,0,0,14.25,49V65A1.75,1.75,0,0,0,16,66.75h3.25V117A5.757,5.757,0,0,0,25,122.75h78a5.757,5.757,0,0,0,5.75-5.75V66.75H112A1.75,1.75,0,0,0,113.75,65V49A1.75,1.75,0,0,0,112,47.25ZM40.858,29.717A23.37,23.37,0,0,1,62.446,8.8,23.227,23.227,0,0,1,81.519,47.25h-6.64a18.766,18.766,0,1,0-21.748,0H46.459A23.039,23.039,0,0,1,40.858,29.717Zm8.018,4.274a15.256,15.256,0,0,1,15.136-17.24,15.744,15.744,0,0,1,1.979.125A15.254,15.254,0,1,1,48.876,33.991ZM105.25,117a2.253,2.253,0,0,1-2.25,2.25H25A2.253,2.253,0,0,1,22.75,117V66.75h82.5Zm5-53.75H17.75V50.75h92.5Z"/><path d="M49,101.75H79a8.75,8.75,0,0,0,0-17.5H49a8.75,8.75,0,0,0,0,17.5Zm0-14H79a5.25,5.25,0,0,1,0,10.5H49a5.25,5.25,0,0,1,0-10.5Z"/></g></svg>
