<?xml version="1.0" encoding="UTF-8"?>
<svg xmlns="http://www.w3.org/2000/svg" width="512" height="512" viewBox="0 0 128 128"><g><path d="M121,106.625h-6.25V45.375a5.757,5.757,0,0,0-5.75-5.75H98.385a34.746,34.746,0,0,0-68.77,0H19a5.757,5.757,0,0,0-5.75,5.75v61.25H7a1.751,1.751,0,0,0-1.75,1.75v4a5.757,5.757,0,0,0,5.75,5.75H117a5.757,5.757,0,0,0,5.75-5.75v-4A1.75,1.75,0,0,0,121,106.625ZM64,79.375a34.8,34.8,0,0,0,34.385-29.75H111.25v50.5H16.75v-50.5H29.615A34.8,34.8,0,0,0,64,79.375Zm45-36.25a2.253,2.253,0,0,1,2.25,2.25v.75H98.712c.021-.5.038-1,.038-1.5s-.017-1-.038-1.5ZM64,13.375a31.25,31.25,0,1,1-31.25,31.25A31.286,31.286,0,0,1,64,13.375ZM19,43.125H29.288c-.021.5-.038,1-.038,1.5s.017,1,.038,1.5H16.75v-.75A2.252,2.252,0,0,1,19,43.125Zm-2.25,60.5h94.5v3H82a1.749,1.749,0,0,0-1.606,1.056l-.544,1.259H48.15l-.544-1.259A1.749,1.749,0,0,0,46,106.625H16.75Zm102.5,8.75a2.253,2.253,0,0,1-2.25,2.25H11a2.252,2.252,0,0,1-2.25-2.25v-2.25h36.1l.544,1.259A1.749,1.749,0,0,0,47,112.44H81a1.749,1.749,0,0,0,1.606-1.056l.544-1.259h36.1Z"/><path d="M62.763,54.762a1.748,1.748,0,0,0,2.474,0l9.6-9.6A1.749,1.749,0,0,0,73.6,42.175H69.5V25.125a1.75,1.75,0,0,0-1.75-1.75H60.252a1.751,1.751,0,0,0-1.75,1.75v17.05H54.4a1.749,1.749,0,0,0-1.237,2.987Zm-2.511-9.087A1.75,1.75,0,0,0,62,43.925V26.875H66v17.05a1.75,1.75,0,0,0,1.75,1.75h1.628L64,51.05l-5.375-5.375Z"/><path d="M50,61.875H78a1.75,1.75,0,0,0,1.75-1.75v-4a1.75,1.75,0,0,0-3.5,0v2.25H51.75v-2.25a1.75,1.75,0,0,0-3.5,0v4A1.751,1.751,0,0,0,50,61.875Z"/></g></svg>
