<?xml version="1.0" encoding="UTF-8"?>
<svg xmlns="http://www.w3.org/2000/svg" width="512" height="512" viewBox="0 0 128 128"><g><path d="M121,95.75h-6.25V34.5A5.757,5.757,0,0,0,109,28.75H94.75V22.5A1.75,1.75,0,0,0,93,20.75H35a1.75,1.75,0,0,0-1.75,1.75v6.25H19a5.757,5.757,0,0,0-5.75,5.75V95.75H7A1.75,1.75,0,0,0,5.25,97.5v4A5.757,5.757,0,0,0,11,107.25H117a5.757,5.757,0,0,0,5.75-5.75v-4A1.75,1.75,0,0,0,121,95.75ZM111.25,34.5v.75h-8.5v-3H109A2.253,2.253,0,0,1,111.25,34.5Zm-20-10.25v45H65.75v-45Zm-54.5,0h25.5v45H36.75Zm-8,8h4.5V71A1.75,1.75,0,0,0,35,72.75H93A1.75,1.75,0,0,0,94.75,71V32.25h4.5v45H28.75ZM101,80.75A1.75,1.75,0,0,0,102.75,79V38.75h8.5v50.5H16.75V38.75h8.5V79A1.75,1.75,0,0,0,27,80.75ZM19,32.25h6.25v3h-8.5V34.5A2.253,2.253,0,0,1,19,32.25Zm-2.25,60.5h94.5v3H82a1.749,1.749,0,0,0-1.606,1.056l-.544,1.259H48.15l-.544-1.259A1.749,1.749,0,0,0,46,95.75H16.75Zm102.5,8.75a2.253,2.253,0,0,1-2.25,2.25H11a2.253,2.253,0,0,1-2.25-2.25V99.25h36.1l.544,1.26A1.749,1.749,0,0,0,47,101.565H81a1.749,1.749,0,0,0,1.606-1.055l.544-1.26h36.1Z"/><path d="M56.5,57.125h-14a1.75,1.75,0,0,0,0,3.5h14a1.75,1.75,0,0,0,0-3.5Z"/><path d="M56.5,45h-14a1.75,1.75,0,0,0,0,3.5h14a1.75,1.75,0,0,0,0-3.5Z"/><path d="M42.5,36.375h14a1.75,1.75,0,0,0,0-3.5h-14a1.75,1.75,0,0,0,0,3.5Z"/><path d="M85.5,57.125h-14a1.75,1.75,0,0,0,0,3.5h14a1.75,1.75,0,0,0,0-3.5Z"/><path d="M71.5,48.5h14a1.75,1.75,0,0,0,0-3.5h-14a1.75,1.75,0,0,0,0,3.5Z"/><path d="M71.5,36.375h14a1.75,1.75,0,0,0,0-3.5h-14a1.75,1.75,0,0,0,0,3.5Z"/></g></svg>
