<?xml version="1.0" encoding="UTF-8"?>
<svg xmlns="http://www.w3.org/2000/svg" width="512" height="512" viewBox="0 0 128 128"><g><path d="M117,5.25H11A5.756,5.756,0,0,0,5.25,11V117A5.756,5.756,0,0,0,11,122.75H117a5.756,5.756,0,0,0,5.75-5.75V11A5.756,5.756,0,0,0,117,5.25ZM119.25,117a2.253,2.253,0,0,1-2.25,2.25H11A2.253,2.253,0,0,1,8.75,117V11A2.253,2.253,0,0,1,11,8.75H117A2.253,2.253,0,0,1,119.25,11Z"/><path d="M109,17.25H19A1.749,1.749,0,0,0,17.25,19V53A1.749,1.749,0,0,0,19,54.75h90A1.749,1.749,0,0,0,110.75,53V19A1.749,1.749,0,0,0,109,17.25Zm-1.75,34H20.75V20.75h86.5Z"/><path d="M25.75,85.488V65a1.75,1.75,0,0,0-3.5,0V85.488a6.741,6.741,0,0,0,0,13.024V109a1.75,1.75,0,0,0,3.5,0V98.512a6.741,6.741,0,0,0,0-13.024ZM24,95.25A3.25,3.25,0,1,1,27.25,92,3.254,3.254,0,0,1,24,95.25Z"/><path d="M105.75,85.488V65a1.75,1.75,0,0,0-3.5,0V85.488a6.741,6.741,0,0,0,0,13.024V109a1.75,1.75,0,0,0,3.5,0V98.512a6.741,6.741,0,0,0,0-13.024ZM104,95.25A3.25,3.25,0,1,1,107.25,92,3.254,3.254,0,0,1,104,95.25Z"/><path d="M85.75,75.488V65a1.75,1.75,0,0,0-3.5,0V75.488a6.741,6.741,0,0,0,0,13.024V109a1.75,1.75,0,0,0,3.5,0V88.512a6.741,6.741,0,0,0,0-13.024ZM84,85.25A3.25,3.25,0,1,1,87.25,82,3.254,3.254,0,0,1,84,85.25Z"/><path d="M65.75,85.488V65a1.75,1.75,0,0,0-3.5,0V85.488a6.741,6.741,0,0,0,0,13.024V109a1.75,1.75,0,0,0,3.5,0V98.512a6.741,6.741,0,0,0,0-13.024ZM64,95.25A3.25,3.25,0,1,1,67.25,92,3.254,3.254,0,0,1,64,95.25Z"/><path d="M45.75,75.488V65a1.75,1.75,0,0,0-3.5,0V75.488a6.741,6.741,0,0,0,0,13.024V109a1.75,1.75,0,0,0,3.5,0V88.512a6.741,6.741,0,0,0,0-13.024ZM44,85.25A3.25,3.25,0,1,1,47.25,82,3.254,3.254,0,0,1,44,85.25Z"/><path d="M27,46.75A1.749,1.749,0,0,0,28.75,45V40.5a1.75,1.75,0,0,0-3.5,0V45A1.749,1.749,0,0,0,27,46.75Z"/><path d="M101,46.75A1.749,1.749,0,0,0,102.75,45V40.5a1.75,1.75,0,0,0-3.5,0V45A1.749,1.749,0,0,0,101,46.75Z"/><path d="M91.75,46.75A1.749,1.749,0,0,0,93.5,45V31.5a1.75,1.75,0,0,0-3.5,0V45A1.749,1.749,0,0,0,91.75,46.75Z"/><path d="M82.5,46.75A1.749,1.749,0,0,0,84.25,45V36a1.75,1.75,0,0,0-3.5,0v9A1.749,1.749,0,0,0,82.5,46.75Z"/><path d="M73.25,46.75A1.749,1.749,0,0,0,75,45V27a1.75,1.75,0,0,0-3.5,0V45A1.749,1.749,0,0,0,73.25,46.75Z"/><path d="M64,46.75A1.749,1.749,0,0,0,65.75,45V40.5a1.75,1.75,0,0,0-3.5,0V45A1.749,1.749,0,0,0,64,46.75Z"/><path d="M54.75,46.75A1.749,1.749,0,0,0,56.5,45V27A1.75,1.75,0,0,0,53,27V45A1.749,1.749,0,0,0,54.75,46.75Z"/><path d="M45.5,46.75A1.749,1.749,0,0,0,47.25,45V36a1.75,1.75,0,0,0-3.5,0v9A1.749,1.749,0,0,0,45.5,46.75Z"/><path d="M36.25,46.75A1.749,1.749,0,0,0,38,45V31.5a1.75,1.75,0,0,0-3.5,0V45A1.749,1.749,0,0,0,36.25,46.75Z"/></g></svg>
