<?xml version="1.0" encoding="UTF-8"?>
<svg xmlns="http://www.w3.org/2000/svg" width="512" height="512" viewBox="0 0 128 128"><g><path d="M121,13.645H7A1.749,1.749,0,0,0,5.25,15.4v76A1.75,1.75,0,0,0,7,93.145H33.9l-.713,10.807a9.777,9.777,0,0,0,7.2,10.058,10.161,10.161,0,0,0,2.639.349,10.044,10.044,0,0,0,8.844-5.288l4.019-7.426H72.11l4.02,7.426a10.044,10.044,0,0,0,8.844,5.288,10.167,10.167,0,0,0,2.639-.349,9.775,9.775,0,0,0,7.2-10.058L94.1,93.145H121a1.75,1.75,0,0,0,1.75-1.75v-76A1.749,1.749,0,0,0,121,13.645Zm-41,60.5H48a13.766,13.766,0,0,0-12.7,8.5H15.75v-58.5h96.5v58.5H92.7A13.766,13.766,0,0,0,80,74.145ZM90.25,87.9A10.261,10.261,0,0,1,80,98.145H48a10.25,10.25,0,1,1,0-20.5H80A10.261,10.261,0,0,1,90.25,87.9Zm-41.458,19.51a6.559,6.559,0,0,1-7.5,3.224,6.265,6.265,0,0,1-4.615-6.446L37.2,96.37A13.721,13.721,0,0,0,48,101.645h3.91Zm37.913,3.224a6.561,6.561,0,0,1-7.5-3.224l-3.118-5.76H80A13.721,13.721,0,0,0,90.805,96.37l.515,7.813A6.265,6.265,0,0,1,86.705,110.629ZM119.25,89.645H93.869l-.123-1.866h0a13.748,13.748,0,0,0-.118-1.634H114a1.75,1.75,0,0,0,1.75-1.75v-62a1.749,1.749,0,0,0-1.75-1.75H14a1.749,1.749,0,0,0-1.75,1.75v62A1.75,1.75,0,0,0,14,86.145H34.374a13.541,13.541,0,0,0-.118,1.634h0l-.123,1.866H8.75v-72.5h110.5Z"/><circle cx="80" cy="83.394" r="1.75"/><circle cx="80" cy="92.394" r="1.75"/><circle cx="84.5" cy="87.894" r="1.75"/><circle cx="75.5" cy="87.894" r="1.75"/><circle cx="48" cy="83.394" r="1.75"/><circle cx="48" cy="92.394" r="1.75"/><circle cx="52.5" cy="87.894" r="1.75"/><circle cx="43.5" cy="87.894" r="1.75"/><path d="M89.5,49.145H94a1.75,1.75,0,0,0,0-3.5H89.5a4.755,4.755,0,0,0-4.75,4.75v6a4.756,4.756,0,0,0,4.75,4.75H94a1.75,1.75,0,0,0,0-3.5H89.5a1.251,1.251,0,0,1-1.25-1.25v-1.25H94a1.75,1.75,0,0,0,0-3.5H88.25V50.4A1.25,1.25,0,0,1,89.5,49.145Z"/><path d="M57,45.645H54a4.755,4.755,0,0,0-4.75,4.75v9a1.75,1.75,0,1,0,3.5,0v-4.25h5.5V59.4a1.75,1.75,0,1,0,3.5,0v-9A4.755,4.755,0,0,0,57,45.645Zm-4.25,6V50.4A1.25,1.25,0,0,1,54,49.145h3a1.251,1.251,0,0,1,1.25,1.25v1.25Z"/><path d="M37,49.145h6a1.75,1.75,0,0,0,0-3.5H37a4.755,4.755,0,0,0-4.75,4.75v6A4.756,4.756,0,0,0,37,61.145h3a4.756,4.756,0,0,0,4.75-4.75v-3A1.749,1.749,0,0,0,43,51.645H40a1.75,1.75,0,0,0,0,3.5h1.25V56.4A1.252,1.252,0,0,1,40,57.645H37a1.251,1.251,0,0,1-1.25-1.25v-6A1.25,1.25,0,0,1,37,49.145Z"/><path d="M78.957,45.705a1.749,1.749,0,0,0-1.969.808L73.25,52.922l-3.738-6.409a1.75,1.75,0,0,0-3.262.882v12a1.75,1.75,0,1,0,3.5,0V53.867l1.988,3.409a1.75,1.75,0,0,0,3.024,0l1.988-3.409V59.4a1.75,1.75,0,1,0,3.5,0v-12A1.749,1.749,0,0,0,78.957,45.705Z"/><path d="M66,86.145H62a1.75,1.75,0,1,0,0,3.5h4a1.75,1.75,0,0,0,0-3.5Z"/></g></svg>
