<?xml version="1.0" encoding="UTF-8"?>
<svg xmlns="http://www.w3.org/2000/svg" width="512" height="512" viewBox="0 0 128 128"><g><path d="M64,67.25A20.75,20.75,0,1,0,84.75,88,20.774,20.774,0,0,0,64,67.25Zm0,38A17.25,17.25,0,1,1,81.25,88,17.269,17.269,0,0,1,64,105.25Z"/><path d="M74.775,86.484,59.905,77.9a1.75,1.75,0,0,0-2.625,1.516v17.17A1.751,1.751,0,0,0,59.905,98.1l14.87-8.585a1.751,1.751,0,0,0,0-3.032Zm-14,7.07V82.446L70.4,88Z"/><path d="M121,70.25H115.7a5.753,5.753,0,0,0-5.695-5h-4.25V59a41.75,41.75,0,0,0-83.5,0v6.25H18a5.753,5.753,0,0,0-5.695,5H7A1.75,1.75,0,0,0,5.25,72v32A1.75,1.75,0,0,0,7,105.75h5.305a5.753,5.753,0,0,0,5.7,5H30A5.757,5.757,0,0,0,35.75,105V71A5.757,5.757,0,0,0,30,65.25H25.75V59a38.017,38.017,0,0,1,5.707-20.071l1.078.429A9.748,9.748,0,0,0,42.922,37.3a30.249,30.249,0,0,1,42.156,0,9.742,9.742,0,0,0,10.388,2.054l1.076-.429A38.012,38.012,0,0,1,102.25,59v6.25H98A5.757,5.757,0,0,0,92.25,71v34A5.757,5.757,0,0,0,98,110.75h12a5.753,5.753,0,0,0,5.695-5H121a1.75,1.75,0,0,0,1.75-1.75V72A1.75,1.75,0,0,0,121,70.25ZM15.75,83.75H18a4.25,4.25,0,0,1,0,8.5H15.75Zm-7-10h3.5v28.5H8.75ZM32.25,71v34A2.253,2.253,0,0,1,30,107.25H18A2.253,2.253,0,0,1,15.75,105V95.75H18a7.75,7.75,0,0,0,0-15.5H15.75V71A2.253,2.253,0,0,1,18,68.75H30A2.253,2.253,0,0,1,32.25,71ZM94.17,36.106a6.243,6.243,0,0,1-6.652-1.313,33.751,33.751,0,0,0-47.036,0,6.242,6.242,0,0,1-6.651,1.314l-.347-.138a38.2,38.2,0,0,1,61.031,0ZM112.25,92.25H110a4.25,4.25,0,0,1,0-8.5h2.25Zm-2.25,15H98A2.253,2.253,0,0,1,95.75,105V71A2.253,2.253,0,0,1,98,68.75h12A2.253,2.253,0,0,1,112.25,71v9.25H110a7.75,7.75,0,0,0,0,15.5h2.25V105A2.253,2.253,0,0,1,110,107.25Zm9.25-5h-3.5V73.75h3.5Z"/></g></svg>
