<svg height="512" viewBox="0 0 128 128" width="512" xmlns="http://www.w3.org/2000/svg"><path d="m121 91.75h-6.25v-61.25a5.757 5.757 0 0 0 -5.75-5.75h-90a5.757 5.757 0 0 0 -5.75 5.75v61.25h-6.25a1.751 1.751 0 0 0 -1.75 1.75v4a5.757 5.757 0 0 0 5.75 5.75h106a5.757 5.757 0 0 0 5.75-5.75v-4a1.751 1.751 0 0 0 -1.75-1.75zm-104.25-61.25a2.252 2.252 0 0 1 2.25-2.25h90a2.252 2.252 0 0 1 2.25 2.25v.75h-94.5zm0 4.25h94.5v50.5h-94.5zm0 54h94.5v3h-29.25a1.749 1.749 0 0 0 -1.606 1.056l-.544 1.259h-31.7l-.544-1.259a1.749 1.749 0 0 0 -1.606-1.056h-29.25zm102.5 8.75a2.252 2.252 0 0 1 -2.25 2.25h-106a2.252 2.252 0 0 1 -2.25-2.25v-2.25h36.1l.544 1.259a1.749 1.749 0 0 0 1.606 1.056h34a1.749 1.749 0 0 0 1.606-1.056l.544-1.259h36.1z"/></svg>