<?xml version="1.0" encoding="UTF-8"?>
<svg xmlns="http://www.w3.org/2000/svg" width="512" height="512" viewBox="0 0 128 128"><g><path d="M113.524,17.4H7a1.75,1.75,0,0,0-1.139,3.08l23.684,20.3v60.6A9.237,9.237,0,0,0,38.77,110.6h74.754a9.237,9.237,0,0,0,9.226-9.226V26.623A9.237,9.237,0,0,0,113.524,17.4Zm5.726,83.98a5.732,5.732,0,0,1-5.726,5.726H38.77a5.732,5.732,0,0,1-5.725-5.726v-61.4a1.754,1.754,0,0,0-.611-1.329L11.73,20.9H113.524a5.732,5.732,0,0,1,5.726,5.726Z"/><path d="M98.52,56.85H81.444V42.056a6.8,6.8,0,0,0-13.228-2.248L62.253,56.85h-12.8A1.749,1.749,0,0,0,47.7,58.6V86.68a1.749,1.749,0,0,0,1.75,1.75H63l4.3,2.611a11.749,11.749,0,0,0,6.1,1.709H95.352a6.088,6.088,0,0,0,6.016-5.268l3.168-23.759A6.068,6.068,0,0,0,98.52,56.85ZM61.744,84.93H51.2V60.35h10.54Zm39.323-21.67L97.9,87.02a2.578,2.578,0,0,1-2.547,2.23H73.4a8.254,8.254,0,0,1-4.284-1.2L65.244,85.7V58.9l6.275-17.932a3.305,3.305,0,0,1,6.425,1.092V58.6a1.75,1.75,0,0,0,1.75,1.75H98.52a2.57,2.57,0,0,1,2.547,2.91Z"/></g></svg>
