<svg height="512" viewBox="0 0 128 128" width="512" xmlns="http://www.w3.org/2000/svg"><g><path d="m121 18.25h-114a1.751 1.751 0 0 0 -1.75 1.75v76a1.751 1.751 0 0 0 1.75 1.75h48.25v8.5h-15.25a1.75 1.75 0 0 0 0 3.5h48a1.75 1.75 0 0 0 0-3.5h-15.25v-8.5h48.25a1.751 1.751 0 0 0 1.75-1.75v-76a1.751 1.751 0 0 0 -1.75-1.75zm-51.75 88h-10.5v-8.5h10.5zm50-12h-110.5v-72.5h110.5z"/><path d="m14 90.75h100a1.751 1.751 0 0 0 1.75-1.75v-62a1.751 1.751 0 0 0 -1.75-1.75h-100a1.751 1.751 0 0 0 -1.75 1.75v62a1.751 1.751 0 0 0 1.75 1.75zm1.75-62h96.5v58.5h-96.5z"/><path d="m67.359 54.193a1.749 1.749 0 1 0 2.474-2.474 8.258 8.258 0 0 0 -11.667 0 1.75 1.75 0 1 0 2.475 2.474 4.758 4.758 0 0 1 6.718 0z"/><path d="m53.57 47.123a1.75 1.75 0 0 0 2.475 2.477 11.264 11.264 0 0 1 15.91 0 1.75 1.75 0 0 0 2.475-2.474 14.767 14.767 0 0 0 -20.86-.003z"/><path d="m47.5 69.7h-4.5a1.251 1.251 0 0 1 -1.25-1.25v-9a1.75 1.75 0 0 0 -3.5 0v9a4.756 4.756 0 0 0 4.75 4.75h4.5a1.75 1.75 0 0 0 0-3.5z"/><path d="m83.5 61.2h4.5a1.75 1.75 0 0 0 0-3.5h-4.5a4.756 4.756 0 0 0 -4.75 4.75v6a4.756 4.756 0 0 0 4.75 4.75h4.5a1.75 1.75 0 0 0 0-3.5h-4.5a1.251 1.251 0 0 1 -1.25-1.25v-1.25h5.75a1.75 1.75 0 1 0 0-3.5h-5.75v-1.25a1.25 1.25 0 0 1 1.25-1.25z"/><path d="m55.5 57.7a1.75 1.75 0 0 0 -1.75 1.75v12a1.75 1.75 0 0 0 3.5 0v-12a1.75 1.75 0 0 0 -1.75-1.75z"/><path d="m72.5 57.7a1.75 1.75 0 0 0 -1.75 1.75v6.1l-2.75 3.209-2.75-3.209v-6.1a1.75 1.75 0 0 0 -3.5 0v6.75a1.744 1.744 0 0 0 .421 1.138l4.5 5.25a1.749 1.749 0 0 0 2.658 0l4.5-5.25a1.744 1.744 0 0 0 .421-1.138v-6.75a1.75 1.75 0 0 0 -1.75-1.75z"/></g></svg>