<?xml version="1.0" encoding="UTF-8"?>
<svg xmlns="http://www.w3.org/2000/svg" width="512" height="512" viewBox="0 0 128 128"><g><path d="M106.48,47.521A1.749,1.749,0,1,0,104.006,50a4.256,4.256,0,0,1,0,6.01,1.749,1.749,0,1,0,2.474,2.474A7.756,7.756,0,0,0,106.48,47.521Z"/><path d="M111.43,42.57a1.75,1.75,0,1,0-2.475,2.475,11.25,11.25,0,0,1,0,15.91,1.75,1.75,0,0,0,2.475,2.475,14.751,14.751,0,0,0,0-20.86Z"/><path d="M116.379,37.62A1.75,1.75,0,0,0,113.9,40.1a18.249,18.249,0,0,1,0,25.81,1.75,1.75,0,1,0,2.475,2.475A21.776,21.776,0,0,0,116.379,37.62Z"/><path d="M96.469,11.25h-6a5.756,5.756,0,0,0-5.708,5.079A47.242,47.242,0,0,1,75.1,24.7c-5.973,4.019-16.011,9.142-30.346,11.287V34A1.75,1.75,0,0,0,43,32.25H11A5.757,5.757,0,0,0,5.25,38V68A5.757,5.757,0,0,0,11,73.75h2.745L27.9,115.561a1.751,1.751,0,0,0,1.658,1.189h7.468a5.75,5.75,0,0,0,5.681-6.636L37.044,73.75H43A1.75,1.75,0,0,0,44.75,72V70.017C70.387,73.849,82.735,87.27,84.762,89.674a5.755,5.755,0,0,0,5.707,5.076h6A1.75,1.75,0,0,0,98.219,93V13A1.75,1.75,0,0,0,96.469,11.25Zm-57.218,99.4a2.249,2.249,0,0,1-2.223,2.6H30.815L17.44,73.75H33.5Zm2-40.4H11A2.253,2.253,0,0,1,8.75,68V38A2.253,2.253,0,0,1,11,35.75H41.25Zm3.5-3.769V39.519C66.645,36.382,79.3,26.725,84.719,21.487V84.513C79.3,79.275,66.645,69.618,44.75,66.481ZM94.719,91.25h-4.25A2.253,2.253,0,0,1,88.219,89V17a2.253,2.253,0,0,1,2.25-2.25h4.25Z"/><path d="M19,45.25H31a1.75,1.75,0,0,0,0-3.5H19a1.75,1.75,0,0,0,0,3.5Z"/><path d="M19,54.75H31a1.75,1.75,0,0,0,0-3.5H19a1.75,1.75,0,0,0,0,3.5Z"/><path d="M19,64.25H31a1.75,1.75,0,0,0,0-3.5H19a1.75,1.75,0,0,0,0,3.5Z"/></g></svg>
