<?xml version="1.0" encoding="UTF-8"?>
<svg xmlns="http://www.w3.org/2000/svg" width="512" height="512" viewBox="0 0 128 128"><g><path d="M59.419,57.665,50.54,56.374l-3.971-8.045a1.749,1.749,0,0,0-3.138,0L39.46,56.374l-8.879,1.291a1.75,1.75,0,0,0-.97,2.984l6.425,6.263-1.517,8.843a1.751,1.751,0,0,0,2.54,1.845L45,73.425,52.941,77.6a1.75,1.75,0,0,0,2.539-1.845l-1.516-8.843,6.425-6.263a1.75,1.75,0,0,0-.97-2.984Zm-8.558,7.383a1.751,1.751,0,0,0-.5,1.549l1.074,6.255L45.814,69.9a1.751,1.751,0,0,0-1.629,0l-5.617,2.954L39.642,66.6a1.751,1.751,0,0,0-.5-1.549l-4.545-4.43,6.28-.913a1.747,1.747,0,0,0,1.317-.957L45,53.058l2.809,5.69a1.746,1.746,0,0,0,1.317.957l6.28.913Z"/><path d="M45,38.25A25.75,25.75,0,1,0,70.75,64,25.78,25.78,0,0,0,45,38.25Zm0,48A22.25,22.25,0,1,1,67.25,64,22.275,22.275,0,0,1,45,86.25Z"/><path d="M117,24.25H11A5.756,5.756,0,0,0,5.25,30V98A5.756,5.756,0,0,0,11,103.75H117A5.756,5.756,0,0,0,122.75,98V30A5.756,5.756,0,0,0,117,24.25ZM119.25,98a2.253,2.253,0,0,1-2.25,2.25H11A2.253,2.253,0,0,1,8.75,98V30A2.253,2.253,0,0,1,11,27.75H117A2.253,2.253,0,0,1,119.25,30Z"/><path d="M107,86.25H83a1.75,1.75,0,0,0,0,3.5h24a1.75,1.75,0,0,0,0-3.5Z"/><path d="M107,75.25H83a1.75,1.75,0,0,0,0,3.5h24a1.75,1.75,0,0,0,0-3.5Z"/><path d="M107,64.25H83a1.75,1.75,0,0,0,0,3.5h24a1.75,1.75,0,0,0,0-3.5Z"/><path d="M101,38.25H89a7.75,7.75,0,0,0,0,15.5h12a7.75,7.75,0,0,0,0-15.5Zm0,12H89a4.25,4.25,0,0,1,0-8.5h12a4.25,4.25,0,0,1,0,8.5Z"/></g></svg>
