<?xml version="1.0" encoding="UTF-8"?>
<svg xmlns="http://www.w3.org/2000/svg" width="512" height="512" viewBox="0 0 128 128"><g><path d="M26.25,78A1.75,1.75,0,0,0,28,79.75h9.524a5.748,5.748,0,0,0,10.952,0H100a1.75,1.75,0,0,0,0-3.5H48.476a5.748,5.748,0,0,0-10.952,0H28A1.75,1.75,0,0,0,26.25,78ZM43,75.75A2.25,2.25,0,1,1,40.75,78,2.253,2.253,0,0,1,43,75.75Z"/><path d="M117,19.25H87.511a26.742,26.742,0,0,0-47.022,0H11A5.757,5.757,0,0,0,5.25,25v78A5.757,5.757,0,0,0,11,108.75H52.25v10.5H42a1.75,1.75,0,0,0,0,3.5H86a1.75,1.75,0,0,0,0-3.5H75.75v-10.5H117a5.757,5.757,0,0,0,5.75-5.75V25A5.757,5.757,0,0,0,117,19.25ZM64,58.75A26.78,26.78,0,0,0,90.75,32c0-.758-.039-1.507-.1-2.25h21.6v60.5H15.75V29.75h21.6c-.063.743-.1,1.492-.1,2.25A26.78,26.78,0,0,0,64,58.75Zm0-50A23.25,23.25,0,1,1,40.75,32,23.276,23.276,0,0,1,64,8.75Zm8.25,110.5H55.75v-10.5h16.5Zm47-16.25a2.253,2.253,0,0,1-2.25,2.25H11A2.253,2.253,0,0,1,8.75,103V25A2.253,2.253,0,0,1,11,22.75H38.9a26.671,26.671,0,0,0-1.021,3.5H14A1.75,1.75,0,0,0,12.25,28V92A1.75,1.75,0,0,0,14,93.75H114A1.75,1.75,0,0,0,115.75,92V28A1.75,1.75,0,0,0,114,26.25H90.121a26.671,26.671,0,0,0-1.021-3.5H117A2.253,2.253,0,0,1,119.25,25Z"/><path d="M65.667,36.917H59a1.75,1.75,0,0,0,0,3.5h3.25V42a1.75,1.75,0,0,0,3.5,0V40.409a5.08,5.08,0,0,0-.083-10.159H62.333a1.584,1.584,0,0,1,0-3.167H69a1.75,1.75,0,0,0,0-3.5H65.75V22a1.75,1.75,0,0,0-3.5,0v1.591a5.08,5.08,0,0,0,.083,10.159h3.334a1.584,1.584,0,0,1,0,3.167Z"/><path d="M64,50.75A18.75,18.75,0,1,0,45.25,32,18.771,18.771,0,0,0,64,50.75Zm0-34A15.25,15.25,0,1,1,48.75,32,15.267,15.267,0,0,1,64,16.75Z"/><path d="M64,68.75A1.75,1.75,0,0,0,65.75,67V64a1.75,1.75,0,0,0-3.5,0v3A1.75,1.75,0,0,0,64,68.75Z"/><path d="M52,66.424a1.75,1.75,0,0,0,1.75-1.75v-3a1.75,1.75,0,0,0-3.5,0v3A1.75,1.75,0,0,0,52,66.424Z"/><path d="M76,66.424a1.75,1.75,0,0,0,1.75-1.75v-3a1.75,1.75,0,0,0-3.5,0v3A1.75,1.75,0,0,0,76,66.424Z"/></g></svg>
