<?xml version="1.0" encoding="UTF-8"?>
<svg xmlns="http://www.w3.org/2000/svg" width="512" height="512" viewBox="0 0 128 128"><g><path d="M121.971,51.544a1.753,1.753,0,0,0-1.644-.159L96.651,61.25h-7.9V57A5.757,5.757,0,0,0,83,51.25H73.538A17.731,17.731,0,1,0,47,29.366,17.733,17.733,0,1,0,20.462,51.25H11A5.757,5.757,0,0,0,5.25,57v46A5.757,5.757,0,0,0,11,108.75H83A5.757,5.757,0,0,0,88.75,103V98.75h7.9l23.676,9.865a1.732,1.732,0,0,0,.673.135,1.75,1.75,0,0,0,1.75-1.75V53A1.751,1.751,0,0,0,121.971,51.544ZM63,22.75A14.25,14.25,0,1,1,48.75,37,14.267,14.267,0,0,1,63,22.75ZM52.462,51.25H41.538A17.843,17.843,0,0,0,47,44.634,17.833,17.833,0,0,0,52.462,51.25ZM16.75,37A14.25,14.25,0,1,1,31,51.25,14.267,14.267,0,0,1,16.75,37Zm68.5,66A2.253,2.253,0,0,1,83,105.25H11A2.253,2.253,0,0,1,8.75,103V57A2.253,2.253,0,0,1,11,54.75H83A2.253,2.253,0,0,1,85.25,57Zm10-7.75h-6.5V64.75h6.5Zm24,9.125-20.5-8.541V64.166l20.5-8.541Z"/><path d="M47,59.25A20.75,20.75,0,1,0,67.75,80,20.774,20.774,0,0,0,47,59.25Zm0,38A17.25,17.25,0,1,1,64.25,80,17.269,17.269,0,0,1,47,97.25Z"/><path d="M57.775,78.484,42.905,69.9a1.75,1.75,0,0,0-2.625,1.516v17.17A1.751,1.751,0,0,0,42.905,90.1l14.87-8.585a1.751,1.751,0,0,0,0-3.032ZM43.78,85.554V74.446L53.4,80Z"/><path d="M31,27.25A9.75,9.75,0,1,0,40.75,37,9.761,9.761,0,0,0,31,27.25Zm0,16A6.25,6.25,0,1,1,37.25,37,6.257,6.257,0,0,1,31,43.25Z"/><path d="M63,46.75A9.75,9.75,0,1,0,53.25,37,9.761,9.761,0,0,0,63,46.75Zm0-16A6.25,6.25,0,1,1,56.75,37,6.257,6.257,0,0,1,63,30.75Z"/></g></svg>
