<?xml version="1.0" encoding="UTF-8"?>
<svg xmlns="http://www.w3.org/2000/svg" width="512" height="512" viewBox="0 0 128 128"><g><path d="M88.75,53.75h6a1.75,1.75,0,0,0,0-3.5h-6a4.75,4.75,0,0,0,0,9.5h3a1.25,1.25,0,0,1,0,2.5h-6a1.75,1.75,0,0,0,0,3.5h6a4.75,4.75,0,0,0,0-9.5h-3a1.25,1.25,0,0,1,0-2.5Z"/><path d="M53.25,53.75h4.5a1.75,1.75,0,0,0,0-3.5h-4.5A4.756,4.756,0,0,0,48.5,55v6a4.756,4.756,0,0,0,4.75,4.75h4.5a1.75,1.75,0,0,0,0-3.5h-4.5A1.25,1.25,0,0,1,52,61V59.75h5.75a1.75,1.75,0,0,0,0-3.5H52V55A1.25,1.25,0,0,1,53.25,53.75Z"/><path d="M42.25,50.25A1.75,1.75,0,0,0,40.5,52v6.75l-5.85-7.8A1.75,1.75,0,0,0,31.5,52V64A1.75,1.75,0,0,0,35,64V57.25l5.85,7.8A1.75,1.75,0,0,0,44,64V52A1.75,1.75,0,0,0,42.25,50.25Z"/><path d="M77.967,50.264a1.75,1.75,0,0,0-1.953,1.519l-.784,6.265-1.915-3.831a1.75,1.75,0,0,0-3.13,0l-1.916,3.831-.783-6.265a1.75,1.75,0,0,0-3.472.434l1.5,12a1.75,1.75,0,0,0,3.3.566l2.935-5.87,2.935,5.87a1.75,1.75,0,0,0,3.3-.566l1.5-12A1.749,1.749,0,0,0,77.967,50.264Z"/><path d="M121,18.25H7A1.75,1.75,0,0,0,5.25,20V96A1.75,1.75,0,0,0,7,97.75H55.25v8.5H40a1.75,1.75,0,0,0,0,3.5H88a1.75,1.75,0,0,0,0-3.5H72.75v-8.5H121A1.75,1.75,0,0,0,122.75,96V20A1.75,1.75,0,0,0,121,18.25Zm-51.75,88H58.75v-8.5h10.5Zm50-12H8.75V21.75h110.5Z"/><path d="M14,90.75H114A1.75,1.75,0,0,0,115.75,89V27A1.75,1.75,0,0,0,114,25.25H14A1.75,1.75,0,0,0,12.25,27V89A1.75,1.75,0,0,0,14,90.75Zm1.75-62h96.5v58.5H15.75Z"/></g></svg>
