<?xml version="1.0" encoding="UTF-8"?>
<svg xmlns="http://www.w3.org/2000/svg" width="512" height="512" viewBox="0 0 128 128"><g><path d="M100.75,86.275V54a36.808,36.808,0,0,0-29-35.92V13a7.75,7.75,0,0,0-15.5,0v5.08A36.808,36.808,0,0,0,27.25,54V86.275l-6.559,6.559a11.671,11.671,0,0,0-3.441,8.308V105A1.751,1.751,0,0,0,19,106.75H46.339a17.747,17.747,0,0,0,35.322,0H109a1.751,1.751,0,0,0,1.75-1.75v-3.858a11.671,11.671,0,0,0-3.441-8.308ZM59.75,13a4.25,4.25,0,0,1,8.5,0v4.5a35.823,35.823,0,0,0-8.5,0ZM64,20.75A33.288,33.288,0,0,1,97.25,54V85.25H30.75V54A33.288,33.288,0,0,1,64,20.75Zm0,98.5a14.263,14.263,0,0,1-14.131-12.5H78.131A14.263,14.263,0,0,1,64,119.25Zm43.25-16H20.75v-2.108a8.2,8.2,0,0,1,2.416-5.833l6.559-6.559h68.55l6.559,6.559a8.2,8.2,0,0,1,2.416,5.833Z"/><path d="M64,76.75A22.75,22.75,0,1,0,41.25,54,22.776,22.776,0,0,0,64,76.75Zm0-42A19.25,19.25,0,1,1,44.75,54,19.272,19.272,0,0,1,64,34.75Z"/><path d="M94.582,20.943a1.75,1.75,0,0,0,0,2.474A42.967,42.967,0,0,1,107.25,54a1.75,1.75,0,0,0,3.5,0A46.444,46.444,0,0,0,97.057,20.943,1.749,1.749,0,0,0,94.582,20.943Z"/><path d="M104.128,13.872a1.749,1.749,0,1,0-2.474,2.474A52.9,52.9,0,0,1,117.25,54a1.75,1.75,0,0,0,3.5,0A56.376,56.376,0,0,0,104.128,13.872Z"/><path d="M19,55.75A1.751,1.751,0,0,0,20.75,54,42.966,42.966,0,0,1,33.417,23.417a1.749,1.749,0,0,0-2.474-2.474A46.444,46.444,0,0,0,17.25,54,1.751,1.751,0,0,0,19,55.75Z"/><path d="M26.346,13.872a1.748,1.748,0,0,0-2.474,0A56.376,56.376,0,0,0,7.25,54a1.75,1.75,0,0,0,3.5,0,52.9,52.9,0,0,1,15.6-37.654A1.748,1.748,0,0,0,26.346,13.872Z"/><path d="M59.5,46.75h2.75V63a1.75,1.75,0,0,0,3.5,0V45A1.751,1.751,0,0,0,64,43.25H59.5a1.75,1.75,0,0,0,0,3.5Z"/></g></svg>
