<svg height="512" viewBox="0 0 128 128" width="512" xmlns="http://www.w3.org/2000/svg"><g><path d="m121 91.75h-6.25v-61.25a5.756 5.756 0 0 0 -5.75-5.75h-90a5.757 5.757 0 0 0 -5.75 5.75v61.25h-6.25a1.75 1.75 0 0 0 -1.75 1.75v4a5.757 5.757 0 0 0 5.75 5.75h106a5.756 5.756 0 0 0 5.75-5.75v-4a1.749 1.749 0 0 0 -1.75-1.75zm-9.75-6.5h-94.5v-50.5h94.5zm-92.25-57h90a2.253 2.253 0 0 1 2.25 2.25v.75h-94.5v-.75a2.253 2.253 0 0 1 2.25-2.25zm-2.25 60.5h94.5v3h-29.25a1.749 1.749 0 0 0 -1.606 1.056l-.544 1.259h-31.7l-.544-1.259a1.749 1.749 0 0 0 -1.606-1.056h-29.25zm102.5 8.75a2.253 2.253 0 0 1 -2.25 2.25h-106a2.253 2.253 0 0 1 -2.25-2.25v-2.25h36.1l.544 1.26a1.749 1.749 0 0 0 1.606 1.055h34a1.749 1.749 0 0 0 1.606-1.055l.544-1.26h36.1z"/><path d="m64 67.75a7.75 7.75 0 1 0 -7.75-7.75 7.759 7.759 0 0 0 7.75 7.75zm0-12a4.25 4.25 0 1 1 -4.25 4.25 4.254 4.254 0 0 1 4.25-4.25z"/><path d="m53.57 70.43a1.75 1.75 0 0 0 2.475-2.475 11.264 11.264 0 0 1 0-15.91 1.75 1.75 0 0 0 -2.475-2.475 14.769 14.769 0 0 0 0 20.86z"/><path d="m75.25 60a11.176 11.176 0 0 1 -3.3 7.955 1.75 1.75 0 0 0 2.48 2.475 14.751 14.751 0 0 0 0-20.86 1.75 1.75 0 1 0 -2.475 2.475 11.176 11.176 0 0 1 3.295 7.955z"/><path d="m48.621 75.38a1.75 1.75 0 1 0 2.479-2.475 18.251 18.251 0 0 1 0-25.81 1.75 1.75 0 0 0 -2.474-2.475 21.774 21.774 0 0 0 -.005 30.76z"/><path d="m76.905 72.905a1.75 1.75 0 1 0 2.475 2.475 21.778 21.778 0 0 0 0-30.76 1.75 1.75 0 0 0 -2.475 2.48 18.273 18.273 0 0 1 0 25.805z"/></g></svg>