<?xml version="1.0" encoding="UTF-8"?>
<svg xmlns="http://www.w3.org/2000/svg" width="512" height="512" viewBox="0 0 128 128"><g><path d="M64,71.75A7.75,7.75,0,1,0,56.25,64,7.759,7.759,0,0,0,64,71.75Zm0-12A4.25,4.25,0,1,1,59.75,64,4.254,4.254,0,0,1,64,59.75Z"/><path d="M53.57,74.43a1.75,1.75,0,0,0,2.475-2.475,11.25,11.25,0,0,1,0-15.91A1.75,1.75,0,0,0,53.57,53.57a14.751,14.751,0,0,0,0,20.86Z"/><path d="M75.25,64a11.176,11.176,0,0,1-3.3,7.955A1.75,1.75,0,0,0,74.43,74.43a14.751,14.751,0,0,0,0-20.86,1.75,1.75,0,1,0-2.475,2.475A11.176,11.176,0,0,1,75.25,64Z"/><path d="M49.857,79.893A1.751,1.751,0,0,0,51.1,76.905a18.271,18.271,0,0,1,0-25.81A1.75,1.75,0,0,0,48.62,48.62a21.778,21.778,0,0,0,0,30.76A1.743,1.743,0,0,0,49.857,79.893Z"/><path d="M82.25,64A18.127,18.127,0,0,1,76.9,76.905a1.75,1.75,0,1,0,2.475,2.475,21.776,21.776,0,0,0,0-30.76A1.75,1.75,0,0,0,76.9,51.1,18.127,18.127,0,0,1,82.25,64Z"/><path d="M92,5.25H36A5.756,5.756,0,0,0,30.25,11V117A5.756,5.756,0,0,0,36,122.75H92A5.756,5.756,0,0,0,97.75,117V11A5.756,5.756,0,0,0,92,5.25ZM51.75,8.75h24.5V13A1.251,1.251,0,0,1,75,14.25H53A1.25,1.25,0,0,1,51.75,13ZM36,8.75H48.25V13A4.756,4.756,0,0,0,53,17.75H75A4.756,4.756,0,0,0,79.75,13V8.75H92A2.253,2.253,0,0,1,94.25,11v99.25H33.75V11A2.253,2.253,0,0,1,36,8.75Zm56,110.5H36A2.253,2.253,0,0,1,33.75,117v-3.25h60.5V117A2.253,2.253,0,0,1,92,119.25Z"/></g></svg>
