<svg height="512" viewBox="0 0 128 128" width="512" xmlns="http://www.w3.org/2000/svg"><g><path d="m107 122.75h-86a1.751 1.751 0 0 1 -1.75-1.75v-114a1.751 1.751 0 0 1 1.75-1.75h86a1.751 1.751 0 0 1 1.75 1.75v114a1.751 1.751 0 0 1 -1.75 1.75zm-84.25-3.5h82.5v-110.5h-82.5z"/><g><path d="m64 70.75a25.75 25.75 0 1 1 25.75-25.75 25.779 25.779 0 0 1 -25.75 25.75zm0-48a22.25 22.25 0 1 0 22.25 22.25 22.275 22.275 0 0 0 -22.25-22.25z"/><path d="m57.723 57.594a1.749 1.749 0 0 1 -1.75-1.75v-21.688a1.75 1.75 0 0 1 2.627-1.516l18.78 10.844a1.751 1.751 0 0 1 0 3.032l-18.78 10.844a1.753 1.753 0 0 1 -.877.234zm1.75-20.407v15.626l13.532-7.813z"/></g><g><path d="m93 84.75h-40a1.75 1.75 0 0 1 0-3.5h40a1.75 1.75 0 0 1 0 3.5z"/><path d="m41 84.75h-6a1.75 1.75 0 0 1 0-3.5h6a1.75 1.75 0 0 1 0 3.5z"/><path d="m93 96.75h-40a1.75 1.75 0 0 1 0-3.5h40a1.75 1.75 0 0 1 0 3.5z"/><path d="m41 96.75h-6a1.75 1.75 0 0 1 0-3.5h6a1.75 1.75 0 0 1 0 3.5z"/><path d="m93 108.75h-40a1.75 1.75 0 0 1 0-3.5h40a1.75 1.75 0 0 1 0 3.5z"/><path d="m41 108.75h-6a1.75 1.75 0 0 1 0-3.5h6a1.75 1.75 0 0 1 0 3.5z"/></g></g></svg>