<?xml version="1.0" encoding="UTF-8"?>
<svg xmlns="http://www.w3.org/2000/svg" width="512" height="512" viewBox="0 0 128 128"><g><path d="M96,62.75H91.75V19A13.765,13.765,0,0,0,78,5.25H50A13.765,13.765,0,0,0,36.25,19V62.75H32a1.749,1.749,0,0,0-1.75,1.75v14A1.749,1.749,0,0,0,32,80.25h4.25V81A13.765,13.765,0,0,0,50,94.75h7.25v17.5H47A5.756,5.756,0,0,0,41.25,118v3A1.749,1.749,0,0,0,43,122.75H85A1.749,1.749,0,0,0,86.75,121v-3A5.756,5.756,0,0,0,81,112.25H70.75V94.75H78A13.765,13.765,0,0,0,91.75,81v-.75H96a1.749,1.749,0,0,0,1.75-1.75v-14A1.749,1.749,0,0,0,96,62.75Zm-46-54H78A10.261,10.261,0,0,1,88.25,19V48.25H39.75V19A10.261,10.261,0,0,1,50,8.75Zm-10.25,43h48.5v11H39.75ZM83.25,118v1.25H44.75V118A2.253,2.253,0,0,1,47,115.75H81A2.253,2.253,0,0,1,83.25,118Zm-16-5.75h-6.5V94.75h6.5ZM88.25,81A10.261,10.261,0,0,1,78,91.25H50A10.261,10.261,0,0,1,39.75,81v-.75h48.5Zm6-4.25H33.75V66.25h60.5Z"/><path d="M76,30.25h4a1.75,1.75,0,0,0,0-3.5H76a1.75,1.75,0,0,0,0,3.5Z"/><path d="M48,30.25h4a1.75,1.75,0,0,0,0-3.5H48a1.75,1.75,0,0,0,0,3.5Z"/><path d="M62,30.25h4a1.75,1.75,0,0,0,0-3.5H62a1.75,1.75,0,0,0,0,3.5Z"/><path d="M76,41h4a1.75,1.75,0,0,0,0-3.5H76A1.75,1.75,0,0,0,76,41Z"/><path d="M48,41h4a1.75,1.75,0,0,0,0-3.5H48A1.75,1.75,0,0,0,48,41Z"/><path d="M62,41h4a1.75,1.75,0,0,0,0-3.5H62A1.75,1.75,0,0,0,62,41Z"/><path d="M76,19.5h4A1.75,1.75,0,0,0,80,16H76a1.75,1.75,0,0,0,0,3.5Z"/><path d="M48,19.5h4A1.75,1.75,0,0,0,52,16H48a1.75,1.75,0,0,0,0,3.5Z"/><path d="M62,19.5h4A1.75,1.75,0,0,0,66,16H62a1.75,1.75,0,0,0,0,3.5Z"/><path d="M103,43.25A1.749,1.749,0,0,0,101.25,45V55a1.75,1.75,0,0,0,3.5,0V45A1.749,1.749,0,0,0,103,43.25Z"/><path d="M112,36.25A1.749,1.749,0,0,0,110.25,38V62a1.75,1.75,0,0,0,3.5,0V38A1.749,1.749,0,0,0,112,36.25Z"/><path d="M121,43.25A1.749,1.749,0,0,0,119.25,45V55a1.75,1.75,0,0,0,3.5,0V45A1.749,1.749,0,0,0,121,43.25Z"/><path d="M7,43.25A1.749,1.749,0,0,0,5.25,45V55a1.75,1.75,0,0,0,3.5,0V45A1.749,1.749,0,0,0,7,43.25Z"/><path d="M16,36.25A1.749,1.749,0,0,0,14.25,38V62a1.75,1.75,0,0,0,3.5,0V38A1.749,1.749,0,0,0,16,36.25Z"/><path d="M25,43.25A1.749,1.749,0,0,0,23.25,45V55a1.75,1.75,0,0,0,3.5,0V45A1.749,1.749,0,0,0,25,43.25Z"/></g></svg>
