<svg height="512" viewBox="0 0 128 128" width="512" xmlns="http://www.w3.org/2000/svg"><g><path d="m58.52 53.642a1.75 1.75 0 1 0 2.48 2.474 4.249 4.249 0 0 1 6.01 0 1.749 1.749 0 0 0 2.474-2.474 7.746 7.746 0 0 0 -10.959 0z"/><path d="m73.192 51.679a1.751 1.751 0 0 0 1.238-2.988 14.769 14.769 0 0 0 -20.86 0 1.75 1.75 0 0 0 2.475 2.475 11.265 11.265 0 0 1 15.91 0 1.743 1.743 0 0 0 1.237.513z"/><path d="m49.857 46.729a1.743 1.743 0 0 0 1.238-.512 18.248 18.248 0 0 1 25.809 0 1.75 1.75 0 1 0 2.475-2.475 21.748 21.748 0 0 0 -30.759 0 1.75 1.75 0 0 0 1.237 2.987z"/><path d="m122.721 98.684a74.421 74.421 0 0 0 -11.033-26.694 1.75 1.75 0 0 0 -1.429-.74h-9.542l-.909-47.285a4.809 4.809 0 0 0 -9.616 0l-.909 47.285h-50.566l-.909-47.285a4.809 4.809 0 0 0 -9.616 0l-.909 47.285h-9.542a1.754 1.754 0 0 0 -1.43.74 74.449 74.449 0 0 0 -11.032 26.694 1.749 1.749 0 0 0 1.721 2.066h6.634l1.669 6.675a1.749 1.749 0 0 0 1.697 1.325h94a1.749 1.749 0 0 0 1.7-1.325l1.669-6.675h6.631a1.749 1.749 0 0 0 1.721-2.066zm-29.029-74.651a1.308 1.308 0 0 1 2.616 0l.908 47.218h-4.432zm-62 0a1.308 1.308 0 0 1 2.616 0l.908 47.218h-4.432zm77.942 81.217h-91.268l-1.125-4.5h20.707a1.752 1.752 0 0 0 1.279-.555 23.54 23.54 0 0 1 17.126-7.445h15.293a23.542 23.542 0 0 1 17.127 7.45 1.751 1.751 0 0 0 1.279.555h20.707zm-18.838-8a27.054 27.054 0 0 0 -19.15-8h-15.293a27.052 27.052 0 0 0 -19.149 8h-28.061a73.383 73.383 0 0 1 9.534-22.5h90.646a73.408 73.408 0 0 1 9.534 22.5z"/><path d="m79 80.25h-30a1.75 1.75 0 0 0 0 3.5h30a1.75 1.75 0 0 0 0-3.5z"/></g></svg>