<?xml version="1.0" encoding="UTF-8"?>
<svg xmlns="http://www.w3.org/2000/svg" width="512" height="512" viewBox="0 0 128 128"><g><path d="M58.166,14.166a1.75,1.75,0,1,0,2.475,2.475,4.755,4.755,0,0,1,6.717,0,1.75,1.75,0,1,0,2.475-2.475A8.258,8.258,0,0,0,58.166,14.166Z"/><path d="M56.045,12.045a11.25,11.25,0,0,1,15.91,0A1.75,1.75,0,0,0,74.43,9.57a14.751,14.751,0,0,0-20.86,0,1.75,1.75,0,0,0,2.475,2.475Z"/><path d="M121,72H87a1.749,1.749,0,0,0-1.75,1.75V84h-5.5V66A1.749,1.749,0,0,0,78,64.25H72.75V57.435A29.8,29.8,0,0,0,93.75,29,1.749,1.749,0,0,0,92,27.25H65.75V19.98a1.75,1.75,0,0,0-3.5,0v7.27H36A1.75,1.75,0,0,0,34.25,29a29.8,29.8,0,0,0,21,28.435V64.25H50A1.75,1.75,0,0,0,48.25,66V84h-5.5V73.75A1.75,1.75,0,0,0,41,72H7a1.75,1.75,0,0,0-1.75,1.75v24A1.75,1.75,0,0,0,7,99.5H41a1.75,1.75,0,0,0,1.75-1.75V87.5h5.5V107a15.75,15.75,0,0,0,31.5,0V87.5h5.5V97.75A1.749,1.749,0,0,0,87,99.5h34a1.749,1.749,0,0,0,1.75-1.75v-24A1.749,1.749,0,0,0,121,72ZM39.25,84H25.75V75.5h13.5Zm-17-8.5V84H8.75V75.5Zm-13.5,12h13.5V96H8.75ZM39.25,96H25.75V87.5h13.5ZM37.808,30.75H90.192a26.25,26.25,0,0,1-52.384,0ZM58.75,58.277a29.372,29.372,0,0,0,10.5,0V64.25H58.75Zm17.5,9.473v36H51.75v-36ZM64,119.25a12.257,12.257,0,0,1-12.237-12H76.237A12.257,12.257,0,0,1,64,119.25ZM119.25,84h-13.5V75.5h13.5Zm-30.5-8.5h13.5V84H88.75Zm0,12h13.5V96H88.75Zm17,8.5V87.5h13.5V96Z"/></g></svg>
