<svg height="512" viewBox="0 0 128 128" width="512" xmlns="http://www.w3.org/2000/svg"><g><path d="m47 14.25a32.75 32.75 0 1 0 32.75 32.75 32.786 32.786 0 0 0 -32.75-32.75zm0 62a29.25 29.25 0 1 1 29.25-29.25 29.283 29.283 0 0 1 -29.25 29.25z"/><path d="m121.065 107.984-30.756-30.757a1.8 1.8 0 0 0 -2.475 0l-1.591 1.591-6.263-6.262a41.825 41.825 0 1 0 -7.425 7.424l6.263 6.263-1.591 1.591a1.751 1.751 0 0 0 0 2.475l30.757 30.757a5.758 5.758 0 0 0 8.132 0l4.949-4.95a5.748 5.748 0 0 0 0-8.132zm-74.065-22.734a38.25 38.25 0 1 1 38.25-38.25 38.293 38.293 0 0 1 -38.25 38.25zm28.241-7.534q1.288-1.185 2.475-2.475l6.052 6.052-2.475 2.475zm43.35 35.926-4.949 4.949a2.253 2.253 0 0 1 -3.183 0l-29.52-29.52 8.132-8.131 29.52 29.519a2.251 2.251 0 0 1 0 3.183z"/><path d="m64.817 45.484-25.447-14.692a1.75 1.75 0 0 0 -2.625 1.516v29.384a1.751 1.751 0 0 0 2.625 1.516l25.447-14.692a1.751 1.751 0 0 0 0-3.032zm-24.572 13.177v-23.322l20.197 11.661z"/></g></svg>