<?xml version="1.0" encoding="UTF-8"?>
<svg xmlns="http://www.w3.org/2000/svg" width="512" height="512" viewBox="0 0 128 128"><g><path d="M77.38,95.484,58.6,84.64a1.75,1.75,0,0,0-2.625,1.516v21.688A1.751,1.751,0,0,0,58.6,109.36L77.38,98.516a1.751,1.751,0,0,0,0-3.032Zm-17.907,9.329V89.187L73.005,97Z"/><path d="M109.75,27V11A5.757,5.757,0,0,0,104,5.25H24A5.757,5.757,0,0,0,18.25,11V27a5.76,5.76,0,0,0,4,5.476v6.048a5.76,5.76,0,0,0-4,5.476V60a5.76,5.76,0,0,0,4,5.476v6.048a5.76,5.76,0,0,0-4,5.476V93A5.757,5.757,0,0,0,24,98.75H38.316a25.743,25.743,0,0,0,51.368,0H104A5.757,5.757,0,0,0,109.75,93V77a5.76,5.76,0,0,0-4-5.476V65.476a5.76,5.76,0,0,0,4-5.476V44a5.76,5.76,0,0,0-4-5.476V32.476A5.76,5.76,0,0,0,109.75,27Zm-84,11.25v-5.5h76.5v5.5ZM21.75,11A2.253,2.253,0,0,1,24,8.75h80A2.253,2.253,0,0,1,106.25,11V27A2.253,2.253,0,0,1,104,29.25H24A2.253,2.253,0,0,1,21.75,27Zm4,60.25v-5.5h76.5v5.5ZM21.75,93V77A2.253,2.253,0,0,1,24,74.75H51.063a25.771,25.771,0,0,0-12.747,20.5H24A2.253,2.253,0,0,1,21.75,93ZM64,119.25A22.25,22.25,0,1,1,86.25,97,22.275,22.275,0,0,1,64,119.25ZM106.25,93A2.253,2.253,0,0,1,104,95.25H89.684a25.773,25.773,0,0,0-12.747-20.5H104A2.253,2.253,0,0,1,106.25,77Zm0-33A2.253,2.253,0,0,1,104,62.25H24A2.253,2.253,0,0,1,21.75,60V44A2.253,2.253,0,0,1,24,41.75h80A2.253,2.253,0,0,1,106.25,44Z"/><path d="M30,20.75h4a1.75,1.75,0,0,0,0-3.5H30a1.75,1.75,0,0,0,0,3.5Z"/><path d="M34,50.25H30a1.75,1.75,0,0,0,0,3.5h4a1.75,1.75,0,0,0,0-3.5Z"/><path d="M34,84.406H30a1.75,1.75,0,0,0,0,3.5h4a1.75,1.75,0,0,0,0-3.5Z"/><path d="M56,20.75H72a1.75,1.75,0,0,0,0-3.5H56a1.75,1.75,0,0,0,0,3.5Z"/><path d="M72,50.25H56a1.75,1.75,0,0,0,0,3.5H72a1.75,1.75,0,0,0,0-3.5Z"/></g></svg>
