<svg height="512" viewBox="0 0 128 128" width="512" xmlns="http://www.w3.org/2000/svg"><g><path d="m121 18.25h-114a1.751 1.751 0 0 0 -1.75 1.75v76a1.751 1.751 0 0 0 1.75 1.75h48.25v8.5h-15.25a1.75 1.75 0 0 0 0 3.5h48a1.75 1.75 0 0 0 0-3.5h-15.25v-8.5h48.25a1.751 1.751 0 0 0 1.75-1.75v-76a1.751 1.751 0 0 0 -1.75-1.75zm-51.75 88h-10.5v-8.5h10.5zm50-12h-110.5v-72.5h110.5z"/><path d="m14 90.75h100a1.751 1.751 0 0 0 1.75-1.75v-62a1.751 1.751 0 0 0 -1.75-1.75h-100a1.751 1.751 0 0 0 -1.75 1.75v62a1.751 1.751 0 0 0 1.75 1.75zm1.75-62h96.5v58.5h-96.5z"/><path d="m90.977 60.385-6.5-3.1-6.731-8.085a1.751 1.751 0 0 0 -1.6-.612c-6.714.976-10.234-2.881-12.009-6.287a4.02 4.02 0 0 0 -3-2.135 4.125 4.125 0 0 0 -3.536 1.178 52.014 52.014 0 0 0 -7.874 10.43l-2.749 4.76a1.752 1.752 0 0 0 .641 2.391l28.952 16.716a1.757 1.757 0 0 0 .875.235h15.054a1.751 1.751 0 0 0 1.75-1.75v-8.552a5.778 5.778 0 0 0 -3.273-5.189zm-15.312-8.211 6.366 7.641a1.733 1.733 0 0 0 .591.459l6.848 3.269a2.262 2.262 0 0 1 1.28 2.031v1.3h-11.362l-2.242-1.294v-3.344a11.77 11.77 0 0 0 -1.523-5.787l-2.4-4.235a16.735 16.735 0 0 0 2.442-.04zm-6.587 8.752-.036-2.554a11.738 11.738 0 0 0 -.4-2.9l-1.319-4.887a13.157 13.157 0 0 0 1.324.635l3.934 6.951a8.282 8.282 0 0 1 1.069 4.064v1.328zm-8.978-17.12a.6.6 0 0 1 .524-.175.543.543 0 0 1 .414.291 18.567 18.567 0 0 0 1.513 2.419l2.709 10.044a8.227 8.227 0 0 1 .283 2.034l.007.469-11.882-6.859a47.905 47.905 0 0 1 6.432-8.223zm30.65 28.57h-12.835l-27.024-15.6 1-1.73 26.155 15.1a1.756 1.756 0 0 0 .875.234h11.829z"/><path d="m43.25 57.413a1.751 1.751 0 0 0 -1.75-1.75h-6a1.75 1.75 0 0 0 0 3.5h6a1.751 1.751 0 0 0 1.75-1.75z"/><path d="m39.192 51.163h6a1.75 1.75 0 0 0 0-3.5h-6a1.75 1.75 0 1 0 0 3.5z"/><path d="m49.248 63.663h-6a1.75 1.75 0 0 0 0 3.5h6a1.75 1.75 0 1 0 0-3.5z"/></g></svg>