<?xml version="1.0" encoding="UTF-8"?>
<svg xmlns="http://www.w3.org/2000/svg" width="512" height="512" viewBox="0 0 128 128"><g><path d="M105.667,28.917H99a1.75,1.75,0,0,0,0,3.5h3.25V34a1.75,1.75,0,0,0,3.5,0V32.409a5.08,5.08,0,0,0-.083-10.159h-3.334a1.584,1.584,0,0,1,0-3.167H109a1.75,1.75,0,1,0,0-3.5h-3.25V14a1.75,1.75,0,0,0-3.5,0v1.591a5.08,5.08,0,0,0,.083,10.159h3.334a1.584,1.584,0,0,1,0,3.167Z"/><path d="M121,119.25H7a1.75,1.75,0,0,0,0,3.5H121a1.75,1.75,0,0,0,0-3.5Z"/><path d="M16,112.75H32A1.75,1.75,0,0,0,33.75,111V81A1.75,1.75,0,0,0,32,79.25H16A1.75,1.75,0,0,0,14.25,81v30A1.75,1.75,0,0,0,16,112.75Zm1.75-30h12.5v26.5H17.75Z"/><path d="M42.666,59.25A1.75,1.75,0,0,0,40.916,61v50a1.75,1.75,0,0,0,1.75,1.75h16a1.749,1.749,0,0,0,1.75-1.75V61a1.749,1.749,0,0,0-1.75-1.75Zm14.25,50h-12.5V62.75h12.5Z"/><path d="M96,49.25A1.749,1.749,0,0,0,94.25,51v60A1.749,1.749,0,0,0,96,112.75h16a1.749,1.749,0,0,0,1.75-1.75V51A1.749,1.749,0,0,0,112,49.25Zm14.25,60H97.75V52.75h12.5Z"/><path d="M69.333,69.25A1.749,1.749,0,0,0,67.583,71v40a1.749,1.749,0,0,0,1.75,1.75h16a1.749,1.749,0,0,0,1.75-1.75V71a1.749,1.749,0,0,0-1.75-1.75Zm14.25,40h-12.5V72.75h12.5Z"/><path d="M24,72.75A6.758,6.758,0,0,0,30.75,66a6.686,6.686,0,0,0-.489-2.508L46.508,51.306a6.721,6.721,0,0,0,9.639-1.381L70.616,55.35c-.021.214-.033.431-.033.65a6.75,6.75,0,1,0,12.263-3.881L93.4,39.452a18.758,18.758,0,1,0-2.69-2.24L80.157,49.878a6.71,6.71,0,0,0-8.3,2.2L57.383,46.65c.021-.214.033-.431.033-.65a6.75,6.75,0,1,0-13.011,2.508L28.158,60.694A6.746,6.746,0,1,0,24,72.75Zm80-64A15.25,15.25,0,1,1,88.75,24,15.267,15.267,0,0,1,104,8.75Zm-26.667,44A3.25,3.25,0,1,1,74.083,56,3.254,3.254,0,0,1,77.333,52.75Zm-26.667-10A3.25,3.25,0,1,1,47.416,46,3.254,3.254,0,0,1,50.666,42.75ZM24,62.75A3.25,3.25,0,1,1,20.75,66,3.254,3.254,0,0,1,24,62.75Z"/></g></svg>
