<?xml version="1.0" encoding="UTF-8"?>
<svg xmlns="http://www.w3.org/2000/svg" width="512" height="512" viewBox="0 0 128 128"><g><path d="M117,12.25H11A5.757,5.757,0,0,0,5.25,18V96A5.757,5.757,0,0,0,11,101.75H52.25v10.5H42a1.75,1.75,0,0,0,0,3.5H86a1.75,1.75,0,0,0,0-3.5H75.75v-10.5H117A5.757,5.757,0,0,0,122.75,96V18A5.757,5.757,0,0,0,117,12.25Zm-44.75,100H55.75v-10.5h16.5Zm47-16.25A2.253,2.253,0,0,1,117,98.25H11A2.252,2.252,0,0,1,8.75,96V18A2.252,2.252,0,0,1,11,15.75H117A2.253,2.253,0,0,1,119.25,18Z"/><path d="M114,19.25H14A1.751,1.751,0,0,0,12.25,21V85A1.751,1.751,0,0,0,14,86.75H114A1.75,1.75,0,0,0,115.75,85V21A1.75,1.75,0,0,0,114,19.25Zm-1.75,64H15.75V22.75h96.5Z"/><path d="M64,73.75A20.75,20.75,0,1,0,43.25,53,20.774,20.774,0,0,0,64,73.75Zm0-38A17.25,17.25,0,1,1,46.75,53,17.269,17.269,0,0,1,64,35.75Z"/><path d="M58.155,63.1a1.753,1.753,0,0,0,1.75,0l14.869-8.585a1.751,1.751,0,0,0,0-3.032L59.905,42.9a1.75,1.75,0,0,0-2.625,1.516v17.17A1.752,1.752,0,0,0,58.155,63.1ZM60.78,47.446,70.4,53,60.78,58.554Z"/></g></svg>
