<?xml version="1.0" encoding="UTF-8"?>
<svg xmlns="http://www.w3.org/2000/svg" width="512" height="512" viewBox="0 0 128 128"><g><path d="M115.617,94.477l-3.735-.554a14.141,14.141,0,1,0-19.764,0l-3.735.554a8.349,8.349,0,0,0-1.989.554,9.43,9.43,0,0,0-6.667-4.469l-4.9-.727a16.1,16.1,0,1,0-21.652,0l-4.9.727a9.43,9.43,0,0,0-6.667,4.469,8.349,8.349,0,0,0-1.989-.554l-3.735-.554a14.141,14.141,0,1,0-19.764,0l-3.735.554a8.407,8.407,0,0,0-7.133,8.268V121a1.75,1.75,0,0,0,3.5,0V102.745A4.887,4.887,0,0,1,12.9,97.939l7.536-1.118a14.1,14.1,0,0,0,11.136,0L39.1,97.939a4.838,4.838,0,0,1,1.281.381,9.257,9.257,0,0,0-.135,1.542V121a1.75,1.75,0,0,0,3.5,0V99.862a5.937,5.937,0,0,1,5.037-5.838L57.6,92.718a16.017,16.017,0,0,0,12.808,0l8.809,1.306a5.937,5.937,0,0,1,5.037,5.838V121a1.75,1.75,0,0,0,3.5,0V99.862a9.257,9.257,0,0,0-.135-1.542,4.838,4.838,0,0,1,1.281-.381l7.536-1.118a14.1,14.1,0,0,0,11.136,0l7.535,1.118a4.887,4.887,0,0,1,4.147,4.806V121a1.75,1.75,0,0,0,3.5,0V102.745A8.407,8.407,0,0,0,115.617,94.477ZM15.359,83.826A10.641,10.641,0,1,1,26,94.467,10.652,10.652,0,0,1,15.359,83.826ZM51.4,77.957A12.6,12.6,0,1,1,64,90.554,12.612,12.612,0,0,1,51.4,77.957Zm39.957,5.869A10.641,10.641,0,1,1,102,94.467,10.652,10.652,0,0,1,91.359,83.826Z"/><path d="M32,19.75h8a1.75,1.75,0,0,0,0-3.5H32a5.75,5.75,0,0,0,0,11.5h4a2.25,2.25,0,0,1,0,4.5H28a1.75,1.75,0,0,0,0,3.5h8a5.75,5.75,0,0,0,0-11.5H32a2.25,2.25,0,0,1,0-4.5Z"/><path d="M92,19.75h8a1.75,1.75,0,0,0,0-3.5H92a5.75,5.75,0,0,0,0,11.5h4a2.25,2.25,0,0,1,0,4.5H88a1.75,1.75,0,0,0,0,3.5h8a5.75,5.75,0,0,0,0-11.5H92a2.25,2.25,0,0,1,0-4.5Z"/><path d="M76,16.25H68A1.751,1.751,0,0,0,66.25,18V34A1.751,1.751,0,0,0,68,35.75h8A5.747,5.747,0,0,0,80.127,26,5.747,5.747,0,0,0,76,16.25Zm0,16H69.75v-4.5H76a2.25,2.25,0,0,1,0,4.5Zm0-8H69.75v-4.5H76a2.25,2.25,0,0,1,0,4.5Z"/><path d="M60,16.25A1.751,1.751,0,0,0,58.25,18V30A2.252,2.252,0,0,1,56,32.25H52A2.252,2.252,0,0,1,49.75,30V18a1.75,1.75,0,0,0-3.5,0V30A5.757,5.757,0,0,0,52,35.75h4A5.757,5.757,0,0,0,61.75,30V18A1.751,1.751,0,0,0,60,16.25Z"/><path d="M117,5.25H11A5.757,5.757,0,0,0,5.25,11V41A5.757,5.757,0,0,0,11,46.75H57.165l5.34,8.769a1.75,1.75,0,0,0,2.99,0l5.34-8.769H117A5.757,5.757,0,0,0,122.75,41V11A5.757,5.757,0,0,0,117,5.25ZM119.25,41A2.252,2.252,0,0,1,117,43.25H69.852a1.75,1.75,0,0,0-1.5.84L64,51.245,59.643,44.09a1.75,1.75,0,0,0-1.495-.84H11A2.252,2.252,0,0,1,8.75,41V11A2.252,2.252,0,0,1,11,8.75H117A2.252,2.252,0,0,1,119.25,11Z"/></g></svg>
