<?xml version="1.0" encoding="UTF-8"?>
<svg xmlns="http://www.w3.org/2000/svg" width="512" height="512" viewBox="0 0 128 128"><g><path d="M46.5,40.25h-5A6.758,6.758,0,0,0,34.75,47V62a1.75,1.75,0,0,0,3.5,0V53.75h11.5V62a1.75,1.75,0,0,0,3.5,0V47A6.758,6.758,0,0,0,46.5,40.25Zm-8.25,10V47a3.254,3.254,0,0,1,3.25-3.25h5A3.254,3.254,0,0,1,49.75,47v3.25Z"/><path d="M92.5,69.25H85.75V66a1.75,1.75,0,0,0-3.5,0v3.25H75.5a1.75,1.75,0,0,0,0,3.5h1.212a20.645,20.645,0,0,0,4.7,8.66A18.909,18.909,0,0,1,76,84.324a1.751,1.751,0,0,0,.5,3.427,1.731,1.731,0,0,0,.5-.074,22.677,22.677,0,0,0,7-3.85,22.677,22.677,0,0,0,7,3.85,1.729,1.729,0,0,0,.5.074,1.751,1.751,0,0,0,.5-3.427,18.909,18.909,0,0,1-5.42-2.914,20.645,20.645,0,0,0,4.7-8.66H92.5a1.75,1.75,0,0,0,0-3.5ZM84,79.025a17.21,17.21,0,0,1-3.633-6.275h7.266A17.21,17.21,0,0,1,84,79.025Z"/><path d="M122.139,98.671,109.75,88.052V56A5.757,5.757,0,0,0,104,50.25H69.75V32A5.757,5.757,0,0,0,64,26.25H7a1.75,1.75,0,0,0-1.139,3.079L18.25,39.948V72A5.757,5.757,0,0,0,24,77.75H58.25V96A5.757,5.757,0,0,0,64,101.75h57a1.75,1.75,0,0,0,1.139-3.079ZM21.75,72V39.143a1.747,1.747,0,0,0-.611-1.328L11.73,29.75H64A2.253,2.253,0,0,1,66.25,32V72A2.253,2.253,0,0,1,64,74.25H24A2.252,2.252,0,0,1,21.75,72ZM64,98.25A2.252,2.252,0,0,1,61.75,96V77.75H64A5.757,5.757,0,0,0,69.75,72V53.75H104A2.253,2.253,0,0,1,106.25,56V88.857a1.75,1.75,0,0,0,.611,1.328l9.408,8.065Z"/></g></svg>
