<?xml version="1.0" encoding="UTF-8"?>
<svg xmlns="http://www.w3.org/2000/svg" width="512" height="512" viewBox="0 0 128 128"><g><path d="M64,5.25A58.75,58.75,0,1,0,122.75,64,58.816,58.816,0,0,0,64,5.25Zm0,114A55.25,55.25,0,1,1,119.25,64,55.313,55.313,0,0,1,64,119.25Z"/><path d="M64,17.25A46.783,46.783,0,0,0,19.362,77.931a1.75,1.75,0,0,0,2.908.716L44.078,56.839,57.351,70.111a1.749,1.749,0,0,0,2.475,0l20.1-20.1a1.75,1.75,0,0,0,0-2.474L76.284,43.9H92.047V59.663l-3.638-3.638a1.8,1.8,0,0,0-2.474,0L58.588,83.369,45.315,70.1a1.748,1.748,0,0,0-2.474,0L25.279,87.659a1.749,1.749,0,0,0-.22,2.207A46.75,46.75,0,1,0,64,17.25Zm0,90A43.187,43.187,0,0,1,28.784,89.1L44.078,73.809,57.351,87.082a1.751,1.751,0,0,0,2.475,0L87.171,59.737l5.388,5.388a1.75,1.75,0,0,0,2.987-1.237V42.151A1.751,1.751,0,0,0,93.8,40.4H72.06a1.749,1.749,0,0,0-1.238,2.987l5.389,5.389L58.588,66.4,45.315,53.127a1.8,1.8,0,0,0-2.474,0L21.923,74.044A43.255,43.255,0,1,1,64,107.25Z"/></g></svg>
