<?xml version="1.0" encoding="UTF-8"?>
<svg xmlns="http://www.w3.org/2000/svg" width="512" height="512" viewBox="0 0 128 128"><g><path d="M121,18.25H7A1.749,1.749,0,0,0,5.25,20V96A1.749,1.749,0,0,0,7,97.75H55.25v8.5H40a1.75,1.75,0,0,0,0,3.5H88a1.75,1.75,0,0,0,0-3.5H72.75v-8.5H121A1.749,1.749,0,0,0,122.75,96V20A1.749,1.749,0,0,0,121,18.25Zm-51.75,88H58.75v-8.5h10.5Zm50-12H8.75V21.75h110.5Z"/><path d="M14,90.75H114A1.749,1.749,0,0,0,115.75,89V27A1.749,1.749,0,0,0,114,25.25H14A1.749,1.749,0,0,0,12.25,27V89A1.749,1.749,0,0,0,14,90.75Zm1.75-62h96.5v58.5H15.75Z"/><path d="M60,48.25H48a1.75,1.75,0,0,0,0,3.5h4.25V66a1.75,1.75,0,0,0,3.5,0V51.75H60a1.75,1.75,0,0,0,0-3.5Z"/><path d="M80,48.25A1.749,1.749,0,0,0,78.25,50v8.353L74,63.31l-4.25-4.957V50a1.75,1.75,0,0,0-3.5,0v9a1.75,1.75,0,0,0,.421,1.139l6,7a1.751,1.751,0,0,0,2.658,0l6-7A1.75,1.75,0,0,0,81.75,59V50A1.749,1.749,0,0,0,80,48.25Z"/></g></svg>
