<?xml version="1.0" encoding="UTF-8"?>
<svg xmlns="http://www.w3.org/2000/svg" width="512" height="512" viewBox="0 0 128 128"><g><path d="M117,5.25H11A5.757,5.757,0,0,0,5.25,11V117A5.757,5.757,0,0,0,11,122.75H117a5.757,5.757,0,0,0,5.75-5.75V11A5.757,5.757,0,0,0,117,5.25ZM119.25,117a2.252,2.252,0,0,1-2.25,2.25H11A2.252,2.252,0,0,1,8.75,117V11A2.252,2.252,0,0,1,11,8.75H117A2.252,2.252,0,0,1,119.25,11Z"/><path d="M39.667,28.75h8A1.751,1.751,0,0,0,49.417,27V15a1.751,1.751,0,0,0-1.75-1.75h-8A1.75,1.75,0,0,0,37.917,15V27A1.75,1.75,0,0,0,39.667,28.75Zm1.75-12h4.5v8.5h-4.5Z"/><path d="M27.333,13.25h-8A1.751,1.751,0,0,0,17.583,15V27a1.751,1.751,0,0,0,1.75,1.75h8A1.75,1.75,0,0,0,29.083,27V15A1.75,1.75,0,0,0,27.333,13.25Zm-1.75,12h-4.5v-8.5h4.5Z"/><path d="M88.333,13.25h-8A1.751,1.751,0,0,0,78.583,15V27a1.751,1.751,0,0,0,1.75,1.75h8A1.75,1.75,0,0,0,90.083,27V15A1.75,1.75,0,0,0,88.333,13.25Zm-1.75,12h-4.5v-8.5h4.5Z"/><path d="M60,28.75h8A1.751,1.751,0,0,0,69.75,27V15A1.751,1.751,0,0,0,68,13.25H60A1.751,1.751,0,0,0,58.25,15V27A1.751,1.751,0,0,0,60,28.75Zm1.75-12h4.5v8.5h-4.5Z"/><path d="M108.666,13.25h-8A1.75,1.75,0,0,0,98.917,15V27a1.75,1.75,0,0,0,1.749,1.75h8a1.75,1.75,0,0,0,1.75-1.75V15A1.75,1.75,0,0,0,108.666,13.25Zm-1.75,12h-4.5v-8.5h4.5Z"/><path d="M47.667,99.25h-8a1.75,1.75,0,0,0-1.75,1.75v12a1.75,1.75,0,0,0,1.75,1.75h8a1.751,1.751,0,0,0,1.75-1.75V101A1.751,1.751,0,0,0,47.667,99.25Zm-1.75,12h-4.5v-8.5h4.5Z"/><path d="M27.333,99.25h-8a1.751,1.751,0,0,0-1.75,1.75v12a1.751,1.751,0,0,0,1.75,1.75h8a1.75,1.75,0,0,0,1.75-1.75V101A1.75,1.75,0,0,0,27.333,99.25Zm-1.75,12h-4.5v-8.5h4.5Z"/><path d="M88.333,99.25h-8a1.751,1.751,0,0,0-1.75,1.75v12a1.751,1.751,0,0,0,1.75,1.75h8a1.75,1.75,0,0,0,1.75-1.75V101A1.75,1.75,0,0,0,88.333,99.25Zm-1.75,12h-4.5v-8.5h4.5Z"/><path d="M68,99.25H60A1.751,1.751,0,0,0,58.25,101v12A1.751,1.751,0,0,0,60,114.75h8A1.751,1.751,0,0,0,69.75,113V101A1.751,1.751,0,0,0,68,99.25Zm-1.75,12h-4.5v-8.5h4.5Z"/><path d="M108.666,99.25h-8A1.75,1.75,0,0,0,98.917,101v12a1.75,1.75,0,0,0,1.749,1.75h8a1.75,1.75,0,0,0,1.75-1.75V101A1.75,1.75,0,0,0,108.666,99.25Zm-1.75,12h-4.5v-8.5h4.5Z"/><path d="M38.25,64A25.75,25.75,0,1,0,64,38.25,25.779,25.779,0,0,0,38.25,64Zm48,0A22.25,22.25,0,1,1,64,41.75,22.275,22.275,0,0,1,86.25,64Z"/><path d="M56.848,51.64a1.75,1.75,0,0,0-.875,1.516V74.844A1.751,1.751,0,0,0,58.6,76.36L77.38,65.516a1.751,1.751,0,0,0,0-3.032L58.6,51.64A1.753,1.753,0,0,0,56.848,51.64Zm2.625,4.547L73.005,64,59.473,71.813Z"/></g></svg>
