<?xml version="1.0" encoding="UTF-8"?>
<svg xmlns="http://www.w3.org/2000/svg" width="512" height="512" viewBox="0 0 128 128"><g><path d="M31,57.75A17.75,17.75,0,1,0,13.25,40,17.77,17.77,0,0,0,31,57.75Zm0-32A14.25,14.25,0,1,1,16.75,40,14.267,14.267,0,0,1,31,25.75Z"/><path d="M122.5,49.1l-6-10a1.75,1.75,0,0,0-1.5-.85H56.684A25.746,25.746,0,1,0,11.25,56.5V108A5.757,5.757,0,0,0,17,113.75H45A5.757,5.757,0,0,0,50.75,108V93.75H115a1.75,1.75,0,0,0,1.5-.85l6-10a1.751,1.751,0,0,0,.249-.9V50A1.751,1.751,0,0,0,122.5,49.1ZM104.75,76.6V55.4l14.5-3.222V79.819ZM31,17.75A22.25,22.25,0,1,1,8.75,40,22.275,22.275,0,0,1,31,17.75Zm19.75,46H87a2.25,2.25,0,0,1,0,4.5H50.75ZM45,110.25H17A2.253,2.253,0,0,1,14.75,108V59.957a25.688,25.688,0,0,0,32.5,0V108A2.253,2.253,0,0,1,45,110.25Zm69.009-20H50.75V71.75H87a5.75,5.75,0,0,0,0-11.5H50.75V56.5a25.632,25.632,0,0,0,5.934-14.75h57.325l4.241,7.069-15.63,3.473A1.749,1.749,0,0,0,101.25,54V78a1.749,1.749,0,0,0,1.37,1.708l15.63,3.473Z"/><path d="M31,84.25A7.75,7.75,0,1,0,38.75,92,7.759,7.759,0,0,0,31,84.25Zm0,12A4.25,4.25,0,1,1,35.25,92,4.255,4.255,0,0,1,31,96.25Z"/></g></svg>
