<svg height="512" viewBox="0 0 128 128" width="512" xmlns="http://www.w3.org/2000/svg"><g><path d="m61.915 76.667q1.03.082 2.054.081a25.7 25.7 0 1 0 -2.054-.081zm-13.648-41.4a22.264 22.264 0 0 1 15.766-6.515q.885 0 1.777.07a22.257 22.257 0 1 1 -17.543 6.445z"/><path d="m56.848 63.36a1.753 1.753 0 0 0 1.75 0l18.782-10.844a1.751 1.751 0 0 0 0-3.032l-18.78-10.844a1.75 1.75 0 0 0 -2.625 1.516v21.688a1.752 1.752 0 0 0 .873 1.516zm2.625-20.173 13.532 7.813-13.532 7.813z"/><path d="m117 5.25h-106a5.757 5.757 0 0 0 -5.75 5.75v106a5.757 5.757 0 0 0 5.75 5.75h106a5.757 5.757 0 0 0 5.75-5.75v-106a5.757 5.757 0 0 0 -5.75-5.75zm-106 3.5h106a2.253 2.253 0 0 1 2.25 2.25v82.25h-110.5v-82.25a2.253 2.253 0 0 1 2.25-2.25zm106 110.5h-106a2.253 2.253 0 0 1 -2.25-2.25v-20.25h110.5v20.25a2.253 2.253 0 0 1 -2.25 2.25z"/><path d="m104 106.25h-34.523a5.753 5.753 0 0 0 -10.957 0h-34.52a1.75 1.75 0 0 0 0 3.5h34.523a5.767 5.767 0 0 0 4.579 3.931 6.064 6.064 0 0 0 .907.07 5.763 5.763 0 0 0 5.471-4h34.52a1.75 1.75 0 0 0 0-3.5zm-38.409 3.341a2.25 2.25 0 1 1 -1.586-3.84 2.457 2.457 0 0 1 .361.027 2.265 2.265 0 0 1 1.856 1.854 2.262 2.262 0 0 1 -.631 1.959z"/></g></svg>