<?xml version="1.0" encoding="UTF-8"?>
<svg xmlns="http://www.w3.org/2000/svg" width="512" height="512" viewBox="0 0 128 128"><g><path d="M46,69.75h6a1.75,1.75,0,0,0,0-3.5H46A5.757,5.757,0,0,0,40.25,72v8A5.757,5.757,0,0,0,46,85.75h6a1.75,1.75,0,0,0,0-3.5H46A2.253,2.253,0,0,1,43.75,80V77.75H52a1.75,1.75,0,0,0,0-3.5H43.75V72A2.252,2.252,0,0,1,46,69.75Z"/><path d="M64,69.75h8a1.75,1.75,0,0,0,0-3.5H64A5.757,5.757,0,0,0,58.25,72v8A5.757,5.757,0,0,0,64,85.75h8a1.75,1.75,0,0,0,0-3.5H64A2.252,2.252,0,0,1,61.75,80V72A2.252,2.252,0,0,1,64,69.75Z"/><path d="M35.75,72A5.757,5.757,0,0,0,30,66.25H22A1.751,1.751,0,0,0,20.25,68V84a1.75,1.75,0,0,0,3.5,0V77.75h5.168l3.517,7.033a1.75,1.75,0,0,0,3.13-1.566l-3.031-6.063A5.753,5.753,0,0,0,35.75,72Zm-12-2.25H30a2.25,2.25,0,0,1,0,4.5H23.75Z"/><path d="M121.971,47.544a1.753,1.753,0,0,0-1.644-.159L96.651,57.25h-7.9V53A5.757,5.757,0,0,0,83,47.25H69.75V41A8.259,8.259,0,0,1,78,32.75h7.457a7.757,7.757,0,0,0,7.543,6h22a7.75,7.75,0,0,0,0-15.5H93a7.757,7.757,0,0,0-7.543,6H78A11.763,11.763,0,0,0,66.25,41v6.25H56.934l-1.718-8.593A1.751,1.751,0,0,0,53.5,37.25h-32a1.751,1.751,0,0,0-1.716,1.407L18.066,47.25H11A5.757,5.757,0,0,0,5.25,53V99A5.757,5.757,0,0,0,11,104.75H83A5.757,5.757,0,0,0,88.75,99V94.75h7.9l23.676,9.865a1.732,1.732,0,0,0,.673.135,1.75,1.75,0,0,0,1.75-1.75V49A1.752,1.752,0,0,0,121.971,47.544ZM93,26.75h22a4.25,4.25,0,0,1,0,8.5H93a4.25,4.25,0,0,1,0-8.5Zm-70.065,14h29.13l1.3,6.5H21.635ZM85.25,99A2.252,2.252,0,0,1,83,101.25H11A2.252,2.252,0,0,1,8.75,99V53A2.252,2.252,0,0,1,11,50.75H83A2.252,2.252,0,0,1,85.25,53Zm3.5-38.25h6.5v30.5h-6.5Zm30.5,39.625-20.5-8.541V60.166l20.5-8.541Z"/></g></svg>
