<svg height="512" viewBox="0 0 128 128" width="512" xmlns="http://www.w3.org/2000/svg"><g><path d="m78.943 71.117-21.13-12.2a1.75 1.75 0 0 0 -2.625 1.516v24.4a1.751 1.751 0 0 0 2.625 1.516l21.13-12.2a1.75 1.75 0 0 0 0-3.031zm-20.255 10.683v-18.336l15.88 9.168z"/><path d="m64 43.882a28.75 28.75 0 1 0 28.75 28.75 28.782 28.782 0 0 0 -28.75-28.75zm0 54a25.25 25.25 0 1 1 25.25-25.25 25.278 25.278 0 0 1 -25.25 25.25z"/><path d="m122.558 71.834a65.775 65.775 0 0 0 -117.116 0 1.754 1.754 0 0 0 0 1.6 65.775 65.775 0 0 0 117.116 0 1.754 1.754 0 0 0 0-1.6zm-58.558 33.916a62.032 62.032 0 0 1 -55.027-33.117 62.274 62.274 0 0 1 110.054 0 62.035 62.035 0 0 1 -55.027 33.117z"/><path d="m64 30.515a1.751 1.751 0 0 0 1.75-1.75v-8.265a1.75 1.75 0 0 0 -3.5 0v8.265a1.751 1.751 0 0 0 1.75 1.75z"/><path d="m44.642 31.356a1.751 1.751 0 0 0 1.7 1.328 1.73 1.73 0 0 0 .425-.053 1.75 1.75 0 0 0 1.275-2.121l-1-4.009a1.75 1.75 0 0 0 -3.4.846z"/><path d="m28.184 38.131a1.75 1.75 0 1 0 3.09-1.643l-3.88-7.3a1.75 1.75 0 0 0 -3.09 1.644z"/><path d="m13.853 48.686a1.75 1.75 0 0 0 2.6-2.342l-2.765-3.071a1.75 1.75 0 0 0 -2.6 2.342z"/><path d="m81.237 32.631a1.724 1.724 0 0 0 .425.053 1.751 1.751 0 0 0 1.7-1.328l1-4.009a1.75 1.75 0 0 0 -3.4-.846l-1 4.009a1.749 1.749 0 0 0 1.275 2.121z"/><path d="m112.846 49.265a1.743 1.743 0 0 0 1.3-.579l2.766-3.071a1.75 1.75 0 0 0 -2.6-2.342l-2.765 3.071a1.75 1.75 0 0 0 1.3 2.921z"/><path d="m97.449 38.855a1.75 1.75 0 0 0 2.367-.724l3.88-7.3a1.75 1.75 0 0 0 -3.09-1.644l-3.88 7.3a1.75 1.75 0 0 0 .723 2.368z"/></g></svg>