<?xml version="1.0" encoding="UTF-8"?>
<svg xmlns="http://www.w3.org/2000/svg" width="512" height="512" viewBox="0 0 128 128"><g><path d="M76,56.417h6a1.75,1.75,0,0,0,0-3.5H76a5.756,5.756,0,0,0-5.75,5.75v8A5.757,5.757,0,0,0,76,72.417h6a1.75,1.75,0,0,0,0-3.5H76a2.253,2.253,0,0,1-2.25-2.25v-2.25H82a1.75,1.75,0,0,0,0-3.5H73.75v-2.25A2.253,2.253,0,0,1,76,56.417Z"/><path d="M94,56.417h8a1.75,1.75,0,0,0,0-3.5H94a5.756,5.756,0,0,0-5.75,5.75v8A5.757,5.757,0,0,0,94,72.417h8a1.75,1.75,0,0,0,0-3.5H94a2.253,2.253,0,0,1-2.25-2.25v-8A2.253,2.253,0,0,1,94,56.417Z"/><path d="M65.75,58.667A5.756,5.756,0,0,0,60,52.917H52a1.749,1.749,0,0,0-1.75,1.75v16a1.75,1.75,0,0,0,3.5,0v-6.25h5.168l3.517,7.032a1.75,1.75,0,1,0,3.13-1.565L62.534,63.82A5.75,5.75,0,0,0,65.75,58.667Zm-12-2.25H60a2.25,2.25,0,0,1,0,4.5H53.75Z"/><path d="M38,46.25H30A5.757,5.757,0,0,0,24.25,52V68A5.757,5.757,0,0,0,30,73.75h2.25v4.5H30a1.75,1.75,0,0,0,0,3.5h8a1.75,1.75,0,0,0,0-3.5H35.75v-4.5H38A5.757,5.757,0,0,0,43.75,68V52A5.757,5.757,0,0,0,38,46.25Zm-8,3.5h8A2.253,2.253,0,0,1,40.25,52v6.25H27.75V52A2.253,2.253,0,0,1,30,49.75Zm8,20.5H30A2.253,2.253,0,0,1,27.75,68V61.75h12.5V68A2.253,2.253,0,0,1,38,70.25Z"/><path d="M117,36.25H11A5.757,5.757,0,0,0,5.25,42V86A5.757,5.757,0,0,0,11,91.75H117A5.757,5.757,0,0,0,122.75,86V42A5.757,5.757,0,0,0,117,36.25ZM119.25,86A2.253,2.253,0,0,1,117,88.25H11A2.253,2.253,0,0,1,8.75,86V42A2.253,2.253,0,0,1,11,39.75H117A2.253,2.253,0,0,1,119.25,42Z"/></g></svg>
