<?xml version="1.0" encoding="UTF-8"?>
<svg xmlns="http://www.w3.org/2000/svg" width="512" height="512" viewBox="0 0 128 128"><g><path d="M112,5.25H16A5.757,5.757,0,0,0,10.25,11V79A5.757,5.757,0,0,0,16,84.75H54.25v12.5H31A1.751,1.751,0,0,0,29.25,99v18A5.757,5.757,0,0,0,35,122.75H93A5.757,5.757,0,0,0,98.75,117V99A1.75,1.75,0,0,0,97,97.25H73.75V84.75H112A5.757,5.757,0,0,0,117.75,79V11A5.757,5.757,0,0,0,112,5.25Zm-62.25,95.5h28.5v7.5H49.75ZM95.25,117A2.253,2.253,0,0,1,93,119.25H35A2.252,2.252,0,0,1,32.75,117V100.75h13.5V110A1.751,1.751,0,0,0,48,111.75H80A1.75,1.75,0,0,0,81.75,110v-9.25h13.5Zm-25-19.75H57.75V84.75h12.5Zm44-18.25A2.253,2.253,0,0,1,112,81.25H16A2.252,2.252,0,0,1,13.75,79V11A2.252,2.252,0,0,1,16,8.75h96A2.253,2.253,0,0,1,114.25,11Z"/><path d="M64,17.25A27.75,27.75,0,1,0,91.75,45,27.782,27.782,0,0,0,64,17.25Zm0,52A24.25,24.25,0,1,1,88.25,45,24.277,24.277,0,0,1,64,69.25Z"/><path d="M64,24.75A20.25,20.25,0,1,0,84.25,45,20.273,20.273,0,0,0,64,24.75Zm0,37A16.75,16.75,0,1,1,80.75,45,16.769,16.769,0,0,1,64,61.75Z"/><path d="M64,36.75A8.25,8.25,0,1,0,72.25,45,8.259,8.259,0,0,0,64,36.75Zm0,13A4.75,4.75,0,1,1,68.75,45,4.756,4.756,0,0,1,64,49.75Z"/></g></svg>
