<?xml version="1.0" encoding="UTF-8"?>
<svg xmlns="http://www.w3.org/2000/svg" width="512" height="512" viewBox="0 0 128 128"><g><path d="M117,17.292h-1.25V12.458a5.256,5.256,0,0,0-5.25-5.25H78.156a5.256,5.256,0,0,0-5.25,5.25v4.834H11a5.757,5.757,0,0,0-5.75,5.75v78a5.757,5.757,0,0,0,5.75,5.75H52.25v10.5H42a1.75,1.75,0,0,0,0,3.5H86a1.75,1.75,0,0,0,0-3.5H75.75v-10.5H117a5.757,5.757,0,0,0,5.75-5.75v-78A5.757,5.757,0,0,0,117,17.292ZM48,67.422a8.685,8.685,0,1,1,8.685-8.685A8.695,8.695,0,0,1,48,67.422Zm-4.728,2.545a12.181,12.181,0,0,0,9.456,0L59,70.9a3.836,3.836,0,0,1,3.255,3.773V88.292H33.75V74.669A3.836,3.836,0,0,1,37.006,70.9Zm16.236-2.534-2.619-.389a12.185,12.185,0,1,0-17.778,0l-2.618.389a7.358,7.358,0,0,0-6.243,7.236V88.292H15.75v-60.5H72.906V38.364l-10.045,8.61A1.75,1.75,0,0,0,64,50.053h46.6a5.08,5.08,0,0,0,1.65-.3V88.292H65.75V74.669A7.358,7.358,0,0,0,59.508,67.433Zm16.9-28.264V12.458a1.752,1.752,0,0,1,1.75-1.75H110.5a1.752,1.752,0,0,1,1.75,1.75V44.9a1.652,1.652,0,0,1-1.65,1.651H68.73L75.794,40.5A1.748,1.748,0,0,0,76.406,39.169ZM72.25,117.292H55.75v-10.5h16.5Zm47-16.25a2.253,2.253,0,0,1-2.25,2.25H11a2.253,2.253,0,0,1-2.25-2.25v-78A2.253,2.253,0,0,1,11,20.792H72.906v3.5H14a1.75,1.75,0,0,0-1.75,1.75v64A1.75,1.75,0,0,0,14,91.792H114a1.75,1.75,0,0,0,1.75-1.75V20.792H117a2.253,2.253,0,0,1,2.25,2.25Z"/><path d="M88.483,38.73a1.746,1.746,0,0,0,1.75,0l14.87-8.583a1.751,1.751,0,0,0,0-3.032L90.233,18.53a1.75,1.75,0,0,0-2.625,1.516V37.215A1.75,1.75,0,0,0,88.483,38.73Zm2.625-15.653,9.62,5.554-9.62,5.553Z"/></g></svg>
