<svg height="512" viewBox="0 0 128 128" width="512" xmlns="http://www.w3.org/2000/svg"><path d="m64 5.25a58.75 58.75 0 1 0 58.75 58.75 58.816 58.816 0 0 0 -58.75-58.75zm53.614 45.42-5.331 5.33a5.641 5.641 0 1 1 -7.977-7.978l8.968-8.968a54.809 54.809 0 0 1 4.34 11.616zm-18.042-28.9-15.63 15.63a6.181 6.181 0 0 1 -4.4 1.824 6.181 6.181 0 0 1 -4.4-1.825 9.736 9.736 0 0 0 -13.752 0l-6.533 6.533a3.915 3.915 0 0 1 -5.538-5.532l28.011-28.014a55.118 55.118 0 0 1 22.242 11.385zm-89.187 55.559 20.4-20.395a5.64 5.64 0 1 1 7.976 7.976l-6.595 6.6a10.956 10.956 0 0 0 15.492 15.49l26.448-26.449a6.725 6.725 0 1 1 9.511 9.509l-18.425 18.425a6.923 6.923 0 0 0 0 9.779 3.415 3.415 0 0 1 0 4.829l-14.522 14.521a55.436 55.436 0 0 1 -40.285-40.285zm53.615 41.921a55.29 55.29 0 0 1 -9.23-.786l12.9-12.9a6.912 6.912 0 0 0 0-9.778 3.419 3.419 0 0 1 0-4.829l18.421-18.422a10.224 10.224 0 1 0 -14.459-14.459l-26.449 26.449a7.456 7.456 0 0 1 -10.545-10.545l6.6-6.595a9.14 9.14 0 1 0 -12.93-12.926l-18.772 18.771a55.2 55.2 0 0 1 63.694-63.694l-26.386 26.385a7.414 7.414 0 0 0 10.486 10.485l6.532-6.532a6.232 6.232 0 0 1 8.8 0 9.736 9.736 0 0 0 13.752 0l15.758-15.758a55.624 55.624 0 0 1 9.346 11.744l-9.69 9.689a9.141 9.141 0 0 0 12.927 12.927l3.706-3.707a55.2 55.2 0 0 1 -54.461 64.481z"/></svg>