<?xml version="1.0" encoding="UTF-8"?>
<svg xmlns="http://www.w3.org/2000/svg" width="512" height="512" viewBox="0 0 128 128"><g><path d="M115,76.05a7.757,7.757,0,0,0-7.543,6H98.75v-9.7H109a1.75,1.75,0,0,0,0-3.5H98.75v-9.7H109a1.75,1.75,0,0,0,0-3.5H98.75v-9.7h8.707a7.75,7.75,0,1,0,0-3.5H98.75V35A5.757,5.757,0,0,0,93,29.25H85.55V20.543a7.75,7.75,0,1,0-3.5,0V29.25h-9.7V19a1.75,1.75,0,0,0-3.5,0V29.25h-9.7V19a1.75,1.75,0,0,0-3.5,0V29.25h-9.7V20.543a7.75,7.75,0,1,0-3.5,0V29.25H35A5.757,5.757,0,0,0,29.25,35v7.45H20.543a7.75,7.75,0,1,0,0,3.5H29.25v9.7H19a1.75,1.75,0,0,0,0,3.5H29.25v9.7H19a1.75,1.75,0,0,0,0,3.5H29.25v9.7H20.543a7.75,7.75,0,1,0,0,3.5H29.25V93A5.757,5.757,0,0,0,35,98.75h7.45v8.707a7.75,7.75,0,1,0,3.5,0V98.75h9.7V109a1.75,1.75,0,0,0,3.5,0V98.75h9.7V109a1.75,1.75,0,0,0,3.5,0V98.75h9.7v8.707a7.75,7.75,0,1,0,3.5,0V98.75H93A5.757,5.757,0,0,0,98.75,93V85.55h8.707A7.747,7.747,0,1,0,115,76.05Zm0-36.1a4.25,4.25,0,1,1-4.25,4.25A4.255,4.255,0,0,1,115,39.95ZM79.55,13a4.25,4.25,0,1,1,4.25,4.25A4.255,4.255,0,0,1,79.55,13Zm-39.6,0a4.25,4.25,0,1,1,4.25,4.25A4.255,4.255,0,0,1,39.95,13ZM13,48.45a4.25,4.25,0,1,1,4.25-4.25A4.255,4.255,0,0,1,13,48.45Zm0,39.6a4.25,4.25,0,1,1,4.25-4.25A4.255,4.255,0,0,1,13,88.05ZM48.45,115a4.25,4.25,0,1,1-4.25-4.25A4.255,4.255,0,0,1,48.45,115Zm39.6,0a4.25,4.25,0,1,1-4.25-4.25A4.255,4.255,0,0,1,88.05,115Zm7.2-22A2.253,2.253,0,0,1,93,95.25H35A2.253,2.253,0,0,1,32.75,93V35A2.253,2.253,0,0,1,35,32.75H93A2.253,2.253,0,0,1,95.25,35ZM115,88.05a4.25,4.25,0,1,1,4.25-4.25A4.255,4.255,0,0,1,115,88.05Z"/><path d="M87,39.25H41A1.75,1.75,0,0,0,39.25,41V87A1.75,1.75,0,0,0,41,88.75H87A1.75,1.75,0,0,0,88.75,87V41A1.75,1.75,0,0,0,87,39.25Zm-1.75,46H42.75V42.75h42.5Z"/><path d="M54,73.75A1.75,1.75,0,0,0,55.75,72V65.75h8.5V72a1.75,1.75,0,0,0,3.5,0V60A5.757,5.757,0,0,0,62,54.25H58A5.757,5.757,0,0,0,52.25,60V72A1.75,1.75,0,0,0,54,73.75Zm4-16h4A2.253,2.253,0,0,1,64.25,60v2.25h-8.5V60A2.253,2.253,0,0,1,58,57.75Z"/><path d="M74,73.75A1.75,1.75,0,0,0,75.75,72V56a1.75,1.75,0,0,0-3.5,0V72A1.75,1.75,0,0,0,74,73.75Z"/></g></svg>
