<svg height="512" viewBox="0 0 128 128" width="512" xmlns="http://www.w3.org/2000/svg"><g><path d="m92 5.25h-56a5.757 5.757 0 0 0 -5.75 5.75v106a5.757 5.757 0 0 0 5.75 5.75h56a5.757 5.757 0 0 0 5.75-5.75v-106a5.757 5.757 0 0 0 -5.75-5.75zm-56 3.5h56a2.252 2.252 0 0 1 2.25 2.25v6.25h-60.5v-6.25a2.252 2.252 0 0 1 2.25-2.25zm58.25 12v86.5h-60.5v-86.5zm-2.25 98.5h-56a2.252 2.252 0 0 1 -2.25-2.25v-6.25h60.5v6.25a2.252 2.252 0 0 1 -2.25 2.25z"/><path d="m61 14.75h6a1.75 1.75 0 0 0 0-3.5h-6a1.75 1.75 0 0 0 0 3.5z"/><path d="m43.333 60.8h14a3.754 3.754 0 0 0 3.75-3.75v-20a3.754 3.754 0 0 0 -3.75-3.75h-14a3.755 3.755 0 0 0 -3.75 3.75v20a3.755 3.755 0 0 0 3.75 3.75zm-.25-23.75a.251.251 0 0 1 .25-.25h14a.25.25 0 0 1 .25.25v20a.251.251 0 0 1 -.25.25h-14a.251.251 0 0 1 -.25-.25z"/><path d="m70.666 60.8h14a3.754 3.754 0 0 0 3.75-3.75v-20a3.754 3.754 0 0 0 -3.75-3.75h-14a3.755 3.755 0 0 0 -3.75 3.75v20a3.755 3.755 0 0 0 3.75 3.75zm-.25-23.75a.251.251 0 0 1 .25-.25h14a.25.25 0 0 1 .25.25v20a.251.251 0 0 1 -.25.25h-14a.251.251 0 0 1 -.25-.25z"/><path d="m43.333 94.136h14a3.754 3.754 0 0 0 3.75-3.75v-20a3.754 3.754 0 0 0 -3.75-3.75h-14a3.755 3.755 0 0 0 -3.75 3.75v20a3.755 3.755 0 0 0 3.75 3.75zm-.25-23.75a.251.251 0 0 1 .25-.25h14a.25.25 0 0 1 .25.25v20a.25.25 0 0 1 -.25.25h-14a.251.251 0 0 1 -.25-.25z"/><path d="m70.666 94.136h14a3.754 3.754 0 0 0 3.75-3.75v-20a3.754 3.754 0 0 0 -3.75-3.75h-14a3.755 3.755 0 0 0 -3.75 3.75v20a3.755 3.755 0 0 0 3.75 3.75zm-.25-23.75a.251.251 0 0 1 .25-.25h14a.25.25 0 0 1 .25.25v20a.25.25 0 0 1 -.25.25h-14a.251.251 0 0 1 -.25-.25z"/></g></svg>