<?xml version="1.0" encoding="UTF-8"?>
<svg xmlns="http://www.w3.org/2000/svg" width="512" height="512" viewBox="0 0 128 128"><g><path d="M89,56.25H39A1.749,1.749,0,0,0,37.25,58V90A1.749,1.749,0,0,0,39,91.75H89A1.749,1.749,0,0,0,90.75,90V58A1.749,1.749,0,0,0,89,56.25Zm-1.75,32H40.75V59.75h46.5Z"/><path d="M117,12.25H11A5.756,5.756,0,0,0,5.25,18v92A5.756,5.756,0,0,0,11,115.75H117a5.756,5.756,0,0,0,5.75-5.75V18A5.756,5.756,0,0,0,117,12.25ZM11,15.75H117A2.253,2.253,0,0,1,119.25,18V32.25H8.75V18A2.253,2.253,0,0,1,11,15.75Zm106,96.5H11A2.253,2.253,0,0,1,8.75,110V35.75h110.5V110A2.253,2.253,0,0,1,117,112.25Z"/><circle cx="17" cy="24" r="2.25"/><circle cx="27.5" cy="24" r="2.25"/><circle cx="38" cy="24" r="2.25"/><path d="M51,81.75A1.749,1.749,0,0,0,52.75,80V75.75h5.5V80a1.75,1.75,0,0,0,3.5,0V71A4.756,4.756,0,0,0,57,66.25H54A4.756,4.756,0,0,0,49.25,71v9A1.749,1.749,0,0,0,51,81.75Zm3-12h3A1.251,1.251,0,0,1,58.25,71v1.25h-5.5V71A1.25,1.25,0,0,1,54,69.75Z"/><path d="M74,78.25H68a1.75,1.75,0,0,0,0,3.5h6a4.75,4.75,0,0,0,0-9.5H71a1.25,1.25,0,0,1,0-2.5h6a1.75,1.75,0,0,0,0-3.5H71a4.75,4.75,0,0,0,0,9.5h3a1.25,1.25,0,0,1,0,2.5Z"/></g></svg>
