<svg height="512" viewBox="0 0 128 128" width="512" xmlns="http://www.w3.org/2000/svg"><g><path d="m64 5.25a58.75 58.75 0 1 0 58.75 58.75 58.816 58.816 0 0 0 -58.75-58.75zm55.206 57h-26.3v-4.724a4.749 4.749 0 0 0 -3-4.406v-4.766a4.751 4.751 0 0 0 3-4.407v-11.727a58.866 58.866 0 0 0 10.138-7.272 55.076 55.076 0 0 1 16.162 37.302zm-55.206 57c-5.753 0-11.5-6.493-15.606-17.5h31.212c-4.106 11.007-9.853 17.5-15.606 17.5zm-24.158-21a1.25 1.25 0 0 1 -1.25-1.25v-12.947a1.25 1.25 0 0 1 1.25-1.25h48.316a1.25 1.25 0 0 1 1.25 1.25v12.947a1.25 1.25 0 0 1 -1.25 1.25zm24.158-89.5c5.753 0 11.5 6.493 15.606 17.5h-31.212c4.106-11.007 9.853-17.5 15.606-17.5zm24.158 21a1.25 1.25 0 0 1 1.25 1.25v12.947a1.25 1.25 0 0 1 -1.25 1.25h-48.316a1.25 1.25 0 0 1 -1.25-1.25v-12.947a1.25 1.25 0 0 1 1.25-1.25zm1.25 27.776v12.948a1.251 1.251 0 0 1 -1.25 1.25h-48.316a1.251 1.251 0 0 1 -1.25-1.25v-12.948a1.251 1.251 0 0 1 1.25-1.25h48.316a1.251 1.251 0 0 1 1.25 1.25zm-47.816 21.774v-4.076h44.816v4.076zm44.816-30.6v4.079h-44.816v-4.079zm14.066-26.144a55.467 55.467 0 0 1 -8.256 6.017 4.738 4.738 0 0 0 -4.06-2.32h-4.841c-2.617-7.424-5.937-13.086-9.681-16.644a55.064 55.064 0 0 1 26.838 12.944zm-55.791 3.7h-4.841a4.738 4.738 0 0 0 -4.06 2.32 55.528 55.528 0 0 1 -8.257-6.017 55.072 55.072 0 0 1 26.839-12.95c-3.744 3.558-7.064 9.22-9.681 16.641zm-19.729-1.3a58.866 58.866 0 0 0 10.138 7.264v11.727a4.751 4.751 0 0 0 3 4.407v4.766a4.749 4.749 0 0 0 -3 4.406v4.724h-26.298a55.076 55.076 0 0 1 16.16-37.302zm-16.16 40.794h26.3v4.724a4.749 4.749 0 0 0 3 4.406v4.766a4.751 4.751 0 0 0 -3 4.407v11.727a58.866 58.866 0 0 0 -10.138 7.272 55.076 55.076 0 0 1 -16.162-37.302zm18.731 39.7a55.528 55.528 0 0 1 8.257-6.017 4.738 4.738 0 0 0 4.06 2.32h4.841c2.617 7.421 5.937 13.083 9.681 16.641a55.072 55.072 0 0 1 -26.839-12.947zm55.792-3.7h4.841a4.735 4.735 0 0 0 4.059-2.32 55.424 55.424 0 0 1 8.257 6.017 55.064 55.064 0 0 1 -26.838 12.944c3.744-3.558 7.064-9.22 9.681-16.641zm19.729 1.3a58.866 58.866 0 0 0 -10.138-7.27v-11.727a4.751 4.751 0 0 0 -3-4.407v-4.766a4.749 4.749 0 0 0 3-4.406v-4.724h26.3a55.076 55.076 0 0 1 -16.162 37.302z"/><path d="m46.842 41.224a1.75 1.75 0 0 0 1.75-1.75v-4a1.75 1.75 0 0 0 -3.5 0v4a1.75 1.75 0 0 0 1.75 1.75z"/><path d="m54.842 41.224a1.75 1.75 0 0 0 1.75-1.75v-4a1.75 1.75 0 0 0 -3.5 0v4a1.75 1.75 0 0 0 1.75 1.75z"/><path d="m46.842 67.75a1.75 1.75 0 0 0 1.75-1.75v-4a1.75 1.75 0 0 0 -3.5 0v4a1.75 1.75 0 0 0 1.75 1.75z"/><path d="m54.842 67.75a1.75 1.75 0 0 0 1.75-1.75v-4a1.75 1.75 0 0 0 -3.5 0v4a1.75 1.75 0 0 0 1.75 1.75z"/><path d="m46.842 86.776a1.75 1.75 0 0 0 -1.75 1.75v4a1.75 1.75 0 0 0 3.5 0v-4a1.75 1.75 0 0 0 -1.75-1.75z"/><path d="m54.842 86.776a1.75 1.75 0 0 0 -1.75 1.75v4a1.75 1.75 0 0 0 3.5 0v-4a1.75 1.75 0 0 0 -1.75-1.75z"/><path d="m69.158 39.224h12a1.75 1.75 0 0 0 0-3.5h-12a1.75 1.75 0 0 0 0 3.5z"/><path d="m69.158 65.75h12a1.75 1.75 0 1 0 0-3.5h-12a1.75 1.75 0 0 0 0 3.5z"/><path d="m81.158 88.776h-12a1.75 1.75 0 0 0 0 3.5h12a1.75 1.75 0 0 0 0-3.5z"/></g></svg>