<?xml version="1.0" encoding="UTF-8"?>
<svg xmlns="http://www.w3.org/2000/svg" width="512" height="512" viewBox="0 0 128 128"><g><path d="M117,13.25H11A5.757,5.757,0,0,0,5.25,19V93A5.757,5.757,0,0,0,11,98.75H47.25V109a5.719,5.719,0,0,0,.459,2.25H38a1.75,1.75,0,0,0,0,3.5H90a1.75,1.75,0,0,0,0-3.5H80.291A5.719,5.719,0,0,0,80.75,109V98.75H117A5.757,5.757,0,0,0,122.75,93V19A5.757,5.757,0,0,0,117,13.25ZM11,16.75H117A2.252,2.252,0,0,1,119.25,19V81.25H8.75V19A2.252,2.252,0,0,1,11,16.75ZM77.25,109A2.252,2.252,0,0,1,75,111.25H53A2.252,2.252,0,0,1,50.75,109V98.75h2.5V107A1.751,1.751,0,0,0,55,108.75H73A1.751,1.751,0,0,0,74.75,107V98.75h2.5ZM56.75,98.75h14.5v6.5H56.75ZM117,95.25H11A2.252,2.252,0,0,1,8.75,93V84.75h110.5V93A2.252,2.252,0,0,1,117,95.25Z"/><path d="M54.148,62.992A1.756,1.756,0,0,0,55,64.279,17.727,17.727,0,0,0,79.279,39.995a1.748,1.748,0,0,0-2.744-.347L54.648,61.535A1.751,1.751,0,0,0,54.148,62.992ZM77.277,43.855A14.224,14.224,0,0,1,58.855,62.277Z"/><path d="M64,74.75A25.75,25.75,0,1,0,38.25,49,25.779,25.779,0,0,0,64,74.75Zm0-48A22.25,22.25,0,1,1,41.75,49,22.275,22.275,0,0,1,64,26.75Z"/><path d="M50.008,58.852a1.816,1.816,0,0,0,.22.013,1.744,1.744,0,0,0,1.237-.513L73.352,36.465a1.748,1.748,0,0,0-.347-2.744A17.727,17.727,0,0,0,48.721,58.005,1.756,1.756,0,0,0,50.008,58.852ZM64,34.75a14.154,14.154,0,0,1,5.145.973L50.723,54.145A14.224,14.224,0,0,1,64,34.75Z"/></g></svg>
