<?xml version="1.0" encoding="UTF-8"?>
<svg xmlns="http://www.w3.org/2000/svg" width="512" height="512" viewBox="0 0 128 128"><g><path d="M117,17.75h-6.25V13.5A4.756,4.756,0,0,0,106,8.75H22a4.756,4.756,0,0,0-4.75,4.75v4.25H11A5.757,5.757,0,0,0,5.25,23.5v74A5.757,5.757,0,0,0,11,103.25H47.25V113.5a5.719,5.719,0,0,0,.459,2.25H38a1.75,1.75,0,0,0,0,3.5H90a1.75,1.75,0,0,0,0-3.5H80.291a5.719,5.719,0,0,0,.459-2.25V103.25H117a5.757,5.757,0,0,0,5.75-5.75v-74A5.757,5.757,0,0,0,117,17.75Zm0,3.5a2.252,2.252,0,0,1,2.25,2.25V85.75h-8.5V21.25Zm-96.25,9h86.5v55.5H20.75Zm1.25-18h84a1.251,1.251,0,0,1,1.25,1.25V26.75H20.75V13.5A1.25,1.25,0,0,1,22,12.25Zm-11,9h6.25v64.5H8.75V23.5A2.252,2.252,0,0,1,11,21.25ZM77.25,113.5A2.252,2.252,0,0,1,75,115.75H53a2.252,2.252,0,0,1-2.25-2.25V103.25h2.5v8.25A1.751,1.751,0,0,0,55,113.25H73a1.751,1.751,0,0,0,1.75-1.75v-8.25h2.5Zm-20.5-10.25h14.5v6.5H56.75ZM117,99.75H11A2.252,2.252,0,0,1,8.75,97.5V89.25h110.5V97.5A2.252,2.252,0,0,1,117,99.75Z"/><circle cx="28" cy="19.5" r="2"/><circle cx="37" cy="19.5" r="2"/><circle cx="46" cy="19.5" r="2"/><path d="M86.817,61.859H77.193V58.2l4.555-.864a1.75,1.75,0,0,0,1.261-.984l2.383-5.146a1.75,1.75,0,1,0-3.176-1.47l-2,4.329-3.236.614A7.767,7.767,0,0,0,72.1,49.206a8.662,8.662,0,1,0-16.208,0,7.765,7.765,0,0,0-4.871,5.477l-3.236-.614L45.784,49.74a1.75,1.75,0,1,0-3.176,1.47l2.383,5.146a1.75,1.75,0,0,0,1.261.984l4.555.864v3.655H41.183a1.75,1.75,0,0,0,0,3.5H50.81a13.173,13.173,0,0,0,.513,3.557l-5.071.963a1.75,1.75,0,0,0-1.261.984l-2.383,5.145a1.75,1.75,0,1,0,3.176,1.471l2.005-4.329,4.989-.947a13.155,13.155,0,0,0,22.444,0l4.989.947,2,4.329a1.75,1.75,0,1,0,3.176-1.471l-2.383-5.145a1.75,1.75,0,0,0-1.261-.984l-5.071-.963a13.173,13.173,0,0,0,.513-3.557h9.627a1.75,1.75,0,1,0,0-3.5ZM64,41.006a5.168,5.168,0,0,1,5.162,5.162,5.106,5.106,0,0,1-.682,2.557H59.52a5.1,5.1,0,0,1-.682-2.557A5.168,5.168,0,0,1,64,41.006ZM54.307,65.3V56.729h0v-.253a4.255,4.255,0,0,1,4.25-4.25H62.25v22.6A9.7,9.7,0,0,1,54.307,65.3ZM65.75,74.827v-22.6h3.693a4.255,4.255,0,0,1,4.25,4.25v.253h0V65.3A9.7,9.7,0,0,1,65.75,74.827Z"/></g></svg>
