<?xml version="1.0" encoding="UTF-8"?>
<svg xmlns="http://www.w3.org/2000/svg" width="512" height="512" viewBox="0 0 128 128"><g><path d="M117,38.414H93.731V15.145a5.757,5.757,0,0,0-5.75-5.75H11a5.757,5.757,0,0,0-5.75,5.75V65.182A5.757,5.757,0,0,0,11,70.932h6.686v16.9A1.75,1.75,0,0,0,20.744,89L34.269,73.785V94.2a5.756,5.756,0,0,0,5.75,5.75H91.2l16.061,18.067a1.749,1.749,0,0,0,3.057-1.162V99.95H117a5.756,5.756,0,0,0,5.75-5.75V44.164A5.756,5.756,0,0,0,117,38.414ZM19.436,67.432H11a2.253,2.253,0,0,1-2.25-2.25V15.145A2.253,2.253,0,0,1,11,12.9H87.981a2.253,2.253,0,0,1,2.25,2.25V65.182a2.253,2.253,0,0,1-2.25,2.25H36.019a1.748,1.748,0,0,0-1.308.587L21.186,83.233V69.182A1.749,1.749,0,0,0,19.436,67.432ZM119.25,94.2A2.253,2.253,0,0,1,117,96.45h-8.437a1.751,1.751,0,0,0-1.75,1.75v14.052L93.289,97.038a1.749,1.749,0,0,0-1.308-.588H40.019a2.252,2.252,0,0,1-2.25-2.25V70.932H87.981a5.757,5.757,0,0,0,5.75-5.75V41.914H117a2.253,2.253,0,0,1,2.25,2.25Z"/><path d="M19.436,28.959h60.11a1.75,1.75,0,0,0,0-3.5H19.436a1.75,1.75,0,0,0,0,3.5Z"/><path d="M19.436,41.914h60.11a1.75,1.75,0,0,0,0-3.5H19.436a1.75,1.75,0,0,0,0,3.5Z"/><path d="M79.546,51.368H68.436a1.75,1.75,0,0,0,0,3.5h11.11a1.75,1.75,0,0,0,0-3.5Z"/><path d="M57.3,53.118a1.75,1.75,0,0,0-1.75-1.75H19.436a1.75,1.75,0,0,0,0,3.5h36.11A1.75,1.75,0,0,0,57.3,53.118Z"/></g></svg>
