<?xml version="1.0" encoding="UTF-8"?>
<svg xmlns="http://www.w3.org/2000/svg" width="512" height="512" viewBox="0 0 128 128"><g><path d="M117,13.25H11A5.757,5.757,0,0,0,5.25,19V93A5.757,5.757,0,0,0,11,98.75H47.25V109a5.719,5.719,0,0,0,.459,2.25H38a1.75,1.75,0,0,0,0,3.5H90a1.75,1.75,0,0,0,0-3.5H80.291A5.719,5.719,0,0,0,80.75,109V98.75H117A5.757,5.757,0,0,0,122.75,93V19A5.757,5.757,0,0,0,117,13.25ZM11,16.75H117A2.252,2.252,0,0,1,119.25,19V81.25H8.75V19A2.252,2.252,0,0,1,11,16.75ZM77.25,109A2.252,2.252,0,0,1,75,111.25H53A2.252,2.252,0,0,1,50.75,109V98.75h2.5V107A1.751,1.751,0,0,0,55,108.75H73A1.751,1.751,0,0,0,74.75,107V98.75h2.5ZM56.75,98.75h14.5v6.5H56.75ZM117,95.25H11A2.252,2.252,0,0,1,8.75,93V84.75h110.5V93A2.252,2.252,0,0,1,117,95.25Z"/><path d="M30.316,30.727l-4.834,4.834-1.8-1.8a1.75,1.75,0,0,0-2.475,2.474l3.036,3.036a1.748,1.748,0,0,0,2.474,0L32.791,33.2a1.75,1.75,0,0,0-2.475-2.475Z"/><path d="M30.316,58.727l-4.834,4.834-1.8-1.8a1.75,1.75,0,0,0-2.475,2.474l3.036,3.036a1.748,1.748,0,0,0,2.474,0L32.791,61.2a1.75,1.75,0,0,0-2.475-2.475Z"/><path d="M17,46.75H37A1.751,1.751,0,0,0,38.75,45V25A1.751,1.751,0,0,0,37,23.25H17A1.751,1.751,0,0,0,15.25,25V45A1.751,1.751,0,0,0,17,46.75Zm1.75-20h16.5v16.5H18.75Z"/><path d="M17,74.75H37A1.751,1.751,0,0,0,38.75,73V53A1.751,1.751,0,0,0,37,51.25H17A1.751,1.751,0,0,0,15.25,53V73A1.751,1.751,0,0,0,17,74.75Zm1.75-20h16.5v16.5H18.75Z"/><path d="M47,32.75h64a1.75,1.75,0,0,0,0-3.5H47a1.75,1.75,0,0,0,0,3.5Z"/><path d="M47,40.75H79a1.75,1.75,0,0,0,0-3.5H47a1.75,1.75,0,0,0,0,3.5Z"/><path d="M47,60.75h64a1.75,1.75,0,0,0,0-3.5H47a1.75,1.75,0,0,0,0,3.5Z"/><path d="M47,68.75H79a1.75,1.75,0,0,0,0-3.5H47a1.75,1.75,0,0,0,0,3.5Z"/></g></svg>
