<?xml version="1.0" encoding="UTF-8"?>
<svg xmlns="http://www.w3.org/2000/svg" width="512" height="512" viewBox="0 0 128 128"><g><path d="M64,73.75A11.75,11.75,0,1,0,75.75,85.5,11.763,11.763,0,0,0,64,73.75Zm0,3.5a8.262,8.262,0,0,1,8.059,6.5H55.941A8.262,8.262,0,0,1,64,77.25Zm0,16.5a8.262,8.262,0,0,1-8.059-6.5H72.059A8.262,8.262,0,0,1,64,93.75Z"/><path d="M109.66,43.907A16.739,16.739,0,0,0,89.381,29.145a30.744,30.744,0,0,0-50.762,0A16.739,16.739,0,0,0,18.34,43.907,22.747,22.747,0,0,0,28,87.25h9.25v1.759a1.75,1.75,0,0,0,1.54,1.737l4.991.6a20.87,20.87,0,0,0,1.779,4.3l-3.123,3.928a1.75,1.75,0,0,0,.133,2.326l5,5a1.748,1.748,0,0,0,2.317.14l3.957-3.1a20.854,20.854,0,0,0,4.295,1.782l.57,4.985a1.75,1.75,0,0,0,1.739,1.551h7.065a1.75,1.75,0,0,0,1.737-1.54l.6-4.991a20.893,20.893,0,0,0,4.3-1.779l3.928,3.123a1.752,1.752,0,0,0,2.326-.133l5-5a1.749,1.749,0,0,0,.14-2.317l-3.1-3.957a21.035,21.035,0,0,0,1.782-4.3L89.2,90.8a1.75,1.75,0,0,0,1.551-1.739V87.25H100a22.747,22.747,0,0,0,9.66-43.343ZM87.25,87.5l-4.629.529a1.75,1.75,0,0,0-1.508,1.354,17.386,17.386,0,0,1-2.275,5.486,1.749,1.749,0,0,0,.1,2.015l2.885,3.677-2.8,2.8-3.647-2.9a1.75,1.75,0,0,0-2.024-.109,17.418,17.418,0,0,1-5.488,2.273,1.747,1.747,0,0,0-1.352,1.5l-.561,4.638H62.005l-.529-4.629a1.748,1.748,0,0,0-1.354-1.508,17.4,17.4,0,0,1-5.485-2.275,1.751,1.751,0,0,0-2.016.1l-3.677,2.884-2.8-2.794,2.9-3.648a1.75,1.75,0,0,0,.109-2.024,17.422,17.422,0,0,1-2.273-5.487,1.748,1.748,0,0,0-1.5-1.353l-4.638-.56V83.505l4.629-.529a1.748,1.748,0,0,0,1.508-1.354,17.4,17.4,0,0,1,2.275-5.485,1.75,1.75,0,0,0-.1-2.016l-2.884-3.677,2.794-2.8,3.649,2.9a1.749,1.749,0,0,0,2.024.109,17.4,17.4,0,0,1,5.486-2.273,1.748,1.748,0,0,0,1.353-1.5l.56-4.638H66l.529,4.629a1.748,1.748,0,0,0,1.354,1.508,17.383,17.383,0,0,1,5.485,2.275,1.75,1.75,0,0,0,2.016-.1l3.677-2.884,2.8,2.794-2.9,3.648a1.75,1.75,0,0,0-.109,2.024,17.373,17.373,0,0,1,2.272,5.487,1.75,1.75,0,0,0,1.5,1.353l4.639.56ZM100,83.75H90.75V81.991a1.75,1.75,0,0,0-1.54-1.737l-4.991-.6a20.916,20.916,0,0,0-1.779-4.3l3.122-3.928A1.749,1.749,0,0,0,85.43,69.1l-5-5a1.752,1.752,0,0,0-2.318-.14l-3.956,3.1a20.854,20.854,0,0,0-4.3-1.782L69.3,60.3a1.749,1.749,0,0,0-1.738-1.551H60.491a1.75,1.75,0,0,0-1.737,1.54l-.6,4.991a20.893,20.893,0,0,0-4.3,1.779l-3.928-3.122a1.747,1.747,0,0,0-2.326.132l-5,5a1.75,1.75,0,0,0-.14,2.317l3.1,3.957a20.8,20.8,0,0,0-1.782,4.3l-4.985.57a1.75,1.75,0,0,0-1.551,1.739V83.75H28A19.248,19.248,0,0,1,20.687,46.7a1.751,1.751,0,0,0,1.084-1.57,13.237,13.237,0,0,1,17.111-12.3,1.748,1.748,0,0,0,2-.747,27.246,27.246,0,0,1,46.244,0,1.754,1.754,0,0,0,2,.747,13.237,13.237,0,0,1,17.111,12.3,1.75,1.75,0,0,0,1.083,1.57A19.247,19.247,0,0,1,100,83.75Z"/></g></svg>
