<svg height="512" viewBox="0 0 128 128" width="512" xmlns="http://www.w3.org/2000/svg"><path d="m117 13.25h-106a5.757 5.757 0 0 0 -5.75 5.75v74a5.757 5.757 0 0 0 5.75 5.75h36.25v10.25a5.723 5.723 0 0 0 .459 2.25h-9.709a1.75 1.75 0 0 0 0 3.5h52a1.75 1.75 0 0 0 0-3.5h-9.709a5.723 5.723 0 0 0 .459-2.25v-10.25h36.25a5.757 5.757 0 0 0 5.75-5.75v-74a5.757 5.757 0 0 0 -5.75-5.75zm-106 3.5h106a2.253 2.253 0 0 1 2.25 2.25v62.25h-110.5v-62.25a2.253 2.253 0 0 1 2.25-2.25zm66.25 92.25a2.253 2.253 0 0 1 -2.25 2.25h-22a2.253 2.253 0 0 1 -2.25-2.25v-10.25h2.5v8.25a1.75 1.75 0 0 0 1.75 1.75h18a1.75 1.75 0 0 0 1.75-1.75v-8.25h2.5zm-20.5-10.25h14.5v6.5h-14.5zm60.25-3.5h-106a2.253 2.253 0 0 1 -2.25-2.25v-8.25h110.5v8.25a2.253 2.253 0 0 1 -2.25 2.25z"/></svg>