<?xml version="1.0" encoding="UTF-8"?>
<svg xmlns="http://www.w3.org/2000/svg" width="512" height="512" viewBox="0 0 128 128"><path d="M82.25,76.75H100a22.747,22.747,0,0,0,9.66-43.343A16.739,16.739,0,0,0,89.381,18.645a30.744,30.744,0,0,0-50.762,0A16.739,16.739,0,0,0,18.34,33.407,22.747,22.747,0,0,0,28,76.75H45.75v18.5H32.584a9.75,9.75,0,1,0,0,3.5H47.5A1.749,1.749,0,0,0,49.25,97V76.75h13v26.666a9.75,9.75,0,1,0,3.5,0V76.75h13V97a1.749,1.749,0,0,0,1.75,1.75H95.416a9.75,9.75,0,1,0,0-3.5H82.25ZM23,103.25A6.25,6.25,0,1,1,29.25,97,6.257,6.257,0,0,1,23,103.25ZM70.25,113A6.25,6.25,0,1,1,64,106.75,6.257,6.257,0,0,1,70.25,113Zm-4.5-39.75V54a1.75,1.75,0,0,0-3.5,0V73.25h-13V54a1.75,1.75,0,0,0-3.5,0V73.25H28A19.248,19.248,0,0,1,20.687,36.2a1.745,1.745,0,0,0,1.083-1.569,13.24,13.24,0,0,1,17.111-12.3,1.747,1.747,0,0,0,2-.745,27.244,27.244,0,0,1,46.244,0,1.746,1.746,0,0,0,2,.745,13.239,13.239,0,0,1,17.11,12.3,1.748,1.748,0,0,0,1.083,1.569A19.247,19.247,0,0,1,100,73.25H82.25V54a1.75,1.75,0,0,0-3.5,0V73.25ZM105,90.75A6.25,6.25,0,1,1,98.75,97,6.257,6.257,0,0,1,105,90.75Z"/></svg>
