<?xml version="1.0" encoding="UTF-8"?>
<svg xmlns="http://www.w3.org/2000/svg" width="512" height="512" viewBox="0 0 128 128"><g><path d="M60.25,71.75A1.749,1.749,0,0,0,62,70V65.75h2.75a4.75,4.75,0,0,0,0-9.5h-4.5A1.749,1.749,0,0,0,58.5,58V70A1.749,1.749,0,0,0,60.25,71.75Zm1.75-12h2.75a1.25,1.25,0,0,1,0,2.5H62Z"/><path d="M46.25,71.75h6a1.75,1.75,0,0,0,0-3.5h-6A1.25,1.25,0,0,1,45,67V61a1.25,1.25,0,0,1,1.25-1.25h6a1.75,1.75,0,0,0,0-3.5h-6A4.756,4.756,0,0,0,41.5,61v6A4.756,4.756,0,0,0,46.25,71.75Z"/><path d="M78.75,71.75h3A4.756,4.756,0,0,0,86.5,67V58A1.75,1.75,0,0,0,83,58v9a1.251,1.251,0,0,1-1.25,1.25h-3A1.25,1.25,0,0,1,77.5,67V58A1.75,1.75,0,0,0,74,58v9A4.756,4.756,0,0,0,78.75,71.75Z"/><path d="M94.667,31.583H33.333a1.749,1.749,0,0,0-1.75,1.75V94.667a1.749,1.749,0,0,0,1.75,1.75H84.667A1.75,1.75,0,0,0,85.9,95.9l10-10a1.75,1.75,0,0,0,.513-1.237V33.333A1.749,1.749,0,0,0,94.667,31.583Zm-1.75,52.359-8.975,8.975H35.083V35.083H92.917Z"/><path d="M121,50.417a1.75,1.75,0,0,0,0-3.5h-9.25V35.083H121a1.75,1.75,0,0,0,0-3.5h-9.25V22A5.756,5.756,0,0,0,106,16.25H96.417V7a1.75,1.75,0,0,0-3.5,0v9.25H81.083V7a1.75,1.75,0,0,0-3.5,0v9.25H65.75V7a1.75,1.75,0,0,0-3.5,0v9.25H50.417V7a1.75,1.75,0,0,0-3.5,0v9.25H35.083V7a1.75,1.75,0,0,0-3.5,0v9.25H22A5.756,5.756,0,0,0,16.25,22v9.583H7a1.75,1.75,0,0,0,0,3.5h9.25V46.917H7a1.75,1.75,0,0,0,0,3.5h9.25V62.25H7a1.75,1.75,0,0,0,0,3.5h9.25V77.583H7a1.75,1.75,0,0,0,0,3.5h9.25V92.917H7a1.75,1.75,0,0,0,0,3.5h9.25V106A5.756,5.756,0,0,0,22,111.75h9.583V121a1.75,1.75,0,0,0,3.5,0v-9.25H46.917V121a1.75,1.75,0,0,0,3.5,0v-9.25H62.25V121a1.75,1.75,0,0,0,3.5,0v-9.25H77.583V121a1.75,1.75,0,0,0,3.5,0v-9.25H92.917V121a1.75,1.75,0,0,0,3.5,0v-9.25H106a5.756,5.756,0,0,0,5.75-5.75V96.417H121a1.75,1.75,0,0,0,0-3.5h-9.25V81.083H121a1.75,1.75,0,0,0,0-3.5h-9.25V65.75H121a1.75,1.75,0,0,0,0-3.5h-9.25V50.417ZM108.25,106a2.253,2.253,0,0,1-2.25,2.25H22A2.253,2.253,0,0,1,19.75,106V22A2.253,2.253,0,0,1,22,19.75h84A2.253,2.253,0,0,1,108.25,22Z"/></g></svg>
