<svg height="512" viewBox="0 0 128 128" width="512" xmlns="http://www.w3.org/2000/svg"><g><path d="m65.5 78.25h-6a1.75 1.75 0 0 0 0 3.5h6a4.75 4.75 0 0 0 0-9.5h-3a1.25 1.25 0 0 1 0-2.5h6a1.75 1.75 0 0 0 0-3.5h-6a4.75 4.75 0 0 0 0 9.5h3a1.25 1.25 0 0 1 0 2.5z"/><path d="m82.5 78.25h-6a1.75 1.75 0 0 0 0 3.5h6a4.75 4.75 0 0 0 0-9.5h-3a1.25 1.25 0 0 1 0-2.5h6a1.75 1.75 0 0 0 0-3.5h-6a4.75 4.75 0 0 0 0 9.5h3a1.25 1.25 0 0 1 0 2.5z"/><path d="m45.5 81.75h6a1.75 1.75 0 0 0 0-3.5h-6a1.25 1.25 0 0 1 -1.25-1.25v-6a1.25 1.25 0 0 1 1.25-1.25h6a1.75 1.75 0 0 0 0-3.5h-6a4.756 4.756 0 0 0 -4.75 4.75v6a4.756 4.756 0 0 0 4.75 4.75z"/><path d="m97.5 56.25h-67a1.751 1.751 0 0 0 -1.75 1.75v32a1.751 1.751 0 0 0 1.75 1.75h67a1.75 1.75 0 0 0 1.75-1.75v-32a1.75 1.75 0 0 0 -1.75-1.75zm-1.75 32h-63.5v-28.5h63.5z"/><path d="m117 12.25h-106a5.757 5.757 0 0 0 -5.75 5.75v92a5.757 5.757 0 0 0 5.75 5.75h106a5.757 5.757 0 0 0 5.75-5.75v-92a5.757 5.757 0 0 0 -5.75-5.75zm-106 3.5h106a2.253 2.253 0 0 1 2.25 2.25v14.25h-110.5v-14.25a2.252 2.252 0 0 1 2.25-2.25zm106 96.5h-106a2.252 2.252 0 0 1 -2.25-2.25v-74.25h110.5v74.25a2.253 2.253 0 0 1 -2.25 2.25z"/><circle cx="17" cy="24" r="2.25"/><circle cx="27.5" cy="24" r="2.25"/><circle cx="38" cy="24" r="2.25"/></g></svg>