<?xml version="1.0" encoding="UTF-8"?>
<svg xmlns="http://www.w3.org/2000/svg" width="512" height="512" viewBox="0 0 128 128"><g><path d="M46.842,49.724a1.75,1.75,0,0,0-1.75,1.75v4a1.75,1.75,0,1,0,3.5,0v-4A1.749,1.749,0,0,0,46.842,49.724Z"/><path d="M54.842,49.724a1.75,1.75,0,0,0-1.75,1.75v4a1.75,1.75,0,1,0,3.5,0v-4A1.749,1.749,0,0,0,54.842,49.724Z"/><path d="M109.66,38.407A16.739,16.739,0,0,0,89.381,23.645a30.744,30.744,0,0,0-50.762,0A16.739,16.739,0,0,0,18.34,38.407,22.747,22.747,0,0,0,28,81.75h7.092v4.724a4.75,4.75,0,0,0,3,4.406v4.766a4.752,4.752,0,0,0-3,4.407V113a4.756,4.756,0,0,0,4.75,4.75H88.158a4.756,4.756,0,0,0,4.75-4.75V100.053a4.752,4.752,0,0,0-3-4.407V90.88a4.75,4.75,0,0,0,3-4.406V81.75H100a22.747,22.747,0,0,0,9.66-43.343ZM41.592,95.3V91.224H86.408V95.3Zm47.816-8.829a1.252,1.252,0,0,1-1.25,1.25H39.842a1.252,1.252,0,0,1-1.25-1.25V73.526a1.252,1.252,0,0,1,1.25-1.25H88.158a1.252,1.252,0,0,1,1.25,1.25Zm-47.816-17.7V64.7H86.408v4.079Zm47.816-8.829a1.251,1.251,0,0,1-1.25,1.25H39.842a1.251,1.251,0,0,1-1.25-1.25V47a1.251,1.251,0,0,1,1.25-1.25H88.158A1.251,1.251,0,0,1,89.408,47Zm0,53.053a1.251,1.251,0,0,1-1.25,1.25H39.842a1.251,1.251,0,0,1-1.25-1.25V100.053a1.251,1.251,0,0,1,1.25-1.25H88.158a1.251,1.251,0,0,1,1.25,1.25ZM100,78.25H92.908V73.526a4.75,4.75,0,0,0-3-4.406V64.353a4.749,4.749,0,0,0,3-4.406V47a4.756,4.756,0,0,0-4.75-4.75H39.842A4.756,4.756,0,0,0,35.092,47V59.947a4.749,4.749,0,0,0,3,4.406V69.12a4.75,4.75,0,0,0-3,4.406V78.25H28A19.248,19.248,0,0,1,20.687,41.2a1.748,1.748,0,0,0,1.084-1.569,13.239,13.239,0,0,1,17.11-12.3,1.743,1.743,0,0,0,2-.745,27.244,27.244,0,0,1,46.244,0,1.744,1.744,0,0,0,2,.745,13.239,13.239,0,0,1,17.11,12.3,1.748,1.748,0,0,0,1.084,1.569A19.248,19.248,0,0,1,100,78.25Z"/><path d="M46.842,76.25A1.75,1.75,0,0,0,45.092,78v4a1.75,1.75,0,0,0,3.5,0V78A1.749,1.749,0,0,0,46.842,76.25Z"/><path d="M54.842,76.25A1.75,1.75,0,0,0,53.092,78v4a1.75,1.75,0,0,0,3.5,0V78A1.749,1.749,0,0,0,54.842,76.25Z"/><path d="M46.842,102.776a1.751,1.751,0,0,0-1.75,1.75v4a1.75,1.75,0,0,0,3.5,0v-4A1.75,1.75,0,0,0,46.842,102.776Z"/><path d="M54.842,102.776a1.751,1.751,0,0,0-1.75,1.75v4a1.75,1.75,0,0,0,3.5,0v-4A1.75,1.75,0,0,0,54.842,102.776Z"/><path d="M81.158,51.724h-12a1.75,1.75,0,0,0,0,3.5h12a1.75,1.75,0,0,0,0-3.5Z"/><path d="M81.158,78.25h-12a1.75,1.75,0,0,0,0,3.5h12a1.75,1.75,0,1,0,0-3.5Z"/><path d="M81.158,104.776h-12a1.75,1.75,0,0,0,0,3.5h12a1.75,1.75,0,0,0,0-3.5Z"/></g></svg>
