<?xml version="1.0" encoding="UTF-8"?>
<svg xmlns="http://www.w3.org/2000/svg" width="512" height="512" viewBox="0 0 128 128"><g><path d="M108.75,33V11A5.757,5.757,0,0,0,103,5.25H25A5.757,5.757,0,0,0,19.25,11V33a5.76,5.76,0,0,0,4,5.476v9.048a5.76,5.76,0,0,0-4,5.476V75a5.76,5.76,0,0,0,4,5.476v9.048a5.76,5.76,0,0,0-4,5.476v22A5.757,5.757,0,0,0,25,122.75h78a5.757,5.757,0,0,0,5.75-5.75V95a5.76,5.76,0,0,0-4-5.476V80.476a5.76,5.76,0,0,0,4-5.476V53a5.76,5.76,0,0,0-4-5.476V38.476A5.76,5.76,0,0,0,108.75,33Zm-82,14.25v-8.5h74.5v8.5ZM22.75,11A2.252,2.252,0,0,1,25,8.75h78A2.253,2.253,0,0,1,105.25,11V33A2.253,2.253,0,0,1,103,35.25H25A2.252,2.252,0,0,1,22.75,33Zm4,78.25v-8.5h74.5v8.5ZM105.25,117a2.253,2.253,0,0,1-2.25,2.25H25A2.252,2.252,0,0,1,22.75,117V95A2.252,2.252,0,0,1,25,92.75h78A2.253,2.253,0,0,1,105.25,95Zm0-42A2.253,2.253,0,0,1,103,77.25H25A2.252,2.252,0,0,1,22.75,75V53A2.252,2.252,0,0,1,25,50.75h78A2.253,2.253,0,0,1,105.25,53Z"/><path d="M33,26.75A1.751,1.751,0,0,0,34.75,25V19a1.75,1.75,0,0,0-3.5,0v6A1.751,1.751,0,0,0,33,26.75Z"/><path d="M41,26.75A1.751,1.751,0,0,0,42.75,25V19a1.75,1.75,0,0,0-3.5,0v6A1.751,1.751,0,0,0,41,26.75Z"/><path d="M49,26.75A1.751,1.751,0,0,0,50.75,25V19a1.75,1.75,0,0,0-3.5,0v6A1.751,1.751,0,0,0,49,26.75Z"/><path d="M33,59.25A1.751,1.751,0,0,0,31.25,61v6a1.75,1.75,0,0,0,3.5,0V61A1.751,1.751,0,0,0,33,59.25Z"/><path d="M41,59.25A1.751,1.751,0,0,0,39.25,61v6a1.75,1.75,0,0,0,3.5,0V61A1.751,1.751,0,0,0,41,59.25Z"/><path d="M49,59.25A1.751,1.751,0,0,0,47.25,61v6a1.75,1.75,0,0,0,3.5,0V61A1.751,1.751,0,0,0,49,59.25Z"/><path d="M33,101.25A1.751,1.751,0,0,0,31.25,103v6a1.75,1.75,0,0,0,3.5,0v-6A1.751,1.751,0,0,0,33,101.25Z"/><path d="M41,101.25A1.751,1.751,0,0,0,39.25,103v6a1.75,1.75,0,0,0,3.5,0v-6A1.751,1.751,0,0,0,41,101.25Z"/><path d="M49,101.25A1.751,1.751,0,0,0,47.25,103v6a1.75,1.75,0,0,0,3.5,0v-6A1.751,1.751,0,0,0,49,101.25Z"/><path d="M91,27.75A5.75,5.75,0,1,0,85.25,22,5.757,5.757,0,0,0,91,27.75Zm0-8A2.25,2.25,0,1,1,88.75,22,2.253,2.253,0,0,1,91,19.75Z"/><path d="M91,58.25A5.75,5.75,0,1,0,96.75,64,5.757,5.757,0,0,0,91,58.25Zm0,8A2.25,2.25,0,1,1,93.25,64,2.253,2.253,0,0,1,91,66.25Z"/><path d="M91,100.25A5.75,5.75,0,1,0,96.75,106,5.757,5.757,0,0,0,91,100.25Zm0,8A2.25,2.25,0,1,1,93.25,106,2.253,2.253,0,0,1,91,108.25Z"/></g></svg>
