<?xml version="1.0" encoding="UTF-8"?>
<svg xmlns="http://www.w3.org/2000/svg" width="512" height="512" viewBox="0 0 128 128"><g><path d="M117,13.25H11A5.757,5.757,0,0,0,5.25,19V93A5.757,5.757,0,0,0,11,98.75H47.25V109a5.719,5.719,0,0,0,.459,2.25H38a1.75,1.75,0,0,0,0,3.5H90a1.75,1.75,0,0,0,0-3.5H80.291A5.719,5.719,0,0,0,80.75,109V98.75H117A5.757,5.757,0,0,0,122.75,93V19A5.757,5.757,0,0,0,117,13.25ZM11,16.75H117A2.253,2.253,0,0,1,119.25,19V81.25H8.75V19A2.253,2.253,0,0,1,11,16.75ZM77.25,109A2.253,2.253,0,0,1,75,111.25H53A2.253,2.253,0,0,1,50.75,109V98.75h2.5V107A1.75,1.75,0,0,0,55,108.75H73A1.75,1.75,0,0,0,74.75,107V98.75h2.5ZM56.75,98.75h14.5v6.5H56.75ZM117,95.25H11A2.253,2.253,0,0,1,8.75,93V84.75h110.5V93A2.253,2.253,0,0,1,117,95.25Z"/><path d="M60.042,55.75h3.75a1.75,1.75,0,0,0,0-3.5h-3.75a.751.751,0,0,1-.75-.75V44a1.75,1.75,0,0,0-3.5,0v7.5A4.254,4.254,0,0,0,60.042,55.75Z"/><path d="M47.125,55.75h3.75a1.75,1.75,0,0,0,0-3.5h-3.75a.751.751,0,0,1-.75-.75v-.75h4.5a1.75,1.75,0,0,0,0-3.5h-4.5V46.5a.751.751,0,0,1,.75-.75h3.75a1.75,1.75,0,0,0,0-3.5h-3.75a4.255,4.255,0,0,0-4.25,4.25v5A4.255,4.255,0,0,0,47.125,55.75Z"/><path d="M30.458,55.75h3.75a5.506,5.506,0,0,0,5.5-5.5v-2.5a5.506,5.506,0,0,0-5.5-5.5h-3.75A1.75,1.75,0,0,0,28.708,44V54A1.75,1.75,0,0,0,30.458,55.75Zm1.75-10h2a2,2,0,0,1,2,2v2.5a2,2,0,0,1-2,2h-2Z"/><path d="M97.542,55.75A1.75,1.75,0,0,0,99.292,54V44a1.75,1.75,0,0,0-3.5,0V54A1.749,1.749,0,0,0,97.542,55.75Z"/><path d="M83.375,55.75A1.75,1.75,0,0,0,85.125,54V50.75h4V54a1.75,1.75,0,0,0,3.5,0V44a1.75,1.75,0,0,0-3.5,0v3.25h-4V44a1.75,1.75,0,0,0-3.5,0V54A1.75,1.75,0,0,0,83.375,55.75Z"/><path d="M70.458,55.75A1.749,1.749,0,0,0,72.208,54V50.75h2a4.25,4.25,0,0,0,0-8.5h-3.75A1.75,1.75,0,0,0,68.708,44V54A1.75,1.75,0,0,0,70.458,55.75Zm1.75-10h2a.75.75,0,0,1,0,1.5h-2Z"/><path d="M64.018,72.75c27.336,0,48.75-10.433,48.75-23.75S91.354,25.25,64.018,25.25,15.268,35.683,15.268,49,36.681,72.75,64.018,72.75Zm0-44c24.527,0,45.25,9.273,45.25,20.25S88.545,69.25,64.018,69.25,18.768,59.977,18.768,49,39.49,28.75,64.018,28.75Z"/></g></svg>
