<?xml version="1.0" encoding="UTF-8"?>
<svg xmlns="http://www.w3.org/2000/svg" width="512" height="512" viewBox="0 0 128 128"><g><path d="M83.21,90.79l-3.52-.426a16.291,16.291,0,0,0-1.174-2.837l2.2-2.768a1.75,1.75,0,0,0-.133-2.326l-3.8-3.8a1.75,1.75,0,0,0-2.317-.14l-2.791,2.189a16.217,16.217,0,0,0-2.836-1.177L68.441,76A1.749,1.749,0,0,0,66.7,74.443h-5.37a1.75,1.75,0,0,0-1.737,1.54L59.17,79.5a16.254,16.254,0,0,0-2.836,1.175l-2.769-2.2a1.749,1.749,0,0,0-2.326.133l-3.8,3.8a1.75,1.75,0,0,0-.139,2.317l2.188,2.791a16.294,16.294,0,0,0-1.177,2.836l-3.512.4a1.75,1.75,0,0,0-1.552,1.739V97.86A1.75,1.75,0,0,0,44.79,99.6l3.52.425a16.291,16.291,0,0,0,1.174,2.837l-2.2,2.768a1.75,1.75,0,0,0,.133,2.327l3.8,3.8a1.749,1.749,0,0,0,2.317.139l2.791-2.188a16.258,16.258,0,0,0,2.836,1.176l.4,3.513a1.748,1.748,0,0,0,1.738,1.551h5.37A1.749,1.749,0,0,0,68.4,114.4l.426-3.519a16.209,16.209,0,0,0,2.836-1.175l2.769,2.2a1.748,1.748,0,0,0,2.326-.133l3.8-3.8a1.75,1.75,0,0,0,.139-2.317l-2.188-2.79a16.244,16.244,0,0,0,1.176-2.836l3.513-.4A1.75,1.75,0,0,0,84.75,97.9V92.527A1.749,1.749,0,0,0,83.21,90.79Zm-1.96,5.545-3.146.359A1.749,1.749,0,0,0,76.6,98.049a12.817,12.817,0,0,1-1.674,4.037,1.749,1.749,0,0,0,.1,2.015l1.962,2.5-1.6,1.6-2.479-1.97a1.75,1.75,0,0,0-2.023-.11,12.824,12.824,0,0,1-4.038,1.673,1.751,1.751,0,0,0-1.353,1.5l-.381,3.155H62.858L62.5,109.3a1.748,1.748,0,0,0-1.354-1.508,12.815,12.815,0,0,1-4.037-1.674,1.751,1.751,0,0,0-2.015.1l-2.5,1.962-1.6-1.6,1.971-2.479a1.748,1.748,0,0,0,.109-2.023A12.853,12.853,0,0,1,51.4,98.043a1.749,1.749,0,0,0-1.5-1.353l-3.155-.381V94.052l3.145-.359A1.749,1.749,0,0,0,51.4,92.338,12.817,12.817,0,0,1,53.078,88.3a1.749,1.749,0,0,0-.1-2.015l-1.962-2.5,1.595-1.6,2.48,1.97a1.747,1.747,0,0,0,2.024.11A12.79,12.79,0,0,1,61.15,82.6,1.75,1.75,0,0,0,62.5,81.1l.382-3.156h2.257l.359,3.146A1.749,1.749,0,0,0,66.854,82.6a12.8,12.8,0,0,1,4.038,1.673,1.745,1.745,0,0,0,2.015-.1l2.5-1.961,1.6,1.595-1.971,2.479a1.75,1.75,0,0,0-.109,2.024A12.828,12.828,0,0,1,76.6,92.344,1.749,1.749,0,0,0,78.1,93.7l3.155.381Z"/><path d="M64,85.943a9.25,9.25,0,1,0,9.25,9.25A9.26,9.26,0,0,0,64,85.943Zm0,15a5.75,5.75,0,1,1,5.75-5.75A5.756,5.756,0,0,1,64,100.943Z"/><path d="M100,67.637H73.652v-8.1a25.545,25.545,0,0,0,9.46-15.3l2.971-.675a5.969,5.969,0,0,0,4.667-5.849v-2.97a5.142,5.142,0,0,0-3.4-4.822V22.755A10.452,10.452,0,0,0,76.244,12.324l-2.977.187A20.313,20.313,0,0,0,53.632,5.675,16.377,16.377,0,0,0,40.648,21.641v8.273a5.141,5.141,0,0,0-3.4,4.822v2.97a5.968,5.968,0,0,0,4.668,5.849l2.97.675a25.545,25.545,0,0,0,9.46,15.3v8.1H28a5.757,5.757,0,0,0-5.75,5.75V117A5.757,5.757,0,0,0,28,122.75h72a5.757,5.757,0,0,0,5.75-5.75V73.387A5.757,5.757,0,0,0,100,67.637ZM87.25,37.706a2.487,2.487,0,0,1-1.943,2.436l-1.749.4c.018-.4.036-.792.036-1.191V33.087H85.6a1.65,1.65,0,0,1,1.648,1.649ZM54.345,9.1A16.776,16.776,0,0,1,71.07,15.371a1.741,1.741,0,0,0,1.505.69l3.888-.244a6.953,6.953,0,0,1,7.389,6.938v6.832H81.844A11.123,11.123,0,0,1,71.675,23.18a1.753,1.753,0,0,0-2.865-.56c-.07.07-7.1,6.967-22.654,6.967H44.148V21.641A12.861,12.861,0,0,1,54.345,9.1ZM42.694,40.142a2.487,2.487,0,0,1-1.944-2.436v-2.97A1.65,1.65,0,0,1,42.4,33.087h2.008v6.261c0,.4.018.8.036,1.191Zm5.212-.794v-6.3c11.661-.367,18.643-4.313,21.654-6.521a14.376,14.376,0,0,0,10.534,6.455v6.363a22.035,22.035,0,0,1-9.209,17.894,11.847,11.847,0,0,1-13.77,0A22.038,22.038,0,0,1,47.906,39.348Zm9.942,22.3a15.233,15.233,0,0,0,12.3,0v5.987h-12.3ZM102.25,117a2.253,2.253,0,0,1-2.25,2.25H28A2.253,2.253,0,0,1,25.75,117V73.387A2.253,2.253,0,0,1,28,71.137h72a2.253,2.253,0,0,1,2.25,2.25Z"/></g></svg>
