<svg height="512" viewBox="0 0 128 128" width="512" xmlns="http://www.w3.org/2000/svg"><g><path d="m117 12.25h-106a5.757 5.757 0 0 0 -5.75 5.75v92a5.757 5.757 0 0 0 5.75 5.75h106a5.757 5.757 0 0 0 5.75-5.75v-92a5.757 5.757 0 0 0 -5.75-5.75zm-106 3.5h106a2.253 2.253 0 0 1 2.25 2.25v14.25h-110.5v-14.25a2.253 2.253 0 0 1 2.25-2.25zm106 96.5h-106a2.253 2.253 0 0 1 -2.25-2.25v-74.25h110.5v74.25a2.253 2.253 0 0 1 -2.25 2.25z"/><circle cx="17" cy="24" r="2.25"/><circle cx="27.5" cy="24" r="2.25"/><circle cx="38" cy="24" r="2.25"/><path d="m80.245 60.782a1.747 1.747 0 0 0 -1.437-.752h-29.616a1.747 1.747 0 0 0 -1.437.752l-7.4 10.665a1.75 1.75 0 0 0 .046 2.061l22.212 29.055a1.752 1.752 0 0 0 2.782 0l22.205-29.055a1.75 1.75 0 0 0 .047-2.061zm2.622 9.913h-10.067l-1.663-7.165h6.756zm-27.632 3.5 4.955 19.44-14.861-19.44zm13.917 0-5.152 20.218-5.153-20.218zm-10.352-3.5 1.659-7.165h7.088l1.653 7.165zm13.967 3.5h9.907l-14.863 19.439zm-22.66-10.665h6.756l-1.663 7.165h-10.067z"/><path d="m64 54.6a1.749 1.749 0 0 0 1.75-1.75v-6.35a1.75 1.75 0 0 0 -3.5 0v6.346a1.749 1.749 0 0 0 1.75 1.754z"/><path d="m76.066 55.548a1.749 1.749 0 0 0 2.244-1.048l1.628-4.475a1.75 1.75 0 1 0 -3.289-1.2l-1.629 4.48a1.751 1.751 0 0 0 1.046 2.243z"/><path d="m49.69 54.5a1.75 1.75 0 1 0 3.289-1.2l-1.628-4.47a1.75 1.75 0 0 0 -3.29 1.2z"/></g></svg>