<?xml version="1.0" encoding="UTF-8"?>
<svg xmlns="http://www.w3.org/2000/svg" width="512" height="512" viewBox="0 0 128 128"><g><path d="M117,13.25H11A5.757,5.757,0,0,0,5.25,19V93A5.757,5.757,0,0,0,11,98.75H47.25V109a5.719,5.719,0,0,0,.459,2.25H38a1.75,1.75,0,0,0,0,3.5H90a1.75,1.75,0,0,0,0-3.5H80.291A5.719,5.719,0,0,0,80.75,109V98.75H117A5.757,5.757,0,0,0,122.75,93V19A5.757,5.757,0,0,0,117,13.25ZM11,16.75H117A2.253,2.253,0,0,1,119.25,19V81.25H8.75V19A2.253,2.253,0,0,1,11,16.75ZM77.25,109A2.253,2.253,0,0,1,75,111.25H53A2.253,2.253,0,0,1,50.75,109V98.75h2.5V107A1.75,1.75,0,0,0,55,108.75H73A1.75,1.75,0,0,0,74.75,107V98.75h2.5ZM56.75,98.75h14.5v6.5H56.75ZM117,95.25H11A2.253,2.253,0,0,1,8.75,93V84.75h110.5V93A2.253,2.253,0,0,1,117,95.25Z"/><path d="M24.458,42.362,30.75,44.41v7.184a4.749,4.749,0,0,0-3,4.406v7a1.75,1.75,0,0,0,1.75,1.75h6A1.75,1.75,0,0,0,37.25,63V56a4.749,4.749,0,0,0-3-4.406V45.55l7.239,2.357-2.22,14.844a1.751,1.751,0,0,0,.582,1.578c.347.3,8.693,7.421,24.149,7.421s23.8-7.118,24.149-7.421a1.748,1.748,0,0,0,.581-1.578L86.511,47.907l17.031-5.545a1.75,1.75,0,0,0,0-3.328l-39-12.7a1.761,1.761,0,0,0-1.084,0l-39,12.7a1.75,1.75,0,0,0,0,3.328ZM33.75,61.25h-2.5V56a1.25,1.25,0,0,1,2.5,0Zm51.366.995C82.878,63.832,75.6,68.25,64,68.25s-18.883-4.421-21.116-6l1.979-13.241,18.6,6.055a1.771,1.771,0,0,0,1.084,0l18.6-6.055ZM64,29.84,97.348,40.7,64,51.555,30.652,40.7Z"/></g></svg>
