<?xml version="1.0" encoding="UTF-8"?>
<svg xmlns="http://www.w3.org/2000/svg" width="512" height="512" viewBox="0 0 128 128"><g><path d="M117,17.75h-6.25V13.5A4.756,4.756,0,0,0,106,8.75H22a4.756,4.756,0,0,0-4.75,4.75v4.25H11A5.757,5.757,0,0,0,5.25,23.5v74A5.757,5.757,0,0,0,11,103.25H47.25V113.5a5.719,5.719,0,0,0,.459,2.25H38a1.75,1.75,0,0,0,0,3.5H90a1.75,1.75,0,0,0,0-3.5H80.291a5.719,5.719,0,0,0,.459-2.25V103.25H117a5.757,5.757,0,0,0,5.75-5.75v-74A5.757,5.757,0,0,0,117,17.75Zm0,3.5a2.253,2.253,0,0,1,2.25,2.25V85.75h-8.5V21.25ZM20.75,85.75V30.25h86.5v55.5ZM22,12.25h84a1.251,1.251,0,0,1,1.25,1.25V26.75H20.75V13.5A1.25,1.25,0,0,1,22,12.25Zm-11,9h6.25v64.5H8.75V23.5A2.253,2.253,0,0,1,11,21.25ZM77.25,113.5A2.253,2.253,0,0,1,75,115.75H53a2.253,2.253,0,0,1-2.25-2.25V103.25h2.5v8.25A1.75,1.75,0,0,0,55,113.25H73a1.75,1.75,0,0,0,1.75-1.75v-8.25h2.5Zm-20.5-10.25h14.5v6.5H56.75ZM117,99.75H11A2.253,2.253,0,0,1,8.75,97.5V89.25h110.5V97.5A2.253,2.253,0,0,1,117,99.75Z"/><circle cx="28" cy="19.5" r="2"/><circle cx="37" cy="19.5" r="2"/><circle cx="46" cy="19.5" r="2"/><path d="M85.237,58.763l-20-20a1.748,1.748,0,0,0-2.474,0l-20,20A1.749,1.749,0,0,0,44,61.75h5.25V76A1.75,1.75,0,0,0,51,77.75h8.5A1.75,1.75,0,0,0,61.25,76V66.8h5.5V76a1.75,1.75,0,0,0,1.75,1.75H77A1.75,1.75,0,0,0,78.75,76V61.75H84a1.749,1.749,0,0,0,1.237-2.987ZM77,58.25A1.75,1.75,0,0,0,75.25,60V74.25h-5v-9.2A1.75,1.75,0,0,0,68.5,63.3h-9a1.75,1.75,0,0,0-1.75,1.75v9.2h-5V60A1.75,1.75,0,0,0,51,58.25H48.225L64,42.475,79.775,58.25Z"/></g></svg>
