<?xml version="1.0" encoding="UTF-8"?>
<svg xmlns="http://www.w3.org/2000/svg" width="512" height="512" viewBox="0 0 128 128"><g><path d="M84,80a1.75,1.75,0,0,0,3.5,0V75.75h2.75a4.75,4.75,0,0,0,0-9.5h-4.5A1.751,1.751,0,0,0,84,68Zm3.5-10.25h2.75a1.25,1.25,0,0,1,0,2.5H87.5Z"/><path d="M51.75,69.75H54.5V80A1.75,1.75,0,0,0,58,80V69.75h2.75a1.75,1.75,0,0,0,0-3.5h-9a1.75,1.75,0,0,0,0,3.5Z"/><path d="M68.75,69.75H71.5V80A1.75,1.75,0,0,0,75,80V69.75h2.75a1.75,1.75,0,0,0,0-3.5h-9a1.75,1.75,0,0,0,0,3.5Z"/><path d="M34.75,81.75A1.75,1.75,0,0,0,36.5,80V75.75H42V80a1.75,1.75,0,0,0,3.5,0V68A1.75,1.75,0,0,0,42,68v4.25H36.5V68A1.75,1.75,0,0,0,33,68V80A1.75,1.75,0,0,0,34.75,81.75Z"/><path d="M105.25,56.25H22.75A1.75,1.75,0,0,0,21,58V90a1.75,1.75,0,0,0,1.75,1.75h82.5A1.75,1.75,0,0,0,107,90V58A1.75,1.75,0,0,0,105.25,56.25Zm-1.75,32h-79V59.75h79Z"/><path d="M117,12.25H11A5.757,5.757,0,0,0,5.25,18v92A5.757,5.757,0,0,0,11,115.75H117a5.757,5.757,0,0,0,5.75-5.75V18A5.757,5.757,0,0,0,117,12.25ZM11,15.75H117A2.253,2.253,0,0,1,119.25,18V32.25H8.75V18A2.253,2.253,0,0,1,11,15.75Zm106,96.5H11A2.253,2.253,0,0,1,8.75,110V35.75h110.5V110A2.253,2.253,0,0,1,117,112.25Z"/><circle cx="17" cy="24" r="2.25"/><circle cx="27.5" cy="24" r="2.25"/><circle cx="38" cy="24" r="2.25"/></g></svg>
