<?xml version="1.0" encoding="UTF-8"?>
<svg xmlns="http://www.w3.org/2000/svg" width="512" height="512" viewBox="0 0 128 128"><g><path d="M117,53.05h-9.969l-2.384-6.641A1.751,1.751,0,0,0,103,45.25H88.55V41.5a9.761,9.761,0,0,0-9.75-9.75H72a6.257,6.257,0,0,1-6.25-6.25V20a1.75,1.75,0,0,0-3.5,0v5.5A9.761,9.761,0,0,0,72,35.25h6.8a6.257,6.257,0,0,1,6.25,6.25v3.75H70.6a1.752,1.752,0,0,0-1.648,1.159L66.568,53.05H11A5.757,5.757,0,0,0,5.25,58.8V104A5.757,5.757,0,0,0,11,109.75H117a5.757,5.757,0,0,0,5.75-5.75V58.8A5.756,5.756,0,0,0,117,53.05Zm-45.169-4.3h29.938l1.543,4.3H70.288ZM119.25,104a2.253,2.253,0,0,1-2.25,2.25H11A2.252,2.252,0,0,1,8.75,104V58.8A2.252,2.252,0,0,1,11,56.55H117a2.253,2.253,0,0,1,2.25,2.25Z"/><path d="M83,91.05H45a1.75,1.75,0,0,0-1.75,1.75v7.6A1.751,1.751,0,0,0,45,102.15H83a1.75,1.75,0,0,0,1.75-1.75V92.8A1.749,1.749,0,0,0,83,91.05Zm-1.75,7.6H46.75v-4.1h34.5Z"/><path d="M113.4,75.85h-7.6a1.75,1.75,0,0,0-1.75,1.75v7.6a1.749,1.749,0,0,0,1.75,1.75h7.6a1.749,1.749,0,0,0,1.75-1.75V77.6A1.75,1.75,0,0,0,113.4,75.85Zm-1.75,7.6h-4.1v-4.1h4.1Z"/><path d="M98.2,75.85H90.6a1.75,1.75,0,0,0-1.75,1.75v7.6a1.749,1.749,0,0,0,1.75,1.75h7.6a1.749,1.749,0,0,0,1.75-1.75V77.6A1.75,1.75,0,0,0,98.2,75.85Zm-1.75,7.6h-4.1v-4.1h4.1Z"/><path d="M83,75.85H75.4a1.751,1.751,0,0,0-1.75,1.75v7.6a1.75,1.75,0,0,0,1.75,1.75H83a1.749,1.749,0,0,0,1.75-1.75V77.6A1.75,1.75,0,0,0,83,75.85Zm-1.75,7.6h-4.1v-4.1h4.1Z"/><path d="M60.2,86.95h7.6a1.749,1.749,0,0,0,1.75-1.75V77.6a1.75,1.75,0,0,0-1.75-1.75H60.2a1.751,1.751,0,0,0-1.75,1.75v7.6A1.75,1.75,0,0,0,60.2,86.95Zm1.75-7.6h4.1v4.1h-4.1Z"/><path d="M45,86.95h7.6a1.75,1.75,0,0,0,1.75-1.75V77.6a1.751,1.751,0,0,0-1.75-1.75H45a1.751,1.751,0,0,0-1.75,1.75v7.6A1.75,1.75,0,0,0,45,86.95Zm1.75-7.6h4.1v4.1h-4.1Z"/><path d="M37.4,75.85H29.8a1.75,1.75,0,0,0-1.75,1.75v7.6a1.749,1.749,0,0,0,1.75,1.75h7.6a1.75,1.75,0,0,0,1.75-1.75V77.6A1.751,1.751,0,0,0,37.4,75.85Zm-1.75,7.6h-4.1v-4.1h4.1Z"/><path d="M22.2,75.85H14.6a1.751,1.751,0,0,0-1.75,1.75v7.6a1.75,1.75,0,0,0,1.75,1.75h7.6a1.75,1.75,0,0,0,1.75-1.75V77.6A1.751,1.751,0,0,0,22.2,75.85Zm-1.75,7.6h-4.1v-4.1h4.1Z"/><path d="M113.4,60.65h-7.6a1.75,1.75,0,0,0-1.75,1.75V70a1.75,1.75,0,0,0,1.75,1.75h7.6A1.75,1.75,0,0,0,115.15,70V62.4A1.75,1.75,0,0,0,113.4,60.65Zm-1.75,7.6h-4.1v-4.1h4.1Z"/><path d="M98.2,60.65H90.6a1.75,1.75,0,0,0-1.75,1.75V70a1.75,1.75,0,0,0,1.75,1.75h7.6A1.75,1.75,0,0,0,99.95,70V62.4A1.75,1.75,0,0,0,98.2,60.65Zm-1.75,7.6h-4.1v-4.1h4.1Z"/><path d="M83,60.65H75.4a1.751,1.751,0,0,0-1.75,1.75V70a1.751,1.751,0,0,0,1.75,1.75H83A1.75,1.75,0,0,0,84.75,70V62.4A1.75,1.75,0,0,0,83,60.65Zm-1.75,7.6h-4.1v-4.1h4.1Z"/><path d="M60.2,71.75h7.6A1.75,1.75,0,0,0,69.55,70V62.4a1.75,1.75,0,0,0-1.75-1.75H60.2a1.751,1.751,0,0,0-1.75,1.75V70A1.751,1.751,0,0,0,60.2,71.75Zm1.75-7.6h4.1v4.1h-4.1Z"/><path d="M45,71.75h7.6A1.751,1.751,0,0,0,54.35,70V62.4a1.751,1.751,0,0,0-1.75-1.75H45a1.751,1.751,0,0,0-1.75,1.75V70A1.751,1.751,0,0,0,45,71.75Zm1.75-7.6h4.1v4.1h-4.1Z"/><path d="M37.4,60.65H29.8a1.75,1.75,0,0,0-1.75,1.75V70a1.75,1.75,0,0,0,1.75,1.75h7.6A1.751,1.751,0,0,0,39.15,70V62.4A1.751,1.751,0,0,0,37.4,60.65Zm-1.75,7.6h-4.1v-4.1h4.1Z"/><path d="M22.2,60.65H14.6a1.751,1.751,0,0,0-1.75,1.75V70a1.751,1.751,0,0,0,1.75,1.75h7.6A1.751,1.751,0,0,0,23.95,70V62.4A1.751,1.751,0,0,0,22.2,60.65Zm-1.75,7.6h-4.1v-4.1h4.1Z"/><path d="M113.4,91.05h-7.6a1.749,1.749,0,0,0-1.75,1.75v7.6a1.75,1.75,0,0,0,1.75,1.75h7.6a1.75,1.75,0,0,0,1.75-1.75V92.8A1.749,1.749,0,0,0,113.4,91.05Zm-1.75,7.6h-4.1v-4.1h4.1Z"/><path d="M98.2,91.05H90.6a1.749,1.749,0,0,0-1.75,1.75v7.6a1.75,1.75,0,0,0,1.75,1.75h7.6a1.75,1.75,0,0,0,1.75-1.75V92.8A1.749,1.749,0,0,0,98.2,91.05Zm-1.75,7.6h-4.1v-4.1h4.1Z"/><path d="M37.4,91.05H29.8a1.749,1.749,0,0,0-1.75,1.75v7.6a1.75,1.75,0,0,0,1.75,1.75h7.6a1.751,1.751,0,0,0,1.75-1.75V92.8A1.75,1.75,0,0,0,37.4,91.05Zm-1.75,7.6h-4.1v-4.1h4.1Z"/><path d="M22.2,91.05H14.6a1.75,1.75,0,0,0-1.75,1.75v7.6a1.751,1.751,0,0,0,1.75,1.75h7.6a1.751,1.751,0,0,0,1.75-1.75V92.8A1.75,1.75,0,0,0,22.2,91.05Zm-1.75,7.6h-4.1v-4.1h4.1Z"/></g></svg>
