<?xml version="1.0" encoding="UTF-8"?>
<svg xmlns="http://www.w3.org/2000/svg" width="512" height="512" viewBox="0 0 128 128"><path d="M121,91.25h-6.029V30a5.756,5.756,0,0,0-5.75-5.75H18.779A5.756,5.756,0,0,0,13.029,30V91.25H7A1.75,1.75,0,0,0,5.25,93v2.618a5.734,5.734,0,0,0,4.793,5.67l14.445,2.438a1.776,1.776,0,0,0,.291.024h78.442a1.785,1.785,0,0,0,.291-.024l14.444-2.438a5.734,5.734,0,0,0,4.794-5.67V93A1.75,1.75,0,0,0,121,91.25ZM18.779,27.75h90.442a2.253,2.253,0,0,1,2.25,2.25v1.25H16.529V30A2.253,2.253,0,0,1,18.779,27.75Zm-2.25,7h94.942v56.5H83A1.75,1.75,0,0,0,81.25,93v1.25H46.75V93A1.75,1.75,0,0,0,45,91.25H16.529ZM119.25,95.618a2.243,2.243,0,0,1-1.876,2.219l-14.3,2.413H24.926l-14.3-2.413A2.243,2.243,0,0,1,8.75,95.618V94.75h34.5V96A1.75,1.75,0,0,0,45,97.75H83A1.75,1.75,0,0,0,84.75,96V94.75h34.5Z"/></svg>
