<?xml version="1.0" encoding="UTF-8"?>
<svg xmlns="http://www.w3.org/2000/svg" width="512" height="512" viewBox="0 0 128 128"><g><path d="M117,12.25H11A5.757,5.757,0,0,0,5.25,18v92A5.757,5.757,0,0,0,11,115.75H117a5.757,5.757,0,0,0,5.75-5.75V18A5.757,5.757,0,0,0,117,12.25ZM11,15.75H117A2.252,2.252,0,0,1,119.25,18V32.25H8.75V18A2.252,2.252,0,0,1,11,15.75Zm106,96.5H11A2.252,2.252,0,0,1,8.75,110V35.75h110.5V110A2.252,2.252,0,0,1,117,112.25Z"/><circle cx="17" cy="24" r="2.25"/><circle cx="27.5" cy="24" r="2.25"/><circle cx="38" cy="24" r="2.25"/><path d="M64,44.75A29.25,29.25,0,1,0,93.25,74,29.284,29.284,0,0,0,64,44.75Zm0,55a25.75,25.75,0,0,1,0-51.5,2.25,2.25,0,0,1,0,4.5A21.25,21.25,0,1,0,84.637,78.979a5.7,5.7,0,0,0,4.514.527A25.79,25.79,0,0,1,64,99.75ZM81.75,74A17.75,17.75,0,1,1,64,56.25,17.769,17.769,0,0,1,81.75,74Zm5.75,2.25A2.252,2.252,0,0,1,85.25,74,21.271,21.271,0,0,0,68.979,53.363a5.7,5.7,0,0,0,.527-4.514A25.79,25.79,0,0,1,89.75,74,2.252,2.252,0,0,1,87.5,76.25Z"/><path d="M53,69.75h5.25a.5.5,0,0,1,.5.5V80a1.75,1.75,0,0,0,3.5,0V70.25a4,4,0,0,0-4-4H53a1.75,1.75,0,0,0,0,3.5Z"/><path d="M72.75,78.25H67.5a1.75,1.75,0,0,0,0,3.5h5.25a4,4,0,0,0,4-4v-1.5a4,4,0,0,0-4-4h-3.5v-2a.5.5,0,0,1,.5-.5H75a1.75,1.75,0,0,0,0-3.5H69.75a4,4,0,0,0-4,4V74a1.751,1.751,0,0,0,1.75,1.75h5.25a.5.5,0,0,1,.5.5v1.5A.5.5,0,0,1,72.75,78.25Z"/></g></svg>
