<?xml version="1.0" encoding="UTF-8"?>
<svg xmlns="http://www.w3.org/2000/svg" width="512" height="512" viewBox="0 0 128 128"><g><path d="M61.667,72.917H55a1.75,1.75,0,0,0,0,3.5h3.25V78a1.75,1.75,0,0,0,3.5,0V76.408a5.079,5.079,0,0,0-.083-10.158H58.333a1.584,1.584,0,0,1,0-3.167H65a1.75,1.75,0,0,0,0-3.5H61.75V58a1.75,1.75,0,0,0-3.5,0v1.592a5.079,5.079,0,0,0,.083,10.158h3.334a1.584,1.584,0,0,1,0,3.167Z"/><path d="M121,27.25H15A1.75,1.75,0,0,0,13.25,29v6.25H7A1.75,1.75,0,0,0,5.25,37V99A1.75,1.75,0,0,0,7,100.75H113A1.75,1.75,0,0,0,114.75,99V92.75H121A1.75,1.75,0,0,0,122.75,91V29A1.75,1.75,0,0,0,121,27.25Zm-9.75,70H8.75V38.75h102.5Zm8-8h-4.5V37A1.75,1.75,0,0,0,113,35.25H16.75v-4.5h102.5Z"/><path d="M15,82.75A8.259,8.259,0,0,1,23.25,91,1.75,1.75,0,0,0,25,92.75H95A1.75,1.75,0,0,0,96.75,91,8.259,8.259,0,0,1,105,82.75,1.75,1.75,0,0,0,106.75,81V55A1.75,1.75,0,0,0,105,53.25,8.259,8.259,0,0,1,96.75,45,1.75,1.75,0,0,0,95,43.25H25A1.75,1.75,0,0,0,23.25,45,8.259,8.259,0,0,1,15,53.25,1.75,1.75,0,0,0,13.25,55V81A1.75,1.75,0,0,0,15,82.75Zm1.75-26.13a11.78,11.78,0,0,0,9.87-9.87H93.38a11.78,11.78,0,0,0,9.87,9.87V79.38a11.78,11.78,0,0,0-9.87,9.87H26.62a11.78,11.78,0,0,0-9.87-9.87Z"/><path d="M60,86.75A18.75,18.75,0,1,0,41.25,68,18.771,18.771,0,0,0,60,86.75Zm0-34A15.25,15.25,0,1,1,44.75,68,15.267,15.267,0,0,1,60,52.75Z"/></g></svg>
