<svg height="512" viewBox="0 0 128 128" width="512" xmlns="http://www.w3.org/2000/svg"><g><path d="m117 15.25h-106a5.757 5.757 0 0 0 -5.75 5.75v70a5.757 5.757 0 0 0 5.75 5.75h45.25v12.5h-18.25a1.75 1.75 0 0 0 0 3.5h52a1.75 1.75 0 0 0 0-3.5h-18.25v-12.5h45.25a5.757 5.757 0 0 0 5.75-5.75v-70a5.757 5.757 0 0 0 -5.75-5.75zm-48.75 94h-8.5v-12.5h8.5zm51-18.25a2.253 2.253 0 0 1 -2.25 2.25h-106a2.253 2.253 0 0 1 -2.25-2.25v-70a2.253 2.253 0 0 1 2.25-2.25h106a2.253 2.253 0 0 1 2.25 2.25z"/><path d="m115 21.25h-102a1.75 1.75 0 0 0 -1.75 1.75v66a1.75 1.75 0 0 0 1.75 1.75h102a1.75 1.75 0 0 0 1.75-1.75v-66a1.75 1.75 0 0 0 -1.75-1.75zm-1.75 66h-98.5v-62.5h98.5z"/></g></svg>