<?xml version="1.0" encoding="UTF-8"?>
<svg xmlns="http://www.w3.org/2000/svg" width="512" height="512" viewBox="0 0 128 128"><g><path d="M117,15.25H11A5.757,5.757,0,0,0,5.25,21V91A5.757,5.757,0,0,0,11,96.75H56.25v12.5H38a1.75,1.75,0,0,0,0,3.5H90a1.75,1.75,0,0,0,0-3.5H71.75V96.75H117A5.757,5.757,0,0,0,122.75,91V21A5.757,5.757,0,0,0,117,15.25Zm-48.75,94h-8.5V96.75h8.5Zm51-18.25A2.253,2.253,0,0,1,117,93.25H11A2.253,2.253,0,0,1,8.75,91V21A2.253,2.253,0,0,1,11,18.75H117A2.253,2.253,0,0,1,119.25,21Z"/><path d="M115,21.25H13A1.75,1.75,0,0,0,11.25,23V89A1.75,1.75,0,0,0,13,90.75H115A1.75,1.75,0,0,0,116.75,89V23A1.75,1.75,0,0,0,115,21.25Zm-1.75,66H14.75V24.75h98.5Z"/><path d="M43,53.75A7.75,7.75,0,1,0,35.25,46,7.759,7.759,0,0,0,43,53.75Zm0-12A4.25,4.25,0,1,1,38.75,46,4.255,4.255,0,0,1,43,41.75Z"/><path d="M43,58.75A21.6,21.6,0,0,0,62.6,46.711a1.744,1.744,0,0,0,0-1.422A21.6,21.6,0,0,0,43,33.25,21.6,21.6,0,0,0,23.4,45.289a1.744,1.744,0,0,0,0,1.422A21.6,21.6,0,0,0,43,58.75Zm0-22A18.1,18.1,0,0,1,59.034,46,18.1,18.1,0,0,1,43,55.25,18.1,18.1,0,0,1,26.966,46,18.1,18.1,0,0,1,43,36.75Z"/><path d="M71,68.75h32a1.75,1.75,0,0,0,0-3.5H72.75V35a1.75,1.75,0,0,0-3.5,0V67A1.75,1.75,0,0,0,71,68.75Z"/><path d="M61,75.25H54a1.75,1.75,0,0,0,0,3.5h7a1.75,1.75,0,0,0,0-3.5Z"/><path d="M46,75.25H25a1.75,1.75,0,0,0,0,3.5H46a1.75,1.75,0,0,0,0-3.5Z"/><path d="M71,78.75h32a1.75,1.75,0,0,0,0-3.5H71a1.75,1.75,0,0,0,0,3.5Z"/><path d="M61,65.25H25a1.75,1.75,0,0,0,0,3.5H61a1.75,1.75,0,0,0,0-3.5Z"/><path d="M77.1,61.5a1.745,1.745,0,0,0,2.4-.6l6.547-10.876,7.766,1.431a1.748,1.748,0,0,0,1.817-.819L104.5,35.9a1.749,1.749,0,0,0-3-1.8L93.255,47.8l-7.767-1.43a1.739,1.739,0,0,0-1.816.819L76.5,59.1A1.748,1.748,0,0,0,77.1,61.5Z"/></g></svg>
