<svg height="512" viewBox="0 0 128 128" width="512" xmlns="http://www.w3.org/2000/svg"><g><path d="m87.688 42.061a1.743 1.743 0 0 0 1.238-.512l5.6-5.6a8.75 8.75 0 1 0 -2.475-2.475l-5.6 5.6a1.75 1.75 0 0 0 1.237 2.987zm7.955-17.128a5.25 5.25 0 1 1 0 7.424 5.211 5.211 0 0 1 0-7.424z"/><path d="m39.075 86.451-5.605 5.6a8.764 8.764 0 0 0 -11.013 1.113 8.749 8.749 0 1 0 13.488 1.366l5.6-5.6a1.75 1.75 0 0 0 -2.474-2.475zm-6.719 16.616a5.249 5.249 0 1 1 -7.423-7.424 5.25 5.25 0 1 1 7.424 7.424z"/><path d="m114 55.25a8.765 8.765 0 0 0 -8.574 7h-15.742a25.782 25.782 0 0 0 -23.934-23.934v-15.742a8.75 8.75 0 1 0 -3.5 0v15.742a25.781 25.781 0 0 0 -23.934 23.934h-15.742a8.75 8.75 0 1 0 0 3.5h15.742a25.781 25.781 0 0 0 23.934 23.934v15.742a8.75 8.75 0 1 0 3.5 0v-15.742a25.782 25.782 0 0 0 23.934-23.934h15.742a8.75 8.75 0 1 0 8.574-10.5zm-100 14a5.25 5.25 0 1 1 5.25-5.25 5.256 5.256 0 0 1 -5.25 5.25zm72.175-7h-10.633a54.379 54.379 0 0 0 -1.082-9.625 25.663 25.663 0 0 0 5.915-3.669 22.166 22.166 0 0 1 5.8 13.294zm-22.175 24c-2.253 0-4.656-3.346-6.25-8.7a22.39 22.39 0 0 1 12.5 0c-1.594 5.35-3.997 8.7-6.25 8.7zm9.571-7.412a22.18 22.18 0 0 1 4.211 2.61 22.222 22.222 0 0 1 -7.053 3.759 25.371 25.371 0 0 0 2.842-6.369zm-16.3 6.369a22.211 22.211 0 0 1 -7.053-3.759 22.2 22.2 0 0 1 4.21-2.61 25.371 25.371 0 0 0 2.843 6.369zm6.729-12.048a25.791 25.791 0 0 0 -7.091.992 50.724 50.724 0 0 1 -.941-8.4h16.064a50.724 50.724 0 0 1 -.941 8.4 25.791 25.791 0 0 0 -7.091-.992zm-8.032-10.909a50.724 50.724 0 0 1 .941-8.4 25.84 25.84 0 0 0 14.182 0 50.724 50.724 0 0 1 .941 8.4zm8.032-20.5c2.253 0 4.656 3.346 6.25 8.7a22.39 22.39 0 0 1 -12.5 0c1.593-5.35 3.997-8.7 6.25-8.7zm-9.572 7.412a22.2 22.2 0 0 1 -4.21-2.61 22.211 22.211 0 0 1 7.053-3.759 25.388 25.388 0 0 0 -2.843 6.369zm16.3-6.369a22.222 22.222 0 0 1 7.053 3.759 22.18 22.18 0 0 1 -4.211 2.61 25.371 25.371 0 0 0 -2.841-6.369zm-11.978-28.793a5.25 5.25 0 1 1 5.25 5.25 5.256 5.256 0 0 1 -5.25-5.25zm-11.125 34.956a25.629 25.629 0 0 0 5.915 3.669 54.379 54.379 0 0 0 -1.082 9.625h-10.633a22.166 22.166 0 0 1 5.8-13.294zm-5.8 16.794h10.633a54.379 54.379 0 0 0 1.082 9.625 25.656 25.656 0 0 0 -5.916 3.669 22.171 22.171 0 0 1 -5.799-13.294zm27.425 48.25a5.25 5.25 0 1 1 -5.25-5.25 5.256 5.256 0 0 1 5.25 5.25zm11.125-34.956a25.663 25.663 0 0 0 -5.915-3.669 54.379 54.379 0 0 0 1.082-9.625h10.633a22.166 22.166 0 0 1 -5.8 13.294zm33.625-9.794a5.25 5.25 0 1 1 5.25-5.25 5.256 5.256 0 0 1 -5.25 5.25z"/><path d="m94.53 92.056-5.6-5.605a1.75 1.75 0 0 0 -2.475 2.475l5.6 5.6a8.752 8.752 0 1 0 2.475-2.474zm8.537 11.011a5.249 5.249 0 1 1 1.538-3.712 5.209 5.209 0 0 1 -1.538 3.712z"/><path d="m28.644 37.391a8.748 8.748 0 0 0 4.826-1.446l5.605 5.6a1.75 1.75 0 0 0 2.474-2.475l-5.6-5.6a8.758 8.758 0 1 0 -7.3 3.921zm-3.712-12.458a5.249 5.249 0 0 1 7.424 0 5.25 5.25 0 1 1 -7.425 0z"/></g></svg>