<?xml version="1.0" encoding="UTF-8"?>
<svg xmlns="http://www.w3.org/2000/svg" width="512" height="512" viewBox="0 0 128 128"><g><path d="M59.5,81.75A1.75,1.75,0,0,0,61.25,80V75.75h5.5V80a1.75,1.75,0,0,0,3.5,0V68a1.75,1.75,0,0,0-3.5,0v4.25h-5.5V68a1.75,1.75,0,0,0-3.5,0V80A1.75,1.75,0,0,0,59.5,81.75Z"/><path d="M76.5,81.75A1.749,1.749,0,0,0,78.25,80V75.75H81a4.75,4.75,0,0,0,0-9.5H76.5A1.749,1.749,0,0,0,74.75,68V80A1.749,1.749,0,0,0,76.5,81.75Zm1.75-12H81a1.25,1.25,0,0,1,0,2.5H78.25Z"/><path d="M42.25,80a1.75,1.75,0,0,0,3.5,0V75.75H48.5a4.75,4.75,0,0,0,0-9.5H44A1.751,1.751,0,0,0,42.25,68Zm3.5-10.25H48.5a1.25,1.25,0,0,1,0,2.5H45.75Z"/><path d="M96,56.25H32A1.75,1.75,0,0,0,30.25,58V90A1.75,1.75,0,0,0,32,91.75H96A1.749,1.749,0,0,0,97.75,90V58A1.749,1.749,0,0,0,96,56.25Zm-1.75,32H33.75V59.75h60.5Z"/><path d="M117,12.25H11A5.757,5.757,0,0,0,5.25,18v92A5.757,5.757,0,0,0,11,115.75H117a5.756,5.756,0,0,0,5.75-5.75V18A5.756,5.756,0,0,0,117,12.25ZM11,15.75H117A2.253,2.253,0,0,1,119.25,18V32.25H8.75V18A2.253,2.253,0,0,1,11,15.75Zm106,96.5H11A2.253,2.253,0,0,1,8.75,110V35.75h110.5V110A2.253,2.253,0,0,1,117,112.25Z"/><circle cx="17" cy="24" r="2.25"/><circle cx="27.5" cy="24" r="2.25"/><circle cx="38" cy="24" r="2.25"/></g></svg>
