<?xml version="1.0" encoding="UTF-8"?>
<svg xmlns="http://www.w3.org/2000/svg" width="512" height="512" viewBox="0 0 128 128"><g><path d="M83,67.637H56.652v-8.1a25.548,25.548,0,0,0,9.459-15.3l2.971-.675a5.968,5.968,0,0,0,4.668-5.849v-2.97a5.142,5.142,0,0,0-3.4-4.822V22.755A10.451,10.451,0,0,0,59.244,12.324l-2.978.187A20.31,20.31,0,0,0,36.631,5.675,16.376,16.376,0,0,0,23.649,21.641v8.273a5.142,5.142,0,0,0-3.4,4.822v2.97a5.968,5.968,0,0,0,4.668,5.849l2.971.675a25.548,25.548,0,0,0,9.459,15.3v8.1H11a5.757,5.757,0,0,0-5.75,5.75V117A5.757,5.757,0,0,0,11,122.75H83A5.757,5.757,0,0,0,88.75,117V73.387A5.757,5.757,0,0,0,83,67.637ZM70.25,37.706a2.486,2.486,0,0,1-1.944,2.436l-1.749.4c.019-.4.036-.792.036-1.191V33.087H68.6a1.651,1.651,0,0,1,1.649,1.649ZM37.345,9.1a16.784,16.784,0,0,1,16.726,6.269,1.723,1.723,0,0,0,1.505.69l3.887-.244a6.951,6.951,0,0,1,7.388,6.938v6.832H64.843A11.126,11.126,0,0,1,54.674,23.18a1.75,1.75,0,0,0-2.871-.554c-.068.069-6.97,6.961-22.646,6.961H27.149V21.641A12.861,12.861,0,0,1,37.345,9.1ZM25.694,40.142a2.486,2.486,0,0,1-1.944-2.436v-2.97A1.651,1.651,0,0,1,25.4,33.087h2.008v6.261c0,.4.017.8.036,1.191Zm5.213-.794v-6.3c11.661-.367,18.642-4.313,21.653-6.522a14.372,14.372,0,0,0,10.533,6.456v6.363a22.037,22.037,0,0,1-9.208,17.9,11.848,11.848,0,0,1-13.77,0A22.037,22.037,0,0,1,30.907,39.348Zm9.941,22.3a15.228,15.228,0,0,0,12.3,0v5.987h-12.3ZM85.25,117A2.252,2.252,0,0,1,83,119.25H11A2.252,2.252,0,0,1,8.75,117V73.387A2.252,2.252,0,0,1,11,71.137H83a2.252,2.252,0,0,1,2.25,2.25Z"/><path d="M85.95,37.5l6,4.5a1.75,1.75,0,0,0,2.1-2.8l-4.133-3.1L94.05,33a1.75,1.75,0,1,0-2.1-2.8l-6,4.5a1.75,1.75,0,0,0,0,2.8Z"/><path d="M105.6,41.649a1.75,1.75,0,0,0,2.45.35l6-4.5a1.75,1.75,0,0,0,0-2.8l-6-4.5a1.75,1.75,0,0,0-2.1,2.8l4.133,3.1-4.133,3.1A1.75,1.75,0,0,0,105.6,41.649Z"/><path d="M97.447,43.759a1.745,1.745,0,0,0,2.213-1.107l4-12a1.75,1.75,0,0,0-3.32-1.106l-4,12A1.749,1.749,0,0,0,97.447,43.759Z"/><path d="M121,19.349H79a1.751,1.751,0,0,0-1.75,1.75v30A1.751,1.751,0,0,0,79,52.849h6.25V60.1a1.75,1.75,0,0,0,2.921,1.3l9.5-8.551H121a1.751,1.751,0,0,0,1.75-1.75v-30A1.751,1.751,0,0,0,121,19.349Zm-1.75,30H97a1.753,1.753,0,0,0-1.171.449L88.75,56.17V51.1A1.751,1.751,0,0,0,87,49.349H80.75v-26.5h38.5Z"/><path d="M47,86.443a8.75,8.75,0,1,0,8.75,8.75A8.76,8.76,0,0,0,47,86.443Zm0,14a5.25,5.25,0,1,1,5.25-5.25A5.256,5.256,0,0,1,47,100.443Z"/></g></svg>
