<?xml version="1.0" encoding="UTF-8"?>
<svg xmlns="http://www.w3.org/2000/svg" width="512" height="512" viewBox="0 0 128 128"><g><path d="M111.845,49.514l-6.66-35.267a1.749,1.749,0,0,0-.966-1.254C103.557,12.677,87.725,5.25,64,5.25s-39.557,7.427-40.219,7.743a1.747,1.747,0,0,0-.966,1.254l-6.66,35.267A63.1,63.1,0,0,0,63.594,122.7a1.741,1.741,0,0,0,.812,0A63.1,63.1,0,0,0,111.845,49.514ZM64,119.2A59.6,59.6,0,0,1,19.594,50.164L26.083,15.8A101.4,101.4,0,0,1,64,8.75,101.387,101.387,0,0,1,101.916,15.8l6.49,34.362A59.6,59.6,0,0,1,64,119.2Z"/><path d="M95.078,22.7A1.749,1.749,0,0,0,93.9,21.363a99.256,99.256,0,0,0-59.8,0A1.752,1.752,0,0,0,32.923,22.7l-5.468,28.95A51.513,51.513,0,0,0,63.5,110.779a1.735,1.735,0,0,0,1,0,51.511,51.511,0,0,0,36.047-59.131ZM64,107.273A48.02,48.02,0,0,1,30.9,52.3l5.273-27.925a95.948,95.948,0,0,1,55.665,0L97.105,52.3A48.019,48.019,0,0,1,64,107.273Z"/><path d="M64,37.25A23.75,23.75,0,1,0,87.75,61,23.777,23.777,0,0,0,64,37.25Zm0,44A20.25,20.25,0,1,1,84.25,61,20.273,20.273,0,0,1,64,81.25Z"/><path d="M72.989,49.837a1.749,1.749,0,0,0-2.475,0l-8.989,8.988-4.039-4.039a1.8,1.8,0,0,0-2.475,0L50.2,59.6a1.75,1.75,0,0,0,0,2.474l10.09,10.089a1.748,1.748,0,0,0,2.474,0L77.8,57.124a1.749,1.749,0,0,0,0-2.475ZM61.525,68.451,53.91,60.837,56.248,58.5l4.04,4.039a1.748,1.748,0,0,0,2.474,0l8.99-8.988,2.337,2.338Z"/></g></svg>
