<?xml version="1.0" encoding="UTF-8"?>
<svg xmlns="http://www.w3.org/2000/svg" width="512" height="512" viewBox="0 0 128 128"><g><path d="M117,13.25H11A5.757,5.757,0,0,0,5.25,19V93A5.757,5.757,0,0,0,11,98.75H47.25V109a5.719,5.719,0,0,0,.459,2.25H38a1.75,1.75,0,0,0,0,3.5h70a4.756,4.756,0,0,0,4.75-4.75V98.75H117A5.757,5.757,0,0,0,122.75,93V19A5.757,5.757,0,0,0,117,13.25ZM11,16.75H117A2.253,2.253,0,0,1,119.25,19V81.25h-6.5V54A4.756,4.756,0,0,0,108,49.25H76A4.756,4.756,0,0,0,71.25,54V81.25H8.75V19A2.252,2.252,0,0,1,11,16.75Zm45.75,82h14.5v6.5H56.75ZM8.75,93V84.75h62.5v10.5H11A2.252,2.252,0,0,1,8.75,93Zm42,16V98.75h2.5V107A1.751,1.751,0,0,0,55,108.75H71.25V110a4.7,4.7,0,0,0,.188,1.25H53A2.252,2.252,0,0,1,50.75,109Zm58.5,1a1.251,1.251,0,0,1-1.25,1.25H76A1.25,1.25,0,0,1,74.75,110V54A1.25,1.25,0,0,1,76,52.75h32A1.251,1.251,0,0,1,109.25,54ZM117,95.25h-4.25V84.75h6.5V93A2.253,2.253,0,0,1,117,95.25Z"/><path d="M95,105.25H89a1.75,1.75,0,0,0,0,3.5h6a1.75,1.75,0,0,0,0-3.5Z"/><circle cx="92" cy="57.25" r="2"/><path d="M103,69.25H98a1.75,1.75,0,0,0,0,3.5h.775L82.75,88.775V88a1.75,1.75,0,0,0-3.5,0v5A1.75,1.75,0,0,0,81,94.75h5a1.75,1.75,0,0,0,0-3.5h-.775L101.25,75.225V76a1.75,1.75,0,0,0,3.5,0V71A1.75,1.75,0,0,0,103,69.25Z"/></g></svg>
