<?xml version="1.0" encoding="UTF-8"?>
<svg xmlns="http://www.w3.org/2000/svg" width="512" height="512" viewBox="0 0 128 128"><g><path d="M117,12.25H11A5.756,5.756,0,0,0,5.25,18v92A5.756,5.756,0,0,0,11,115.75H117a5.756,5.756,0,0,0,5.75-5.75V18A5.756,5.756,0,0,0,117,12.25ZM11,15.75H117A2.253,2.253,0,0,1,119.25,18V32.25H8.75V18A2.253,2.253,0,0,1,11,15.75Zm106,96.5H11A2.253,2.253,0,0,1,8.75,110V35.75h110.5V110A2.253,2.253,0,0,1,117,112.25Z"/><circle cx="17" cy="24" r="2.25"/><circle cx="27.5" cy="24" r="2.25"/><circle cx="38" cy="24" r="2.25"/><path d="M19.95,55.9l8.66,6.5a1.75,1.75,0,0,0,2.1-2.8L23.917,54.5l6.793-5.095a1.75,1.75,0,0,0-2.1-2.8l-8.66,6.5a1.75,1.75,0,0,0,0,2.8Z"/><path d="M48.467,62.045a1.752,1.752,0,0,0,2.45.351l8.66-6.5a1.75,1.75,0,0,0,0-2.8l-8.66-6.5a1.75,1.75,0,0,0-2.1,2.8L55.61,54.5,48.817,59.6A1.751,1.751,0,0,0,48.467,62.045Z"/><path d="M36.323,64.82a1.727,1.727,0,0,0,.554.09,1.75,1.75,0,0,0,1.66-1.2l5.773-17.32a1.75,1.75,0,0,0-3.32-1.108l-5.773,17.32A1.749,1.749,0,0,0,36.323,64.82Z"/><path d="M107,98.25H94.264a1.75,1.75,0,0,0,0,3.5H107a1.75,1.75,0,0,0,0-3.5Z"/><path d="M84.264,98.25H21a1.75,1.75,0,0,0,0,3.5H84.264a1.75,1.75,0,1,0,0-3.5Z"/><path d="M21,75.75H33.736a1.75,1.75,0,0,0,0-3.5H21a1.75,1.75,0,0,0,0,3.5Z"/><path d="M107,72.25H43.736a1.75,1.75,0,1,0,0,3.5H107a1.75,1.75,0,0,0,0-3.5Z"/><path d="M107,85.25H94.264a1.75,1.75,0,0,0,0,3.5H107a1.75,1.75,0,0,0,0-3.5Z"/><path d="M84.264,85.25H43.736a1.75,1.75,0,1,0,0,3.5H84.264a1.75,1.75,0,1,0,0-3.5Z"/><path d="M21,88.75H33.736a1.75,1.75,0,0,0,0-3.5H21a1.75,1.75,0,0,0,0,3.5Z"/><path d="M107,59.25H71.527a1.75,1.75,0,1,0,0,3.5H107a1.75,1.75,0,0,0,0-3.5Z"/><path d="M107,46.25H71.527a1.75,1.75,0,0,0,0,3.5H107a1.75,1.75,0,0,0,0-3.5Z"/></g></svg>
