<svg height="512" viewBox="0 0 128 128" width="512" xmlns="http://www.w3.org/2000/svg"><g><path d="m117 12.25h-106a5.757 5.757 0 0 0 -5.75 5.75v92a5.757 5.757 0 0 0 5.75 5.75h106a5.757 5.757 0 0 0 5.75-5.75v-92a5.757 5.757 0 0 0 -5.75-5.75zm-106 3.5h106a2.253 2.253 0 0 1 2.25 2.25v14.25h-110.5v-14.25a2.253 2.253 0 0 1 2.25-2.25zm106 96.5h-106a2.253 2.253 0 0 1 -2.25-2.25v-74.25h110.5v74.25a2.253 2.253 0 0 1 -2.25 2.25z"/><circle cx="17" cy="24" r="2.25"/><circle cx="27.5" cy="24" r="2.25"/><circle cx="38" cy="24" r="2.25"/><path d="m107 61.25h-86a1.75 1.75 0 0 0 -1.75 1.75v22a1.75 1.75 0 0 0 1.75 1.75h86a1.75 1.75 0 0 0 1.75-1.75v-22a1.75 1.75 0 0 0 -1.75-1.75zm-84.25 3.5h60.5v18.5h-60.5zm82.5 18.5h-18.5v-18.5h18.5z"/><path d="m30 68.25a1.75 1.75 0 0 0 -1.75 1.75v8a1.75 1.75 0 0 0 3.5 0v-8a1.75 1.75 0 0 0 -1.75-1.75z"/><path d="m95.412 79.059a5.616 5.616 0 0 0 2.555-.617l1.281 1.281a1.75 1.75 0 0 0 2.475-2.475l-1.281-1.281a5.643 5.643 0 1 0 -5.03 3.092zm0-7.794a2.146 2.146 0 0 1 1.519 3.664 2.147 2.147 0 1 1 -1.517-3.665z"/></g></svg>