<?xml version="1.0" encoding="UTF-8"?>
<svg xmlns="http://www.w3.org/2000/svg" width="512" height="512" viewBox="0 0 128 128"><g><path d="M117,13.25H11A5.756,5.756,0,0,0,5.25,19V93A5.756,5.756,0,0,0,11,98.75H47.25V109a5.723,5.723,0,0,0,.459,2.25H38a1.75,1.75,0,0,0,0,3.5H90a1.75,1.75,0,0,0,0-3.5H80.291A5.723,5.723,0,0,0,80.75,109V98.75H117A5.756,5.756,0,0,0,122.75,93V19A5.756,5.756,0,0,0,117,13.25ZM11,16.75H117A2.253,2.253,0,0,1,119.25,19V81.25H8.75V19A2.253,2.253,0,0,1,11,16.75ZM77.25,109A2.253,2.253,0,0,1,75,111.25H53A2.253,2.253,0,0,1,50.75,109V98.75h2.5V107A1.749,1.749,0,0,0,55,108.75H73A1.749,1.749,0,0,0,74.75,107V98.75h2.5ZM56.75,98.75h14.5v6.5H56.75ZM117,95.25H11A2.253,2.253,0,0,1,8.75,93V84.75h110.5V93A2.253,2.253,0,0,1,117,95.25Z"/><path d="M70.394,57.607l6.315,18.947a1.75,1.75,0,0,0,1.538,1.192c.041,0,.082,0,.123,0a1.749,1.749,0,0,0,1.566-.971l3.933-7.91,7.91-3.933a1.75,1.75,0,0,0-.225-3.227L72.607,55.394a1.749,1.749,0,0,0-2.213,2.213ZM86.426,63.69,81.784,66a1.757,1.757,0,0,0-.788.788l-2.307,4.642L74.82,59.82Z"/><path d="M43,33.75A1.749,1.749,0,0,0,44.75,32V29.75H47a1.75,1.75,0,0,0,0-3.5H43A1.749,1.749,0,0,0,41.25,28v4A1.749,1.749,0,0,0,43,33.75Z"/><path d="M81,29.75h2.25V32a1.75,1.75,0,0,0,3.5,0V28A1.749,1.749,0,0,0,85,26.25H81a1.75,1.75,0,0,0,0,3.5Z"/><path d="M43,71.75h4a1.75,1.75,0,0,0,0-3.5H44.75V66a1.75,1.75,0,0,0-3.5,0v4A1.749,1.749,0,0,0,43,71.75Z"/><path d="M57.667,71.75h1a1.75,1.75,0,0,0,0-3.5h-1a1.75,1.75,0,0,0,0,3.5Z"/><path d="M69.333,71.75h1a1.75,1.75,0,0,0,0-3.5h-1a1.75,1.75,0,0,0,0,3.5Z"/><path d="M57.667,29.75h1a1.75,1.75,0,0,0,0-3.5h-1a1.75,1.75,0,0,0,0,3.5Z"/><path d="M69.333,29.75h1a1.75,1.75,0,0,0,0-3.5h-1a1.75,1.75,0,0,0,0,3.5Z"/><path d="M43,45.417a1.749,1.749,0,0,0,1.75-1.75v-1a1.75,1.75,0,0,0-3.5,0v1A1.749,1.749,0,0,0,43,45.417Z"/><path d="M43,57.083a1.749,1.749,0,0,0,1.75-1.75v-1a1.75,1.75,0,0,0-3.5,0v1A1.749,1.749,0,0,0,43,57.083Z"/><path d="M86.75,42.667a1.75,1.75,0,0,0-3.5,0v1a1.75,1.75,0,0,0,3.5,0Z"/><path d="M85,52.583a1.749,1.749,0,0,0-1.75,1.75v1a1.75,1.75,0,0,0,3.5,0v-1A1.749,1.749,0,0,0,85,52.583Z"/></g></svg>
