<?xml version="1.0" encoding="UTF-8"?>
<svg xmlns="http://www.w3.org/2000/svg" width="512" height="512" viewBox="0 0 128 128"><g><path d="M46.842,41.224a1.75,1.75,0,0,0,1.75-1.75v-4a1.75,1.75,0,0,0-3.5,0v4A1.751,1.751,0,0,0,46.842,41.224Z"/><path d="M54.842,41.224a1.75,1.75,0,0,0,1.75-1.75v-4a1.75,1.75,0,0,0-3.5,0v4A1.751,1.751,0,0,0,54.842,41.224Z"/><path d="M46.842,60.25A1.751,1.751,0,0,0,45.092,62v4a1.75,1.75,0,0,0,3.5,0V62A1.75,1.75,0,0,0,46.842,60.25Z"/><path d="M54.842,60.25A1.751,1.751,0,0,0,53.092,62v4a1.75,1.75,0,0,0,3.5,0V62A1.75,1.75,0,0,0,54.842,60.25Z"/><path d="M46.842,86.776a1.751,1.751,0,0,0-1.75,1.75v4a1.75,1.75,0,0,0,3.5,0v-4A1.75,1.75,0,0,0,46.842,86.776Z"/><path d="M54.842,86.776a1.751,1.751,0,0,0-1.75,1.75v4a1.75,1.75,0,0,0,3.5,0v-4A1.75,1.75,0,0,0,54.842,86.776Z"/><path d="M69.158,39.224h12a1.75,1.75,0,0,0,0-3.5h-12a1.75,1.75,0,0,0,0,3.5Z"/><path d="M81.158,62.25h-12a1.75,1.75,0,0,0,0,3.5h12a1.75,1.75,0,1,0,0-3.5Z"/><path d="M81.158,88.776h-12a1.75,1.75,0,0,0,0,3.5h12a1.75,1.75,0,0,0,0-3.5Z"/><path d="M115,56.25a7.757,7.757,0,0,0-7.543,6H92.908V57.526a4.75,4.75,0,0,0-3-4.406V48.354a4.753,4.753,0,0,0,3-4.407V31a4.756,4.756,0,0,0-4.75-4.75H72.75V14.75H89.614a7.75,7.75,0,1,0,0-3.5H71A1.751,1.751,0,0,0,69.25,13V26.25H58.75V13A1.751,1.751,0,0,0,57,11.25H38.386a7.75,7.75,0,1,0,0,3.5H55.25v11.5H39.842A4.756,4.756,0,0,0,35.092,31V43.947a4.753,4.753,0,0,0,3,4.407V53.12a4.75,4.75,0,0,0-3,4.406V62.25H20.543a7.75,7.75,0,1,0,0,3.5H35.092v4.724a4.75,4.75,0,0,0,3,4.406v4.766a4.753,4.753,0,0,0-3,4.407V97a4.756,4.756,0,0,0,4.75,4.75H55.25v11.5H38.386a7.75,7.75,0,1,0,0,3.5H57A1.751,1.751,0,0,0,58.75,115V101.75h10.5V115A1.751,1.751,0,0,0,71,116.75H89.614a7.75,7.75,0,1,0,0-3.5H72.75v-11.5H88.158A4.756,4.756,0,0,0,92.908,97V84.053a4.753,4.753,0,0,0-3-4.407V74.88a4.75,4.75,0,0,0,3-4.406V65.75h14.549A7.747,7.747,0,1,0,115,56.25ZM97.158,8.75A4.25,4.25,0,1,1,92.908,13,4.255,4.255,0,0,1,97.158,8.75Zm-66.316,8.5A4.25,4.25,0,1,1,35.092,13,4.255,4.255,0,0,1,30.842,17.25ZM13,68.25A4.25,4.25,0,1,1,17.25,64,4.255,4.255,0,0,1,13,68.25Zm17.842,51a4.25,4.25,0,1,1,4.25-4.25A4.255,4.255,0,0,1,30.842,119.25Zm66.316-8.5a4.25,4.25,0,1,1-4.25,4.25A4.255,4.255,0,0,1,97.158,110.75Zm-7.75-40.276a1.252,1.252,0,0,1-1.25,1.25H39.842a1.252,1.252,0,0,1-1.25-1.25V57.526a1.252,1.252,0,0,1,1.25-1.25H88.158a1.252,1.252,0,0,1,1.25,1.25ZM41.592,79.3V75.224H86.408V79.3ZM86.408,48.7v4.079H41.592V48.7ZM38.592,31a1.251,1.251,0,0,1,1.25-1.25H88.158A1.251,1.251,0,0,1,89.408,31V43.947a1.251,1.251,0,0,1-1.25,1.25H39.842a1.251,1.251,0,0,1-1.25-1.25ZM89.408,97a1.251,1.251,0,0,1-1.25,1.25H39.842A1.251,1.251,0,0,1,38.592,97V84.053a1.251,1.251,0,0,1,1.25-1.25H88.158a1.251,1.251,0,0,1,1.25,1.25ZM115,68.25A4.25,4.25,0,1,1,119.25,64,4.255,4.255,0,0,1,115,68.25Z"/></g></svg>
