<?xml version="1.0" encoding="UTF-8"?>
<svg xmlns="http://www.w3.org/2000/svg" width="512" height="512" viewBox="0 0 128 128"><g><path d="M117,36.25h-3.25V31A5.756,5.756,0,0,0,108,25.25H64.977l-3.576-5.8a6.707,6.707,0,0,0-5.745-3.2H20A5.757,5.757,0,0,0,14.25,22V36.25H11A5.757,5.757,0,0,0,5.25,42v68A1.75,1.75,0,0,0,7,111.75H121a1.749,1.749,0,0,0,1.75-1.75V42A5.756,5.756,0,0,0,117,36.25ZM17.75,22A2.253,2.253,0,0,1,20,19.75H55.656a3.229,3.229,0,0,1,2.766,1.543l4.089,6.626A1.751,1.751,0,0,0,64,28.75h44A2.253,2.253,0,0,1,110.25,31v5.25H17.75Zm101.5,86.25H8.75V42A2.253,2.253,0,0,1,11,39.75H117A2.253,2.253,0,0,1,119.25,42Z"/><path d="M64,47.25A26.75,26.75,0,1,0,90.75,74,26.78,26.78,0,0,0,64,47.25Zm0,50A23.25,23.25,0,1,1,87.25,74,23.276,23.276,0,0,1,64,97.25Z"/><path d="M70,70.357a6.783,6.783,0,1,0-6.514-5.009l-6.718,3.879a6.75,6.75,0,1,0,0,9.547l6.719,3.878a6.74,6.74,0,1,0,1.746-3.033L58.514,75.74a6.532,6.532,0,0,0,0-3.48l6.718-3.879A6.732,6.732,0,0,0,70,70.357Zm0-10a3.25,3.25,0,1,1-3.25,3.25A3.254,3.254,0,0,1,70,60.357ZM52,77.25A3.25,3.25,0,1,1,55.25,74,3.254,3.254,0,0,1,52,77.25Zm18,3.893a3.25,3.25,0,1,1-3.25,3.25A3.254,3.254,0,0,1,70,81.143Z"/></g></svg>
