<?xml version="1.0" encoding="UTF-8"?>
<svg xmlns="http://www.w3.org/2000/svg" width="512" height="512" viewBox="0 0 128 128"><g><path d="M95,57.25H90.75V37A5.757,5.757,0,0,0,85,31.25H82.492L79.1,10.09a5.724,5.724,0,0,0-5.677-4.84H48.575A5.726,5.726,0,0,0,42.9,10.09L39.508,31.25H37A5.757,5.757,0,0,0,31.25,37V91A5.757,5.757,0,0,0,37,96.75h2.508L42.9,117.91a5.726,5.726,0,0,0,5.678,4.84h24.85a5.724,5.724,0,0,0,5.677-4.84l3.39-21.16H85A5.757,5.757,0,0,0,90.75,91V70.75H95A1.751,1.751,0,0,0,96.75,69V59A1.751,1.751,0,0,0,95,57.25ZM46.353,10.644A2.24,2.24,0,0,1,48.575,8.75h24.85a2.238,2.238,0,0,1,2.221,1.894l3.3,20.606H43.053ZM75.646,117.356a2.238,2.238,0,0,1-2.221,1.894H48.575a2.24,2.24,0,0,1-2.222-1.894l-3.3-20.606H78.947ZM87.25,91A2.252,2.252,0,0,1,85,93.25H37A2.252,2.252,0,0,1,34.75,91V37A2.252,2.252,0,0,1,37,34.75H85A2.252,2.252,0,0,1,87.25,37Zm6-23.75h-2.5v-6.5h2.5Z"/><path d="M61,44.25A19.75,19.75,0,1,0,80.75,64,19.773,19.773,0,0,0,61,44.25Zm0,36a16.25,16.25,0,0,1,0-32.5,1.75,1.75,0,0,1,0,3.5A12.75,12.75,0,1,0,72.9,68.534a4.906,4.906,0,0,0,3.494.625A16.268,16.268,0,0,1,61,80.25ZM70.25,64A9.25,9.25,0,1,1,61,54.75,9.26,9.26,0,0,1,70.25,64Zm5.25,1.75A1.752,1.752,0,0,1,73.75,64a12.761,12.761,0,0,0-8.216-11.9,4.906,4.906,0,0,0,.625-3.494A16.268,16.268,0,0,1,77.25,64,1.752,1.752,0,0,1,75.5,65.75Z"/></g></svg>
