<?xml version="1.0" encoding="UTF-8"?>
<svg xmlns="http://www.w3.org/2000/svg" width="512" height="512" viewBox="0 0 128 128"><g><path d="M117,21.25H76.962a30.637,30.637,0,0,0-11.985-15.7,1.753,1.753,0,0,0-1.955,0,30.647,30.647,0,0,0-11.985,15.7H11A5.756,5.756,0,0,0,5.25,27v74A5.756,5.756,0,0,0,11,106.75H47.25V117a5.719,5.719,0,0,0,.459,2.25H38a1.75,1.75,0,0,0,0,3.5H90a1.75,1.75,0,0,0,0-3.5H80.291A5.719,5.719,0,0,0,80.75,117V106.75H117a5.756,5.756,0,0,0,5.75-5.75V27A5.756,5.756,0,0,0,117,21.25Zm0,3.5A2.253,2.253,0,0,1,119.25,27V89.25h-17.3a11.76,11.76,0,0,0-11.6-10q-.35,0-.7.022a10.453,10.453,0,0,0-19.081-2.19,11.557,11.557,0,0,0-1.813-1.034V69.054h.75a1.75,1.75,0,0,0,1.728-1.476l.766-4.824h1.114l16.917,3.12a1.71,1.71,0,0,0,.318.029,1.751,1.751,0,0,0,1.75-1.75V55.679a1.752,1.752,0,0,0-.659-1.369L77.3,43.048l1.025-8.117a30.936,30.936,0,0,0-.407-10.181Zm-48.994,40.8H59.994l-.444-2.8h8.9ZM62.75,77.242V69.054h2.5v8.188a1.747,1.747,0,0,0,1.21,1.664,8.054,8.054,0,0,1,3.476,2.258,1.751,1.751,0,0,0,2.987-.713,6.953,6.953,0,0,1,13.61.98,1.751,1.751,0,0,0,2.1,1.5A8.239,8.239,0,0,1,98.4,89.25H29.6a8.239,8.239,0,0,1,9.771-6.319,1.751,1.751,0,0,0,2.1-1.5,6.953,6.953,0,0,1,13.61-.98,1.75,1.75,0,0,0,2.986.713,8.063,8.063,0,0,1,3.477-2.258A1.747,1.747,0,0,0,62.75,77.242ZM76.784,47.115l11.809,9.407v5.529L75.21,59.583ZM64,9.141a27.123,27.123,0,0,1,10.851,25.35L71.724,59.254H56.276L53.149,34.491A27.123,27.123,0,0,1,64,9.141ZM52.79,59.583,39.407,62.051V56.522l11.808-9.407ZM11,24.75H50.084a30.909,30.909,0,0,0-.407,10.181L50.7,43.048,36.566,54.31a1.752,1.752,0,0,0-.659,1.369v8.474a1.751,1.751,0,0,0,1.75,1.75,1.71,1.71,0,0,0,.318-.029l16.917-3.12h1.114l.765,4.824A1.751,1.751,0,0,0,58.5,69.054h.75v6.994a11.612,11.612,0,0,0-1.814,1.034,10.453,10.453,0,0,0-19.081,2.19q-.348-.022-.7-.022a11.76,11.76,0,0,0-11.6,10H8.75V27A2.253,2.253,0,0,1,11,24.75ZM77.25,117A2.253,2.253,0,0,1,75,119.25H53A2.253,2.253,0,0,1,50.75,117V106.75h2.5V115A1.749,1.749,0,0,0,55,116.75H73A1.749,1.749,0,0,0,74.75,115v-8.25h2.5Zm-20.5-10.25h14.5v6.5H56.75Zm60.25-3.5H11A2.253,2.253,0,0,1,8.75,101V92.75h110.5V101A2.253,2.253,0,0,1,117,103.25Z"/><path d="M64,37.75a8.25,8.25,0,1,0-8.25-8.25A8.259,8.259,0,0,0,64,37.75Zm0-13a4.75,4.75,0,1,1-4.75,4.75A4.756,4.756,0,0,1,64,24.75Z"/></g></svg>
