<?xml version="1.0" encoding="UTF-8"?>
<svg xmlns="http://www.w3.org/2000/svg" width="512" height="512" viewBox="0 0 128 128"><g><path d="M109.66,42.907A16.739,16.739,0,0,0,89.381,28.145a30.744,30.744,0,0,0-50.762,0A16.739,16.739,0,0,0,18.34,42.907,22.747,22.747,0,0,0,28,86.25h7.308a28.745,28.745,0,0,0,57.384,0H100a22.747,22.747,0,0,0,9.66-43.343ZM64,109.75A25.25,25.25,0,1,1,89.25,84.5,25.278,25.278,0,0,1,64,109.75Zm36-27H92.692a28.745,28.745,0,0,0-57.384,0H28A19.248,19.248,0,0,1,20.687,45.7a1.745,1.745,0,0,0,1.083-1.569,13.24,13.24,0,0,1,17.111-12.3,1.747,1.747,0,0,0,2-.745,27.244,27.244,0,0,1,46.244,0,1.745,1.745,0,0,0,2,.745,13.239,13.239,0,0,1,17.11,12.3,1.748,1.748,0,0,0,1.083,1.569A19.247,19.247,0,0,1,100,82.75Z"/><path d="M65.237,69.263a1.748,1.748,0,0,0-2.474,0l-11,11A1.749,1.749,0,0,0,53,83.25h4.667V98.5a1.749,1.749,0,0,0,1.75,1.75h9.166a1.749,1.749,0,0,0,1.75-1.75V83.25H75a1.749,1.749,0,0,0,1.237-2.987ZM68.583,79.75a1.749,1.749,0,0,0-1.75,1.75V96.75H61.167V81.5a1.749,1.749,0,0,0-1.75-1.75H57.225L64,72.975l6.775,6.775Z"/></g></svg>
