<?xml version="1.0" encoding="UTF-8"?>
<svg xmlns="http://www.w3.org/2000/svg" width="512" height="512" viewBox="0 0 128 128"><g><path d="M117,13.25H11A5.757,5.757,0,0,0,5.25,19V93A5.757,5.757,0,0,0,11,98.75H47.25V109a5.719,5.719,0,0,0,.459,2.25H38a1.75,1.75,0,0,0,0,3.5H90a1.75,1.75,0,0,0,0-3.5H80.291A5.719,5.719,0,0,0,80.75,109V98.75H117A5.756,5.756,0,0,0,122.75,93V19A5.756,5.756,0,0,0,117,13.25ZM11,16.75H117A2.253,2.253,0,0,1,119.25,19V81.25H8.75V19A2.253,2.253,0,0,1,11,16.75ZM77.25,109A2.253,2.253,0,0,1,75,111.25H53A2.253,2.253,0,0,1,50.75,109V98.75h2.5V107A1.75,1.75,0,0,0,55,108.75H73A1.749,1.749,0,0,0,74.75,107V98.75h2.5ZM56.75,98.75h14.5v6.5H56.75ZM117,95.25H11A2.253,2.253,0,0,1,8.75,93V84.75h110.5V93A2.253,2.253,0,0,1,117,95.25Z"/><path d="M17,52.75H60A1.75,1.75,0,0,0,61.75,51V25A1.75,1.75,0,0,0,60,23.25H17A1.75,1.75,0,0,0,15.25,25V51A1.75,1.75,0,0,0,17,52.75Zm1.75-26h39.5v22.5H18.75Z"/><path d="M17,74.75H34.5A1.75,1.75,0,0,0,36.25,73V59a1.75,1.75,0,0,0-1.75-1.75H17A1.75,1.75,0,0,0,15.25,59V73A1.75,1.75,0,0,0,17,74.75Zm1.75-14h14v10.5h-14Z"/><path d="M68,74.75h43A1.749,1.749,0,0,0,112.75,73V41A1.749,1.749,0,0,0,111,39.25H68A1.749,1.749,0,0,0,66.25,41V73A1.749,1.749,0,0,0,68,74.75Zm1.75-32h39.5v28.5H69.75Z"/><path d="M60,57.25H42.5A1.75,1.75,0,0,0,40.75,59V73a1.75,1.75,0,0,0,1.75,1.75H60A1.75,1.75,0,0,0,61.75,73V59A1.75,1.75,0,0,0,60,57.25Zm-1.75,14h-14V60.75h14Z"/><path d="M68,26.75h43a1.75,1.75,0,0,0,0-3.5H68a1.75,1.75,0,0,0,0,3.5Z"/><path d="M68,34.75H89.5a1.75,1.75,0,0,0,0-3.5H68a1.75,1.75,0,0,0,0,3.5Z"/></g></svg>
