<?xml version="1.0" encoding="UTF-8"?>
<svg xmlns="http://www.w3.org/2000/svg" width="512" height="512" viewBox="0 0 128 128"><g><path d="M117,17.75h-6.25V13.5A4.756,4.756,0,0,0,106,8.75H22a4.756,4.756,0,0,0-4.75,4.75v4.25H11A5.757,5.757,0,0,0,5.25,23.5v74A5.757,5.757,0,0,0,11,103.25H47.25V113.5a5.719,5.719,0,0,0,.459,2.25H38a1.75,1.75,0,0,0,0,3.5H90a1.75,1.75,0,0,0,0-3.5H80.291a5.719,5.719,0,0,0,.459-2.25V103.25H117a5.757,5.757,0,0,0,5.75-5.75v-74A5.757,5.757,0,0,0,117,17.75Zm0,3.5a2.252,2.252,0,0,1,2.25,2.25V85.75h-8.5V21.25Zm-96.25,9h86.5v55.5H20.75Zm1.25-18h84a1.251,1.251,0,0,1,1.25,1.25V26.75H20.75V13.5A1.25,1.25,0,0,1,22,12.25Zm-11,9h6.25v64.5H8.75V23.5A2.252,2.252,0,0,1,11,21.25ZM77.25,113.5A2.252,2.252,0,0,1,75,115.75H53a2.252,2.252,0,0,1-2.25-2.25V103.25h2.5v8.25A1.751,1.751,0,0,0,55,113.25H73a1.751,1.751,0,0,0,1.75-1.75v-8.25h2.5Zm-20.5-10.25h14.5v6.5H56.75ZM117,99.75H11A2.252,2.252,0,0,1,8.75,97.5V89.25h110.5V97.5A2.252,2.252,0,0,1,117,99.75Z"/><path d="M100,42.25H28A1.751,1.751,0,0,0,26.25,44V72A1.751,1.751,0,0,0,28,73.75h72A1.751,1.751,0,0,0,101.75,72V44A1.751,1.751,0,0,0,100,42.25Zm-1.75,28H29.75V45.75h68.5Z"/><path d="M37.764,64.217a1.75,1.75,0,0,0,3.3.566L44,58.913l2.935,5.87a1.75,1.75,0,0,0,3.3-.566l1.5-12a1.75,1.75,0,1,0-3.472-.434l-.784,6.265-1.915-3.831a1.75,1.75,0,0,0-3.13,0L40.52,58.048l-.784-6.265a1.75,1.75,0,0,0-3.472.434Z"/><path d="M57.764,64.217a1.75,1.75,0,0,0,3.3.566L64,58.913l2.935,5.87a1.75,1.75,0,0,0,3.3-.566l1.5-12a1.75,1.75,0,1,0-3.472-.434l-.784,6.265-1.915-3.831a1.75,1.75,0,0,0-3.13,0L60.52,58.048l-.784-6.265a1.75,1.75,0,0,0-3.472.434Z"/><path d="M77.764,64.217a1.75,1.75,0,0,0,3.3.566L84,58.913l2.935,5.87a1.75,1.75,0,0,0,3.3-.566l1.5-12a1.75,1.75,0,1,0-3.472-.434l-.784,6.265-1.915-3.831a1.75,1.75,0,0,0-3.13,0L80.52,58.048l-.784-6.265a1.75,1.75,0,0,0-3.472.434Z"/><circle cx="28" cy="19.5" r="2"/><circle cx="37" cy="19.5" r="2"/><circle cx="46" cy="19.5" r="2"/></g></svg>
