<?xml version="1.0" encoding="UTF-8"?>
<svg xmlns="http://www.w3.org/2000/svg" width="512" height="512" viewBox="0 0 128 128"><g><path d="M117,12.25H11A5.757,5.757,0,0,0,5.25,18v92A5.757,5.757,0,0,0,11,115.75H117a5.757,5.757,0,0,0,5.75-5.75V18A5.757,5.757,0,0,0,117,12.25ZM11,15.75H117A2.252,2.252,0,0,1,119.25,18V32.25H8.75V18A2.252,2.252,0,0,1,11,15.75Zm106,96.5H11A2.252,2.252,0,0,1,8.75,110V35.75h110.5V110A2.252,2.252,0,0,1,117,112.25Z"/><circle cx="17" cy="24" r="2.25"/><circle cx="27.5" cy="24" r="2.25"/><circle cx="38" cy="24" r="2.25"/><path d="M90,46.25H48A1.751,1.751,0,0,0,46.25,48v8.25H38A1.751,1.751,0,0,0,36.25,58v42A1.751,1.751,0,0,0,38,101.75H80A1.751,1.751,0,0,0,81.75,100V91.75H90A1.751,1.751,0,0,0,91.75,90V48A1.751,1.751,0,0,0,90,46.25Zm-11.75,52H39.75V59.75h38.5Zm10-10h-6.5V58A1.751,1.751,0,0,0,80,56.25H49.75v-6.5h38.5Z"/></g></svg>
