<svg id="O" height="512" viewBox="0 0 128 128" width="512" xmlns="http://www.w3.org/2000/svg"><path d="m107.72 71.07c4-5.79 4.09-8.26 0-14.14-2.44-3.52-2.6-4-2.24-8.49.55-6.94-.57-9-7-12-4-1.87-4.36-2.26-6.23-6.23-3-6.41-5.07-7.52-12-7-4.45.36-5 .2-8.49-2.24-5.79-4-8.26-4.09-14.15 0-3.51 2.44-4 2.6-8.49 2.24-6.93-.56-9 .57-12 7-1.87 4-2.26 4.36-6.23 6.23-6.41 3-7.53 5.06-7 12 .36 4.44.2 5-2.24 8.49-4 5.79-4.09 8.26 0 14.14 2.43 3.5 2.6 4 2.24 8.49-.56 6.94.57 9 7 12 4 1.87 4.35 2.25 6.23 6.23 3 6.4 5.05 7.53 12 7 4.46-.36 5-.21 8.49 2.24 5.8 4 8.27 4.09 14.15 0 3.53-2.44 4-2.6 8.49-2.24 6.94.56 9-.57 12-7 1.87-4 2.26-4.36 6.23-6.23 6.39-3 7.52-5 7-12-.36-4.44-.21-4.96 2.24-8.49zm-2.87-2c-2.9 4.16-3.29 5.45-2.86 10.77s.01 6.16-4.99 8.55c-4.7 2.22-5.67 3.17-7.9 7.91-2.38 5-3.09 5.41-8.55 5-5.3-.43-6.59 0-10.76 2.86-4.62 3.2-5.55 3.2-10.16 0-4.15-2.89-5.45-3.29-10.77-2.86s-6.17.07-8.54-5c-2.23-4.71-3.18-5.68-7.91-7.91-5-2.38-5.41-3.09-5-8.54s0-6.62-2.86-10.77c-3.2-4.62-3.2-5.54 0-10.16 2.9-4.17 3.29-5.46 2.86-10.77s-.07-6.17 5-8.54c4.71-2.23 5.68-3.18 7.91-7.91 2.37-5 3.07-5.41 8.54-5s6.62 0 10.77-2.86c4.62-3.2 5.54-3.2 10.16 0 4.16 2.89 5.45 3.29 10.76 2.86s6.17-.07 8.55 5c2.22 4.71 3.17 5.67 7.91 7.91 5 2.37 5.41 3.08 5 8.54s0 6.63 2.86 10.77c3.18 4.61 3.18 5.54-.02 10.16z"/><path d="m79.2 47.26-20.2 20.22-10.2-10.19a6.25 6.25 0 1 0 -8.8 8.83l14.57 14.62a6.25 6.25 0 0 0 8.84 0l24.59-24.64a6.25 6.25 0 0 0 -8.84-8.84zm6.37 6.37-24.64 24.63a2.82 2.82 0 0 1 -3.89 0l-14.61-14.61a2.75 2.75 0 0 1 3.89-3.89l11.43 11.43a1.76 1.76 0 0 0 2.48 0l21.45-21.45a2.82 2.82 0 0 1 3.89 0 2.76 2.76 0 0 1 0 3.89z"/></svg>