<svg id="O" height="512" viewBox="0 0 128 128" width="512" xmlns="http://www.w3.org/2000/svg"><path d="m102.41 17.25h-76.82a8.35 8.35 0 0 0 -8.34 8.34v83.41a1.75 1.75 0 0 0 1.75 1.75h90a1.75 1.75 0 0 0 1.75-1.75v-83.41a8.35 8.35 0 0 0 -8.34-8.34zm4.84 90h-86.5v-81.66a4.84 4.84 0 0 1 4.84-4.84h76.82a4.84 4.84 0 0 1 4.84 4.84z"/><path d="m97.14 29.74h-66.28a3.12 3.12 0 0 0 -3.12 3.12v23.54a3.12 3.12 0 0 0 3.12 3.12h66.28a3.12 3.12 0 0 0 3.12-3.12v-23.54a3.12 3.12 0 0 0 -3.12-3.12zm-.38 26.26h-65.52v-22.76h65.52z"/><path d="m75.3 65h-6a1.75 1.75 0 0 0 -1.75 1.75v6a1.75 1.75 0 0 0 1.75 1.75h6a1.76 1.76 0 0 0 1.75-1.75v-6a1.75 1.75 0 0 0 -1.75-1.75zm-1.75 6h-2.48v-2.49h2.48z"/><path d="m86.9 65h-6a1.75 1.75 0 0 0 -1.75 1.75v6a1.76 1.76 0 0 0 1.75 1.75h6a1.75 1.75 0 0 0 1.75-1.75v-6a1.75 1.75 0 0 0 -1.75-1.75zm-1.75 6h-2.48v-2.49h2.48z"/><path d="m98.51 65h-6a1.75 1.75 0 0 0 -1.75 1.75v6a1.75 1.75 0 0 0 1.75 1.75h6a1.76 1.76 0 0 0 1.75-1.75v-6a1.75 1.75 0 0 0 -1.75-1.75zm-1.75 6h-2.48v-2.49h2.48z"/><path d="m75.3 76.89h-6a1.75 1.75 0 0 0 -1.75 1.75v6a1.75 1.75 0 0 0 1.75 1.75h6a1.75 1.75 0 0 0 1.75-1.75v-6a1.75 1.75 0 0 0 -1.75-1.75zm-1.75 6h-2.48v-2.5h2.48z"/><path d="m86.9 76.89h-6a1.75 1.75 0 0 0 -1.75 1.75v6a1.75 1.75 0 0 0 1.75 1.75h6a1.75 1.75 0 0 0 1.75-1.75v-6a1.75 1.75 0 0 0 -1.75-1.75zm-1.75 6h-2.48v-2.5h2.48z"/><path d="m98.51 76.89h-6a1.75 1.75 0 0 0 -1.75 1.75v6a1.75 1.75 0 0 0 1.75 1.75h6a1.75 1.75 0 0 0 1.75-1.75v-6a1.75 1.75 0 0 0 -1.75-1.75zm-1.75 6h-2.48v-2.5h2.48z"/><path d="m75.3 88.78h-6a1.75 1.75 0 0 0 -1.75 1.75v6a1.75 1.75 0 0 0 1.75 1.75h6a1.76 1.76 0 0 0 1.75-1.75v-6a1.75 1.75 0 0 0 -1.75-1.75zm-1.75 6h-2.48v-2.5h2.48z"/><path d="m86.9 88.78h-6a1.75 1.75 0 0 0 -1.75 1.75v6a1.76 1.76 0 0 0 1.75 1.75h6a1.75 1.75 0 0 0 1.75-1.75v-6a1.75 1.75 0 0 0 -1.75-1.75zm-1.75 6h-2.48v-2.5h2.48z"/><path d="m98.51 88.78h-6a1.75 1.75 0 0 0 -1.75 1.75v6a1.75 1.75 0 0 0 1.75 1.75h6a1.76 1.76 0 0 0 1.75-1.75v-6a1.75 1.75 0 0 0 -1.75-1.75zm-1.75 6h-2.48v-2.5h2.48z"/><path d="m59.13 66.41h-28.77a1.75 1.75 0 0 0 0 3.5h1v26.35a1.75 1.75 0 0 0 1.71 1.74h23.1a1.75 1.75 0 0 0 1.75-1.75v-26.34h1.21a1.75 1.75 0 0 0 0-3.5zm-4.71 28.1h-19.6v-24.6h19.6z"/><path d="m44.78 52.32a1.75 1.75 0 0 0 2.22-1.07l.47-1.34h4.23l.47 1.34a1.75 1.75 0 1 0 3.3-1.16l-4.23-12.09a1.75 1.75 0 0 0 -1.65-1.18 1.73 1.73 0 0 0 -1.65 1.18l-4.23 12.09a1.75 1.75 0 0 0 1.07 2.23zm5.69-5.91h-1.77l.89-2.52z"/><path d="m57.61 40.34h2.73v10.33a1.75 1.75 0 0 0 3.5 0v-10.33h2.73a1.75 1.75 0 0 0 0-3.5h-9a1.75 1.75 0 0 0 0 3.5z"/><path d="m72.24 52.42a1.75 1.75 0 0 0 1.76-1.75v-7.36l2.12 2.47a1.77 1.77 0 0 0 2.66 0l2.12-2.47v7.36a1.75 1.75 0 0 0 3.5 0v-12.08a1.75 1.75 0 0 0 -3.07-1.14l-3.89 4.55-3.88-4.5a1.75 1.75 0 0 0 -3.07 1.14v12.03a1.75 1.75 0 0 0 1.75 1.75z"/></svg>