<?xml version="1.0" encoding="UTF-8"?>
<svg xmlns="http://www.w3.org/2000/svg" id="O" viewBox="0 0 128 128" width="512" height="512"><path d="M102.5,17.25h-77a8.26,8.26,0,0,0-8.25,8.25v77a8.26,8.26,0,0,0,8.25,8.25h77a8.26,8.26,0,0,0,8.25-8.25v-77A8.26,8.26,0,0,0,102.5,17.25Zm4.75,85.25a4.75,4.75,0,0,1-4.75,4.75h-77a4.75,4.75,0,0,1-4.75-4.75v-77a4.75,4.75,0,0,1,4.75-4.75h77a4.75,4.75,0,0,1,4.75,4.75Z"/><path d="M81.7,33.84A4.89,4.89,0,0,0,76.82,29H33.09a4.89,4.89,0,0,0-4.88,4.88V66.6a4.89,4.89,0,0,0,4.88,4.88H76.82A4.89,4.89,0,0,0,81.7,66.6ZM78.2,66.6A1.38,1.38,0,0,1,76.82,68H33.09a1.38,1.38,0,0,1-1.38-1.38V33.84a1.38,1.38,0,0,1,1.38-1.38H76.82a1.38,1.38,0,0,1,1.38,1.38Z"/><path d="M98,29h-8a1.75,1.75,0,0,0-1.75,1.75v8a1.75,1.75,0,0,0,1.75,1.75h8a1.75,1.75,0,0,0,1.75-1.75v-8A1.75,1.75,0,0,0,98,29Zm-1.75,8H91.83V32.46h4.46Z"/><path d="M98,44.49h-8a1.75,1.75,0,0,0-1.75,1.75v8A1.75,1.75,0,0,0,90.08,56h8a1.75,1.75,0,0,0,1.75-1.75v-8A1.75,1.75,0,0,0,98,44.49Zm-1.75,8H91.83V48h4.46Z"/><path d="M98,60h-8a1.75,1.75,0,0,0-1.75,1.75v8a1.75,1.75,0,0,0,1.75,1.75h8a1.75,1.75,0,0,0,1.75-1.75v-8A1.75,1.75,0,0,0,98,60Zm-1.75,8H91.83V63.52h4.46Z"/><path d="M93.29,81.59h-2a1.75,1.75,0,0,0,0,3.5h2a1.75,1.75,0,0,0,0-3.5Z"/><path d="M84.65,81.59h-2a1.75,1.75,0,1,0,0,3.5h2a1.75,1.75,0,0,0,0-3.5Z"/><path d="M76,81.59H74a1.75,1.75,0,0,0,0,3.5h2a1.75,1.75,0,1,0,0-3.5Z"/><path d="M93.29,88.72h-2a1.75,1.75,0,0,0,0,3.5h2a1.75,1.75,0,0,0,0-3.5Z"/><path d="M84.65,88.72h-2a1.75,1.75,0,1,0,0,3.5h2a1.75,1.75,0,0,0,0-3.5Z"/><path d="M76,88.72H74a1.75,1.75,0,0,0,0,3.5h2a1.75,1.75,0,1,0,0-3.5Z"/><path d="M93.29,95.84h-2a1.75,1.75,0,0,0,0,3.5h2a1.75,1.75,0,0,0,0-3.5Z"/><path d="M84.65,95.84h-2a1.75,1.75,0,1,0,0,3.5h2a1.75,1.75,0,0,0,0-3.5Z"/><path d="M76,95.84H74a1.75,1.75,0,0,0,0,3.5h2a1.75,1.75,0,1,0,0-3.5Z"/><path d="M62,95.84H34.69a1.75,1.75,0,0,0,0,3.5H62a1.75,1.75,0,1,0,0-3.5Z"/><path d="M62,81.59H34.69a1.75,1.75,0,0,0-1.75,1.75v7.13a1.75,1.75,0,0,0,1.75,1.75H62a1.76,1.76,0,0,0,1.75-1.75V83.34A1.76,1.76,0,0,0,62,81.59Zm-1.75,7.13H36.44V85.09H60.21Z"/><path d="M43.56,43.65a1.75,1.75,0,0,0-3.33,0L36.39,55.73a1.75,1.75,0,1,0,3.34,1.06l.41-1.29h3.51l.41,1.29a1.75,1.75,0,0,0,3.34-1.06ZM41.25,52l.65-2,.64,2Z"/><path d="M57.29,42.43H49.17a1.75,1.75,0,0,0,0,3.5h2.31V56.26a1.75,1.75,0,0,0,3.5,0V45.93h2.31a1.75,1.75,0,0,0,0-3.5Z"/><path d="M72.42,42.53a1.74,1.74,0,0,0-2,.58l-3.34,4.27L63.8,43.11a1.75,1.75,0,0,0-3.13,1.07V56.26a1.75,1.75,0,1,0,3.5,0v-7l1.58,2a1.76,1.76,0,0,0,2.76,0l1.59-2v7a1.75,1.75,0,0,0,3.5,0V44.18A1.74,1.74,0,0,0,72.42,42.53Z"/></svg>
