<?xml version="1.0" encoding="UTF-8"?>
<svg xmlns="http://www.w3.org/2000/svg" id="O" viewBox="0 0 128 128" width="512" height="512"><path d="M104.6,53.19a4.84,4.84,0,0,0,4.84-4.84v-1.1a4.83,4.83,0,0,0-4-4.75l-40.52-25a1.74,1.74,0,0,0-1.84,0l-40.52,25a4.83,4.83,0,0,0-4,4.75v1.1a4.84,4.84,0,0,0,4.84,4.84h3.8V92.06a4,4,0,0,0-2.68,3.78V99h-.46a5.51,5.51,0,0,0-5.5,5.5V109a1.75,1.75,0,0,0,1.75,1.75h87.38a1.75,1.75,0,0,0,1.75-1.75v-4.51a5.51,5.51,0,0,0-5.5-5.5h-.46V95.84a4,4,0,0,0-2.68-3.78V53.19ZM64,21.06,98.64,42.42H29.36ZM22.06,48.35v-1.1a1.33,1.33,0,0,1,1.34-1.33h81.2a1.33,1.33,0,0,1,1.34,1.33v1.1a1.34,1.34,0,0,1-1.34,1.34H23.4A1.34,1.34,0,0,1,22.06,48.35ZM84.55,92.06a4,4,0,0,0-2.68,3.78V99H74.81V95.84a4,4,0,0,0-2.68-3.78V53.19H84.55ZM46.13,99V95.84a4,4,0,0,0-2.68-3.78V53.19H55.87V92.06a4,4,0,0,0-2.68,3.78V99Zm22.5-7.18H59.37V53.19h9.26Zm-11.94,4a.54.54,0,0,1,.54-.53H70.77a.54.54,0,0,1,.54.53V99H56.69ZM40,53.19V91.81H30.7V53.19ZM28,95.84a.53.53,0,0,1,.53-.53H42.09a.54.54,0,0,1,.54.53V99H28Zm77.92,8.65v2.76H22.06v-2.76a2,2,0,0,1,2-2h79.88A2,2,0,0,1,105.94,104.49ZM85.37,99V95.84a.54.54,0,0,1,.54-.53H99.45a.53.53,0,0,1,.53.53V99ZM97.3,91.81H88.05V53.19H97.3Z"/></svg>
