<svg id="O" height="512" viewBox="0 0 128 128" width="512" xmlns="http://www.w3.org/2000/svg"><path d="m33.87 53.09a1.75 1.75 0 0 0 1.75-1.75v-.65a5.06 5.06 0 0 0 3.65-4.84 4.55 4.55 0 0 0 -3.47-4.42l-3-.74a1 1 0 0 1 -.8-1v-.56a1 1 0 0 1 1-1h1.78a1 1 0 0 1 1 1 1.75 1.75 0 0 0 3.5 0 4.62 4.62 0 0 0 -.48-2 4.5 4.5 0 0 0 -3.17-2.39v-.51a1.75 1.75 0 0 0 -3.5 0v.51a4.52 4.52 0 0 0 -3.65 4.42v.56a4.53 4.53 0 0 0 3.47 4.41l3 .74a1.06 1.06 0 0 1 .8 1 1.58 1.58 0 0 1 -1.57 1.57h-1.18a1 1 0 0 1 -.89-.54.94.94 0 0 1 -.12-.47 1.75 1.75 0 0 0 -3.5 0 4.52 4.52 0 0 0 .51 2.11 4.47 4.47 0 0 0 3.11 2.28v.52a1.75 1.75 0 0 0 1.76 1.75z"/><path d="m106 87.34h-13.57v-64.47a5.62 5.62 0 0 0 -5.62-5.62h-50.74a5.62 5.62 0 0 0 -5.62 5.62v3.63a16.61 16.61 0 0 0 0 32.52v40.82a10.92 10.92 0 0 0 10.91 10.91h58.48a11.08 11.08 0 0 0 10.91-11.23v-7.41a4.78 4.78 0 0 0 -4.75-4.77zm-85.25-44.58a13.12 13.12 0 1 1 13.12 13.12 13.11 13.11 0 0 1 -13.12-13.12zm20.61 64.49a7.41 7.41 0 0 1 -7.36-7.41v-40.46a16.62 16.62 0 0 0 0-33.24v-3.27a2.12 2.12 0 0 1 2.12-2.12h50.69a2.12 2.12 0 0 1 2.12 2.12v77a10.85 10.85 0 0 0 2.91 7.41zm65.89-7.73c0 3.55-1.68 7.76-7.15 7.76s-7.67-3.75-7.67-7.44v-9h13.57a1.27 1.27 0 0 1 1.27 1.27z"/><path d="m79.18 62.25h-33.81a1.75 1.75 0 0 0 0 3.5h33.81a1.75 1.75 0 0 0 0-3.5z"/><path d="m79.18 48.73h-14.9a1.75 1.75 0 0 0 0 3.5h14.9a1.75 1.75 0 0 0 0-3.5z"/><path d="m79.18 35.21h-14.9a1.75 1.75 0 0 0 0 3.5h14.9a1.75 1.75 0 0 0 0-3.5z"/><path d="m79.18 75.77h-33.81a1.75 1.75 0 1 0 0 3.5h33.81a1.75 1.75 0 0 0 0-3.5z"/><path d="m79.18 89.29h-33.81a1.75 1.75 0 1 0 0 3.5h33.81a1.75 1.75 0 0 0 0-3.5z"/></svg>