<?xml version="1.0" encoding="UTF-8"?>
<svg xmlns="http://www.w3.org/2000/svg" id="O" viewBox="0 0 128 128" width="512" height="512"><path d="M18.36,43.38,32.74,49A1.79,1.79,0,0,0,34,49l14.37-5.61a1.76,1.76,0,0,0,1.12-1.63V24.67h0A1.84,1.84,0,0,0,48.38,23L34,17.42a1.74,1.74,0,0,0-1.27,0L18.36,23a1.83,1.83,0,0,0-1.11,1.63V41.75A1.75,1.75,0,0,0,18.36,43.38Zm2.39-16.15,10.87,4.24V44.8L20.75,40.55ZM46,40.55,35.12,44.8V31.47L46,27.23ZM33.37,20.93l9.57,3.73L33.37,28.4l-9.56-3.74Z"/><path d="M109.64,23,95.26,17.42a1.45,1.45,0,0,0-1.24,0L79.64,23a1.82,1.82,0,0,0-1.14,1.64V41.75a1.74,1.74,0,0,0,1.12,1.63L94,49a1.79,1.79,0,0,0,1.27,0l14.38-5.61a1.75,1.75,0,0,0,1.11-1.63V24.66A1.82,1.82,0,0,0,109.64,23Zm-15-2.1,9.56,3.73L94.63,28.4l-9.57-3.74ZM82,27.23l10.88,4.24V44.8L82,40.55Zm25.25,13.32L96.38,44.8V31.47l10.87-4.24Z"/><path d="M48.38,84.67,34,79.06a1.74,1.74,0,0,0-1.27,0l-14.35,5.6a1.81,1.81,0,0,0-1.14,1.64v17.09A1.76,1.76,0,0,0,18.36,105l14.38,5.61a1.79,1.79,0,0,0,1.27,0L48.38,105a1.77,1.77,0,0,0,1.12-1.63V86.31A1.81,1.81,0,0,0,48.38,84.67Zm-15-2.1,9.57,3.73L33.37,90,23.81,86.3Zm-12.62,6.3,10.87,4.24v13.33l-10.87-4.25ZM46,102.19l-10.88,4.25V93.11L46,88.87Z"/><path d="M109.64,84.67,95.26,79.06a1.74,1.74,0,0,0-1.27,0l-14.35,5.6A1.83,1.83,0,0,0,78.5,86.3v17.09A1.75,1.75,0,0,0,79.62,105L94,110.63a1.79,1.79,0,0,0,1.27,0L109.64,105a1.76,1.76,0,0,0,1.11-1.63V86.3A1.83,1.83,0,0,0,109.64,84.67Zm-15-2.1,9.56,3.73L94.63,90,85.06,86.3ZM82,88.87l10.88,4.24v13.33L82,102.19Zm25.25,13.32-10.87,4.25V93.11l10.87-4.24Z"/><path d="M63.36,48.21,49,53.81a1.82,1.82,0,0,0-1.15,1.65V72.54A1.75,1.75,0,0,0,49,74.17l14.37,5.62a1.88,1.88,0,0,0,1.28,0L79,74.17a1.75,1.75,0,0,0,1.11-1.63V55.46A1.77,1.77,0,0,0,79,53.82L64.64,48.21A1.77,1.77,0,0,0,63.36,48.21ZM64,51.72l9.56,3.74L64,59.19l-9.56-3.73ZM51.38,58l10.87,4.25V75.59L51.38,71.35ZM65.75,75.59V62.27L76.62,58V71.35Z"/><path d="M56.81,33H71.19a1.75,1.75,0,0,0,0-3.5H56.81a1.75,1.75,0,0,0,0,3.5Z"/><path d="M71.19,95H56.81a1.75,1.75,0,0,0,0,3.5H71.19a1.75,1.75,0,0,0,0-3.5Z"/><path d="M103.56,75.05V53a1.75,1.75,0,1,0-3.5,0v22.1a1.75,1.75,0,1,0,3.5,0Z"/><path d="M24.44,53v22.1a1.75,1.75,0,0,0,3.5,0V53a1.75,1.75,0,0,0-3.5,0Z"/><path d="M82.84,76.25,87,77.85a1.75,1.75,0,1,0,1.26-3.26L84.11,73a1.75,1.75,0,0,0-1.27,3.27Z"/><path d="M84.11,53.83l4.13-1.6A1.75,1.75,0,0,0,87,49l-4.14,1.6a1.75,1.75,0,1,0,1.27,3.26Z"/><path d="M43.89,73l-4.13,1.61A1.75,1.75,0,0,0,41,77.85l4.14-1.6A1.75,1.75,0,0,0,43.89,73Z"/><path d="M45.16,50.57,41,49a1.75,1.75,0,1,0-1.26,3.26l4.13,1.6a1.75,1.75,0,1,0,1.27-3.26Z"/></svg>
