<svg id="O" height="512" viewBox="0 0 128 128" width="512" xmlns="http://www.w3.org/2000/svg"><path d="m110.75 41.48a6 6 0 0 0 -6-6h-19.96v-8.37a9.87 9.87 0 0 0 -9.86-9.86h-21.86a9.87 9.87 0 0 0 -9.86 9.86v8.34h-19.94a6 6 0 0 0 -6 6v14.45a7.84 7.84 0 0 0 2.48 5.69v36a7.78 7.78 0 0 0 7.77 7.76h73a7.78 7.78 0 0 0 7.77-7.76v-36a7.83 7.83 0 0 0 2.48-5.7zm-64-14.37a6.36 6.36 0 0 1 6.36-6.36h21.82a6.36 6.36 0 0 1 6.36 6.36v8.34h-4.5v-8.45a1.75 1.75 0 0 0 -1.79-1.75h-22a1.75 1.75 0 0 0 -1.79 1.75v8.45h-4.5zm8 8.34v-6.7h18.54v6.7zm-34 6a2.52 2.52 0 0 1 2.52-2.45h81.46a2.52 2.52 0 0 1 2.52 2.53v14.37a4.3 4.3 0 0 1 -3.2 4.15l-37.14 9.8a11.48 11.48 0 0 1 -5.82 0l-37.09-9.8a4.31 4.31 0 0 1 -3.21-4.15zm79.75 60.34h-73a4.27 4.27 0 0 1 -4.27-4.26v-34.05l37 9.75a14.91 14.91 0 0 0 7.62 0l37-9.75v34.08a4.27 4.27 0 0 1 -4.35 4.26z"/></svg>