<svg id="O" height="512" viewBox="0 0 128 128" width="512" xmlns="http://www.w3.org/2000/svg"><path d="m64 28.6a26.15 26.15 0 1 0 14.16 48.13 1.75 1.75 0 0 0 .29-2.73l-8.53-8.53a1.75 1.75 0 0 0 -1.87-.4 12 12 0 0 1 -16.28-12.07l5.7 5.71a1.76 1.76 0 0 0 1.69.45l6.77-1.81a1.76 1.76 0 0 0 1.24-1.24l1.83-6.79a1.76 1.76 0 0 0 -.45-1.69l-5.71-5.7a11.85 11.85 0 0 1 9.41 3.47 12 12 0 0 1 2.71 12.81 1.75 1.75 0 0 0 .4 1.87l8.39 8.4a1.76 1.76 0 0 0 2.74-.34 26.15 26.15 0 0 0 -22.49-39.54zm20.53 35.73-6-6a15.49 15.49 0 0 0 -19.8-19.1 1.75 1.75 0 0 0 -1.14 1.26 1.73 1.73 0 0 0 .47 1.63l7.27 7.27-1.33 4.81-4.8 1.29-7.2-7.27a1.72 1.72 0 0 0 -1.63-.47 1.77 1.77 0 0 0 -1.26 1.14 15.49 15.49 0 0 0 19.1 19.84l6.16 6.16a22.63 22.63 0 1 1 10.16-10.56z"/><path d="m64 17.25a37.54 37.54 0 0 0 -37.5 37.5c0 13.12 6.34 26.93 18.34 39.94a106.94 106.94 0 0 0 18.21 15.78 1.76 1.76 0 0 0 1.9 0 106.94 106.94 0 0 0 18.21-15.78c12-13 18.34-26.82 18.34-39.94a37.54 37.54 0 0 0 -37.5-37.5zm0 89.63c-5.61-3.95-34-25.26-34-52.13a34 34 0 0 1 68 0c0 26.87-28.39 48.18-34 52.13z"/></svg>