<?xml version="1.0" encoding="UTF-8"?>
<svg xmlns="http://www.w3.org/2000/svg" id="O" viewBox="0 0 128 128" width="512" height="512"><path d="M109,88.14h-2.94l-5.38-39.67a5.8,5.8,0,0,0-5.73-5H91.12V36.78h9.09a5.47,5.47,0,0,0,5.21-5.69V22.94a5.47,5.47,0,0,0-5.21-5.69H67a5.47,5.47,0,0,0-5.22,5.69v8.15A5.47,5.47,0,0,0,67,36.78H76.1v6.69H58.18V39a1.75,1.75,0,0,0-1.75-1.75H38.26A1.75,1.75,0,0,0,36.51,39v4.48H33.05a5.8,5.8,0,0,0-5.73,5L21.94,88.14H19a1.75,1.75,0,0,0-1.75,1.75v12.73a8.14,8.14,0,0,0,8.13,8.13h77.24a8.14,8.14,0,0,0,8.13-8.13V89.89A1.75,1.75,0,0,0,109,88.14Zm-57.1,3.5H76.1v4.42a3,3,0,0,1-3,3H54.88a3,3,0,0,1-3-3ZM65.3,31.09V22.94A2,2,0,0,1,67,20.75h33.19a2,2,0,0,1,1.71,2.19v8.15a2,2,0,0,1-1.71,2.19H67A2,2,0,0,1,65.3,31.09Zm14.3,5.69h8v6.69h-8ZM40,40.74H54.68V63.93H40Zm-9.22,8.2a2.28,2.28,0,0,1,2.26-2h3.46v17H34.56a1.75,1.75,0,0,0,0,3.5H60.13a1.75,1.75,0,0,0,0-3.5h-2V47H95a2.29,2.29,0,0,1,2.26,2l5.32,39.2H25.47Zm76.46,53.68a4.64,4.64,0,0,1-4.63,4.63H25.38a4.64,4.64,0,0,1-4.63-4.63v-11H48.4v4.42a6.49,6.49,0,0,0,6.48,6.48H73.12a6.49,6.49,0,0,0,6.48-6.48V91.64h27.65Z"/><path d="M74.29,56.44H72.85a1.75,1.75,0,0,0,0,3.5h1.44a1.75,1.75,0,1,0,0-3.5Z"/><path d="M82.21,56.44H80.77a1.75,1.75,0,1,0,0,3.5h1.44a1.75,1.75,0,0,0,0-3.5Z"/><path d="M90.13,56.44H88.69a1.75,1.75,0,0,0,0,3.5h1.44a1.75,1.75,0,0,0,0-3.5Z"/><path d="M74.29,62.68H72.85a1.75,1.75,0,0,0,0,3.5h1.44a1.75,1.75,0,0,0,0-3.5Z"/><path d="M82.21,62.68H80.77a1.75,1.75,0,1,0,0,3.5h1.44a1.75,1.75,0,0,0,0-3.5Z"/><path d="M90.13,62.68H88.69a1.75,1.75,0,1,0,0,3.5h1.44a1.75,1.75,0,0,0,0-3.5Z"/><path d="M74.29,68.93H72.85a1.75,1.75,0,0,0,0,3.5h1.44a1.75,1.75,0,1,0,0-3.5Z"/><path d="M82.21,68.93H80.77a1.75,1.75,0,1,0,0,3.5h1.44a1.75,1.75,0,0,0,0-3.5Z"/><path d="M90.13,68.93H88.69a1.75,1.75,0,0,0,0,3.5h1.44a1.75,1.75,0,0,0,0-3.5Z"/><path d="M74.29,75.17H72.85a1.75,1.75,0,0,0,0,3.5h1.44a1.75,1.75,0,0,0,0-3.5Z"/><path d="M82.21,75.17H80.77a1.75,1.75,0,0,0,0,3.5h1.44a1.75,1.75,0,0,0,0-3.5Z"/><path d="M90.13,75.17H88.69a1.75,1.75,0,0,0,0,3.5h1.44a1.75,1.75,0,0,0,0-3.5Z"/></svg>
