<?xml version="1.0" encoding="UTF-8"?>
<svg xmlns="http://www.w3.org/2000/svg" id="O" viewBox="0 0 128 128" width="512" height="512"><path d="M109,17.25H19A1.75,1.75,0,0,0,17.25,19V71.58A1.75,1.75,0,0,0,19,73.33h90a1.75,1.75,0,0,0,1.75-1.75V19A1.75,1.75,0,0,0,109,17.25Zm-1.75,52.58H20.75V20.75h86.5Z"/><path d="M27,57a6.55,6.55,0,0,1,6.54,6.54,1.75,1.75,0,0,0,1.75,1.75H92.71a1.75,1.75,0,0,0,1.75-1.75A6.55,6.55,0,0,1,101,57a1.75,1.75,0,0,0,1.75-1.75V35.37A1.75,1.75,0,0,0,101,33.62a6.54,6.54,0,0,1-6.54-6.54,1.75,1.75,0,0,0-1.75-1.75H35.29a1.75,1.75,0,0,0-1.75,1.75A6.54,6.54,0,0,1,27,33.62a1.75,1.75,0,0,0-1.75,1.75V55.21A1.75,1.75,0,0,0,27,57Zm1.75-20a10.06,10.06,0,0,0,8.14-8.14H91.11A10.06,10.06,0,0,0,99.25,37V53.61a10.08,10.08,0,0,0-8.14,8.14H36.89a10.08,10.08,0,0,0-8.14-8.14Z"/><path d="M64,57.54A12.25,12.25,0,1,0,51.75,45.29,12.27,12.27,0,0,0,64,57.54Zm0-21a8.75,8.75,0,1,1-8.75,8.75A8.77,8.77,0,0,1,64,36.54Z"/><path d="M83.9,90.94H74.25V81.42a1.76,1.76,0,0,0-1.75-1.75h-17a1.76,1.76,0,0,0-1.75,1.75v9.52H44.1A1.75,1.75,0,0,0,43,94l19.9,16.31a1.74,1.74,0,0,0,2.22,0L85,94a1.75,1.75,0,0,0-1.11-3.1ZM64,106.74,49,94.44H55.5a1.75,1.75,0,0,0,1.75-1.75V83.17h13.5v9.52a1.75,1.75,0,0,0,1.75,1.75H79Z"/></svg>
