<svg id="O" height="512" viewBox="0 0 128 128" width="512" xmlns="http://www.w3.org/2000/svg"><path d="m48.29 70.72h-1.62a1.88 1.88 0 0 1 -1.89-1.9 1.75 1.75 0 0 0 -3.5 0 5.37 5.37 0 0 0 4.82 5.36v1.16a1.75 1.75 0 0 0 3.5 0v-1.26a6.14 6.14 0 0 0 4.82-6 5.44 5.44 0 0 0 -4.15-5.29l-4-1a1.94 1.94 0 0 1 -1.48-1.89v-.74a1.9 1.9 0 0 1 1.89-1.9h2.32a1.87 1.87 0 0 1 1.89 1.9 1.75 1.75 0 0 0 3.5 0 5.36 5.36 0 0 0 -4.82-5.36v-1.14a1.75 1.75 0 0 0 -3.5 0v1.18a5.39 5.39 0 0 0 -4.82 5.34v.74a5.44 5.44 0 0 0 4.15 5.29l4 1a1.94 1.94 0 0 1 1.48 1.89 2.64 2.64 0 0 1 -2.59 2.62z"/><path d="m109 40.38h-74.47a8.73 8.73 0 0 0 -17.28 1.75v43.74a8.74 8.74 0 0 0 8.75 8.73h74.15a1.75 1.75 0 0 0 1.75-1.75v-5.23h7.1a1.75 1.75 0 0 0 1.75-1.75v-43.74a1.75 1.75 0 0 0 -1.75-1.75zm-88.25 1.75a5.23 5.23 0 1 1 10.46 0v36.75a8.73 8.73 0 0 0 -10.46 0zm77.63 49h-72.38a5.23 5.23 0 1 1 5.23-5.23 1.75 1.75 0 0 0 1.77 1.72h65.38zm8.87-7h-72.54v-40.25h72.54z"/><path d="m86 55.84h12.74a1.75 1.75 0 0 0 0-3.5h-12.74a1.75 1.75 0 1 0 0 3.5z"/><path d="m63.51 64.5h35.23a1.75 1.75 0 1 0 0-3.5h-35.23a1.75 1.75 0 1 0 0 3.5z"/><path d="m63.51 73.15h35.23a1.75 1.75 0 0 0 0-3.5h-35.23a1.75 1.75 0 1 0 0 3.5z"/></svg>