<svg id="O" height="512" viewBox="0 0 128 128" width="512" xmlns="http://www.w3.org/2000/svg"><path d="m103.11 34.27h-78.22a7.65 7.65 0 0 0 -7.64 7.64v47a7.65 7.65 0 0 0 7.64 7.64h78.22a7.65 7.65 0 0 0 7.64-7.64v-47a7.65 7.65 0 0 0 -7.64-7.64zm-78.22 3.5h78.22a4.15 4.15 0 0 1 4.14 4.14v2.86h-86.5v-2.86a4.15 4.15 0 0 1 4.14-4.14zm82.36 20.64h-86.5v-10.14h86.5zm-4.14 34.66h-78.22a4.15 4.15 0 0 1 -4.14-4.14v-27h86.5v27a4.15 4.15 0 0 1 -4.14 4.14z"/><path d="m53 69.57h-22a1.75 1.75 0 0 0 0 3.5h22a1.75 1.75 0 0 0 0-3.5z"/><path d="m53 80.72h-22a1.75 1.75 0 0 0 0 3.5h22a1.75 1.75 0 0 0 0-3.5z"/></svg>