<svg id="O" height="512" viewBox="0 0 128 128" width="512" xmlns="http://www.w3.org/2000/svg"><path d="m108.65 93.23-15.65-15.67c.16-.32.31-.64.45-1h.64a7.65 7.65 0 0 0 7.61-7.56v-41.16a7.64 7.64 0 0 0 -7.64-7.63h-69.17a7.64 7.64 0 0 0 -7.64 7.63v41.16a7.65 7.65 0 0 0 7.64 7.64h27.53a22.35 22.35 0 0 0 30.4 11.15l15.66 15.61a7.19 7.19 0 0 0 10.17-10.17zm-87.9-60.08h77.45v7.53h-77.45zm4.14-9.44h69.17a4.14 4.14 0 0 1 4.14 4.13v1.81h-77.45v-1.81a4.14 4.14 0 0 1 4.14-4.13zm-4.14 45.29v-24.82h77.45v24.82a4.13 4.13 0 0 1 -3.57 4 22.35 22.35 0 1 0 -43.38.06h-26.36a4.15 4.15 0 0 1 -4.14-4.06zm38.85 12a18.86 18.86 0 1 1 26.66 0 18.87 18.87 0 0 1 -26.66 0zm46.57 19.91a3.69 3.69 0 0 1 -5.22 0l-15-15.05a23.47 23.47 0 0 0 2.83-2.38 22.9 22.9 0 0 0 2.39-2.84l15 15a3.69 3.69 0 0 1 0 5.29z"/><path d="m65.6 65.52a1.76 1.76 0 0 0 -2.39-.64 1.75 1.75 0 0 0 -3.5 0 1.77 1.77 0 0 0 -2.4.64 1.75 1.75 0 0 0 .69 2.39 1.75 1.75 0 1 0 1.75 3 1.75 1.75 0 0 0 3.5 0 1.75 1.75 0 0 0 1.75-3 1.76 1.76 0 0 0 .6-2.39z"/><path d="m77.07 65.52a1.76 1.76 0 0 0 -2.39-.64 1.75 1.75 0 0 0 -3.5 0 1.75 1.75 0 0 0 -1.75 3 1.75 1.75 0 0 0 1.75 3 1.75 1.75 0 0 0 3.5 0 1.75 1.75 0 0 0 1.75-3 1.75 1.75 0 0 0 .64-2.36z"/><path d="m84.4 72.69a1.75 1.75 0 0 0 1.75-1.75 1.75 1.75 0 1 0 1.75-3 1.75 1.75 0 1 0 -1.75-3 1.75 1.75 0 0 0 -3.5 0 1.75 1.75 0 0 0 -1.75 3 1.76 1.76 0 0 0 -.64 2.39 1.74 1.74 0 0 0 2.39.64 1.75 1.75 0 0 0 1.75 1.72z"/></svg>