<svg id="O" height="512" viewBox="0 0 128 128" width="512" xmlns="http://www.w3.org/2000/svg"><path d="m110.41 49-15-20.67a1.85 1.85 0 0 0 -1.41-.74h-60a1.91 1.91 0 0 0 -1.42.72l-15 20.69a1.79 1.79 0 0 0 .13 2.21l45 48.66a1.77 1.77 0 0 0 2.57 0l45-48.66a1.78 1.78 0 0 0 .13-2.21zm-46.41 43.72-12.63-41h25.26zm0-60.4 11.56 15.93h-23.13zm15 14.68-11.57-15.91h23.14c-6.95 9.57-7.27 10-11.57 15.91zm-30 0-11.57-15.91h23.14c-6.95 9.57-7.27 10-11.57 15.91zm45-14.68 11.57 15.93h-23.14zm-60 0c3.85 5.31 1.35 1.87 11.57 15.93h-23.14zm13.71 19.43 12.35 40.07-37.06-40.07zm20.22 40.07 12.36-40.07h24.71z"/></svg>