<svg id="O" height="512" viewBox="0 0 128 128" width="512" xmlns="http://www.w3.org/2000/svg"><path d="m107.68 71.17c4.07-5.86 4.15-8.36 0-14.34-2.5-3.59-2.66-4.12-2.29-8.65.57-7-.56-9.09-7.06-12.16-4-1.88-4.41-2.23-6.35-6.35-3.1-6.57-5.23-7.62-12.16-7.06-4.52.36-5.06.21-8.65-2.29-5.89-4.09-8.38-4.13-14.34 0-3.59 2.5-4.12 2.65-8.65 2.29-7-.57-9.09.56-12.16 7.06-1.9 4-2.3 4.44-6.35 6.35-6.48 3.06-7.63 5.12-7.06 12.16.36 4.52.21 5-2.29 8.65-4.07 5.86-4.15 8.36 0 14.34 2.5 3.59 2.66 4.12 2.29 8.65-.57 7 .56 9.09 7.06 12.16 3.9 1.84 4.38 2.16 6.35 6.35 3.06 6.48 5.12 7.63 12.16 7.06 4.52-.36 5-.21 8.65 2.29 5.89 4.09 8.38 4.13 14.34 0 3.58-2.49 4.12-2.66 8.65-2.29 6.89.55 9-.45 12.16-7.06 1.9-4 2.3-4.44 6.35-6.35 6.48-3.06 7.63-5.12 7.06-12.16-.39-4.52-.21-5.05 2.29-8.65zm-2.88-2c-2.93 4.22-3.33 5.52-2.9 10.92.45 5.55.06 6.29-5.07 8.71-4.8 2.27-5.76 3.23-8 8-2.42 5.14-3.16 5.52-8.71 5.07s-6.71 0-10.92 2.9c-4.7 3.26-5.66 3.27-10.36 0-4.23-2.94-5.53-3.33-10.92-2.9-5.57.45-6.29 0-8.71-5.07-2.26-4.78-3.22-5.75-8-8-5.12-2.41-5.52-3.14-5.07-8.71.43-5.4 0-6.7-2.9-10.92-3.26-4.7-3.27-5.65 0-10.36 2.93-4.22 3.33-5.52 2.9-10.92s-.06-6.29 5.07-8.71c4.8-2.27 5.76-3.23 8-8 2.41-5.12 3.14-5.52 8.71-5.07 5.39.43 6.69 0 10.92-2.9 4.7-3.26 5.66-3.27 10.36 0 4.22 2.93 5.52 3.34 10.92 2.9 5.57-.45 6.3-.05 8.71 5.07 2.26 4.78 3.22 5.75 8 8 5.12 2.41 5.52 3.14 5.07 8.71-.44 5.4 0 6.71 2.9 10.92 3.26 4.71 3.27 5.66 0 10.37z"/><path d="m72.52 72.52a7.4 7.4 0 1 0 10.46 0 7.39 7.39 0 0 0 -10.46 0zm8 8a4 4 0 0 1 -5.52 0 3.9 3.9 0 1 1 5.52 0z"/><path d="m55.48 55.48a7.4 7.4 0 1 0 -10.46 0 7.39 7.39 0 0 0 10.46 0zm-8-8a3.9 3.9 0 0 1 5.52 5.52 4 4 0 0 1 -5.52 0 3.91 3.91 0 0 1 .01-5.51z"/><path d="m76.32 43.55-32.77 32.77a5.76 5.76 0 0 0 0 8.13 5.76 5.76 0 0 0 8.13 0l32.77-32.77a5.75 5.75 0 0 0 -8.13-8.13zm5.68 5.66-32.79 32.79a2.25 2.25 0 0 1 -3.21-3.21l32.79-32.79a2.25 2.25 0 0 1 3.21 3.21z"/></svg>