<svg id="O" height="512" viewBox="0 0 128 128" width="512" xmlns="http://www.w3.org/2000/svg"><path d="m22.83 58.57h80.71a7 7 0 0 0 5.09-12l-25.5-24.76a5.22 5.22 0 0 0 -8.86 3.75v10.16a1.22 1.22 0 0 1 -1.22 1.22h-50.22a5.58 5.58 0 0 0 -5.58 5.57v10.49a5.58 5.58 0 0 0 5.58 5.57zm-2.08-16.06a2.08 2.08 0 0 1 2.08-2.07h50.22a4.73 4.73 0 0 0 4.72-4.72v-10.16a1.72 1.72 0 0 1 2.92-1.24l25.5 24.77a3.49 3.49 0 0 1 -2.65 6h-80.71a2.08 2.08 0 0 1 -2.08-2.09z"/><path d="m105.17 69.43h-80.71a7 7 0 0 0 -5.09 12l25.5 24.77a5.22 5.22 0 0 0 8.86-3.75v-10.17a1.22 1.22 0 0 1 1.27-1.22h50.22a5.58 5.58 0 0 0 5.58-5.57v-10.49a5.58 5.58 0 0 0 -5.63-5.57zm2.08 16.06a2.08 2.08 0 0 1 -2.08 2.07h-50.17a4.73 4.73 0 0 0 -4.72 4.72v10.16a1.72 1.72 0 0 1 -2.92 1.24l-25.55-24.77a3.49 3.49 0 0 1 2.65-6h80.71a2.08 2.08 0 0 1 2.08 2.09z"/></svg>