<svg id="O" height="512" viewBox="0 0 128 128" width="512" xmlns="http://www.w3.org/2000/svg"><path d="m65.75 67.72v-3.26a1.75 1.75 0 0 0 -3.5 0v3.26a28.28 28.28 0 0 1 -7.39 19.07l-7.23 7.91a1.76 1.76 0 0 0 .11 2.48 1.74 1.74 0 0 0 2.47-.12l7.23-7.91a31.71 31.71 0 0 0 8.31-21.43z"/><path d="m64 35.1a29.32 29.32 0 0 0 -24.64 13.4 1.75 1.75 0 0 0 2.94 1.91 25.85 25.85 0 0 1 47.56 14v3.26a55.93 55.93 0 0 1 -2.14 15.34 1.75 1.75 0 1 0 3.37 1 59.73 59.73 0 0 0 2.27-16.3v-3.25a29.39 29.39 0 0 0 -29.36-29.36z"/><path d="m38 54.45a1.75 1.75 0 0 0 -2.38.67c-1.83 3.28-1.92 9.09-1.93 9.74a1.75 1.75 0 0 0 1.74 1.77 1.76 1.76 0 0 0 1.75-1.74c0-1.52.3-5.94 1.49-8.06a1.74 1.74 0 0 0 -.67-2.38z"/><path d="m58.34 93.91-3.17 3.48a1.75 1.75 0 0 0 2.58 2.36l3.18-3.48a1.75 1.75 0 0 0 -2.59-2.36z"/><path d="m66.33 89.76a38.94 38.94 0 0 0 6.8-22v-3.3a9.14 9.14 0 0 0 -9.75-9.11 9.29 9.29 0 0 0 -8.51 9.37v3a20.9 20.9 0 0 1 -2.67 10.28 19.65 19.65 0 0 1 -1.71 2.27 5 5 0 0 1 -7.74-6.27 8 8 0 0 0 1-1.42 10.91 10.91 0 0 0 1.13-4.83v-3.29a19.2 19.2 0 0 1 18.79-19.12 1.75 1.75 0 0 0 0-3.5 22.73 22.73 0 0 0 -22.28 22.62v3.26a7.44 7.44 0 0 1 -.74 3.28s-.13.2-.63.83a8.47 8.47 0 0 0 13.19 10.59 21.08 21.08 0 0 0 2-2.76 24.42 24.42 0 0 0 3.12-11.94v-3a5.79 5.79 0 0 1 5.24-5.88 5.64 5.64 0 0 1 6 5.62v3.26a35.49 35.49 0 0 1 -6.19 20.07 1.75 1.75 0 0 0 2.89 2z"/><path d="m76.47 45.74a1.74 1.74 0 0 0 -2.43.45 1.76 1.76 0 0 0 .46 2.44 19.75 19.75 0 0 1 8.61 16.3v2.79a49.3 49.3 0 0 1 -6.5 24.44 1.75 1.75 0 1 0 3 1.74 52.72 52.72 0 0 0 7-26.18v-2.79a23.24 23.24 0 0 0 -10.14-19.19z"/><path d="m48.13 64.46v3.26a14.25 14.25 0 0 1 -1.81 6.94 1.74 1.74 0 0 0 .68 2.34 1.76 1.76 0 0 0 2.39-.67 17.67 17.67 0 0 0 2.26-8.65v-3.22a12.37 12.37 0 0 1 24.74 0 1.75 1.75 0 0 0 3.5 0 15.87 15.87 0 0 0 -31.74 0z"/><path d="m77.79 73.44a1.75 1.75 0 0 0 -2 1.43 42.35 42.35 0 0 1 -10.5 21.44 1.73 1.73 0 0 0 .11 2.47 1.75 1.75 0 0 0 2.47-.11 45.79 45.79 0 0 0 11.35-23.21 1.75 1.75 0 0 0 -1.43-2.02z"/><path d="m83.84 36.64a30.22 30.22 0 0 1 4.91 4.11 1.75 1.75 0 0 0 2.53-2.43 33.11 33.11 0 0 0 -5.5-4.58 1.74 1.74 0 0 0 -1.94 2.9z"/><path d="m41.24 38.48a35.38 35.38 0 0 1 22.53-7.72 37.49 37.49 0 0 1 12.11 2 1.75 1.75 0 1 0 1.12-3.33 40.84 40.84 0 0 0 -13.24-2.17 38.81 38.81 0 0 0 -24.76 8.53 1.75 1.75 0 1 0 2.23 2.69z"/><path d="m100.9 17.25h-73.8a9.86 9.86 0 0 0 -9.85 9.85v73.8a9.86 9.86 0 0 0 9.85 9.85h73.8a9.86 9.86 0 0 0 9.85-9.85v-73.8a9.86 9.86 0 0 0 -9.85-9.85zm6.35 83.65a6.36 6.36 0 0 1 -6.35 6.35h-73.8a6.36 6.36 0 0 1 -6.35-6.35v-73.8a6.36 6.36 0 0 1 6.35-6.35h73.8a6.36 6.36 0 0 1 6.35 6.35z"/></svg>