<svg id="O" height="512" viewBox="0 0 128 128" width="512" xmlns="http://www.w3.org/2000/svg"><path d="m102.82 33.12h-77.64a7.94 7.94 0 0 0 -7.93 7.94v45.88a7.94 7.94 0 0 0 7.93 7.94h77.64a7.94 7.94 0 0 0 7.93-7.94v-45.88a7.94 7.94 0 0 0 -7.93-7.94zm4.43 7.94v16.49h-45.46c2.61-4.46-.18-11-6.08-11a12.27 12.27 0 0 0 -8.85 3.76v-13.69h56a4.44 4.44 0 0 1 4.39 4.44zm-72.74 9a8.88 8.88 0 0 1 8.75 7.49h-8.75c-4.74 0-4.74-7.49 0-7.49zm21.2 7.49h-8.71a8.88 8.88 0 0 1 8.75-7.49c4.69 0 4.7 7.49-.04 7.49zm-30.53-20.93h18.18v13.7a12.28 12.28 0 0 0 -8.85-3.76c-5.8 0-8.73 6.47-6.08 11h-7.68v-16.5a4.44 4.44 0 0 1 4.43-4.44zm-4.43 50.32v-25.89h21.43a12.51 12.51 0 0 1 -11.1 5.24 1.75 1.75 0 1 0 -.32 3.49 16.22 16.22 0 0 0 12.6-4.69v26.29h-18.18a4.44 4.44 0 0 1 -4.43-4.44zm82.07 4.44h-56v-26.29a16.24 16.24 0 0 0 12.6 4.69 1.75 1.75 0 0 0 -.32-3.49 12.52 12.52 0 0 1 -11.1-5.24h59.21v25.89a4.44 4.44 0 0 1 -4.39 4.44z"/><path d="m79.3 74h-4.66a3.82 3.82 0 0 0 -3.82 3.82v4.66a3.82 3.82 0 0 0 3.82 3.81h4.66a3.82 3.82 0 0 0 3.82-3.81v-4.69a3.83 3.83 0 0 0 -3.82-3.79zm.32 8.48a.32.32 0 0 1 -.32.31h-4.66a.31.31 0 0 1 -.32-.31v-4.69a.32.32 0 0 1 .32-.32h4.66a.32.32 0 0 1 .32.32z"/><path d="m94.44 74h-4.66a3.82 3.82 0 0 0 -3.78 3.79v4.66a3.82 3.82 0 0 0 3.82 3.81h4.66a3.82 3.82 0 0 0 3.81-3.81v-4.66a3.82 3.82 0 0 0 -3.85-3.79zm.31 8.48a.31.31 0 0 1 -.31.31h-4.66a.31.31 0 0 1 -.32-.31v-4.69a.32.32 0 0 1 .32-.32h4.66a.31.31 0 0 1 .31.32z"/></svg>