<svg id="O" height="512" viewBox="0 0 128 128" width="512" xmlns="http://www.w3.org/2000/svg"><path d="m106.11 84a5.11 5.11 0 0 0 -5-4h-13.11a5.1 5.1 0 0 0 .13-2.66l-4.52-20.55a5.1 5.1 0 0 0 -5-4h-29.26a5.1 5.1 0 0 0 -5 4l-4.48 20.58a5.1 5.1 0 0 0 .13 2.63h-13.15a5.11 5.11 0 0 0 -5 4l-4.52 20.58a5.07 5.07 0 0 0 4.95 6.16h38.4a5 5 0 0 0 3.32-1.24 5 5 0 0 0 3.32 1.25h38.36a5.07 5.07 0 0 0 4.95-6.16zm-62.82-5.88 4.52-20.58a1.58 1.58 0 0 1 1.54-1.23h29.3a1.58 1.58 0 0 1 1.54 1.23l4.52 20.58a1.57 1.57 0 0 1 -1.53 1.88h-38.36a1.57 1.57 0 0 1 -1.53-1.88zm20.71 19.06-2.89-13.18a4.5 4.5 0 0 0 -.16-.48h6.05c-.05.16-.11.32-.15.48zm-3.32 10.07h-38.36a1.57 1.57 0 0 1 -1.53-1.91l4.52-20.58a1.58 1.58 0 0 1 1.54-1.23h29.3a1.58 1.58 0 0 1 1.54 1.23l4.52 20.58a1.57 1.57 0 0 1 -1.53 1.91zm45 0h-38.36a1.57 1.57 0 0 1 -1.53-1.91l4.52-20.58a1.58 1.58 0 0 1 1.54-1.23h29.3a1.58 1.58 0 0 1 1.54 1.23l4.52 20.58a1.57 1.57 0 0 1 -1.53 1.91z"/><path d="m64 33.77a1.76 1.76 0 0 0 1.79-1.77v-13a1.75 1.75 0 0 0 -3.5 0v13a1.75 1.75 0 0 0 1.71 1.77z"/><path d="m42.88 36a1.75 1.75 0 0 0 1.6 1 1.75 1.75 0 0 0 1.6-2.46l-3.23-7.23a1.75 1.75 0 1 0 -3.19 1.42z"/><path d="m27.83 49.15a1.75 1.75 0 0 0 1.2-3l-9.52-8.95a1.75 1.75 0 0 0 -2.39 2.55l9.51 8.92a1.75 1.75 0 0 0 1.2.48z"/><path d="m82.88 36.89a1.85 1.85 0 0 0 .71.15 1.75 1.75 0 0 0 1.6-1l3.23-7.23a1.75 1.75 0 1 0 -3.2-1.42l-3.22 7.19a1.75 1.75 0 0 0 .88 2.31z"/><path d="m100.24 49.15a1.75 1.75 0 0 0 1.2-.48l9.18-8.58a1.75 1.75 0 0 0 -2.39-2.56l-9.18 8.59a1.75 1.75 0 0 0 1.19 3z"/></svg>