<svg id="O" height="512" viewBox="0 0 128 128" width="512" xmlns="http://www.w3.org/2000/svg"><path d="m66.16 52.53a3.22 3.22 0 0 0 -4.56 0l-11.94 11.9a3.23 3.23 0 0 0 2.28 5.57h2.58v16a3.87 3.87 0 0 0 3.87 3.87h11a3.87 3.87 0 0 0 3.87-3.87v-16h2.58a3.23 3.23 0 0 0 2.28-5.52zm5.33 13.92a1.75 1.75 0 0 0 -1.75 1.75v17.73a.37.37 0 0 1 -.37.37h-11a.37.37 0 0 1 -.37-.37v-17.73a1.75 1.75 0 0 0 -1.75-1.75h-3.66l11.29-11.26 11.29 11.26z"/><path d="m104.92 24.28h-81.84a5.84 5.84 0 0 0 -5.83 5.83v18.6a5.84 5.84 0 0 0 5.83 5.83h10.6v40.92a8.27 8.27 0 0 0 8.26 8.26h43.88a8.27 8.27 0 0 0 8.26-8.26v-40.92h10.84a5.84 5.84 0 0 0 5.83-5.83v-18.6a5.84 5.84 0 0 0 -5.83-5.83zm-14.34 71.18a4.76 4.76 0 0 1 -4.76 4.76h-43.88a4.76 4.76 0 0 1 -4.76-4.76v-54.3h34.2v4.5a4.43 4.43 0 0 0 4.43 4.42h5.38a4.43 4.43 0 0 0 4.43-4.42v-4.5h5v54.3zm-15.7-54.3h7.24v4.5a.93.93 0 0 1 -.93.92h-5.38a.93.93 0 0 1 -.93-.92zm32.37 7.55a2.34 2.34 0 0 1 -2.33 2.29h-10.84v-9.84h3a1.75 1.75 0 0 0 0-3.5h-66.08a1.75 1.75 0 0 0 0 3.5h2.71v9.84h-10.63a2.34 2.34 0 0 1 -2.33-2.33v-18.56a2.33 2.33 0 0 1 2.33-2.33h81.84a2.33 2.33 0 0 1 2.33 2.33z"/></svg>