<svg id="O" height="512" viewBox="0 0 128 128" width="512" xmlns="http://www.w3.org/2000/svg"><path d="m107 37.94-20.18-20.18a1.88 1.88 0 0 0 -1.24-.51h-41.37a7.69 7.69 0 0 0 -7.68 7.69v41.06a17.78 17.78 0 0 0 0 35.39v1.71a7.69 7.69 0 0 0 7.68 7.69h55.62a7.69 7.69 0 0 0 7.68-7.69v-63.92a1.85 1.85 0 0 0 -.51-1.24zm-5.46-.51h-10a4.19 4.19 0 0 1 -4.19-4.18v-10zm-77.54 46.22a14.29 14.29 0 1 1 14.28 14.29 14.28 14.28 0 0 1 -14.28-14.29zm75.84 23.6h-55.63a4.19 4.19 0 0 1 -4.21-4.19v-1.71a17.79 17.79 0 0 0 0-35.35v-41a4.19 4.19 0 0 1 4.18-4.19h39.65v12.5a7.69 7.69 0 0 0 7.69 7.68h12.48v62.13a4.19 4.19 0 0 1 -4.17 4.13z"/><path d="m38.27 94.08a1.75 1.75 0 0 0 1.73-1.75v-.26a5.31 5.31 0 0 0 3.94-5.07 4.75 4.75 0 0 0 -3.63-4.62l-3.25-.79a1.25 1.25 0 0 1 -1-1.21v-.61a1.21 1.21 0 0 1 1.21-1.21h1.91a1.21 1.21 0 0 1 1.08.67 1.26 1.26 0 0 1 .13.54 1.75 1.75 0 0 0 3.5 0 4.81 4.81 0 0 0 -.5-2.11 4.71 4.71 0 0 0 -3.39-2.55v-.11a1.75 1.75 0 0 0 -3.5 0v.12a4.71 4.71 0 0 0 -3.91 4.63v.61a4.74 4.74 0 0 0 3.64 4.64l3.25.79a1.26 1.26 0 0 1 1 1.22 1.81 1.81 0 0 1 -1.81 1.81h-1.35a1.2 1.2 0 0 1 -1.21-1.21 1.75 1.75 0 0 0 -3.5 0 4.67 4.67 0 0 0 .56 2.23 4.73 4.73 0 0 0 3.35 2.41v.12a1.76 1.76 0 0 0 1.75 1.71z"/><path d="m50.12 37h14.49a1.75 1.75 0 0 0 0-3.5h-14.49a1.75 1.75 0 0 0 0 3.5z"/><path d="m93.24 49.69h-43.12a1.75 1.75 0 0 0 0 3.5h43.12a1.75 1.75 0 1 0 0-3.5z"/><path d="m93.24 62.25h-32.17a1.75 1.75 0 1 0 0 3.5h32.17a1.75 1.75 0 1 0 0-3.5z"/><path d="m93.24 74.81h-25a1.75 1.75 0 1 0 0 3.5h25a1.75 1.75 0 1 0 0-3.5z"/><path d="m93.24 91.65h-12.49a1.75 1.75 0 0 0 0 3.5h12.49a1.75 1.75 0 0 0 0-3.5z"/></svg>