<svg id="O" height="512" viewBox="0 0 128 128" width="512" xmlns="http://www.w3.org/2000/svg"><path d="m111.49 82.07h-5.67v-46.07a8.33 8.33 0 0 0 -8.32-8.32h-67a8.33 8.33 0 0 0 -8.32 8.32v46.1h-5.67a1.75 1.75 0 0 0 -1.75 1.75v6a8.87 8.87 0 0 0 8.86 8.86h80.76a8.87 8.87 0 0 0 8.86-8.86v-6a1.75 1.75 0 0 0 -1.75-1.78zm-85.81-46.07a4.82 4.82 0 0 1 4.82-4.82h67a4.82 4.82 0 0 1 4.82 4.82v46.1h-76.64zm28.57 49.6h19.5v1.4a1.61 1.61 0 0 1 -1.6 1.61h-16.3a1.61 1.61 0 0 1 -1.6-1.61zm55.49 4.21a5.37 5.37 0 0 1 -5.36 5.36h-80.76a5.37 5.37 0 0 1 -5.36-5.36v-4.24h32.49v1.43a5.11 5.11 0 0 0 5.1 5.11h16.3a5.11 5.11 0 0 0 5.1-5.11v-1.43h32.49z"/></svg>