<svg id="O" height="512" viewBox="0 0 128 128" width="512" xmlns="http://www.w3.org/2000/svg"><path d="m105.51 77.22a19.68 19.68 0 0 0 -19.87-4.82l-10.26-10.25 19.33-19.32 6.5-3.14a1.81 1.81 0 0 0 .69-.6l9-13.37a1.76 1.76 0 0 0 -.21-2.22l-5.69-5.73a1.72 1.72 0 0 0 -2.21-.21l-13.38 9.05a1.72 1.72 0 0 0 -.59.69l-3.15 6.5-19.32 19.32-10.26-10.26a19.63 19.63 0 0 0 -25.09-24.56 1.75 1.75 0 0 0 -.67 2.9l9.68 9.67-1.83 6.85-6.85 1.83-9.63-9.68a1.77 1.77 0 0 0 -1.64-.46 1.73 1.73 0 0 0 -1.26 1.14 19.63 19.63 0 0 0 24.56 25.05l5.31 5.3-2.34 2.34a4.15 4.15 0 0 0 0 5.86 1.45 1.45 0 1 1 -2 2.05l-1.7-1.71a1.8 1.8 0 0 0 -2.48 0l-19 19a13.31 13.31 0 0 0 .27 19 13.58 13.58 0 0 0 18.93-.35l18.72-18.72a1.75 1.75 0 0 0 0-2.47l-1.71-1.71a1.44 1.44 0 1 1 2-2 4.16 4.16 0 0 0 5.87 0l2.33-2.33 5.3 5.3a19.63 19.63 0 0 0 25.14 24.54 1.73 1.73 0 0 0 1.14-1.26 1.77 1.77 0 0 0 -.46-1.64l-9.68-9.67 1.83-6.85 6.85-1.83 9.67 9.68a1.76 1.76 0 0 0 2.9-.68 19.55 19.55 0 0 0 -4.74-20.23zm-17.15-41.15a1.82 1.82 0 0 0 .34-.48l3.06-6.34 11.79-8 3.69 3.75-8 11.79-6.35 3.07a1.71 1.71 0 0 0 -.47.34l-19.51 19.48-4.08-4.09zm-25.57 43.63a.66.66 0 0 1 -.91 0 4.95 4.95 0 1 0 -7 7l.47.47-17.51 17.48a10.05 10.05 0 0 1 -14 .31 9.81 9.81 0 0 1 -.23-14l17.76-17.81.47.47a4.94 4.94 0 1 0 7-7 .65.65 0 0 1 0-.92l2.33-2.33 14 14zm44.79 13.76-8.19-8.2a1.76 1.76 0 0 0 -1.69-.45l-8.8 2.35a1.73 1.73 0 0 0 -1.24 1.24l-2.35 8.8a1.76 1.76 0 0 0 .45 1.69l8.2 8.19a16 16 0 0 1 -13.76-4.55 16.15 16.15 0 0 1 -3.65-17.22 1.75 1.75 0 0 0 -.39-1.87l-31.1-31.1a1.76 1.76 0 0 0 -1.87-.34 16.15 16.15 0 0 1 -17.19-3.7 16 16 0 0 1 -4.55-13.76l8.19 8.2a1.76 1.76 0 0 0 1.69.45l8.8-2.35a1.73 1.73 0 0 0 1.24-1.24l2.35-8.8a1.76 1.76 0 0 0 -.45-1.69l-8.27-8.19a16 16 0 0 1 13.8 4.55 16.15 16.15 0 0 1 3.65 17.22 1.75 1.75 0 0 0 .39 1.87l12.23 12.23a.1.1 0 0 1 0 .05l6.3 6.28 12.57 12.54a1.75 1.75 0 0 0 1.87.39 16.14 16.14 0 0 1 21.77 17.41z"/><path d="m45.84 80.19-15 15a1.75 1.75 0 0 0 2.47 2.48l15-15a1.75 1.75 0 0 0 -2.47-2.48z"/></svg>