<svg id="O" height="512" viewBox="0 0 128 128" width="512" xmlns="http://www.w3.org/2000/svg"><path d="m109 36h-90a1.75 1.75 0 0 0 -1.75 1.75v52.54a1.75 1.75 0 0 0 1.75 1.71h90a1.75 1.75 0 0 0 1.75-1.75v-52.54a1.75 1.75 0 0 0 -1.75-1.71zm-1.75 52.58h-86.5v-49.12h86.5z"/><path d="m27 75.67a6.54 6.54 0 0 1 6.54 6.54 1.75 1.75 0 0 0 1.75 1.79h57.42a1.75 1.75 0 0 0 1.75-1.75 6.54 6.54 0 0 1 6.54-6.58 1.75 1.75 0 0 0 1.75-1.75v-19.84a1.75 1.75 0 0 0 -1.75-1.75 6.54 6.54 0 0 1 -6.54-6.54 1.75 1.75 0 0 0 -1.75-1.79h-57.42a1.75 1.75 0 0 0 -1.75 1.75 6.54 6.54 0 0 1 -6.54 6.58 1.75 1.75 0 0 0 -1.75 1.75v19.84a1.75 1.75 0 0 0 1.75 1.75zm1.75-20a10.06 10.06 0 0 0 8.14-8.14h54.22a10.06 10.06 0 0 0 8.14 8.14v16.65a10.06 10.06 0 0 0 -8.14 8.14h-54.22a10.06 10.06 0 0 0 -8.14-8.14z"/><path d="m64 76.25a12.25 12.25 0 1 0 -12.25-12.25 12.27 12.27 0 0 0 12.25 12.25zm0-21a8.75 8.75 0 1 1 -8.75 8.75 8.77 8.77 0 0 1 8.75-8.75z"/></svg>