<svg id="O" height="512" viewBox="0 0 128 128" width="512" xmlns="http://www.w3.org/2000/svg"><path d="m62.45 67.58h3.1a3 3 0 0 1 2.73 1.68 3 3 0 0 1 .32 1.37 1.75 1.75 0 0 0 3.5 0 6.62 6.62 0 0 0 -.69-2.94 6.53 6.53 0 0 0 -5.66-3.6v-2.18a1.75 1.75 0 0 0 -3.5 0v2.18a6.56 6.56 0 0 0 -6.35 6.54v1a6.59 6.59 0 0 0 5.1 6.37l5.27 1.29a3.11 3.11 0 0 1 2.38 3 4 4 0 0 1 -4 4h-2.2a3 3 0 0 1 -2.69-1.61 3 3 0 0 1 -.36-1.44 1.75 1.75 0 0 0 -3.5 0 6.68 6.68 0 0 0 .77 3.1 6.55 6.55 0 0 0 5.58 3.44v2.18a1.75 1.75 0 0 0 3.5 0v-2.17a7.54 7.54 0 0 0 6.35-7.43 6.59 6.59 0 0 0 -5-6.43l-5.27-1.29a3.11 3.11 0 0 1 -2.38-3v-1a3.06 3.06 0 0 1 3-3.06z"/><path d="m79.65 45 .1-.08a6.34 6.34 0 0 0 -1.75-10.17 20.6 20.6 0 0 0 3.62-10.82c0-2.33-.61-4-1.85-5.13-2.18-2-5.66-1.64-9.69-1.25a47.43 47.43 0 0 1 -12.14 0c-4-.39-7.51-.73-9.69 1.25-1.24 1.13-1.85 2.8-1.85 5.13a20.57 20.57 0 0 0 3.6 10.81 6.31 6.31 0 0 0 -1.64 10.26c-12.24 8.26-21.8 25.88-21.8 40.87 0 22.27 21.37 24.85 37.44 24.85s37.44-2.58 37.44-24.85c0-14.96-9.56-32.57-21.79-40.87zm-29.06-23.61c1-.93 3.93-.65 7-.35a51.88 51.88 0 0 0 12.82 0c3.07-.3 6-.58 7 .35a3.47 3.47 0 0 1 .7 2.54 17.62 17.62 0 0 1 -4 10.19h-20.27a17.62 17.62 0 0 1 -4-10.19 3.47 3.47 0 0 1 .75-2.54zm2.15 16.23h22.52a2.85 2.85 0 1 1 0 5.69h-22.52a2.85 2.85 0 1 1 0-5.69zm11.26 69.63c-23.47 0-33.94-6.58-33.94-21.35s9.88-32.11 22.11-39.12h.57 22.52.57c12.24 7 22.11 24.41 22.11 39.12s-10.47 21.35-33.94 21.35z"/></svg>