<svg id="O" height="512" viewBox="0 0 128 128" width="512" xmlns="http://www.w3.org/2000/svg"><path d="m95.17 17.25h-62.34a8.1 8.1 0 0 0 -8.1 8.1v77.3a8.1 8.1 0 0 0 8.1 8.1h62.34a8.1 8.1 0 0 0 8.1-8.1v-77.3a8.1 8.1 0 0 0 -8.1-8.1zm-66.94 8.1a4.6 4.6 0 0 1 4.6-4.6h62.34a4.6 4.6 0 0 1 4.6 4.6v66h-71.54zm71.54 77.3a4.6 4.6 0 0 1 -4.6 4.6h-62.34a4.6 4.6 0 0 1 -4.6-4.6v-7.77h71.54z"/><path d="m52.47 65.77a1.75 1.75 0 0 0 -1.75 1.75v9.82l-7.17-10.79a1.75 1.75 0 0 0 -3.2 1v15.59a1.75 1.75 0 0 0 3.5 0v-9.82l7.15 10.79a1.75 1.75 0 0 0 3.21-1v-15.59a1.75 1.75 0 0 0 -1.74-1.75z"/><path d="m70.54 65.77h-8.3a1.75 1.75 0 0 0 -1.75 1.75v15.62a1.75 1.75 0 0 0 3.5 0v-6.06h4.55a1.75 1.75 0 0 0 0-3.5h-4.54v-4.31h6.55a1.75 1.75 0 0 0 0-3.5z"/><path d="m81.45 69.27h1.25a2.46 2.46 0 0 1 2.45 2.46 1.75 1.75 0 0 0 3.5 0 6 6 0 0 0 -6-6h-1.2a6 6 0 0 0 -6 6v7.2a6 6 0 0 0 6 6h1.25a6 6 0 0 0 6-6 1.75 1.75 0 0 0 -3.5 0 2.46 2.46 0 0 1 -2.45 2.46h-1.3a2.46 2.46 0 0 1 -2.45-2.46v-7.2a2.46 2.46 0 0 1 2.45-2.46z"/><path d="m67 54a1.75 1.75 0 0 0 2.47-2.48 7.8 7.8 0 0 0 -11 0 1.75 1.75 0 1 0 2.53 2.48 4.3 4.3 0 0 1 6 0z"/><path d="m75.59 45.43a16.41 16.41 0 0 0 -23.18 0 1.75 1.75 0 1 0 2.47 2.48 12.89 12.89 0 0 1 18.24 0 1.75 1.75 0 1 0 2.47-2.48z"/><path d="m48.6 41.62a21.81 21.81 0 0 1 30.8 0 1.75 1.75 0 1 0 2.48-2.47 25.31 25.31 0 0 0 -35.76 0 1.75 1.75 0 0 0 2.48 2.47z"/></svg>