<svg id="O" height="512" viewBox="0 0 128 128" width="512" xmlns="http://www.w3.org/2000/svg"><path d="m104 80.11v-33.46a6.65 6.65 0 0 0 -6.63-6.65h-14.27l-.4-10.91a1.75 1.75 0 0 0 -1.7-1.69h-7.12v-.27a9.88 9.88 0 1 0 -19.76 0v.27h-7.07a1.75 1.75 0 0 0 -1.75 1.69l-.4 10.91h-14.27a6.65 6.65 0 0 0 -6.63 6.65v39.25a6.65 6.65 0 0 0 6.64 6.65h22.72l-.7 6.57h-4.39a6.69 6.69 0 0 0 -6.69 6.68v3.2a1.75 1.75 0 0 0 1.75 1.75h41.34a1.75 1.75 0 0 0 1.75-1.75v-3.2a6.69 6.69 0 0 0 -6.69-6.68h-4.39l-.7-6.57h22.73a6.65 6.65 0 0 0 6.63-6.65zm-46.39-53a6.38 6.38 0 1 1 12.76 0v.27h-12.75zm-3.5 3.77v2.55a1.75 1.75 0 0 0 3.5 0v-2.53h12.77v2.55a1.75 1.75 0 0 0 3.5 0v-2.55h5.38l1.07 29.21a4.82 4.82 0 0 1 -4.82 5h-23a4.83 4.83 0 0 1 -4.82-5l1.05-29.21zm-23.48 12.62h14.14l-.6 16.5a8.33 8.33 0 0 0 8.32 8.62h23a8.33 8.33 0 0 0 8.34-8.62l-.6-16.49h14.14a3.15 3.15 0 0 1 3.14 3.15v31.73h-73v-31.74a3.15 3.15 0 0 1 3.12-3.15zm52.29 62.3v1.45h-37.84v-1.45a3.19 3.19 0 0 1 3.19-3.18h31.46a3.19 3.19 0 0 1 3.19 3.18zm-11.1-6.68h-15.64l.7-6.57h14.24zm25.55-10.07h-66.74a3.15 3.15 0 0 1 -3.14-3.15v-4h73v4a3.15 3.15 0 0 1 -3.12 3.15z"/></svg>