<?xml version="1.0" encoding="UTF-8"?>
<svg xmlns="http://www.w3.org/2000/svg" id="O" viewBox="0 0 128 128" width="512" height="512"><path d="M93.29,29.92a17.63,17.63,0,0,0-6,1V26a8.74,8.74,0,0,0-8.73-8.73H41.14A8.74,8.74,0,0,0,32.41,26V57h-9a6.12,6.12,0,0,0-6.12,6.11V86.31a6.13,6.13,0,0,0,6.12,6.12h9V102a8.74,8.74,0,0,0,8.73,8.73H78.58A8.74,8.74,0,0,0,87.31,102V64.28a17.7,17.7,0,1,0,6-34.36ZM70.76,20.75v2.84A1.42,1.42,0,0,1,69.34,25h-19A1.42,1.42,0,0,1,49,23.59V20.75ZM23.37,60.51H65.83a2.62,2.62,0,0,1,2.62,2.61v.5H20.75v-.5A2.62,2.62,0,0,1,23.37,60.51Zm-2.62,6.61h47.7v3.73H20.75Zm0,19.19v-12h47.7v12a2.63,2.63,0,0,1-2.62,2.62H23.37A2.63,2.63,0,0,1,20.75,86.31ZM83.81,102a5.24,5.24,0,0,1-5.23,5.23H41.14A5.24,5.24,0,0,1,35.91,102V92.43H65.83A6.13,6.13,0,0,0,72,86.31V63.12A6.12,6.12,0,0,0,65.83,57H35.91V26a5.24,5.24,0,0,1,5.23-5.23h4.32v2.84a4.92,4.92,0,0,0,4.92,4.91h19a4.92,4.92,0,0,0,4.92-4.91V20.75h4.32A5.24,5.24,0,0,1,83.81,26Zm9.48-40.19a13.86,13.86,0,0,1-6-1.32V34.74a14.21,14.21,0,1,1,6,27.09Z"/><path d="M71.21,100.39H48.51a1.75,1.75,0,0,0,0,3.5h22.7a1.75,1.75,0,0,0,0-3.5Z"/><path d="M54.11,84.59h5.75a1.75,1.75,0,0,0,0-3.5H54.11a1.75,1.75,0,1,0,0,3.5Z"/><path d="M94.12,42.19H96a1.18,1.18,0,0,1,1.18,1.17,1.75,1.75,0,1,0,3.5,0,4.68,4.68,0,0,0-3.87-4.59v-.31a1.75,1.75,0,0,0-3.5,0v.31a4.67,4.67,0,0,0-3.87,4.59V44a4.71,4.71,0,0,0,3.6,4.58l3.21.79a1.21,1.21,0,0,1,.93,1.18,1.78,1.78,0,0,1-1.77,1.77h-1.3A1.18,1.18,0,0,1,93,51.1a1.75,1.75,0,0,0-3.5,0,4.66,4.66,0,0,0,3.87,4.59V56a1.75,1.75,0,0,0,3.5,0v-.44a5.27,5.27,0,0,0,3.87-5.05,4.72,4.72,0,0,0-3.6-4.59l-3.21-.78A1.21,1.21,0,0,1,93,44v-.6A1.18,1.18,0,0,1,94.12,42.19Z"/></svg>
