<svg id="O" height="512" viewBox="0 0 128 128" width="512" xmlns="http://www.w3.org/2000/svg"><path d="m83.22 69.85a5.41 5.41 0 0 0 -7.66 0l-2.78 2.77a1 1 0 0 1 -1.38 0l-16-16a1 1 0 0 1 0-1.38l2.77-2.78a5.41 5.41 0 0 0 0-7.66l-6.23-6.23a5.43 5.43 0 0 0 -7.66 0l-3.38 3.34a14.62 14.62 0 0 0 -2.15 18 88.44 88.44 0 0 0 29.33 29.34 14.63 14.63 0 0 0 18-2.15l3.36-3.36a5.43 5.43 0 0 0 0-7.66zm3.78 11.42-3.36 3.36a11.13 11.13 0 0 1 -13.74 1.63 85 85 0 0 1 -28.16-28.16 11.13 11.13 0 0 1 1.63-13.71l3.36-3.39a1.93 1.93 0 0 1 2.72 0l6.22 6.22a1.92 1.92 0 0 1 0 2.72l-2.77 2.8a4.47 4.47 0 0 0 0 6.33l16 16a4.47 4.47 0 0 0 6.33 0l2.77-2.74a2 2 0 0 1 2.72 0l6.28 6.22a1.93 1.93 0 0 1 0 2.72z"/><path d="m64 17.25a46.75 46.75 0 1 0 46.75 46.75 46.8 46.8 0 0 0 -46.75-46.75zm0 90a43.25 43.25 0 1 1 43.25-43.25 43.3 43.3 0 0 1 -43.25 43.25z"/></svg>