<svg id="O" height="512" viewBox="0 0 128 128" width="512" xmlns="http://www.w3.org/2000/svg"><path d="m105.93 56.74h-4.19a29.59 29.59 0 0 0 -11.29-13.42v-12.27a1.75 1.75 0 0 0 -1.75-1.75 18.12 18.12 0 0 0 -15.82 9.41h-9a15.8 15.8 0 1 0 -27.88 8.39 29.19 29.19 0 0 0 -8.76 18.95 8.06 8.06 0 0 1 -6.37-7.88 1.75 1.75 0 0 0 -3.5 0 11.56 11.56 0 0 0 9.86 11.42 29 29 0 0 0 4.56 14.13 29.64 29.64 0 0 0 11 10.11v7.32a5.63 5.63 0 0 0 5.63 5.62h6.21a5.62 5.62 0 0 0 5.62-5.62v-3.9h10.75v3.9a5.63 5.63 0 0 0 5.63 5.62h6.21a5.62 5.62 0 0 0 5.62-5.62v-7.34a29.69 29.69 0 0 0 13.32-14.59h4.18a4.82 4.82 0 0 0 4.82-4.82v-12.84a4.82 4.82 0 0 0 -4.85-4.82zm-57.81-32a12.32 12.32 0 0 1 12.31 12.26 12 12 0 0 1 -2.8 7.75 29 29 0 0 0 -12.83 4.1 12.29 12.29 0 0 1 3.32-24.12zm59.13 49.66a1.32 1.32 0 0 1 -1.32 1.32h-5.37a1.75 1.75 0 0 0 -1.64 1.14 26.12 26.12 0 0 1 -13 14.3 1.76 1.76 0 0 0 -1 1.58v8.41a2.12 2.12 0 0 1 -2.12 2.12h-6.2a2.13 2.13 0 0 1 -2.13-2.12v-5.65a1.75 1.75 0 0 0 -1.75-1.75h-14.31a1.75 1.75 0 0 0 -1.75 1.75v5.65a2.12 2.12 0 0 1 -2.12 2.12h-6.21a2.13 2.13 0 0 1 -2.13-2.12v-8.39a1.74 1.74 0 0 0 -1-1.57 26.13 26.13 0 0 1 -10.54-9.37 25.62 25.62 0 0 1 3.79-32.29 15.6 15.6 0 0 0 2.86 1.76c-.48.39-.95.78-1.4 1.2a1.75 1.75 0 0 0 2.38 2.57c8.16-7.53 16.44-6.86 21.71-6.86a1.75 1.75 0 0 0 0-3.5h-2.07a16.34 16.34 0 0 0 1.12-2.49h10.95a1.75 1.75 0 0 0 1.59-1 14.59 14.59 0 0 1 11.41-8.3v11.39a1.74 1.74 0 0 0 .86 1.5 26.11 26.11 0 0 1 11.1 13.3 1.75 1.75 0 0 0 1.64 1.14h5.38a1.32 1.32 0 0 1 1.32 1.32z"/><path d="m89.91 58.82a3.62 3.62 0 0 1 -5.13 0 1.75 1.75 0 1 0 -2.48 2.48 7.15 7.15 0 0 0 10.09 0 1.75 1.75 0 1 0 -2.48-2.48z"/></svg>