<?xml version="1.0" encoding="UTF-8"?>
<svg xmlns="http://www.w3.org/2000/svg" id="O" viewBox="0 0 128 128" width="512" height="512"><path d="M22.4,48.32A5.32,5.32,0,0,0,27.72,43V27.79H46.94a5.32,5.32,0,0,0,0-10.64H26.15a9.08,9.08,0,0,0-9.07,9.07V43A5.32,5.32,0,0,0,22.4,48.32Zm-1.82-22.1a5.58,5.58,0,0,1,5.57-5.57H46.94a1.82,1.82,0,0,1,0,3.64H26.15a1.94,1.94,0,0,0-1.93,1.93V43a1.82,1.82,0,0,1-3.64,0Z"/><path d="M101.68,17.15H80.9a5.32,5.32,0,0,0,0,10.64h19.21V43a5.32,5.32,0,1,0,10.64,0V26.22A9.08,9.08,0,0,0,101.68,17.15ZM107.25,43a1.82,1.82,0,1,1-3.64,0V26.22a1.93,1.93,0,0,0-1.93-1.93H80.9a1.82,1.82,0,0,1,0-3.64h20.78a5.58,5.58,0,0,1,5.57,5.57Z"/><path d="M46.86,100.21H27.65V85A5.32,5.32,0,0,0,17,85v16.78a9.08,9.08,0,0,0,9.07,9.07H46.86a5.32,5.32,0,0,0,0-10.64Zm0,7.14H26.08a5.58,5.58,0,0,1-5.57-5.57V85a1.82,1.82,0,0,1,3.64,0v16.78a1.93,1.93,0,0,0,1.93,1.93H46.86a1.82,1.82,0,0,1,0,3.64Z"/><path d="M105.43,79.68A5.32,5.32,0,0,0,100.11,85v15.21H80.9a5.32,5.32,0,0,0,0,10.64h20.78a9.08,9.08,0,0,0,9.07-9.07V85A5.32,5.32,0,0,0,105.43,79.68Zm1.82,22.1a5.58,5.58,0,0,1-5.57,5.57H80.9a1.82,1.82,0,0,1,0-3.64h20.78a1.93,1.93,0,0,0,1.93-1.93V85a1.82,1.82,0,1,1,3.64,0Z"/><path d="M104.19,57.44H23.81a6.56,6.56,0,1,0,0,13.12h80.38a6.56,6.56,0,0,0,0-13.12Zm0,9.62H23.81a3.06,3.06,0,1,1,0-6.12h80.38a3.06,3.06,0,0,1,0,6.12Z"/></svg>
