<svg id="O" height="512" viewBox="0 0 128 128" width="512" xmlns="http://www.w3.org/2000/svg"><path d="m109 80.35h-19.87v-55.35a7.76 7.76 0 0 0 -7.75-7.75h-56.38a7.76 7.76 0 0 0 -7.75 7.75v73.19a12.57 12.57 0 0 0 12.56 12.56h68.38a12.57 12.57 0 0 0 12.56-12.56v-16.09a1.75 1.75 0 0 0 -1.75-1.75zm-79.19 26.9a9.06 9.06 0 0 1 -9.06-9.06v-73.19a4.26 4.26 0 0 1 4.25-4.25h56.38a4.26 4.26 0 0 1 4.25 4.25v73.19a12.54 12.54 0 0 0 3.87 9.06zm77.44-9.06a9.06 9.06 0 0 1 -18.12 0v-14.34h18.12z"/><path d="m74.19 37.44h-21.25a1.75 1.75 0 0 0 0 3.5h21.25a1.75 1.75 0 0 0 0-3.5z"/><path d="m74.19 53.4h-42.5a1.75 1.75 0 0 0 0 3.5h42.5a1.75 1.75 0 0 0 0-3.5z"/><path d="m74.19 69.36h-42.5a1.75 1.75 0 1 0 0 3.5h42.5a1.75 1.75 0 0 0 0-3.5z"/><path d="m74.19 85.31h-42.5a1.75 1.75 0 1 0 0 3.5h42.5a1.75 1.75 0 0 0 0-3.5z"/></svg>