<svg id="O" height="512" viewBox="0 0 128 128" width="512" xmlns="http://www.w3.org/2000/svg"><path d="m64 95.62a31.62 31.62 0 1 0 -31.58-31.62 31.65 31.65 0 0 0 31.58 31.62zm0-59.74a28.12 28.12 0 1 1 -28.08 28.12 28.15 28.15 0 0 1 28.08-28.12z"/><path d="m95.07 29.25a46.63 46.63 0 0 0 -63 .8l-.38-6.74a1.77 1.77 0 0 0 -1.85-1.64 1.74 1.74 0 0 0 -1.64 1.84l.58 10.36a1.74 1.74 0 0 0 2.17 2l10.4-.59a1.75 1.75 0 1 0 -.2-3.49l-6.15.32a43.15 43.15 0 0 1 57.76-.25c19.53 17.44 18.91 47.92 0 64.36a43.14 43.14 0 0 1 -71.11-40.46 1.75 1.75 0 1 0 -3.44-.67 46.64 46.64 0 0 0 76.85 43.75c20.37-17.7 21.22-50.65.01-69.59z"/><path d="m64.7 75.12h-2.45a3.79 3.79 0 0 1 -3.34-2 3.74 3.74 0 0 1 -.45-1.79 1.75 1.75 0 0 0 -3.5 0 7.31 7.31 0 0 0 7.29 7.29v1.61a1.75 1.75 0 1 0 3.5 0v-1.69a8.43 8.43 0 0 0 7.32-8.34 7.35 7.35 0 0 0 -5.62-7.15l-6.08-1.49a3.84 3.84 0 0 1 -2.95-3.75v-1.13a3.79 3.79 0 0 1 3.79-3.78h3.57a3.78 3.78 0 0 1 3.79 3.78 1.75 1.75 0 0 0 3.5 0 7.29 7.29 0 0 0 -7.29-7.28v-1.61a1.75 1.75 0 1 0 -3.5 0v1.61a7.3 7.3 0 0 0 -7.28 7.28v1.13a7.35 7.35 0 0 0 5.58 7.19l6.08 1.48a3.86 3.86 0 0 1 3 3.75 4.93 4.93 0 0 1 -4.96 4.89z"/></svg>