<svg id="O" height="512" viewBox="0 0 128 128" width="512" xmlns="http://www.w3.org/2000/svg"><path d="m98.55 68.54h-12.63a1.75 1.75 0 0 0 0 3.5h4.56v17.26a1.75 1.75 0 0 0 3.5 0v-17.3h4.57a1.75 1.75 0 0 0 0-3.5z"/><path d="m79.27 68.54a1.75 1.75 0 0 0 -1.75 1.75v13.29l-9.62-14.27a1.74 1.74 0 0 0 -2-.7 1.77 1.77 0 0 0 -1.24 1.68v19a1.75 1.75 0 0 0 3.5 0v-13.29l9.62 14.27a1.75 1.75 0 0 0 1.45.77 1.79 1.79 0 0 0 .51-.07 1.76 1.76 0 0 0 1.26-1.67v-19a1.75 1.75 0 0 0 -1.73-1.76z"/><path d="m58.6 72a1.75 1.75 0 1 0 0-3.5h-9.24a1.75 1.75 0 0 0 -1.75 1.75v19a1.75 1.75 0 0 0 1.75 1.75h9.24a1.75 1.75 0 1 0 0-3.5h-7.49v-6h5.89a1.75 1.75 0 0 0 0-3.5h-5.89v-6z"/><path d="m41.79 76a7.65 7.65 0 0 0 -7.63-7.64h-4.71a1.75 1.75 0 0 0 -1.75 1.75v19.4a1.75 1.75 0 0 0 3.5 0v-5.91h3.21l4.13 6.82a1.75 1.75 0 0 0 3-1.81l-3.63-6a7.66 7.66 0 0 0 3.88-6.61zm-7.63 4.1h-3v-8.27h3a4.14 4.14 0 0 1 0 8.27z"/><path d="m104.71 56.74-33.85-22.84a7.07 7.07 0 1 0 -13.72 0l-33.85 22.84a6.63 6.63 0 0 0 -6 6.6v32.91a6.64 6.64 0 0 0 6.62 6.63h80.26a6.64 6.64 0 0 0 6.62-6.63v-32.91a6.63 6.63 0 0 0 -6.08-6.6zm-45.91-19.74a7.09 7.09 0 0 0 10.4 0l29.21 19.71h-68.82zm5.2-8.38a3.58 3.58 0 1 1 -3.57 3.57 3.58 3.58 0 0 1 3.57-3.57zm43.25 67.63a3.13 3.13 0 0 1 -3.12 3.13h-80.26a3.13 3.13 0 0 1 -3.12-3.13v-32.91a3.13 3.13 0 0 1 3.12-3.13h80.26a3.13 3.13 0 0 1 3.12 3.13z"/></svg>