<?xml version="1.0" encoding="UTF-8"?>
<svg xmlns="http://www.w3.org/2000/svg" id="O" viewBox="0 0 128 128" width="512" height="512"><path d="M110.75,52.33a1.84,1.84,0,0,0-.45-1.17L104.76,45l3.76-7.81a1.76,1.76,0,0,0-.82-2.34L85.77,24.27V19A1.75,1.75,0,0,0,84,17.25H44A1.75,1.75,0,0,0,42.23,19v5.27L20.3,34.83a1.76,1.76,0,0,0-.82,2.34L23.24,45,17.7,51.16a1.83,1.83,0,0,0-.45,1.17V102A8.72,8.72,0,0,0,26,110.75h76a8.73,8.73,0,0,0,8.73-8.73ZM107.25,102a5.12,5.12,0,0,1-.66,2.49L75.47,76.78,107.25,55.6Zm-86.5,0V55.6L52.53,76.78,21.41,104.51A5.12,5.12,0,0,1,20.75,102ZM35.46,37.39l6.77-3.26v29.7L33,44.56A7.35,7.35,0,0,0,35.46,37.39ZM51.88,72.14V33A8.1,8.1,0,0,0,58,26.84H70A8.1,8.1,0,0,0,76.12,33V72.14c-5.36,3.58-3.87,2.59-6.62,4.41a9.84,9.84,0,0,1-11,0ZM95.05,44.56,85.77,63.83V34.13l6.77,3.26A7.35,7.35,0,0,0,95.05,44.56ZM106.35,52,99,56.87l4.09-8.48ZM104.6,37.23,93.31,60.68l-3.15,2.11,8.71-18.1a1.76,1.76,0,0,0-.82-2.34,3.84,3.84,0,0,1-1.79-5.11,1.76,1.76,0,0,0-.82-2.34l-9.67-4.65V28.16ZM45.73,20.75H82.27v47.3l-2.65,1.76V31.41a1.75,1.75,0,0,0-1.75-1.75,4.58,4.58,0,0,1-4.57-4.57,1.75,1.75,0,0,0-1.75-1.75H56.45a1.75,1.75,0,0,0-1.75,1.75,4.58,4.58,0,0,1-4.57,4.57,1.75,1.75,0,0,0-1.75,1.75v38.4L45.73,68Zm-3.5,7.41v2.09L32.56,34.9a1.76,1.76,0,0,0-.82,2.34A3.84,3.84,0,0,1,30,42.35a1.76,1.76,0,0,0-.82,2.34l8.71,18.1-3.15-2.11L23.4,37.23ZM29,56.87,21.65,52l3.23-3.6Zm-3,50.38a5.15,5.15,0,0,1-2-.38h0L55.54,78.78l1,.68a13.33,13.33,0,0,0,14.88,0l1-.69L104,106.87a4.29,4.29,0,0,1-2,.38Z"/><path d="M73,53.26a9,9,0,1,0-9,9A9,9,0,0,0,73,53.26Zm-14.44,0A5.47,5.47,0,1,1,64,58.74,5.48,5.48,0,0,1,58.53,53.26Z"/></svg>
