<svg id="O" height="512" viewBox="0 0 128 128" width="512" xmlns="http://www.w3.org/2000/svg"><path d="m77.29 48.68-17.29 17.32-9.25-9.26a6.27 6.27 0 0 0 -8.87 8.87l13.65 13.71a6.26 6.26 0 0 0 8.86 0l21.77-21.77a6.27 6.27 0 0 0 -8.87-8.87zm6.4 6.39-21.77 21.77a2.83 2.83 0 0 1 -3.92 0l-13.69-13.68a2.77 2.77 0 0 1 3.92-3.92l10.49 10.49a1.76 1.76 0 0 0 2.48 0l18.57-18.57a2.77 2.77 0 0 1 3.92 3.91z"/><path d="m98.57 24.08-29.68-6.32a23.36 23.36 0 0 0 -9.78 0l-29.68 6.32a6.83 6.83 0 0 0 -5.43 6.65v33.85a46.41 46.41 0 0 0 39.7 46.15 1.51 1.51 0 0 0 .52 0 46.41 46.41 0 0 0 39.78-46.15v-33.85a6.83 6.83 0 0 0 -5.43-6.65zm1.89 40.5a42.93 42.93 0 0 1 -36.46 42.65 42.93 42.93 0 0 1 -36.46-42.65v-33.85a3.33 3.33 0 0 1 2.62-3.23l29.68-6.31a19.78 19.78 0 0 1 8.32 0l29.68 6.31a3.33 3.33 0 0 1 2.62 3.23z"/></svg>