<?xml version="1.0" encoding="UTF-8"?>
<svg xmlns="http://www.w3.org/2000/svg" id="O" viewBox="0 0 128 128" width="512" height="512"><path d="M106.5,54.58l-7.6-.43a.19.19,0,0,1-.15-.15,35.73,35.73,0,0,0-3.11-7.51.18.18,0,0,1,0-.2l5.07-5.68a4.5,4.5,0,0,0-.17-6.18l-7-7a4.49,4.49,0,0,0-6.18-.17l-5.68,5.07a.18.18,0,0,1-.2,0A35.73,35.73,0,0,0,74,29.25a.19.19,0,0,1-.15-.15l-.43-7.6a4.5,4.5,0,0,0-4.49-4.25H59.07a4.5,4.5,0,0,0-4.49,4.25l-.43,7.61a.2.2,0,0,1-.15.14,35.73,35.73,0,0,0-7.51,3.11.18.18,0,0,1-.2,0l-5.68-5.07a4.49,4.49,0,0,0-6.18.17l-7,7a4.5,4.5,0,0,0-.17,6.18l5.07,5.68a.18.18,0,0,1,0,.2A36.12,36.12,0,0,0,29.25,54a.2.2,0,0,1-.15.14l-7.6.43a4.51,4.51,0,0,0-4.25,4.5v9.84a4.51,4.51,0,0,0,4.25,4.5l7.6.43a.19.19,0,0,1,.15.15,36.27,36.27,0,0,0,3.11,7.51.18.18,0,0,1,0,.2l-5.07,5.68a4.5,4.5,0,0,0,.17,6.18l7,7a4.49,4.49,0,0,0,6.18.17l5.68-5.07c.05,0,.14,0,.2,0A35.73,35.73,0,0,0,54,98.75a.19.19,0,0,1,.15.15l.43,7.6a4.5,4.5,0,0,0,4.49,4.25h9.86a4.5,4.5,0,0,0,4.49-4.25l.43-7.61a.2.2,0,0,1,.15-.14,35.73,35.73,0,0,0,7.51-3.11c.06,0,.15,0,.2,0l5.68,5.07a4.49,4.49,0,0,0,6.18-.17l7-7a4.5,4.5,0,0,0,.17-6.18l-5.07-5.68a.18.18,0,0,1,0-.2A35.73,35.73,0,0,0,98.75,74a.19.19,0,0,1,.15-.15l7.6-.43a4.51,4.51,0,0,0,4.25-4.5V59.08A4.51,4.51,0,0,0,106.5,54.58Zm.75,14.34a1,1,0,0,1-1,1l-7.6.43A3.66,3.66,0,0,0,95.39,73a32.43,32.43,0,0,1-2.81,6.78A3.68,3.68,0,0,0,93,84l5.07,5.68a1,1,0,0,1,0,1.38l-7,7a1,1,0,0,1-1.38,0L84,93a3.68,3.68,0,0,0-4.23-.45A32.43,32.43,0,0,1,73,95.39a3.66,3.66,0,0,0-2.67,3.31l-.43,7.6a1,1,0,0,1-1,1H59.07a1,1,0,0,1-1-1l-.43-7.6A3.66,3.66,0,0,0,55,95.39a32.43,32.43,0,0,1-6.78-2.81,3.79,3.79,0,0,0-1.81-.47A3.64,3.64,0,0,0,44,93L38.28,98.1a1,1,0,0,1-1.38,0l-7-7a1,1,0,0,1,0-1.38L35,84a3.68,3.68,0,0,0,.45-4.23A32.75,32.75,0,0,1,32.61,73a3.66,3.66,0,0,0-3.31-2.67l-7.6-.43a1,1,0,0,1-.95-1V59.08a1,1,0,0,1,.95-1l7.6-.43A3.66,3.66,0,0,0,32.61,55a32.75,32.75,0,0,1,2.81-6.78A3.68,3.68,0,0,0,35,44L29.9,38.28a1,1,0,0,1,0-1.38l7-7a1,1,0,0,1,1.38,0L44,35a3.68,3.68,0,0,0,4.23.45A32.43,32.43,0,0,1,55,32.61a3.66,3.66,0,0,0,2.67-3.31l.43-7.6a1,1,0,0,1,1-.95h9.86a1,1,0,0,1,1,.95l.43,7.6A3.66,3.66,0,0,0,73,32.61a32.43,32.43,0,0,1,6.78,2.81A3.68,3.68,0,0,0,84,35l5.68-5.07a1,1,0,0,1,1.38,0l7,7a1,1,0,0,1,0,1.38L93,44a3.68,3.68,0,0,0-.45,4.23A32.43,32.43,0,0,1,95.39,55a3.66,3.66,0,0,0,3.31,2.67l7.6.43a1,1,0,0,1,1,1Z"/><path d="M64,36.87A27.13,27.13,0,1,0,78.69,86.8,1.74,1.74,0,0,0,79,84.1l-8.87-8.88a1.75,1.75,0,0,0-1.87-.4A12.54,12.54,0,0,1,51.22,62l6,6a1.74,1.74,0,0,0,1.69.46l7-1.88a1.78,1.78,0,0,0,1.24-1.24l1.87-7a1.74,1.74,0,0,0-.45-1.69l-6-6a12.56,12.56,0,0,1,12.83,17,1.75,1.75,0,0,0,.39,1.87l8.74,8.74a1.75,1.75,0,0,0,2.74-.34A27.14,27.14,0,0,0,64,36.87ZM85.37,74.08l-6.29-6.29A16,16,0,0,0,58.54,47.92a1.74,1.74,0,0,0-.67,2.89l7.59,7.6-1.35,5.08L59,64.84l-7.59-7.59a1.76,1.76,0,0,0-2.89.67A16,16,0,0,0,68.4,78.46L74.9,85A23.65,23.65,0,1,1,85.37,74.08Z"/></svg>
