<svg id="O" height="512" viewBox="0 0 128 128" width="512" xmlns="http://www.w3.org/2000/svg"><path d="m48.11 78.67h54.27a1.79 1.79 0 0 0 1.72-1.47l6.63-40.2a1.75 1.75 0 0 0 -1.73-2h-64.06l-1.24-7.56a12.14 12.14 0 0 0 -12-10.19h-12.7a1.75 1.75 0 0 0 0 3.5h12.69a8.63 8.63 0 0 1 8.55 7.25l7.76 47.17a8.52 8.52 0 0 0 .09 17h4.41a8.47 8.47 0 1 0 13.69 0h20a8.47 8.47 0 1 0 13.69 0h2.44a1.75 1.75 0 0 0 0-3.5h-54.21a5 5 0 0 1 0-10zm37.09-26.38-.81 9.09h-16.32l-.81-9.09zm-18.26-3.5-.94-10.29h20.4l-.91 10.29zm36.23 12.59h-15.26l.81-9.09h15.94zm-51.6 13.79-1.7-10.29h15l.92 10.29zm16.81-10.29h15.7l-.92 10.29h-13.86zm-3.83-3.5h-15.26l-1.49-9.09h15.94zm22.13 13.79.91-10.29h15l-1.7 10.29zm18.56-26.38h-16.24l1-10.29h17zm-42.73-10.29.92 10.29h-16.21l-1.7-10.29zm1.82 58.66a5 5 0 1 1 -5-5 5 5 0 0 1 5 5zm33.73 0a5 5 0 1 1 -5-5 5 5 0 0 1 5 5z"/></svg>