<svg id="O" height="512" viewBox="0 0 128 128" width="512" xmlns="http://www.w3.org/2000/svg"><path d="m106 87.34h-13.57v-64.47a5.62 5.62 0 0 0 -5.62-5.62h-54.74a5.62 5.62 0 0 0 -5.62 5.62v77a10.92 10.92 0 0 0 10.91 10.91h62.48a11.08 11.08 0 0 0 10.91-11.23v-7.44a4.78 4.78 0 0 0 -4.75-4.77zm-68.64 19.91a7.41 7.41 0 0 1 -7.36-7.41v-77a2.12 2.12 0 0 1 2.12-2.12h54.69a2.12 2.12 0 0 1 2.12 2.12v77a10.85 10.85 0 0 0 2.91 7.41zm69.89-7.73c0 3.55-1.7 7.76-7.15 7.76s-7.67-3.75-7.67-7.44v-9h13.57a1.27 1.27 0 0 1 1.27 1.27z"/><path d="m42.33 33.75v12.59a1.75 1.75 0 0 0 3.5 0v-12.59h3.54a1.75 1.75 0 1 0 0-3.5h-10.58a1.75 1.75 0 1 0 0 3.5z"/><path d="m52 48a1.76 1.76 0 0 0 2.25-1.05l.6-1.65h6l.6 1.65a1.74 1.74 0 0 0 2.2 1.05 1.76 1.76 0 0 0 1.05-2.25l-5.25-14.35a1.75 1.75 0 0 0 -3.29 0l-5.24 14.34a1.76 1.76 0 0 0 1.08 2.26zm5.81-10.9 1.72 4.69h-3.44z"/><path d="m67.67 47.84a1.75 1.75 0 0 0 2.4-.59l2.85-4.7 2.85 4.7a1.75 1.75 0 1 0 3-1.81l-3.77-6.27 3.79-6.26a1.75 1.75 0 1 0 -3-1.82l-2.85 4.7-2.85-4.7a1.75 1.75 0 1 0 -3 1.82l3.79 6.26-3.79 6.27a1.74 1.74 0 0 0 .58 2.4z"/><path d="m79.42 60.28h-39.49a1.75 1.75 0 0 0 0 3.5h39.49a1.75 1.75 0 0 0 0-3.5z"/><path d="m79.42 75h-39.49a1.75 1.75 0 0 0 0 3.5h39.49a1.75 1.75 0 0 0 0-3.5z"/><path d="m79.42 89.66h-39.49a1.75 1.75 0 0 0 0 3.5h39.49a1.75 1.75 0 0 0 0-3.5z"/></svg>