<svg id="O" height="512" viewBox="0 0 128 128" width="512" xmlns="http://www.w3.org/2000/svg"><path d="m104 17.25h-80a6.79 6.79 0 0 0 -6.75 6.75v80a6.79 6.79 0 0 0 6.75 6.75h80a6.79 6.79 0 0 0 6.78-6.79v-79.96a6.79 6.79 0 0 0 -6.78-6.75zm-83.25 6.75a3.28 3.28 0 0 1 3.25-3.25h80a3.28 3.28 0 0 1 3.25 3.25v10.3h-86.5zm86.5 80a3.28 3.28 0 0 1 -3.28 3.29h-79.97a3.28 3.28 0 0 1 -3.25-3.29v-66.16h86.5z"/><path d="m37.39 91.59a5.75 5.75 0 0 0 8.13 0l15-15a5.74 5.74 0 0 0 0-8.13l-15-15a5.75 5.75 0 1 0 -8.13 8.14l10.91 10.94-10.91 10.92a5.74 5.74 0 0 0 0 8.13zm2.47-5.66 12.14-12.15a1.75 1.75 0 0 0 0-2.47l-12.14-12.15a2.25 2.25 0 0 1 3.14-3.16l15 15a2.26 2.26 0 0 1 0 3.19l-15 15a2.3 2.3 0 0 1 -3.18 0 2.25 2.25 0 0 1 .04-3.26z"/><path d="m70.23 93.27h19.32a5.75 5.75 0 0 0 0-11.5h-19.32a5.75 5.75 0 0 0 0 11.5zm0-8h19.32a2.25 2.25 0 0 1 0 4.5h-19.32a2.25 2.25 0 0 1 0-4.5z"/><circle cx="30.06" cy="27.55" r="1.75"/><circle cx="36.7" cy="27.55" r="1.75"/><circle cx="43.34" cy="27.55" r="1.75"/></svg>