<svg id="O" height="512" viewBox="0 0 128 128" width="512" xmlns="http://www.w3.org/2000/svg"><path d="m108.79 41.18-17.87-15.31a3.71 3.71 0 0 0 -6.12 2.81v5.43h-38.67a16.83 16.83 0 0 0 -16.81 16.8v4.09a1.75 1.75 0 0 0 1.75 1.75h53.73v5.43a3.71 3.71 0 0 0 6.12 2.82l17.87-15.31a5.63 5.63 0 0 0 0-8.51zm-2.28 5.87-17.86 15.32a.21.21 0 0 1 -.35-.16v-7.21a1.75 1.75 0 0 0 -1.75-1.75h-53.73v-2.34a13.32 13.32 0 0 1 13.31-13.3h40.42a1.75 1.75 0 0 0 1.75-1.75v-7.18a.21.21 0 0 1 .35-.15l17.86 15.31a2.11 2.11 0 0 1 0 3.21z"/><path d="m96.93 71.22h-53.73v-5.43a3.7 3.7 0 0 0 -6.12-2.79l-17.87 15.29a5.63 5.63 0 0 0 0 8.53l17.87 15.31a3.7 3.7 0 0 0 6.12-2.81v-5.43h38.67a16.83 16.83 0 0 0 16.81-16.8v-4.09a1.75 1.75 0 0 0 -1.75-1.78zm-1.75 5.87a13.32 13.32 0 0 1 -13.31 13.3h-40.42a1.75 1.75 0 0 0 -1.75 1.75v7.18a.21.21 0 0 1 -.35.15l-17.86-15.31a2.11 2.11 0 0 1 0-3.21l17.86-15.32a.21.21 0 0 1 .35.16v7.21a1.75 1.75 0 0 0 1.75 1.75h53.73z"/></svg>