<?xml version="1.0" encoding="UTF-8"?>
<svg xmlns="http://www.w3.org/2000/svg" id="O" viewBox="0 0 128 128" width="512" height="512"><path d="M110.74,45.53a6.16,6.16,0,0,0-3.65-5.62V32.63a9.89,9.89,0,0,0-9.88-9.88H30.77a9.9,9.9,0,0,0-9.89,9.88v7.28a6.18,6.18,0,0,0-3.64,5.62v3.9a3.41,3.41,0,0,0,.48,1.74,3.41,3.41,0,0,0-.48,1.74v3.9a6.18,6.18,0,0,0,3.64,5.62V92.24a6.18,6.18,0,0,0-3.64,5.62v3.9a3.5,3.5,0,0,0,3.49,3.49h86.52a3.5,3.5,0,0,0,3.49-3.49v-3.9a6.16,6.16,0,0,0-3.65-5.62V62.43a6.16,6.16,0,0,0,3.65-5.62v-3.9a3.41,3.41,0,0,0-.48-1.74,3.41,3.41,0,0,0,.48-1.74Zm-7.15-12.9v6.73H96V26.25h1.23A6.38,6.38,0,0,1,103.59,32.63ZM47.34,26.25H80.63V39.36H47.34Zm-23,6.38a6.39,6.39,0,0,1,6.39-6.38H32V39.36H24.38Zm-1,10.23H33.75a1.75,1.75,0,0,0,1.75-1.75V26.25h8.34V41.11a1.75,1.75,0,0,0,1.75,1.75H82.38a1.75,1.75,0,0,0,1.75-1.75V26.25h8.35V41.11a1.75,1.75,0,0,0,1.75,1.75h10.33a2.68,2.68,0,0,1,2.68,2.67v3.89H20.74V45.53A2.68,2.68,0,0,1,23.41,42.86Zm38.51,30h4.14a9.52,9.52,0,0,0,9.5-9.51V63h5.07V91.69H47.34V63h5.07v.32A9.53,9.53,0,0,0,61.92,72.81ZM72.06,63.3a6,6,0,0,1-6,6H61.92a6,6,0,0,1-6-6V52.92H72.06ZM24.38,63H32V91.69H24.38Zm79.21,28.71H96V63h7.61Zm1-32.21H94.23a1.75,1.75,0,0,0-1.75,1.75V93.44a1.75,1.75,0,0,0,1.75,1.75h10.33a2.68,2.68,0,0,1,2.68,2.67v3.89H20.74v-3.9a2.68,2.68,0,0,1,2.67-2.67H33.75a1.75,1.75,0,0,0,1.75-1.75V61.23a1.75,1.75,0,0,0-1.75-1.75H23.41a2.68,2.68,0,0,1-2.67-2.67V52.92H52.41v6.56H45.59a1.75,1.75,0,0,0-1.75,1.75V93.44a1.75,1.75,0,0,0,1.75,1.75H82.38a1.75,1.75,0,0,0,1.75-1.75V61.23a1.75,1.75,0,0,0-1.75-1.75H75.56V52.92h31.68v3.89A2.68,2.68,0,0,1,104.56,59.48Z"/><path d="M64,64.73A1.76,1.76,0,0,0,65.74,63v-5a1.75,1.75,0,1,0-3.5,0v5A1.75,1.75,0,0,0,64,64.73Z"/></svg>
