<?xml version="1.0" encoding="UTF-8"?>
<svg xmlns="http://www.w3.org/2000/svg" id="O" viewBox="0 0 128 128" width="512" height="512"><path d="M59.76,75.27A1.75,1.75,0,0,0,58,77a18.63,18.63,0,1,1-37.26,0V73.9a1.75,1.75,0,0,0-3.5,0V77a22.15,22.15,0,0,0,20.38,22v8.18H31a1.75,1.75,0,1,0,0,3.5H47.72a1.75,1.75,0,0,0,0-3.5H41.13V99.07A22.15,22.15,0,0,0,61.51,77,1.75,1.75,0,0,0,59.76,75.27Z"/><path d="M104,17.25H44.34A6.72,6.72,0,0,0,37.63,24V45.43A14.39,14.39,0,0,0,25,59.69V77a14.39,14.39,0,0,0,28.77,0V71.15H104a6.72,6.72,0,0,0,6.71-6.71V24A6.72,6.72,0,0,0,104,17.25ZM50.26,77a10.89,10.89,0,0,1-21.77,0V59.69a10.89,10.89,0,0,1,21.77,0Zm57-12.58A3.21,3.21,0,0,1,104,67.65H53.76v-8A14.38,14.38,0,0,0,41.13,45.43V24a3.21,3.21,0,0,1,3.21-3.21H104A3.21,3.21,0,0,1,107.25,24Z"/><path d="M87.44,29.8H81.59a1.75,1.75,0,0,0-1.75,1.75v25.3a1.75,1.75,0,0,0,1.75,1.75h5.85a8.15,8.15,0,0,0,8.13-8.14V37.93A8.14,8.14,0,0,0,87.44,29.8Zm4.63,20.66a4.64,4.64,0,0,1-4.63,4.64h-4.1V33.3h4.1a4.64,4.64,0,0,1,4.63,4.63Z"/><path d="M66.87,31a1.76,1.76,0,0,0-3.35,0L55.75,56.34a1.76,1.76,0,0,0,1.16,2.19,1.79,1.79,0,0,0,.51.07,1.74,1.74,0,0,0,1.67-1.23l1.21-3.93h9.79l1.2,3.93a1.75,1.75,0,0,0,3.35-1Zm-5.5,18.91,3.82-12.43L69,49.94Z"/></svg>
