<?xml version="1.0" encoding="UTF-8"?>
<svg xmlns="http://www.w3.org/2000/svg" id="O" viewBox="0 0 128 128" width="512" height="512"><path d="M59.76,75.27A1.75,1.75,0,0,0,58,77a18.63,18.63,0,1,1-37.26,0V73.9a1.75,1.75,0,0,0-3.5,0V77a22.15,22.15,0,0,0,20.38,22v8.18H31a1.75,1.75,0,1,0,0,3.5H47.72a1.75,1.75,0,0,0,0-3.5H41.13V99.07A22.15,22.15,0,0,0,61.51,77,1.75,1.75,0,0,0,59.76,75.27Z"/><path d="M104,17.25H44.34A6.72,6.72,0,0,0,37.63,24V45.43A14.39,14.39,0,0,0,25,59.69V77a14.39,14.39,0,0,0,28.77,0V71.15H104a6.72,6.72,0,0,0,6.71-6.71V24A6.72,6.72,0,0,0,104,17.25ZM50.26,77a10.89,10.89,0,0,1-21.77,0V59.69a10.89,10.89,0,0,1,21.77,0Zm57-12.58A3.21,3.21,0,0,1,104,67.65H53.76v-8A14.44,14.44,0,0,0,41.13,45.42V24a3.21,3.21,0,0,1,3.21-3.21H104A3.21,3.21,0,0,1,107.25,24Z"/><path d="M65.35,44.15h-4a4,4,0,0,0-4,4V58.49a4,4,0,0,0,4,4h4a4,4,0,0,0,4-4V48.12A4,4,0,0,0,65.35,44.15Zm.47,14.34a.47.47,0,0,1-.47.47h-4a.48.48,0,0,1-.48-.47V48.12a.48.48,0,0,1,.48-.47h4a.47.47,0,0,1,.47.47Z"/><path d="M81.74,36.37h-4a4,4,0,0,0-4,4V58.49a4,4,0,0,0,4,4h4a4,4,0,0,0,4-4V40.34A4,4,0,0,0,81.74,36.37Zm.47,22.12a.47.47,0,0,1-.47.47h-4a.47.47,0,0,1-.47-.47V40.34a.47.47,0,0,1,.47-.47h4a.47.47,0,0,1,.47.47Z"/><path d="M98.12,29.34h-4a4,4,0,0,0-4,4V58.49a4,4,0,0,0,4,4h4a4,4,0,0,0,4-4V33.31A4,4,0,0,0,98.12,29.34Zm.47,29.15a.47.47,0,0,1-.47.47h-4a.47.47,0,0,1-.47-.47V33.31a.47.47,0,0,1,.47-.47h4a.47.47,0,0,1,.47.47Z"/></svg>
