<svg id="O" height="512" viewBox="0 0 128 128" width="512" xmlns="http://www.w3.org/2000/svg"><path d="m64 17.16a34.19 34.19 0 0 0 -20.67 61.41 1.75 1.75 0 1 0 2.12-2.78 30.68 30.68 0 1 1 37.2-.08 1.75 1.75 0 0 0 2.13 2.78 34.19 34.19 0 0 0 -20.78-61.33z"/><path d="m76.63 66.45a1.75 1.75 0 0 0 2.47 0 21.36 21.36 0 1 0 -30.2 0 1.75 1.75 0 1 0 2.47-2.45 17.86 17.86 0 1 1 25.26 0 1.74 1.74 0 0 0 0 2.45z"/><path d="m68.93 59.63a9.65 9.65 0 1 0 -9.87 0l-16.33 48.81a1.75 1.75 0 0 0 2.87 1.83l18.4-17.56 18.4 17.56a1.75 1.75 0 0 0 2.87-1.83zm3.18 20.51-8.11 7.73-8.11-7.73 6.46-19.29a9.88 9.88 0 0 0 3.3 0c2.18 6.49.75 2.22 6.46 19.29zm-8.11-34.94a6.15 6.15 0 1 1 -6.15 6.15 6.16 6.16 0 0 1 6.15-6.15zm-15.71 57.66 6.37-19 6.8 6.48zm18.25-12.57 6.8-6.48 6.37 19z"/></svg>