<svg id="O" height="512" viewBox="0 0 128 128" width="512" xmlns="http://www.w3.org/2000/svg"><path d="m104.37 38.06h-80.74a6.38 6.38 0 0 0 -6.38 6.38v47.35a6.39 6.39 0 0 0 6.38 6.39h28.59l-1.64 6.87a4.63 4.63 0 0 0 4.5 5.7h17.84a4.63 4.63 0 0 0 4.5-5.7l-1.64-6.87h28.59a6.39 6.39 0 0 0 6.38-6.39v-47.35a6.38 6.38 0 0 0 -6.38-6.38zm-30.37 67.8a1.12 1.12 0 0 1 -1.09 1.39h-17.83a1.12 1.12 0 0 1 -1.08-1.39l1.83-7.68h16.35zm33.24-14.07a2.89 2.89 0 0 1 -2.88 2.89h-80.73a2.89 2.89 0 0 1 -2.88-2.89v-47.35a2.88 2.88 0 0 1 2.88-2.88h80.74a2.88 2.88 0 0 1 2.88 2.88z"/><path d="m56.48 59.32a1.76 1.76 0 0 0 -1.75 1.75v14.09a1.75 1.75 0 0 0 3.5 0v-14.09a1.75 1.75 0 0 0 -1.75-1.75z"/><path d="m50.87 73.41h-5.71v-12.34a1.75 1.75 0 1 0 -3.5 0v14.09a1.75 1.75 0 0 0 1.75 1.75h7.46a1.75 1.75 0 1 0 0-3.5z"/><path d="m72.21 59.4a1.75 1.75 0 0 0 -2.21 1.15l-2.76 8.77-2.75-8.77a1.75 1.75 0 1 0 -3.34 1.05l4.42 14.08a1.75 1.75 0 0 0 3.34 0l4.45-14.08a1.76 1.76 0 0 0 -1.15-2.2z"/><path d="m84.59 62.82a1.75 1.75 0 0 0 0-3.5h-6.59a1.75 1.75 0 0 0 -1.75 1.75v14.09a1.75 1.75 0 0 0 1.75 1.75h6.55a1.75 1.75 0 0 0 0-3.5h-4.8v-3.54h3.4a1.75 1.75 0 0 0 0-3.5h-3.4v-3.55z"/><path d="m92.15 52.14h-56.3a5.32 5.32 0 0 0 -5.32 5.31v21.33a5.33 5.33 0 0 0 5.32 5.32h56.3a5.33 5.33 0 0 0 5.32-5.32v-21.33a5.32 5.32 0 0 0 -5.32-5.31zm1.85 26.64a1.83 1.83 0 0 1 -1.82 1.82h-56.33a1.83 1.83 0 0 1 -1.85-1.82v-21.33a1.82 1.82 0 0 1 1.82-1.81h56.3a1.82 1.82 0 0 1 1.88 1.81z"/><path d="m54.49 28.13a1.75 1.75 0 0 0 2.51 2.48 10 10 0 0 1 14.06 0 1.75 1.75 0 1 0 2.48-2.48 13.47 13.47 0 0 0 -19.05 0z"/><path d="m52.06 25.7a16.89 16.89 0 0 1 23.88 0 1.75 1.75 0 1 0 2.48-2.48 20.42 20.42 0 0 0 -28.84 0 1.75 1.75 0 1 0 2.48 2.48z"/></svg>