<svg id="O" height="512" viewBox="0 0 128 128" width="512" xmlns="http://www.w3.org/2000/svg"><path d="m103.71 25.26h-3.71v-1.57a6.44 6.44 0 1 0 -12.88 0v1.57h-6.83v-1.57a6.44 6.44 0 0 0 -12.88 0v1.57h-6.82v-1.57a6.44 6.44 0 0 0 -12.88 0v1.57h-6.82v-1.57a6.44 6.44 0 1 0 -12.88 0v1.57h-3.72a7.05 7.05 0 0 0 -7 7v71.41a7.05 7.05 0 0 0 7 7h79.42a7.05 7.05 0 0 0 7-7v-71.37a7.05 7.05 0 0 0 -7-7.04zm-13.1-1.57a2.94 2.94 0 1 1 5.88 0v6.45a2.94 2.94 0 0 1 -5.88 0zm-19.7 0a2.94 2.94 0 0 1 5.88 0v6.45a2.94 2.94 0 1 1 -5.88 0zm-19.7 0a2.94 2.94 0 0 1 5.88 0v6.45a2.94 2.94 0 1 1 -5.88 0zm-19.7 0a2.94 2.94 0 1 1 5.88 0v6.45a2.94 2.94 0 1 1 -5.88 0zm-10.76 8.61a3.55 3.55 0 0 1 3.54-3.54h3.71v1.38a6.44 6.44 0 1 0 12.88 0v-1.38h6.82v1.38a6.44 6.44 0 0 0 12.88 0v-1.38h6.82v1.38a6.44 6.44 0 0 0 12.88 0v-1.38h6.82v1.38a6.44 6.44 0 0 0 12.88 0v-1.38h3.72a3.55 3.55 0 0 1 3.54 3.54v10.15h-86.49zm86.5 71.41a3.55 3.55 0 0 1 -3.54 3.54h-79.42a3.55 3.55 0 0 1 -3.54-3.54v-57.71h86.5z"/><path d="m62.25 92.76v5.24h-7.71a1.75 1.75 0 0 0 0 3.5h18.92a1.75 1.75 0 0 0 0-3.5h-7.71v-5.24a17 17 0 0 0 15.25-16.92 1.75 1.75 0 0 0 -3.5 0 13.51 13.51 0 1 1 -27 0 1.75 1.75 0 0 0 -3.5 0 17 17 0 0 0 15.25 16.92z"/><path d="m64 87.05a11.22 11.22 0 0 0 11.21-11.21v-13a11.21 11.21 0 1 0 -22.42 0v13a11.22 11.22 0 0 0 11.21 11.21zm-7.71-24.18a7.71 7.71 0 1 1 15.42 0v13a7.71 7.71 0 1 1 -15.42 0z"/></svg>