<svg id="O" height="512" viewBox="0 0 128 128" width="512" xmlns="http://www.w3.org/2000/svg"><path d="m84.38 75.27a1.75 1.75 0 0 0 -1.75 1.73 18.63 18.63 0 1 1 -37.26 0 1.75 1.75 0 0 0 -3.5 0 22.15 22.15 0 0 0 20.38 22v8.18h-10.88a1.75 1.75 0 0 0 0 3.5h25.26a1.75 1.75 0 0 0 0-3.5h-10.88v-8.11a22.15 22.15 0 0 0 20.38-22.07 1.75 1.75 0 0 0 -1.75-1.73z"/><path d="m96.17 38a17.23 17.23 0 0 0 -23.49-12.25 23 23 0 0 0 -41.19 12.25 15.51 15.51 0 0 0 1.26 31h16.86v8a14.39 14.39 0 0 0 28.77 0v-8.06h16.87a15.5 15.5 0 0 0 .92-31zm-21.29 39a10.89 10.89 0 0 1 -21.77 0v-17.31a10.89 10.89 0 0 1 21.77 0zm20.37-11.56h-16.87v-5.75a14.39 14.39 0 0 0 -28.77 0v5.75h-16.86a12 12 0 0 1 0-24h.42a1.75 1.75 0 0 0 1.75-1.74 19.5 19.5 0 0 1 35.73-10.77 1.75 1.75 0 0 0 2.28.57 13.72 13.72 0 0 1 20.07 10.4 1.76 1.76 0 0 0 1.74 1.53h.56a12 12 0 0 1 0 24z"/></svg>