<?xml version="1.0" encoding="UTF-8"?>
<svg xmlns="http://www.w3.org/2000/svg" id="O" viewBox="0 0 128 128" width="512" height="512"><path d="M59.76,75.27A1.75,1.75,0,0,0,58,77a18.63,18.63,0,1,1-37.26,0V73.9a1.75,1.75,0,0,0-3.5,0V77a22.15,22.15,0,0,0,20.38,22v8.18H31a1.75,1.75,0,1,0,0,3.5H47.72a1.75,1.75,0,0,0,0-3.5H41.13V99.07A22.15,22.15,0,0,0,61.51,77,1.75,1.75,0,0,0,59.76,75.27Z"/><path d="M104,17.25H44.34A6.72,6.72,0,0,0,37.63,24V45.43A14.39,14.39,0,0,0,25,59.69V77a14.39,14.39,0,0,0,28.77,0V71.15H104a6.72,6.72,0,0,0,6.71-6.71V24A6.72,6.72,0,0,0,104,17.25ZM50.26,77a10.89,10.89,0,0,1-21.77,0V59.69a10.89,10.89,0,0,1,21.77,0Zm57-12.58A3.21,3.21,0,0,1,104,67.65H53.76v-8A14.39,14.39,0,0,0,41.13,45.43V24a3.21,3.21,0,0,1,3.21-3.21H104A3.21,3.21,0,0,1,107.25,24Z"/><path d="M87,28l-2.32-.58a34,34,0,0,0-16.22,0L66.1,28a6.18,6.18,0,0,0-4.72,6V44.6a18.73,18.73,0,0,0,14.8,18.24,1.75,1.75,0,0,0,.72,0A18.73,18.73,0,0,0,91.69,44.6V34A6.18,6.18,0,0,0,87,28ZM88.19,44.6A15.21,15.21,0,0,1,76.54,59.33,15.21,15.21,0,0,1,64.88,44.6V34a2.71,2.71,0,0,1,2.06-2.63l2.32-.57a30.6,30.6,0,0,1,14.55,0l2.33.57a2.7,2.7,0,0,1,2,2.63Z"/><path d="M70.34,39.67a4.17,4.17,0,0,1,3.06-.94,1.75,1.75,0,0,0,.33-3.49A7.64,7.64,0,0,0,68.11,37a1.75,1.75,0,0,0,2.23,2.7Z"/><path d="M79.34,35.24a1.75,1.75,0,0,0,.34,3.49,4.15,4.15,0,0,1,3.06.94A1.75,1.75,0,0,0,85,37,7.66,7.66,0,0,0,79.34,35.24Z"/><path d="M84,43.85a1.77,1.77,0,0,0-1.52-.1,20.12,20.12,0,0,1-11.9,0,1.75,1.75,0,0,0-2.39,1.36c-.13.89.78,4.31,2.77,6.63a7.24,7.24,0,0,0,5.57,2.68,7.06,7.06,0,0,0,5.38-2.71c1.82-2.12,3.11-5.56,3-6.6A1.74,1.74,0,0,0,84,43.85Zm-7.47,7.07c-2,0-3.23-1.6-4-3.09a27.57,27.57,0,0,0,4,.32,26.45,26.45,0,0,0,3.79-.3C79.5,49.35,78.23,50.92,76.54,50.92Z"/></svg>
