<svg id="O" height="512" viewBox="0 0 128 128" width="512" xmlns="http://www.w3.org/2000/svg"><path d="m103.83 17.25h-79.66a6.92 6.92 0 0 0 -6.92 6.92v58.08a6.92 6.92 0 0 0 6.92 6.92h28.9l-1.44 9h-5.32a5.81 5.81 0 0 0 -5.81 5.83v5a1.75 1.75 0 0 0 1.75 1.75h43.5a1.75 1.75 0 0 0 1.75-1.75v-5a5.81 5.81 0 0 0 -5.81-5.81h-5.32l-1.44-9h28.9a6.92 6.92 0 0 0 6.92-6.92v-58.1a6.92 6.92 0 0 0 -6.92-6.92zm-19.83 86.75v3.24h-40v-3.24a2.31 2.31 0 0 1 2.31-2.31h35.38a2.31 2.31 0 0 1 2.31 2.31zm-28.83-5.8 1.44-9h14.78l1.44 9zm-34.42-74a3.42 3.42 0 0 1 3.42-3.42h79.66a3.42 3.42 0 0 1 3.42 3.42v48.8h-86.5zm86.5 58.08a3.42 3.42 0 0 1 -3.42 3.42h-79.66a3.42 3.42 0 0 1 -3.42-3.42v-5.76h86.5z"/><path d="m77.93 43.8a1.75 1.75 0 0 0 -1.75 1.75 12.18 12.18 0 0 1 -24.36 0 1.75 1.75 0 0 0 -3.5 0 15.7 15.7 0 0 0 13.93 15.57v4.54h-4a1.75 1.75 0 0 0 0 3.5h11.45a1.75 1.75 0 1 0 0-3.5h-4v-4.54a15.7 15.7 0 0 0 13.98-15.57 1.75 1.75 0 0 0 -1.75-1.75z"/><path d="m64 54.14a8.92 8.92 0 0 0 8.91-8.9v-9.82a8.91 8.91 0 0 0 -17.82 0v9.82a8.92 8.92 0 0 0 8.91 8.9zm-5.41-18.72a5.41 5.41 0 0 1 10.82 0v9.82a5.41 5.41 0 0 1 -10.82 0z"/></svg>