<svg id="O" height="512" viewBox="0 0 128 128" width="512" xmlns="http://www.w3.org/2000/svg"><path d="m59.76 75.27a1.75 1.75 0 0 0 -1.76 1.73 18.63 18.63 0 1 1 -37.26 0v-3.1a1.75 1.75 0 0 0 -3.5 0v3.1a22.15 22.15 0 0 0 20.38 22v8.18h-6.62a1.75 1.75 0 1 0 0 3.5h16.72a1.75 1.75 0 0 0 0-3.5h-6.59v-8.11a22.15 22.15 0 0 0 20.38-22.07 1.75 1.75 0 0 0 -1.75-1.73z"/><path d="m39.38 91.4a14.4 14.4 0 0 0 14.38-14.4v-17.31a14.39 14.39 0 0 0 -28.77 0v17.31a14.4 14.4 0 0 0 14.39 14.4zm-10.89-31.71a10.89 10.89 0 0 1 21.77 0v17.31a10.89 10.89 0 0 1 -21.77 0z"/><path d="m82.87 25.83a19.2 19.2 0 0 0 -.05 38.4h.11a19.2 19.2 0 0 0 -.06-38.4zm9 23.9a41 41 0 0 0 0-9.4 23.27 23.27 0 0 0 5.22-1.9 15.65 15.65 0 0 1 0 13.2 23.77 23.77 0 0 0 -5.2-1.9zm-9 11h-.07c-1.7 0-3.86-3-5-8.19a37.16 37.16 0 0 1 10.05 0c-1.08 5.16-3.24 8.15-4.94 8.19zm-5.57-11.65a39.16 39.16 0 0 1 0-8.1 41.14 41.14 0 0 0 11.14 0 37.81 37.81 0 0 1 0 8.1 40.75 40.75 0 0 0 -11.14 0zm-8.67 2.55a15.65 15.65 0 0 1 0-13.2 23.18 23.18 0 0 0 5.23 1.9 41 41 0 0 0 0 9.4 23.36 23.36 0 0 0 -5.23 1.9zm14.24-22.3c1.71 0 3.89 3 5 8.19a37.58 37.58 0 0 1 -10.05 0c1.18-5.19 3.34-8.19 5.05-8.19zm12.42 6.1a19.64 19.64 0 0 1 -4 1.43 24.08 24.08 0 0 0 -2.21-6.24 15.55 15.55 0 0 1 6.21 4.81zm-18.66-4.81a23.36 23.36 0 0 0 -2.21 6.24 19.74 19.74 0 0 1 -4-1.43 15.65 15.65 0 0 1 6.21-4.81zm-6.18 24a19.74 19.74 0 0 1 4-1.43 23.59 23.59 0 0 0 2.2 6.24 15.55 15.55 0 0 1 -6.2-4.8zm18.68 4.81a23.72 23.72 0 0 0 2.2-6.24 19.64 19.64 0 0 1 4 1.43 15.59 15.59 0 0 1 -6.2 4.82z"/><path d="m82.87 17.25a27.78 27.78 0 0 0 -23.23 43l-2 7.85a1.75 1.75 0 0 0 2.12 2.12l7.85-2a27.78 27.78 0 1 0 15.23-51zm0 52.07a24.1 24.1 0 0 1 -13.87-4.38 1.76 1.76 0 0 0 -1.43-.26l-5.76 1.45 1.45-5.76a1.76 1.76 0 0 0 -.26-1.43 24.28 24.28 0 1 1 19.9 10.38z"/></svg>