<svg id="O" height="512" viewBox="0 0 128 128" width="512" xmlns="http://www.w3.org/2000/svg"><path d="m64 17.25a46.75 46.75 0 1 0 46.75 46.75 46.8 46.8 0 0 0 -46.75-46.75zm0 90a43.25 43.25 0 1 1 43.25-43.25 43.3 43.3 0 0 1 -43.25 43.25z"/><path d="m84.54 56.7-12.04-1.7-5.4-11a3.46 3.46 0 0 0 -6.2 0l-5.36 11-12.08 1.7a3.46 3.46 0 0 0 -1.91 5.9l8.72 8.47-2.06 12a3.45 3.45 0 0 0 5 3.64l10.79-5.65 10.8 5.68a3.43 3.43 0 0 0 1.61.4 3.45 3.45 0 0 0 3.4-4l-2.07-12 8.73-8.51a3.46 3.46 0 0 0 -1.91-5.9zm-9.27 11.91a3.45 3.45 0 0 0 -1 3l2.13 12-10.79-5.61a3.52 3.52 0 0 0 -3.22 0l-10.73 5.69 2.06-12a3.46 3.46 0 0 0 -1-3.06l-8.72-8.46 12-1.76a3.45 3.45 0 0 0 2.6-1.89l5.4-10.94 5.4 10.94a3.43 3.43 0 0 0 2.6 1.89l12 1.68z"/></svg>