<svg id="O" height="512" viewBox="0 0 128 128" width="512" xmlns="http://www.w3.org/2000/svg"><path d="m83 70.56a1.75 1.75 0 0 0 -3.5 0 15.45 15.45 0 0 1 -30.9 0 1.75 1.75 0 0 0 -3.5 0 19 19 0 0 0 17.2 18.86v6.39h-10.93a1.75 1.75 0 0 0 0 3.5h25.26a1.75 1.75 0 0 0 0-3.5h-10.88v-6.39a19 19 0 0 0 17.25-18.86z"/><path d="m64 83a12.43 12.43 0 0 0 12.41-12.44v-14.63a12.42 12.42 0 1 0 -24.83 0v14.63a12.43 12.43 0 0 0 12.42 12.44zm-8.92-27a8.92 8.92 0 1 1 17.83 0v14.56a8.92 8.92 0 0 1 -17.83 0z"/><path d="m106.23 34.54v-7.8a5.75 5.75 0 0 0 -5.74-5.74h-40.06a10.57 10.57 0 0 0 -8.06-3.75h-28.78a6.34 6.34 0 0 0 -6.34 6.34v80.82a6.34 6.34 0 0 0 6.34 6.34h80.82a6.34 6.34 0 0 0 6.34-6.34v-63.81a6.37 6.37 0 0 0 -4.52-6.06zm-3.5-7.8v7.52h-30.1a7.11 7.11 0 0 1 -6-3.41l-3.91-6.35h37.77a2.24 2.24 0 0 1 2.24 2.24zm4.52 77.67a2.84 2.84 0 0 1 -2.84 2.84h-80.82a2.84 2.84 0 0 1 -2.84-2.84v-80.82a2.84 2.84 0 0 1 2.84-2.84h28.78a7.14 7.14 0 0 1 5.82 3.05c.15.2 1.6 2.62 5.39 8.87a10.65 10.65 0 0 0 9 5.09h31.82a2.86 2.86 0 0 1 2.8 2.84z"/></svg>