<svg id="O" height="512" viewBox="0 0 128 128" width="512" xmlns="http://www.w3.org/2000/svg"><path d="m53.3 56.19a14.09 14.09 0 1 0 -14.64 0 19.78 19.78 0 0 0 -12.43 18.32v4.54a1.75 1.75 0 0 0 1.77 1.75h36a1.75 1.75 0 0 0 1.75-1.75v-4.54a19.76 19.76 0 0 0 -12.45-18.32zm-17.91-12a10.59 10.59 0 1 1 10.61 10.58 10.6 10.6 0 0 1 -10.61-10.59zm26.83 33.11h-32.49v-2.79a16.25 16.25 0 0 1 32.49 0z"/><path d="m85.86 40.62a15.9 15.9 0 1 0 15.91 15.9 15.92 15.92 0 0 0 -15.91-15.9zm0 28.3a12.4 12.4 0 1 1 12.41-12.4 12.41 12.41 0 0 1 -12.41 12.4z"/><path d="m92.14 54.77h-4.53v-4.52a1.75 1.75 0 0 0 -3.5 0v4.52h-4.52a1.75 1.75 0 0 0 0 3.5h4.52v4.52a1.75 1.75 0 0 0 3.5 0v-4.52h4.53a1.75 1.75 0 0 0 0-3.5z"/><path d="m102.17 17.25h-76.34a8.59 8.59 0 0 0 -8.58 8.58v83.17a1.75 1.75 0 0 0 2.83 1.38l15.81-12.38h66.28a8.59 8.59 0 0 0 8.58-8.58v-63.59a8.59 8.59 0 0 0 -8.58-8.58zm5.08 72.21a5.09 5.09 0 0 1 -5.08 5.08h-66.88a1.76 1.76 0 0 0 -1.08.37l-13.46 10.51v-79.59a5.09 5.09 0 0 1 5.08-5.08h76.34a5.09 5.09 0 0 1 5.08 5.08z"/></svg>