<svg id="O" height="512" viewBox="0 0 128 128" width="512" xmlns="http://www.w3.org/2000/svg"><path d="m64 49.64a11.81 11.81 0 0 0 11.8-11.8v-8.79a11.81 11.81 0 0 0 -23.61 0v8.79a11.82 11.82 0 0 0 11.81 11.8zm-8.31-20.59a8.31 8.31 0 0 1 16.61 0v8.79a8.31 8.31 0 0 1 -16.61 0z"/><path d="m103.09 94.21c-.29-1.5-3.59-23.11-4.8-25.56a16.92 16.92 0 0 0 -14.86-9.38c-.19 0 1 0-17.68 0v-3.55a18 18 0 0 0 16.25-17.88 1.75 1.75 0 0 0 -3.5 0 14.47 14.47 0 0 1 -28.93 0 1.75 1.75 0 0 0 -3.5 0 18 18 0 0 0 16.18 17.88v3.54h-17.45a17 17 0 0 0 -15.09 9.39c-1.21 2.46-4.5 23.95-4.79 25.52a13.34 13.34 0 0 0 8.76 15.92c6.55 2.14 13.35-1.32 16.4-7.48l1.53-3a5 5 0 0 1 4.47-2.73h15.84a5 5 0 0 1 4.47 2.73c.46.87 1.13 2.15 1.53 3 3.12 6.33 9.82 9.63 16.4 7.48a13.34 13.34 0 0 0 8.77-15.88zm-9.86 12.55c-4.85 1.58-9.83-1-12.11-5.56-.3-.6-1.33-2.58-1.62-3.15a8.5 8.5 0 0 0 -7.58-4.62h-15.84a8.5 8.5 0 0 0 -7.58 4.62l-1.62 3.15c-2.28 4.55-7.26 7.14-12.11 5.56a9.82 9.82 0 0 1 -6.46-11.76c.15-.59 3.61-22.77 4.54-24.84a13.4 13.4 0 0 1 12-7.42h38.34a13.41 13.41 0 0 1 12 7.41c1 2.2 4.35 24.07 4.54 24.85a9.82 9.82 0 0 1 -6.5 11.76z"/><path d="m55.27 77.62a3.68 3.68 0 0 0 -3.68-3.68h-2.12v-2.12a3.68 3.68 0 0 0 -3.68-3.68h-2a3.68 3.68 0 0 0 -3.68 3.68v2.12h-2.11a3.68 3.68 0 0 0 -3.68 3.68v2a3.68 3.68 0 0 0 3.68 3.65h2.12v2.12a3.68 3.68 0 0 0 3.68 3.68h2a3.68 3.68 0 0 0 3.68-3.68v-2.12h2.12a3.68 3.68 0 0 0 3.68-3.68zm-3.5 2a.18.18 0 0 1 -.18.18h-3.87a1.75 1.75 0 0 0 -1.72 1.72v3.87a.18.18 0 0 1 -.18.18h-2a.18.18 0 0 1 -.18-.18v-3.87a1.75 1.75 0 0 0 -1.75-1.75h-3.89a.18.18 0 0 1 -.18-.18v-2a.18.18 0 0 1 .18-.18h3.87a1.75 1.75 0 0 0 1.75-1.75v-3.84a.18.18 0 0 1 .18-.18h2a.18.18 0 0 1 .18.18v3.87a1.75 1.75 0 0 0 1.75 1.75h3.87a.18.18 0 0 1 .18.18z"/><path d="m82.36 75.93a4.68 4.68 0 1 0 -4.68-4.68 4.69 4.69 0 0 0 4.68 4.68zm0-5.86a1.18 1.18 0 1 1 -1.18 1.18 1.18 1.18 0 0 1 1.18-1.18z"/><path d="m82.36 81.28a4.68 4.68 0 1 0 4.64 4.72 4.69 4.69 0 0 0 -4.64-4.72zm0 5.86a1.18 1.18 0 1 1 1.18-1.14 1.18 1.18 0 0 1 -1.18 1.14z"/><path d="m89.71 73.93a4.68 4.68 0 1 0 4.68 4.67 4.68 4.68 0 0 0 -4.68-4.67zm0 5.85a1.18 1.18 0 1 1 1.18-1.18 1.18 1.18 0 0 1 -1.18 1.18z"/><path d="m79.68 78.6a4.68 4.68 0 1 0 -4.68 4.68 4.68 4.68 0 0 0 4.68-4.68zm-4.68 1.18a1.18 1.18 0 1 1 1.18-1.18 1.17 1.17 0 0 1 -1.18 1.18z"/><path d="m59.24 87.51h-2.66a1.75 1.75 0 0 0 0 3.5h2.66a1.75 1.75 0 0 0 0-3.5z"/><path d="m71.42 87.51h-2.66a1.75 1.75 0 0 0 0 3.5h2.66a1.75 1.75 0 0 0 0-3.5z"/></svg>