<svg id="O" height="512" viewBox="0 0 128 128" width="512" xmlns="http://www.w3.org/2000/svg"><path d="m102.17 17.25h-76.34a8.59 8.59 0 0 0 -8.58 8.58v76.34a8.59 8.59 0 0 0 8.58 8.58h76.34a8.59 8.59 0 0 0 8.58-8.58v-76.34a8.59 8.59 0 0 0 -8.58-8.58zm5.08 84.92a5.09 5.09 0 0 1 -5.08 5.08h-76.34a5.09 5.09 0 0 1 -5.08-5.08v-76.34a5.09 5.09 0 0 1 5.08-5.08h76.34a5.09 5.09 0 0 1 5.08 5.08z"/><path d="m53.89 54.15v.05a16.14 16.14 0 0 0 20.17 0 16.12 16.12 0 1 0 -20.3 0zm3.09-2a7.28 7.28 0 0 1 14.13 0 12.63 12.63 0 0 1 -14.11-.05zm7.07-9a4 4 0 1 1 4-4 4 4 0 0 1 -4 3.94zm0-14.06a12.62 12.62 0 0 1 9.86 20.48 11.09 11.09 0 0 0 -2.22-3.26 10.69 10.69 0 0 0 -2.4-1.8 7.53 7.53 0 1 0 -10.49 0 10.8 10.8 0 0 0 -4.62 5 12.62 12.62 0 0 1 9.87-20.51z"/><path d="m40.69 69.5a16.12 16.12 0 1 0 16.12 16.12 16.14 16.14 0 0 0 -16.12-16.12zm-7.07 26.57a7.28 7.28 0 0 1 14.13 0 12.63 12.63 0 0 1 -14.13 0zm7.07-9a4 4 0 1 1 4-4 4 4 0 0 1 -4 3.99zm9.86 6.42a10.73 10.73 0 0 0 -2.22-3.25 10.61 10.61 0 0 0 -2.39-1.81 7.54 7.54 0 1 0 -10.49 0 10.77 10.77 0 0 0 -4.63 5 12.63 12.63 0 1 1 19.73 0z"/><path d="m87.41 69.5a16.12 16.12 0 1 0 16.11 16.12 16.15 16.15 0 0 0 -16.11-16.12zm-7.08 26.57a7.28 7.28 0 0 1 14.13 0 12.63 12.63 0 0 1 -14.13 0zm7.07-9a4 4 0 1 1 4-4 4 4 0 0 1 -4 3.99zm9.86 6.42a10.65 10.65 0 0 0 -4.61-5.06 7.53 7.53 0 1 0 -10.49 0 10.75 10.75 0 0 0 -4.62 5 12.62 12.62 0 1 1 19.72 0z"/><path d="m72 74.72a1.74 1.74 0 0 0 -.44-2.43l-5.83-4.07v-6.3a1.75 1.75 0 0 0 -3.5 0v6.3l-5.83 4.07a1.74 1.74 0 0 0 -.4 2.43 1.76 1.76 0 0 0 2.44.44l5.56-3.89 5.58 3.89a1.76 1.76 0 0 0 2.42-.44z"/></svg>