<svg id="O" height="512" viewBox="0 0 128 128" width="512" xmlns="http://www.w3.org/2000/svg"><path d="m108.5 73.8a45.74 45.74 0 1 0 -90.25-10.56 46.07 46.07 0 0 0 1.25 10.56 6.9 6.9 0 0 0 -2.25 5.06v15.28a6.85 6.85 0 0 0 6.84 6.86h4v.59a9.17 9.17 0 0 0 18.34 0v-30.17a9.16 9.16 0 0 0 -16.56-5.42c-.07-.91-.12-1.83-.12-2.75a34.25 34.25 0 0 1 68.5 0c0 .92 0 1.84-.12 2.75a9.16 9.16 0 0 0 -16.55 5.43v30.16a9.17 9.17 0 0 0 18.34 0v-.59h4a6.85 6.85 0 0 0 6.84-6.85v-15.29a6.86 6.86 0 0 0 -2.26-5.06zm-84.41 23.69a3.35 3.35 0 0 1 -3.34-3.35v-15.28a3.36 3.36 0 0 1 3.34-3.35h4v22zm7.49-26.07a5.67 5.67 0 0 1 11.34 0v30.16a5.67 5.67 0 0 1 -11.34 0zm32.42-45.93a37.8 37.8 0 0 0 -37.75 37.75 37.38 37.38 0 0 0 1.05 8.76h-3.21a7.88 7.88 0 0 0 -1.38.15 42.82 42.82 0 0 1 -1-8.92 42.25 42.25 0 0 1 84.5 0 42.9 42.9 0 0 1 -1 8.92 7.37 7.37 0 0 0 -1.38-.15h-3.13a37.25 37.25 0 0 0 1-8.77 37.79 37.79 0 0 0 -37.7-37.74zm32.42 76.09a5.67 5.67 0 0 1 -11.34 0v-30.16a5.67 5.67 0 0 1 11.34 0zm10.83-7.44a3.35 3.35 0 0 1 -3.34 3.35h-4v-22h4a3.35 3.35 0 0 1 3.34 3.35z"/></svg>