<?xml version="1.0" encoding="UTF-8"?>
<svg xmlns="http://www.w3.org/2000/svg" id="O" viewBox="0 0 128 128" width="512" height="512"><path d="M74.19,23.3a20.9,20.9,0,1,0,20.9,20.9A20.93,20.93,0,0,0,74.19,23.3Zm0,38.3a17.4,17.4,0,1,1,17.4-17.4A17.43,17.43,0,0,1,74.19,61.6Z"/><path d="M59.76,75.27A1.75,1.75,0,0,0,58,77a18.63,18.63,0,1,1-37.26,0V73.9a1.75,1.75,0,0,0-3.5,0V77a22.15,22.15,0,0,0,20.38,22v8.18H31a1.75,1.75,0,1,0,0,3.5H47.72a1.75,1.75,0,0,0,0-3.5H41.13V99.07A22.15,22.15,0,0,0,61.51,77,1.75,1.75,0,0,0,59.76,75.27Z"/><path d="M104,17.25H44.34A6.72,6.72,0,0,0,37.63,24V45.43A14.39,14.39,0,0,0,25,59.69V77a14.39,14.39,0,0,0,28.77,0V71.15H104a6.72,6.72,0,0,0,6.71-6.71V24A6.72,6.72,0,0,0,104,17.25ZM50.26,77a10.89,10.89,0,0,1-21.77,0V59.69a10.89,10.89,0,0,1,21.77,0Zm57-12.58A3.21,3.21,0,0,1,104,67.65H53.76v-8A14.38,14.38,0,0,0,41.13,45.43V24a3.21,3.21,0,0,1,3.21-3.21H104A3.21,3.21,0,0,1,107.25,24Z"/><path d="M83.16,38.79H79.6V35.23A3.27,3.27,0,0,0,76.33,32H72.05a3.27,3.27,0,0,0-3.27,3.27v3.56H65.22A3.27,3.27,0,0,0,62,42.06v4.28a3.27,3.27,0,0,0,3.27,3.27h3.56v3.56a3.27,3.27,0,0,0,3.27,3.27h4.28a3.27,3.27,0,0,0,3.27-3.27V49.61h3.56a3.27,3.27,0,0,0,3.27-3.27V42.06A3.27,3.27,0,0,0,83.16,38.79Zm-.23,7.32H77.85a1.75,1.75,0,0,0-1.75,1.75v5.08H72.28V47.86a1.75,1.75,0,0,0-1.75-1.75H65.45V42.29h5.08a1.75,1.75,0,0,0,1.75-1.75V35.46H76.1v5.08a1.75,1.75,0,0,0,1.75,1.75h5.08Z"/></svg>
