<svg id="O" height="512" viewBox="0 0 128 128" width="512" xmlns="http://www.w3.org/2000/svg"><path d="m96.17 52.87a34.28 34.28 0 0 0 .27-4.19 32.44 32.44 0 1 0 -64.6 4.2 5.65 5.65 0 0 0 -3.84 5.31v11.62a5.63 5.63 0 0 0 5.62 5.63h2.62a7.4 7.4 0 1 0 14.79 0v-22.91a7.4 7.4 0 1 0 -14.79 0h-.94a29.52 29.52 0 0 1 -.26-3.88 28.94 28.94 0 0 1 57.88 0 29.52 29.52 0 0 1 -.26 3.88h-.94a7.4 7.4 0 1 0 -14.79 0v22.94a7.4 7.4 0 1 0 14.79 0h2.62a5.63 5.63 0 0 0 5.66-5.66v-11.62a5.66 5.66 0 0 0 -3.83-5.32zm-56.41-.34a3.9 3.9 0 1 1 7.79 0v22.94a3.9 3.9 0 1 1 -7.79 0zm-3.5 19.41h-2.62a2.12 2.12 0 0 1 -2.12-2.13v-11.62a2.16 2.16 0 0 1 2.12-2.13h2.62zm52 3.53a3.9 3.9 0 1 1 -7.79 0v-22.94a3.9 3.9 0 1 1 7.79 0zm8.24-5.66a2.12 2.12 0 0 1 -2.12 2.13h-2.64v-15.88h2.62a2.13 2.13 0 0 1 2.12 2.13z"/><path d="m42 97.41h-2.93a4.23 4.23 0 0 0 -4.22 4.22v4.9a4.23 4.23 0 0 0 4.22 4.22h2.93a4.22 4.22 0 0 0 4.22-4.22v-4.9a4.22 4.22 0 0 0 -4.22-4.22zm.72 9.12a.72.72 0 0 1 -.72.72h-2.93a.72.72 0 0 1 -.72-.72v-4.9a.72.72 0 0 1 .72-.72h2.93a.72.72 0 0 1 .72.72z"/><path d="m57.64 89.45h-2.92a4.23 4.23 0 0 0 -4.22 4.22v12.86a4.22 4.22 0 0 0 4.22 4.22h2.92a4.22 4.22 0 0 0 4.21-4.22v-12.86a4.23 4.23 0 0 0 -4.21-4.22zm.71 17.08a.71.71 0 0 1 -.71.72h-2.92a.72.72 0 0 1 -.72-.72v-12.86a.72.72 0 0 1 .72-.72h2.92a.72.72 0 0 1 .71.72z"/><path d="m73.28 85.52h-2.92a4.22 4.22 0 0 0 -4.21 4.21v16.8a4.22 4.22 0 0 0 4.21 4.22h2.92a4.22 4.22 0 0 0 4.22-4.22v-16.8a4.22 4.22 0 0 0 -4.22-4.21zm.72 21a.72.72 0 0 1 -.72.72h-2.92a.71.71 0 0 1 -.71-.72v-16.79a.71.71 0 0 1 .71-.71h2.92a.71.71 0 0 1 .72.71z"/><path d="m88.93 91.47h-2.93a4.22 4.22 0 0 0 -4.22 4.21v10.85a4.22 4.22 0 0 0 4.22 4.22h2.92a4.23 4.23 0 0 0 4.22-4.22v-10.85a4.23 4.23 0 0 0 -4.21-4.21zm.72 15.06a.72.72 0 0 1 -.72.72h-2.93a.72.72 0 0 1 -.72-.72v-10.85a.71.71 0 0 1 .72-.68h2.92a.72.72 0 0 1 .72.71z"/></svg>