<svg id="O" height="512" viewBox="0 0 128 128" width="512" xmlns="http://www.w3.org/2000/svg"><path d="m64 17.25a46.75 46.75 0 1 0 46.75 46.75 46.8 46.8 0 0 0 -46.75-46.75zm0 90a43.25 43.25 0 1 1 43.25-43.25 43.3 43.3 0 0 1 -43.25 43.25z"/><path d="m73.16 43.19a14.41 14.41 0 0 0 -9 3 13.4 13.4 0 0 0 -13.22-2.61 14.73 14.73 0 0 0 -5.94 24.51l15.69 15.73a4.58 4.58 0 0 0 6.48 0l15.67-15.67a14.75 14.75 0 0 0 .52-20.5 14.37 14.37 0 0 0 -10.2-4.46zm7.2 22.49-15.66 15.66a1.11 1.11 0 0 1 -1.53 0l-15.23-15.22c-3-3-4.51-6.89-3.56-11a11.41 11.41 0 0 1 7.67-8.21 9.94 9.94 0 0 1 10.65 2.8 1.73 1.73 0 0 0 1.25.63 1.77 1.77 0 0 0 1.31-.5 11 11 0 0 1 7.85-3.12 10.87 10.87 0 0 1 7.72 3.38 11.24 11.24 0 0 1 -.47 15.58z"/></svg>