<svg id="O" height="512" viewBox="0 0 128 128" width="512" xmlns="http://www.w3.org/2000/svg"><path d="m59.76 75.27a1.75 1.75 0 0 0 -1.76 1.73 18.63 18.63 0 1 1 -37.26 0v-3.1a1.75 1.75 0 0 0 -3.5 0v3.1a22.15 22.15 0 0 0 20.38 22v8.18h-6.62a1.75 1.75 0 1 0 0 3.5h16.72a1.75 1.75 0 0 0 0-3.5h-6.59v-8.11a22.15 22.15 0 0 0 20.38-22.07 1.75 1.75 0 0 0 -1.75-1.73z"/><path d="m39.38 91.4a14.4 14.4 0 0 0 14.38-14.4v-17.31a14.39 14.39 0 0 0 -28.77 0v17.31a14.4 14.4 0 0 0 14.39 14.4zm-10.89-31.71a10.89 10.89 0 0 1 21.77 0v17.31a10.89 10.89 0 0 1 -21.77 0z"/><path d="m82.87 17.25a27.78 27.78 0 0 0 -23.23 43l-2 7.85a1.74 1.74 0 0 0 .46 1.66 1.76 1.76 0 0 0 1.66.46l7.85-2a27.78 27.78 0 1 0 15.23-51zm0 52.07a24 24 0 0 1 -13.87-4.38 1.77 1.77 0 0 0 -1.44-.26l-5.76 1.45 1.45-5.76a1.76 1.76 0 0 0 -.25-1.43 24.28 24.28 0 1 1 19.9 10.38z"/><path d="m81.47 36.68h2.81a2.59 2.59 0 0 1 2.59 2.6 1.75 1.75 0 0 0 3.5 0 6 6 0 0 0 -.64-2.73 6.06 6.06 0 0 0 -5.11-3.34v-1.92a1.75 1.75 0 1 0 -3.5 0v1.91a6.1 6.1 0 0 0 -5.75 6.08v.89a6.13 6.13 0 0 0 4.7 6l4.77 1.17a2.64 2.64 0 0 1 2 2.58 3.48 3.48 0 0 1 -3.48 3.48h-1.89a2.6 2.6 0 0 1 -2.6-2.59 1.75 1.75 0 1 0 -3.5 0 6.09 6.09 0 0 0 5.75 6.07v1.91a1.75 1.75 0 1 0 3.5 0v-2a7 7 0 0 0 5.75-6.87 6.13 6.13 0 0 0 -4.7-6l-4.77-1.17a2.65 2.65 0 0 1 -2-2.58v-.89a2.61 2.61 0 0 1 2.57-2.6z"/></svg>