<svg id="O" height="512" viewBox="0 0 128 128" width="512" xmlns="http://www.w3.org/2000/svg"><path d="m110.75 48a18.86 18.86 0 0 0 -18.84-18.86 18.65 18.65 0 0 0 -9.65 2.67 33.32 33.32 0 0 0 -8.38-4.33 9.87 9.87 0 0 0 -9.74-10.23h-.14c-5.36 0-9.89 4.75-9.89 10.3-10 3.62-21.82 14.81-21.82 30.13v21.05a10.85 10.85 0 0 1 -2.4 6.81l-3 3.76a4.82 4.82 0 0 0 3.75 7.84h17.72a15.74 15.74 0 0 0 31.28 0h17.73a4.82 4.82 0 0 0 3.75-7.84l-3-3.76a10.85 10.85 0 0 1 -2.4-6.81v-12.31a18.81 18.81 0 0 0 15.03-18.42zm-3.5 0a15.34 15.34 0 1 1 -15.34-15.36 15.34 15.34 0 0 1 15.34 15.36zm-43.25 59.63a12.27 12.27 0 0 1 -12.12-10.49h24.24a12.27 12.27 0 0 1 -12.12 10.49zm34.4-16.13a1.27 1.27 0 0 1 .16 1.39 1.3 1.3 0 0 1 -1.19.75h-66.74a1.3 1.3 0 0 1 -1.19-.75 1.27 1.27 0 0 1 .16-1.39l3-3.76a14.39 14.39 0 0 0 3.18-9v-21.06a28.16 28.16 0 0 1 19.35-26.78 3.59 3.59 0 0 0 2.49-3.4 6.67 6.67 0 0 1 6.38-6.75h.1a6.39 6.39 0 0 1 6.27 6.73 3.58 3.58 0 0 0 2.45 3.41 28 28 0 0 1 6.47 3.11 18.84 18.84 0 0 0 12.91 32.81v11.92a14.39 14.39 0 0 0 3.18 9z"/><path d="m91.91 51.27a1.75 1.75 0 0 0 1.75-1.75v-8.73a1.75 1.75 0 1 0 -3.5 0v8.73a1.75 1.75 0 0 0 1.75 1.75z"/><path d="m90.67 56.41a1.75 1.75 0 0 0 2.48-2.48 1.82 1.82 0 0 0 -2.48 0 1.77 1.77 0 0 0 0 2.48z"/></svg>