<svg id="O" height="512" viewBox="0 0 128 128" width="512" xmlns="http://www.w3.org/2000/svg"><path d="m64 30.15a27 27 0 0 0 -21.92 42.85 1.75 1.75 0 0 0 2.83-2 23.54 23.54 0 1 1 38.6-.62 1.75 1.75 0 0 0 2.9 2 27 27 0 0 0 -22.41-42.23z"/><path d="m64 17.38a40.06 40.06 0 0 0 -40 40 39.65 39.65 0 0 0 12.55 29.1 1.75 1.75 0 1 0 2.38-2.48 36.52 36.52 0 1 1 50.13 0 1.75 1.75 0 1 0 2.4 2.54 39.65 39.65 0 0 0 12.54-29.15 40.06 40.06 0 0 0 -40-40.01z"/><path d="m70.71 68.57a13.67 13.67 0 1 0 -13.43 0 14.91 14.91 0 0 0 -8.2 13.3v21.4a7.48 7.48 0 0 0 7.48 7.48h14.87a7.48 7.48 0 0 0 7.48-7.48v-21.4a14.91 14.91 0 0 0 -8.2-13.3zm-16.88-11.88a10.17 10.17 0 1 1 10.17 10.16 10.18 10.18 0 0 1 -10.17-10.16zm21.58 46.58a4 4 0 0 1 -4 4h-14.85a4 4 0 0 1 -4-4v-21.4a11.42 11.42 0 0 1 22.83 0z"/></svg>