<svg id="O" height="512" viewBox="0 0 128 128" width="512" xmlns="http://www.w3.org/2000/svg"><path d="m43.19 79.16a1.75 1.75 0 0 0 -1.75 1.75v18.88a1.75 1.75 0 1 0 3.5 0v-18.88a1.75 1.75 0 0 0 -1.75-1.75z"/><path d="m103.37 45h-61.48l51.49-25a1.75 1.75 0 0 0 -1.53-3.15l-57.23 27.77a1.81 1.81 0 0 0 -.49.37h-9.5a7.39 7.39 0 0 0 -7.38 7.38v51a7.39 7.39 0 0 0 7.38 7.38h78.74a7.39 7.39 0 0 0 7.38-7.38v-51a7.39 7.39 0 0 0 -7.38-7.37zm3.88 58.38a3.88 3.88 0 0 1 -3.88 3.88h-78.74a3.88 3.88 0 0 1 -3.88-3.88v-51a3.88 3.88 0 0 1 3.88-3.88h78.74a3.88 3.88 0 0 1 3.88 3.88z"/><path d="m97.93 54.2h-67.86a3.55 3.55 0 0 0 -3.54 3.54v13.51a3.54 3.54 0 0 0 3.54 3.54h67.86a3.54 3.54 0 0 0 3.54-3.54v-13.51a3.55 3.55 0 0 0 -3.54-3.54zm-67.93 17.05v-13.55h3.78v3.64a1.75 1.75 0 0 0 3.5 0v-3.64h4.72v3.63a1.75 1.75 0 0 0 3.5 0v-3.62h4.66v3.63a1.75 1.75 0 0 0 3.5 0v-3.63h4.66v3.62a1.75 1.75 0 0 0 3.5 0v-3.61h4.68v3.62a1.75 1.75 0 0 0 3.5 0v-3.62h4.67v3.61a1.75 1.75 0 0 0 3.5 0v-3.6h4.66v13.55zm67.94 0a0 0 0 0 1 0 0h-11.61v-13.52h4.67v3.6a1.75 1.75 0 0 0 3.5 0v-3.6h3.5z"/><path d="m84.82 79.16a11.19 11.19 0 1 0 11.18 11.19 11.18 11.18 0 0 0 -11.18-11.19zm0 18.88a7.69 7.69 0 1 1 4.06-14.22l-1.62 1.62a1.75 1.75 0 0 0 2.47 2.47l1.62-1.62a7.7 7.7 0 0 1 -6.53 11.71z"/><path d="m58.35 80.9a1.76 1.76 0 0 0 -1.75 1.75v15.35a1.75 1.75 0 0 0 3.5 0v-15.35a1.75 1.75 0 0 0 -1.75-1.75z"/><path d="m35.6 82.13a1.75 1.75 0 0 0 -1.75 1.75v12.94a1.75 1.75 0 0 0 3.5 0v-12.94a1.75 1.75 0 0 0 -1.75-1.75z"/><path d="m50.77 79.16a1.75 1.75 0 0 0 -1.77 1.75v18.88a1.75 1.75 0 0 0 3.5 0v-18.88a1.75 1.75 0 0 0 -1.73-1.75z"/></svg>