<svg id="O" height="512" viewBox="0 0 128 128" width="512" xmlns="http://www.w3.org/2000/svg"><path d="m104.18 72.26h-38.43v-4.26a22.15 22.15 0 0 0 20.38-22 1.75 1.75 0 0 0 -3.5 0 18.63 18.63 0 1 1 -37.26 0 1.75 1.75 0 0 0 -3.5 0 22.15 22.15 0 0 0 20.38 22v4.25h-38.43a6.57 6.57 0 0 0 -6.57 6.57v25.35a6.58 6.58 0 0 0 6.57 6.57h80.36a6.58 6.58 0 0 0 6.57-6.57v-25.34a6.57 6.57 0 0 0 -6.57-6.57zm3.07 31.92a3.08 3.08 0 0 1 -3.07 3.07h-80.36a3.08 3.08 0 0 1 -3.07-3.07v-25.35a3.07 3.07 0 0 1 3.07-3.07h80.36a3.07 3.07 0 0 1 3.07 3.07z"/><path d="m63.66 93.48a7.1 7.1 0 0 0 -4.09-12.9h-3.17a1.75 1.75 0 0 0 -1.75 1.75v18.34a1.75 1.75 0 0 0 3.5 0v-5.89h1.42a7.37 7.37 0 0 0 .82 0l2.93 6.65a1.75 1.75 0 0 0 1.6 1.05 1.78 1.78 0 0 0 .71-.15 1.76 1.76 0 0 0 .89-2.31zm-5.51-2.2v-7.2h1.42a3.6 3.6 0 0 1 0 7.2z"/><path d="m80.44 84.08a1.75 1.75 0 0 0 0-3.5h-7.52a1.75 1.75 0 0 0 -1.75 1.75v18.34a1.75 1.75 0 0 0 1.75 1.75h7.52a1.75 1.75 0 0 0 0-3.5h-5.77v-5.67h4a1.75 1.75 0 0 0 0-3.5h-4v-5.67z"/><path d="m92.2 80.58h-1.3a5.89 5.89 0 0 0 -5.9 5.88v10.09a5.88 5.88 0 0 0 5.88 5.87h1.3a5.87 5.87 0 0 0 5.87-5.87v-.3a1.75 1.75 0 0 0 -3.5 0v.3a2.37 2.37 0 0 1 -2.37 2.37h-1.28a2.38 2.38 0 0 1 -2.38-2.37v-10.09a2.39 2.39 0 0 1 2.38-2.38h1.3a2.38 2.38 0 0 1 2.37 2.38v.3a1.75 1.75 0 0 0 3.5 0v-.3a5.88 5.88 0 0 0 -5.87-5.88z"/><path d="m38.72 82.7a8.81 8.81 0 1 0 8.8 8.8 8.81 8.81 0 0 0 -8.8-8.8zm0 14.11a5.31 5.31 0 1 1 5.28-5.31 5.3 5.3 0 0 1 -5.28 5.31z"/><path d="m64 60.34a14.4 14.4 0 0 0 14.38-14.34v-14.37a14.39 14.39 0 0 0 -28.77 0v14.37a14.4 14.4 0 0 0 14.39 14.34zm-10.89-28.71a10.89 10.89 0 0 1 21.77 0v14.37a10.89 10.89 0 0 1 -21.77 0z"/></svg>