<svg id="O" height="512" viewBox="0 0 128 128" width="512" xmlns="http://www.w3.org/2000/svg"><path d="m45.55 88.5-4.88-.71-2.18-4.42a2.52 2.52 0 0 0 -4.51 0l-2.18 4.42-4.89.71a2.52 2.52 0 0 0 -1.39 4.29l3.53 3.44-.83 4.87a2.51 2.51 0 0 0 2.47 2.9 2.6 2.6 0 0 0 1.18-.29l4.36-2.3 4.37 2.3a2.54 2.54 0 0 0 2.65-.19 2.51 2.51 0 0 0 1-2.46l-.84-4.87 3.53-3.44a2.51 2.51 0 0 0 -1.39-4.29zm-4.95 5.59a2.5 2.5 0 0 0 -.72 2.23l.58 3.4-3.06-1.61a2.51 2.51 0 0 0 -2.34 0l-3.06 1.61.58-3.41a2.52 2.52 0 0 0 -.72-2.22l-2.46-2.41 3.41-.5a2.53 2.53 0 0 0 1.9-1.37l1.52-3.1 1.53 3.1a2.51 2.51 0 0 0 1.89 1.37l3.42.5z"/><path d="m73.31 88.5-4.88-.71-2.18-4.42a2.52 2.52 0 0 0 -4.51 0l-2.18 4.42-4.88.71a2.52 2.52 0 0 0 -1.4 4.29l3.54 3.44-.82 4.87a2.51 2.51 0 0 0 2.46 2.9 2.56 2.56 0 0 0 1.17-.29l4.37-2.3 4.36 2.3a2.54 2.54 0 0 0 2.65-.19 2.51 2.51 0 0 0 1-2.46l-.84-4.86 3.54-3.45a2.52 2.52 0 0 0 -1.4-4.29zm-5 5.59a2.53 2.53 0 0 0 -.72 2.23l.58 3.4-3-1.61a2.51 2.51 0 0 0 -2.34 0l-3.06 1.61.58-3.41a2.52 2.52 0 0 0 -.72-2.22l-2.47-2.41 3.42-.5a2.53 2.53 0 0 0 1.89-1.37l1.53-3.1 1.52 3.1a2.53 2.53 0 0 0 1.89 1.37l3.42.5z"/><path d="m101.08 88.5-4.89-.71-2.19-4.42a2.52 2.52 0 0 0 -4.51 0l-2.18 4.42-4.88.71a2.51 2.51 0 0 0 -2 1.71 2.48 2.48 0 0 0 .64 2.58l3.53 3.44c-.78 4.52-1.51 6.11.16 7.33a2.54 2.54 0 0 0 1.48.48 2.56 2.56 0 0 0 1.17-.29l4.37-2.3 4.36 2.3a2.54 2.54 0 0 0 2.65-.19 2.51 2.51 0 0 0 1-2.46l-.83-4.87c3.29-3.2 4.8-4 4.16-6a2.49 2.49 0 0 0 -2.04-1.73zm-5.68 7.82.58 3.4-3-1.61a2.54 2.54 0 0 0 -2.34 0l-3.06 1.61c.92-5.36 1.3-4.23-2.61-8l3.42-.5a2.5 2.5 0 0 0 1.89-1.37l1.53-3.1 1.52 3.1c.74 1.5 2 1.38 5.31 1.87-.05-.04-3.53 2.9-3.24 4.6z"/><path d="m64 63.34a14.4 14.4 0 0 0 14.38-14.34v-17.37a14.39 14.39 0 0 0 -28.77 0v17.37a14.4 14.4 0 0 0 14.39 14.34zm-10.89-31.71a10.89 10.89 0 0 1 21.77 0v17.37a10.89 10.89 0 0 1 -21.77 0z"/><path d="m105.36 75.26h-39.61v-4.26a22.15 22.15 0 0 0 20.38-22 1.75 1.75 0 0 0 -3.5 0 18.63 18.63 0 1 1 -37.26 0 1.75 1.75 0 0 0 -3.5 0 22.15 22.15 0 0 0 20.38 22v4.25h-39.61a5.39 5.39 0 0 0 -5.39 5.39v24.71a5.4 5.4 0 0 0 5.39 5.39h82.72a5.4 5.4 0 0 0 5.39-5.39v-24.7a5.39 5.39 0 0 0 -5.39-5.39zm1.89 30.1a1.89 1.89 0 0 1 -1.89 1.89h-82.72a1.89 1.89 0 0 1 -1.89-1.89v-24.71a1.89 1.89 0 0 1 1.89-1.89h82.72a1.89 1.89 0 0 1 1.89 1.89z"/></svg>