<?xml version="1.0" encoding="UTF-8"?>
<svg xmlns="http://www.w3.org/2000/svg" id="O" viewBox="0 0 128 128" width="512" height="512"><path d="M59.76,75.27A1.75,1.75,0,0,0,58,77a18.63,18.63,0,1,1-37.26,0V73.9a1.75,1.75,0,0,0-3.5,0V77a22.15,22.15,0,0,0,20.38,22v8.18H31a1.75,1.75,0,1,0,0,3.5H47.72a1.75,1.75,0,0,0,0-3.5H41.13V99.07A22.15,22.15,0,0,0,61.51,77,1.75,1.75,0,0,0,59.76,75.27Z"/><path d="M104,17.25H44.34A6.72,6.72,0,0,0,37.63,24V45.43A14.39,14.39,0,0,0,25,59.69V77a14.39,14.39,0,0,0,28.77,0V71.15H104a6.72,6.72,0,0,0,6.71-6.71V24A6.72,6.72,0,0,0,104,17.25ZM50.26,77a10.89,10.89,0,0,1-21.77,0V59.69a10.89,10.89,0,0,1,21.77,0Zm57-12.58A3.21,3.21,0,0,1,104,67.65H53.76v-8A14.39,14.39,0,0,0,41.13,45.43V24a3.21,3.21,0,0,1,3.21-3.21H104A3.21,3.21,0,0,1,107.25,24Z"/><path d="M83.35,40.52a7.67,7.67,0,1,0-7.24-5.17L70.4,38.94a7.66,7.66,0,1,0,.09,10.82l5.58,3.4a7.8,7.8,0,0,0-.38,2.38,7.66,7.66,0,1,0,2.2-5.37l-5.58-3.39a7.51,7.51,0,0,0,.38-2.38,7.67,7.67,0,0,0-.42-2.5L78,38.31A7.64,7.64,0,0,0,83.35,40.52Zm0,10.86a4.16,4.16,0,1,1-4.16,4.16A4.17,4.17,0,0,1,83.35,51.38Zm0-22.68a4.16,4.16,0,1,1-4.16,4.16A4.16,4.16,0,0,1,83.35,28.7ZM65,48.56a4.17,4.17,0,1,1,4.16-4.16A4.17,4.17,0,0,1,65,48.56Z"/></svg>
