<svg id="O" height="512" viewBox="0 0 128 128" width="512" xmlns="http://www.w3.org/2000/svg"><path d="m85.43 17.25h-42.86a7.14 7.14 0 0 0 -7.13 7.12v79.26a7.14 7.14 0 0 0 7.13 7.12h42.86a7.14 7.14 0 0 0 7.13-7.12v-79.26a7.14 7.14 0 0 0 -7.13-7.12zm-7.43 3.5v.81a2.65 2.65 0 0 1 -2.64 2.65h-22.68a2.65 2.65 0 0 1 -2.68-2.65v-.81zm11.1 82.88a3.63 3.63 0 0 1 -3.63 3.62h-42.9a3.63 3.63 0 0 1 -3.63-3.62v-79.26a3.63 3.63 0 0 1 3.63-3.62h4v.81a6.15 6.15 0 0 0 6.14 6.15h22.61a6.15 6.15 0 0 0 6.14-6.15v-.81h4a3.63 3.63 0 0 1 3.63 3.62z"/><path d="m75.26 100.79h-22.52a1.75 1.75 0 1 0 0 3.5h22.52a1.75 1.75 0 0 0 0-3.5z"/><path d="m78.78 58.65a1.75 1.75 0 0 0 -1.78 1.75v2.26a13 13 0 0 1 -26.06 0v-2.26a1.75 1.75 0 0 0 -3.5 0v2.26a16.55 16.55 0 0 0 14.81 16.44v5h-6.83a1.75 1.75 0 0 0 0 3.5h17.16a1.75 1.75 0 0 0 0-3.5h-6.83v-5a16.55 16.55 0 0 0 14.78-16.44v-2.26a1.75 1.75 0 0 0 -1.75-1.75z"/><path d="m53.92 62.51a10.21 10.21 0 0 0 20.41 0c0-3.07-.13-9.3-.13-11.69a10.21 10.21 0 0 0 -20.4 0c0 2.42.12 8.74.12 11.69zm10.08-18.06a6.55 6.55 0 0 1 6.7 6.4c0 2.65.13 9.58.13 11.66a6.71 6.71 0 0 1 -13.41 0c0-3.55-.12-8.28-.12-11.69a6.55 6.55 0 0 1 6.7-6.37z"/></svg>