<?xml version="1.0" encoding="UTF-8"?>
<svg xmlns="http://www.w3.org/2000/svg" id="O" viewBox="0 0 128 128" width="512" height="512"><path d="M104.18,17.25H23.82a6.58,6.58,0,0,0-6.57,6.57v80.36a6.58,6.58,0,0,0,6.57,6.57h80.36a6.58,6.58,0,0,0,6.57-6.57V23.82A6.58,6.58,0,0,0,104.18,17.25Zm3.07,86.93a3.08,3.08,0,0,1-3.07,3.07H23.82a3.08,3.08,0,0,1-3.07-3.07V23.82a3.08,3.08,0,0,1,3.07-3.07h80.36a3.08,3.08,0,0,1,3.07,3.07Z"/><path d="M52.39,46.24a5.51,5.51,0,0,0-5.51-5.51h-1V38.5a5,5,0,0,0-5-5h-2.3a5.05,5.05,0,0,0-5,5v2.23h-1a5.51,5.51,0,0,0-5.51,5.51v1.57a5.51,5.51,0,0,0,5.51,5.5h1V89.5a5.05,5.05,0,0,0,5,5h2.3a5,5,0,0,0,5-5V53.31h1a5.51,5.51,0,0,0,5.51-5.5ZM37,38.5A1.55,1.55,0,0,1,38.58,37h2.3a1.54,1.54,0,0,1,1.54,1.54v2.23H37Zm5.39,51A1.54,1.54,0,0,1,40.88,91h-2.3A1.55,1.55,0,0,1,37,89.5V53.31h5.39Zm6.47-41.69a2,2,0,0,1-2,2H32.57a2,2,0,0,1-2-2V46.24a2,2,0,0,1,2-2H46.88a2,2,0,0,1,2,2Z"/><path d="M71.16,57.71h-1V38.5a5.05,5.05,0,0,0-5-5h-2.3a5.05,5.05,0,0,0-5.05,5V57.71h-1a5.51,5.51,0,0,0-5.5,5.5v1.58a5.51,5.51,0,0,0,5.5,5.5h1V89.5a5.05,5.05,0,0,0,5.05,5h2.3a5.05,5.05,0,0,0,5-5V70.29h1a5.51,5.51,0,0,0,5.5-5.5V63.21A5.51,5.51,0,0,0,71.16,57.71ZM61.3,38.5A1.55,1.55,0,0,1,62.85,37h2.3A1.55,1.55,0,0,1,66.7,38.5V57.71H61.3Zm5.4,51A1.55,1.55,0,0,1,65.15,91h-2.3A1.55,1.55,0,0,1,61.3,89.5V70.29h5.4Zm6.46-24.71a2,2,0,0,1-2,2H56.84a2,2,0,0,1-2-2V63.21a2,2,0,0,1,2-2H71.16a2,2,0,0,1,2,2Z"/><path d="M95.43,45.69h-1V38.5a5.05,5.05,0,0,0-5-5h-2.3a5,5,0,0,0-5,5v7.19h-1a5.51,5.51,0,0,0-5.51,5.51v1.57a5.51,5.51,0,0,0,5.51,5.51h1V89.5a5,5,0,0,0,5,5h2.3a5.05,5.05,0,0,0,5-5V58.28h1a5.51,5.51,0,0,0,5.51-5.51V51.2A5.51,5.51,0,0,0,95.43,45.69ZM85.58,38.5A1.54,1.54,0,0,1,87.12,37h2.3A1.55,1.55,0,0,1,91,38.5v7.19H85.58ZM91,89.5A1.55,1.55,0,0,1,89.42,91h-2.3a1.54,1.54,0,0,1-1.54-1.54V58.28H91Zm6.47-36.73a2,2,0,0,1-2,2H81.12a2,2,0,0,1-2-2V51.2a2,2,0,0,1,2-2H95.43a2,2,0,0,1,2,2Z"/></svg>
