<svg id="O" height="512" viewBox="0 0 128 128" width="512" xmlns="http://www.w3.org/2000/svg"><path d="m89.54 55.28h-5.79v-.58a11 11 0 0 0 -11-11h-44.52a11 11 0 0 0 -11 11v42a1.74 1.74 0 0 0 2.77 1.44l12-8.44h2v.57a11 11 0 0 0 11 11h40.75l12 8.45a1.76 1.76 0 0 0 2.76-1.43v-42a11 11 0 0 0 -10.97-11.01zm-58.08 30.92a1.75 1.75 0 0 0 -1 .32l-9.7 6.82v-38.64a7.48 7.48 0 0 1 7.48-7.47h44.53a7.49 7.49 0 0 1 7.48 7.47v24a7.5 7.5 0 0 1 -7.48 7.49zm65.54 18.7-9.71-6.84a1.8 1.8 0 0 0 -1-.31h-41.29a7.49 7.49 0 0 1 -7.47-7.48v-.57h35.24a11 11 0 0 0 11-11v-19.92h5.79a7.49 7.49 0 0 1 7.44 7.48z"/><path d="m80.16 37.89a10 10 0 0 1 10 10 1.75 1.75 0 0 0 3.5 0 13.46 13.46 0 0 0 -13.5-13.5 1.75 1.75 0 0 0 0 3.5z"/><path d="m81.58 26a1.75 1.75 0 0 0 0 3.5 16.91 16.91 0 0 1 16.89 16.92 1.75 1.75 0 0 0 3.5 0 20.42 20.42 0 0 0 -20.39-20.42z"/><path d="m83 17.25a1.75 1.75 0 0 0 0 3.5 24.28 24.28 0 0 1 24.25 24.25 1.75 1.75 0 0 0 3.5 0 27.79 27.79 0 0 0 -27.75-27.75z"/><path d="m33.73 58h33.54a1.75 1.75 0 0 0 0-3.5h-33.54a1.75 1.75 0 1 0 0 3.5z"/><path d="m33.73 67.57h33.54a1.75 1.75 0 0 0 0-3.5h-33.54a1.75 1.75 0 1 0 0 3.5z"/><path d="m69 75.44a1.75 1.75 0 0 0 -1.75-1.75h-33.52a1.75 1.75 0 1 0 0 3.5h33.54a1.76 1.76 0 0 0 1.73-1.75z"/></svg>