<svg id="O" height="512" viewBox="0 0 128 128" width="512" xmlns="http://www.w3.org/2000/svg"><path d="m85.4 57.6a1.75 1.75 0 0 0 -1.75 1.75v3.27a19.66 19.66 0 1 1 -39.31 0v-3.27a1.75 1.75 0 1 0 -3.5 0v3.27a23.17 23.17 0 0 0 21.41 23.08v5.55h-5.42a8.93 8.93 0 0 0 -8.92 8.91 1.75 1.75 0 0 0 1.75 1.75h28.67a1.75 1.75 0 0 0 1.75-1.75 8.93 8.93 0 0 0 -8.92-8.91h-5.41v-5.55a23.17 23.17 0 0 0 21.4-23.08v-3.27a1.75 1.75 0 0 0 -1.75-1.75zm-9.11 40.81h-24.59a5.43 5.43 0 0 1 5.13-3.66h14.33a5.43 5.43 0 0 1 5.13 3.66z"/><path d="m64 77.64a15 15 0 0 0 15-15v-22.43a15 15 0 0 0 -30 0v22.41a15 15 0 0 0 15 15.02zm0-48.95a11.53 11.53 0 0 1 11.51 11.4h-4.33a1.75 1.75 0 0 0 0 3.5h4.34v5.91h-4.34a1.75 1.75 0 0 0 0 3.5h4.34v5.08h-23v-5.08h4.34a1.75 1.75 0 0 0 0-3.5h-4.39v-5.91h4.34a1.75 1.75 0 0 0 0-3.5h-4.33a11.54 11.54 0 0 1 11.52-11.4zm-11.53 32.89h23v1a11.53 11.53 0 0 1 -23 0z"/><path d="m94.5 40.05a1.75 1.75 0 0 0 -.22 2.46 14.12 14.12 0 0 1 0 17.48 1.75 1.75 0 0 0 .22 2.46 1.74 1.74 0 0 0 2.5-.22 17.74 17.74 0 0 0 0-22 1.74 1.74 0 0 0 -2.5-.18z"/><path d="m104.88 34.41a1.75 1.75 0 0 0 -2.69 2.25c6.75 8 6.75 21.14 0 29.18a1.76 1.76 0 0 0 .22 2.47 1.75 1.75 0 0 0 2.47-.22c7.78-9.29 7.78-24.4 0-33.68z"/><path d="m33.49 40.05a1.74 1.74 0 0 0 -2.46.21 17.74 17.74 0 0 0 0 22 1.74 1.74 0 0 0 2.46.22 1.75 1.75 0 0 0 .22-2.48 14.12 14.12 0 0 1 0-17.48 1.75 1.75 0 0 0 -.22-2.47z"/><path d="m25.58 34.19a1.76 1.76 0 0 0 -2.47.22c-7.78 9.28-7.78 24.39 0 33.68a1.75 1.75 0 0 0 2.47.22 1.76 1.76 0 0 0 .22-2.47c-6.75-8-6.75-21.14 0-29.18a1.76 1.76 0 0 0 -.22-2.47z"/></svg>