<svg id="O" height="512" viewBox="0 0 128 128" width="512" xmlns="http://www.w3.org/2000/svg"><path d="m59.76 75.27a1.75 1.75 0 0 0 -1.76 1.73 18.63 18.63 0 1 1 -37.26 0v-3.1a1.75 1.75 0 0 0 -3.5 0v3.1a22.15 22.15 0 0 0 20.38 22v8.18h-6.62a1.75 1.75 0 1 0 0 3.5h16.72a1.75 1.75 0 0 0 0-3.5h-6.59v-8.11a22.15 22.15 0 0 0 20.38-22.07 1.75 1.75 0 0 0 -1.75-1.73z"/><path d="m39.38 91.4a14.4 14.4 0 0 0 14.38-14.4v-17.31a14.39 14.39 0 0 0 -28.77 0v17.31a14.4 14.4 0 0 0 14.39 14.4zm-10.89-31.71a10.89 10.89 0 0 1 21.77 0v17.31a10.89 10.89 0 0 1 -21.77 0z"/><path d="m96.45 31.45a18.67 18.67 0 0 0 -13.39-5.61 19 19 0 0 0 -13.77 5.61 19.21 19.21 0 1 0 27.16 0zm-1.31 23.37-9.8-9.82 2.93-2.93a19 19 0 0 0 10.23 4.36 15.44 15.44 0 0 1 -3.36 8.39zm-15.14-4.4 2.92-2.92 9.79 9.8a15.44 15.44 0 0 1 -8.37 3.36 19.05 19.05 0 0 0 -4.34-10.24zm-9.4-15.18 9.8 9.76-2.92 3a19 19 0 0 0 -10.24-4.34 15.56 15.56 0 0 1 3.36-8.42zm15.2 4.39-2.93 2.93-9.79-9.8a15.59 15.59 0 0 1 8.39-3.36 19 19 0 0 0 4.33 10.23zm12.62 3.27a15.58 15.58 0 0 1 -7.66-3.28l4.37-4.38a15.4 15.4 0 0 1 3.29 7.66zm-5.76-10.13-4.38 4.37a15.46 15.46 0 0 1 -3.28-7.66 15.32 15.32 0 0 1 7.66 3.29zm-25.34 14.37a15.53 15.53 0 0 1 7.68 3.3l-4.38 4.38a15.6 15.6 0 0 1 -3.3-7.68zm5.76 10.15 4.38-4.38a15.55 15.55 0 0 1 3.3 7.67 15.49 15.49 0 0 1 -7.68-3.29z"/><path d="m82.87 17.25a27.78 27.78 0 0 0 -23.23 43l-2 7.85a1.74 1.74 0 0 0 .46 1.66 1.76 1.76 0 0 0 1.66.46l7.85-2a27.78 27.78 0 1 0 15.23-51zm0 52.07a24.1 24.1 0 0 1 -13.87-4.38 1.76 1.76 0 0 0 -1.43-.26l-5.76 1.45 1.45-5.76a1.76 1.76 0 0 0 -.26-1.43 24.28 24.28 0 1 1 19.9 10.38z"/></svg>