<?xml version="1.0" encoding="UTF-8"?>
<svg xmlns="http://www.w3.org/2000/svg" id="O" viewBox="0 0 128 128" width="512" height="512"><path d="M64,36.24A27.76,27.76,0,1,0,91.76,64,27.79,27.79,0,0,0,64,36.24Zm0,52A24.26,24.26,0,1,1,88.26,64,24.28,24.28,0,0,1,64,88.26Z"/><path d="M109,62.25h-6.44A38.64,38.64,0,0,0,65.75,25.44V19a1.75,1.75,0,0,0-3.5,0v6.44A38.64,38.64,0,0,0,25.44,62.25H19a1.75,1.75,0,0,0,0,3.5h6.44a38.64,38.64,0,0,0,36.81,36.81V109a1.75,1.75,0,0,0,3.5,0v-6.44a38.64,38.64,0,0,0,36.81-36.81H109a1.75,1.75,0,0,0,0-3.5ZM64,99.11A35.11,35.11,0,1,1,99.11,64,35.15,35.15,0,0,1,64,99.11Z"/><path d="M74.91,59.49a1.76,1.76,0,0,0-1.75,1.75v1.55c0,4.63-4.15,8.39-9.26,8.39s-9.26-3.76-9.26-8.39V61.24a1.75,1.75,0,1,0-3.5,0v1.55c0,6,4.81,11,11,11.76v2.59H57.94a1.75,1.75,0,1,0,0,3.5H69.7a1.75,1.75,0,0,0,0-3.5h-4V74.55c6.21-.79,11-5.76,11-11.76V61.24A1.75,1.75,0,0,0,74.91,59.49Z"/><path d="M63.9,69.16a7.56,7.56,0,0,0,7.55-7.55V54.9a7.55,7.55,0,0,0-15.09,0v6.71A7.55,7.55,0,0,0,63.9,69.16Zm-4-14.26a4,4,0,0,1,8.09,0v6.71a4,4,0,1,1-8.09,0Z"/><path d="M19,34.17a1.75,1.75,0,0,0,1.75-1.75V20.75H32.42a1.75,1.75,0,0,0,0-3.5H19A1.75,1.75,0,0,0,17.25,19V32.42A1.75,1.75,0,0,0,19,34.17Z"/><path d="M109,17.25H95.58a1.75,1.75,0,0,0,0,3.5h11.67V32.42a1.75,1.75,0,1,0,3.5,0V19A1.75,1.75,0,0,0,109,17.25Z"/><path d="M32.42,107.25H20.75V95.58a1.75,1.75,0,0,0-3.5,0V109A1.75,1.75,0,0,0,19,110.75H32.42a1.75,1.75,0,1,0,0-3.5Z"/><path d="M109,93.83a1.75,1.75,0,0,0-1.75,1.75v11.67H95.58a1.75,1.75,0,1,0,0,3.5H109a1.75,1.75,0,0,0,1.75-1.75V95.58A1.75,1.75,0,0,0,109,93.83Z"/></svg>
