<svg id="O" height="512" viewBox="0 0 128 128" width="512" xmlns="http://www.w3.org/2000/svg"><path d="m59.16 82.23a1.75 1.75 0 0 0 -2.24 1 18.63 18.63 0 0 1 -36.17-6.23v-3.1a1.75 1.75 0 0 0 -3.5 0v3.1a22.15 22.15 0 0 0 20.38 22v8.18h-6.63a1.75 1.75 0 1 0 0 3.5h16.72a1.75 1.75 0 0 0 0-3.5h-6.59v-8.1a22.22 22.22 0 0 0 19.09-14.62 1.75 1.75 0 0 0 -1.06-2.23z"/><path d="m110.75 24.25a7 7 0 0 0 -7-7h-59.13a7 7 0 0 0 -7 7v21.18a14.39 14.39 0 0 0 -12.62 14.26v17.31a14.38 14.38 0 0 0 28.72 1h50a7 7 0 0 0 7-7zm-69.62 0a3.5 3.5 0 0 1 3.49-3.5h59.13a3.5 3.5 0 0 1 3.5 3.5v5.35h-66.12zm9.13 52.75a10.89 10.89 0 0 1 -21.77 0v-17.31a10.89 10.89 0 0 1 21.77 0zm57-5.94a3.5 3.5 0 0 1 -3.5 3.49h-50v-14.86a14.39 14.39 0 0 0 -12.63-14.26v-12.33h66.12z"/><path d="m46.15 23.42a1.75 1.75 0 1 0 1.75 1.75 1.75 1.75 0 0 0 -1.75-1.75z"/><path d="m52 23.42a1.75 1.75 0 1 0 1.75 1.75 1.75 1.75 0 0 0 -1.75-1.75z"/><path d="m57.87 23.42a1.75 1.75 0 1 0 1.75 1.75 1.75 1.75 0 0 0 -1.75-1.75z"/></svg>