<svg height="512" viewBox="0 0 128 128" width="512" xmlns="http://www.w3.org/2000/svg"><g><path d="m86.763 86.763a46.138 46.138 0 1 0 -65.249-65.249 46.138 46.138 0 0 0 65.249 65.249zm-75.263-32.624a42.639 42.639 0 0 1 72.788-30.151 42.639 42.639 0 0 1 -60.3 60.3 42.361 42.361 0 0 1 -12.488-30.149z"/><path d="m96.311 93.837a1.749 1.749 0 0 0 -2.474 2.474l19.6 19.6a1.75 1.75 0 1 0 2.475-2.474z"/><path d="m124.188 105.782-23.688-23.691a54.009 54.009 0 1 0 -18.391 18.421l23.676 23.676a13.015 13.015 0 0 0 18.406-18.406zm-105.857-15.837a50.633 50.633 0 1 1 35.807 14.831 50.7 50.7 0 0 1 -35.807-14.831zm103.382 31.768a9.514 9.514 0 0 1 -13.456 0l-23.163-23.162a54.513 54.513 0 0 0 13.456-13.457l23.163 23.163a9.527 9.527 0 0 1 0 13.456z"/><path d="m85.514 77.875v-9.5a1.75 1.75 0 0 0 -1.75-1.75h-3.987v-27.312a1.749 1.749 0 0 0 -1.75-1.75h-10.127a1.75 1.75 0 0 0 -1.75 1.75v27.312h-5.2v-21.312a1.75 1.75 0 0 0 -1.75-1.75h-10.124a1.75 1.75 0 0 0 -1.75 1.75v21.312h-5.2v-15.312a1.75 1.75 0 0 0 -1.75-1.75h-10.126a1.75 1.75 0 0 0 -1.75 1.75v15.312h-3.986a1.749 1.749 0 0 0 -1.75 1.75v9.5a1.749 1.749 0 0 0 1.75 1.75h59.25a1.75 1.75 0 0 0 1.75-1.75zm-15.862-36.812h6.625v25.562h-6.625zm-18.826 6h6.625v19.562h-6.625zm-18.826 6h6.625v13.562h-6.625zm50.014 23.062h-55.75v-6h55.75z"/><path d="m35.312 45.063a6.82 6.82 0 0 0 6.813-6.813c0-.111-.011-.219-.017-.329l6.3-2.007a6.807 6.807 0 0 0 12.543-3.664c0-.111-.012-.219-.017-.329l6.3-2.007a6.8 6.8 0 1 0 -1.079-3.664c0 .111.012.219.017.329l-6.3 2.007a6.806 6.806 0 0 0 -12.546 3.664c0 .111.011.22.016.33l-6.3 2.006a6.81 6.81 0 1 0 -5.735 10.477zm37.653-22.125a3.313 3.313 0 1 1 -3.313 3.312 3.316 3.316 0 0 1 3.313-3.312zm-18.827 6a3.313 3.313 0 1 1 -3.312 3.312 3.316 3.316 0 0 1 3.312-3.312zm-18.826 6a3.313 3.313 0 1 1 -3.312 3.312 3.316 3.316 0 0 1 3.312-3.312z"/></g></svg>