<?xml version="1.0" encoding="UTF-8"?>
<svg xmlns="http://www.w3.org/2000/svg" width="512" height="512" viewBox="0 0 128 128"><g><path d="M75.781,10.748A1.749,1.749,0,0,0,74.031,9H53.969a1.75,1.75,0,1,0,0,3.5H74.031A1.749,1.749,0,0,0,75.781,10.748Z"/><path d="M126.25,67.544h-6.119l-13.9-23.875h5.425a16.343,16.343,0,0,0,11.557-27.9l-4.836-4.836a1.8,1.8,0,0,0-2.475,0l-5.656,5.656a1.748,1.748,0,0,0,0,2.474l4.834,4.835a4.844,4.844,0,0,1-3.424,8.269H71.75V21.5h2.343a10.752,10.752,0,0,0,0-21.5H53.907a10.752,10.752,0,0,0,0,21.5H56.25V32.169H16.343A4.844,4.844,0,0,1,12.917,23.9l4.836-4.837a1.75,1.75,0,0,0,0-2.474L12.1,10.935a1.8,1.8,0,0,0-2.475,0L4.784,15.773a16.343,16.343,0,0,0,11.559,27.9h5.425L7.869,67.544H1.75A1.75,1.75,0,0,0,0,69.294,21.65,21.65,0,0,0,21.625,90.919H28A21.65,21.65,0,0,0,49.625,69.294a1.75,1.75,0,0,0-1.75-1.75H41.756l-13.9-23.875H56.25V102H45.625a5.757,5.757,0,0,0-5.75,5.75v4.032A8.119,8.119,0,0,0,40.5,128h47a8.119,8.119,0,0,0,.624-16.215V107.75a5.757,5.757,0,0,0-5.75-5.75H71.75V43.669h28.393l-13.9,23.875H80.125a1.75,1.75,0,0,0-1.75,1.75A21.65,21.65,0,0,0,100,90.919h6.375A21.65,21.65,0,0,0,128,69.294,1.75,1.75,0,0,0,126.25,67.544Zm-79.594-56.8A7.259,7.259,0,0,1,53.907,3.5H74.093a7.252,7.252,0,0,1,0,14.5H53.907A7.26,7.26,0,0,1,46.656,10.748ZM59.75,21.5h8.5V32.169h-8.5ZM3.5,27.326a12.76,12.76,0,0,1,3.76-9.079l3.6-3.6,3.182,3.181-3.6,3.6a8.344,8.344,0,0,0,5.9,14.241h95.314a8.344,8.344,0,0,0,5.9-14.243l-3.6-3.6,3.182-3.181,3.6,3.6a12.842,12.842,0,0,1-9.081,21.924H16.343A12.858,12.858,0,0,1,3.5,27.326ZM28,87.419H21.625A18.151,18.151,0,0,1,3.584,71.044H46.041A18.151,18.151,0,0,1,28,87.419ZM11.919,67.544,24.812,45.4,37.706,67.544Zm80.206,52.329A4.629,4.629,0,0,1,87.5,124.5h-47a4.624,4.624,0,1,1,0-9.247h47A4.629,4.629,0,0,1,92.125,119.873Zm-7.5-12.123v4H43.375v-4a2.253,2.253,0,0,1,2.25-2.25h36.75A2.253,2.253,0,0,1,84.625,107.75ZM68.25,102h-8.5V43.669h8.5Zm34.937-56.6,12.894,22.146H90.294Zm3.188,42.021H100A18.151,18.151,0,0,1,81.959,71.044h42.457A18.151,18.151,0,0,1,106.375,87.419Z"/></g></svg>
