<?xml version="1.0" encoding="UTF-8"?>
<svg xmlns="http://www.w3.org/2000/svg" width="512" height="512" viewBox="0 0 128 128"><g><path d="M110.756,89.962C121.493,79.841,128,62.344,128,50.5A34.488,34.488,0,0,0,68.187,27.074,34.5,34.5,0,0,0,0,34.5C0,46.344,6.507,63.841,17.244,73.962a5.911,5.911,0,0,0,2.023,11.467h2.218l-.318.466a14.784,14.784,0,0,0-1.144,14.623,1.752,1.752,0,0,0,1.581,1H28v24.729A1.75,1.75,0,0,0,29.75,128h9.5a1.75,1.75,0,0,0,1.75-1.75V101.518h6.4a1.754,1.754,0,0,0,1.582-1A14.784,14.784,0,0,0,47.833,85.9l-.318-.466h2.218a5.911,5.911,0,0,0,2.023-11.467,50.764,50.764,0,0,0,8.928-11.548c2.49,9.468,7.813,20.271,15.569,27.545a5.911,5.911,0,0,0,2.014,11.47h2.218l-.318.466a14.784,14.784,0,0,0-1.144,14.623,1.752,1.752,0,0,0,1.581,1H87v8.729A1.75,1.75,0,0,0,88.75,128h9.5a1.75,1.75,0,0,0,1.75-1.75v-8.729H106.4a1.754,1.754,0,0,0,1.582-1,14.784,14.784,0,0,0-1.144-14.623l-.318-.466h2.218a5.911,5.911,0,0,0,2.023-11.467ZM37.5,124.5h-6V101.518h6Zm7.442-36.629a11.277,11.277,0,0,1,1.288,10.15H22.769a11.278,11.278,0,0,1,1.289-10.15l1.666-2.439H43.276Zm4.791-5.939H19.267a2.415,2.415,0,1,1,0-4.83H49.733a2.415,2.415,0,1,1,0,4.83ZM46.8,73.6H22.2C10.636,64.74,3.5,46.517,3.5,34.5a31,31,0,0,1,61.94-1.854c.392,8.306-2.134,16.558-5.639,24.022C56.609,63.292,52.2,69.467,46.8,73.6ZM63.2,57.667c3.906-8.562,6.252-16.945,5.685-26.006A31,31,0,0,1,124.5,50.5c0,12.02-7.136,30.243-18.7,39.1H81.2C72.794,83.138,65.482,70.171,63.2,57.667ZM96.5,124.5h-6v-6.979h6Zm7.442-20.629a11.277,11.277,0,0,1,1.288,10.15H81.769a11.278,11.278,0,0,1,1.289-10.15l1.666-2.439h17.552Zm4.791-5.939H78.267a2.415,2.415,0,1,1,0-4.83h30.466a2.415,2.415,0,0,1,0,4.83Z"/><path d="M44.762,23.538a1.75,1.75,0,0,0-2.47.154L30.019,37.608l-3.392-3.751a1.758,1.758,0,0,0-2.472-.124L18.222,39.1a1.757,1.757,0,0,0-.124,2.471L28.813,53.419a1.761,1.761,0,0,0,2.611-.016L50.917,31.3a1.76,1.76,0,0,0-.155-2.47ZM30.1,49.619l-8.228-9.1L25.205,37.5l3.532,3.907a1.76,1.76,0,0,0,2.611-.016L43.76,27.32,47.135,30.3Z"/><path d="M79.479,63.226l5.658,5.657a1.75,1.75,0,0,0,2.474,0l6.2-6.2,6.2,6.2a1.75,1.75,0,0,0,2.474,0l5.657-5.657a1.749,1.749,0,0,0,0-2.475l-6.2-6.2,6.2-6.2a1.749,1.749,0,0,0,0-2.475l-5.657-5.657a1.748,1.748,0,0,0-2.474,0l-6.2,6.2-6.2-6.2a1.748,1.748,0,0,0-2.474,0L79.479,45.87a1.751,1.751,0,0,0,0,2.475l6.2,6.2-6.2,6.2A1.751,1.751,0,0,0,79.479,63.226Zm9.915-7.441a1.749,1.749,0,0,0,0-2.475l-6.2-6.2,3.183-3.182,6.2,6.2a1.751,1.751,0,0,0,2.475,0l6.2-6.2,3.182,3.182-6.2,6.2a1.751,1.751,0,0,0,0,2.475l6.2,6.2-3.182,3.182-6.2-6.2a1.749,1.749,0,0,0-2.475,0l-6.2,6.2-3.183-3.182Z"/></g></svg>
