<?xml version="1.0" encoding="UTF-8"?>
<svg xmlns="http://www.w3.org/2000/svg" width="512" height="512" viewBox="0 0 128 128"><g><path d="M127.985,69.849a1.746,1.746,0,0,0-.391-.969l-20-24a1.746,1.746,0,0,0-1.344-.63H96.375V5.75A5.757,5.757,0,0,0,90.625,0H37.375a5.757,5.757,0,0,0-5.75,5.75v38.5H21.75a1.745,1.745,0,0,0-1.344.63l-20,24A1.848,1.848,0,0,0,0,70v56.247A1.75,1.75,0,0,0,1.75,128h124.5a1.75,1.75,0,0,0,1.75-1.75V70C128,69.948,127.989,69.9,127.985,69.849ZM35.125,5.75a2.253,2.253,0,0,1,2.25-2.25h53.25a2.253,2.253,0,0,1,2.25,2.25v50.5H35.125Zm-12.555,42h9.055v8.5H23.438a1.75,1.75,0,0,0,0,3.5h81.124a1.75,1.75,0,1,0,0-3.5H96.375v-8.5h9.055l17.084,20.5H5.486ZM124.5,124.5H3.5V71.75h121Z"/><path d="M9.75,115.621h108.5a1.75,1.75,0,0,0,1.75-1.75V82.377a1.75,1.75,0,0,0-1.75-1.75H9.75A1.75,1.75,0,0,0,8,82.377v31.494A1.75,1.75,0,0,0,9.75,115.621ZM11.5,84.127h105v27.994H11.5Z"/><path d="M60.409,88.627H42.67a1.75,1.75,0,0,0-1.75,1.75v15.494a1.75,1.75,0,0,0,1.75,1.75H60.409a1.75,1.75,0,0,0,1.75-1.75V90.377A1.75,1.75,0,0,0,60.409,88.627Zm-1.75,15.494H44.42V92.127H58.659Z"/><path d="M85.33,88.627H67.591a1.75,1.75,0,0,0,0,3.5H74.71v13.744a1.75,1.75,0,0,0,3.5,0V92.127h7.12a1.75,1.75,0,0,0,0-3.5Z"/><path d="M110.25,92.127a1.75,1.75,0,0,0,0-3.5H92.512a1.749,1.749,0,0,0-1.75,1.75v15.494a1.749,1.749,0,0,0,1.75,1.75H110.25a1.75,1.75,0,0,0,0-3.5H94.262V99.874h11.925a1.75,1.75,0,0,0,0-3.5H94.262V92.127Z"/><path d="M36.246,88.8a1.749,1.749,0,0,0-2.335.821l-6.961,14.5h-.661l-6.961-14.5a1.75,1.75,0,0,0-3.156,1.514l7.438,15.494a1.75,1.75,0,0,0,1.578.993h2.863a1.749,1.749,0,0,0,1.577-.993l7.438-15.494A1.751,1.751,0,0,0,36.246,88.8Z"/><path d="M64,48.23A18.355,18.355,0,1,0,45.644,29.875,18.376,18.376,0,0,0,64,48.23Zm0-33.21A14.855,14.855,0,1,1,49.144,29.875,14.873,14.873,0,0,1,64,15.02Z"/><path d="M61.078,35.416a1.748,1.748,0,0,0,2.326-.1l8.656-8.375a1.75,1.75,0,1,0-2.433-2.515l-7.536,7.291-3.825-3.137a1.75,1.75,0,0,0-2.219,2.707Z"/></g></svg>
