<?xml version="1.0" encoding="UTF-8"?>
<svg xmlns="http://www.w3.org/2000/svg" width="512" height="512" viewBox="0 0 128 128"><g><path d="M120.876,113.753H118.5V32.938a1.749,1.749,0,0,0-1.75-1.75H89.5a1.749,1.749,0,0,0-1.75,1.75v80.815H79.375V44.938a1.749,1.749,0,0,0-1.75-1.75H50.375a1.75,1.75,0,0,0-1.75,1.75v68.815H40.25V56.938a1.75,1.75,0,0,0-1.75-1.75H11.25a1.75,1.75,0,0,0-1.75,1.75v56.815H7.123a7.124,7.124,0,0,0,0,14.247H120.876a7.124,7.124,0,1,0,0-14.247ZM91.25,34.688H115v79.065H91.25Zm-39.125,12h23.75v67.065H52.125ZM13,58.688H36.75v55.065H13ZM120.876,124.5H7.123a3.624,3.624,0,0,1,0-7.247H120.876a3.624,3.624,0,1,1,0,7.247Z"/><path d="M27.737,63.7a1.749,1.749,0,0,0-1.237-.512H19.25a1.75,1.75,0,0,0-1.75,1.75V107.5a1.751,1.751,0,0,0,1.75,1.75H30.5a1.751,1.751,0,0,0,1.75-1.75V68.938a1.751,1.751,0,0,0-.513-1.238Zm1.013,42.053H21V66.688h4.775l2.975,2.975Z"/><path d="M66.862,51.7a1.749,1.749,0,0,0-1.237-.512h-7.25a1.75,1.75,0,0,0-1.75,1.75V107.5a1.751,1.751,0,0,0,1.75,1.75h11.25a1.75,1.75,0,0,0,1.75-1.75V56.938a1.751,1.751,0,0,0-.513-1.238Zm1.013,54.053h-7.75V54.688H64.9l2.975,2.975Z"/><path d="M105.987,39.7a1.749,1.749,0,0,0-1.237-.512H97.5a1.749,1.749,0,0,0-1.75,1.75V107.5a1.75,1.75,0,0,0,1.75,1.75h11.25a1.75,1.75,0,0,0,1.75-1.75V44.938a1.751,1.751,0,0,0-.513-1.238ZM107,105.753H99.25V42.688h4.775L107,45.663Z"/><path d="M24.875,48.685A12.255,12.255,0,0,0,37.056,34.436l15.789-4.842a12.316,12.316,0,0,0,23.336-7.157L91.971,17.6a12.767,12.767,0,1,0-1.027-3.346l-15.79,4.842a12.315,12.315,0,0,0-23.335,7.157L36.029,31.09a12.337,12.337,0,1,0-11.154,17.6ZM103.125,3.5a8.844,8.844,0,1,1-8.844,8.844A8.854,8.854,0,0,1,103.125,3.5ZM64,15.5a8.844,8.844,0,1,1-8.844,8.844A8.854,8.854,0,0,1,64,15.5Zm-39.125,12a8.844,8.844,0,1,1-8.844,8.844A8.854,8.854,0,0,1,24.875,27.5Z"/></g></svg>
