<?xml version="1.0" encoding="UTF-8"?>
<svg xmlns="http://www.w3.org/2000/svg" width="512" height="512" viewBox="0 0 128 128"><g><path d="M126.25,108.313H110.4v-37a1.749,1.749,0,0,0-1.75-1.75H85.4a1.75,1.75,0,0,0-1.75,1.75v37H61v-57a1.749,1.749,0,0,0-1.75-1.75H36a1.749,1.749,0,0,0-1.75,1.75v57H19.687V1.75A1.749,1.749,0,0,0,17.937,0H1.75A1.749,1.749,0,0,0,0,1.75v124.5A1.749,1.749,0,0,0,1.75,128h124.5a1.749,1.749,0,0,0,1.75-1.75V110.063A1.749,1.749,0,0,0,126.25,108.313ZM87.148,73.06H106.9v35.253H87.148Zm-49.4-20H57.5v55.253H37.75ZM124.5,124.5H3.5V3.5H16.187V110.063a1.751,1.751,0,0,0,1.75,1.75H124.5Z"/><path d="M51.25,57.56H44a1.749,1.749,0,0,0-1.75,1.75v42.753a1.75,1.75,0,0,0,1.75,1.75h7.25a1.75,1.75,0,0,0,1.75-1.75V59.31A1.749,1.749,0,0,0,51.25,57.56ZM49.5,100.313H45.75V61.06H49.5Z"/><path d="M100.648,77.56H93.4a1.75,1.75,0,0,0-1.75,1.75v22.753a1.751,1.751,0,0,0,1.75,1.75h7.25a1.75,1.75,0,0,0,1.75-1.75V79.31A1.749,1.749,0,0,0,100.648,77.56ZM98.9,100.313h-3.75V81.06H98.9Z"/><path d="M30.246,43.06H65a1.75,1.75,0,0,0,1.75-1.75V31.6a1.753,1.753,0,0,0-.823-1.485L55.242,23.443a1.876,1.876,0,0,0-.936-.271H40.944a1.886,1.886,0,0,0-.936.271L29.319,30.118A1.753,1.753,0,0,0,28.5,31.6V41.31A1.75,1.75,0,0,0,30.246,43.06ZM40.563,27.224,44.9,32.539,42.057,33.98l-1.825-6.55Zm14.124,0,.331.206-1.825,6.55-2.84-1.441Zm-4.066-.552-3,3.675-3-3.675ZM32,32.573l5.141-3.21,2.122,7.615a1.76,1.76,0,0,0,2.477,1.09l5.889-2.989,5.889,2.989a1.76,1.76,0,0,0,2.477-1.09l2.122-7.615,5.141,3.21V39.56H32Z"/><path d="M47.625,21.244a8.911,8.911,0,0,0,8.9-8.9V8.9a8.9,8.9,0,0,0-17.8,0v3.447A8.911,8.911,0,0,0,47.625,21.244ZM42.225,8.9a5.4,5.4,0,0,1,10.8,0v3.447a5.4,5.4,0,0,1-10.8,0Z"/><path d="M79.644,63.06H114.4a1.75,1.75,0,0,0,1.75-1.75V51.6a1.751,1.751,0,0,0-.823-1.485L104.64,43.443a1.873,1.873,0,0,0-.936-.271H90.343a1.887,1.887,0,0,0-.937.271L78.718,50.118a1.752,1.752,0,0,0-.824,1.485V61.31A1.751,1.751,0,0,0,79.644,63.06ZM89.961,47.224,94.3,52.539l-2.84,1.441L89.63,47.43Zm14.125,0,.331.206-1.825,6.55-2.84-1.441Zm-4.067-.552-3,3.675-3-3.675Zm-18.625,5.9,5.141-3.21,2.122,7.615a1.762,1.762,0,0,0,2.478,1.09l5.888-2.989,5.889,2.989a1.762,1.762,0,0,0,2.478-1.09l2.121-7.615,5.141,3.21V59.56H81.394Z"/><path d="M97.023,41.244a8.911,8.911,0,0,0,8.9-8.9V28.9a8.9,8.9,0,0,0-17.8,0v3.447A8.911,8.911,0,0,0,97.023,41.244ZM91.623,28.9a5.4,5.4,0,0,1,10.8,0v3.447a5.4,5.4,0,0,1-10.8,0Z"/></g></svg>
