<svg height="512" viewBox="0 0 128 128" width="512" xmlns="http://www.w3.org/2000/svg"><g><path d="m127.487 30.981-5-5a1.749 1.749 0 0 0 -1.237-.512h-8.95v-3.688a9.25 9.25 0 1 0 -18.5 0v3.688h-7.53v-3.688a9.25 9.25 0 0 0 -18.5 0v3.688h-7.53v-3.688a9.25 9.25 0 0 0 -18.5 0v3.688h-7.53v-3.688a9.25 9.25 0 0 0 -18.5 0v3.688h-8.96a1.749 1.749 0 0 0 -1.237.512l-5 5a1.752 1.752 0 0 0 -.513 1.238v81.5a1.751 1.751 0 0 0 1.75 1.75h124.5a1.751 1.751 0 0 0 1.75-1.75v-81.5a1.752 1.752 0 0 0 -.513-1.238zm-30.187-9.2a5.75 5.75 0 1 1 11.5 0v3.688h-11.5zm-26.03 0a5.75 5.75 0 1 1 11.5 0v3.688h-11.5zm-26.03 0a5.75 5.75 0 1 1 11.5 0v3.688h-11.5zm-26.03 0a5.75 5.75 0 0 1 11.5 0v3.688h-11.51zm-15.71 11.163 3.975-3.975h113.05l3.975 3.975v9.211h-121zm121 79.025h-121v-66.314h121z"/><path d="m114.719 33.812h-101.438a1.75 1.75 0 1 0 0 3.5h101.438a1.75 1.75 0 0 0 0-3.5z"/><path d="m58.313 93.684a1.76 1.76 0 0 0 2.61-.017l19.494-22.1a1.76 1.76 0 0 0 -.155-2.47l-6-5.291a1.749 1.749 0 0 0 -2.47.155l-12.273 13.912-3.392-3.751a1.757 1.757 0 0 0 -2.472-.122l-5.933 5.366a1.758 1.758 0 0 0 -.124 2.471zm-3.608-15.917 3.533 3.907a1.756 1.756 0 0 0 2.61-.016l12.412-14.074 3.374 2.976-17.04 19.323-8.227-9.1z"/><path d="m64 106.062a27.25 27.25 0 1 0 -27.25-27.25 27.28 27.28 0 0 0 27.25 27.25zm0-51a23.75 23.75 0 1 1 -23.75 23.75 23.777 23.777 0 0 1 23.75-23.75z"/></g></svg>