<?xml version="1.0" encoding="UTF-8"?>
<svg xmlns="http://www.w3.org/2000/svg" width="512" height="512" viewBox="0 0 128 128"><g><path d="M17.5,96.058H52.254A1.75,1.75,0,0,0,54,94.308V84.6a1.751,1.751,0,0,0-.823-1.484l-10.69-6.676a1.893,1.893,0,0,0-.935-.271H28.194a1.9,1.9,0,0,0-.935.271l-10.69,6.676a1.751,1.751,0,0,0-.823,1.484v9.707A1.75,1.75,0,0,0,17.5,96.058ZM34.875,83.345l-3-3.675h5.992Zm-7.062-3.123,4.333,5.315-2.839,1.442-1.826-6.55Zm14.124,0,.331.207-1.825,6.55L37.6,85.537ZM19.246,85.571l5.141-3.21,2.122,7.616a1.76,1.76,0,0,0,2.477,1.09l5.889-2.99,5.889,2.99a1.76,1.76,0,0,0,2.477-1.09l2.122-7.616,5.141,3.21v6.987H19.246Z"/><path d="M34.875,74.243a8.911,8.911,0,0,0,8.9-8.9V61.9a8.9,8.9,0,0,0-17.8,0v3.447A8.911,8.911,0,0,0,34.875,74.243ZM29.475,61.9a5.4,5.4,0,0,1,10.8,0v3.447a5.4,5.4,0,0,1-10.8,0Z"/><path d="M75.746,96.058H110.5a1.75,1.75,0,0,0,1.75-1.75V84.6a1.751,1.751,0,0,0-.823-1.484l-10.69-6.676a1.893,1.893,0,0,0-.935-.271H86.444a1.893,1.893,0,0,0-.935.271l-10.69,6.676A1.751,1.751,0,0,0,74,84.6v9.707A1.75,1.75,0,0,0,75.746,96.058ZM93.125,83.345l-3-3.675h5.992Zm-7.062-3.123L90.4,85.537l-2.839,1.442-1.826-6.55Zm14.124,0,.331.207-1.825,6.55-2.839-1.442ZM77.5,85.571l5.141-3.21,2.122,7.616a1.76,1.76,0,0,0,2.477,1.09l5.889-2.99,5.889,2.99a1.76,1.76,0,0,0,2.477-1.09l2.122-7.616,5.141,3.21v6.987H77.5Z"/><path d="M93.125,74.243a8.911,8.911,0,0,0,8.9-8.9V61.9a8.9,8.9,0,1,0-17.8,0v3.447A8.911,8.911,0,0,0,93.125,74.243ZM87.725,61.9a5.4,5.4,0,0,1,10.8,0v3.447a5.4,5.4,0,1,1-10.8,0Z"/><path d="M119.25,37.269H109.012v-14.3a6.758,6.758,0,0,0-6.75-6.75H83.988a6.758,6.758,0,0,0-6.75,6.75V37.269H50.762v-14.3a6.758,6.758,0,0,0-6.75-6.75H25.738a6.758,6.758,0,0,0-6.75,6.75V37.269H8.75A8.76,8.76,0,0,0,0,46.019v57.017a8.76,8.76,0,0,0,8.75,8.75h110.5a8.76,8.76,0,0,0,8.75-8.75V46.019A8.76,8.76,0,0,0,119.25,37.269Zm-38.512-14.3a3.254,3.254,0,0,1,3.25-3.25h18.274a3.254,3.254,0,0,1,3.25,3.25V37.269H80.738Zm-58.25,0a3.254,3.254,0,0,1,3.25-3.25H44.012a3.254,3.254,0,0,1,3.25,3.25V37.269H22.488ZM124.5,103.036a5.256,5.256,0,0,1-5.25,5.25H8.75a5.256,5.256,0,0,1-5.25-5.25V46.019a5.255,5.255,0,0,1,5.25-5.25h110.5a5.256,5.256,0,0,1,5.25,5.25Z"/><path d="M60,45.268H9.75A1.75,1.75,0,0,0,8,47.018v55.018a1.75,1.75,0,0,0,1.75,1.75H60a1.75,1.75,0,0,0,1.75-1.75V47.018A1.75,1.75,0,0,0,60,45.268Zm-1.75,55.018H11.5V48.768H58.25Z"/><path d="M118.25,45.268H68a1.75,1.75,0,0,0-1.75,1.75v55.018a1.75,1.75,0,0,0,1.75,1.75h50.25a1.75,1.75,0,0,0,1.75-1.75V47.018A1.75,1.75,0,0,0,118.25,45.268Zm-1.75,55.018H69.75V48.768H116.5Z"/><path d="M39.187,31.956H36.625V23.277a1.75,1.75,0,0,0-2.644-1.5l-4.312,2.562a1.75,1.75,0,0,0,1.787,3.009l1.669-.992v5.6H30.562a1.75,1.75,0,1,0,0,3.5h8.625a1.75,1.75,0,0,0,0-3.5Z"/><path d="M96.721,28.976a3.854,3.854,0,0,0-1.387-7.449H88.812a1.75,1.75,0,0,0,0,3.5h6.522a.353.353,0,0,1,.353.354.349.349,0,0,1-.226.329l-7.278,2.809a1.751,1.751,0,0,0-1.121,1.633v3.554a1.751,1.751,0,0,0,1.75,1.75h8.625a1.75,1.75,0,0,0,0-3.5H90.562v-.6Z"/></g></svg>
