<?xml version="1.0" encoding="UTF-8"?>
<svg xmlns="http://www.w3.org/2000/svg" width="512" height="512" viewBox="0 0 128 128"><g><path d="M122,91.5H103.5v-19h2a6,6,0,0,0,0-12h-2v-.815A25.775,25.775,0,0,0,78.125,33.947V32.375a5.757,5.757,0,0,0-5.75-5.75H70.436l-.248-3.3H87.062a1.749,1.749,0,0,0,1.75-1.75V7.422a1.749,1.749,0,0,0-1.75-1.75h-18.2l-.3-4.056A1.751,1.751,0,0,0,66.812,0H61.187a1.751,1.751,0,0,0-1.745,1.619L57.564,26.625H55.625a5.757,5.757,0,0,0-5.75,5.75v1.572A25.775,25.775,0,0,0,24.5,59.688V60.5h-2a6,6,0,0,0,0,12h2v19H6a6,6,0,0,0,0,12H8v22.747A1.75,1.75,0,0,0,9.75,128h108.5a1.75,1.75,0,0,0,1.75-1.75V103.5h2a6,6,0,0,0,0-12ZM85.312,9.172V19.828H69.925l-.8-10.656ZM62.811,3.5h2.378l1.737,23.128H61.074ZM53.375,32.375a2.253,2.253,0,0,1,2.25-2.25h16.75a2.253,2.253,0,0,1,2.25,2.25v1.563H53.375ZM28,59.688a22.275,22.275,0,0,1,22.25-22.25h27.5A22.275,22.275,0,0,1,100,59.688V60.5H28ZM20,66.5A2.5,2.5,0,0,1,22.5,64h83a2.5,2.5,0,0,1,0,5h-83A2.5,2.5,0,0,1,20,66.5Zm8,6h72v19H28ZM19.5,124.5v-13h3.993v13Zm17,0v-13h3.994v13Zm17,0v-13H57.5v13Zm17,0v-13H74.5v13Zm17,0v-13H91.5v13Zm17,0v-13H108.5v13Zm11.993,0H112V109.75a1.75,1.75,0,0,0-1.75-1.75h-7.493a1.749,1.749,0,0,0-1.75,1.75V124.5H95V109.75a1.749,1.749,0,0,0-1.75-1.75H85.755a1.75,1.75,0,0,0-1.75,1.75V124.5H78V109.75a1.75,1.75,0,0,0-1.75-1.75H68.754A1.75,1.75,0,0,0,67,109.75V124.5H61V109.75a1.75,1.75,0,0,0-1.75-1.75H51.753A1.75,1.75,0,0,0,50,109.75V124.5H44V109.75a1.75,1.75,0,0,0-1.75-1.75H34.751A1.75,1.75,0,0,0,33,109.75V124.5H26.993V109.75a1.75,1.75,0,0,0-1.75-1.75H17.75A1.75,1.75,0,0,0,16,109.75V124.5H11.5v-21h105ZM122,100H6a2.5,2.5,0,0,1,0-5H122a2.5,2.5,0,0,1,0,5Z"/><path d="M50.25,41.938a17.836,17.836,0,0,0-14.28,7.216,1.75,1.75,0,0,0,2.815,2.08,14.319,14.319,0,0,1,11.465-5.8,1.75,1.75,0,0,0,0-3.5Z"/><path d="M42.691,77H34.25a1.75,1.75,0,0,0-1.75,1.75v6.5A1.75,1.75,0,0,0,34.25,87h8.441a1.75,1.75,0,0,0,1.75-1.75v-6.5A1.75,1.75,0,0,0,42.691,77Zm-1.75,6.5H36v-3h4.941Z"/><path d="M59.71,77H51.269a1.75,1.75,0,0,0-1.75,1.75v6.5A1.75,1.75,0,0,0,51.269,87H59.71a1.749,1.749,0,0,0,1.75-1.75v-6.5A1.749,1.749,0,0,0,59.71,77Zm-1.75,6.5H53.019v-3H57.96Z"/><path d="M76.73,77H68.29a1.749,1.749,0,0,0-1.75,1.75v6.5A1.749,1.749,0,0,0,68.29,87h8.44a1.749,1.749,0,0,0,1.75-1.75v-6.5A1.749,1.749,0,0,0,76.73,77Zm-1.75,6.5H70.04v-3h4.94Z"/><path d="M93.75,77H85.309a1.75,1.75,0,0,0-1.75,1.75v6.5A1.75,1.75,0,0,0,85.309,87H93.75a1.75,1.75,0,0,0,1.75-1.75v-6.5A1.75,1.75,0,0,0,93.75,77ZM92,83.5H87.059v-3H92Z"/></g></svg>
