<?xml version="1.0" encoding="UTF-8"?>
<svg xmlns="http://www.w3.org/2000/svg" width="512" height="512" viewBox="0 0 128 128"><g><path d="M61,71.714V55.655a1.749,1.749,0,0,0-.823-1.484L42.487,43.125a1.894,1.894,0,0,0-.936-.272h-22.1a1.894,1.894,0,0,0-.936.272L.823,54.171A1.749,1.749,0,0,0,0,55.655V71.714a1.75,1.75,0,0,0,1.75,1.75h57.5A1.75,1.75,0,0,0,61,71.714ZM27.771,57.582l-7.21,3.661L16.937,48.235l2.13-1.33ZM41.933,46.905l2.13,1.33L40.439,61.243l-7.211-3.661Zm-4.066-.552L30.5,55.39l-7.367-9.037ZM57.5,69.964H3.5V56.626l10.342-6.458L17.763,64.24a1.761,1.761,0,0,0,2.478,1.091L30.5,60.122l10.259,5.209a1.761,1.761,0,0,0,2.478-1.091l3.921-14.072L57.5,56.626Z"/><path d="M30.5,37.375A13.593,13.593,0,0,0,44.078,23.8V18.1a13.578,13.578,0,0,0-27.156,0v5.7A13.593,13.593,0,0,0,30.5,37.375ZM20.422,18.1a10.078,10.078,0,0,1,20.156,0v5.7a10.078,10.078,0,0,1-20.156,0Z"/><path d="M97.5,37.375A13.593,13.593,0,0,0,111.078,23.8V18.1a13.578,13.578,0,0,0-27.156,0v5.7A13.593,13.593,0,0,0,97.5,37.375ZM87.422,18.1a10.078,10.078,0,0,1,20.156,0v5.7a10.078,10.078,0,0,1-20.156,0Z"/><path d="M127.177,54.171l-17.69-11.046a1.877,1.877,0,0,0-.936-.272h-22.1a1.9,1.9,0,0,0-.936.272L67.823,54.171A1.749,1.749,0,0,0,67,55.655V71.714a1.749,1.749,0,0,0,1.75,1.75h.522c-.014.211-.032.421-.032.636v27.505l-6.95-3.943a8.564,8.564,0,0,0-9.554,14.153l14.2,11.288a1.747,1.747,0,0,0,1.089.38h46.108a1.75,1.75,0,0,0,1.7-1.34l4.116-17.123a1.768,1.768,0,0,0,.049-.41v-6.5a14.363,14.363,0,0,0-14.347-14.347H88.124V74.1c0-.215-.018-.425-.032-.636H126.25a1.749,1.749,0,0,0,1.75-1.75V55.655A1.751,1.751,0,0,0,127.177,54.171ZM86.068,46.906l8.7,10.676-7.21,3.661L83.937,48.236Zm18.8-.552L97.5,55.39l-7.365-9.036Zm4.067.552,2.131,1.33-3.625,13.007-7.21-3.661Zm-3.279,40.353A10.859,10.859,0,0,1,116.5,98.106v6.3l-3.745,15.58H68.637L54.914,109.075a5.063,5.063,0,0,1,5.649-8.368l9.564,5.426a1.763,1.763,0,0,0,2.613-1.523V74.1a5.942,5.942,0,1,1,11.884,0V85.509a1.749,1.749,0,0,0,1.75,1.75Zm18.847-17.3H87.169A9.44,9.44,0,0,0,70.5,69.388V56.626l10.342-6.458L84.764,64.24a1.76,1.76,0,0,0,2.477,1.091L97.5,60.122l10.259,5.209a1.76,1.76,0,0,0,2.477-1.091l3.922-14.072L124.5,56.626Z"/></g></svg>
