<?xml version="1.0" encoding="UTF-8"?>
<svg xmlns="http://www.w3.org/2000/svg" width="512" height="512" viewBox="0 0 128 128"><g><path d="M21.353,98.561a9.825,9.825,0,0,0,9.815-9.814V84.858a9.815,9.815,0,0,0-19.63,0v3.889A9.825,9.825,0,0,0,21.353,98.561Zm-6.315-13.7a6.315,6.315,0,0,1,12.63,0v3.889a6.315,6.315,0,0,1-12.63,0Z"/><path d="M51.047,77.533v5.4a12.953,12.953,0,0,0,25.906,0v-5.4a12.953,12.953,0,0,0-25.906,0Zm22.406,0v5.4a9.453,9.453,0,0,1-18.906,0v-5.4a9.453,9.453,0,0,1,18.906,0Z"/><path d="M106.646,98.561a9.825,9.825,0,0,0,9.816-9.814V84.858a9.815,9.815,0,0,0-19.63,0v3.889A9.824,9.824,0,0,0,106.646,98.561Zm-6.314-13.7a6.315,6.315,0,0,1,12.63,0v3.889a6.315,6.315,0,0,1-12.63,0Z"/><path d="M127.177,108.985l-12.069-7.535a1.951,1.951,0,0,0-.926-.265H99.111a1.951,1.951,0,0,0-.926.265l-9.56,5.968L75.394,99.157a1.958,1.958,0,0,0-.927-.265H53.533a1.958,1.958,0,0,0-.927.265l-13.231,8.261-9.56-5.968a1.951,1.951,0,0,0-.926-.265H13.818a1.951,1.951,0,0,0-.926.265L.823,108.985A1.751,1.751,0,0,0,0,110.47v10.949a1.749,1.749,0,0,0,1.75,1.75H35.019v3.148a1.75,1.75,0,0,0,1.75,1.75H91.23a1.749,1.749,0,0,0,1.75-1.75v-3.148h33.27a1.749,1.749,0,0,0,1.75-1.75V110.47A1.753,1.753,0,0,0,127.177,108.985Zm-14.745-4.3a5.786,5.786,0,0,1-11.571,0Zm-39.826-2.293a8.718,8.718,0,0,1-17.212,0Zm-45.467,2.293a5.786,5.786,0,0,1-11.571,0ZM3.5,119.669V111.44l8.682-5.42a9.273,9.273,0,0,0,18.343,0l5.545,3.462-.227.143a1.75,1.75,0,0,0-.824,1.484v8.561Zm85.98,4.9H38.519V112.079l13.553-8.462a12.21,12.21,0,0,0,23.856,0l13.552,8.462Zm35.02-4.9H92.98v-8.561a1.837,1.837,0,0,0-1.05-1.627l5.545-3.462a9.273,9.273,0,0,0,18.343,0l8.682,5.42Z"/><path d="M32.591,32.641A31.435,31.435,0,1,0,82.544,6.054,31.2,31.2,0,0,0,64,0C46.484-.234,31.665,15.119,32.591,32.641Zm59.348-1.206A27.9,27.9,0,0,1,86,48.644l-8.243-6,5.813-9.9a1.749,1.749,0,0,0-.963-2.548l-3.4-1.116,2.861-2.585a1.75,1.75,0,0,0,.027-2.573l-5.809-5.469,5.627-8.441A28.059,28.059,0,0,1,91.939,31.435ZM57.815,12.167a1.746,1.746,0,0,0,.513-1.237V4.073A28.1,28.1,0,0,1,64,3.5,27.693,27.693,0,0,1,79.1,7.93L72.56,17.738a1.75,1.75,0,0,0,.256,2.245l5.5,5.183L74.631,28.5a1.75,1.75,0,0,0,.627,2.961l4.2,1.38-5.518,9.4a1.749,1.749,0,0,0,.479,2.3l9.248,6.735A27.927,27.927,0,0,1,36.215,34.32H42.5l3.409,14.066a1.752,1.752,0,0,0,.464.825l3.555,3.555a1.759,1.759,0,0,0,2.554-.086L64.6,38.818a1.75,1.75,0,0,0-.136-2.442l-10.524-9.63,6.246-4.467a1.751,1.751,0,0,0,.733-1.424V16.34a1.749,1.749,0,0,0-1.75-1.75H55.393ZM54.828,5.036v5.169l-4.9,4.9a1.749,1.749,0,0,0,1.237,2.987h6.253v1.865l-7.271,5.2a1.751,1.751,0,0,0-.164,2.715L60.841,37.8,51.082,48.968,49.2,47.084,45.581,32.158a1.751,1.751,0,0,0-1.7-1.338H36.067A27.925,27.925,0,0,1,54.828,5.036Z"/></g></svg>
