<?xml version="1.0" encoding="UTF-8"?>
<svg xmlns="http://www.w3.org/2000/svg" width="512" height="512" viewBox="0 0 128 128"><g><path d="M127.245,72.831,123.286,70.1a10.331,10.331,0,0,0-7.823-1.668,10.442,10.442,0,0,0-2.141.648,29.052,29.052,0,0,0-3.341-9.1l-14.9-26.054a6.168,6.168,0,0,0-.925-12.267H91.829A44.389,44.389,0,0,0,96.672,1.747,1.749,1.749,0,0,0,94.922,0H55.078a1.749,1.749,0,0,0-1.75,1.75,44.38,44.38,0,0,0,4.844,19.909H55.844a6.168,6.168,0,0,0-.925,12.267l-14.9,26.054a29.413,29.413,0,0,0-2.372,23.879,1.735,1.735,0,0,0-.8-.2H15.631a1.75,1.75,0,0,0-1.75,1.75v6.769H1.75A1.749,1.749,0,0,0,0,93.924v23.807a1.749,1.749,0,0,0,1.75,1.75H13.881v6.769a1.749,1.749,0,0,0,1.75,1.75H36.849a1.75,1.75,0,0,0,1.75-1.75V119.6h62.232a1.752,1.752,0,0,0,1.512-.869l25.419-43.577A1.75,1.75,0,0,0,127.245,72.831ZM62.06,21.566A40.658,40.658,0,0,1,56.866,3.5H93.134a40.662,40.662,0,0,1-5.193,18.068l-.05.091H62.109Zm-8.888,6.262a2.674,2.674,0,0,1,2.672-2.672H94.156a2.672,2.672,0,0,1,0,5.344H55.844A2.674,2.674,0,0,1,53.172,27.828ZM43.058,61.715,58.908,34H91.093l15.85,27.715a25.664,25.664,0,0,1,3.181,9.477,10.48,10.48,0,0,0-1.355,1.617h0L94.808,93.368v-.4A11.006,11.006,0,0,0,83.814,81.975H59.156a1.75,1.75,0,0,0-1.429.74l-6.75,9.554H46.651a25.873,25.873,0,0,1-3.593-30.554Zm-.974,30.554H38.6V86.333A29.137,29.137,0,0,0,42.084,92.269ZM3.5,115.981V95.674H13.881v20.307ZM35.1,124.5H17.381V87.155H35.1Zm64.727-8.4H38.6V95.769H51.883a1.751,1.751,0,0,0,1.429-.741l6.75-9.553H83.814a7.5,7.5,0,0,1,7.494,7.493V97.31H67.8a1.75,1.75,0,1,0,0,3.5H93.058a1.815,1.815,0,0,0,1.448-.766L101.9,89.157l9.767-14.383a6.937,6.937,0,0,1,9.631-1.8l2.626,1.814Z"/><path d="M66.8,67.353a1.75,1.75,0,0,0,0,3.5h6.384v6.332a1.75,1.75,0,0,0,3.5,0V70.853h3.383A1.752,1.752,0,0,0,81.3,70.34l3-3a1.751,1.751,0,0,0,.512-1.237v-7.73a1.749,1.749,0,0,0-1.75-1.75H76.679V49.4h6.383a1.75,1.75,0,0,0,0-3.5H76.679V39.56a1.75,1.75,0,0,0-3.5,0V45.9H69.8a1.749,1.749,0,0,0-1.237.512l-3,3a1.751,1.751,0,0,0-.512,1.238v7.728a1.749,1.749,0,0,0,1.75,1.75h6.384v7.23Zm1.75-10.73V51.369L70.519,49.4h2.66v7.228Zm8.134,3.5h4.633v5.255l-1.974,1.975H76.679Z"/></g></svg>
