<svg height="512" viewBox="0 0 128 128" width="512" xmlns="http://www.w3.org/2000/svg"><g><path d="m127.487 68.76-8-8a1.75 1.75 0 0 0 -1.237-.513h-78.227a1.75 1.75 0 0 0 -1.237.513l-8 8a1.75 1.75 0 0 0 -.513 1.24v33.11a1.751 1.751 0 0 0 .513 1.238l8 8a1.749 1.749 0 0 0 1.237.512h68.716l16.341 14.688a1.75 1.75 0 0 0 2.92-1.3v-56.248a1.75 1.75 0 0 0 -.513-1.24zm-2.987 53.561-13.92-12.512a1.749 1.749 0 0 0 -1.17-.449h-68.662l-6.975-6.975v-31.663l6.975-6.975h76.777l6.975 6.975z"/><path d="m89.214 52.1 8-8a1.751 1.751 0 0 0 .513-1.238v-33.115a1.75 1.75 0 0 0 -.513-1.237l-8-8a1.75 1.75 0 0 0 -1.237-.51h-78.227a1.75 1.75 0 0 0 -1.237.51l-8 8a1.75 1.75 0 0 0 -.513 1.237v56.253a1.75 1.75 0 0 0 2.92 1.3l16.341-14.69h68.716a1.749 1.749 0 0 0 1.237-.51zm-70.624-2.99a1.749 1.749 0 0 0 -1.17.449l-13.92 12.512v-51.6l6.975-6.971h76.777l6.975 6.975v31.66l-6.975 6.975z"/><path d="m63.2 16.626-5.657-5.657a1.749 1.749 0 0 0 -2.475 0l-6.2 6.2-6.2-6.2a1.749 1.749 0 0 0 -2.475 0l-5.657 5.657a1.751 1.751 0 0 0 0 2.475l6.2 6.2-6.2 6.2a1.75 1.75 0 0 0 0 2.474l5.657 5.658a1.751 1.751 0 0 0 2.475 0l6.2-6.2 6.2 6.2a1.751 1.751 0 0 0 2.475 0l5.657-5.652a1.748 1.748 0 0 0 0-2.474l-6.2-6.207 6.2-6.2a1.749 1.749 0 0 0 0-2.474zm-9.915 7.44a1.751 1.751 0 0 0 0 2.475l6.2 6.2-3.185 3.185-6.2-6.2a1.749 1.749 0 0 0 -2.475 0l-6.2 6.2-3.182-3.182 6.2-6.2a1.749 1.749 0 0 0 0-2.475l-6.2-6.2 3.182-3.182 6.2 6.2a1.751 1.751 0 0 0 2.475 0l6.2-6.2 3.182 3.182z"/><path d="m89.4 71.543a1.75 1.75 0 0 0 -2.469.155l-12.275 13.916-3.392-3.751a1.757 1.757 0 0 0 -2.472-.124l-5.934 5.366a1.761 1.761 0 0 0 -.124 2.472l10.716 11.848a1.76 1.76 0 0 0 2.61-.016l19.494-22.1a1.761 1.761 0 0 0 -.156-2.471zm-14.669 26.081-8.227-9.1 3.338-3.018 3.532 3.907a1.748 1.748 0 0 0 2.611-.017l12.415-14.07 3.371 2.974z"/></g></svg>