<svg height="512" viewBox="0 0 128 128" width="512" xmlns="http://www.w3.org/2000/svg"><g><path d="m60.177 99.1-17.69-11.047a1.877 1.877 0 0 0 -.936-.272h-22.1a1.874 1.874 0 0 0 -.936.272l-17.692 11.047a1.748 1.748 0 0 0 -.823 1.482v16.059a1.75 1.75 0 0 0 1.75 1.75h57.5a1.75 1.75 0 0 0 1.75-1.75v-16.059a1.75 1.75 0 0 0 -.823-1.482zm-32.406 3.411-7.21 3.661-3.624-13.009 2.131-1.331zm14.161-10.679 2.131 1.331-3.625 13.007-7.21-3.661zm-4.066-.551-7.366 9.035-7.366-9.035zm19.634 23.61h-54v-13.338l10.342-6.453 3.922 14.072a1.76 1.76 0 0 0 2.477 1.091l10.259-5.214 10.259 5.209a1.76 1.76 0 0 0 2.477-1.091l3.922-14.067 10.342 6.453z"/><path d="m30.5 82.3a13.593 13.593 0 0 0 13.578-13.576v-5.7a13.578 13.578 0 1 0 -27.156 0v5.7a13.593 13.593 0 0 0 13.578 13.576zm-10.078-19.278a10.078 10.078 0 1 1 20.156 0v5.7a10.078 10.078 0 0 1 -20.156 0z"/><path d="m127.177 99.1-17.69-11.045a1.877 1.877 0 0 0 -.936-.272h-22.1a1.874 1.874 0 0 0 -.936.272l-17.692 11.045a1.748 1.748 0 0 0 -.823 1.482v16.059a1.75 1.75 0 0 0 1.75 1.75h57.5a1.75 1.75 0 0 0 1.75-1.75v-16.059a1.75 1.75 0 0 0 -.823-1.482zm-32.406 3.411-7.21 3.661-3.624-13.009 2.131-1.331zm14.161-10.677 2.131 1.331-3.625 13.007-7.21-3.661zm-4.066-.551-7.366 9.033-7.366-9.035zm19.634 23.61h-54v-13.34l10.342-6.453 3.922 14.072a1.76 1.76 0 0 0 2.477 1.091l10.259-5.214 10.259 5.209a1.76 1.76 0 0 0 2.477-1.091l3.922-14.067 10.342 6.458z"/><path d="m83.922 63.022v5.7a13.578 13.578 0 0 0 27.156 0v-5.7a13.578 13.578 0 1 0 -27.156 0zm13.578-10.079a10.09 10.09 0 0 1 10.078 10.079v5.7a10.078 10.078 0 0 1 -20.156 0v-5.7a10.09 10.09 0 0 1 10.078-10.079z"/><path d="m41.963 45.984h44.074a5.756 5.756 0 0 0 5.75-5.75v-24.875a5.757 5.757 0 0 0 -5.75-5.75h-44.074a5.757 5.757 0 0 0 -5.75 5.75v24.875a5.756 5.756 0 0 0 5.75 5.75zm-2.25-30.625a2.253 2.253 0 0 1 2.25-2.25h44.074a2.253 2.253 0 0 1 2.25 2.25v24.875a2.253 2.253 0 0 1 -2.25 2.25h-44.074a2.253 2.253 0 0 1 -2.25-2.25z"/><path d="m49.389 34.77a4.374 4.374 0 0 0 8.435 0l4.113-14.947a1.75 1.75 0 1 0 -3.375-.927l-4.113 14.946a.874.874 0 0 1 -1.685 0l-4.114-14.942a1.75 1.75 0 0 0 -3.375.927z"/><path d="m78.037 34.484h-10.287a1.75 1.75 0 0 0 0 3.5h10.287a4.756 4.756 0 0 0 4.75-4.75v-2.434a4.756 4.756 0 0 0 -4.75-4.75h-7.287a1.251 1.251 0 0 1 -1.25-1.25v-2.441a1.251 1.251 0 0 1 1.25-1.25h10.287a1.75 1.75 0 0 0 0-3.5h-10.287a4.756 4.756 0 0 0 -4.75 4.75v2.441a4.756 4.756 0 0 0 4.75 4.75h7.287a1.25 1.25 0 0 1 1.25 1.25v2.437a1.25 1.25 0 0 1 -1.25 1.247z"/></g></svg>