<svg height="512" viewBox="0 0 128 128" width="512" xmlns="http://www.w3.org/2000/svg"><g><path d="m126.447 33.886-17.673-2a159.182 159.182 0 0 0 -35.738 0 155.562 155.562 0 0 1 -34.952 0l-16.114-1.824v-2.9a14.6 14.6 0 1 0 -14.75 0v99.081a1.751 1.751 0 0 0 1.75 1.757h11.25a1.751 1.751 0 0 0 1.75-1.75v-18.666l15.72 1.779a159.091 159.091 0 0 0 35.741 0 155.536 155.536 0 0 1 34.949 0l17.673 2a1.637 1.637 0 0 0 .2.011 1.75 1.75 0 0 0 1.75-1.75v-74a1.751 1.751 0 0 0 -1.556-1.738zm-122.947-19.294a11.1 11.1 0 1 1 8.625 10.808 11.107 11.107 0 0 1 -8.625-10.808zm14.97 109.908h-7.75v-95.84a14.746 14.746 0 0 0 7.75 0zm106.03-16.834-15.726-1.78a159.2 159.2 0 0 0 -35.738 0 155.562 155.562 0 0 1 -34.952 0l-16.114-1.824v-70.478l15.72 1.779a159.032 159.032 0 0 0 35.741 0 155.6 155.6 0 0 1 34.949 0l16.12 1.824z"/><path d="m83.5 55.615a1.75 1.75 0 0 0 -2.47.155l-12.276 13.916-3.392-3.751a1.757 1.757 0 0 0 -2.472-.125l-5.934 5.367a1.76 1.76 0 0 0 -.124 2.471l10.716 11.852a1.76 1.76 0 0 0 2.61-.017l19.494-22.1a1.76 1.76 0 0 0 -.155-2.47zm-14.671 26.085-8.229-9.1 3.34-3.02 3.533 3.907a1.77 1.77 0 0 0 2.61-.016l12.417-14.071 3.375 2.976z"/><path d="m73.235 43.375a27.25 27.25 0 1 0 27.25 27.25 27.28 27.28 0 0 0 -27.25-27.25zm0 51a23.75 23.75 0 1 1 23.75-23.75 23.777 23.777 0 0 1 -23.75 23.75z"/></g></svg>