<?xml version="1.0" encoding="UTF-8"?>
<svg xmlns="http://www.w3.org/2000/svg" width="512" height="512" viewBox="0 0 128 128"><g><path d="M127.393.422a1.752,1.752,0,0,0-1.4-.406C119.985.91,97.761,3.825,64,3.825S8.015.91,2.008.016A1.75,1.75,0,0,0,0,1.747V12.271A1.749,1.749,0,0,0,1.5,14c2.907.413,7.714,1.026,14.246,1.637V61.169a1.762,1.762,0,0,0,2.134,1.708L37.375,58.5l19.491,4.377A1.762,1.762,0,0,0,59,61.169V17.712c3.261.029,6.739.029,10,0V61.169a1.762,1.762,0,0,0,2.134,1.708L90.625,58.5l19.491,4.377a1.762,1.762,0,0,0,2.134-1.708V15.64c6.532-.611,11.339-1.224,14.246-1.637a1.749,1.749,0,0,0,1.5-1.732V1.747A1.75,1.75,0,0,0,127.393.422ZM55.5,58.983,37.759,55a1.746,1.746,0,0,0-.768,0L19.25,58.983V15.954C31.3,16.966,43.382,17.5,55.5,17.674Zm53.25-43.029V58.983L91.009,55a1.746,1.746,0,0,0-.768,0L72.5,58.983V17.674C84.617,17.5,96.7,16.966,108.75,15.954Zm15.75-5.208c-18.389,2.465-41.286,3.511-60.5,3.488-19.188.024-42.139-1.024-60.5-3.488V3.764C11.648,4.882,33.027,7.325,64,7.325s52.352-2.443,60.5-3.561Z"/><path d="M49.293,22.055c-8.142-.2-16.106-.567-23.671-1.095a1.751,1.751,0,0,0-1.872,1.746V51.174a1.762,1.762,0,0,0,2.134,1.707L37.375,50.3l11.491,2.58A1.762,1.762,0,0,0,51,51.174V23.805A1.751,1.751,0,0,0,49.293,22.055ZM47.5,48.987,37.759,46.8a1.746,1.746,0,0,0-.768,0L27.25,48.987V24.578c6.52.429,13.316.742,20.25.932Z"/><path d="M102.378,20.96c-7.566.528-15.529.9-23.671,1.095A1.751,1.751,0,0,0,77,23.805V51.174a1.749,1.749,0,0,0,2.134,1.707L90.625,50.3l11.491,2.58a1.762,1.762,0,0,0,2.134-1.707V22.706a1.746,1.746,0,0,0-.557-1.28A1.712,1.712,0,0,0,102.378,20.96ZM100.75,48.987,91.009,46.8a1.746,1.746,0,0,0-.768,0L80.5,48.987V25.51c6.934-.19,13.729-.5,20.25-.932Z"/><path d="M125.992,65.094C119.985,65.987,97.761,68.9,64,68.9S8.015,65.987,2.008,65.094A1.749,1.749,0,0,0,0,66.825V77.349a1.75,1.75,0,0,0,1.5,1.732c2.906.412,7.713,1.026,14.246,1.637v45.529a1.762,1.762,0,0,0,2.134,1.708l19.491-4.377,19.491,4.377A1.763,1.763,0,0,0,59,126.247V82.789c3.261.029,6.739.029,10,0v43.458a1.762,1.762,0,0,0,2.134,1.708l19.491-4.377,19.491,4.377a1.763,1.763,0,0,0,2.134-1.708V80.718c6.533-.611,11.34-1.225,14.246-1.637a1.75,1.75,0,0,0,1.5-1.732V66.825a1.749,1.749,0,0,0-2.008-1.731ZM55.5,124.06l-17.741-3.983a1.746,1.746,0,0,0-.768,0L19.25,124.06V81.032C31.3,82.043,43.382,82.578,55.5,82.751Zm53.25-43.028V124.06l-17.741-3.983a1.746,1.746,0,0,0-.768,0L72.5,124.06V82.751C84.617,82.578,96.7,82.043,108.75,81.032Zm15.75-5.208c-18.386,2.465-41.287,3.51-60.5,3.487-19.187.025-42.141-1.024-60.5-3.487V68.842C11.648,69.959,33.027,72.4,64,72.4s52.352-2.444,60.5-3.561Z"/><path d="M49.293,87.133c-8.142-.2-16.106-.568-23.671-1.095a1.749,1.749,0,0,0-1.872,1.745v28.469a1.762,1.762,0,0,0,2.134,1.707l11.491-2.581,11.491,2.581A1.762,1.762,0,0,0,51,116.252V88.882A1.75,1.75,0,0,0,49.293,87.133ZM47.5,114.065l-9.741-2.188a1.776,1.776,0,0,0-.768,0l-9.741,2.188V89.656c6.52.429,13.316.742,20.25.931Z"/><path d="M102.378,86.038c-7.566.527-15.529.9-23.671,1.095A1.75,1.75,0,0,0,77,88.882v27.37a1.762,1.762,0,0,0,2.134,1.707l11.491-2.581,11.491,2.581a1.762,1.762,0,0,0,2.134-1.707V87.783a1.747,1.747,0,0,0-.557-1.28A1.711,1.711,0,0,0,102.378,86.038Zm-1.628,28.027-9.741-2.188a1.776,1.776,0,0,0-.768,0L80.5,114.065V90.587c6.934-.189,13.729-.5,20.25-.931Z"/><path d="M85.1,43.516H96.15a1.75,1.75,0,0,0,1.75-1.75V32.113a1.75,1.75,0,0,0-1.75-1.75H85.1a1.75,1.75,0,0,0-1.75,1.75v9.653A1.75,1.75,0,0,0,85.1,43.516Zm1.75-9.653H94.4v6.153H86.85Z"/><path d="M34.905,42.523a1.751,1.751,0,0,0,1.578.993h1.784a1.752,1.752,0,0,0,1.578-.993l4.633-9.652a1.75,1.75,0,0,0-3.156-1.515L37.375,39.58l-3.947-8.224a1.751,1.751,0,0,0-3.157,1.515Z"/><path d="M31.85,98.941h3.775v7.9a1.75,1.75,0,1,0,3.5,0v-7.9H42.9a1.75,1.75,0,1,0,0-3.5H31.85a1.75,1.75,0,1,0,0,3.5Z"/><path d="M85.1,108.593H96.15a1.75,1.75,0,0,0,0-3.5h-9.3v-1.326h6.769a1.75,1.75,0,0,0,0-3.5H86.85V98.941h9.3a1.75,1.75,0,0,0,0-3.5H85.1a1.75,1.75,0,0,0-1.75,1.75v9.652A1.749,1.749,0,0,0,85.1,108.593Z"/></g></svg>
