<?xml version="1.0" encoding="UTF-8"?>
<svg xmlns="http://www.w3.org/2000/svg" width="512" height="512" viewBox="0 0 128 128"><path d="M123.687,71.747h2.563A1.749,1.749,0,0,0,128,70V58.5a1.749,1.749,0,0,0-1.75-1.75H109.062V47a1.749,1.749,0,0,0-1.75-1.75H99.626A27.409,27.409,0,0,0,72.31,19.625H65.75v-4.5H79.625a1.749,1.749,0,0,0,1.75-1.75V4.25a1.749,1.749,0,0,0-1.75-1.75H65.75V1.747a1.75,1.75,0,0,0-3.5,0V19.625H55.69A27.408,27.408,0,0,0,28.374,45.253H20.687A1.75,1.75,0,0,0,18.937,47V56.75H1.75A1.749,1.749,0,0,0,0,58.5V70a1.749,1.749,0,0,0,1.75,1.75H4.312V113H1.75A1.749,1.749,0,0,0,0,114.75v11.5A1.749,1.749,0,0,0,1.75,128h124.5a1.749,1.749,0,0,0,1.75-1.75v-11.5a1.749,1.749,0,0,0-1.75-1.75h-2.563ZM94.625,102.875a5.756,5.756,0,0,0-5.75,5.75V113h-4.5V87.125a8.76,8.76,0,0,0-8.75-8.75H52.375a8.76,8.76,0,0,0-8.75,8.75V113h-4.5v-4.375a5.756,5.756,0,0,0-5.75-5.75H30.312v-21h3.063a5.756,5.756,0,0,0,5.75-5.75V71.747h49.75v4.378a5.756,5.756,0,0,0,5.75,5.75h3.062v21ZM47.125,113V87.125a5.256,5.256,0,0,1,5.25-5.25H62.25V113ZM65.75,81.875h9.875a5.256,5.256,0,0,1,5.25,5.25V113H65.75Zm-55.688,21a5.723,5.723,0,0,0-2.25.459V81.416a5.723,5.723,0,0,0,2.25.459h3.063v21Zm0-24.5a2.253,2.253,0,0,1-2.25-2.25V71.75H35.625v4.375a2.253,2.253,0,0,1-2.25,2.25Zm6.563,3.5H26.812v21H16.625Zm78-3.5a2.253,2.253,0,0,1-2.25-2.25V71.75h27.812v4.375a2.253,2.253,0,0,1-2.25,2.25Zm6.562,3.5h10.188v21H101.187Zm13.688,0h3.062a5.715,5.715,0,0,0,2.25-.459v21.918a5.715,5.715,0,0,0-2.25-.459h-3.062ZM96.124,45.253H81.375V37a17.338,17.338,0,0,0-6.818-13.768A23.916,23.916,0,0,1,96.124,45.253ZM64,23.125A13.892,13.892,0,0,1,77.875,37v8.253H50.125V37A13.892,13.892,0,0,1,64,23.125ZM77.875,6v5.625H65.75V6ZM53.443,23.232A17.338,17.338,0,0,0,46.625,37v8.253H31.876A23.916,23.916,0,0,1,53.443,23.232ZM22.437,48.753h83.125v8H22.437ZM3.5,60.25h121v8H3.5Zm4.312,48.375a2.253,2.253,0,0,1,2.25-2.25H33.375a2.253,2.253,0,0,1,2.25,2.25V113H7.812ZM124.5,124.5H3.5v-8h121ZM92.375,113v-4.375a2.253,2.253,0,0,1,2.25-2.25h23.312a2.253,2.253,0,0,1,2.25,2.25V113Z"/></svg>
