<svg height="512" viewBox="0 0 128 128" width="512" xmlns="http://www.w3.org/2000/svg"><path d="m126.25 24.879h-14.75a1.751 1.751 0 0 0 -1.75 1.75v11.843h-20.968l-15.87-7.814a22.893 22.893 0 0 0 -10.054-2.341 22.654 22.654 0 0 0 -15.758 6.341l-3.6 3.457-3.229-2.458a17.05 17.05 0 0 0 -10.271-3.465h-11.75v-5.563a1.751 1.751 0 0 0 -1.75-1.75h-14.75a1.751 1.751 0 0 0 -1.75 1.75v55a1.75 1.75 0 0 0 1.75 1.75h14.75a1.75 1.75 0 0 0 1.75-1.75v-8.741l37.882 27.261a15.81 15.81 0 0 0 19.18-.57l21.751-17.706 12.687-5.931v5.687a1.75 1.75 0 0 0 1.75 1.75h14.75a1.75 1.75 0 0 0 1.75-1.75v-55a1.751 1.751 0 0 0 -1.75-1.75zm-111.5 55h-11.25v-51.5h11.25zm43.426 17.429-39.926-28.731v-32.885h11.75a13.528 13.528 0 0 1 8.152 2.75l2.793 2.126-3.745 3.595a8.665 8.665 0 0 0 11.787 12.7l6.137-5.5 38.176 29.063-6.71 5.462-8.051-6.129a1.75 1.75 0 1 0 -2.12 2.785l7.378 5.617-6.752 5.5c-.019-.016-.034-.035-.054-.051l-8.828-6.721a1.75 1.75 0 1 0 -2.12 2.785l8.215 6.255-1.152.938a12.3 12.3 0 0 1 -14.93.441zm38.167-18.962-40.255-30.646a1.8 1.8 0 0 0 -2.229.09l-7.214 6.47a5.166 5.166 0 0 1 -7.026-7.572l9.9-9.505a19.166 19.166 0 0 1 13.337-5.366 19.377 19.377 0 0 1 8.508 1.98l16.236 8a1.754 1.754 0 0 0 .773.18h21.377v30.101zm28.157 1.533h-11.25v-51.5h11.25z"/></svg>