<svg height="512" viewBox="0 0 128 128" width="512" xmlns="http://www.w3.org/2000/svg"><g><path d="m112.091 105.593a1.873 1.873 0 0 0 .034-.343v-103.5a1.749 1.749 0 0 0 -1.75-1.75h-92.75a1.75 1.75 0 0 0 -1.75 1.75v124.5a1.75 1.75 0 0 0 1.75 1.75h71.75a1.79 1.79 0 0 0 1.237-.513l21-21a1.9 1.9 0 0 0 .479-.894zm-92.716-102.093h89.25v100h-19.25a1.749 1.749 0 0 0 -1.75 1.75v19.25h-68.25zm71.75 118.525v-15.025h15.025z"/><path d="m25.625 58.309h41.125a1.75 1.75 0 0 0 1.75-1.75v-11.486a1.751 1.751 0 0 0 -.823-1.484l-12.65-7.9a1.85 1.85 0 0 0 -.936-.271h-15.807a1.86 1.86 0 0 0 -.936.271l-12.65 7.9a1.749 1.749 0 0 0 -.823 1.484v11.486a1.751 1.751 0 0 0 1.75 1.75zm17.834-12.022-4.059 2.064-2.329-8.358.835-.522zm11.014-6.816.835.522-2.329 8.358-4.063-2.064zm-4.066-.551-4.22 5.18-4.219-5.18zm-23.032 7.124 6.6-4.119 2.625 9.423a1.762 1.762 0 0 0 2.478 1.091l7.111-3.612 7.111 3.612a1.762 1.762 0 0 0 2.478-1.091l2.622-9.423 6.6 4.119v8.765h-37.625z"/><path d="m46.187 32.5a10.221 10.221 0 0 0 10.213-10.212v-4.078a10.21 10.21 0 1 0 -20.419 0v4.078a10.221 10.221 0 0 0 10.206 10.212zm-6.709-14.29a6.71 6.71 0 1 1 13.419 0v4.078a6.71 6.71 0 1 1 -13.419 0z"/><path d="m74.75 58.309h27.625a1.75 1.75 0 0 0 1.75-1.75v-46.809a1.749 1.749 0 0 0 -1.75-1.75h-27.625a1.749 1.749 0 0 0 -1.75 1.75v46.809a1.75 1.75 0 0 0 1.75 1.75zm1.75-46.809h24.125v43.309h-24.125z"/><path d="m25.625 84.815h76.75a1.749 1.749 0 0 0 1.75-1.75v-19.065a1.749 1.749 0 0 0 -1.75-1.75h-76.75a1.75 1.75 0 0 0 -1.75 1.75v19.065a1.75 1.75 0 0 0 1.75 1.75zm1.75-19.062h73.25v15.562h-73.25z"/><path d="m25.625 93.253h76.75a1.75 1.75 0 0 0 0-3.5h-76.75a1.75 1.75 0 0 0 0 3.5z"/><path d="m25.625 102.169h76.75a1.75 1.75 0 0 0 0-3.5h-76.75a1.75 1.75 0 0 0 0 3.5z"/><path d="m25.625 111.084h53.5a1.75 1.75 0 0 0 0-3.5h-53.5a1.75 1.75 0 0 0 0 3.5z"/><path d="m79.125 116.5h-53.5a1.75 1.75 0 0 0 0 3.5h53.5a1.75 1.75 0 0 0 0-3.5z"/></g></svg>