<?xml version="1.0" encoding="UTF-8"?>
<svg xmlns="http://www.w3.org/2000/svg" width="512" height="512" viewBox="0 0 128 128"><g><path d="M109.907,102.932l-27.69-17.29a2.157,2.157,0,0,0-.927-.266H46.71a2.139,2.139,0,0,0-.926.266l-27.691,17.29a1.75,1.75,0,0,0-.824,1.484V126.25a1.75,1.75,0,0,0,1.75,1.75H108.98a1.749,1.749,0,0,0,1.75-1.75V104.416A1.749,1.749,0,0,0,109.907,102.932ZM92.13,95.958l.635,16.727-4.292-.161a1.766,1.766,0,0,0-1.765,2.166l2.407,9.808H78.887l10.457-30.28ZM74.421,124.5l-5.007-9.4,4.353-4.784,5.371,2.728L75.183,124.5Zm-21.6,0-3.955-11.452,5.372-2.727,4.352,4.783-5.007,9.4ZM40.949,113.168a1.753,1.753,0,0,0-1.422-.644l-4.291.161.634-16.727,2.786-1.74L49.114,124.5H38.885l2.407-9.808A1.748,1.748,0,0,0,40.949,113.168Zm39.342-3.46-13.278-6.742L81.507,89.325,86.3,92.316Zm-18.53,6.881h4.478l4.215,7.909H57.546Zm4.756-3.5H61.484l-4.014-4.412L64,105.361l6.53,3.316Zm-5.53-10.123-13.278,6.742L41.7,92.316l4.791-2.991ZM64,101,51.123,88.876H76.877Zm-43.231,4.392L32.283,98.2l-.616,16.241a1.759,1.759,0,0,0,1.814,1.815l3.859-.145L35.281,124.5H20.769ZM107.23,124.5H92.719l-2.059-8.391,3.859.145a1.76,1.76,0,0,0,1.815-1.815L95.718,98.2l11.512,7.189Z"/><path d="M64,79.926A23.663,23.663,0,0,0,87.636,56.29V45.739a23.636,23.636,0,1,0-47.272,0V56.29A23.663,23.663,0,0,0,64,79.926ZM43.864,45.739a20.136,20.136,0,1,1,40.272,0V56.29a20.136,20.136,0,1,1-40.272,0Z"/><path d="M126.25,0H90.873a1.749,1.749,0,0,0-1.75,1.75V37.123a1.749,1.749,0,0,0,1.75,1.75h8.736l16.442,10.6a1.762,1.762,0,0,0,2.7-1.471V38.873h7.5a1.749,1.749,0,0,0,1.75-1.75V1.747A1.749,1.749,0,0,0,126.25,0ZM124.5,35.373H117a1.749,1.749,0,0,0-1.75,1.75V44.79l-14.177-9.138a1.753,1.753,0,0,0-.948-.279h-7.5V3.5H124.5Z"/><path d="M107.324,30.4a1.749,1.749,0,0,0,2.475,0l8.817-8.816A7.987,7.987,0,0,0,108.56,9.28,7.985,7.985,0,0,0,98.508,21.586Zm-6.342-17.633a4.488,4.488,0,0,1,6.342,0,1.751,1.751,0,0,0,2.475,0,4.485,4.485,0,0,1,6.343,6.342l-7.581,7.579-7.579-7.579A4.49,4.49,0,0,1,100.982,12.769Z"/><path d="M37.126,38.874a1.749,1.749,0,0,0,1.75-1.75V1.747A1.749,1.749,0,0,0,37.126,0H1.75A1.75,1.75,0,0,0,0,1.747V37.124a1.75,1.75,0,0,0,1.75,1.75h7.5V48a1.763,1.763,0,0,0,2.7,1.471l16.442-10.6Zm-10.2-3.221L12.75,44.79V37.124A1.749,1.749,0,0,0,11,35.374H3.5V3.5H35.376V35.374h-7.5A1.753,1.753,0,0,0,26.927,35.653Z"/><path d="M26.208,13.5h-.343v-2a5.375,5.375,0,0,0-10.75,0v.875H8.7a1.75,1.75,0,0,0-1.75,1.75V31a1.75,1.75,0,0,0,1.75,1.75h8.166A1.75,1.75,0,0,0,18.615,31V30.31h7.593a5.725,5.725,0,0,0,5.719-5.718V19.217A5.725,5.725,0,0,0,26.208,13.5ZM15.115,29.248H10.449V15.873h4.666Zm13.312-4.656a2.221,2.221,0,0,1-2.219,2.218H18.615V11.5a1.875,1.875,0,0,1,3.75,0v3.75A1.749,1.749,0,0,0,24.115,17h2.093a2.221,2.221,0,0,1,2.219,2.219Z"/></g></svg>
