<?xml version="1.0" encoding="UTF-8"?>
<svg xmlns="http://www.w3.org/2000/svg" width="512" height="512" viewBox="0 0 128 128"><g><path d="M126.25,108.31H98.813v-4.83a1.75,1.75,0,0,0-3.5,0v4.83H74.063v-4.83a1.75,1.75,0,0,0-3.5,0v4.83H51.15v-4.83a1.75,1.75,0,0,0-3.5,0v4.83H19.688V1.747A1.751,1.751,0,0,0,17.938,0H1.75A1.751,1.751,0,0,0,0,1.747v124.5A1.751,1.751,0,0,0,1.75,128h124.5a1.751,1.751,0,0,0,1.75-1.75V110.06A1.75,1.75,0,0,0,126.25,108.31ZM124.5,124.5H3.5V3.5H16.188V110.06a1.75,1.75,0,0,0,1.75,1.75H124.5Z"/><path d="M126.25,16.25H98.675a1.748,1.748,0,0,0-1.445.763l-26.2,38.334L51.089,33.159a1.759,1.759,0,0,0-2.539-.068L24.7,56.941a1.751,1.751,0,0,0-.512,1.238V72.321a1.75,1.75,0,0,0,2.987,1.238L49.332,51.4,70.984,75.5a1.761,1.761,0,0,0,2.746-.183L104.875,29.75H126.25A1.751,1.751,0,0,0,128,28V18A1.751,1.751,0,0,0,126.25,16.25Zm-1.75,10H103.952a1.748,1.748,0,0,0-1.445.763L72.1,71.5,50.7,47.689a1.76,1.76,0,0,0-2.539-.067L27.688,68.1V58.9L49.72,36.872,69.913,59.343a1.761,1.761,0,0,0,2.746-.182L99.6,19.75h24.9Z"/><path d="M49.4,72.33a1.751,1.751,0,0,0,1.75-1.75V64a1.75,1.75,0,0,0-3.5,0v6.58A1.751,1.751,0,0,0,49.4,72.33Z"/><path d="M47.65,90.32a1.75,1.75,0,0,0,3.5,0V83.74a1.75,1.75,0,0,0-3.5,0Z"/><path d="M72.313,92.07a1.751,1.751,0,0,0,1.75-1.75V83.74a1.75,1.75,0,0,0-3.5,0v6.58A1.75,1.75,0,0,0,72.313,92.07Z"/><path d="M95.313,70.58a1.75,1.75,0,0,0,3.5,0V64a1.75,1.75,0,1,0-3.5,0Z"/><path d="M97.063,54.493a1.751,1.751,0,0,0,1.75-1.75v-3.29a1.75,1.75,0,0,0-3.5,0v3.29A1.75,1.75,0,0,0,97.063,54.493Z"/><path d="M95.313,90.32a1.75,1.75,0,0,0,3.5,0V83.74a1.75,1.75,0,0,0-3.5,0Z"/></g></svg>
