<?xml version="1.0" encoding="UTF-8"?>
<svg xmlns="http://www.w3.org/2000/svg" width="512" height="512" viewBox="0 0 128 128"><g><path d="M116.75,0H11.25A1.75,1.75,0,0,0,9.5,1.747v124.5A1.75,1.75,0,0,0,11.25,128h105.5a1.749,1.749,0,0,0,1.75-1.75V1.747A1.749,1.749,0,0,0,116.75,0ZM115,124.5H13V3.5H115Z"/><path d="M19.25,73.25H54.613a1.75,1.75,0,0,0,1.75-1.75V61.624a1.749,1.749,0,0,0-.823-1.484L44.664,53.349a1.877,1.877,0,0,0-.937-.272H30.135a1.894,1.894,0,0,0-.936.272L18.323,60.14a1.749,1.749,0,0,0-.823,1.484V71.5A1.75,1.75,0,0,0,19.25,73.25Zm10.5-16.121,4.45,5.458-2.956,1.5-1.873-6.723Zm14.356,0,.379.236-1.873,6.723-2.955-1.5Zm-4.066-.552L36.931,60.4l-3.112-3.818ZM21,62.6l5.279-3.3,2.17,7.787a1.762,1.762,0,0,0,2.478,1.091l6-3.049,6,3.049a1.761,1.761,0,0,0,2.478-1.091l2.17-7.787,5.28,3.3V69.75H21Z"/><path d="M27.907,38.524v3.507a9.025,9.025,0,1,0,18.049,0V38.524a9.025,9.025,0,0,0-18.049,0Zm14.549,0v3.507a5.525,5.525,0,1,1-11.049,0V38.524a5.525,5.525,0,0,1,11.049,0Z"/><path d="M19.25,120H54.613a1.75,1.75,0,0,0,1.75-1.75v-9.876a1.749,1.749,0,0,0-.823-1.484L44.664,100.1a1.888,1.888,0,0,0-.937-.272H30.135a1.894,1.894,0,0,0-.936.272l-10.876,6.791a1.749,1.749,0,0,0-.823,1.484v9.876A1.75,1.75,0,0,0,19.25,120Zm10.5-16.121,4.45,5.458-2.956,1.5-1.873-6.723Zm14.356,0,.379.236-1.873,6.723-2.955-1.5Zm-4.066-.552-3.112,3.818-3.112-3.818ZM21,109.342l5.279-3.3,2.17,7.787a1.762,1.762,0,0,0,2.478,1.091l6-3.049,6,3.049a1.761,1.761,0,0,0,2.478-1.091l2.17-7.787,5.28,3.3V116.5H21Z"/><path d="M27.907,85.272v3.506a9.025,9.025,0,1,0,18.049,0V85.272a9.025,9.025,0,1,0-18.049,0Zm14.549,0v3.506a5.525,5.525,0,1,1-11.049,0V85.272a5.525,5.525,0,1,1,11.049,0Z"/><path d="M19.25,24.563h89.5a1.75,1.75,0,0,0,1.75-1.75V9.747A1.749,1.749,0,0,0,108.75,8H19.25a1.75,1.75,0,0,0-1.75,1.75V22.813A1.751,1.751,0,0,0,19.25,24.563ZM21,11.5h86v9.566H21Z"/><path d="M108.75,33.525H86.5a1.75,1.75,0,0,0-1.75,1.75v22.25a1.749,1.749,0,0,0,1.75,1.75h22.25a1.749,1.749,0,0,0,1.75-1.75V35.275A1.75,1.75,0,0,0,108.75,33.525ZM107,55.775H88.25V37.025H107Z"/><path d="M62.613,37.025H80a1.75,1.75,0,0,0,0-3.5H62.613a1.75,1.75,0,0,0,0,3.5Z"/><path d="M62.613,45.075H80a1.75,1.75,0,0,0,0-3.5H62.613a1.75,1.75,0,0,0,0,3.5Z"/><path d="M62.613,53.125H80a1.75,1.75,0,0,0,0-3.5H62.613a1.75,1.75,0,0,0,0,3.5Z"/><path d="M62.613,61.175H80a1.75,1.75,0,0,0,0-3.5H62.613a1.75,1.75,0,0,0,0,3.5Z"/><path d="M108.75,65.725H62.613a1.75,1.75,0,0,0,0,3.5H108.75a1.75,1.75,0,0,0,0-3.5Z"/><path d="M108.75,80.272H86.5a1.75,1.75,0,0,0-1.75,1.75v22.25a1.749,1.749,0,0,0,1.75,1.75h22.25a1.749,1.749,0,0,0,1.75-1.75V82.022A1.75,1.75,0,0,0,108.75,80.272ZM107,102.522H88.25V83.772H107Z"/><path d="M62.613,83.772H80a1.75,1.75,0,0,0,0-3.5H62.613a1.75,1.75,0,1,0,0,3.5Z"/><path d="M62.613,91.822H80a1.75,1.75,0,0,0,0-3.5H62.613a1.75,1.75,0,0,0,0,3.5Z"/><path d="M62.613,99.872H80a1.75,1.75,0,0,0,0-3.5H62.613a1.75,1.75,0,0,0,0,3.5Z"/><path d="M62.613,107.922H80a1.75,1.75,0,0,0,0-3.5H62.613a1.75,1.75,0,0,0,0,3.5Z"/><path d="M108.75,112.472H62.613a1.75,1.75,0,1,0,0,3.5H108.75a1.75,1.75,0,0,0,0-3.5Z"/><path d="M95.232,50.717a1.752,1.752,0,0,0,2.327-.1l6.126-5.927a1.75,1.75,0,1,0-2.433-2.515l-5.006,4.843-2.355-1.931A1.75,1.75,0,0,0,91.672,47.8Z"/></g></svg>
