<?xml version="1.0" encoding="UTF-8"?>
<svg xmlns="http://www.w3.org/2000/svg" width="512" height="512" viewBox="0 0 128 128"><g><path d="M48.667,43.836a1.75,1.75,0,0,0-1.75,1.75V56.724a1.751,1.751,0,0,0,1.75,1.75H61.418a1.75,1.75,0,0,0,1.75-1.75V45.586a1.749,1.749,0,0,0-1.75-1.75Zm11,11.138H50.417V47.336h9.251Z"/><path d="M97.248,47.336a1.75,1.75,0,0,0,0-3.5H84.5a1.749,1.749,0,0,0-1.75,1.75V56.724a1.75,1.75,0,0,0,1.75,1.75H97.248a1.75,1.75,0,0,0,0-3.5h-11V52.905h8.081a1.75,1.75,0,0,0,0-3.5H86.247V47.336Z"/><path d="M41.926,44.828l-4.8,9.995-4.8-9.995a1.751,1.751,0,0,0-3.156,1.516l5.347,11.137a1.751,1.751,0,0,0,1.578.993h2.058a1.749,1.749,0,0,0,1.577-.993l5.347-11.137a1.75,1.75,0,0,0-3.155-1.516Z"/><path d="M72.958,58.474a1.751,1.751,0,0,0,1.75-1.75V47.336h4.625a1.75,1.75,0,0,0,0-3.5H66.582a1.75,1.75,0,0,0,0,3.5h4.626v9.388A1.75,1.75,0,0,0,72.958,58.474Z"/><path d="M100.656,65.31a1.749,1.749,0,0,0-1.632-2.38H28.976a1.749,1.749,0,0,0-1.632,2.38,39.294,39.294,0,0,0,73.312,0ZM64,86.95A36.048,36.048,0,0,1,31.631,66.43H96.369A36.048,36.048,0,0,1,64,86.95Z"/><path d="M28.976,39.38H99.024A1.75,1.75,0,0,0,100.657,37a39.294,39.294,0,0,0-73.314,0,1.75,1.75,0,0,0,1.633,2.381Zm67.4-3.5H77.75V18.1A35.68,35.68,0,0,1,96.373,35.88ZM74.25,16.855V35.88H53.75V16.855A36.012,36.012,0,0,1,74.25,16.855Zm-24,1.248V35.88H31.627A35.68,35.68,0,0,1,50.25,18.1Z"/><path d="M71.222,72.982,67.586,71.91l-2.143-3.126a1.814,1.814,0,0,0-2.886,0L60.414,71.91l-3.636,1.072a1.75,1.75,0,0,0-.892,2.746l2.311,3-.1,3.789a1.751,1.751,0,0,0,2.336,1.7L64,82.947l3.571,1.27a1.751,1.751,0,0,0,2.336-1.7l-.1-3.789,2.311-3a1.75,1.75,0,0,0-.892-2.746Zm-4.573,4.109a1.753,1.753,0,0,0-.362,1.115l.051,1.858-1.752-.623a1.75,1.75,0,0,0-1.172,0l-1.752.623.051-1.858a1.753,1.753,0,0,0-.362-1.115l-1.134-1.474L62,75.092a1.756,1.756,0,0,0,.948-.69L64,72.869,65.051,74.4a1.756,1.756,0,0,0,.948.69l1.784.525Z"/><path d="M127.766,109.528l-18.632-32.27a26.093,26.093,0,0,0,2.294-10.689,26.18,26.18,0,0,0,0-30.826A26.174,26.174,0,0,0,93.3,10.815,26.166,26.166,0,0,0,64,1.3a26.171,26.171,0,0,0-29.3,9.516A26.182,26.182,0,0,0,16.572,35.74a26.18,26.18,0,0,0,0,30.826,25.984,25.984,0,0,0,2.291,10.7L.234,109.528a1.751,1.751,0,0,0,1.585,2.624l17.617-.7,8.208,15.6a1.748,1.748,0,0,0,1.514.936h.034a1.75,1.75,0,0,0,1.516-.875l15.425-26.717a26.2,26.2,0,0,0,17.863.6,26.009,26.009,0,0,0,17.872-.6l15.424,26.715a1.75,1.75,0,0,0,1.516.875h.034a1.748,1.748,0,0,0,1.514-.936l8.207-15.6,17.618.7a1.728,1.728,0,0,0,1.567-.844A1.751,1.751,0,0,0,127.766,109.528Zm-84.8-10.642-13.7,23.737L22.02,108.851a1.748,1.748,0,0,0-1.548-.936H20.4l-15.549.613L20.815,80.882A26.526,26.526,0,0,0,34.7,91.494,26.535,26.535,0,0,0,42.968,98.886Zm21.62-1.372a1.755,1.755,0,0,0-1.177,0,22.748,22.748,0,0,1-26.159-8.471,1.861,1.861,0,0,0-1-.733,22.758,22.758,0,0,1-16.17-22.287,1.877,1.877,0,0,0-.386-1.127A22.666,22.666,0,0,1,19.7,37.4a1.827,1.827,0,0,0,.378-1.16A22.675,22.675,0,0,1,36.3,13.983a1.754,1.754,0,0,0,.928-.681A22.638,22.638,0,0,1,63.412,4.8a1.508,1.508,0,0,0,.209.059,1.774,1.774,0,0,0,.968-.059A22.658,22.658,0,0,1,90.775,13.3a1.844,1.844,0,0,0,.976.7,22.672,22.672,0,0,1,16.17,22.286,1.869,1.869,0,0,0,.386,1.128,22.663,22.663,0,0,1,0,27.486l-.007.009a1.829,1.829,0,0,0-.378,1.16A22.758,22.758,0,0,1,91.7,88.326a1.925,1.925,0,0,0-.928.682A22.751,22.751,0,0,1,64.588,97.514Zm43.01,10.4a1.8,1.8,0,0,0-1.618.935l-7.244,13.772-13.7-23.735A26.386,26.386,0,0,0,93.3,91.5a26.527,26.527,0,0,0,13.883-10.614l15.962,27.647Z"/><path d="M104.944,90.105a30.531,30.531,0,0,1-8.459,5.03,1.742,1.742,0,0,0-.71.515,30.617,30.617,0,0,1-3.63,3.706,1.751,1.751,0,0,0-.375,2.2l5.2,9a1.75,1.75,0,0,0,1.516.875h.034a1.753,1.753,0,0,0,1.515-.936l3.8-7.231,8.165.322a1.707,1.707,0,0,0,1.567-.845,1.747,1.747,0,0,0,.018-1.779l-6-10.391a1.752,1.752,0,0,0-2.64-.467Zm4.021,9.859-6.1-.24a1.807,1.807,0,0,0-1.618.934l-2.84,5.4-2.9-5.022a34.433,34.433,0,0,0,2.674-2.811,34.022,34.022,0,0,0,7.378-4.153Z"/><path d="M32.225,95.65a1.742,1.742,0,0,0-.71-.515,30.531,30.531,0,0,1-8.459-5.03,1.752,1.752,0,0,0-2.64.467l-6,10.391a1.747,1.747,0,0,0,.018,1.779,1.729,1.729,0,0,0,1.567.845l8.165-.322,3.8,7.231a1.753,1.753,0,0,0,1.515.936h.034a1.75,1.75,0,0,0,1.516-.875l5.195-9a1.751,1.751,0,0,0-.375-2.2A30.617,30.617,0,0,1,32.225,95.65ZM29.59,106.058l-2.84-5.4a1.749,1.749,0,0,0-1.548-.935h-.07l-6.1.24,3.4-5.892a34.022,34.022,0,0,0,7.378,4.153,34.433,34.433,0,0,0,2.674,2.811Z"/></g></svg>
