<?xml version="1.0" encoding="UTF-8"?>
<svg xmlns="http://www.w3.org/2000/svg" width="512" height="512" viewBox="0 0 128 128"><g><path d="M40.581,80V45.818a1.75,1.75,0,0,0-1.75-1.75H11.957A3.961,3.961,0,0,0,8,48.025V77.8a3.961,3.961,0,0,0,3.957,3.957H38.831A1.749,1.749,0,0,0,40.581,80Zm-3.5-1.75H11.957A.458.458,0,0,1,11.5,77.8V48.025a.458.458,0,0,1,.457-.457H37.081Z"/><path d="M114.022,48.933h-7.287V9.852a8.818,8.818,0,1,0-17.636,0v6.435L46.445,36.068H11.957A11.971,11.971,0,0,0,0,48.025V77.8A11.97,11.97,0,0,0,11.957,89.752H27.081l-11,23.767a9.469,9.469,0,1,0,17.186,7.955l4.023-8.693H53.078a13.406,13.406,0,0,0,13.391-13.39v-.352l22.63,10.5v6.434a8.818,8.818,0,1,0,17.636,0V76.887h7.287a13.977,13.977,0,1,0,0-27.954ZM3.5,77.8V48.025a8.467,8.467,0,0,1,8.457-8.457H45.081V86.252H11.957A8.467,8.467,0,0,1,3.5,77.8ZM30.091,120a5.969,5.969,0,1,1-10.834-5.013h0l11.68-25.237H44.093ZM62.969,99.391a9.9,9.9,0,0,1-9.891,9.89H38.91l2.083-4.5H53.078a5.4,5.4,0,0,0,5.391-5.39V95.329l4.5,2.087Zm-8,0a1.893,1.893,0,0,1-1.891,1.89H42.613l5.07-10.954,7.286,3.378ZM48.581,86.885V38.935L89.1,20.145v85.531Zm54.654,29.083a5.318,5.318,0,1,1-10.636,0V9.852a5.318,5.318,0,1,1,10.636,0Zm10.787-42.581h-7.287V52.433h7.287a10.477,10.477,0,1,1,0,20.954Z"/></g></svg>
