<?xml version="1.0" encoding="UTF-8"?>
<svg xmlns="http://www.w3.org/2000/svg" width="512" height="512" viewBox="0 0 128 128"><g><path d="M126.25,0H28a1.75,1.75,0,0,0-1.75,1.75V44.5H1.75A1.75,1.75,0,0,0,0,46.25v68A13.765,13.765,0,0,0,13.75,128h100.5A13.765,13.765,0,0,0,128,114.247V1.747A1.75,1.75,0,0,0,126.25,0ZM3.5,114.247V48H26.25v76.5H13.75A10.261,10.261,0,0,1,3.5,114.247Zm121,0a10.261,10.261,0,0,1-10.25,10.25H29.75V3.5H124.5Z"/><path d="M91.531,55.688H36.469a1.749,1.749,0,0,0-1.75,1.75v60.809a1.75,1.75,0,0,0,1.75,1.75H91.531a1.75,1.75,0,0,0,1.75-1.75V57.438A1.749,1.749,0,0,0,91.531,55.688ZM89.781,116.5H38.219V59.188H89.781Z"/><path d="M58.874,34.682H73.846a1.751,1.751,0,0,0,1.75-1.75V9.747A1.751,1.751,0,0,0,73.846,8H58.874a1.75,1.75,0,0,0-1.75,1.75V32.932A1.75,1.75,0,0,0,58.874,34.682ZM60.624,11.5H72.1V31.182H60.624Z"/><path d="M80.4,11.5H86.14V32.932a1.75,1.75,0,0,0,3.5,0V11.5h5.736a1.75,1.75,0,0,0,0-3.5H80.4a1.75,1.75,0,0,0,0,3.5Z"/><path d="M101.935,34.682h14.971a1.75,1.75,0,0,0,0-3.5H103.685V23.089h11.19a1.75,1.75,0,0,0,0-3.5h-11.19V11.5h13.221a1.75,1.75,0,0,0,0-3.5H101.935a1.75,1.75,0,0,0-1.75,1.75V32.932A1.75,1.75,0,0,0,101.935,34.682Z"/><path d="M40.919,33.32a1.751,1.751,0,0,0,1.706,1.362h4.409A1.749,1.749,0,0,0,48.74,33.32l5.281-23.184a1.75,1.75,0,0,0-3.412-.778L45.638,31.182H44.021L39.05,9.358a1.75,1.75,0,1,0-3.412.778Z"/><path d="M44.206,112.122H83.794a1.75,1.75,0,0,0,1.75-1.75V99.316a1.75,1.75,0,0,0-.823-1.484l-12.177-7.6a1.883,1.883,0,0,0-.936-.271H56.392a1.883,1.883,0,0,0-.936.271l-12.177,7.6a1.75,1.75,0,0,0-.823,1.484v11.056A1.75,1.75,0,0,0,44.206,112.122ZM64,98.27l-3.924-4.812h7.847Zm-7.99-4.261,5.261,6.453L57.5,102.376,55.3,94.454Zm15.98,0,.713.445L70.5,102.376l-3.767-1.914Zm-26.034,6.277,6.246-3.9,2.5,8.987a1.761,1.761,0,0,0,2.478,1.091L64,103l6.816,3.462a1.762,1.762,0,0,0,2.478-1.091l2.5-8.987,6.246,3.9v8.336H45.956Z"/><path d="M64,87.275a9.9,9.9,0,0,0,9.894-9.893V73.456a9.894,9.894,0,0,0-19.788,0v3.926A9.9,9.9,0,0,0,64,87.275ZM57.606,73.456a6.394,6.394,0,0,1,12.788,0v3.926a6.394,6.394,0,0,1-12.788,0Z"/><path d="M36,42.625h82.25a1.75,1.75,0,0,0,0-3.5H36a1.75,1.75,0,0,0,0,3.5Z"/><path d="M36,50.813h82.25a1.75,1.75,0,0,0,0-3.5H36a1.75,1.75,0,0,0,0,3.5Z"/><path d="M118.25,55.688H100a1.75,1.75,0,0,0,0,3.5h18.25a1.75,1.75,0,0,0,0-3.5Z"/><path d="M118.25,65.822H100a1.75,1.75,0,0,0,0,3.5h18.25a1.75,1.75,0,0,0,0-3.5Z"/><path d="M118.25,75.958H100a1.75,1.75,0,0,0,0,3.5h18.25a1.75,1.75,0,0,0,0-3.5Z"/><path d="M118.25,86.092H100a1.75,1.75,0,0,0,0,3.5h18.25a1.75,1.75,0,0,0,0-3.5Z"/><path d="M118.25,96.227H100a1.75,1.75,0,0,0,0,3.5h18.25a1.75,1.75,0,0,0,0-3.5Z"/><path d="M118.25,106.362H100a1.75,1.75,0,0,0,0,3.5h18.25a1.75,1.75,0,0,0,0-3.5Z"/><path d="M115.875,116.5H100a1.75,1.75,0,0,0,0,3.5h15.875a1.75,1.75,0,0,0,0-3.5Z"/></g></svg>
