<?xml version="1.0" encoding="UTF-8"?>
<svg xmlns="http://www.w3.org/2000/svg" width="512" height="512" viewBox="0 0 128 128"><g><path d="M44.251,54.212A19.257,19.257,0,0,0,63.487,34.976v-8.43a19.236,19.236,0,1,0-38.471,0v8.43A19.257,19.257,0,0,0,44.251,54.212ZM28.516,26.546a15.736,15.736,0,1,1,31.471,0v8.43a15.736,15.736,0,1,1-31.471,0Z"/><path d="M121.883,0h-9.012a6.124,6.124,0,0,0-6.117,6.117v8.072a6.118,6.118,0,0,0-8.735,5.529v6.308a7.3,7.3,0,0,0,7.3,7.3h1.439V53.535A10.461,10.461,0,0,1,96.3,63.985H27.915a1.9,1.9,0,0,0-.937.272L.823,80.588A1.749,1.749,0,0,0,0,82.072v44.175A1.75,1.75,0,0,0,1.75,128h85a1.749,1.749,0,0,0,1.75-1.75V93.032a7.809,7.809,0,0,1,7.8-7.8,31.732,31.732,0,0,0,31.7-31.7V6.114A6.124,6.124,0,0,0,121.883,0ZM101.519,26.023V19.715a2.618,2.618,0,0,1,5.235,0,1.75,1.75,0,0,0,3.5,0V6.114A2.62,2.62,0,0,1,112.871,3.5h9.012A2.62,2.62,0,0,1,124.5,6.114V29.819H105.315A3.8,3.8,0,0,1,101.519,26.023ZM46.98,85.2,61.419,67.485h4.76l-6.7,24.057Zm1.14,15.179H40.383l-3.87-8.709,7.738-3.93,7.738,3.93ZM29.027,91.542l-5.8-20.816,4.306-2.689L41.523,85.2ZM56.9,67.485,44.251,83,31.6,67.485ZM3.5,83.043,20.132,72.658l6.1,21.881a1.761,1.761,0,0,0,2.478,1.091l4.681-2.377,4.014,9.034-5.52,22.21H3.5ZM35.488,124.5l5.126-20.622H47.89L53.015,124.5ZM124.5,53.535a28.227,28.227,0,0,1-28.2,28.2A11.314,11.314,0,0,0,85,93.032V124.5H56.621l-5.52-22.21,4.013-9.034L59.8,95.63a1.762,1.762,0,0,0,2.478-1.091l7.538-27.054H96.3a13.965,13.965,0,0,0,13.95-13.95V33.319H124.5Z"/></g></svg>
