<svg height="512" viewBox="0 0 128 128" width="512" xmlns="http://www.w3.org/2000/svg"><g><path d="m92.863 83.25h-5.116v-77.9a5.359 5.359 0 0 0 -5.353-5.35h-58a5.358 5.358 0 0 0 -5.351 5.35v82.5a5.358 5.358 0 0 0 5.357 5.35h27.244v10.548l-8.276-4.7a9.508 9.508 0 0 0 -10.608 15.716l16.171 12.853a1.748 1.748 0 0 0 1.088.38h52.5a1.75 1.75 0 0 0 1.7-1.341l4.688-19.5a1.759 1.759 0 0 0 .048-.409v-7.403a16.113 16.113 0 0 0 -16.092-16.094zm-70.32 4.595v-82.495a1.855 1.855 0 0 1 1.857-1.85h58a1.855 1.855 0 0 1 1.847 1.85v77.9h-11.585v-4.463h5.571a1.75 1.75 0 0 0 1.75-1.75v-67.526a1.75 1.75 0 0 0 -1.75-1.75h-49.676a1.749 1.749 0 0 0 -1.75 1.75v67.526a1.749 1.749 0 0 0 1.75 1.75h7.443a8.9 8.9 0 0 0 0 10.913h-11.6a1.854 1.854 0 0 1 -1.857-1.855zm40.892-26.259a9.778 9.778 0 0 0 -1.282-.086 10.589 10.589 0 0 0 -9.379 5.787h-14.467v-8.1h30.175v4.426a10.5 10.5 0 0 0 -5.047-2.027zm-33.128 13.7v-64.025h46.176v64.026h-3.821v-3.278a10.43 10.43 0 0 0 -.68-3.683v-10.888a1.749 1.749 0 0 0 -1.75-1.75h-33.675a1.749 1.749 0 0 0 -1.75 1.75v11.6a1.749 1.749 0 0 0 1.75 1.75h15.165a10.462 10.462 0 0 0 -.078 1.221v3.278h-21.337zm12.776 14.414a5.455 5.455 0 0 1 0-10.91h8.561v3.7h-8.471a1.75 1.75 0 0 0 0 3.5h8.471v3.7zm62.374 16.846-4.316 17.954h-50.511l-15.693-12.477a6.008 6.008 0 0 1 6.7-9.928l10.89 6.177a1.761 1.761 0 0 0 2.613-1.522v-34.741a7.009 7.009 0 0 1 14.018 0v12.991a1.749 1.749 0 0 0 1.75 1.75h21.955a12.607 12.607 0 0 1 12.594 12.594z"/><path d="m50.376 44.445h.011a1.747 1.747 0 0 0 1.3-.592l13.413-15.204a1.748 1.748 0 0 0 -.156-2.469l-4.126-3.639a1.75 1.75 0 0 0 -2.47.155l-8.036 9.113-1.922-2.127a1.757 1.757 0 0 0 -1.211-.575 1.777 1.777 0 0 0 -1.261.451l-4.082 3.69a1.752 1.752 0 0 0 -.124 2.472l7.37 8.149a1.749 1.749 0 0 0 1.294.576zm-3.413-11.118 2.063 2.282a1.747 1.747 0 0 0 1.3.576h.011a1.747 1.747 0 0 0 1.3-.592l8.175-9.27 1.5 1.324-10.953 12.421-4.881-5.4z"/><path d="m53.394 52.563a19.289 19.289 0 1 0 -19.288-19.289 19.311 19.311 0 0 0 19.288 19.289zm0-35.077a15.789 15.789 0 1 1 -15.788 15.788 15.805 15.805 0 0 1 15.788-15.788z"/></g></svg>