<svg height="512" viewBox="0 0 128 128" width="512" xmlns="http://www.w3.org/2000/svg"><g><path d="m68.111.074a1.759 1.759 0 0 0 -1.861 1.747v60.452a1.75 1.75 0 0 0 .513 1.237l42.744 42.743a1.76 1.76 0 0 0 2.551-.081 63.973 63.973 0 0 0 -43.947-106.098zm42.531 102.365-40.892-40.892v-57.833a60.473 60.473 0 0 1 40.892 98.725z"/><path d="m61.75 64.861v-63.04a1.76 1.76 0 0 0 -1.861-1.747 63.993 63.993 0 1 0 46.354 111.913 1.76 1.76 0 0 0 .081-2.551zm2.25 59.568a60.494 60.494 0 0 1 -5.75-120.715v61.872a1.75 1.75 0 0 0 .513 1.237l43.747 43.748a60.423 60.423 0 0 1 -38.51 13.858z"/><path d="m76.386 9.319a1.762 1.762 0 0 0 -2.136 1.707v47.932a1.751 1.751 0 0 0 .513 1.238l33.888 33.888a1.761 1.761 0 0 0 2.717-.3 55.98 55.98 0 0 0 -34.982-84.465zm33.158 80.708-31.794-31.794v-44.968a52.885 52.885 0 0 1 38.75 50.664 52.352 52.352 0 0 1 -6.956 26.098z"/><path d="m53.75 11.026a1.762 1.762 0 0 0 -2.136-1.707 56 56 0 1 0 42.238 101.981 1.761 1.761 0 0 0 .3-2.717l-40.4-40.4zm36.35 98.447a52.487 52.487 0 0 1 -78.6-45.544 52.885 52.885 0 0 1 38.75-50.664v55.635a1.751 1.751 0 0 0 .513 1.238z"/></g></svg>