<?xml version="1.0" encoding="UTF-8"?>
<svg xmlns="http://www.w3.org/2000/svg" width="512" height="512" viewBox="0 0 128 128"><g><path d="M35.641,29.956V41.188a28.359,28.359,0,1,0,56.718,0V29.956l5.55-7.788a1.749,1.749,0,0,0-.253-2.315C96.758,19.042,75.516,0,64,0S31.242,19.042,30.344,19.853a1.749,1.749,0,0,0-.253,2.315Zm53.218,1.191V38.4H39.141V31.147ZM64,66.047A24.891,24.891,0,0,1,39.15,41.9h49.7A24.891,24.891,0,0,1,64,66.047ZM64,3.5c7.94,0,23.459,12.093,30.145,17.922l-4.437,6.228H68.988l3.605-2.884A1.747,1.747,0,0,0,73.25,23.4V15.572a1.749,1.749,0,0,0-1.75-1.75h-15a1.749,1.749,0,0,0-1.75,1.75V23.4a1.747,1.747,0,0,0,.657,1.366l3.605,2.884H38.292l-4.438-6.228C40.541,15.59,56.06,3.5,64,3.5Zm0,23.658-5.75-4.6V17.322h11.5v5.234Z"/><path d="M119.618,98.218C110,92.209,95.469,83.139,85.949,77.195a2.155,2.155,0,0,0-.927-.265H42.977a2.151,2.151,0,0,0-.926.265c-9.484,5.921-24.089,15.04-33.669,21.023A1.749,1.749,0,0,0,7.559,99.7V126.25A1.749,1.749,0,0,0,9.309,128H118.691a1.749,1.749,0,0,0,1.75-1.75V99.7A1.749,1.749,0,0,0,119.618,98.218Zm-2.677,12.109-10.5-6.623A5.222,5.222,0,0,1,104,99.265V92.589l12.946,8.084Zm-49.928-12.3L85.239,80.879l6.328,3.951-7.543,21.84ZM55.523,124.5l5.528-10.372h5.9L72.477,124.5Zm11.7-13.872H60.773l-5.326-5.854L64,100.428l8.553,4.343ZM43.976,106.67,36.433,84.83l6.328-3.951L60.987,98.032ZM80.609,80.43,64,96.061,47.391,80.43Zm-56.6,12.159v6.676a5.222,5.222,0,0,1-2.448,4.439l-10.5,6.623v-9.654ZM11.059,114.466l12.365-7.8a8.706,8.706,0,0,0,4.081-7.4V90.4l5.881-3.672,7.937,22.979a1.761,1.761,0,0,0,2.446.989l8.442-4.286,5.665,6.226-6.32,11.86h-40.5ZM76.444,124.5l-6.32-11.86,5.665-6.226L84.23,110.7a1.762,1.762,0,0,0,2.447-.989l7.937-22.979L100.5,90.4v8.861a8.7,8.7,0,0,0,4.081,7.4l12.365,7.8V124.5Z"/></g></svg>
