<svg height="512" viewBox="0 0 128 128" width="512" xmlns="http://www.w3.org/2000/svg"><g><path d="m119.618 98.218-33.669-21.023a2.155 2.155 0 0 0 -.927-.265h-42.045a2.151 2.151 0 0 0 -.926.265l-33.669 21.023a1.749 1.749 0 0 0 -.823 1.482v26.55a1.749 1.749 0 0 0 1.75 1.75h109.382a1.749 1.749 0 0 0 1.75-1.75v-26.55a1.749 1.749 0 0 0 -.823-1.482zm-20.251 11.931-5.625-.21a1.763 1.763 0 0 0 -1.765 2.165l3.042 12.396h-13.449l13.044-37.768 3.959 2.468zm-22.923 14.351-6.32-11.86 5.665-6.226 7.082 3.6-5 14.49zm-26.31 0-5.005-14.49 7.082-3.6 5.665 6.226-6.32 11.86zm-14.454-13.918a1.749 1.749 0 0 0 -1.422-.643l-5.625.21.794-20.949 3.959-2.472 13.044 37.772h-13.449l3.041-12.4a1.751 1.751 0 0 0 -.342-1.518zm48.344-3.912-17.011-8.638 18.226-17.153 6.328 3.951zm-22.973 7.455h5.9l5.526 10.375h-16.954zm6.176-3.5h-6.454l-5.326-5.854 8.553-4.343 8.553 4.343zm-23.251-3.955-7.543-21.84 6.328-3.951 18.226 17.153zm36.633-26.24-16.609 15.631-16.609-15.631zm-69.55 20.243 14.78-9.229-.776 20.456a1.763 1.763 0 0 0 1.815 1.816l5.193-.2-2.694 10.984h-18.318zm105.882 23.827h-18.318l-2.694-10.977 5.193.2a1.763 1.763 0 0 0 1.814-1.816l-.775-20.458 14.78 9.229z"/><path d="m64 69.547a28.393 28.393 0 0 0 28.36-28.361v-12.829a28.36 28.36 0 0 0 -56.72 0v12.829a28.393 28.393 0 0 0 28.36 28.361zm-24.86-41.19a24.86 24.86 0 0 1 49.72 0v12.829a24.86 24.86 0 1 1 -49.72 0z"/></g></svg>