<?xml version="1.0" encoding="UTF-8"?>
<svg xmlns="http://www.w3.org/2000/svg" width="512" height="512" viewBox="0 0 128 128"><g><path d="M11.733,67.392H55.389a1.751,1.751,0,0,0,1.75-1.75V53.45a1.75,1.75,0,0,0-.823-1.484L42.887,43.581a1.882,1.882,0,0,0-.935-.271H25.171a1.879,1.879,0,0,0-.935.271L10.807,51.966a1.749,1.749,0,0,0-.824,1.484V65.642A1.751,1.751,0,0,0,11.733,67.392ZM33.561,52.581l-4.7-5.771h9.411Zm-8.772-5.22,6.044,7.413-4.55,2.31-2.529-9.077Zm17.544,0,1.035.646-2.529,9.077-4.549-2.31ZM13.483,54.42l7.177-4.48,2.825,10.142a1.761,1.761,0,0,0,2.478,1.09l7.6-3.858,7.6,3.858a1.76,1.76,0,0,0,2.478-1.09L46.463,49.94l7.176,4.48v9.472H13.483Z"/><path d="M33.561,39.993a10.743,10.743,0,0,0,10.731-10.73v-4.33a10.731,10.731,0,0,0-21.461,0v4.33A10.743,10.743,0,0,0,33.561,39.993Zm-7.23-15.06a7.231,7.231,0,0,1,14.461,0v4.33a7.231,7.231,0,0,1-14.461,0Z"/><path d="M72.611,53.186h43.656a1.751,1.751,0,0,0,1.75-1.75V39.244a1.749,1.749,0,0,0-.824-1.484l-13.429-8.385a1.859,1.859,0,0,0-.935-.271H86.048a1.882,1.882,0,0,0-.935.271L71.684,37.76a1.75,1.75,0,0,0-.823,1.484V51.436A1.751,1.751,0,0,0,72.611,53.186ZM94.439,38.375,89.733,32.6h9.411Zm-8.772-5.22,6.043,7.413-4.549,2.31L84.632,33.8Zm17.544,0,1.034.646-2.528,9.077-4.55-2.31Zm-28.85,7.059,7.176-4.48,2.826,10.142a1.76,1.76,0,0,0,2.478,1.09l7.6-3.858,7.6,3.858a1.761,1.761,0,0,0,2.478-1.09l2.825-10.142,7.177,4.48v9.472H74.361Z"/><path d="M94.439,25.787a10.743,10.743,0,0,0,10.73-10.73v-4.33a10.731,10.731,0,0,0-21.461,0v4.33A10.743,10.743,0,0,0,94.439,25.787Zm-7.231-15.06a7.231,7.231,0,0,1,14.461,0v4.33a7.231,7.231,0,0,1-14.461,0Z"/><path d="M127.487,117.513l-4-4A1.75,1.75,0,0,0,122.25,113H111.063V64.436a6.757,6.757,0,0,0-6.75-6.75H84.564a6.757,6.757,0,0,0-6.75,6.75V113H50.186V78.642a6.757,6.757,0,0,0-6.75-6.75H23.686a6.758,6.758,0,0,0-6.75,6.75V113H5.75a1.75,1.75,0,0,0-1.237.513l-4,4A1.75,1.75,0,0,0,0,118.75v7.5A1.751,1.751,0,0,0,1.75,128h124.5a1.751,1.751,0,0,0,1.75-1.75v-7.5A1.75,1.75,0,0,0,127.487,117.513ZM81.314,64.436a3.253,3.253,0,0,1,3.25-3.25h19.749a3.254,3.254,0,0,1,3.25,3.25V113H81.314ZM20.436,78.642a3.254,3.254,0,0,1,3.25-3.25h19.75a3.253,3.253,0,0,1,3.25,3.25V113H20.436ZM124.5,124.5H3.5v-5.022L6.475,116.5h115.05l2.975,2.975Z"/><path d="M40.436,79.892H26.686a1.751,1.751,0,0,0-1.75,1.75V106.75a1.751,1.751,0,0,0,1.75,1.75h13.75a1.75,1.75,0,0,0,1.75-1.75V81.642A1.75,1.75,0,0,0,40.436,79.892ZM38.686,105H28.436V83.392h10.25Z"/><path d="M101.313,65.686H87.564a1.75,1.75,0,0,0-1.75,1.75V106.75a1.75,1.75,0,0,0,1.75,1.75h13.749a1.75,1.75,0,0,0,1.75-1.75V67.436A1.75,1.75,0,0,0,101.313,65.686ZM99.564,105H89.314V69.186h10.25Z"/></g></svg>
