<?xml version="1.0" encoding="UTF-8"?>
<svg xmlns="http://www.w3.org/2000/svg" width="512" height="512" viewBox="0 0 128 128"><g><path d="M34.377,0H15.255A6.447,6.447,0,0,0,8.816,6.435v4.858a6.214,6.214,0,0,0-3.256-.577A6.31,6.31,0,0,0,0,17.035v11.34a7.759,7.759,0,0,0,7.75,7.75H9.941v18.25h-3.5a1.75,1.75,0,0,0-1.75,1.75v70.122A1.75,1.75,0,0,0,6.441,128H39.066a1.749,1.749,0,0,0,1.75-1.75V56.125a1.749,1.749,0,0,0-1.75-1.75H35.191V39.243a15.157,15.157,0,0,0,5.625-11.77V6.435A6.446,6.446,0,0,0,34.377,0Zm2.939,124.5H8.191V57.875H37.316Zm0-97.024a11.651,11.651,0,0,1-4.889,9.476,1.752,1.752,0,0,0-.736,1.426v16H13.441v-20a1.749,1.749,0,0,0-1.75-1.75H7.75a4.254,4.254,0,0,1-4.25-4.25V17.035A2.785,2.785,0,0,1,5.892,14.2a2.659,2.659,0,0,1,2.924,2.646v8.027a1.75,1.75,0,0,0,3.5,0V6.435A2.942,2.942,0,0,1,15.255,3.5h3.4V13.75a1.75,1.75,0,0,0,3.5,0V3.5h5.313V13.75a1.75,1.75,0,1,0,3.5,0V3.5h3.406a2.942,2.942,0,0,1,2.939,2.938Z"/><path d="M128,27.473V6.435A6.447,6.447,0,0,0,121.56,0H102.439A6.447,6.447,0,0,0,96,6.435v4.858a6.216,6.216,0,0,0-3.257-.577,6.31,6.31,0,0,0-5.559,6.319v11.34a7.759,7.759,0,0,0,7.75,7.75h2.191v18.25H96.5a1.749,1.749,0,0,0-1.75,1.75v5.931H93.625a1.749,1.749,0,0,0-1.75,1.75v62.441a1.749,1.749,0,0,0,1.75,1.75H126.25a1.749,1.749,0,0,0,1.75-1.75V63.806a1.749,1.749,0,0,0-1.75-1.75h-1.125V56.125a1.749,1.749,0,0,0-1.75-1.75h-1V39.243A15.157,15.157,0,0,0,128,27.473ZM124.5,124.5H95.375V65.556H124.5ZM98.25,62.056V57.875h23.375v4.181Zm2.375-7.681v-20a1.749,1.749,0,0,0-1.75-1.75H94.934a4.254,4.254,0,0,1-4.25-4.25V17.035A2.784,2.784,0,0,1,93.075,14.2,2.66,2.66,0,0,1,96,16.846v8.027a1.75,1.75,0,1,0,3.5,0V6.435A2.942,2.942,0,0,1,102.439,3.5h3.4V13.75a1.75,1.75,0,0,0,3.5,0V3.5h5.312V13.75a1.75,1.75,0,0,0,3.5,0V3.5h3.406a2.942,2.942,0,0,1,2.94,2.938V27.473a11.648,11.648,0,0,1-4.89,9.476,1.751,1.751,0,0,0-.735,1.426v16Z"/><path d="M81.382,30.716a6.212,6.212,0,0,0-3.257.577V26.435A6.447,6.447,0,0,0,71.685,20H52.564a6.447,6.447,0,0,0-6.439,6.438V47.473a15.157,15.157,0,0,0,5.625,11.77V74.375H47.875a1.749,1.749,0,0,0-1.75,1.75v50.122a1.749,1.749,0,0,0,1.75,1.75H80.5a1.749,1.749,0,0,0,1.75-1.75V76.125a1.749,1.749,0,0,0-1.75-1.75H77V56.125h2.191a7.759,7.759,0,0,0,7.75-7.75V37.035A6.31,6.31,0,0,0,81.382,30.716ZM78.75,124.5H49.625V77.875H78.75Zm4.691-76.122a4.254,4.254,0,0,1-4.25,4.25H75.25a1.749,1.749,0,0,0-1.75,1.75v20H55.25v-16a1.751,1.751,0,0,0-.735-1.426,11.648,11.648,0,0,1-4.89-9.476V26.435A2.942,2.942,0,0,1,52.564,23.5h3.407V33.75a1.75,1.75,0,0,0,3.5,0V23.5h5.312V33.75a1.75,1.75,0,0,0,3.5,0V23.5h3.4a2.942,2.942,0,0,1,2.94,2.938V44.873a1.75,1.75,0,0,0,3.5,0V36.846A2.66,2.66,0,0,1,81.05,34.2a2.784,2.784,0,0,1,2.391,2.835Z"/><path d="M59.281,83.438a5.969,5.969,0,1,0,5.969,5.968A5.975,5.975,0,0,0,59.281,83.438Zm0,8.437a2.469,2.469,0,1,1,2.469-2.469A2.472,2.472,0,0,1,59.281,91.875Z"/><path d="M59.281,97.8a5.969,5.969,0,1,0,5.969,5.969A5.976,5.976,0,0,0,59.281,97.8Zm0,8.437a2.469,2.469,0,1,1,2.469-2.468A2.471,2.471,0,0,1,59.281,106.233Z"/></g></svg>
