<?xml version="1.0" encoding="UTF-8"?>
<svg xmlns="http://www.w3.org/2000/svg" width="512" height="512" viewBox="0 0 128 128"><g><path d="M38.04,49.789,27.164,43a1.847,1.847,0,0,0-.937-.271H12.635A1.873,1.873,0,0,0,11.7,43L.823,49.789A1.749,1.749,0,0,0,0,51.273v9.876A1.75,1.75,0,0,0,1.75,62.9H37.113a1.75,1.75,0,0,0,1.75-1.75V51.273A1.749,1.749,0,0,0,38.04,49.789ZM11.875,47.015l.378-.236,4.45,5.457-2.956,1.5-1.873-6.721Zm14.734-.236.379.237-1.873,6.721-2.955-1.5Zm-4.066-.551-3.112,3.816-3.112-3.816ZM35.363,59.4H3.5V52.244l5.279-3.3,2.17,7.786a1.761,1.761,0,0,0,2.478,1.091l6-3.049,6,3.049a1.761,1.761,0,0,0,2.478-1.091l2.17-7.786,5.28,3.3Z"/><path d="M19.431,40.705a9.035,9.035,0,0,0,9.025-9.024V28.174a9.025,9.025,0,1,0-18.049,0v3.507A9.035,9.035,0,0,0,19.431,40.705ZM13.907,28.174a5.525,5.525,0,1,1,11.049,0v3.507a5.525,5.525,0,0,1-11.049,0Z"/><path d="M38.04,96.536l-10.876-6.79a1.856,1.856,0,0,0-.937-.271H12.635a1.893,1.893,0,0,0-.936.271L.823,96.536A1.75,1.75,0,0,0,0,98.021V107.9a1.751,1.751,0,0,0,1.75,1.75H37.113a1.751,1.751,0,0,0,1.75-1.75V98.021A1.75,1.75,0,0,0,38.04,96.536ZM11.875,93.762l.378-.236,4.45,5.457-2.956,1.5-1.873-6.721Zm14.734-.236.379.237-1.873,6.721-2.955-1.5Zm-4.066-.551-3.112,3.816-3.112-3.816Zm12.82,13.172H3.5V98.991l5.279-3.3,2.17,7.786a1.761,1.761,0,0,0,2.478,1.091l6-3.049,6,3.049a1.761,1.761,0,0,0,2.478-1.091l2.17-7.786,5.28,3.3Z"/><path d="M19.431,87.452a9.035,9.035,0,0,0,9.025-9.024V74.921a9.025,9.025,0,0,0-18.049,0v3.507A9.035,9.035,0,0,0,19.431,87.452ZM13.907,74.921a5.525,5.525,0,0,1,11.049,0v3.507a5.525,5.525,0,0,1-11.049,0Z"/><path d="M126.25,39.711H46.813a1.749,1.749,0,0,0-1.75,1.75V61.149a1.749,1.749,0,0,0,1.75,1.75H126.25a1.75,1.75,0,0,0,1.75-1.75V41.461A1.75,1.75,0,0,0,126.25,39.711ZM48.563,59.4V43.211h54.875V59.4Zm75.937,0H106.938V43.211H124.5Z"/><path d="M48.087,28.983l-.12,4.364a1.762,1.762,0,0,0,2.336,1.7l4.113-1.462,4.112,1.462a1.761,1.761,0,0,0,2.336-1.7l-.119-4.364,2.661-3.46a1.75,1.75,0,0,0-.892-2.746l-4.187-1.234-2.468-3.6a1.75,1.75,0,0,0-2.886,0l-2.469,3.6-4.186,1.234a1.75,1.75,0,0,0-.893,2.746Zm4-4.258a1.76,1.76,0,0,0,.949-.69l1.376-2.008,1.376,2.008a1.76,1.76,0,0,0,.949.69l2.334.688-1.484,1.929a1.753,1.753,0,0,0-.362,1.115l.066,2.434L55,30.075a1.746,1.746,0,0,0-1.172,0l-2.293.816.067-2.434a1.759,1.759,0,0,0-.363-1.115l-1.485-1.929Z"/><path d="M69.672,28.983l-.12,4.364a1.762,1.762,0,0,0,2.336,1.7L76,33.581l4.112,1.462a1.762,1.762,0,0,0,2.336-1.7l-.12-4.364,2.662-3.46a1.75,1.75,0,0,0-.892-2.746l-4.187-1.234-2.468-3.6a1.815,1.815,0,0,0-2.887,0l-2.468,3.6L67.9,22.777a1.75,1.75,0,0,0-.892,2.746Zm4-4.258a1.754,1.754,0,0,0,.948-.69L76,22.027l1.376,2.008a1.754,1.754,0,0,0,.948.69l2.335.688-1.485,1.929a1.753,1.753,0,0,0-.362,1.115l.067,2.434-2.293-.816a1.749,1.749,0,0,0-1.173,0l-2.293.816.067-2.434a1.753,1.753,0,0,0-.362-1.115l-1.485-1.929Z"/><path d="M91.256,28.983l-.119,4.364a1.761,1.761,0,0,0,2.336,1.7l4.112-1.462,4.113,1.462a1.762,1.762,0,0,0,2.336-1.7l-.12-4.364,2.662-3.46a1.75,1.75,0,0,0-.893-2.746L101.5,21.543l-2.469-3.6a1.814,1.814,0,0,0-2.886,0l-2.468,3.6-4.187,1.234a1.75,1.75,0,0,0-.892,2.746Zm4-4.258a1.76,1.76,0,0,0,.949-.69l1.376-2.008,1.376,2.008a1.76,1.76,0,0,0,.949.69l2.335.688-1.485,1.929a1.759,1.759,0,0,0-.363,1.115l.067,2.434-2.293-.816a1.749,1.749,0,0,0-1.173,0l-2.292.816.067-2.434a1.759,1.759,0,0,0-.363-1.115l-1.484-1.929Z"/><path d="M126.25,87.629H46.813a1.749,1.749,0,0,0-1.75,1.75v19.689a1.749,1.749,0,0,0,1.75,1.75H126.25a1.75,1.75,0,0,0,1.75-1.75V89.379A1.75,1.75,0,0,0,126.25,87.629ZM48.563,107.318V91.129h31.75v16.189Zm75.937,0H83.813V91.129H124.5Z"/><path d="M63.684,71.833a1.753,1.753,0,0,0-1.17-1.138l-4.187-1.234-2.468-3.6a1.75,1.75,0,0,0-2.886,0l-2.469,3.6-4.186,1.234a1.75,1.75,0,0,0-.893,2.746l2.662,3.46-.12,4.364a1.762,1.762,0,0,0,2.336,1.7L54.416,81.5l4.112,1.462a1.749,1.749,0,0,0,2.336-1.7L60.745,76.9l2.661-3.46A1.751,1.751,0,0,0,63.684,71.833ZM57.591,75.26a1.753,1.753,0,0,0-.362,1.115l.066,2.434L55,77.993a1.746,1.746,0,0,0-1.172,0l-2.293.816.067-2.434a1.759,1.759,0,0,0-.363-1.115l-1.485-1.929,2.335-.688a1.76,1.76,0,0,0,.949-.69l1.376-2.008,1.376,2.008a1.76,1.76,0,0,0,.949.69l2.334.688Z"/><path d="M85.269,71.833a1.753,1.753,0,0,0-1.17-1.138l-4.187-1.234-2.468-3.6a1.815,1.815,0,0,0-2.887,0l-2.468,3.6L67.9,70.695a1.75,1.75,0,0,0-.892,2.746l2.662,3.46-.12,4.364a1.762,1.762,0,0,0,2.336,1.7L76,81.5l4.112,1.462a1.762,1.762,0,0,0,2.336-1.7l-.12-4.364,2.662-3.46A1.751,1.751,0,0,0,85.269,71.833ZM79.175,75.26a1.753,1.753,0,0,0-.362,1.115l.067,2.434-2.293-.816a1.749,1.749,0,0,0-1.173,0l-2.293.816.067-2.434a1.753,1.753,0,0,0-.362-1.115l-1.485-1.929,2.335-.688a1.754,1.754,0,0,0,.948-.69L76,69.946l1.376,2.007a1.754,1.754,0,0,0,.948.69l2.335.688Z"/></g></svg>
