<svg height="512" viewBox="0 0 128 128" width="512" xmlns="http://www.w3.org/2000/svg"><g><path d="m39.338 59.638h49.324a1.75 1.75 0 0 0 1.75-1.75v-13.776a1.75 1.75 0 0 0 -.823-1.484l-15.174-9.474a1.883 1.883 0 0 0 -.936-.271h-18.959a1.882 1.882 0 0 0 -.935.271l-15.174 9.474a1.75 1.75 0 0 0 -.823 1.484v13.776a1.75 1.75 0 0 0 1.75 1.75zm24.662-16.148-5.8-7.107h11.6zm-9.861-6.556 7.132 8.749-5.638 2.863-2.978-10.685zm19.722 0 1.484.927-2.978 10.685-5.638-2.863zm-32.773 8.149 8.473-5.29 3.274 11.751a1.761 1.761 0 0 0 2.477 1.091l8.688-4.412 8.687 4.412a1.761 1.761 0 0 0 2.478-1.091l3.274-11.751 8.473 5.29v11.055h-45.824z"/><path d="m64 28.681a11.909 11.909 0 0 0 11.9-11.9v-4.888a11.9 11.9 0 0 0 -23.793 0v4.892a11.91 11.91 0 0 0 11.893 11.896zm-8.4-16.788a8.4 8.4 0 0 1 16.793 0v4.892a8.4 8.4 0 0 1 -16.793 0z"/><path d="m35.784 96.538a1.75 1.75 0 0 0 .721-1.464l-.278-10.108 6.166-8.013a1.751 1.751 0 0 0 -.892-2.746l-9.7-2.858-5.717-8.341a1.75 1.75 0 0 0 -2.887 0l-5.716 8.341-9.7 2.858a1.75 1.75 0 0 0 -.891 2.746l6.166 8.014-.278 10.107a1.762 1.762 0 0 0 2.335 1.7l9.527-3.388 9.527 3.388a1.747 1.747 0 0 0 1.617-.236zm-2.848-3.92-7.708-2.741a1.744 1.744 0 0 0 -1.171 0l-7.707 2.741.224-8.178a1.743 1.743 0 0 0 -.362-1.115l-4.988-6.483 7.846-2.312a1.755 1.755 0 0 0 .949-.69l4.624-6.747 4.625 6.747a1.749 1.749 0 0 0 .948.69l7.845 2.312-4.987 6.484a1.738 1.738 0 0 0 -.362 1.114z"/><path d="m74.113 96.872a1.76 1.76 0 0 0 1.749-1.8l-.277-10.108 6.165-8.013a1.751 1.751 0 0 0 -.892-2.746l-9.7-2.858-5.716-8.341a1.749 1.749 0 0 0 -2.886 0l-5.716 8.343-9.7 2.858a1.751 1.751 0 0 0 -.892 2.746l6.165 8.013-.277 10.108a1.761 1.761 0 0 0 2.335 1.7l9.529-3.391 9.527 3.388a1.745 1.745 0 0 0 .586.101zm-1.819-4.254-7.708-2.741a1.746 1.746 0 0 0 -1.172 0l-7.708 2.741.225-8.178a1.745 1.745 0 0 0 -.363-1.114l-4.987-6.484 7.846-2.312a1.756 1.756 0 0 0 .948-.69l4.625-6.747 4.624 6.747a1.753 1.753 0 0 0 .948.69l7.847 2.312-4.987 6.484a1.739 1.739 0 0 0 -.363 1.114z"/><path d="m121.385 75.345a1.749 1.749 0 0 0 -1.169-1.138l-9.7-2.858-5.716-8.341a1.75 1.75 0 0 0 -2.887 0l-5.713 8.341-9.7 2.858a1.751 1.751 0 0 0 -.892 2.746l6.165 8.013-.273 10.108a1.761 1.761 0 0 0 2.335 1.7l9.527-3.388 9.527 3.388a1.762 1.762 0 0 0 2.335-1.7l-.278-10.107 6.166-8.014a1.748 1.748 0 0 0 .273-1.608zm-9.6 7.98a1.743 1.743 0 0 0 -.362 1.115l.224 8.178-7.707-2.741a1.746 1.746 0 0 0 -1.172 0l-7.708 2.741.225-8.178a1.738 1.738 0 0 0 -.362-1.114l-4.988-6.484 7.846-2.312a1.749 1.749 0 0 0 .948-.69l4.625-6.747 4.624 6.747a1.755 1.755 0 0 0 .949.69l7.846 2.312z"/><path d="m61.18 105.332-9.7-2.858-5.716-8.341a1.75 1.75 0 0 0 -2.887 0l-5.716 8.341-9.7 2.858a1.751 1.751 0 0 0 -.892 2.746l6.166 8.013-.276 10.109a1.762 1.762 0 0 0 2.335 1.7l9.527-3.388 9.528 3.388a1.762 1.762 0 0 0 2.335-1.7l-.278-10.108 6.165-8.013a1.75 1.75 0 0 0 -.891-2.746zm-8.427 9.119a1.738 1.738 0 0 0 -.362 1.114l.224 8.178-7.708-2.743a1.746 1.746 0 0 0 -1.172 0l-7.708 2.741.226-8.177a1.746 1.746 0 0 0 -.362-1.116l-4.991-6.481 7.847-2.312a1.749 1.749 0 0 0 .948-.69l4.624-6.747 4.625 6.747a1.756 1.756 0 0 0 .948.69l7.846 2.312z"/><path d="m100.537 105.332-9.7-2.858-5.716-8.341a1.75 1.75 0 0 0 -2.887 0l-5.716 8.341-9.7 2.858a1.75 1.75 0 0 0 -.891 2.746l6.165 8.013-.276 10.109a1.75 1.75 0 0 0 2.335 1.7l9.528-3.388 9.527 3.388a1.762 1.762 0 0 0 2.335-1.7l-.278-10.108 6.166-8.013a1.751 1.751 0 0 0 -.892-2.746zm-8.428 9.118a1.746 1.746 0 0 0 -.362 1.116l.226 8.177-7.708-2.743a1.746 1.746 0 0 0 -1.172 0l-7.708 2.741.224-8.178a1.738 1.738 0 0 0 -.362-1.114l-4.987-6.484 7.845-2.312a1.755 1.755 0 0 0 .949-.69l4.625-6.747 4.624 6.747a1.749 1.749 0 0 0 .948.69l7.847 2.312z"/></g></svg>