<svg height="512" viewBox="0 0 128 128" width="512" xmlns="http://www.w3.org/2000/svg"><g><path d="m86.763 86.763a46.138 46.138 0 1 0 -65.249-65.249 46.138 46.138 0 0 0 65.249 65.249zm-75.263-32.625a42.639 42.639 0 0 1 72.788-30.15 42.639 42.639 0 0 1 -60.3 60.3 42.36 42.36 0 0 1 -12.488-30.15z"/><path d="m96.311 93.837a1.749 1.749 0 0 0 -2.474 2.474l19.6 19.6a1.75 1.75 0 1 0 2.475-2.474z"/><path d="m124.187 105.782-23.675-23.676a54.147 54.147 0 0 0 -84.655-66.249 54.141 54.141 0 0 0 66.234 84.643l23.691 23.691a13.015 13.015 0 1 0 18.405-18.406zm-105.856-15.837a50.638 50.638 0 0 1 71.614-71.613 50.638 50.638 0 0 1 -71.614 71.613zm103.382 31.768a9.526 9.526 0 0 1 -13.456 0l-23.163-23.163a54.53 54.53 0 0 0 13.457-13.456l23.162 23.163a9.514 9.514 0 0 1 0 13.456z"/><path d="m79.622 79.151v-13.251a1.751 1.751 0 0 0 -.823-1.484l-14.599-9.123a1.878 1.878 0 0 0 -.935-.27h-18.249a1.891 1.891 0 0 0 -.935.27l-14.6 9.118a1.749 1.749 0 0 0 -.823 1.484v13.256a1.749 1.749 0 0 0 1.75 1.75h47.464a1.749 1.749 0 0 0 1.75-1.75zm-25.483-13.959-5.439-6.669h10.876zm-9.505-6.118 6.776 8.311-5.282 2.682-2.828-10.159zm19.009 0 1.336.834-2.83 10.159-5.282-2.682zm12.479 18.326h-43.966v-10.535l8.044-5.024 3.128 11.224a1.761 1.761 0 0 0 2.478 1.09l8.33-4.23 8.33 4.23a1.762 1.762 0 0 0 2.478-1.09l3.127-11.224 8.048 5.024z"/><path d="m54.139 51.11a11.526 11.526 0 0 0 11.513-11.51v-4.711a11.514 11.514 0 1 0 -23.028 0v4.711a11.528 11.528 0 0 0 11.515 11.51zm-8.015-16.221a8.015 8.015 0 0 1 16.029 0v4.711a8.015 8.015 0 0 1 -16.029 0z"/></g></svg>