<?xml version="1.0" encoding="UTF-8"?>
<svg xmlns="http://www.w3.org/2000/svg" width="512" height="512" viewBox="0 0 128 128"><g><path d="M104.25,0H23.75A6.758,6.758,0,0,0,17,6.747v114.5A6.758,6.758,0,0,0,23.75,128h80.5a6.758,6.758,0,0,0,6.75-6.75V6.747A6.758,6.758,0,0,0,104.25,0ZM49.687,124.5a8.25,8.25,0,0,1,0-16.5H78.312a8.25,8.25,0,0,1,0,16.5ZM28.5,104.5v-93h71v93Zm79,16.75a3.254,3.254,0,0,1-3.25,3.25H86.666a11.719,11.719,0,0,0,0-16.5H101.25a1.749,1.749,0,0,0,1.75-1.75V9.747A1.749,1.749,0,0,0,101.25,8H26.75A1.749,1.749,0,0,0,25,9.747v96.5A1.749,1.749,0,0,0,26.75,108H41.334a11.717,11.717,0,0,0,0,16.5H23.75a3.254,3.254,0,0,1-3.25-3.25V6.747A3.254,3.254,0,0,1,23.75,3.5h80.5a3.254,3.254,0,0,1,3.25,3.25Z"/><path d="M79.937,116.247a1.749,1.749,0,0,0-1.75-1.75H49.812a1.75,1.75,0,0,0,0,3.5H78.187A1.749,1.749,0,0,0,79.937,116.247Z"/><path d="M93.677,79.181,75.987,68.136a1.877,1.877,0,0,0-.936-.272h-22.1a1.874,1.874,0,0,0-.936.272L34.323,79.181a1.748,1.748,0,0,0-.823,1.484V96.724a1.75,1.75,0,0,0,1.75,1.75h57.5a1.75,1.75,0,0,0,1.75-1.75V80.665A1.75,1.75,0,0,0,93.677,79.181ZM61.271,82.592l-7.21,3.661L50.437,73.246l2.131-1.331L54.919,74.8ZM73.08,74.8l2.352-2.885,2.131,1.331L73.938,86.253l-7.21-3.661Zm-1.714-3.436L64,80.4l-7.366-9.035ZM91,94.974H37V81.636l10.342-6.458L51.264,89.25a1.76,1.76,0,0,0,2.477,1.091L64,85.132l10.259,5.209a1.76,1.76,0,0,0,2.477-1.091l3.922-14.072L91,81.636Z"/><path d="M64,62.385A13.593,13.593,0,0,0,77.578,48.807v-.639c.131,0,.259.02.391.02A15.719,15.719,0,1,0,62.523,29.611,13.594,13.594,0,0,0,50.422,43.1v5.7A13.593,13.593,0,0,0,64,62.385ZM77.969,20.25A12.219,12.219,0,1,1,65.805,31.389,12.232,12.232,0,0,1,77.969,20.25ZM53.922,43.1a10.1,10.1,0,0,1,8.343-9.943A15.673,15.673,0,0,0,74.078,47.686v1.121a10.078,10.078,0,0,1-20.156,0Z"/><path d="M69.828,34.228l5.031,4.125a1.749,1.749,0,0,0,2.326-.095l8.657-8.375a1.75,1.75,0,0,0-2.434-2.516l-7.536,7.291-3.825-3.136a1.75,1.75,0,1,0-2.219,2.706Z"/></g></svg>
