<?xml version="1.0" encoding="UTF-8"?>
<svg xmlns="http://www.w3.org/2000/svg" width="512" height="512" viewBox="0 0 128 128"><g><path d="M110.647,54.72a1.75,1.75,0,0,0-1.4-.7H99.219v-17.4a1.753,1.753,0,0,0-.377-1.085L95.648,31.5a5.668,5.668,0,0,0-.24-6.758l-1.166-1.475a5.75,5.75,0,0,0-9.025,7.127l1.166,1.476a5.744,5.744,0,0,0,6.529,1.813l2.807,3.552V54.023H89.483V42.518a1.751,1.751,0,0,0-.823-1.485l-14.6-9.117a1.866,1.866,0,0,0-.936-.271H54.877a1.886,1.886,0,0,0-.936.271l-14.6,9.117a1.751,1.751,0,0,0-.823,1.485V54.023H32.281V37.232l2.806-3.552a5.745,5.745,0,0,0,6.53-1.813l1.166-1.476a5.75,5.75,0,0,0-9.025-7.128l-1.166,1.476a5.708,5.708,0,0,0-.24,6.758L29.158,35.54a1.753,1.753,0,0,0-.377,1.085v17.4H18.75a1.751,1.751,0,0,0-1.683,2.231l4,14a1.75,1.75,0,0,0,1.683,1.269H29l3.884,54.848A1.751,1.751,0,0,0,34.625,128h58.75a1.751,1.751,0,0,0,1.746-1.626l3.884-54.848h6.245a1.75,1.75,0,0,0,1.683-1.269l4-14A1.751,1.751,0,0,0,110.647,54.72ZM90.633,30.538a2.231,2.231,0,0,1-1.5-.84h0l-1.167-1.476A2.25,2.25,0,1,1,91.5,25.433l1.167,1.476a2.261,2.261,0,0,1-.373,3.161A2.23,2.23,0,0,1,90.633,30.538ZM35.339,26.909l1.166-1.477a2.25,2.25,0,1,1,3.531,2.789L38.87,29.7h0a2.25,2.25,0,1,1-3.531-2.789ZM54.5,35.7l6.775,8.311L55.99,46.69,53.159,36.531Zm19.008,0,1.337.835L72.01,46.69l-5.281-2.683Zm-4.066-.551L64,41.815l-5.438-6.67ZM42.017,43.488l8.048-5.025,3.127,11.223a1.76,1.76,0,0,0,2.478,1.091L64,46.547l8.33,4.23a1.76,1.76,0,0,0,2.478-1.091l3.127-11.223,8.048,5.025V54.023H42.017ZM91.745,124.5H36.255L32.5,71.523H95.5ZM103.93,68.023H24.07l-3-10.5h85.86Z"/><path d="M64,27.732A11.527,11.527,0,0,0,75.514,16.219V11.511a11.514,11.514,0,1,0-23.028,0v4.708A11.527,11.527,0,0,0,64,27.732ZM55.986,11.511a8.014,8.014,0,1,1,16.028,0v4.708a8.014,8.014,0,0,1-16.028,0Z"/><path d="M50.122,104.547l-.347,12.613a1.761,1.761,0,0,0,2.336,1.7L64,114.629l11.889,4.227a1.762,1.762,0,0,0,2.336-1.7l-.347-12.613,7.695-10A1.75,1.75,0,0,0,84.68,91.8l-12.1-3.569L65.443,77.823a1.814,1.814,0,0,0-2.886,0L55.423,88.231,43.32,91.8a1.75,1.75,0,0,0-.893,2.746Zm6.887-13.134a1.753,1.753,0,0,0,.949-.689L64,81.908l6.042,8.816a1.753,1.753,0,0,0,.949.689l10.251,3.022-6.518,8.47a1.755,1.755,0,0,0-.362,1.116l.294,10.682-10.07-3.58a1.746,1.746,0,0,0-1.172,0l-10.07,3.58.294-10.682a1.755,1.755,0,0,0-.362-1.116l-6.518-8.47Z"/><path d="M58.2,101.923l-.1,3.788a1.761,1.761,0,0,0,2.336,1.7L64,106.138l3.571,1.269a1.762,1.762,0,0,0,2.336-1.7l-.1-3.788,2.311-3a1.762,1.762,0,0,0-.892-2.746L67.586,95.1l-2.143-3.126a1.814,1.814,0,0,0-2.886,0L60.414,95.1l-3.636,1.072a1.762,1.762,0,0,0-.892,2.746ZM62,98.282a1.754,1.754,0,0,0,.948-.689L64,96.06l1.051,1.533a1.754,1.754,0,0,0,.948.689l1.784.526-1.134,1.473a1.755,1.755,0,0,0-.362,1.116l.051,1.857-1.752-.622a1.746,1.746,0,0,0-1.172,0l-1.752.622.051-1.857a1.755,1.755,0,0,0-.362-1.116l-1.134-1.473Z"/></g></svg>
