<svg height="512" viewBox="0 0 128 128" width="512" xmlns="http://www.w3.org/2000/svg"><g><path d="m119.774 47.528-10.689-6.674a1.883 1.883 0 0 0 -.936-.271h-13.361a1.879 1.879 0 0 0 -.935.271l-10.69 6.674a1.751 1.751 0 0 0 -.823 1.485v9.707a1.75 1.75 0 0 0 1.75 1.75h34.758a1.751 1.751 0 0 0 1.75-1.75v-9.707a1.752 1.752 0 0 0 -.824-1.485zm-18.305.229-3-3.674h5.991zm-7.063-3.123 4.334 5.315-2.84 1.442-1.825-6.55zm14.125 0 .331.207-1.825 6.55-2.84-1.442zm8.569 12.336h-31.26v-6.987l5.14-3.21 2.12 7.616a1.762 1.762 0 0 0 2.48 1.091l5.889-2.991 5.888 2.991a1.762 1.762 0 0 0 2.478-1.091l2.122-7.616 5.141 3.21z"/><path d="m101.469 38.655a8.911 8.911 0 0 0 8.9-8.9v-3.447a8.9 8.9 0 0 0 -17.8 0v3.447a8.911 8.911 0 0 0 8.9 8.9zm-5.4-12.347a5.4 5.4 0 0 1 10.8 0v3.447a5.4 5.4 0 0 1 -10.8 0z"/><path d="m116.5 8.408h-30.063a11.513 11.513 0 0 0 -11.5 11.5v25.171a37.979 37.979 0 0 0 -21.875 0v-25.171a11.512 11.512 0 0 0 -11.5-11.5h-30.062a11.513 11.513 0 0 0 -11.5 11.5v38.062a11.513 11.513 0 0 0 11.5 11.5h16.407a38.06 38.06 0 1 0 72.186 0h16.407a11.513 11.513 0 0 0 11.5-11.5v-38.062a11.513 11.513 0 0 0 -11.5-11.5zm-42.209 83.414a14.554 14.554 0 1 1 4.272-10.293 14.461 14.461 0 0 1 -4.274 10.295zm-70.791-33.852v-38.062a8.009 8.009 0 0 1 8-8h30.062a8.009 8.009 0 0 1 8 8v38.062a8.009 8.009 0 0 1 -8 8h-30.062a8.009 8.009 0 0 1 -8-8zm60.5 58.122a34.57 34.57 0 0 1 -32.392-46.622h9.954a11.513 11.513 0 0 0 11.5-11.5v-9.229a34.336 34.336 0 0 1 9.188-1.727v16.54a18.061 18.061 0 1 0 13.22 31.922l11.7 11.7a34.3 34.3 0 0 1 -23.17 8.916zm34.56-34.561a34.312 34.312 0 0 1 -8.915 23.169l-11.701-11.7a17.906 17.906 0 0 0 4.117-11.47 18.086 18.086 0 0 0 -16.311-17.976v-16.54a34.322 34.322 0 0 1 9.187 1.727v9.229a11.514 11.514 0 0 0 11.5 11.5h9.955a34.374 34.374 0 0 1 2.168 12.061zm25.94-23.561a8.009 8.009 0 0 1 -8 8h-30.063a8.009 8.009 0 0 1 -8-8v-38.062a8.009 8.009 0 0 1 8-8h30.063a8.009 8.009 0 0 1 8 8z"/><path d="m45.661 58.72v-9.707a1.75 1.75 0 0 0 -.824-1.485l-10.69-6.674a1.863 1.863 0 0 0 -.936-.271h-13.36a1.872 1.872 0 0 0 -.935.271l-10.691 6.674a1.751 1.751 0 0 0 -.825 1.485v9.707a1.75 1.75 0 0 0 1.75 1.75h34.761a1.751 1.751 0 0 0 1.75-1.75zm-19.13-10.963-2.995-3.674h5.991zm-7.062-3.123 4.331 5.315-2.84 1.442-1.825-6.55zm14.124 0 .331.207-1.824 6.55-2.84-1.442zm8.568 12.336h-31.261v-6.987l5.141-3.21 2.122 7.616a1.763 1.763 0 0 0 2.479 1.091l5.887-2.991 5.888 2.991a1.762 1.762 0 0 0 2.483-1.091l2.122-7.616 5.142 3.21z"/><path d="m26.531 38.655a8.911 8.911 0 0 0 8.9-8.9v-3.447a8.9 8.9 0 0 0 -17.8 0v3.447a8.911 8.911 0 0 0 8.9 8.9zm-5.4-12.347a5.4 5.4 0 0 1 10.8 0v3.447a5.4 5.4 0 0 1 -10.8 0z"/></g></svg>