<?xml version="1.0" encoding="UTF-8"?>
<svg xmlns="http://www.w3.org/2000/svg" width="512" height="512" viewBox="0 0 128 128"><g><path d="M119.623,20.23,84.873.23A2.1,2.1,0,0,0,84,0H44a2.1,2.1,0,0,0-.873.233l-34.75,20A1.749,1.749,0,0,0,7.5,21.747v84.5A1.751,1.751,0,0,0,9.25,108h2.875v7a1.751,1.751,0,0,0,1.75,1.75h12.5v9.5a1.751,1.751,0,0,0,1.75,1.75h71.75a1.751,1.751,0,0,0,1.75-1.75v-9.5h12.5a1.751,1.751,0,0,0,1.75-1.75v-7h2.875a1.751,1.751,0,0,0,1.75-1.75v-84.5A1.751,1.751,0,0,0,119.623,20.23ZM81.489,36.213l5,5.2L67.65,58.358,85,4.344l9.257,5.328L81.206,34.177A1.75,1.75,0,0,0,81.489,36.213Zm-34.7-2.036L33.739,9.672,43,4.344,60.35,58.358,41.515,41.409l5-5.2A1.75,1.75,0,0,0,46.794,34.177Zm25.34-1.219L69.5,27.327l2.453-6,3.176,2.313ZM58.963,19.208,64,15.54l5.037,3.668-2.623,6.417H61.586Zm2.561,9.917h4.952l4.085,8.729L64,58.276,57.439,37.854Zm-5.475-7.8,2.453,6-2.636,5.631-2.993-9.315ZM81.6,3.5,76.254,20.134,66.458,13l7.048-9.5ZM64,10.437,58.852,3.5h10.3ZM54.494,3.5,61.542,13l-9.8,7.135L46.4,3.5ZM15.625,113.25V108h10.75v5.253ZM29.875,48a1.75,1.75,0,0,0-3.5,0v56.5H11V22.759l19.7-11.34L43.108,34.7l-5.369,5.585A1.749,1.749,0,0,0,37.83,42.8L62.25,64.776V124.5H29.875Zm82.5,65.25h-10.75V108h10.75ZM117,104.5H101.625V48a1.75,1.75,0,0,0-3.5,0v76.5H65.75V64.776L90.17,42.8a1.749,1.749,0,0,0,.091-2.514L84.892,34.7,97.3,11.419,117,22.759Z"/><path d="M92.75,97.625H71.125a1.751,1.751,0,0,0-1.75,1.75v7.5a1.751,1.751,0,0,0,1.75,1.75H92.75a1.751,1.751,0,0,0,1.75-1.75v-7.5A1.751,1.751,0,0,0,92.75,97.625Zm-1.75,7.5H72.875v-4H91Z"/><path d="M56.875,97.625H35.25a1.751,1.751,0,0,0-1.75,1.75v7.5a1.751,1.751,0,0,0,1.75,1.75H56.875a1.751,1.751,0,0,0,1.75-1.75v-7.5A1.751,1.751,0,0,0,56.875,97.625Zm-1.75,7.5H37v-4H55.125Z"/><path d="M108.25,80.125a1.751,1.751,0,0,0,1.75-1.75v-7.25a1.75,1.75,0,0,0-3.5,0v7.25A1.751,1.751,0,0,0,108.25,80.125Z"/><path d="M108.25,96.872a1.751,1.751,0,0,0,1.75-1.75v-7.25a1.75,1.75,0,0,0-3.5,0v7.25A1.751,1.751,0,0,0,108.25,96.872Z"/><path d="M19.75,69.375A1.751,1.751,0,0,0,18,71.125v7.25a1.75,1.75,0,0,0,3.5,0v-7.25A1.751,1.751,0,0,0,19.75,69.375Z"/><path d="M19.75,86.122A1.751,1.751,0,0,0,18,87.872v7.25a1.75,1.75,0,0,0,3.5,0v-7.25A1.751,1.751,0,0,0,19.75,86.122Z"/></g></svg>
