<?xml version="1.0" encoding="UTF-8"?>
<svg xmlns="http://www.w3.org/2000/svg" width="512" height="512" viewBox="0 0 128 128"><g><path d="M21.353,98.561a9.825,9.825,0,0,0,9.815-9.814V84.858a9.815,9.815,0,0,0-19.63,0v3.889A9.825,9.825,0,0,0,21.353,98.561Zm-6.315-13.7a6.315,6.315,0,0,1,12.63,0v3.889a6.315,6.315,0,0,1-12.63,0Z"/><path d="M64,95.887A12.968,12.968,0,0,0,76.953,82.935v-5.4a12.953,12.953,0,0,0-25.906,0v5.4A12.968,12.968,0,0,0,64,95.887ZM54.547,77.533a9.453,9.453,0,0,1,18.906,0v5.4a9.453,9.453,0,0,1-18.906,0Z"/><path d="M106.647,98.561a9.825,9.825,0,0,0,9.815-9.814V84.858a9.815,9.815,0,0,0-19.63,0v3.889A9.825,9.825,0,0,0,106.647,98.561Zm-6.315-13.7a6.315,6.315,0,0,1,12.63,0v3.889a6.315,6.315,0,0,1-12.63,0Z"/><path d="M127.177,108.985l-12.068-7.535a1.958,1.958,0,0,0-.927-.265H99.112a1.955,1.955,0,0,0-.927.265l-9.56,5.969L75.394,99.157a1.958,1.958,0,0,0-.927-.265H53.533a1.958,1.958,0,0,0-.927.265l-13.231,8.262-9.56-5.969a1.955,1.955,0,0,0-.927-.265H13.818a1.955,1.955,0,0,0-.927.265L.823,108.985A1.751,1.751,0,0,0,0,110.47v10.949a1.75,1.75,0,0,0,1.75,1.75H35.02v3.148a1.75,1.75,0,0,0,1.75,1.75H91.23a1.75,1.75,0,0,0,1.75-1.75v-3.148h33.27a1.75,1.75,0,0,0,1.75-1.75V110.47A1.751,1.751,0,0,0,127.177,108.985Zm-14.745-4.3a5.785,5.785,0,0,1-11.57,0Zm-39.826-2.293a8.718,8.718,0,0,1-17.212,0Zm-45.468,2.293a5.785,5.785,0,0,1-11.57,0Zm7.882,14.984H3.5V111.44l8.682-5.421a9.272,9.272,0,0,0,18.342,0l5.546,3.462-.228.143a1.751,1.751,0,0,0-.822,1.484Zm54.46,4.9H38.52V112.079l13.552-8.462a12.21,12.21,0,0,0,23.856,0l13.552,8.462Zm35.02-4.9H92.98v-8.561a1.742,1.742,0,0,0-.6-1.3,1.719,1.719,0,0,0-.224-.183l-.228-.143,5.547-3.462a9.272,9.272,0,0,0,18.342,0l8.682,5.421Z"/><path d="M118.25,8H9.75A1.75,1.75,0,0,0,8,9.747V41.241a1.75,1.75,0,0,0,1.75,1.75h108.5a1.75,1.75,0,0,0,1.75-1.75V9.747A1.75,1.75,0,0,0,118.25,8ZM116.5,39.491H11.5V11.5h105Z"/><path d="M42.67,34.991H60.409a1.75,1.75,0,0,0,1.75-1.75V17.747A1.75,1.75,0,0,0,60.409,16H42.67a1.75,1.75,0,0,0-1.75,1.75V33.241A1.75,1.75,0,0,0,42.67,34.991ZM44.42,19.5H58.659V31.491H44.42Z"/><path d="M67.591,19.5H74.71V33.241a1.75,1.75,0,0,0,3.5,0V19.5h7.12a1.75,1.75,0,0,0,0-3.5H67.591a1.75,1.75,0,0,0,0,3.5Z"/><path d="M92.512,34.991H110.25a1.75,1.75,0,0,0,0-3.5H94.262V27.244h11.925a1.75,1.75,0,0,0,0-3.5H94.262V19.5H110.25a1.75,1.75,0,0,0,0-3.5H92.512a1.749,1.749,0,0,0-1.75,1.75V33.241A1.749,1.749,0,0,0,92.512,34.991Z"/><path d="M23.61,34a1.75,1.75,0,0,0,1.578.993h2.863A1.749,1.749,0,0,0,29.628,34L37.066,18.5a1.75,1.75,0,1,0-3.155-1.514l-6.961,14.5h-.661l-6.961-14.5A1.75,1.75,0,1,0,16.172,18.5Z"/><path d="M121.25,0H6.75A6.758,6.758,0,0,0,0,6.747V44.241a6.758,6.758,0,0,0,6.75,6.75h4.13l9.166,10.3a1.806,1.806,0,0,0,2.614,0l9.166-10.3h21.7l9.166,10.3a1.806,1.806,0,0,0,2.614,0l9.166-10.3h21.7l9.166,10.3a1.749,1.749,0,0,0,2.614,0l9.166-10.3h4.13a6.758,6.758,0,0,0,6.75-6.75V6.747A6.758,6.758,0,0,0,121.25,0Zm3.25,44.244a3.254,3.254,0,0,1-3.25,3.25h-4.916a1.751,1.751,0,0,0-1.307.587l-8.38,9.415-8.38-9.415a1.752,1.752,0,0,0-1.308-.587H73.688a1.752,1.752,0,0,0-1.308.587L64,57.493l-8.38-9.415a1.751,1.751,0,0,0-1.307-.587H31.041a1.752,1.752,0,0,0-1.308.587l-8.38,9.415-8.38-9.415a1.751,1.751,0,0,0-1.307-.587H6.75a3.254,3.254,0,0,1-3.25-3.25V6.747A3.254,3.254,0,0,1,6.75,3.5h114.5a3.254,3.254,0,0,1,3.25,3.25Z"/></g></svg>
