<?xml version="1.0" encoding="UTF-8"?>
<svg xmlns="http://www.w3.org/2000/svg" width="512" height="512" viewBox="0 0 128 128"><g><path d="M121.25,7H6.75A6.758,6.758,0,0,0,0,13.75v63.5A6.758,6.758,0,0,0,6.75,84H46.875v22.75H41.562a7.125,7.125,0,0,0,0,14.25H86.437a7.125,7.125,0,1,0,0-14.25H81.125V84H121.25A6.758,6.758,0,0,0,128,77.25V13.75A6.758,6.758,0,0,0,121.25,7ZM90.062,113.875a3.629,3.629,0,0,1-3.625,3.625H41.562a3.625,3.625,0,0,1,0-7.25H86.437A3.629,3.629,0,0,1,90.062,113.875ZM77.625,106.75H50.375V84h27.25ZM124.5,77.25a3.254,3.254,0,0,1-3.25,3.25H6.75A3.254,3.254,0,0,1,3.5,77.25V13.75A3.254,3.254,0,0,1,6.75,10.5h114.5a3.254,3.254,0,0,1,3.25,3.25Z"/><path d="M118.25,15H9.75A1.751,1.751,0,0,0,8,16.75v57.5A1.751,1.751,0,0,0,9.75,76h108.5A1.751,1.751,0,0,0,120,74.25V16.75A1.751,1.751,0,0,0,118.25,15ZM116.5,72.5H11.5v-54h105Z"/><path d="M22.75,68h82.5A6.758,6.758,0,0,0,112,61.25V29.75A6.758,6.758,0,0,0,105.25,23H22.75A6.758,6.758,0,0,0,16,29.75v31.5A6.758,6.758,0,0,0,22.75,68ZM19.5,29.75a3.254,3.254,0,0,1,3.25-3.25h82.5a3.254,3.254,0,0,1,3.25,3.25v31.5a3.254,3.254,0,0,1-3.25,3.25H22.75a3.254,3.254,0,0,1-3.25-3.25Z"/><path d="M56.625,102.25h10.75a1.75,1.75,0,0,0,1.237-.513l4-4a1.75,1.75,0,0,0,.513-1.237V90.25a1.751,1.751,0,0,0-1.75-1.75H56.625a1.751,1.751,0,0,0-1.75,1.75V100.5A1.751,1.751,0,0,0,56.625,102.25ZM58.375,92h11.25v3.775L66.65,98.75H58.375Z"/><path d="M45.749,58.842H60.721a1.75,1.75,0,0,0,1.75-1.75V33.908a1.75,1.75,0,0,0-1.75-1.75H45.749A1.75,1.75,0,0,0,44,33.908V57.092A1.75,1.75,0,0,0,45.749,58.842ZM47.5,35.658H58.971V55.342H47.5Z"/><path d="M67.279,35.658h5.736V57.092a1.75,1.75,0,0,0,3.5,0V35.658h5.736a1.75,1.75,0,0,0,0-3.5H67.279a1.75,1.75,0,0,0,0,3.5Z"/><path d="M88.809,58.842h14.972a1.75,1.75,0,0,0,0-3.5H90.559V47.25H101.75a1.75,1.75,0,0,0,0-3.5H90.559V35.658h13.222a1.75,1.75,0,0,0,0-3.5H88.809a1.75,1.75,0,0,0-1.75,1.75V57.092A1.75,1.75,0,0,0,88.809,58.842Z"/><path d="M27.794,57.481A1.749,1.749,0,0,0,29.5,58.842h4.41a1.749,1.749,0,0,0,1.706-1.361L40.9,34.3a1.75,1.75,0,0,0-3.412-.777L32.514,55.342H30.9L25.925,33.519a1.75,1.75,0,0,0-3.412.777Z"/></g></svg>
