<svg height="512" viewBox="0 0 128 128" width="512" xmlns="http://www.w3.org/2000/svg"><g><path d="m58.629 28.25h10.742a1.751 1.751 0 0 0 1.416-.722l7.967-10.974a1.747 1.747 0 0 0 .334-1.029v-5.778a1.75 1.75 0 0 0 -1.75-1.747h-26.676a1.75 1.75 0 0 0 -1.75 1.75v5.778a1.747 1.747 0 0 0 .334 1.029l7.967 10.974a1.751 1.751 0 0 0 1.416.719zm-6.217-16.75h23.176v3.46l-7.109 9.79h-8.958l-7.109-9.793z"/><path d="m96.917 101.967-21.53-67.158 11.367-15.657a1.745 1.745 0 0 0 .334-1.029v-16.376a1.75 1.75 0 0 0 -1.75-1.747h-42.676a1.75 1.75 0 0 0 -1.75 1.75v16.373a1.745 1.745 0 0 0 .334 1.029l11.367 15.657-21.523 67.138a1.751 1.751 0 0 0 .6 1.946l31.251 23.751a1.751 1.751 0 0 0 2.118 0l31.25-23.75a1.749 1.749 0 0 0 .608-1.927zm-58.446-11.577 47.1-12.356 2.589 8.072-52.75 13.833zm8.4-26.211 31.6-8.286 2.588 8.073-37.25 9.773zm8.956-27.929h16.346l1.788 5.576-21.753 5.712zm21.573 16.306-29.26 7.673 2.8-8.74 24.09-6.325zm7.1 22.144-44.761 11.739 2.8-8.75 39.59-10.389zm-47.884 28.54 52.611-13.8 2.373 7.397-47.144 12.363zm7.796-99.74h39.176v14.055l-11.032 15.195h-17.112l-11.032-15.195zm19.588 120.552-16-12.163 44.672-11.715.539 1.681z"/></g></svg>