<svg height="512" viewBox="0 0 128 128" width="512" xmlns="http://www.w3.org/2000/svg"><g><path d="m127.908 105.616a7.7 7.7 0 0 0 -8.575-6.516c-2.112.254-4.709.544-7.731.844l3.43-82.663a1.745 1.745 0 0 0 -.485-1.281l-5-5.207a1.749 1.749 0 0 0 -1.263-.538h-88.572a1.749 1.749 0 0 0 -1.263.538l-5 5.207a1.754 1.754 0 0 0 -.486 1.284l3.437 82.66c-3.022-.3-5.62-.59-7.732-.844a7.75 7.75 0 0 0 -1.858 15.388 487.326 487.326 0 0 0 57.19 3.26 487.326 487.326 0 0 0 57.192-3.26 7.746 7.746 0 0 0 6.716-8.872zm-107.45-91.864h87.084l3.963 4.129-2.547 61.371h-89.916l-2.542-61.371zm-.543 86.524-.728-17.524h89.625l-.726 17.524c-9.828.937-27.817 2.03-44.086 1.983-16.282.046-34.242-1.045-44.085-1.983zm103.72 9.091a4.2 4.2 0 0 1 -2.865 1.646 483.533 483.533 0 0 1 -56.77 3.235 483.586 483.586 0 0 1 -56.771-3.235 4.251 4.251 0 0 1 .5-8.469 506.016 506.016 0 0 0 56.271 3.215 493.056 493.056 0 0 0 55.751-3.184 4.252 4.252 0 0 1 3.884 6.792z"/><path d="m64 97.759c12.666 0 25.52-.5 38.206-1.5a1.749 1.749 0 0 0 1.611-1.673l.229-5.511a1.75 1.75 0 0 0 -1.748-1.822h-76.598a1.748 1.748 0 0 0 -1.748 1.822l.228 5.511a1.75 1.75 0 0 0 1.611 1.673c12.687.995 25.542 1.5 38.209 1.5zm36.474-7.007-.089 2.136c-12.091.912-24.325 1.371-36.385 1.371s-24.294-.459-36.385-1.371l-.089-2.136z"/></g></svg>