<?xml version="1.0" encoding="UTF-8"?>
<svg xmlns="http://www.w3.org/2000/svg" width="512" height="512" viewBox="0 0 128 128"><g><path d="M127.006,19.063,87.506.135a1.751,1.751,0,0,0-2.257.678l-6,10a1.751,1.751,0,0,0,.745,2.479l5.252,2.516L64.575,41.345H39.2a1.75,1.75,0,0,0-1.326.608L19.7,63.045H8.75A8.76,8.76,0,0,0,0,71.8v47.452A8.76,8.76,0,0,0,8.75,128h63.5a8.76,8.76,0,0,0,8.75-8.75V78.293h7.438a9.7,9.7,0,0,0,9.634-8.253l1.313-8.448,25.026-27.019,1.087.521A1.762,1.762,0,0,0,128,33.516V20.641A1.75,1.75,0,0,0,127.006,19.063ZM77.5,119.247a5.256,5.256,0,0,1-5.25,5.25H8.75a5.256,5.256,0,0,1-5.25-5.25V71.8a5.256,5.256,0,0,1,5.25-5.25H44.735v2a9.761,9.761,0,0,0,9.75,9.75H77.5ZM96.449,59.606a1.756,1.756,0,0,0-.445.92l-1.4,8.977a6.216,6.216,0,0,1-6.175,5.29H54.485a6.257,6.257,0,0,1-6.25-6.25v-2H72.254a1.75,1.75,0,0,0,0-3.5H24.324L40,44.845H65.41a1.751,1.751,0,0,0,1.36-.649L88.49,17.363,121.1,32.99ZM87.431,3.98,124.5,21.743v8.993L83.239,10.966Z"/><path d="M34.618,95.6a1.76,1.76,0,0,0-2.472-.124l-4.644,4.2a1.76,1.76,0,0,0-.124,2.472l8.387,9.273a1.761,1.761,0,0,0,2.61-.016L53.633,94.1a1.759,1.759,0,0,0-.156-2.47l-4.7-4.142a1.759,1.759,0,0,0-2.47.155L36.987,98.215Zm2.4,7a1.75,1.75,0,0,0,1.3-.592l9.463-10.73L49.851,93.1l-12.8,14.519-5.9-6.522L33.2,99.24l2.51,2.776A1.75,1.75,0,0,0,37.015,102.592Z"/><path d="M18.79,99.521A21.709,21.709,0,1,0,40.5,77.813,21.733,21.733,0,0,0,18.79,99.521Zm39.917,0A18.209,18.209,0,1,1,40.5,81.313,18.23,18.23,0,0,1,58.707,99.521Z"/></g></svg>
