<?xml version="1.0" encoding="UTF-8"?>
<svg xmlns="http://www.w3.org/2000/svg" width="512" height="512" viewBox="0 0 128 128"><g><path d="M126.25,52.628H92.207l27.221-9.273a1.748,1.748,0,0,0,1.091-2.221L106.911,1.186A1.748,1.748,0,0,0,104.69.093L20.385,28.81a1.751,1.751,0,0,0-1.092,2.222l7.356,21.6H1.75A1.75,1.75,0,0,0,0,54.378V71.065a1.749,1.749,0,0,0,1.75,1.75H6.469V120.25a1.749,1.749,0,0,0,.512,1.237l6,6a1.754,1.754,0,0,0,1.238.513h99.562a1.754,1.754,0,0,0,1.238-.513l6-6a1.749,1.749,0,0,0,.512-1.237V72.815h4.719a1.749,1.749,0,0,0,1.75-1.75V54.378A1.75,1.75,0,0,0,126.25,52.628ZM23.17,31.56,104.163,3.971l12.48,36.635L81.352,52.628h-51Zm94.861,87.965-4.974,4.975H14.943l-4.974-4.975V72.815H118.031Zm6.469-50.21H3.5V56.128h121Z"/><path d="M16.3,119.487a1.75,1.75,0,0,0,1.237.513h92.936a1.75,1.75,0,0,0,1.237-.513l1.314-1.313a1.75,1.75,0,0,0,.512-1.238V79.065a1.75,1.75,0,0,0-1.75-1.75H16.219a1.75,1.75,0,0,0-1.75,1.75v37.871a1.75,1.75,0,0,0,.512,1.238Zm1.674-38.672h92.062v35.4l-.288.289H18.257l-.288-.289Z"/><path d="M45.749,112H60.721a1.751,1.751,0,0,0,1.75-1.75V87.065a1.751,1.751,0,0,0-1.75-1.75H45.749A1.75,1.75,0,0,0,44,87.065V110.25A1.75,1.75,0,0,0,45.749,112ZM47.5,88.815H58.971V108.5H47.5Z"/><path d="M67.279,88.815h5.736V110.25a1.75,1.75,0,0,0,3.5,0V88.815h5.736a1.75,1.75,0,0,0,0-3.5H67.279a1.75,1.75,0,0,0,0,3.5Z"/><path d="M88.81,112h14.971a1.75,1.75,0,0,0,0-3.5H90.56v-8.092h11.19a1.75,1.75,0,0,0,0-3.5H90.56V88.815h13.221a1.75,1.75,0,0,0,0-3.5H88.81a1.75,1.75,0,0,0-1.75,1.75V110.25A1.75,1.75,0,0,0,88.81,112Z"/><path d="M27.794,110.639A1.751,1.751,0,0,0,29.5,112h4.409a1.749,1.749,0,0,0,1.706-1.361L40.9,87.454a1.75,1.75,0,1,0-3.412-.777L32.513,108.5H30.9L25.925,86.677a1.75,1.75,0,1,0-3.412.777Z"/><path d="M7.547,62.722a1.75,1.75,0,0,0,1.75,1.75H118.7a1.75,1.75,0,0,0,0-3.5H9.3A1.749,1.749,0,0,0,7.547,62.722Z"/><path d="M110.281,37.479a1.744,1.744,0,0,0,.086-1.337l-8.449-24.8A1.749,1.749,0,0,0,99.7,10.246L30.537,33.8a1.751,1.751,0,0,0-1.092,2.221l3.719,10.917a1.749,1.749,0,0,0,1.656,1.186h45.5a1.775,1.775,0,0,0,.565-.093l28.394-9.672A1.751,1.751,0,0,0,110.281,37.479ZM80.026,44.628H36.073l-2.751-8.075L99.17,14.123l7.32,21.491Z"/></g></svg>
